<?xml version="1.0" encoding="UTF-8" standalone="no"?>
<svg
   xmlns:dc="http://purl.org/dc/elements/1.1/"
   xmlns:cc="http://creativecommons.org/ns#"
   xmlns:rdf="http://www.w3.org/1999/02/22-rdf-syntax-ns#"
   xmlns:svg="http://www.w3.org/2000/svg"
   xmlns="http://www.w3.org/2000/svg"
   xmlns:xlink="http://www.w3.org/1999/xlink"
   xmlns:sodipodi="http://sodipodi.sourceforge.net/DTD/sodipodi-0.dtd"
   xmlns:inkscape="http://www.inkscape.org/namespaces/inkscape"
   width="800"
   version="1.1"
   height="600"
   id="svg2"
   inkscape:version="0.91pre2 r13532"
   sodipodi:docname="logo.svg">
  <sodipodi:namedview
     pagecolor="#00c7a5"
     bordercolor="#666666"
     borderopacity="1"
     objecttolerance="10"
     gridtolerance="10"
     guidetolerance="10"
     inkscape:pageopacity="0"
     inkscape:pageshadow="2"
     inkscape:window-width="1920"
     inkscape:window-height="1017"
     id="namedview27"
     showgrid="true"
     inkscape:zoom="0.59"
     inkscape:cx="747.95888"
     inkscape:cy="94.738554"
     inkscape:window-x="-8"
     inkscape:window-y="-8"
     inkscape:window-maximized="1"
     inkscape:current-layer="svg2">
    <inkscape:grid
       type="xygrid"
       id="grid4160"
       empspacing="4"
       dotted="true" />
  </sodipodi:namedview>
  <metadata
     id="metadata25">
    <rdf:RDF>
      <cc:Work
         rdf:about="">
        <dc:format>image/svg+xml</dc:format>
        <dc:type
           rdf:resource="http://purl.org/dc/dcmitype/StillImage" />
        <dc:title />
      </cc:Work>
    </rdf:RDF>
  </metadata>
  <defs
     id="defs4" />
  <path
     d="m 27.099496,541.50878 c -0.957354,0.96964 -1.656735,3.10194 -1.643143,6.08148 l 0.002,5e-5 c 0.009,2.5312 0.221968,4.37507 0.463327,5.93518 -1.037393,-0.11182 -2.521754,-0.30413 -5.265836,-0.55548 l -0.0039,-1.1e-4 c -4.786095,-0.15953 -5.462091,-0.26071 -10.026446,1.92581 -8.2657566,3.95769 -8.7973893,16.59116 -6.9596675,23.21507 2.8854241,10.44466 7.2153485,18.74874 12.0849225,20.76553 4.866715,2.01171 9.255703,0.0688 12.298713,-0.10383 3.046011,-0.17269 6.282459,1.72847 10.990541,0.0726 4.708062,-1.65516 8.828191,-8.6532 12.935769,-21.50649 3.507802,-10.9363 3.060847,-13.34996 -1.946889,-19.55223 -5.00832,-6.18129 -12.519342,-6.31619 -16.98928,-5.30664 -1.724792,0.38579 -2.775461,0.64932 -3.573518,0.83413 -0.230818,-1.22727 -0.428823,-2.53087 -0.545229,-4.19266 -0.195068,-2.72151 0.277501,-5.12815 1.63225,-6.46083 l -3.45356,-1.15159 z m 14.832065,20.13693 c 0.666038,0.0366 0.978984,0.74067 0.955418,1.32994 -0.0349,0.62627 0.09375,1.34027 -0.275481,1.88757 -0.285758,0.56024 -1.124514,0.76067 -1.590742,0.28967 -0.422352,-0.33703 -0.258693,-1.25708 -0.967209,-1.18763 -0.870592,-0.20579 -1.650754,0.38418 -2.264954,0.92343 -1.26223,1.17221 -2.446684,2.62373 -2.68793,4.38367 -0.215683,1.13142 0.611771,2.46885 1.827559,2.49342 1.087118,0.11841 2.037175,-0.50426 2.934038,-1.02392 0.472006,-0.38747 1.218383,-0.38507 1.560189,0.17449 0.470609,0.50034 0.239933,1.2643 -0.264049,1.61826 -1.394811,1.01214 -3.146898,1.72258 -4.893198,1.4225 -1.920099,-0.30975 -3.308781,-2.1662 -3.380204,-4.05693 -0.07965,-2.12605 1.049013,-4.0878 2.431394,-5.62179 0.665885,-0.70268 1.376712,-1.39519 2.216304,-1.90955 0.9137,-0.58517 2.048649,-0.82709 3.110599,-0.55983 0.496314,0.3466 0.791144,-0.16943 1.288212,-0.16135 l 5.5e-5,-0.002 z M 27.624089,561.3358 c 1.180439,-0.035 2.341502,0.52694 3.154596,1.36207 0.824257,0.84736 0.98092,2.1657 0.579439,3.24791 -0.09473,0.48685 -0.650101,1.00298 -0.728447,1.31611 0.673805,0.21691 1.294816,0.67174 1.538792,1.35992 0.111542,0.34735 0.298345,0.69183 0.208787,1.05897 -0.188938,0.92609 -0.96549,1.59708 -1.721136,2.08947 -1.359525,0.75172 -2.940793,0.977 -4.473973,1.03365 -0.545095,-0.0723 -1.044736,-0.53989 -1.098683,-1.09751 -0.01296,-1.28686 -0.08228,-2.57468 -0.05231,-3.86235 0.04972,-1.5182 0.106108,-3.0369 0.04911,-4.55508 0.0328,-0.5223 -0.124606,-1.18919 0.375267,-1.54286 0.696096,-0.24436 1.42973,-0.38752 2.1685,-0.40835 l 5.6e-5,-0.002 z m -7.109902,0.75876 c 0.639471,0.0279 0.970834,0.66901 1.085702,1.21243 0.07125,0.67226 0.143535,1.34407 0.234501,2.02687 -0.0016,0.17783 0.08617,0.43868 0.02724,0.56348 0.258492,1.7369 0.518045,3.47433 0.776637,5.21123 0.141667,0.69422 0.536026,1.33416 0.554033,2.05924 0.0771,0.59919 -0.411596,1.13953 -1.007612,1.16763 -0.669392,0.0583 -1.078381,-0.63912 -1.254316,-1.19175 -0.252577,-0.91741 -0.501995,-1.84347 -0.631359,-2.78825 -1.247087,0.12892 -2.488214,0.30413 -3.733009,0.45842 -0.395548,0.79827 -0.879641,1.54842 -1.317358,2.3235 -0.18807,0.41881 -0.649841,0.67135 -1.10237,0.57294 -0.514981,-0.12243 -1.037617,-0.64837 -0.954894,-1.20878 0.289164,-0.77522 0.742886,-1.47583 1.141895,-2.19747 0.472448,-0.45198 -0.126341,-1.13376 0.446426,-1.57214 0.670914,-0.17733 0.927414,-0.80091 1.309498,-1.34285 1.046082,-1.45635 2.083023,-2.92345 3.22314,-4.30815 0.362925,-0.3503 0.672698,-0.91243 1.217081,-0.97225 l -0.01524,-0.0141 z m 7.241417,1.24765 0.0077,0.004 c -0.239645,0.0126 -0.481797,-0.003 -0.721293,0.0111 0.01429,0.92076 -0.01094,1.8519 -0.02664,2.77182 0.01592,0.19632 -0.103081,0.50491 0.214528,0.4339 0.834668,0.0593 1.798038,-0.24621 2.222724,-1.02035 0.21969,-0.46205 0.299442,-1.11684 -0.09255,-1.51295 -0.432125,-0.39542 -0.991345,-0.73006 -1.604468,-0.68765 z m -7.955667,2.49753 c -0.262413,0.29399 -0.524265,0.58869 -0.786678,0.88267 -0.353696,0.54634 -0.688348,1.13142 -1.035952,1.69243 0.653757,-0.12539 1.314168,-0.20428 1.97671,-0.25739 l -0.05095,-1.18353 c 0.0127,-0.17871 -0.06071,-0.44302 0.0061,-0.56841 l -0.109241,-0.56577 z m 8.091929,2.6958 c -0.310348,0.0583 -0.625024,0.0566 -0.93888,0.0363 -0.0045,0.60211 -0.0064,1.20273 0.01994,1.804 -0.06247,0.35966 0.100705,0.46871 0.463417,0.33728 0.960328,-0.14153 2.028412,-0.28606 2.736576,-1.01967 0.614014,-0.29626 -0.0648,-0.55572 -0.388843,-0.69863 -0.372765,-0.11745 -0.829472,-0.38307 -1.175484,-0.37672 -0.239053,-0.0265 -0.477436,-0.0609 -0.716724,-0.0826 z m -0.590375,8.40281 c 0.187506,0.0171 0.367411,0.0411 0.509074,0.0318 1.172715,0.16982 2.245657,0.90816 2.849774,1.92213 0.550484,0.91773 0.264893,2.05462 -0.193651,2.94496 -0.236396,0.46918 -0.560722,0.94299 -0.982408,1.24453 -1.060044,0.91776 -2.428029,1.31265 -3.662635,1.9258 -0.776468,0.31744 -1.371884,1.01049 -1.538223,1.83667 0.93444,0.0331 1.863891,0.12931 2.791039,0.24797 0.895142,0.079 1.901788,0.29194 2.471587,1.05185 0.38874,0.52677 -0.01137,1.24937 -0.55146,1.48518 -0.446814,0.22701 -0.896688,-0.0708 -1.283584,-0.28401 -0.723707,-0.19961 -1.496048,-0.15837 -2.234713,-0.29886 -0.484475,-0.13296 -0.984225,-0.0804 -1.489314,-0.12364 -0.417199,0.005 -0.781711,-0.15185 -1.17963,-0.22834 -0.462573,-0.0791 -0.825114,-0.59478 -0.787134,-0.98917 -0.05757,-1.30512 0.434638,-2.66185 1.398797,-3.55997 1.030303,-0.89158 2.337511,-1.36024 3.531457,-1.98614 0.651162,-0.36196 1.393759,-0.72876 1.643758,-1.48787 0.238011,-0.45183 0.180828,-0.90505 -0.227798,-1.21778 -0.487448,-0.42042 -1.194463,-0.51424 -1.808431,-0.38074 -0.532526,0.1618 -0.990598,0.49824 -1.488098,0.74194 -0.49842,0.40194 -1.311356,0.28357 -1.633494,-0.27815 -0.22974,-0.51381 0.02328,-1.08043 0.464071,-1.36453 0.862561,-0.58093 1.79553,-1.12179 2.848059,-1.23344 l 0.0019,0.002 c 0.169898,-0.0298 0.36355,-0.0194 0.551059,-0.002 z m 7.345987,0.512 -0.0023,0.0116 c 1.220362,0.004 2.578534,0.47173 3.177009,1.60888 0.564406,1.1212 0.368146,2.7027 -0.700375,3.45835 -0.268059,0.12406 -0.311409,0.21013 -0.02121,0.33938 0.321218,0.23657 0.600819,0.53125 0.770938,0.86953 0.650115,1.34769 0.353735,3.11554 -0.765997,4.12866 -1.099826,1.08841 -2.884042,1.2234 -4.235759,0.54989 -0.796265,-0.34538 -1.517412,-1.04034 -1.681388,-1.92076 -0.09784,-0.52984 0.358589,-0.97836 0.857476,-1.03896 0.480796,-0.0898 0.849845,0.29169 1.049725,0.68193 0.249793,0.51217 0.825178,0.7491 1.372288,0.74564 0.708912,0.0918 1.550033,-0.28297 1.732298,-1.02037 0.186117,-0.82512 -0.313546,-1.68604 -1.076896,-2.01719 -0.481517,-0.27465 -1.051131,-0.26295 -1.560469,-0.44414 -0.543859,-0.19527 -0.76316,-0.97018 -0.309556,-1.36856 0.358287,-0.39915 0.908014,-0.39243 1.389791,-0.51022 0.380972,-0.0975 0.792706,-0.10851 1.143269,-0.28849 0.493021,-0.23732 0.611305,-0.93768 0.305766,-1.36308 -0.412025,-0.50614 -1.14986,-0.49941 -1.743501,-0.46685 -0.507926,0.11916 -0.896459,0.50321 -1.368023,0.71012 -0.47937,0.20349 -1.00503,-0.13301 -1.173606,-0.58379 -0.259977,-0.50216 0.124855,-1.03468 0.54053,-1.30377 0.691973,-0.41904 1.474658,-0.77843 2.299965,-0.77786 z m -16.024083,-0.0608 c 0.441504,-0.0477 0.791407,0.31315 0.819662,0.73411 0.02578,0.57094 -0.05861,1.14606 0.02044,1.71609 0.208601,1.07024 0.118301,2.16333 0.104688,3.24638 -0.06984,1.33257 -0.0615,2.67669 0.189386,3.99121 0.03747,0.16281 0.330896,0.007 0.47979,0.031 0.450366,-0.0175 1.045808,0.34375 1.037649,0.90434 0.08034,0.54375 -0.38056,1.00116 -0.874841,1.10099 -0.569163,0.0337 -1.137819,0.0662 -1.706606,0.10082 -0.650705,0.0161 -1.309178,0.1483 -1.954327,0.0157 -0.447812,-0.0559 -0.691364,-0.53395 -0.628022,-0.94955 0.06949,-0.58958 0.678857,-0.90351 1.219676,-0.92528 0.30752,0.004 0.601199,-0.004 0.425575,-0.40625 -0.08368,-0.4281 -0.08384,-0.94406 -0.197464,-1.32438 -0.07503,-1.54369 0.03262,-3.08915 -0.03857,-4.63374 0.07765,-0.45911 -0.233093,-0.0864 -0.446502,0.0363 -0.515728,0.40916 -1.290258,-0.009 -1.45887,-0.58393 -0.184677,-0.56198 0.312155,-1.01059 0.699543,-1.33059 0.342426,-0.26825 0.638556,-0.6293 0.981805,-0.87331 0.345257,-0.38751 0.755356,-0.80605 1.305188,-0.83888 l 0.0218,-0.0111 z"
     id="logo"
     style="fill:#ffffff"
     inkscape:label=""
     inkscape:connector-curvature="0" />
  <g
     id="SmallLogo"
     inkscape:label=""
     transform="translate(0,131.99997)">
    <rect
       y="424"
       x="112"
       height="44"
       width="44"
       id="rect4165"
       style="fill:none;stroke:none" />
    <use
       height="100%"
       width="100%"
       transform="matrix(0.53894441,0,0,0.53894441,118.83232,137.30195)"
       id="use4167"
       xlink:href="#logo"
       y="0"
       x="0" />
  </g>
  <g
     inkscape:label=""
     id="SplashScreen"
     transform="translate(888,131.99997)"
     inkscape:export-xdpi="216"
     inkscape:export-ydpi="216">
    <rect
       style="stroke:none;fill:none"
       id="rect4175"
       width="480"
       height="800"
       x="112"
       y="-332" />
    <use
       x="0"
       y="0"
       xlink:href="#logo"
       id="use4177"
       transform="matrix(4.2601195,0,0,4.2601195,240.8578,-2384.7421)"
       width="100%"
       height="100%" />
  </g>
  <g
     inkscape:label=""
     id="WideLogo"
     transform="matrix(6.8181818,0,0,6.8181818,836.36364,-2590.9091)">
    <rect
       style="fill:none;stroke:none"
       id="rect4205"
       width="88"
       height="44"
       x="112"
       y="424" />
    <use
       x="0"
       y="0"
       xlink:href="#logo"
       id="use4207"
       transform="matrix(0.40973218,0,0,0.40973218,144.33241,211.76685)"
       width="100%"
       height="100%" />
  </g>
  <g
     transform="matrix(1.6136364,0,0,1.6136364,71.272727,-155.18184)"
     inkscape:label=""
     id="Square71x71Logo">
    <rect
       style="fill:none;stroke:none"
       id="rect4157"
       width="44"
       height="44"
       x="112"
       y="424" />
    <use
       x="0"
       y="0"
       xlink:href="#logo"
       id="use4159"
       transform="matrix(0.51272631,0,0,0.51272631,119.58026,152.992)"
       width="100%"
       height="100%" />
  </g>
  <g
     id="StoreLogo"
     inkscape:export-xdpi="216"
     inkscape:export-ydpi="216">
    <rect
       y="550"
       x="192"
       height="50"
       width="50"
       id="rect4159"
       style="fill:#5a9a33;stroke:none"
       inkscape:export-xdpi="216"
       inkscape:export-ydpi="216" />
    <g
       transform="matrix(1.1363636,0,0,1.1363636,64.727273,68.181783)"
       inkscape:label=""
       id="use4165">
      <rect
         style="fill:none;stroke:none"
         id="rect4163"
         width="44"
         height="44"
         x="112"
         y="424" />
      <use
         x="0"
         y="0"
         xlink:href="#logo"
         id="use4166"
         transform="matrix(0.48659014,0,0,0.48659014,120.32585,166.85183)"
         width="100%"
         height="100%" />
    </g>
  </g>
  <g
     transform="matrix(3.4090909,0,0,3.4090909,-29.818182,-995.4546)"
     inkscape:label=""
     id="Logo"
     inkscape:export-xdpi="216"
     inkscape:export-ydpi="216">
    <rect
       style="fill:none;stroke:none"
       id="rect4151"
       width="44"
       height="44"
       x="112"
       y="424" />
    <use
       x="0"
       y="0"
       xlink:href="#logo"
       id="use4153"
       transform="matrix(0.42260157,0,0,0.42260157,122.15127,203.08425)"
       width="100%"
       height="100%" />
  </g>
</svg>
