<svg xmlns:rdf="http://www.w3.org/1999/02/22-rdf-syntax-ns#" xmlns="http://www.w3.org/2000/svg" height="1052" width="744.1" version="1.1" xmlns:cc="http://creativecommons.org/ns#" xmlns:xlink="http://www.w3.org/1999/xlink" xmlns:dc="http://purl.org/dc/elements/1.1/">
<g id="id_background_1">
<rect height="181" width="182.7" y="8.612" x="9.866" fill="none"/>
<path d="m182.6 97.89a82.58 82.2 0 1 1 -165.2 0 82.58 82.2 0 1 1 165.2 0z" fill-rule="evenodd" fill-opacity=".6275" fill="#9191af"/>
<g fill-rule="evenodd">
<path d="m100.3 10.19c-24.73-0.15-49.47 9.75-66.86 32.78-48.39 64.03-9.48 128.5 43.56 142.1 53 13.6 116.3-22.7 113.2-95.69-1.9-46.74-45.9-78.96-89.9-79.22zm-2.14 23.09c36.84-0.15 76.94 32.57 67.14 77.82-10.4 48.3-68.47 74.6-110.7 30.4-42.24-44.29-2.36-102.8 36.24-107.8 2.42-0.26 4.86-0.41 7.32-0.42z" fill="#222"/>
<path d="m100.9 11.89c-55.53-2.445-116.2 71.96-72.82 135.4 43.39 63.4 137.2 43.8 155.3-23.3 18.2-66.98-26.9-109.7-82.5-112.1zm72.58 89.38c-4.4 63.8-73.62 91.9-119.6 52.1-46-39.7-23.57-98.96 13.59-119.3 37.11-20.37 110.4 3.38 106 67.2z" fill="#4d4db1"/>
<path id="c" d="m98.68 32.04c1.027 9.429 0.7165 13.9 0.7143 13.93 1.171-0.01479 2.385 0.1433 3.445-0.3138-0.1258-4.652-0.2396-9.311-0.9452-13.61z" fill="#222"/>
</g>
<use xlink:href="#c" transform="matrix(-.03639 -.9995 -1.162 .03131 211.5 198.6)" height="1052.3622" width="744.09448" y="0" x="0"/>
<use xlink:href="#c" transform="matrix(.9950 -.09960 -.09149 -.9139 4.07 204.2)" height="1052.3622" width="744.09448" y="0" x="0"/>
<use xlink:href="#c" transform="matrix(-.04345 -.9989 -.9084 .04778 82.04 197.6)" height="1052.3622" width="744.09448" y="0" x="0"/>
<use xlink:href="#c" transform="matrix(.8660 .5 -.5 .8660 62.88 -37.01)" height="1052.3622" width="744.09448" y="0" x="0"/>
<use xlink:href="#c" transform="matrix(.5 .8660 -.8660 .5 137.2 -37.95)" height="1052.3622" width="744.09448" y="0" x="0"/>
<use xlink:href="#c" transform="matrix(-.5 .8660 -.8660 -.5 238 61.34)" height="1052.3622" width="744.09448" y="0" x="0"/>
<use xlink:href="#c" transform="matrix(-.8660 .5 -.5 -.8660 237.9 134.9)" height="1052.3622" width="744.09448" y="0" x="0"/>
<use xlink:href="#c" transform="matrix(-.8660 -.5 .5 -.8660 138.9 234.9)" height="1052.3622" width="744.09448" y="0" x="0"/>
<use xlink:href="#c" transform="matrix(-.5 -.8660 .8660 -.5 65.8 235.4)" height="1052.3622" width="744.09448" y="0" x="0"/>
<use xlink:href="#c" transform="matrix(.5 -.8660 .8660 .5 -35.21 136.8)" height="1052.3622" width="744.09448" y="0" x="0"/>
<use xlink:href="#c" transform="matrix(.8660 -.5 .5 .8660 -35.9 63.25)" height="1052.3622" width="744.09448" y="0" x="0"/>
<path d="m103.4 28.09c-60.06-2.68-89.65 63.61-64.07 105 25.59 41.38 82.58 55.27 118.1 8.95 35.5-46.32 6.11-111.3-53.98-113.9zm47.41 26.78c37.6 40.59 10.65 90.02-26.07 107.5-36.65 17.4-101.2-24-87.62-78.43 13.58-54.45 76.12-69.69 113.7-29.1z" fill-rule="evenodd" fill="#bfd0ea"/>
</g>
<g id="id_minute_1">
<path d="m98.28 101.7c-0.65-13.28-0.11-36-0.11-36-1.403-0.08353-3.213 0.08309-6.878 1.389 0 0 7.024-18.87 9.575-19.45 2.551-0.5732 9.289 19.95 9.289 19.95-1.872-0.9332-4.604-2.093-5.967-1.768-0.6653 11.88-0.0129 22.95 0.4299 35.48z" fill="#222"/>
<path d="m99 101.5c-0.4779-12.03 0.2427-37.11 0.2427-37.11-1.04-0.07577-3.214-0.5244-5.931 0.6601 0 0 5.661-14.47 7.552-14.99 1.891-0.5199 7.147 15.26 7.147 15.26-1.568-1.412-4.033-1.141-5.033-0.8143-0.4931 10.77 0.286 25.19 0.6142 36.56z" fill="#4343bb"/>
</g>
<g id="id_hour_1">
<path d="m103.5 96.14c0.6657 13.26-0.0705 26.5-0.0705 26.5 1.648 0.095 2.45-0.0569 6.765-1.333 0 0-6.577 16.6-9.579 17.15-3.001 0.5524-9.168-18.57-9.168-18.57 2.193 0.9484 4.886 2.883 6.49 2.569 0.5961-11.96 0.1216-13.65-0.3118-26.19z" fill="#222"/>
<path d="m102.6 96.92c0.1656 9.441-0.3961 20.29-0.4854 26.99 1.221 0.0842 2.447 0.5506 5.647-0.6118 0 0-4.946 12.46-7.171 12.97-2.225 0.5045-6.811-13.6-6.811-13.6 1.833 1.425 4.348 1.423 5.526 1.105 0.2969-8.181-0.2631-17.68-0.5252-26.63z" fill="#4343bb"/>
</g>
<g id="id_foreground_1" fill-rule="evenodd">
<path d="m107.8 98.29c0.4106 5.589-4.235 8.574-8.417 7.48-4.182-1.093-7.759-6.058-3.944-11.22 3.815-5.163 11.95-1.849 12.36 3.741z" fill="#222"/>
<path d="m101.1 93.49c-5.789-0.2046-6.989 6.716-4.433 9.271 2.556 2.556 5.666 2.731 8.477 0.2859s1.746-9.353-4.044-9.557zm1.842 3.956c1.303 1.582-0.009 3.808-1.582 4.073-1.573 0.2652-3.519-1.258-2.699-3.438 0.8204-2.18 2.978-2.218 4.281-0.6353z" fill="#c4d1e5"/>
</g>
<g id="id_background_2">
<rect height="182.9" width="180.8" y="8.249" x="259.3" fill="none"/>
<path d="m431.8 99.41a81.06 82.71 0 1 1 -162.1 0 81.06 82.71 0 1 1 162.1 0z" fill-rule="evenodd" fill-opacity=".5020" fill="#ffe680"/>
<g fill-rule="evenodd">
<path d="m344.6 9.812c-39.5 0.688-71.6 29.96-80.8 65.6-13.5 52.99 22.8 116.3 95.8 113.2 72.9-3 110.5-108.4 46.4-156.8-21-15.83-42.1-22.32-61.4-21.99zm3.4 17.85c35.4-0.25 67.4 30.26 72.2 60.34 6.9 42.8-28.5 92.9-83.7 80.6-55.3-12.4-81.8-76.65-33.4-121.8 14.4-13.47 30-19.04 44.9-19.14z" fill="#222"/>
<path d="m437.1 99.35c2.444-55.57-71.96-116.3-135.4-72.87-63.4 43.39-43.8 137.2 23.21 155.3 67.02 18.14 109.7-26.91 112.2-82.48zm-89.38 72.58c-63.8-4.4-93.5-73.11-52.2-119.6s99.5-21.54 119.9 15.62c20.3 37.18-3.9 108.4-67.7 104z" fill="#ffe680"/>
<path id="a" d="m416.9 96.88c-9.429 1.028-13.9 0.7165-13.93 0.7143 0.0148 1.171-0.1433 2.385 0.3138 3.445 4.652-0.1258 9.311-0.2396 13.61-0.9452z" fill="#222"/>
</g>
<use xlink:href="#a" transform="matrix(.03131 1.162 .9995 -.03639 238.1 -311.7)" height="1052.3622" width="744.09448" y="0" x="0"/>
<use xlink:href="#a" transform="matrix(-.9139 .09149 .09960 .9950 655.2 -36.76)" height="1052.3622" width="744.09448" y="0" x="0"/>
<use xlink:href="#a" transform="matrix(.04778 .9084 .9989 -.04345 231.4 -330)" height="1052.3622" width="744.09448" y="0" x="0"/>
<use xlink:href="#a" transform="matrix(.8660 .5 -.5 .8660 96.76 -161.4)" height="1052.3622" width="744.09448" y="0" x="0"/>
<use xlink:href="#a" transform="matrix(.5 .8660 -.8660 .5 261.4 -252)" height="1052.3622" width="744.09448" y="0" x="0"/>
<use xlink:href="#a" transform="matrix(-.5 .8660 -.8660 -.5 610 -153.6)" height="1052.3622" width="744.09448" y="0" x="0"/>
<use xlink:href="#a" transform="matrix(-.8660 .5 -.5 -.8660 701.7 10.79)" height="1052.3622" width="744.09448" y="0" x="0"/>
<use xlink:href="#a" transform="matrix(-.8660 -.5 .5 -.8660 604 360.2)" height="1052.3622" width="744.09448" y="0" x="0"/>
<use xlink:href="#a" transform="matrix(-.5 -.8660 .8660 -.5 438.6 450.9)" height="1052.3622" width="744.09448" y="0" x="0"/>
<use xlink:href="#a" transform="matrix(.5 -.8660 .8660 .5 89.46 351.9)" height="1052.3622" width="744.09448" y="0" x="0"/>
<use xlink:href="#a" transform="matrix(.8660 -.5 .5 .8660 -1.945 187.8)" height="1052.3622" width="744.09448" y="0" x="0"/>
</g>
<g id="id_minute_2">
<path d="m347.1 99.06 0.0714-50.3 5.771 0.2503 0.4062 50z" fill="#222"/>
<path d="m348 99.05 0.1921-49.05 3.699 0.2056 0.4024 48.85z" fill="#c8ab37"/>
</g>
<g id="id_hour_2">
<path d="m354.3 98.31c1.138 15.09-0.9026 35.28-0.9026 35.28l-6.685-0.1818s-0.4566-20.57-1.187-34.83c0.8327-6.212 8.882-4.331 8.774-0.2653z" fill="#222"/>
<path d="m350.1 95.9c-2.007 0.09097-3.378 1.349-3.54 3.357 0.5091 11.7 1.259 32.72 1.259 32.72l4.688 0.125s1.843-20.5 1.049-32.88c-0.0174-1.844-1.714-3.405-3.455-3.326zm1.395 2.783c0.3105 1.003-0.8557 2.192-2.013 1.835-1.158-0.3571-1.435-1.95-0.375-2.661 1.06-0.7113 2.078-0.1768 2.388 0.8264z" fill="#c8ab37"/>
</g>
<g id="id_background_3" transform="translate(0 -.2525)">
<rect height="181.7" width="182.9" y="8.746" x="508.8" fill="none"/>
<path d="m687.3 97.9c0 45.56-37.42 82.5-83.57 82.5-46.16 0-83.57-36.94-83.57-82.5s37.42-82.5 83.57-82.5c46.16 0 83.57 36.94 83.57 82.5z" fill-rule="evenodd" fill-opacity=".6275" fill="#a0a0a0"/>
<path id="b" d="m597.9 25.2c1.028 9.429 0.7165 13.9 0.7143 13.93 1.171-0.01479 2.385 0.1433 3.445-0.3138-0.1258-4.652-0.2396-9.311-0.9452-13.61z" fill="#222"/>
<use xlink:href="#b" transform="matrix(-.03639 -.9995 -1.162 .03131 727 698)" height="1052.3622" width="744.09448" y="0" x="0"/>
<use xlink:href="#b" transform="matrix(.9950 -.09960 -.09149 -.9139 6.432 254.5)" height="1052.3622" width="744.09448" y="0" x="0"/>
<use xlink:href="#b" transform="matrix(-.04345 -.9989 -.9084 .04778 588.9 697.1)" height="1052.3622" width="744.09448" y="0" x="0"/>
<use xlink:href="#b" transform="matrix(.8660 .5 -.5 .8660 129.9 -286.3)" height="1052.3622" width="744.09448" y="0" x="0"/>
<use xlink:href="#b" transform="matrix(.5 .8660 -.8660 .5 386.5 -470.4)" height="1052.3622" width="744.09448" y="0" x="0"/>
<use xlink:href="#b" transform="matrix(-.5 .8660 -.8660 -.5 985.7 -371.1)" height="1052.3622" width="744.09448" y="0" x="0"/>
<use xlink:href="#b" transform="matrix(-.8660 .5 -.5 -.8660 1169 -115.3)" height="1052.3622" width="744.09448" y="0" x="0"/>
<use xlink:href="#b" transform="matrix(-.8660 -.5 .5 -.8660 1071 484.9)" height="1052.3622" width="744.09448" y="0" x="0"/>
<use xlink:href="#b" transform="matrix(-.5 -.8660 .8660 -.5 814.7 668.5)" height="1052.3622" width="744.09448" y="0" x="0"/>
<use xlink:href="#b" transform="matrix(.5 -.8660 .8660 .5 214 569.5)" height="1052.3622" width="744.09448" y="0" x="0"/>
<use xlink:href="#b" transform="matrix(.8660 -.5 .5 .8660 30.61 313.2)" height="1052.3622" width="744.09448" y="0" x="0"/>
<path d="m599.5 10.41c-24.71-0.1485-49.45 9.753-66.84 32.78-48.39 64.08-9.48 128.6 43.56 142.2 53.04 13.57 116.3-22.76 113.2-95.72-1.958-46.74-45.89-78.95-89.94-79.22zm-3.062 17.5c40.35-0.1702 84.22 35.58 73.5 85-11.44 52.71-74.95 81.5-121.2 33.16-46.23-48.34-2.569-112.3 39.69-117.7 2.641-0.3374 5.31-0.4887 8-0.5z" fill-rule="evenodd" fill="#222"/>
<path d="m600.1 12.12c-55.5-2.441-116.2 71.96-72.8 135.4 43.4 63.4 137.2 43.8 155.3-23.2 18.2-67.04-26.9-109.7-82.5-112.2zm72.58 89.38c-4.393 63.79-73.64 91.92-119.6 52.16-45.99-39.77-23.56-98.99 13.6-119.3 37.16-20.35 110.4 3.397 106 67.19z" fill-rule="evenodd" fill="#808080"/>
</g>
<g id="id_minute_3">
<path d="m598.4 41.31 3.429 0.1154c-0.2685 27.28-0.1416 51.34 0.0532 67.5-1.285-0.1402-2.349-0.1271-3.54-0.0207 0.017-23.44-0.4069-43.04 0.0572-67.59z" fill="#222"/>
<path d="m601.1 42.01c-0.3254 26.75-0.0715 50.9 0.0271 66.36-0.7293-0.0157-1.512-0.0989-2.115-0.0288-0.1015-22.41-0.4005-54.62 0.0247-66.4z" fill="#5c5c5c"/>
</g>
<g id="id_hour_3">
<path d="m597.9 89.11 4.787 0.07931c-0.3748 18.74-0.7557 35.27-0.4837 46.37-1.794-0.0963-2.186-0.0873-3.848-0.0142 0.0237-16.1-1.104-29.57-0.4559-46.44z" fill="#222"/>
<path d="m602 89.68c-0.4542 18.38-0.4569 34.7-0.3193 45.32-1.018-0.0108-1.895-0.0679-2.736-0.0198-0.1417-15.4-1.005-37.26-0.4119-45.35z" fill="#5c5c5c"/>
</g>
<g id="id_foreground_3">
<path d="m603.9 98.93c0.2275 3.097-2.346 4.751-4.664 4.145-2.317-0.6058-4.299-3.357-2.185-6.217s6.621-1.024 6.849 2.073z" fill-rule="evenodd" fill="#222"/>
</g>
</svg>
