<svg xmlns:rdf="http://www.w3.org/1999/02/22-rdf-syntax-ns#" xmlns="http://www.w3.org/2000/svg" height="100%" viewBox="0 0 640 360" width="100%" version="1.1" xmlns:cc="http://creativecommons.org/ns#" xmlns:xlink="http://www.w3.org/1999/xlink" xmlns:dc="http://purl.org/dc/elements/1.1/">
<defs>
<radialGradient id="n" gradientUnits="userSpaceOnUse" cy="9.196" cx="1180" gradientTransform="matrix(1.495 -.003683 .002463 1 -584.3 4.346)" r="181">
<stop stop-opacity="0" offset="0"/>
<stop stop-opacity="0" offset=".4337"/>
<stop stop-opacity=".1176" offset=".7082"/>
<stop stop-opacity=".2745" offset="1"/>
</radialGradient>
<radialGradient id="m" gradientUnits="userSpaceOnUse" cy="9.196" cx="1180" gradientTransform="matrix(.1307 -.00001865 .0001559 .1284 1767 253)" r="181">
<stop stop-opacity="0" offset="0"/>
<stop stop-opacity="0" offset=".3476"/>
<stop stop-opacity=".1176" offset=".7666"/>
<stop stop-opacity=".2745" offset="1"/>
</radialGradient>
<radialGradient id="l" gradientUnits="userSpaceOnUse" cy="9.196" cx="1180" gradientTransform="matrix(.1961 -.00001865 .0002338 .1284 1699 515)" r="181">
<stop stop-opacity="0" offset="0"/>
<stop stop-opacity="0" offset=".3476"/>
<stop stop-opacity=".1176" offset=".7666"/>
<stop stop-opacity=".2745" offset="1"/>
</radialGradient>
<radialGradient id="k" gradientUnits="userSpaceOnUse" cy="9.196" cx="1180" gradientTransform="matrix(.2407 0 .0002786 .1284 1657 764)" r="181">
<stop stop-opacity="0" offset="0"/>
<stop stop-opacity="0" offset=".3476"/>
<stop stop-opacity=".1176" offset=".7666"/>
<stop stop-opacity=".2745" offset="1"/>
</radialGradient>
<radialGradient id="j" gradientUnits="userSpaceOnUse" cy="9.196" cx="1180" gradientTransform="matrix(.3130 0 .0003622 .1284 1584 1018)" r="181">
<stop stop-opacity="0" offset="0"/>
<stop stop-opacity="0" offset=".3476"/>
<stop stop-opacity=".1176" offset=".7666"/>
<stop stop-opacity=".2745" offset="1"/>
</radialGradient>
<radialGradient id="i" gradientUnits="userSpaceOnUse" cy="9.196" cx="1180" gradientTransform="matrix(.3732 0 .0004319 .1284 1523 1308)" r="181">
<stop stop-opacity="0" offset="0"/>
<stop stop-opacity="0" offset=".3476"/>
<stop stop-opacity=".1176" offset=".7666"/>
<stop stop-opacity=".2745" offset="1"/>
</radialGradient>
<radialGradient id="h" gradientUnits="userSpaceOnUse" cy="9.196" cx="1180" gradientTransform="matrix(.4333 0 .0005015 .1284 1462 1598)" r="181">
<stop stop-opacity="0" offset="0"/>
<stop stop-opacity="0" offset=".3476"/>
<stop stop-opacity=".1176" offset=".7666"/>
<stop stop-opacity=".2745" offset="1"/>
</radialGradient>
</defs>
<rect height="204.2" width="459.6" y="219.4" x="698.6" fill="#808080"/>
<g id="id_frame_1">
<rect id="a" height="276.3" width="360" y="-130" x="1e3" fill="url(#n)"/>
<path d="m999-131v278h362v-278zm360.6 34.03c-0.4404 15.32-1.271 10.85-1.148 63.55 0.1226 52.71 2.258 132.9-0.3827 148.6s-13.51 25.78-27.02 27.78c-13.51 2.003-69.91 3.148-149.6 1.409-77.75-1.697-143.6 0.428-153.5-1.096-9.854-1.524-26.73-10.08-27.69-30.34-0.9592-20.26 3.592-71.82 3.531-106.2-0.095-53.6-3.624-93.82-2.438-106.9 1.531-16.89 12.94-27.22 28.59-28.69 15.65-1.468 124.7 0.1568 166.2-0.7474 46.26-1.007 114.4 1.678 133.9 1.786 19.46 0.1077 30.01 15.53 29.57 30.85z"/>
</g>
<g id="id_frame_2">
<use xlink:href="#a" transform="matrix(1 0 0 1.158 381 20.73)" height="360" width="640" y="0" x="0"/>
<path d="m1380-131v322h362v-322zm360.6 33.96c-0.4404 16.56-1.271 18.02-1.148 79.06 0.1226 61.05 3.319 160.2-0.3827 178.6-3.702 18.39-15.64 24.82-27.02 26.73-11.38 1.911-69.91 3.647-149.6 1.632-77.75-1.966-143.3 0.4957-153.5-1.269-10.21-1.765-26.38-7.319-27.69-29.69-1.313-22.37 2.799-89.64 2.738-129.5-0.095-62.08-4.111-114.3-1.645-129.3 2.946-17.89 13.3-25.35 28.59-28.28 15.29-2.929 124.7 1.182 166.2 0.1343 46.26-1.166 115.5 0.5344 133.9 1.069 18.4 0.5343 30.01 14.23 29.57 30.78z"/>
</g>
<g id="id_frame_3">
<use xlink:href="#a" transform="matrix(1 0 0 1.313 381 387)" height="360" width="640" y="0" x="0"/>
<path d="m1380 215v365h362v-365zm359.5 128.1c0.1226 69.21 1.78 185.8-0.029 204-1.809 18.19-16.21 27.2-27.37 29.11-11.16 1.916-69.91 4.134-149.6 1.85-77.75-2.228-143.9 0.1869-153.5-1.439-9.586-1.626-26.48-13.26-27.69-32.12-1.209-18.86 2.799-103.5 2.738-148.7-0.095-70.37-5.036-132.7-1.645-149.5 3.83-19.01 14.36-26.98 28.59-29.41 14.23-2.436 124.7 1.339 166.2 0.1522 46.26-1.322 112.8-0.8084 133.9 1.211 21.05 2.02 28.98 14.82 29.04 31.54 0.056 16.72-0.6783 47.46-0.6178 93.34z"/>
</g>
<g id="id_frame_4">
<use xlink:href="#a" transform="matrix(1 0 0 .9084 381 719.1)" height="360" width="640" y="0" x="0"/>
<path d="m1380 600v253h362v-253zm359.5 128.1c0.1226 69.21 1.78 73.78-0.029 91.97s-16.21 26.82-27.37 28.74c-11.16 1.916-69.91 4.509-149.6 2.225-77.75-2.228-143.9 0.1869-153.5-1.439-9.586-1.626-26.48-13.26-27.69-32.12-1.209-18.86 1.385-47.51 1.324-92.65-0.095-70.37-3.622-76.71-0.2309-93.55 3.83-19.01 14.36-26.98 28.59-29.41 14.23-2.436 124.7 1.714 166.2 0.5272 46.26-1.322 112.8-1.183 133.9 0.8364 21.05 2.02 28.98 14.82 29.04 31.54 0.056 16.72-0.6783 47.46-0.6178 93.34z"/>
</g>
<g id="id_frame_5">
<use xlink:href="#a" transform="matrix(1 0 0 .7781 381 979.2)" height="360" width="640" y="0" x="0"/>
<path d="m1380 877v217h362v-217zm359.5 128.1c0.1799 36.86 1.78 37.78-0.029 55.97s-16.21 27.2-27.37 29.11c-11.16 1.916-69.91 4.134-149.6 1.85-77.75-2.228-143.9 0.1869-153.5-1.439-9.586-1.626-26.92-13.44-27.69-32.12-0.7673-18.68 1.12-11.51 1.059-56.65-0.095-70.37-3.003-76.71 0.3879-93.55 3.83-19.01 14.01-26.71 28.24-29.15 14.23-2.436 124.7 1.074 166.2-0.1129 46.26-1.322 112.8-0.8084 133.9 1.211 21.05 2.02 28.98 14.82 29.04 31.54 0.056 16.72-0.7977 56.48-0.6178 93.34z"/>
</g>
<g fill="#eee">
<path id="id_menubutton" d="m778.4 245.5c-3.759 0.1735-7.564 2.495-8.406 6.438-1.497 7.008 3.224 11.12 9.688 10.19 6.463-0.94 9.364-6.777 6-12.91-1.47-2.682-4.358-3.854-7.281-3.719zm-0.8 1.6c6.404-0.1418 8.768 4.622 7.312 9.031-1.639 4.961-8.681 5.88-11.91 2.688-3.224-3.192-1.811-11.58 4.594-11.72zm1.539 1.552 0.1496 4.227 2.552-0.0827-0.1311-4.215zm-4.401 0.1956-0.099 4.136 2.851-0.0345 0.005-4.235zm-0.1545 5.93-0.0408 4.075 2.978 0.0953 0.0238-4.088zm4.794 0.0664 0.0386 4.117 2.467-0.0944-0.0107-4.054z" fill-opacity=".5804" fill-rule="evenodd"/>
<path id="id_optionsbutton" d="m727.9 245.4c-0.6337 0.0303-1.267 0.1368-1.906 0.3438-6.818 2.208-8.013 8.341-3.969 13.47 4.044 5.128 10.56 4.726 14.19-1.25 3.287-5.416-2.187-12.86-8.312-12.56zm0.9 1.6c1.951 0.0483 3.847 0.9154 5.094 2.969 3.325 5.476 0.6436 9.841-4.188 10.84-4.831 1.002-9.433-4.58-8.281-8.969 0.7201-2.743 4.124-4.924 7.375-4.844zm-4.812 4.344 9.312 0.2188 0.0625-1.969s-9.128-0.1562-9.236-0.1562zm-0.1876 1.625v1.906l9.312 0.2188 0.0625-1.969s-9.16-0.1562-9.375-0.1562zm0.0937 3.312-0.0312 1.906 9.344 0.2188 0.0312-1.969s-9.128-0.1562-9.344-0.1562z" fill-opacity="0.58" fill-rule="evenodd"/>
<path id="id_exitbutton" d="m732.8 286.9 1.586 1.672-3.052 3.131 2.95 3.197-1.679 1.679-2.858-3.302-2.827 3.03-1.613-1.701 2.937-2.919-3.087-3.212 1.635-1.635 2.994 3.206zm-4.118-3.571c-7.293 0.2756-8.718 9.019-5.345 13.55 4.044 5.128 10.56 4.726 14.19-1.25 3.287-5.416-1.55-12.57-8.843-12.3zm7.123 4.916c2.486 4.3-0.1519 9.311-4.983 10.31-4.831 1.002-9.054-4.755-7.044-9.941 2.011-5.186 9.541-4.673 12.03-0.3724z" fill-opacity=".5804"/>
<path id="id_backbutton" d="m778.2 283.5c-3.354 0.2102-6.392 2.479-7.5 6-1.611 5.122 3.074 12.47 11 9.938 7.926-2.53 5.945-12.22 1.125-14.88-1.506-0.8304-3.1-1.158-4.625-1.062zm0.3125 1.75c6.184-0.0534 7.704 4.659 6.156 9.344s-7.713 4.817-10.94 1.625c-3.224-3.192-1.402-10.92 4.781-10.97zm-0.6746 0.7629-4.469 3.688 4.75 2.719-0.125-2.338s1.281-0.4051 2.791 0.1821 1.688 2.966 0.2317 3.82c-1.31 0.7688-3.706 0.3226-4.148 0.3362l-0.1067 2.04s3.101 0.7704 5.208-0.5915c2.178-1.407 2.898-5.482 0.4429-6.983s-4.544-0.8826-4.544-0.8826z" fill-opacity=".5804" fill-rule="evenodd"/>
</g>
<g id="id_activemarker">
<path d="m757.9 251.2c-2.632-4.756-9.328-5.719-12.16-2.209-2.814 3.483-1.96 9.1 3.501 11.65 5.444 2.54 11.28-4.716 8.662-9.439z" fill-opacity=".6330" fill-rule="evenodd" fill="#52ea22"/>
</g>
<g id="id_background_01">
<rect height="190" width="1025" y="1320" x="-326" fill="#fff"/>
<path d="m642.7 1332 11.94-0.094-0.0637-11.44-12 0.094z"/>
<path d="m580.4 1321 0.0937 11.06 11.78-0.4062-0.313-11.16z"/>
<path d="m612.2 1321 0.5312 10.78 10.91-0.5313 0.3719-10.59z"/>
<path d="m-8.007 1327c-4.072-4.222-11.12-3.27-13.18 2.07-2.061 5.34 1.411 13.8 9.186 11.81 7.775-1.987 8.064-9.659 3.992-13.88z"/>
<path d="m139.5 1330c-3.347-4.342-10.84-4.412-14.06 2.346-3.217 6.758 2.869 12.89 9.56 11.62 6.691-1.268 7.847-9.628 4.5-13.97z"/>
<path d="m423.9 1406s-55.26 51.58-130.8 53.5c-75.54 1.922-68.29-56.48-114-58.72-45.71-2.238-59.52 52.95-122.1 52.91s-76.38-71.76-150.9-69.69c-74.52 2.069-88.21 67.04-150.6 66.62s-81.5-55-81.5-55v114.8h1025v-114.8l-28.47 0.1562c0.018 12.54-1.061 28.34-0.5625 40.12-30.34 0.7113-65.87-0.9849-103.8 1.906-1.954-31.1-1.676-62.35-1.438-97.28-52.09 1.862-94.26-1.632-141.1 0.5938-0.068 23.37 0.179 49.64 0.2705 64.88z"/>
<path d="m21.2 1373c-7.179 25.25 8.933 63.69 43.53 55.66s48.22-57.84 23.25-78.47-59.6-2.44-66.78 22.81z"/>
<path d="m313.4 1344c-4.242-2.078-9.216 1.192-8.969 5.436 0.2469 4.244 5.189 6.579 8.688 4.904s4.523-8.262 0.2814-10.34z"/>
<path fill="#fff" d="m75.8 1360c15.44 13.4 12.25 49.58-13.36 54.67-25.61 5.092-37.54-18.01-31.28-38s29.2-30.08 44.64-16.67z"/>
<path d="m599.8 1402c12.82-1.068 26.34-2.609 36.59-1.844-0.3702-9.945 0.4412-35.62 0.4412-35.62l-37.41 1.624s0.1635 24.25 0.3769 35.84z"/>
<path fill="#fff" d="m456.7 1436c-1.18-25.55-1.014-48.63 1.094-68.16 22.59-1.051 68.43-0.3175 68.43-0.3175l0.5641 67.1s-46.05 0.6691-70.09 1.376z"/>
<path d="m60.96 1400c13.88-4 16.47-20 6.04-28-10.43-8.287-21.12-3.14-24.72 6.97s4.796 24.86 18.68 21.04z"/>
<path d="m323.3 1381c-15.47-12.89-39.69 1.65-39.44 22.87 0.2495 21.22 24.32 26.55 37.88 17.47 13.56-9.079 17.04-27.45 1.564-40.34z"/>
<path d="m512.3 1421c-0.2965-14.41 0.8667-41.65 0.8667-41.65-8.729-0.9549-23.89-0.7412-42.37 0.077l-1.38 41.99s23.82 1.021 42.88-0.4136z"/>
<path d="m265.2 1387c-4.867-2.906-10.96 1.428-10.9 6.002 0.0576 4.574 6.344 6.161 8.684 5.188 2.34-0.9728 7.084-8.285 2.216-11.19z"/>
<path fill="#fff" d="m300 1400c0.659-7.399 7.081-12.15 14.16-8.767 7.08 3.379 6.897 13.83-0.1515 17.27-7.049 3.441-14.67-1.104-14.01-8.503z"/>
<path d="m351.8 1397c0.9046 4.816 5.896 5.575 8.524 3.527s4.084-6.648-0.2803-8.955-9.148 0.6119-8.244 5.427z"/>
<path d="m-241.9 1407c0.9376-7.526-7.092-12.78-13.22-10.76s-6.567 10.5-2.472 15.45c4.094 4.955 14.75 2.836 15.69-4.69z"/>
<path fill="#fff" d="m-100.3 1401c3.495 2.095 2.914 8.529-1.719 9.5-4.633 0.9709-7.762-2.591-6.719-6.344s4.943-5.251 8.438-3.156z"/>
<path fill="#fff" d="m184.1 1444c-8.613 6.601-27.71 0.057-25.81-12.34 1.896-12.4 12.27-17.89 23.53-13.53 11.26 4.358 10.89 19.27 2.28 25.87z"/>
<path fill="#fff" d="m-132.5 1467c-10.53-21.85 6.4-45.69 28.91-44.94 22.51 0.7495 33.07 22.33 27.5 41.16-5.567 18.83-45.88 25.63-56.41 3.78z"/>
<path d="m176.6 1427c-3.726-1.52-7.321 1.143-7.5 4.593-0.1791 3.45 4.622 6.538 8.219 4.219 3.596-2.319 3.008-7.292-0.7189-8.812z"/>
<path fill="#fff" d="m207.8 1448c3.114 2.106 3.024 7.029-0.375 8.563s-7.293-0.3881-7.094-4.375c0.1989-3.987 4.356-6.294 7.469-4.188z"/>
<path d="m-108.1 1452c-0.6339 2.894 0.578 7.146 5.75 6.406 5.172-0.7399 5.938-8.559 2.406-10.06s-7.522 0.7599-8.156 3.654z"/>
<path fill="#fff" d="m-56.3 1449c3.474 2.352 2.852 8.404-1.781 9.375-4.633 0.9709-7.758-2.758-6.625-6.188s4.932-5.54 8.406-3.187z"/>
<path fill="#fff" d="m146.1 1458c-3.193 2.304-8.604-0.2373-8.101-4.335s3.772-5.93 7.351-4.446 3.943 6.476 0.75 8.781z"/>
<path fill="#fff" d="m-148.5 1450c3.522 2.106 1.642 8.114-1.489 9.35-3.13 1.236-7.664-1.096-6.599-5.793s4.566-5.663 8.088-3.557z"/>
<path fill="#fff" d="m169.3 1466c-0.1674-4.83 4.642-5.723 7.782-3.907s2.864 6.221 0.3434 7.969-7.958 0.7681-8.125-4.062z"/>
<path fill="#fff" d="m538.1 1476 0.3125-11.75 12.16-0.5306-0.161 12.03z"/>
<path fill="#fff" d="m487.3 1477-0.1616-11.83 12.1-0.238 0.1817 11.79z"/>
<path fill="#fff" d="m434.6 1477 0.0625-11.78 12.47 0.092-0.2822 11.69z"/>
<path fill="#fff" d="m51.35 1475c0.4165-5.428 6.459-7.281 9.915-5.259 3.455 2.023 5.264 7.346 0.2053 10.79-3.194 2.174-10.54-0.1034-10.12-5.531z"/>
<path fill="#fff" d="m-101.9 1496c3.36 2.276 2.821 8.31-1.812 9.281-4.633 0.9709-8.352-2.83-7-6.062s5.452-5.495 8.812-3.219z"/>
</g>
<use xlink:href="#id_background_01" transform="translate(-1025)" height="360" width="640" y="0" x="0"/>
<use xlink:href="#id_background_01" transform="translate(1025)" height="360" width="640" y="0" x="0"/>
<g id="id_button_1">
<rect id="d" height="36" width="36" y="236" x="1903" fill="url(#m)"/>
<path d="m1903 236v36h36v-36zm2.375 1.437c10.39 0.4845 25.38-0.2008 31.7-0.125 0.6822 12.32 0.7196 23.12 0.375 33.43-11.84-0.3292-19.29-0.333-32.08-0.3125-0.3674-9.889-1.232-19.07 0-33z"/>
</g>
<g id="id_button_2">
<use xlink:href="#d" transform="matrix(-1,0,0,1,3842,60)" height="360" width="640" y="0" x="0"/>
<path d="m1939 296v36h-36v-36zm-2.625 1.812c-13.6-0.26-22.2-0.4253-31-0.25-0.5246 13.6-0.3775 23.27 0.5 32.87 10.65 0.1667 20.77 0.6901 31.2 0.5 0.8017-17.57-0.1749-24.34-0.7-33.12z"/>
</g>
<g id="id_button_3">
<use xlink:href="#d" transform="matrix(-1,0,0,1,3842,120)" height="360" width="640" y="0" x="0"/>
<path d="m1903 392v-36h36v36zm34.28-1.312c-0.3241-8.432-0.1363-23.07-0.125-33.24-11.6-0.25-21.14-0.5267-32.38-0.375 0.2083 8.26 0.7587 23.33 0.55 33.62 8.791 0.1666 20.77 0.2566 31.95 0z"/>
</g>
<g id="id_button_4">
<rect id="c" height="36" width="56" y="498" x="1902" fill="url(#l)"/>
<path d="m1902 498v36h56v-36zm2.375 1.437c17.39-0.5155 34.38-0.7008 51.7-0.125 0.6822 12.32 0.7196 23.12 0.375 33.43-18.34-0.3292-33.04-1.583-52.08-0.3125-0.3674-9.889-1.232-19.07 0-33z"/>
</g>
<g id="id_button_5">
<use xlink:href="#c" transform="translate(0,60)" height="360" width="640" y="0" x="0"/>
<path d="m1958 558v36h-56v-36zm-2.125 1.812c-20.35 0.24-39.46-0.6753-51.5-0.25-0.5246 13.6-0.3775 23.27 0.5 32.87 21.9-0.3333 36.52 0.1901 51.2 0.5-0.3233-17.7 0.3251-24.34-0.2-33.12z"/>
</g>
<g id="id_button_6">
<use xlink:href="#c" transform="translate(0,120)" height="360" width="640" y="0" x="0"/>
<path d="m1902 654v-36h56v36zm54.28-1.312c-1.074-12.31-0.1363-23.07-0.125-33.24-21.1 0-31.89-0.0267-52.38-0.375 0.2083 8.26 0.7587 23.33 0.55 33.62 18.79-0.0834 34.27 0.5066 51.95 0z"/>
</g>
<g id="id_button_7">
<rect id="b" height="36" width="76" y="747" x="1903" fill="url(#k)"/>
<path d="m1903 747v36h76v-36zm2.375 1.437c21.14-0.2655 50.38-0.4508 71.7-0.125 0.6822 12.32 0.7196 23.12 0.375 33.43-21.6-0.3292-47.29-2.083-72.08-0.3125-0.3674-9.889-1.232-19.07 0-33z"/>
</g>
<g id="id_button_8">
<use xlink:href="#b" transform="translate(0,60)" height="360" width="640" y="0" x="0"/>
<path d="m1979 807v36h-76v-36zm-2.125 1.812c-23.1-0.01-49.46-0.1753-71.5-0.25-0.5246 13.6-0.3775 23.27 0.5 32.87 25.4 0.1667 46.52-0.5599 71.2 0.5-0.3233-17.7 0.3251-24.34-0.2-33.12z"/>
</g>
<g id="id_button_9">
<use xlink:href="#b" transform="translate(0,120)" height="360" width="640" y="0" x="0"/>
<path d="m1903 903v-36h76v36zm74.28-1.312c-1.074-12.31-0.1363-23.07-0.125-33.24-25.1 0-47.39 0.9733-72.38-0.375 0.2083 8.26 0.7587 23.33 0.55 33.62 23.54-0.5834 49.52 0.5066 71.95 0z"/>
</g>
<g id="id_button_10">
<rect id="g" height="36" width="100" y="1001" x="1903" fill="url(#j)"/>
<path d="m1903 1001v36h100v-36zm2.375 1.437c31.14 0.2345 65.38 0.049 95.7-0.125 0.6822 12.32 0.7196 23.12 0.375 33.43-30.6-0.8292-60.79 0.917-96.08-0.3125-0.3674-9.889-1.232-19.07 0-33z"/>
</g>
<g id="id_button_11">
<use xlink:href="#g" transform="translate(0,60)" height="360" width="640" y="0" x="0"/>
<path d="m2003 1061v36h-100v-36zm-2.125 1.812c-29.1 0.49-66.96-0.1753-95.5-0.25-0.5246 13.6-0.3775 23.27 0.5 32.87 32.4-0.3333 63.52-0.5599 95.2 0.5-0.3233-17.7 0.3251-24.34-0.2-33.12z"/>
</g>
<g id="id_button_12">
<use xlink:href="#g" transform="translate(0,120)" height="360" width="640" y="0" x="0"/>
<path d="m1903 1157v-36h100v36zm98.28-1.312c-1.074-12.31-0.1363-23.07-0.125-33.24-35.6 1-64.39 0.9733-96.38-0.375 0.2083 8.26 0.7587 23.33 0.55 33.62 31.54-0.5834 65.02 0.01 95.95 0z"/>
</g>
<g id="id_button_13">
<rect id="f" height="36" width="120" y="1291" x="1903" fill="url(#i)"/>
<path d="m1903 1291v36h120v-36zm2.375 1.437c44.14 0.7345 77.38-0.451 115.7-0.125 0.6822 12.32 0.7196 23.12 0.375 33.43-43.1-1.829-73.29 0.417-116.1-0.3125-0.3674-9.889-1.232-19.07 0-33z"/>
</g>
<g id="id_button_14">
<use xlink:href="#f" transform="translate(0,60)" height="360" width="640" y="0" x="0"/>
<path d="m2023 1351v36h-120v-36zm-2.125 1.812c-37.6 0.49-76.46-0.6753-115.5-0.25-0.5246 13.6-0.3775 23.27 0.5 32.87 40.4 0.1667 76.52-0.06 115.2 0.5-0.3233-17.7 0.3251-24.34-0.2-33.12z"/>
</g>
<g id="id_button_15">
<use xlink:href="#f" transform="translate(0,120)" height="360" width="640" y="0" x="0"/>
<path d="m1903 1447v-36h120v36zm118.3-1.312c-1.074-12.31-0.1363-23.07-0.125-33.24-38.6 1-74.89-0.027-116.4-0.375 0.2083 8.26 0.7587 23.33 0.55 33.62 42.04-0.5834 78.52 0.01 116 0z"/>
</g>
<g id="id_button_16">
<rect id="e" height="36" width="140" y="1581" x="1903" fill="url(#h)"/>
<path d="m1903 1581v36h140v-36zm2.375 1.437c53.33 1.442 85.36-0.451 135.7-0.125 0.6822 12.32 0.7196 23.12 0.375 33.43-48.75-1.122-83.39-0.2901-136.1-0.3125-0.3674-9.889-1.232-19.07 0-33z"/>
</g>
<g id="id_button_17">
<use xlink:href="#e" transform="translate(0,60)" height="360" width="640" y="0" x="0"/>
<path d="m2043 1641v36h-140v-36zm-2.125 1.812c-45.38-0.2171-86.56-1.382-135.5-0.25-0.5246 13.6-0.3775 23.27 0.5 32.87 50.3 0.1667 87.32 0.6471 135.2 0.5-0.3233-17.7 0.3251-24.34-0.2-33.12z"/>
</g>
<g id="id_button_18">
<use xlink:href="#e" transform="translate(0,120)" height="360" width="640" y="0" x="0"/>
<path d="m1903 1737v-36h140v36zm138.3-1.312c-1.074-12.31-0.1363-23.07-0.125-33.24-47.09 1.707-86.4-2.148-136.4-0.375 0.2083 8.26 0.7587 23.33 0.55 33.62 47.7-0.5834 92.86-1.404 136 0z"/>
</g>
<g id="id_volumebar_20">
<path d="m817.5 277.6c-1.256 0.008-1.082 1-1.096 1.518-0.0136 0.5181-0.0233 1.627 1.096 1.653 1.119 0.0253 1.546-0.8339 1.509-1.639s-0.2534-1.54-1.509-1.532z" fill-opacity=".5804" fill="#eee"/>
<rect height="28.75" width="6.117" y="253.7" x="814.7" fill="none"/>
</g>
<g id="id_volumebar_40">
<path d="m823.9 272.7c-1.465 0.0416-1.126 1.087-1.096 3.792 0.0303 2.705-0.0233 4.143 1.252 4.128 1.276-0.0149 1.445-0.5982 1.353-4.094-0.0919-3.496-0.0447-3.867-1.509-3.826z" fill-opacity=".5804" fill="#eee"/>
<rect height="28.75" width="6.117" y="253.7" x="821.1" fill="none"/>
</g>
<g id="id_volumebar_60">
<path d="m830.4 267.9c-1.652 0.0672-0.9176 1.362-1.096 6.126-0.1982 5.289-0.3983 6.692 1.096 6.668s1.667-1.362 1.509-6.614c-0.1511-5.034 0.1428-6.247-1.509-6.18z" fill-opacity=".5804" fill="#eee"/>
<rect height="28.75" width="6.117" y="253.7" x="827.6" fill="none"/>
</g>
<g id="id_volumebar_80">
<path d="m836.9 261.7c-1.652 0.0993-1.345 0.5007-1.096 9.058 0.2491 8.557-0.3983 9.895 1.096 9.86 1.494-0.0355 1.476-0.5503 1.509-9.779 0.0331-9.229 0.1428-9.238-1.509-9.138z" fill-opacity=".5804" fill="#eee"/>
<rect height="28.75" width="6.117" y="253.7" x="834" fill="none"/>
</g>
<g id="id_volumebar_100">
<path d="m843.3 255.7c-2.277 0.0676-1.229 1.826-1.221 11.87 0.009 11.69-0.2733 12.84 1.221 12.92 1.494 0.0784 1.651 0.1121 1.509-12.82-0.1127-10.32 0.7678-12.04-1.509-11.98z" fill-opacity=".5804" fill="#eee"/>
<rect height="28.75" width="6.117" y="253.7" x="840.4" fill="none"/>
</g>
<path id="id_title" d="m5 11v29h138v-29zm63.68 5.034c0.22-0.01 0.48 0 0.65 0.03 0.34 0.04 0.7 0.13 0.75 0.37 0 0.41-0.01 0.96-0.03 1.36l-0.22 4.04c0.02 0.67-0.24 0.9-0.44 0.93-0.39 0.07-0.94 0.08-1.34 0-0.19-0.48-0.42-0.69-0.44-0.9-0.08-1.61-0.19-3.73-0.28-5.34 0.01-0.25 0.36-0.39 0.57-0.43 0.24-0.03 0.55-0.06 0.78-0.06zm13.2 0.12c0.23 0 0.52 0.01 0.69 0.03 0.34 0.05 0.7 0.13 0.75 0.37-0.01 0.41-0.05 0.96-0.06 1.37l-0.22 4.03c0.02 0.56-0.24 0.78-0.44 0.81-0.4 0.07-0.95 0.08-1.34 0-0.19-0.37-0.43-0.6-0.44-0.81-0.09-1.6-0.2-3.73-0.28-5.34 0.01-0.24 0.36-0.36 0.56-0.4 0.25-0.04 0.56-0.06 0.78-0.06zm-25.54 0.59c0.61 0 1.35 0.27 1.31 0.71l0.41 5.9c0.89-1.05 2.65-1.96 4.06-1.83 1.29 0 2.85 1.04 3.31 2.23 0.55 1.37 0.51 3.34 0.65 4.78l0.32 4.54c-0.24 0.66-1.39 0.55-1.97 0.65-0.49 0.07-1.36-0.12-1.25-0.75-0.15-1.97-0.3-4.61-0.47-6.58-0.07-0.84-0.74-2.03-1.68-2.08-1.13-0.1-2.17 1.09-2.75 1.9l0.5 7.38c-0.21 0.65-1.32 0.53-1.87 0.62-0.46 0.04-1.43 0-1.35-0.65l-1.12-16.17c0.19-0.67 1.34-0.56 1.9-0.65zm-31.34 0.19c0.52 0.06 0.5 0.92 0.56 1.3 0.04 0.46 0.02 1.47-0.66 1.4l-3.84 0.21 0.75 13.07c-0.21 0.65-1.32 0.53-1.87 0.62-0.46-0.01-1.51 0.08-1.5-0.59l-0.75-12.91-4.09 0.25c-0.66-0.24-0.52-1.38-0.56-1.96-0.07-0.5 0.43-0.83 0.87-0.77zm61.53 0.34c0.49 0.03 1.54-0.09 1.6 0.59l0.56 13.22 5.24-0.22c0.54 0.05 0.55 0.99 0.6 1.37 0 0.45 0.03 1.44-0.63 1.43-2.28 0.09-5.3 0.25-7.58 0.34-0.57 0.02-1.03-0.69-0.97-1.21l-0.63-14.9c0.2-0.63 1.28-0.54 1.81-0.62zm25.96 3.88c1 0.29 2.1 1.34 2.3 2.42 0.3 1.15 0.1 2.74 0.1 3.91l-0.3 5.71c-0.2 0.58-1.1 0.37-1.6 0.4-0.4 0-1.1-0.17-1-0.71 0-0.22 0-0.49 0.1-0.71-1 0.97-2.8 1.56-4.1 1.36-1.2-0.12-2.8-0.96-3.2-2.14-0.4-1.07-0.3-2.75 0.4-3.69 0.8-1.08 2.6-1.54 3.8-1.62 0.9-0.06 2-0.01 2.8 0.03 0.1-0.75 0.2-1.88-0.4-2.45-0.7-0.5-1.8-0.5-2.6-0.43-0.8 0.11-1.8 0.56-2.6 0.9-0.6 0.19-0.8-0.79-0.7-1.21-0.1-0.56 0.3-1.26 0.8-1.43 1-0.43 2.4-0.74 3.4-0.75 0.9 0 2 0.17 2.8 0.41zm10.1 0.4c0.3 0.36 0.2 1.03 0.3 1.46-0.1 0.43 0.1 1.25-0.4 1.49-0.4-0.03-1-0.35-1.5-0.25-0.8 0.18-1.5 1.14-2 1.8-0.1 0.21-0.1 0.58-0.1 0.84 0 1.93 0.1 4.49 0.1 6.42-0.1 0.44-0.9 0.42-1.2 0.47-0.6-0.01-1.3 0.05-1.8-0.22-0.2-0.2-0.1-0.58-0.1-0.84-0.1-3.22-0.2-7.52-0.2-10.74 0.2-0.47 1-0.41 1.3-0.46 0 0.03 0.7-0.05 0.9 0.43v1.46c1-0.74 1.8-1.75 2.7-2.05 0.2-0.04 0.4-0.08 0.7-0.1 0.3-0.01 0.9 0.17 1.3 0.29zm2.6 0.21c0.5 0 1.2-0.09 1.2 0.47-0.1 0.35-0.1 0.81-0.1 1.15 1-0.97 2.7-1.94 4.1-1.8 1.2 0.04 2.7 0.88 3.3 1.99 0.6 1.34 0.4 3.31 0.4 4.75l-0.3 5.27c-0.1 0.56-1.1 0.4-1.5 0.44-0.5-0.08-1.5 0.02-1.6-0.56 0.1-2.05 0.2-4.78 0.3-6.83 0-0.8-0.4-2-1.2-2.27-0.8-0.29-1.9 0.24-2.4 0.78-0.3 0.28-0.8 0.63-0.8 1.06l-0.3 7.04c-0.2 0.56-1.1 0.4-1.6 0.44-0.5-0.08-1.6 0-1.6-0.59l0.6-11.12c0.7-0.51 1-0.22 1.5-0.22zm-48.12-0.18c1.2 0.01 2.74 0.86 3.25 1.96 0.64 1.32 0.47 3.27 0.47 4.68l-0.09 5.16c-0.17 0.55-1.11 0.38-1.56 0.43-0.46-0.07-1.42 0.07-1.57-0.5 0.04-2.02 0.11-4.74 0.13-6.76 0-0.79-0.4-1.96-1.25-2.21-0.8-0.26-1.86 0.29-2.4 0.84-0.24 0.29-0.74 0.64-0.66 1.06l-0.12 6.98c-0.18 0.56-1.14 0.42-1.6 0.47-0.45-0.07-1.41 0.03-1.56-0.53l0.22-11.02c0.15-0.57 1.11-0.43 1.56-0.47 0.39 0.02 1.2 0.1 1.13 0.66-0.01 0.34-0.03 0.8-0.04 1.14 1.18-1.11 2.56-1.93 4.09-1.89zm22.17 0.31c0.24 0 0.55 0.01 0.75 0.03 0.8 0.04 1.8 0.34 2.4 0.81 1.2 0.86 1.8 2.73 1.9 4.1 0.1 0.46-0.1 1.22-0.6 1.3-1.9 0.23-4.39 0.5-6.26 0.71-0.45-0.07-0.22 0.48-0.19 0.75 0.16 0.81 0.97 1.73 1.81 1.86 1.24 0.23 2.94-0.26 4.04-0.77 0.4-0.27 1.2-0.47 1.2 0.24 0 0.49 0.2 1.28-0.2 1.65-0.8 0.5-2 0.85-2.9 1.05-1.42 0.27-3.44 0.31-4.73-0.43-1.11-0.62-1.98-2.18-2.24-3.38-0.38-1.66-0.4-4.09 0.53-5.59 0.82-1.37 2.92-2.32 4.49-2.33zm-63.07 0.16c0.74-0.04 1.62 0.28 1.66 0.52-0.02 1.94-0.09 4.52-0.09 6.46-0.01 0.74 0.38 1.84 1.15 2.11 0.72 0.28 1.7-0.15 2.22-0.65 0.23-0.3 0.82-0.64 0.81-1.06l0.06-6.79c0.18-0.56 1.16-0.42 1.62-0.47 0.41 0.05 1.3-0.02 1.38 0.53l-0.16 10.55c-0.14 0.55-1.03 0.43-1.46 0.47-0.74-0.02-1.54-0.09-1.47-0.62v-1.09c-0.54 0.97-2.12 1.94-3.5 1.83-1.12-0.01-2.58-0.75-3.09-1.77-0.65-1.24-0.53-3.12-0.53-4.47l0.03-5.06c0.34-0.29 0.93-0.47 1.37-0.49zm14.43 0.06c0.93-0.03 2.14 0.28 2.93 0.77 0.44 0.22 0.58 0.84 0.57 1.28-0.03 0.43 0.04 1.13-0.35 1.42-0.5 0.04-0.93-0.55-1.37-0.71-0.81-0.42-2.24-0.43-2.94 0.22-0.77 0.76-0.92 2.27-0.9 3.29 0.03 0.91 0.31 2.24 1.12 2.79 0.81 0.5 2.22 0.37 3-0.12 0.39-0.13 1-1 1.37-0.5 0.1 0.33 0.09 0.78 0.1 1.12-0.02 0.45 0.01 1.19-0.44 1.46-1.32 0.87-3.56 1.07-5.06 0.62-1.17-0.35-2.35-1.6-2.75-2.73-0.47-1.35-0.49-3.27-0.25-4.66 0.27-1.37 1.32-3.08 2.63-3.69 0.65-0.3 1.61-0.54 2.34-0.56zm-21.89 0.09c0.74 0.02 1.71 0.19 2.41 0.41 1.21 0.37 2.55 1.62 2.9 2.85 0.28 0.89 0.31 2.12 0.22 3.04-0.15 1.54-0.99 3.6-2.31 4.5-1.39 0.96-3.76 1-5.34 0.59-1.32-0.33-2.81-1.56-3.22-2.88-0.42-1.36-0.33-3.3 0.03-4.66 0.37-1.34 1.61-2.9 2.94-3.41 0.68-0.28 1.64-0.45 2.37-0.44zm70.13 1.83c-0.28 0.03-0.64 0.14-0.88 0.28-0.84 0.47-1.14 1.79-1.09 2.67l4.42-0.49c0.1-0.28-0.1-0.92-0.2-1.25-0.3-0.78-1.46-1.29-2.25-1.21zm-70.28 0.5c-0.21 0.02-0.46 0.09-0.66 0.15-0.96 0.36-1.54 1.68-1.69 2.61-0.13 1-0.19 2.46 0.38 3.35 0.55 0.79 1.93 1.06 2.81 0.81 0.94-0.3 1.56-1.56 1.72-2.45 0.04-0.2 0.07-0.48 0.09-0.68 0.08-0.97 0.03-2.43-0.72-3.17-0.46-0.43-1.31-0.67-1.93-0.62zm81.53 3.54c-0.6 0-1.2 0.09-1.7 0.31-0.9 0.43-1 2.32 0 2.76 0.8 0.38 2 0.08 2.7-0.5 0.2-0.23 0.7-0.5 0.6-0.9v-1.58c-0.5-0.01-1.1-0.09-1.6-0.09z"/>
<g id="id_colorblot_1">
<path id="id_colorblot_1_mask" d="m689.1 589.1c-2.994-5.174-7.063-1.616-6.133 1.56 1.145 3.909 2.311 4.721 1.438 7.468-0.8439 2.656-6.67 4.572-9.187 13.88-1.225 4.532 0.7104 8.181-1.719 11.12-2.429 2.944-6.007-0.4044-10.06 1.625-4.056 2.029-4.627 7.82 0.1562 9.344s7.288-3.628 10.44-3.375c10.35 0.8324 4.711 8.536 23.28 14.59 1.755 0.5725 1.593 3.035 2.812 2.969 1.02-0.0553 2.935-2.162 3.906-2.219 10.63-0.6164 21.31-16.61 19.47-27.45-1.375-8.055 5.977 0.4802 11.78 0.0849 5.801-0.3953 7.082-8.876 0.4286-10.2-6.653-1.323-9.24 3.564-11.45-0.0438-3.806-6.205-12.22-15.24-27.09-11.65-6.297 1.522-5.062-2.552-8.056-7.725zm10.35 60.28c-0.5251-0.0479-3.266 1.608-3.978 4.165-0.7119 2.557 3.504 3.2 4.312 0.875 0.8083-2.325 0.1902-4.992-0.3349-5.04z"/>
<g id="id_colorblot_1_highlight" fill-opacity=".6667" fill="#fff">
<path d="m684 589.2c-0.2885 1.029 0.1653 2.849 1.086 2.992 0.9208 0.1436 0.5129-1.221 0.8491-2.342s1.157-1.119 0.6098-1.961c-0.5471-0.8424-2.257 0.281-2.545 1.31z"/>
<path d="m677.7 608.9c-0.7312 1.979-2.011 6.725-0.875 6.625 1.136-0.0995 1.502-3.31 2.721-5.893s2.816-5.27 2.274-5.723c-0.5423-0.4531-3.389 3.012-4.12 4.992z"/>
<path d="m662.8 626.8c-0.8003 0.8523-1.086 2.937-0.2812 3.406 0.8052 0.4692 0.8377-1.405 1.781-2.312 0.9436-0.9073 3.277-1.471 2.219-2.188-1.058-0.716-2.918 0.2414-3.719 1.094z"/>
<path d="m697.1 651.8c-0.3314 0.4358-1.071 1.518-0.3766 1.686 0.6944 0.1679 0.6447-0.6642 1.163-1.242 0.5184-0.5773 0.9199-1.524 0.5571-1.601-0.3628-0.0763-1.012 0.7204-1.344 1.156z"/>
<path d="m732.1 609.3c-1.772 0.1126-4.065 1.296-3.565 2.083 0.4995 0.7868 2.67-0.2432 4.088-0.4203 1.161-0.145 1.913 0.3966 2.186-0.5702 0.2722-0.9668-1.119-1.194-2.708-1.093z"/>
</g>
<rect height="74.76" width="85.4" y="583.7" x="658.1" fill="none"/>
</g>
<g id="id_colorblot_2">
<path id="id_colorblot_2_mask" d="m807.6 587.9c-2.402 2.08-1.988 6.193 0.7531 6.932 2.741 0.7384 5.314-0.7569 5.393-4.296 0.0788-3.539-3.745-4.715-6.146-2.636zm-4.624 8.592c-14.54 0.0265-15.09 4.387-22.31 10.78-7.225 6.395-3.39 3.485-9.094 2.688-5.704-0.798-7.559 6.02-4.125 7.375s7.56-2.36 8.375 1.875c0.8148 4.235-0.9992 6.194 2.656 11.16 3.656 4.962 6.452 2.92 10.16 6.406 3.704 3.486-5.02 9.646-5.906 14.09-0.8867 4.448 4.58 9.685 8.719 6.844s1.68-4.817 6.25-9.812 16.49-4.567 20.57-7.463c4.081-2.896 6.163-1.928 6.803-2.85 0.6393-0.9215-4.183 0.6911-1.219-7.469 2.965-8.16-6.335-33.65-20.88-33.62zm24.24 41.59c-0.3232 0.6259 0.9124 1.551 2.454 4.319 1.541 2.768 5.445-0.1004 3.742-2.283-1.703-2.182-5.873-2.662-6.196-2.036z"/>
<g id="id_colorblot_2_highlight" fill-opacity=".6667" fill="#fff">
<path d="m785.9 647.6c0.9351-1.507 2.033-3.165 2.679-2.631 0.6454 0.5333-0.5717 2.184-1.267 3.675-0.6953 1.49-0.3729 3.419-1.736 3.462s-0.6105-2.998 0.3245-4.505z"/>
<path d="m768 611.9c0.6522-0.8755 3.123-1.325 3.454-0.6618 0.3314 0.6628-1.171 1.065-1.941 1.701-0.7702 0.6356-1.172 1.998-2.11 1.838-0.9378-0.1599-0.0554-2.002 0.5968-2.878z"/>
<path d="m786.4 603.4c1.622-1.811 4.044-3.693 4.715-2.909 0.6707 0.7843-1.808 2.657-3.402 4.115s-2.788 4.193-4.098 3.343c-1.31-0.8495 1.163-2.739 2.785-4.55z"/>
<path d="m807.5 589.5c0.2666-0.7862 2.361-2.423 2.733-1.535 0.3721 0.8878-0.7175 1.392-1.226 2.267-0.509 0.8755-0.5504 1.899-1.339 1.976-0.7883 0.0773-0.4345-1.922-0.1679-2.708z"/>
<path d="m828.5 638.4c0.2256-0.1644 1.262-0.0326 1.463 0.3686 0.2013 0.4012-0.6051 0.2649-0.899 0.3714s-0.2741 0.6199-0.7015 0.1718c-0.4275-0.4482-0.0884-0.7474 0.1372-0.9117z"/>
</g>
<rect height="76.26" width="74.4" y="584.8" x="762.5" fill="none"/>
</g>
<g id="id_colorblot_3">
<path id="id_colorblot_3_mask" d="m874.6 636.4c2.402 2.08 1.988 6.193-0.7531 6.932-2.741 0.7384-5.314-0.7569-5.393-4.296-0.0788-3.539 3.745-4.715 6.146-2.636zm16.12-35.66c8.606-1.346 4.953-3.963 6.235-4.038 2.024-0.118 0.972 2.391 7.542 2.708 6.57 0.3166 10.52 5.048 16.66 10.49 6.145 5.439 3.39 9.985 9.094 9.188 5.704-0.798 7.559 6.02 4.125 7.375s-7.56-2.36-8.375 1.875c-1.943 7.567-4.478 7.007-12.31 14.31-3.704 3.486-3.98 2.146-4.094 11.34-0.1133 9.198-9.58 6.935-13.47 2.094-3.889-4.841 5.32-6.567 2-9.062s-5.719 0.01-16.32-9.213 0.3098-35.72 8.916-37.07zm5.634-6.411c-0.5165 0.184-1.412-1.199-4.829-4.431-3.416-3.232 2.18-5.1 3.508-1.658 1.328 3.443 1.838 5.905 1.321 6.089z"/>
<g id="id_colorblot_3_highlight" fill-opacity=".6667" fill="#fff">
<path d="m897.1 652.3c0.9351-1.507 2.254-2.104 2.9-1.571 0.6454 0.5333-0.6159 0.8143-1.311 2.304-0.6953 1.49 0.1132 1.916-0.7198 2.313-0.833 0.3966-1.804-1.54-0.8687-3.047z"/>
<path d="m870.4 637.1c0.9616-0.9197 2.791-1.104 3.122-0.4409 0.3314 0.6628-1.082 0.9327-1.852 1.568-0.7702 0.6356-0.4428 1.976-1.469 1.861-1.026-0.1157-0.7625-2.068 0.199-2.988z"/>
<path d="m886 605.9c1.622-1.811 4.231-3.693 4.777-2.534 0.5457 1.159-1.933 2.969-3.527 4.428-1.594 1.458-2.976 5.693-4.286 4.843-1.31-0.8495 1.413-4.926 3.035-6.737z"/>
<path d="m891.4 587.9c0.2666-0.7862 1.572-1.092 1.922-0.6903s-0.2254 0.3701-0.6238 1.047c-0.3985 0.6766 0.4576 1.062-0.1539 1.338-0.6115 0.2762-1.411-0.9087-1.145-1.695z"/>
<path d="m930.6 619.8c0.7001-0.0612 2.078-0.3042 1.674 0.6688-0.4035 0.973-2.774 1.062-3.158 0.4431-0.3835-0.6185 0.7832-1.051 1.483-1.112z"/>
</g>
<rect height="79.26" width="72.9" y="583.6" x="865.6" fill="none"/>
</g>
</svg>
