<svg xmlns:rdf="http://www.w3.org/1999/02/22-rdf-syntax-ns#" xmlns="http://www.w3.org/2000/svg" height="100%" viewBox="0 0 640 360" width="100%" version="1.1" xmlns:cc="http://creativecommons.org/ns#" xmlns:xlink="http://www.w3.org/1999/xlink" xmlns:dc="http://purl.org/dc/elements/1.1/">
<path id="a" d="m-56.11-15.66c28.6 1.376 33.29-0.3009 33.29-0.3009-0.07326 3.438-0.7938 7.65-0.1349 12.04-11.24-1.119-22.64 0.1263-33.86-0.8597 0.5536-3.42 0.5251-6.997 0.7082-10.88z" stroke="#000" stroke-width=".4308" fill="#fbf2d5"/>
<g id="id_FirstLetter" transform="translate(6)">
<g id="m" transform="translate(-3.409 -.8839)">
<use xlink:href="#a" transform="translate(104.8 57.75)" height="360" width="640" y="0" x="0"/>
<g id="d">
<path d="m62.64 20.89-2.467-2.585 0.1194-0.1327 2.467 2.575c1.124-1.085 2.354-0.9951 3.389-0.144l2.431-2.55 0.1314 0.1078-2.358 2.635c1.04 1.149 1.488 2.668 1.829 3.974 0.7493 0.1283 1.905-0.2448 2.111 1.09 4.177 0.4902 3.772 2.888 3.768 5.601 0.621 0.3772 0.7014 2.286-0.7054 2.436-0.03492 0-0.4743-0.4879-0.4743-0.4879s-0.6256 0.4729-0.6971 0.4247c-1.261-0.9093-0.8538-2.261-0.139-2.618 0-0.5508 0.07916-1.406 0.0066-2.039-0.08314-0.6353-0.3835-0.7912-0.7899-0.9459-0.312-0.1207-0.6223-0.0479-0.9941-0.05953-0.01164 0.9209 0.01197 2.071-0.09612 3.184-0.02328 0.2987-0.04657 1.233-0.443 1.365l-0.7184 0.01197c0.4081 0.3103 0.7314 0.4547 0.7314 1.209 0 0.5029-0.6106 0.8265-0.6236 1.293-0.02328 0.3831 0.7187 0.6951 0.6472 1.593-0.05987 0.7666-0.5744 0.9459-0.6106 1.341-0.02361 0.3951 0.587 0.1793 0.587 1.15 0 0.7899-0.587 0.586-0.587 1.221 0 0.4184 0.8378 0.4783 1.065 1.173 0.1676 0.5391 0.1922 0.6585 0.05987 1.161-1.7 0-3.221 0.09615-5.162 0.03509 0.01164-0.7899-0.08314-0.5029 0.03625-1.185 0.1197-0.6938 0.7783-0.8498 0.8149-1.077 0.07117-0.4793-0.6106-0.5637-0.5874-1.269 0.01164-0.6951 0.7184-0.8381 0.6821-1.281-0.05987-0.5391-0.7054-0.6469-0.6821-1.51 0.01164-0.8378 0.4909-0.8378 0.4793-1.281-0.01297-0.4912-0.7068-0.5262-0.5987-1.449 0.07117-0.6818 0.443-0.886 0.7184-1.161l-1.976-0.05987c0.2754 0.3469 0.5511 0.4068 0.5391 1.401-0.01164 0.9226-0.6223 0.8265-0.5391 1.402 0.05987 0.4547 0.5874 0.43 0.5391 1.329-0.04789 1.077-0.6469 1.017-0.5987 1.46 0.04789 0.4663 0.8029 0.3118 0.7068 1.221-0.09612 0.886-0.6223 0.7899-0.6589 1.281-0.03625 0.3599 0.7783 0.3599 0.8145 0.9106 0.03526 0.6821 0.09512 0.6106 0.02361 1.208-2.119 0.09615-3.785 0.05976-5.591 0.05976-0.1194-0.6456-0.1194-0.886 0.3236-1.591 0.4663-0.7666 1.198-0.6353 1.161-0.8381-0.09612-0.4197-0.6705-0.3599-0.7184-1.161-0.02328-0.599 0.7783-0.743 0.8029-1.114 0.03493-0.4796-0.7184-0.6718-0.743-1.677-0.01197-0.7783 0.7899-0.7184 0.8378-1.173 0.05987-0.5508-0.8498-0.6106-0.8744-1.304-0.03492-0.7068 0.1806-1.209 0.5275-1.473l-0.8744-0.01164c-0.3353 0.03492-0.4663 0.04789-0.4909-0.9705-0.02361-1.185-0.01197-2.179 0-3.185-2.216-0.6126-1.94 2.522-1.859 2.998 1.205 0.9941 0.619 2.146-0.2467 2.639-0.3868-0.284-0.6186-0.5308-0.6186-0.5308s-0.2868 0.2603-0.6871 0.5212c-1.632-0.8884-0.8348-2.493-0.3602-2.725-0.5208-3.016 0.1999-5.292 3.905-5.248 0.0909-1.148 0.5508-1.053 1.628-1.161 0.581-1.867 0.3785-2.338 1.689-4.011z"/>
<path fill="#ff0" d="m62.34 22.36c0.287-0.7317 0.5508-1.054 0.9938-1.389 0.5262-0.3964 1.029-0.6236 1.832-0.2884 0.7899 0.3349 1.161 0.9938 1.545 1.808 0.4896 1.09 0.6702 1.784 0.7417 2.323-2.479 0.08314-3.449 0.05987-5.711 0.09645 0.08281-0.7068 0.2155-1.605 0.5987-2.55z"/>
<path fill="#a1a1a1" d="m61.27 35.75c0-0.2159 2.096-0.2042 2.084-0.03659-0.02462 0.2884 0.6106 0.3482 0.586 1.09-0.01197 0.6223-0.6106 0.8029-0.5744 1.042 0.02328 0.1676-2.12 0.1676-2.072-0.02462 0.0479-0.131-0.6343-0.3469-0.6343-1.137 0-0.6585 0.6106-0.7547 0.6106-0.9339z"/>
<path fill="#a1a1a1" d="m61.27 38.41c-0.03526-0.3235 2.059-0.2637 2.084 0.03509 0.01164 0.2157 0.73 0.3831 0.7533 0.899 0.04823 0.7537-0.7533 0.7783-0.7171 0.9925 0.0469 0.2884-2.192 0.3715-2.169 0.09615 0.01297-0.2637-0.6339-0.4547-0.6702-1.137-0.02361-0.4081 0.743-0.6585 0.7184-0.886z"/>
<path fill="#a1a1a1" d="m66.63 38.41c0.05953-0.1676 2.203-0.1559 2.155 0.08444-0.04789 0.2754 0.5262 0.191 0.5145 0.9575-0.02328 0.6456-0.6705 0.6223-0.6469 0.8381 0.03626 0.3951-1.963 0.3469-2 0.09615-0.02328-0.1559-0.6339-0.4081-0.6456-1.102-0.02495-0.4796 0.5624-0.6472 0.6223-0.8747z"/>
<path fill="#404040" d="m63.57 41.14c0.5744 0.3235 0.7899 1.281 0.5145 1.304-0.7184 0.04806-3.184 0.1208-4.227 0.01297-0.1909-0.01297 0.08448-1.042 0.6592-1.329 0.5035-0.2521 2.395-0.3482 3.054 0.01167z"/>
<path fill="#404040" d="m69.05 41.21c0.5744 0.3118 0.9096 1.342 0.6223 1.366-0.7184 0.04806-2.837 0.05973-3.878-0.03639-0.1922-0.02338-0.1922-0.9938 0.3708-1.281 0.5022-0.2508 2.226-0.4184 2.885-0.0481z"/>
<path fill="#ff0" d="m55.88 31.76c0.01331-0.4001 0.9821-0.3386 0.9821-0.01164 0.5644 0.002 1.294 1.35 0.09612 1.855-0.07283-0.03492-0.156-0.131-0.3-0.3349 1.147-1.424-1.673-1.273-0.3951 0.03625-0.03493 0.0479-0.2889 0.297-0.4334 0.3319-0.9795-0.5159-0.5634-1.773 0.05012-1.877z"/>
<path fill="#ff0" d="m72.38 31.63c-0.06675-0.3466 1.294-0.2055 1.01 0.05518 0.6579 0.126 0.8907 1.309-0.02126 1.758-0.07151-0.02495-0.1443-0.1327-0.2754-0.3482 1.242-1.284-1.548-1.347-0.4068 0.02461-0.03659 0.0479-0.2823 0.2774-0.4134 0.3136-0.9283-0.7327-0.3635-1.61 0.1067-1.804z"/>
<path fill="#a1a1a1" d="m59.28 27.87c-0.08272 0.01144-0.4922-0.04719-0.8767 0.0077-0.3841 0.05498-0.743 0.2236-0.8837 0.2909-0.1406 0.06728-0.5867-0.6525-0.6888-1.019-0.1021-0.3668 2.291-0.9945 2.426-0.6106 0.1347 0.3838 0.1059 1.32 0.02322 1.331z"/>
<path fill="#a1a1a1" d="m57.15 28.4c0.06229 0.1722-0.2084 0.8913-0.3189 0.9506-0.1106 0.0592-0.8305 0.0062-0.9968-0.1377-0.1664-0.144 0.1936-1.605 0.5009-1.653 0.3073-0.04733 0.7527 0.6678 0.8149 0.8401z"/>
<path fill="#a1a1a1" d="m56.78 29.77c0.08541 0.1457 0.1223 1.309 0.02328 1.414-0.09901 0.1045-0.7068 0.0435-0.8378 0-0.1311-0.04351-0.3004-1.352-0.156-1.497 0.1444-0.1446 0.885-0.06256 0.9705 0.08314z"/>
<path fill="#a1a1a1" d="m70.25 27.7c0.08195 0.1075 0.2935 0.0092 0.8335 0.1183 0.3585 0.07247 0.5704 0.2064 0.756 0.187 0.1854-0.0194 0.8032-0.6133 0.7902-0.9592-0.01311-0.3459-2.371-0.9925-2.445-0.6984-0.07337 0.294-0.01683 1.245 0.06512 1.352z"/>
<path fill="#a1a1a1" d="m72.25 28.3c-0.03618 0.1694 0.2453 0.9379 0.3602 1.011 0.1148 0.07293 0.8857 0.04344 1.014-0.1709 0.1279-0.2144-0.3194-1.459-0.5242-1.548-0.2048-0.08864-0.8135 0.5391-0.8498 0.7084z"/>
<path fill="#a1a1a1" d="m72.65 31.1c0.1276 0.08132 0.7892 0.1653 0.9113 0.07972 0.1221-0.08555 0.196-1.335 0.09585-1.49-0.1001-0.1554-0.8963-0.03386-0.9851 0.05625-0.08874 0.09009-0.1495 1.273-0.02195 1.354z"/>
<path fill="#a1a1a1" d="m61.07 32.79c0-0.2155 2.466-0.1806 2.454 0-0.02361 0.287 0.4676 0.3585 0.443 1.125-0.01197 0.6469-0.6106 0.8262-0.5744 1.077 0.02328 0.1806-2.12 0.1676-2.072-0.02328 0.03626-0.1443-0.6343-0.3715-0.6343-1.185 0-0.6702 0.3835-0.8262 0.3835-0.9938z"/>
<path fill="#a1a1a1" d="m66.46 32.99c0-0.2039 2.024-0.2039 2.013-0.02328-0.02461 0.2754 0.586 0.3469 0.5744 1.089-0.01197 0.6223-0.599 0.8029-0.5627 1.042 0.02328 0.1676-2.047 0.156-2.011-0.02328 0.03526-0.1443-0.6236-0.3599-0.6236-1.138 0-0.6589 0.6106-0.755 0.6106-0.9459z"/>
<path fill="#a1a1a1" d="m66.56 35.65c0-0.2159 2.083-0.2029 2.071-0.02361-0.02361 0.2754 0.6103 0.3469 0.5987 1.09-0.01164 0.6339-0.6223 0.8248-0.587 1.065 0.02461 0.1676-2.107 0.156-2.059-0.02462 0.03659-0.143-0.6456-0.3589-0.6456-1.162 0-0.6572 0.6223-0.7533 0.6223-0.9456z"/>
<path fill-rule="evenodd" d="m63.4 21.57c0.4756 0 0.8627 0.4028 0.8627 0.8977s-0.3871 0.8977-0.8627 0.8977c-0.4753 0-0.8624-0.4028-0.8624-0.8977s0.3871-0.8977 0.8624-0.8977zm-0.03625 0.1909c0.3755 0 0.6821 0.317 0.6821 0.7068s-0.3067 0.7068-0.6821 0.7068c-0.3755 0-0.6821-0.317-0.6821-0.7068s0.3067-0.7068 0.6821-0.7068zm0.05986 0.1793c0.2508 0 0.4547 0.2208 0.4547 0.4909 0 0.2704-0.2039 0.4912-0.4547 0.4912s-0.455-0.2208-0.455-0.4912c0-0.2701 0.2042-0.4909 0.455-0.4909"/>
<path fill-rule="evenodd" d="m64.7 22.51c0 0.5159 0.3948 0.9226 0.886 0.9226s0.886-0.4068 0.886-0.9226c0-0.5142-0.3948-0.9209-0.886-0.9209s-0.886 0.4068-0.886 0.9209zm0.2275-0.01164c0 0.4081 0.3116 0.7304 0.7068 0.7304 0.3831 0 0.6103-0.3353 0.6103-0.742 0-0.3948-0.2272-0.7068-0.6103-0.7068-0.3951 0-0.7068 0.3236-0.7068 0.7184zm0.1922-0.02328c0 0.2754 0.2039 0.4912 0.4547 0.4912 0.2391 0 0.443-0.2159 0.443-0.4912 0-0.2754-0.2039-0.4912-0.443-0.4912-0.2508 0-0.4547 0.2159-0.4547 0.4912"/>
<path fill="#e0e0e0" d="m69.59 25.41c0.4197 0.1194 0.2042 5.245 0.03659 6.682-0.04823 0.3702-9.745 0.3103-9.805-0.02462-0.2504-1.364-0.2637-6.13 0.2035-6.549 0.3462-0.3106 8.681-0.3718 9.565-0.1081z"/>
<path d="m62.5 26.44c0.03492 0.03626 0.03492 1.09-0.02462 1.15-0.05987 0.0715-1.389 0.05987-1.46 0.01164-0.04789-0.0479-0.05987-1.054-0.02328-1.15 0.03492-0.05987 1.424-0.07151 1.508-0.01164z"/>
<path fill="#00f" d="m62.2 26.67c0.03659 0.02495 0.02495 0.6472-0.01164 0.6821-0.03626 0.03659-0.8145 0.03659-0.8494 0-0.03659-0.02328-0.03659-0.6223-0.02495-0.6702 0.02495-0.04823 0.8381-0.04823 0.886-0.01197z"/>
<path d="m64.96 28.1c0.07151-0.156 3.232-0.1793 3.426-0.02361 0.09612 0.0715 0.08314 2.586-0.04823 2.718-0.144 0.1547-3.173 0.143-3.317 0.01164-0.1081-0.09612-0.1314-2.49-0.05987-2.706"/>
<path fill="#00f" d="m68.06 28.33c0.07151 0.05953 0.07151 2.059-0.03493 2.179-0.1207 0.1194-2.539 0.1078-2.646 0.01164-0.09612-0.08314-0.1197-2-0.04823-2.167 0.04823-0.131 2.574-0.143 2.73-0.02328z"/>
<path d="m64.43 26.41c0.03492 0.03626 0.03492 1.102-0.02462 1.161-0.0715 0.05987-1.401 0.05987-1.46 0-0.04789-0.04789-0.05987-1.054-0.02328-1.138 0.02328-0.07151 1.424-0.08314 1.508-0.02328z"/>
<path fill="#00f" d="m64.13 26.64c0.02461 0.02361 0.02461 0.6472-0.01197 0.6821-0.03625 0.03626-0.8262 0.03626-0.8624 0-0.02361-0.02328-0.03526-0.6223-0.01197-0.6705 0.02495-0.03626 0.8381-0.04789 0.8864-0.01164z"/>
<path d="m62.5 28.1c0.04823 0.03492 0.04823 1.089-0.01164 1.15-0.07283 0.05953-1.402 0.05953-1.462 0.01164-0.04657-0.04823-0.05953-1.054-0.02328-1.15 0.02328-0.05987 1.425-0.0715 1.497-0.01164z"/>
<path fill="#00f" d="m62.24 28.3c0.02328 0.01164 0.02328 0.6456-0.01297 0.6821-0.03526 0.03626-0.8265 0.03626-0.8614 0-0.02462-0.02328-0.03659-0.6223-0.01164-0.6705 0.01164-0.04789 0.8378-0.04789 0.886-0.01164z"/>
<path d="m64.46 28.07c0.04823 0.03526 0.04823 1.101-0.01164 1.149-0.07283 0.0725-1.402 0.05953-1.462 0.01297-0.04657-0.04823-0.05953-1.054-0.02328-1.15 0.02328-0.05987 1.412-0.0715 1.497-0.01197z"/>
<path fill="#00f" d="m64.16 28.3c0.02328 0.02328 0.02328 0.6456-0.01297 0.6821-0.03526 0.03493-0.8265 0.03493-0.8614 0-0.02462-0.02495-0.03659-0.6223-0.01164-0.6705 0.01164-0.04789 0.8378-0.04789 0.886-0.01164z"/>
<path d="m62.57 29.67c0.04789 0.03492 0.03625 1.102-0.02328 1.161-0.05987 0.05987-1.389 0.05987-1.45 0-0.04657-0.04823-0.05987-1.054-0.02328-1.138 0.02328-0.07151 1.414-0.08314 1.497-0.02328z"/>
<path fill="#f00" d="m62.27 29.9c0.02361 0.02361 0.02361 0.6459-0.01297 0.6821-0.03493 0.03626-0.8248 0.03626-0.8614 0-0.02461-0.02328-0.03626-0.6223-0.01164-0.6705 0.01164-0.03626 0.8381-0.04789 0.886-0.01164z"/>
<path d="m64.5 29.7c0.04789 0.02328 0.03625 1.089-0.02328 1.15-0.05987 0.05987-1.389 0.05987-1.45 0-0.04657-0.03659-0.0715-1.054-0.02328-1.138 0.02328-0.07151 1.414-0.08448 1.497-0.01164z"/>
<path fill="#00f" d="m64.23 29.9c0.02361 0.02461 0.02361 0.6472-0.01297 0.6835-0.03492 0.03492-0.8248 0.03492-0.8611 0-0.02495-0.02462-0.03659-0.6106-0.01197-0.6705 0.01197-0.03625 0.8381-0.04789 0.886-0.01297z"/>
<path d="m66.39 26.44c0.03625 0.03626 0.03625 1.09-0.02361 1.15-0.0715 0.05987-1.401 0.05987-1.46 0-0.04823-0.03626-0.05987-1.042-0.02495-1.138 0.02495-0.0715 1.425-0.08314 1.509-0.01164z"/>
<path fill="#f00" d="m66.13 26.64c0.02328 0.01197 0.02328 0.6356-0.01164 0.6705-0.03659 0.03626-0.8145 0.03626-0.8511 0.01164-0.03493-0.03492-0.04789-0.6223-0.02328-0.6821 0.02328-0.03626 0.8378-0.0479 0.886 0z"/>
<path d="m68.36 26.44c0.04823 0.03626 0.04823 1.09-0.01164 1.15-0.07151 0.05987-1.401 0.05987-1.46 0.01164-0.04823-0.0479-0.05987-1.054-0.02495-1.15 0.02495-0.05987 1.414-0.07151 1.497-0.01164z"/>
<path fill="#f00" d="m68.06 26.64c0.02328 0.01164 0.02328 0.6472-0.01164 0.6821-0.03659 0.03626-0.8265 0.03626-0.8627 0-0.02328-0.02328-0.03625-0.6223-0.01164-0.6705 0.01164-0.04789 0.8378-0.04789 0.886-0.01164z"/>
</g>
</g>
<rect height="50" width="55" y="10" x="33.93" fill="none"/>
</g>
<g id="id_NameTerms" transform="translate(-129.6)">
<use xlink:href="#a" transform="matrix(-1 0 0 1 212.1 56.74)" height="360" width="640" y="0" x="0"/>
<use xlink:href="#d" transform="matrix(.9817 -.02624 .02624 .9817 186.2 .8680)" height="360" width="640" y="0" x="0"/>
<rect height="50" width="55" y="10" x="224.6" fill="none"/>
</g>
<g id="id_Read">
<use xlink:href="#m" transform="matrix(.7536 0 0 .7536 -26.4 9.257)" height="360" width="640" y="0" x="0"/>
<rect height="50" width="40" y="10" x="0" fill="none"/>
</g>
<g id="c" transform="matrix(1.21 0 0 1.21 31.97 -20.83)">
<path stroke-linejoin="round" d="m-137.9 82.63c0.3785-1.532 0.3645-2.65 1.512-3.466l0.5373 0.4493c-1.121 0.7888-1.191 2.337-1.4 3.416z" stroke="#232323" stroke-width=".3371" fill="#a16121"/>
<path stroke-linejoin="round" d="m-133 87.82c-2.574 4.823-3.875 6.223-6.69 3.793-3.26 1.205-3.5-1.456-4.137-6.067-0.6394-4.613 3.436-6.695 6.586-3.606 2.409-1.55 6.819 1.061 4.243 5.881z" stroke="#232323" stroke-width=".3371" fill="#c60000"/>
<path fill="#fff" d="m-142.6 83.67c-0.004-0.3314 0.4237-1.65 0.7919-2.007 0.5953-0.5777 1.43-0.6389 1.403-0.1069-0.0258 0.5533-0.9998 1.672-1.37 2.033-0.3668 0.3544-0.8178 0.4015-0.8256 0.0809z"/>
<path stroke-linejoin="round" d="m-145.7 87.77c0.1671-1.787-0.0373-3.043 1.115-4.154l0.6801 0.4147c-1.128 1.077-0.945 2.83-0.9981 4.08z" stroke="#232323" stroke-width=".3834" fill="#a16121"/>
<path stroke-linejoin="round" d="m-151.7 93.08c1.891 5.785 4.733 6.571 7.379 5.548 2.986 0.1439 5.086 0.7934 6.029-6.117 0.9426-6.907-4.195-6.459-7.025-5.248-2.326-1.069-8.27 0.03321-6.382 5.82z" stroke="#232323" stroke-width=".3834" fill="#c60000"/>
<path fill="#fff" d="m-150.5 91.9c-0.2171-0.3353-0.4694-1.895-0.1878-2.448 0.4563-0.8925 1.574-1.382 1.879-0.8276 0.3188 0.576-0.316 2.213-0.597 2.77-0.2819 0.5483-0.8772 0.8276-1.094 0.5051z"/>
<path stroke-linejoin="round" d="m-130.1 85.8c0.1869-1.674 0.0165-2.854 1.116-3.877l0.6308 0.4005c-1.076 0.9905-0.934 2.638-1.005 3.809z" stroke="#232323" stroke-width=".3597" fill="#a16121"/>
<path stroke-linejoin="round" d="m-124.7 91.44c-2.694 5.033-5.448 5.294-7.724 3.915-2.781-0.3562-4.827-0.1002-4.568-6.634 0.2614-6.535 4.933-5.28 7.348-3.696 2.324-0.6064 7.636 1.386 4.941 6.419z" stroke="#232323" stroke-width=".3597" fill="#c60000"/>
<path fill="#fff" d="m-135.2 87.51c-0.1472-0.3446-0.1315-1.827 0.2171-2.292 0.5644-0.7525 1.675-1.026 1.869-0.4651 0.2027 0.5832-0.6452 1.995-0.9943 2.465-0.348 0.4619-0.9429 0.6247-1.091 0.2923z"/>
</g>
<g id="e" transform="matrix(.7493 0 0 .7493 -15.15 21.89)">
<use xlink:href="#c" transform="matrix(0.61 .1018 -.1018 0.61 29.99 40.72)" height="360" width="640" y="0" x="0"/>
<use xlink:href="#c" transform="matrix(.7531 -.1109 .1109 .7531 21.34 3.776)" height="360" width="640" y="0" x="0"/>
<use xlink:href="#c" transform="matrix(.8545 .2438 -.2440 .8522 84.02 46.18)" height="360" width="640" y="0" x="0"/>
<use xlink:href="#c" transform="matrix(.9972 .07463 -.07463 .9972 75.03 13.82)" height="360" width="640" y="0" x="0"/>
</g>
<g id="id_CountEasy">
<use xlink:href="#c" transform="matrix(1.054 0 0 1.054 211 -10.3)" height="360" width="640" y="0" x="0"/>
<use xlink:href="#a" transform="translate(107.8 106.7)" height="360" width="640" y="0" x="0"/>
<rect height="50" width="55" y="60" x="40" fill="none"/>
</g>
<g id="id_CountReadEasy" transform="translate(-107.6)">
<g id="q">
<use xlink:href="#c" transform="matrix(.9935 .1135 -.1135 .9935 374.5 11)" height="360" width="640" y="0" x="0"/>
<use xlink:href="#a" transform="matrix(-1 0 0 1 190.1 106.9)" height="360" width="640" y="0" x="0"/>
</g>
<rect height="50" width="55" y="60" x="202.6" fill="none"/>
</g>
<g id="id_CountHard" transform="translate(-212.4)">
<g transform="translate(4.884 1.061)">
<use xlink:href="#e" transform="matrix(1.093 0 0 1.093 451.7 -14.13)" height="360" width="640" y="0" x="0"/>
<use xlink:href="#a" transform="matrix(1 0 0 -1 425 86.41)" height="360" width="640" y="0" x="0"/>
</g>
<rect height="50" width="55" y="60" x="362.4" fill="none"/>
</g>
<g id="id_CountReadHard" transform="translate(-318.7)">
<use xlink:href="#e" transform="matrix(1.097 .06353 -.06353 1.097 624.3 -10.34)" height="360" width="640" y="0" x="0"/>
<use xlink:href="#a" transform="matrix(-1 0 0 -1 512.5 87.1)" height="360" width="640" y="0" x="0"/>
<rect height="50" width="55" y="60" x="523.7" fill="none"/>
</g>
<g id="id_Count">
<use xlink:href="#q" transform="matrix(.7597 0 0 .7597 -154.6 20.54)" height="360" width="640" y="0" x="0"/>
<rect height="50" width="40" y="60" x="0" fill="none"/>
</g>
<g id="id_ClockEasy">
<g id="l" transform="translate(2.919 -.1768)">
<g id="g" transform="matrix(.7919 0 0 .7919 -715.7 -455)">
<g id="j">
<path d="m1001 739.3c0.4889 11.67-9.624 17.48-18.11 15.31-8.484-2.171-14.71-12.49-6.969-22.74 7.74-10.25 24.59-4.244 25.08 7.426z" fill-rule="evenodd"/>
<path d="m986.6 726.9c-8.888-0.3909-18.6 11.51-11.65 21.65 6.941 10.14 21.95 7.006 24.85-3.713 2.901-10.72-4.304-17.55-13.19-17.94zm11.61 14.3c-0.7027 10.2-11.78 14.7-19.13 8.342-7.355-6.361-3.768-15.83 2.175-19.09 5.943-3.256 17.66 0.5433 16.96 10.75z" fill-rule="evenodd" fill="#5050b4"/>
<path d="m996.9 742.7c-1.671 7.719-10.95 11.94-17.71 4.856-6.756-7.08-0.3766-16.44 5.798-17.23 6.175-0.7906 13.58 4.655 11.91 12.37z" fill-rule="evenodd" fill="#fff"/>
<path id="b" d="m986.4 730.3c0.1644 1.508 0.1146 2.224 0.1142 2.228 0.1873-0.002 0.3815 0.0229 0.551-0.0502-0.0201-0.744-0.0383-1.489-0.1512-2.178z"/>
<use xlink:href="#b" transform="matrix(-.03639 -.9995 -1.162 .03131 1882 1704)" height="1052.3622" width="744.09448" y="0" x="0"/>
<use xlink:href="#b" transform="matrix(.9950 -.09960 -.09149 -.9139 71.86 1517)" height="1052.3622" width="744.09448" y="0" x="0"/>
<use xlink:href="#b" transform="matrix(-.04345 -.9989 -.9084 .04778 1685 1692)" height="1052.3622" width="744.09448" y="0" x="0"/>
<use xlink:href="#b" transform="matrix(.8660 .5 -.5 .8660 502.5 -394.3)" height="1052.3622" width="744.09448" y="0" x="0"/>
<use xlink:href="#b" transform="matrix(.5 .8660 -.8660 .5 1135 -484.1)" height="1052.3622" width="744.09448" y="0" x="0"/>
<use xlink:href="#b" transform="matrix(-.5 .8660 -.8660 -.5 2122 256.6)" height="1052.3622" width="744.09448" y="0" x="0"/>
<use xlink:href="#b" transform="matrix(-.8660 .5 -.5 -.8660 2212 888.9)" height="1052.3622" width="744.09448" y="0" x="0"/>
<use xlink:href="#b" transform="matrix(-.8660 -.5 .5 -.8660 1471 1876)" height="1052.3622" width="744.09448" y="0" x="0"/>
<use xlink:href="#b" transform="matrix(-.5 -.8660 .8660 -.5 838.6 1966)" height="1052.3622" width="744.09448" y="0" x="0"/>
<use xlink:href="#b" transform="matrix(.5 -.8660 .8660 .5 -148.3 1225)" height="1052.3622" width="744.09448" y="0" x="0"/>
<use xlink:href="#b" transform="matrix(.8660 -.5 .5 .8660 -238.4 592.4)" height="1052.3622" width="744.09448" y="0" x="0"/>
<path d="m987 729.5c-9.611-0.428-14.34 10.17-10.25 16.79 4.093 6.619 13.21 8.841 18.89 1.431 5.678-7.409 0.9773-17.8-8.634-18.23zm7.584 4.284c6.013 6.492 1.703 14.4-4.17 17.19-5.873 2.793-16.2-3.829-14.03-12.54 2.171-8.708 12.18-11.15 18.2-4.654z" fill-rule="evenodd" fill="#afcdfa"/>
</g>
<g id="h" transform="translate(0 -.2652)">
<path d="m986.5 740.4c-0.0848-1.743-0.0141-4.73-0.0141-4.73-0.1844-0.011-0.4223 0.0109-0.9041 0.1826 0 0 0.9643-2.481 1.3-2.556 0.3353-0.0753 1.18 2.622 1.18 2.622-0.2461-0.1227-0.6052-0.2752-0.7844-0.2324-0.0874 1.561-0.002 3.017 0.0565 4.664z"/>
<path d="m986.6 740.4c-0.0628-1.581 0.0319-4.878 0.0319-4.878-0.1367-0.01-0.4225-0.0689-0.7796 0.0868 0 0 0.7852-1.902 1.034-1.97 0.2485-0.0683 0.8984 2.005 0.8984 2.005-0.2062-0.1857-0.5301-0.15-0.6616-0.107-0.0648 1.416 0.0376 3.312 0.0807 4.806z" fill="#44449c"/>
</g>
<g id="i">
<path d="m987 740.3c1.08 1.655 2.111 3.642 2.111 3.642 0.219-0.1113 0.311-0.1905 0.7699-0.6784 0 0 0.3872 2.634 0.0427 2.93s-2.559-1.707-2.559-1.707c0.3531-0.0425 0.8444 0.004 1.027-0.1562-0.7788-1.591-1.142-1.994-2.137-3.573z"/>
<path d="m987 740.5c0.9632 1.511 2.094 3.736 2.094 3.736 0.1633-0.0807 0.3559-0.1126 0.6802-0.502 0 0 0.2866 1.98 0.0383 2.211-0.2483 0.2317-1.884-1.245-1.884-1.245 0.3425 0.0459 0.6658-0.1429 0.7933-0.2721-0.7232-1.434-1.306-2.176-2.198-3.615z" fill="#44449c"/>
<path d="m987.8 740.3c0.4717 0.6879 0.0981 1.42-0.5215 1.593-0.6196 0.1728-1.452-0.1974-1.348-1.147 0.1036-0.9497 1.398-1.133 1.87-0.4455z" fill-rule="evenodd"/>
<path d="m986.5 740.2c-0.7597 0.4076-0.3952 1.387 0.1249 1.524s0.9332-0.0735 1.111-0.5985c0.1782-0.5251-0.4766-1.333-1.236-0.9258zm0.5334 0.3706c0.2861 0.1058 0.2846 0.4901 0.1018 0.6423-0.1824 0.1521-0.5467 0.1021-0.6046-0.2398-0.0579-0.3418 0.2167-0.5084 0.5028-0.4026z" fill-rule="evenodd" fill="#afcdfa"/>
</g>
</g>
<use xlink:href="#a" transform="translate(104.8 157.2)" height="360" width="640" y="0" x="0"/>
</g>
<rect height="50" width="55" y="110" x="40" fill="none"/>
</g>
<g id="id_ClockMedium" transform="translate(-107.6)">
<g id="p">
<use xlink:href="#j" transform="matrix(-.8216 .003555 .003555 .8216 1038 -482)" height="360" width="640" y="0" x="0"/>
<use xlink:href="#h" transform="matrix(.8862 0 0 -.8632 -644.9 769.6)" height="360" width="640" y="0" x="0"/>
<use xlink:href="#i" transform="matrix(-.2431 .7485 -.7485 -.2431 1024 -428.1)" height="360" width="640" y="0" x="0"/>
</g>
<use xlink:href="#a" transform="matrix(-1 0 0 1 190.2 156.8)" height="360" width="640" y="0" x="0"/>
<rect height="50" width="55" y="110" x="202.6" fill="none"/>
</g>
<g id="id_ClockHard" transform="translate(-212)">
<g id="n">
<use xlink:href="#j" transform="matrix(0 .8072 -.8072 0 987.5 -665.2)" height="360" width="640" y="0" x="0"/>
<use xlink:href="#h" transform="matrix(-.3788 .7072 -.7072 -.3788 1288 -285.8)" height="360" width="640" y="0" x="0"/>
<use xlink:href="#i" transform="matrix(-.2926 -.7470 .7470 -.2926 125.1 1085)" height="360" width="640" y="0" x="0"/>
</g>
<use xlink:href="#a" transform="translate(429.7 156.9)" height="360" width="640" y="0" x="0"/>
<rect height="50" width="55" y="110" x="362" fill="none"/>
</g>
<g id="id_Clock">
<use xlink:href="#l" transform="matrix(.7936 0 0 .7936 -33.46 27.78)" height="360" width="640" y="0" x="0"/>
<rect height="50" width="40" y="110" x="0" fill="none"/>
</g>
<g id="id_NotesReadEasy">
<g id="k" transform="translate(2.566 -.1768)">
<use xlink:href="#a" transform="translate(104.7 207)" height="360" width="640" y="0" x="0"/>
<g id="f" transform="matrix(1.052 0 0 1.052 -3.189 -10.59)">
<path d="m51.55 175.1s4.194 0.0349 6.291 0.0367c2.097 0.002 4.128-0.1055 6.291-0.0257s4.179 0.0973 6.291 0.0211c2.112-0.0761 6.291-0.0101 6.291-0.0101 0.0085 0.1372 0.0293 0.2798-0.0077 0.397 0 0-4.194 0.0213-6.29 0.0164-2.097-0.004-4.194-0.0411-6.29-0.046-2.097-0.004-4.158-0.1034-6.29-0.046-2.132 0.0575-6.29 0.0164-6.29 0.0164 0.01812-0.101-0.04249-0.1518 0.0031-0.3598z"/>
<path d="m76.7 178.7s-4.173-0.0342-6.259-0.0361c-2.086-0.002-3.343 0.0568-6.259 0.0252s-4.099-0.0175-6.259-0.0207c-2.16-0.003-6.259 0.01-6.259 0.01-0.0087-0.1349-0.03755-0.275-0.0015-0.3902 0 0 4.18 0.0103 6.266 0.0151 2.086 0.004 3.396 0.19 6.258 0.0544 2.862-0.1355 4.136 0.03 6.258-0.0265 2.121-0.0565 6.258-0.0161 6.258-0.0161-0.01234 0.0974-0.0077 0.2002 0 0.3849z"/>
<path d="m76.52 181.5s-4.139 0.0342-6.208 0.0361c-2.069 0.002-3.316-0.0164-6.208 0.0152-2.893 0.0316-4.066-0.023-6.208-0.0197-2.143 0.003-6.208-0.01-6.208-0.01-0.0087 0.1349-0.029 0.275 0.007 0.3902 0 0 4.138-0.0103 6.207-0.0151 2.069-0.004 3.345-0.0686 6.207-0.0544s4.091 0.0914 6.207 0.0265 6.207 0.0161 6.207 0.0161c-0.01773-0.0993 0.02545-0.2512 0-0.3849z"/>
<path d="m51.46 185.1s4.17-0.0349 6.256-0.0367c2.085-0.002 4.105 0.1257 6.256 0.0459s4.155-0.1175 6.256-0.0413c2.1 0.0761 6.256 0.0101 6.256 0.0101 0.0085-0.1372 0.0293-0.2798-0.0077-0.397 0 0-4.17-0.0416-6.255-0.0366-2.085 0.004-3.735 0.1624-6.255 0.1067-2.52-0.0558-4.134 0.063-6.255 0.005-2.12-0.0575-6.234-0.0164-6.234-0.0164 0.01805 0.101 0.02838 0.1874-0.01781 0.3598z"/>
<path d="m51.66 188.3s4.161 0.006 6.241 0.004 3.333 0.0164 6.241-0.0152 4.087-0.0175 6.241-0.0207c2.154-0.003 6.241 0.01 6.241 0.01 0.0085-0.1349 0.0293-0.275-0.0077-0.3902 0 0-4.16 0.0306-6.24 0.0354-2.08 0.004-3.353 0.0266-6.24 0.0342-2.887 0.008-4.125 0.03-6.24-0.0265-2.115-0.0564-6.24-0.0161-6.24-0.0161 0.01797 0.0993 0.04905 0.2154 0.0031 0.3849z"/>
<path d="m59.5 169.1c-0.471 0.4737-2.843 2.681-1.739 7.737-9.099 7.385-1.791 12.26 2.307 10.79l0.4968 2.45c0.2046 2.046-2.244 3.127-3.762 2.306 2.575-0.4144 1.851-3.459-0.1242-3.087-1.975 0.3727-1.508 3.687 1.048 3.726 2.556 0.0391 3.321-1.814 3.122-3.017l-0.4518-2.484c4.569-2.784 1.468-6.439-1.376-6.005l-0.5853-2.69c3.527-2.799 3.621-6.589 1.064-9.724zm0.4099 1.798c0.02877 0 0.05745 0.00077 0.08696 0.003 0 0 0.8525 0.6093 0.649 2.147s-2.622 3.58-2.622 3.58c-0.3129-1.4 0.07542-5.73 1.886-5.731zm-1.753 8.134 0.545 2.525c-0.6679 0.1087-1.714 0.6013-2.253 1.925-0.5388 1.324 0.4836 2.59 1.703 2.723 0 0-1.133-0.7051-0.9968-1.812 0.08707-0.7098 0.907-1.326 1.855-1.501l0.9595 4.403c-2.632 1.259-5.399-0.8636-5.403-3.149-0.0031-1.907 1.926-3.982 3.59-5.114zm1.174 3.804c2.832-0.0226 2.669 3.417 0.9378 4.311z"/>
<path d="m71.74 182.8c0.06053-1.866-0.1382-3.747 0.0135-5.288 0.02429-2.051-0.06277-3.397 0.0135-5.288 0.1678-0.004 0.3421-0.0123 0.4855 0.003 0.06308 1.753-0.0229 3.698-0.03625 5.287 0.0138 1.948 0.01041 3.397-0.03625 5.287-0.1235-0.008-0.1856 0.0178-0.44-0.002z"/>
<path d="m67.75 183.9c-0.0162-0.9278 1.398-2.219 2.953-2.185 0.7261 0.0162 1.502 0.3169 1.477 1.234-0.02522 0.917-1.349 2.063-2.913 2.104-0.7543 0.0195-1.501-0.2252-1.517-1.153z"/>
</g>
</g>
<rect height="50" width="55" y="160" x="40" fill="none"/>
</g>
<g id="id_NotesReadHard" transform="translate(-107.6)">
<use xlink:href="#a" transform="matrix(-1 0 0 -1 190.5 187.1)" height="360" width="640" y="0" x="0"/>
<g id="o">
<path d="m229.8 183.6 0.1069-2.576 0.9911-0.244-0.1064 2.563zm2.075-0.5381-0.7428 0.1853 0.1064-2.563 0.7426-0.1798 0.0442-1.065-0.7426 0.1798 0.1087-2.618-0.3365 0.004-0.112 2.698-0.9916 0.2566 0.1057-2.546-0.3363-0.0139-0.1097 2.643-0.7426 0.1804-0.0443 1.067 0.7426-0.1798-0.1062 2.558-0.7426 0.1793-0.0441 1.062 0.7426-0.1798-0.1081 2.604 0.3363 0.0139 0.112-2.697 0.991-0.2429-0.1052 2.533 0.3365-0.004 0.1091-2.628 0.7426-0.1804z"/>
<use xlink:href="#f" transform="matrix(.9994 .03366 -.03366 .9994 171.1 -.5936)" height="360" width="640" y="0" x="0"/>
</g>
<rect height="50" width="55" y="160" x="202.6" fill="none"/>
</g>
<g id="id_Music">
<use xlink:href="#k" transform="matrix(.7459 0 0 .7459 -30.35 47.66)" height="360" width="640" y="0" x="0"/>
<rect height="50" width="40" y="160" x="0" fill="none"/>
</g>
<g id="id_Mixed">
<use xlink:href="#g" transform="matrix(.5386 0 0 .5386 -12.23 159.5)" height="360" width="640" y="0" x="0"/>
<use xlink:href="#f" transform="matrix(.5790 -.03919 .03919 .5790 -27.33 127.2)" height="360" width="640" y="0" x="0"/>
<use xlink:href="#c" transform="matrix(.4843 .1896 -.1896 .4843 107.2 221)" height="360" width="640" y="0" x="0"/>
<use xlink:href="#d" transform="matrix(.6640 -.07597 .07597 .6640 -34 220.6)" height="360" width="640" y="0" x="0"/>
<use xlink:href="#a" transform="matrix(.7594 0 0 .7594 49.98 252.1)" height="360" width="640" y="0" x="0"/>
<rect height="50" width="40" y="210" x="0" fill="none"/>
</g>
<g id="id_MixedEasy">
<use xlink:href="#f" transform="matrix(.7057 .008627 -.008627 .7057 20.58 97.98)" height="360" width="640" y="0" x="0"/>
<use xlink:href="#g" transform="matrix(.7188 0 0 .7188 33.86 133.5)" height="360" width="640" y="0" x="0"/>
<use xlink:href="#c" transform="matrix(.6463 .2530 -.2530 .6463 185 215)" height="360" width="640" y="0" x="0"/>
<use xlink:href="#d" transform="matrix(.8862 -.1014 .1014 .8862 -5.061 214.9)" height="360" width="640" y="0" x="0"/>
<use xlink:href="#a" transform="matrix(1.013 0 0 1.013 108.1 256.6)" height="360" width="640" y="0" x="0"/>
<rect height="50" width="55" y="210" x="40" fill="none"/>
</g>
<g id="id_MixedMedium">
<use xlink:href="#f" transform="matrix(.6812 -.04611 .04611 .6812 67.84 106.4)" height="360" width="640" y="0" x="0"/>
<use xlink:href="#p" transform="matrix(.7077 0 0 .7077 -27.77 133.7)" height="360" width="640" y="0" x="0"/>
<use xlink:href="#d" transform="matrix(.8021 -.1660 .1660 .8021 54.82 222.6)" height="360" width="640" y="0" x="0"/>
<use xlink:href="#e" transform="matrix(.7594 .05111 -.05111 .7594 181.1 174.9)" height="360" width="640" y="0" x="0"/>
<use xlink:href="#a" transform="matrix(1.013 0 0 1.013 163.1 256.6)" height="360" width="640" y="0" x="0"/>
<rect height="50" width="55" y="210" x="95" fill="none"/>
</g>
<g id="id_MixedHard" transform="translate(55)">
<use xlink:href="#o" transform="matrix(.7410 0 0 .7410 -51.59 91.51)" height="360" width="640" y="0" x="0"/>
<use xlink:href="#n" transform="matrix(.6995 0 0 .6995 -138.1 135.4)" height="360" width="640" y="0" x="0"/>
<use xlink:href="#d" transform="matrix(.8021 -.1660 .1660 .8021 54.82 222.6)" height="360" width="640" y="0" x="0"/>
<use xlink:href="#e" transform="matrix(.7594 .05111 -.05111 .7594 181.1 174.9)" height="360" width="640" y="0" x="0"/>
<use xlink:href="#a" transform="matrix(1.013 0 0 1.013 163.1 256.6)" height="360" width="640" y="0" x="0"/>
<rect height="50" width="55" y="210" x="95" fill="none"/>
</g>
<g id="id_Color">
<use xlink:href="#a" transform="matrix(-.7448 0 0 -.7448 -9.314 287.6)" height="360" width="640" y="0" x="0"/>
<path d="m27.38 271.7c-0.7288 0.7206-0.4929 2.017 0.416 2.182 0.9089 0.1657 1.708-0.3737 1.646-1.5-0.06187-1.126-1.333-1.403-2.062-0.6827zm-7.067 0.182c-4.723 0.3734-4.793 1.772-6.982 3.984s-1.015 1.192-2.888 1.082c-1.873-0.1102-2.307 2.101-1.158 2.445s2.398-0.9393 2.767 0.3852c0.3694 1.324-0.1715 1.992 1.139 3.476s2.168 0.7653 3.458 1.779c1.289 1.014-1.392 3.189-1.57 4.624-0.1781 1.435 1.727 2.96 3.002 1.954 1.274-1.006 0.4267-1.572 1.788-3.273s5.245-1.864 6.499-2.886 1.955-0.767 2.139-1.076c0.1849-0.3087-1.342 0.3245-0.5805-2.341s-2.89-10.53-7.613-10.15zm8.903 12.6c-0.08952 0.2069 0.3347 0.4695 0.9038 1.31 0.5691 0.8402 1.766-0.1686 1.159-0.8188-0.6071-0.6503-1.974-0.6978-2.063-0.4909z" fill="#3030ff"/>
<g fill-opacity=".6667" fill="#fff">
<path d="m16.83 287.7c0.2228 0.1532-0.1318 0.708-0.3208 1.199-0.189 0.4907-0.03666 1.095-0.4785 1.143-0.4419 0.0479-0.2724-0.9368-0.0059-1.439 0.2665-0.502 0.5824-1.056 0.8052-0.9028z"/>
<path d="m9.335 277.7c0.1902-0.2944 0.9817-0.499 1.106-0.2969 0.124 0.2021-0.354 0.3677-0.5885 0.5888-0.2345 0.2212-0.3314 0.664-0.64 0.6368s-0.06748-0.6344 0.1228-0.9287z"/>
<path d="m15.1 274.5c0.4822-0.6157 1.222-1.274 1.46-1.042 0.2373 0.2322-0.5217 0.889-1.003 1.392-0.4818 0.5031-0.8022 1.401-1.249 1.165-0.4465-0.2369 0.3102-0.8989 0.7924-1.515z"/>
<path d="m27.35 272.2c0.06717-0.2563 0.7071-0.8287 0.8499-0.5561s-0.1987 0.46-0.3424 0.7508-0.1319 0.6168-0.386 0.6612c-0.2542 0.0443-0.1886-0.5995-0.1215-0.8558z"/>
<path d="m29.7 284.7c0.06202-0.165 0.4984-0.169 0.7249 0.0532s-0.1623 0.4683-0.3534 0.3963-0.4335-0.2846-0.3715-0.4495z"/>
</g>
<rect height="50" width="40" y="260" x="3.463e-15" fill="none"/>
</g>
</svg>
