<svg xmlns:rdf="http://www.w3.org/1999/02/22-rdf-syntax-ns#" xmlns="http://www.w3.org/2000/svg" height="100%" viewBox="0 0 640 360" width="100%" version="1.1" xmlns:cc="http://creativecommons.org/ns#" xmlns:xlink="http://www.w3.org/1999/xlink" xmlns:dc="http://purl.org/dc/elements/1.1/">
<path id="a" d="m-56.11-15.66c28.6 1.376 33.29-0.3009 33.29-0.3009-0.07326 3.438-0.7938 7.65-0.1349 12.04-11.24-1.119-22.64 0.1263-33.86-0.8597 0.5536-3.42 0.5251-6.997 0.7082-10.88z" stroke="#000" stroke-width=".4308" fill="#fbf2d5"/>
<g id="id_FirstLetter" transform="translate(6)">
<use xlink:href="#a" transform="translate(101.3 56.87)" height="360" width="640" y="0" x="0"/>
<g id="d">
<path fill="#222" d="m59.17 19.98-2.486-2.605 0.1203-0.1337 2.486 2.595c1.133-1.093 2.372-1.003 3.415-0.1451l2.449-2.57 0.1324 0.1086-2.376 2.655c1.048 1.158 1.5 2.689 1.843 4.005 0.7551 0.1293 1.92-0.2467 2.127 1.098 4.21 0.494 3.801 2.91 3.798 5.644 0.6258 0.3801 0.7069 2.304-0.7109 2.454-0.03519 0-0.478-0.4917-0.478-0.4917s-0.6305 0.4766-0.7025 0.428c-1.271-0.9164-0.8604-2.279-0.1401-2.638 0-0.555 0.07977-1.416 0.0067-2.055-0.08379-0.6402-0.3865-0.7974-0.796-0.9532-0.3144-0.1217-0.6271-0.04826-1.002-0.06-0.01173 0.9281 0.01207 2.087-0.09687 3.209-0.02346 0.301-0.04692 1.242-0.4465 1.376l-0.724 0.01207c0.4113 0.3127 0.737 0.4582 0.737 1.219 0 0.5068-0.6154 0.8329-0.6285 1.303-0.02346 0.3861 0.7243 0.7005 0.6522 1.605-0.06033 0.7726-0.5788 0.9532-0.6154 1.351-0.0238 0.3982 0.5916 0.1807 0.5916 1.159 0 0.796-0.5916 0.5906-0.5916 1.231 0 0.4216 0.8443 0.482 1.074 1.182 0.1689 0.5433 0.1937 0.6636 0.06033 1.17-1.713 0-3.246 0.0969-5.202 0.03536 0.01173-0.796-0.08379-0.5068 0.03653-1.194 0.1207-0.6992 0.7843-0.8564 0.8212-1.085 0.07173-0.483-0.6154-0.5681-0.5919-1.279 0.01173-0.7005 0.724-0.8446 0.6874-1.291-0.06033-0.5433-0.7109-0.6519-0.6874-1.521 0.01173-0.8443 0.4947-0.8443 0.483-1.291-0.01307-0.4951-0.7122-0.5302-0.6033-1.46 0.07173-0.6871 0.4465-0.8929 0.724-1.17l-1.992-0.06033c0.2775 0.3496 0.5554 0.4099 0.5433 1.411-0.01173 0.9298-0.6271 0.8329-0.5433 1.413 0.06033 0.4582 0.5919 0.4334 0.5433 1.339-0.04826 1.086-0.6519 1.025-0.6033 1.472 0.04827 0.4699 0.8091 0.3142 0.7122 1.231-0.09687 0.8929-0.6271 0.796-0.664 1.291-0.03653 0.3627 0.7843 0.3627 0.8208 0.9177 0.03553 0.6874 0.09586 0.6154 0.0238 1.218-2.135 0.0969-3.814 0.06023-5.634 0.06023-0.1203-0.6506-0.1203-0.8929 0.3261-1.604 0.4699-0.7726 1.207-0.6402 1.17-0.8446-0.09687-0.423-0.6757-0.3627-0.724-1.17-0.02346-0.6036 0.7843-0.7488 0.8091-1.122 0.03519-0.4833-0.724-0.6771-0.7488-1.69-0.01207-0.7843 0.796-0.724 0.8443-1.182 0.06033-0.555-0.8564-0.6154-0.8812-1.315-0.03519-0.7122 0.182-1.219 0.5316-1.484l-0.8812-0.01173c-0.3379 0.03519-0.4699 0.04826-0.4947-0.978-0.0238-1.194-0.01207-2.196 0-3.209-2.233-0.6174-1.955 2.541-1.874 3.021 1.214 1.002 0.6238 2.163-0.2486 2.66-0.3898-0.2862-0.6234-0.5349-0.6234-0.5349s-0.289 0.2623-0.6925 0.5252c-1.645-0.8952-0.8413-2.512-0.363-2.746-0.5249-3.039 0.2015-5.333 3.935-5.289 0.0916-1.157 0.555-1.061 1.641-1.17 0.5855-1.882 0.3814-2.356 1.702-4.042z"/>
<path fill="#ff0" d="m58.86 21.45c0.2893-0.7374 0.555-1.062 1.002-1.4 0.5302-0.3995 1.037-0.6285 1.846-0.2906 0.796 0.3375 1.17 1.002 1.557 1.822 0.4934 1.098 0.6754 1.798 0.7474 2.341-2.498 0.08379-3.476 0.06033-5.755 0.0972 0.08346-0.7122 0.2172-1.617 0.6033-2.57z"/>
<path id="r" fill="#ff0" d="m52.36 30.93c0.01341-0.4032 0.9898-0.3412 0.9898-0.01173 0.5688 0.002 1.304 1.36 0.09686 1.87-0.0734-0.03519-0.1572-0.1321-0.3023-0.3375 1.156-1.436-1.686-1.283-0.3982 0.03653-0.03519 0.04827-0.2912 0.2993-0.4367 0.3345-0.9871-0.5199-0.5678-1.787 0.05051-1.891z"/>
<use xlink:href="#r" transform="matrix(.9933 .1083 -.1153 .9333 20.64 -3.656)" height="1052.3622" width="744.09448" y="0" x="0"/>
<g id="w" transform="matrix(.3352 0 0 .3352 -69.44 -11.44)">
<path fill="#a1a1a1" d="m373.6 114.7c-0.2487 0.0344-1.48-0.1419-2.636 0.0234-1.155 0.1653-2.234 0.6723-2.657 0.8746-0.4226 0.2023-1.764-1.962-2.071-3.065-0.3071-1.103 6.889-2.99 7.294-1.836 0.4049 1.154 0.3185 3.968 0.0698 4.003z"/>
<path fill="#a1a1a1" d="m367.2 116.3c0.1873 0.5176-0.6266 2.68-0.9589 2.858-0.3324 0.178-2.497 0.0189-2.997-0.414-0.5003-0.4329 0.5822-4.827 1.506-4.97 0.9241-0.1423 2.263 2.008 2.45 2.526z"/>
<path fill="#a1a1a1" d="m366.1 120.4c0.2568 0.4381 0.3677 3.936 0.07 4.25-0.2977 0.3143-2.125 0.1308-2.519 0-0.3943-0.1308-0.9033-4.065-0.469-4.5 0.4343-0.4349 2.661-0.1881 2.918 0.25z"/>
</g>
<use xlink:href="#w" transform="matrix(-.9468 -.02879 -.03040 .9995 120.6 1.569)" height="1052.3622" width="744.09448" y="0" x="0"/>
<path id="q" d="m59.94 20.65c0.4791 0 0.8693 0.4059 0.8693 0.9046s-0.3901 0.9046-0.8694 0.9046c-0.479 0-0.8691-0.4059-0.8691-0.9046s0.3901-0.9046 0.8693-0.9046zm-0.7241 0.9046c0 0.3928 0.309 0.7122 0.6874 0.7122s0.6874-0.3194 0.6874-0.7122-0.309-0.7122-0.6874-0.7122-0.6874 0.3194-0.6874 0.7122zm1.206-0.03687c0 0.2725-0.2055 0.4951-0.4582 0.4951s-0.4585-0.2226-0.4585-0.4951c0-0.2722 0.2058-0.4947 0.4585-0.4947s0.4582 0.2226 0.4582 0.4947z" fill-rule="evenodd" fill="#222"/>
<use xlink:href="#q" transform="matrix(-.9764 .2161 -.2161 -.9764 125.2 29.61)" height="360" width="640" y="0" x="0"/>
<path fill="#e0e0e0" d="m66.17 24.52c0.423 0.1203 0.2058 5.286 0.03687 6.734-0.0486 0.373-9.821 0.3127-9.881-0.0248-0.2524-1.375-0.2658-6.177 0.2051-6.6 0.3489-0.3131 8.748-0.3747 9.64-0.1089z"/>
<path fill="#222" d="m61.51 27.24c0.07206-0.1572 3.258-0.1807 3.452-0.0238 0.09687 0.07206 0.08379 2.606-0.0486 2.739-0.1451 0.1559-3.197 0.1441-3.342 0.01173-0.1089-0.09687-0.1324-2.51-0.06033-2.727"/>
<g id="i" transform="matrix(.3352 0 0 .3352 -69.44 -11.44)">
<path id="p" fill="#222" d="m383.3 110.4c0.105 0.109 0.105 3.277-0.074 3.457-0.18 0.215-4.176 0.18-4.391 0.035-0.144-0.144-0.18-3.168-0.07-3.457 0.105-0.18 4.281-0.215 4.535-0.035z"/>
<path fill="#00f" d="m382.4 111.1c0.11 0.075 0.075 1.946-0.035 2.051-0.109 0.11-2.449 0.11-2.554 0-0.11-0.07-0.11-1.871-0.075-2.015 0.075-0.145 2.52-0.145 2.664-0.036z"/>
</g>
<use id="o" xlink:href="#i" transform="translate(1.968 -.01330)" height="1052.3622" width="744.09448" y="0" x="0"/>
<use xlink:href="#i" transform="translate(4.043)" height="1052.3622" width="744.09448" y="0" x="0"/>
<g id="y" transform="matrix(.3352 0 0 .3352 -69.44 -11.44)">
<use xlink:href="#p" transform="translate(17.62 -.07937)" height="1052.3622" width="744.09448" y="0" x="0"/>
<path fill="#f00" d="m400 111c0.07 0.035 0.07 1.946-0.035 2.051-0.11 0.109-2.485 0.109-2.594 0-0.07-0.07-0.109-1.871-0.035-2.016 0.035-0.144 2.519-0.144 2.664-0.035z"/>
</g>
<use id="n" xlink:href="#o" transform="translate(-1.982 1.636)" height="1052.3622" width="744.09448" y="0" x="0"/>
<use xlink:href="#n" transform="translate(2.022 .01330)" height="1052.3622" width="744.09448" y="0" x="0"/>
<use id="m" xlink:href="#y" transform="translate(-5.892 3.325)" height="1052.3622" width="744.09448" y="0" x="0"/>
<use xlink:href="#m" transform="translate(2.008)" height="1052.3622" width="744.09448" y="0" x="0"/>
<path fill="#00f" d="m64.63 27.47c0.07206 0.06 0.07206 2.075-0.03519 2.196-0.1217 0.1203-2.558 0.1086-2.667 0.01173-0.09687-0.08379-0.1207-2.015-0.0486-2.184 0.0486-0.1321 2.594-0.1441 2.751-0.02346z"/>
<path fill="#404040" d="m65.64 40.44c0.5788 0.3142 0.9167 1.352 0.6271 1.376-0.724 0.04843-2.859 0.0602-3.908-0.03667-0.1937-0.02356-0.1937-1.002 0.3737-1.291 0.5061-0.2527 2.244-0.4216 2.907-0.04847z"/>
<path fill="#404040" d="m60.1 40.38c0.5788 0.326 0.796 1.291 0.5185 1.315-0.724 0.04843-3.209 0.1217-4.26 0.01307-0.1924-0.01307 0.08513-1.05 0.6643-1.339 0.5075-0.254 2.414-0.3509 3.078 0.01177z"/>
<g id="x" transform="matrix(.3352 0 0 .3352 -69.44 -11.44)">
<path id="g" fill="#a1a1a1" d="m379.4 129.6c0.4638-0.9182 6.767-0.7871 7.099 0.2642 0.3328 1.051 1.562 0.8738 1.67 2.782 0.1075 1.909-1.487 2.149-1.68 2.944-0.1925 0.7953-7.051 0.9013-7.234 0.0907-0.1836-0.8106-2.127-1.454-1.896-3.22 0.2311-1.765 1.577-1.944 2.041-2.862z"/>
<use xlink:href="#g" transform="matrix(1 0 0 -1.072 .1587 283.3)" height="1052.3622" width="744.09448" y="0" x="0"/>
<use xlink:href="#g" transform="matrix(1 0 0 .9348 0 25.49)" height="1052.3622" width="744.09448" y="0" x="0"/>
</g>
<use xlink:href="#x" transform="matrix(-1 0 0 .9808 123 .7245)" height="1052.3622" width="744.09448" y="0" x="0"/>
</g>
<rect height="50" width="55" y="10" x="33.93" fill="none"/>
</g>
<g id="id_NameTerms" transform="translate(-129.6)">
<use xlink:href="#a" transform="matrix(-1 0 0 1 212.1 56.74)" height="360" width="640" y="0" x="0"/>
<use xlink:href="#d" transform="matrix(.9817 -.02624 .02624 .9817 190.1 2.636)" height="360" width="640" y="0" x="0"/>
<rect height="50" width="55" y="10" x="224.6" fill="none"/>
</g>
<g id="id_Read">
<rect height="50" width="45.5" y="10" x="-5.5" fill="none"/>
<path d="m-5.5 50.63v9.37h45.5v-9.12c-14.17-1.934-37.83 0.08333-45.5-0.25z" fill-opacity=".5020" fill="#c8c8c8"/>
<use xlink:href="#d" transform="matrix(1.18 0 0 1.18 -55.14 1.112)" height="360" width="640" y="0" x="0"/>
</g>
<g id="c" transform="matrix(1.21 0 0 1.21 31.97 -20.83)">
<path stroke-linejoin="round" d="m-137.9 82.63c0.3785-1.532 0.3645-2.65 1.512-3.466l0.5373 0.4493c-1.121 0.7888-1.191 2.337-1.4 3.416z" stroke="#232323" stroke-width=".3371" fill="#a16121"/>
<path stroke-linejoin="round" d="m-133 87.82c-2.574 4.823-3.875 6.223-6.69 3.793-3.26 1.205-3.5-1.456-4.137-6.067-0.6394-4.613 3.436-6.695 6.586-3.606 2.409-1.55 6.819 1.061 4.243 5.881z" stroke="#232323" stroke-width=".3371" fill="#c60000"/>
<path fill="#fff" d="m-142.6 83.67c-0.004-0.3314 0.4237-1.65 0.7919-2.007 0.5953-0.5777 1.43-0.6389 1.403-0.1069-0.0258 0.5533-0.9998 1.672-1.37 2.033-0.3668 0.3544-0.8178 0.4015-0.8256 0.0809z"/>
<path stroke-linejoin="round" d="m-145.7 87.77c0.1671-1.787-0.0373-3.043 1.115-4.154l0.6801 0.4147c-1.128 1.077-0.945 2.83-0.9981 4.08z" stroke="#232323" stroke-width=".3834" fill="#a16121"/>
<path stroke-linejoin="round" d="m-151.7 93.08c1.891 5.785 4.733 6.571 7.379 5.548 2.986 0.1439 5.086 0.7934 6.029-6.117 0.9426-6.907-4.195-6.459-7.025-5.248-2.326-1.069-8.27 0.03321-6.382 5.82z" stroke="#232323" stroke-width=".3834" fill="#c60000"/>
<path fill="#fff" d="m-150.5 91.9c-0.2171-0.3353-0.4694-1.895-0.1878-2.448 0.4563-0.8925 1.574-1.382 1.879-0.8276 0.3188 0.576-0.316 2.213-0.597 2.77-0.2819 0.5483-0.8772 0.8276-1.094 0.5051z"/>
<path stroke-linejoin="round" d="m-130.1 85.8c0.1869-1.674 0.0165-2.854 1.116-3.877l0.6308 0.4005c-1.076 0.9905-0.934 2.638-1.005 3.809z" stroke="#232323" stroke-width=".3597" fill="#a16121"/>
<path stroke-linejoin="round" d="m-124.7 91.44c-2.694 5.033-5.448 5.294-7.724 3.915-2.781-0.3562-4.827-0.1002-4.568-6.634 0.2614-6.535 4.933-5.28 7.348-3.696 2.324-0.6064 7.636 1.386 4.941 6.419z" stroke="#232323" stroke-width=".3597" fill="#c60000"/>
<path fill="#fff" d="m-135.2 87.51c-0.1472-0.3446-0.1315-1.827 0.2171-2.292 0.5644-0.7525 1.675-1.026 1.869-0.4651 0.2027 0.5832-0.6452 1.995-0.9943 2.465-0.348 0.4619-0.9429 0.6247-1.091 0.2923z"/>
</g>
<g id="e" transform="matrix(.7493 0 0 .7493 -15.15 21.89)">
<use xlink:href="#c" transform="matrix(0.61 .1018 -.1018 0.61 29.99 40.72)" height="360" width="640" y="0" x="0"/>
<use xlink:href="#c" transform="matrix(.7531 -.1109 .1109 .7531 21.34 3.776)" height="360" width="640" y="0" x="0"/>
<use xlink:href="#c" transform="matrix(.8545 .2438 -.2440 .8522 84.02 46.18)" height="360" width="640" y="0" x="0"/>
<use xlink:href="#c" transform="matrix(.9972 .07463 -.07463 .9972 75.03 13.82)" height="360" width="640" y="0" x="0"/>
</g>
<g id="id_CountEasy">
<use xlink:href="#c" transform="matrix(1.054 0 0 1.054 211 -10.3)" height="360" width="640" y="0" x="0"/>
<use xlink:href="#a" transform="translate(107.8 106.7)" height="360" width="640" y="0" x="0"/>
<rect height="50" width="55" y="60" x="40" fill="none"/>
</g>
<g id="id_CountReadEasy" transform="translate(-107.6)">
<use xlink:href="#c" transform="matrix(.9935 .1135 -.1135 .9935 374.5 11)" height="360" width="640" y="0" x="0"/>
<use xlink:href="#a" transform="matrix(-1 0 0 1 190.1 106.9)" height="360" width="640" y="0" x="0"/>
<rect height="50" width="55" y="60" x="202.6" fill="none"/>
</g>
<g id="id_CountHard" transform="translate(-212.4)">
<g transform="translate(4.884 1.061)">
<use xlink:href="#e" transform="matrix(1.093 0 0 1.093 451.7 -14.13)" height="360" width="640" y="0" x="0"/>
<use xlink:href="#a" transform="matrix(1 0 0 -1 425 86.41)" height="360" width="640" y="0" x="0"/>
</g>
<rect height="50" width="55" y="60" x="362.4" fill="none"/>
</g>
<g id="id_CountReadHard" transform="translate(-318.7)">
<use xlink:href="#e" transform="matrix(1.097 .06353 -.06353 1.097 624.3 -10.34)" height="360" width="640" y="0" x="0"/>
<use xlink:href="#a" transform="matrix(-1 0 0 -1 512.5 87.1)" height="360" width="640" y="0" x="0"/>
<rect height="50" width="55" y="60" x="523.7" fill="none"/>
</g>
<g id="id_Count">
<rect height="50" width="45.5" y="60" x="-5.5" fill="none"/>
<path d="m-5.5 100.3v9.75h45.5v-9.125c-21.92-1.184-26.83-1.542-45.5-0.625z" fill-opacity=".5020" fill="#c8c8c8"/>
<use xlink:href="#c" transform="matrix(.8846 .1011 -.1011 .8846 145.7 24.68)" height="360" width="640" y="0" x="0"/>
</g>
<g id="id_ClockEasy">
<g id="h" transform="matrix(.7919 0 0 .7919 -712.8 -455.2)">
<g id="l">
<path d="m1001 739.3c0.4889 11.67-9.624 17.48-18.11 15.31-8.484-2.171-14.71-12.49-6.969-22.74 7.74-10.25 24.59-4.244 25.08 7.426z" fill-rule="evenodd"/>
<path d="m986.6 726.9c-8.888-0.3909-18.6 11.51-11.65 21.65 6.941 10.14 21.95 7.006 24.85-3.713 2.901-10.72-4.304-17.55-13.19-17.94zm11.61 14.3c-0.7027 10.2-11.78 14.7-19.13 8.342-7.355-6.361-3.768-15.83 2.175-19.09 5.943-3.256 17.66 0.5433 16.96 10.75z" fill-rule="evenodd" fill="#5050b4"/>
<path d="m996.9 742.7c-1.671 7.719-10.95 11.94-17.71 4.856-6.756-7.08-0.3766-16.44 5.798-17.23 6.175-0.7906 13.58 4.655 11.91 12.37z" fill-rule="evenodd" fill="#fff"/>
<path id="b" d="m986.4 730.3c0.1644 1.508 0.1146 2.224 0.1142 2.228 0.1873-0.002 0.3815 0.0229 0.551-0.0502-0.0201-0.744-0.0383-1.489-0.1512-2.178z"/>
<use xlink:href="#b" transform="matrix(-.03639 -.9995 -1.162 .03131 1882 1704)" height="1052.3622" width="744.09448" y="0" x="0"/>
<use xlink:href="#b" transform="matrix(.9950 -.09960 -.09149 -.9139 71.86 1517)" height="1052.3622" width="744.09448" y="0" x="0"/>
<use xlink:href="#b" transform="matrix(-.04345 -.9989 -.9084 .04778 1685 1692)" height="1052.3622" width="744.09448" y="0" x="0"/>
<use xlink:href="#b" transform="matrix(.8660 .5 -.5 .8660 502.5 -394.3)" height="1052.3622" width="744.09448" y="0" x="0"/>
<use xlink:href="#b" transform="matrix(.5 .8660 -.8660 .5 1135 -484.1)" height="1052.3622" width="744.09448" y="0" x="0"/>
<use xlink:href="#b" transform="matrix(-.5 .8660 -.8660 -.5 2122 256.6)" height="1052.3622" width="744.09448" y="0" x="0"/>
<use xlink:href="#b" transform="matrix(-.8660 .5 -.5 -.8660 2212 888.9)" height="1052.3622" width="744.09448" y="0" x="0"/>
<use xlink:href="#b" transform="matrix(-.8660 -.5 .5 -.8660 1471 1876)" height="1052.3622" width="744.09448" y="0" x="0"/>
<use xlink:href="#b" transform="matrix(-.5 -.8660 .8660 -.5 838.6 1966)" height="1052.3622" width="744.09448" y="0" x="0"/>
<use xlink:href="#b" transform="matrix(.5 -.8660 .8660 .5 -148.3 1225)" height="1052.3622" width="744.09448" y="0" x="0"/>
<use xlink:href="#b" transform="matrix(.8660 -.5 .5 .8660 -238.4 592.4)" height="1052.3622" width="744.09448" y="0" x="0"/>
<path d="m987 729.5c-9.611-0.428-14.34 10.17-10.25 16.79 4.093 6.619 13.21 8.841 18.89 1.431 5.678-7.409 0.9773-17.8-8.634-18.23zm7.584 4.284c6.013 6.492 1.703 14.4-4.17 17.19-5.873 2.793-16.2-3.829-14.03-12.54 2.171-8.708 12.18-11.15 18.2-4.654z" fill-rule="evenodd" fill="#afcdfa"/>
</g>
<g id="j" transform="translate(0 -.2652)">
<path d="m986.5 740.4c-0.0848-1.743-0.0141-4.73-0.0141-4.73-0.1844-0.011-0.4223 0.0109-0.9041 0.1826 0 0 0.9643-2.481 1.3-2.556 0.3353-0.0753 1.18 2.622 1.18 2.622-0.2461-0.1227-0.6052-0.2752-0.7844-0.2324-0.0874 1.561-0.002 3.017 0.0565 4.664z"/>
<path d="m986.6 740.4c-0.0628-1.581 0.0319-4.878 0.0319-4.878-0.1367-0.01-0.4225-0.0689-0.7796 0.0868 0 0 0.7852-1.902 1.034-1.97 0.2485-0.0683 0.8984 2.005 0.8984 2.005-0.2062-0.1857-0.5301-0.15-0.6616-0.107-0.0648 1.416 0.0376 3.312 0.0807 4.806z" fill="#44449c"/>
</g>
<g id="k">
<path d="m987 740.3c1.08 1.655 2.111 3.642 2.111 3.642 0.219-0.1113 0.311-0.1905 0.7699-0.6784 0 0 0.3872 2.634 0.0427 2.93s-2.559-1.707-2.559-1.707c0.3531-0.0425 0.8444 0.004 1.027-0.1562-0.7788-1.591-1.142-1.994-2.137-3.573z"/>
<path d="m987 740.5c0.9632 1.511 2.094 3.736 2.094 3.736 0.1633-0.0807 0.3559-0.1126 0.6802-0.502 0 0 0.2866 1.98 0.0383 2.211-0.2483 0.2317-1.884-1.245-1.884-1.245 0.3425 0.0459 0.6658-0.1429 0.7933-0.2721-0.7232-1.434-1.306-2.176-2.198-3.615z" fill="#44449c"/>
<path d="m987.8 740.3c0.4717 0.6879 0.0981 1.42-0.5215 1.593-0.6196 0.1728-1.452-0.1974-1.348-1.147 0.1036-0.9497 1.398-1.133 1.87-0.4455z" fill-rule="evenodd"/>
<path d="m986.5 740.2c-0.7597 0.4076-0.3952 1.387 0.1249 1.524s0.9332-0.0735 1.111-0.5985c0.1782-0.5251-0.4766-1.333-1.236-0.9258zm0.5334 0.3706c0.2861 0.1058 0.2846 0.4901 0.1018 0.6423-0.1824 0.1521-0.5467 0.1021-0.6046-0.2398-0.0579-0.3418 0.2167-0.5084 0.5028-0.4026z" fill-rule="evenodd" fill="#afcdfa"/>
</g>
</g>
<use xlink:href="#a" transform="translate(107.8 157)" height="360" width="640" y="0" x="0"/>
<rect height="50" width="55" y="110" x="40" fill="none"/>
</g>
<g id="id_ClockMedium" transform="translate(-107.6)">
<g id="v">
<use xlink:href="#l" transform="matrix(-.8216 .003555 .003555 .8216 1038 -482)" height="360" width="640" y="0" x="0"/>
<use xlink:href="#j" transform="matrix(.8862 0 0 -.8632 -644.9 769.6)" height="360" width="640" y="0" x="0"/>
<use xlink:href="#k" transform="matrix(-.2431 .7485 -.7485 -.2431 1024 -428.1)" height="360" width="640" y="0" x="0"/>
</g>
<use xlink:href="#a" transform="matrix(-1 0 0 1 190.2 156.8)" height="360" width="640" y="0" x="0"/>
<rect height="50" width="55" y="110" x="202.6" fill="none"/>
</g>
<g id="id_ClockHard" transform="translate(-212)">
<g id="t">
<use xlink:href="#l" transform="matrix(0 .8072 -.8072 0 987.5 -665.2)" height="360" width="640" y="0" x="0"/>
<use xlink:href="#j" transform="matrix(-.3788 .7072 -.7072 -.3788 1288 -285.8)" height="360" width="640" y="0" x="0"/>
<use xlink:href="#k" transform="matrix(-.2926 -.7470 .7470 -.2926 125.1 1085)" height="360" width="640" y="0" x="0"/>
</g>
<use xlink:href="#a" transform="translate(429.7 156.9)" height="360" width="640" y="0" x="0"/>
<rect height="50" width="55" y="110" x="362" fill="none"/>
</g>
<g id="id_Clock">
<rect height="50" width="45.5" y="110" x="-5.5" fill="none"/>
<path d="m-5.5 150.3v9.75h45.5v-9.625c-15.66 0.1958-20.92-0.1722-45.5-0.125z" fill-opacity=".5020" fill="#c8c8c8"/>
<use xlink:href="#h" transform="matrix(1.068 0 0 1.068 -55.69 -3.229)" height="360" width="640" y="0" x="0"/>
</g>
<g id="id_NotesReadEasy">
<use xlink:href="#a" transform="translate(107.3 206.9)" height="360" width="640" y="0" x="0"/>
<g id="f" transform="matrix(1.052 0 0 1.052 -.6233 -10.77)">
<path d="m51.55 175.1s4.194 0.0349 6.291 0.0367c2.097 0.002 4.128-0.1055 6.291-0.0257s4.179 0.0973 6.291 0.0211c2.112-0.0761 6.291-0.0101 6.291-0.0101 0.0085 0.1372 0.0293 0.2798-0.0077 0.397 0 0-4.194 0.0213-6.29 0.0164-2.097-0.004-4.194-0.0411-6.29-0.046-2.097-0.004-4.158-0.1034-6.29-0.046-2.132 0.0575-6.29 0.0164-6.29 0.0164 0.01812-0.101-0.04249-0.1518 0.0031-0.3598z"/>
<path d="m76.7 178.7s-4.173-0.0342-6.259-0.0361c-2.086-0.002-3.343 0.0568-6.259 0.0252s-4.099-0.0175-6.259-0.0207c-2.16-0.003-6.259 0.01-6.259 0.01-0.0087-0.1349-0.03755-0.275-0.0015-0.3902 0 0 4.18 0.0103 6.266 0.0151 2.086 0.004 3.396 0.19 6.258 0.0544 2.862-0.1355 4.136 0.03 6.258-0.0265 2.121-0.0565 6.258-0.0161 6.258-0.0161-0.01234 0.0974-0.0077 0.2002 0 0.3849z"/>
<path d="m76.52 181.5s-4.139 0.0342-6.208 0.0361c-2.069 0.002-3.316-0.0164-6.208 0.0152-2.893 0.0316-4.066-0.023-6.208-0.0197-2.143 0.003-6.208-0.01-6.208-0.01-0.0087 0.1349-0.029 0.275 0.007 0.3902 0 0 4.138-0.0103 6.207-0.0151 2.069-0.004 3.345-0.0686 6.207-0.0544s4.091 0.0914 6.207 0.0265 6.207 0.0161 6.207 0.0161c-0.01773-0.0993 0.02545-0.2512 0-0.3849z"/>
<path d="m51.46 185.1s4.17-0.0349 6.256-0.0367c2.085-0.002 4.105 0.1257 6.256 0.0459s4.155-0.1175 6.256-0.0413c2.1 0.0761 6.256 0.0101 6.256 0.0101 0.0085-0.1372 0.0293-0.2798-0.0077-0.397 0 0-4.17-0.0416-6.255-0.0366-2.085 0.004-3.735 0.1624-6.255 0.1067-2.52-0.0558-4.134 0.063-6.255 0.005-2.12-0.0575-6.234-0.0164-6.234-0.0164 0.01805 0.101 0.02838 0.1874-0.01781 0.3598z"/>
<path d="m51.66 188.3s4.161 0.006 6.241 0.004 3.333 0.0164 6.241-0.0152 4.087-0.0175 6.241-0.0207c2.154-0.003 6.241 0.01 6.241 0.01 0.0085-0.1349 0.0293-0.275-0.0077-0.3902 0 0-4.16 0.0306-6.24 0.0354-2.08 0.004-3.353 0.0266-6.24 0.0342-2.887 0.008-4.125 0.03-6.24-0.0265-2.115-0.0564-6.24-0.0161-6.24-0.0161 0.01797 0.0993 0.04905 0.2154 0.0031 0.3849z"/>
<path d="m59.5 169.1c-0.471 0.4737-2.843 2.681-1.739 7.737-9.099 7.385-1.791 12.26 2.307 10.79l0.4968 2.45c0.2046 2.046-2.244 3.127-3.762 2.306 2.575-0.4144 1.851-3.459-0.1242-3.087-1.975 0.3727-1.508 3.687 1.048 3.726 2.556 0.0391 3.321-1.814 3.122-3.017l-0.4518-2.484c4.569-2.784 1.468-6.439-1.376-6.005l-0.5853-2.69c3.527-2.799 3.621-6.589 1.064-9.724zm0.4099 1.798c0.02877 0 0.05745 0.00077 0.08696 0.003 0 0 0.8525 0.6093 0.649 2.147s-2.622 3.58-2.622 3.58c-0.3129-1.4 0.07542-5.73 1.886-5.731zm-1.753 8.134 0.545 2.525c-0.6679 0.1087-1.714 0.6013-2.253 1.925-0.5388 1.324 0.4836 2.59 1.703 2.723 0 0-1.133-0.7051-0.9968-1.812 0.08707-0.7098 0.907-1.326 1.855-1.501l0.9595 4.403c-2.632 1.259-5.399-0.8636-5.403-3.149-0.0031-1.907 1.926-3.982 3.59-5.114zm1.174 3.804c2.832-0.0226 2.669 3.417 0.9378 4.311z"/>
<path d="m71.74 182.8c0.06053-1.866-0.1382-3.747 0.0135-5.288 0.02429-2.051-0.06277-3.397 0.0135-5.288 0.1678-0.004 0.3421-0.0123 0.4855 0.003 0.06308 1.753-0.0229 3.698-0.03625 5.287 0.0138 1.948 0.01041 3.397-0.03625 5.287-0.1235-0.008-0.1856 0.0178-0.44-0.002z"/>
<path d="m67.75 183.9c-0.0162-0.9278 1.398-2.219 2.953-2.185 0.7261 0.0162 1.502 0.3169 1.477 1.234-0.02522 0.917-1.349 2.063-2.913 2.104-0.7543 0.0195-1.501-0.2252-1.517-1.153z"/>
</g>
<rect height="50" width="55" y="160" x="40" fill="none"/>
</g>
<g id="id_NotesReadHard" transform="translate(-107.6)">
<use xlink:href="#a" transform="matrix(-1 0 0 -1 190.5 187.1)" height="360" width="640" y="0" x="0"/>
<g id="u">
<path d="m231.1 185.2 0.1069-2.576 0.9911-0.244-0.1064 2.563zm2.075-0.5381-0.7428 0.1853 0.1064-2.563 0.7426-0.1798 0.0442-1.065-0.7426 0.1798 0.1087-2.618-0.3365 0.004-0.112 2.698-0.9916 0.2566 0.1057-2.546-0.3363-0.0139-0.1097 2.643-0.7426 0.1804-0.0443 1.067 0.7426-0.1798-0.1062 2.558-0.7426 0.1793-0.0441 1.062 0.7426-0.1798-0.1081 2.604 0.3363 0.0139 0.112-2.697 0.991-0.2429-0.1052 2.533 0.3365-0.004 0.1091-2.628 0.7426-0.1804z"/>
<use xlink:href="#f" transform="matrix(.9994 .03366 -.03366 .9994 169.7 -.7704)" height="360" width="640" y="0" x="0"/>
</g>
<rect height="50" width="55" y="160" x="202.6" fill="none"/>
</g>
<g id="id_Music">
<rect height="50" width="45.5" y="160" x="-5.5" fill="none"/>
<path d="m-5.5 200.3v9.75h45.5v-9.875c-21.78 0.6958-22.8-1.297-45.5 0.125z" fill-opacity=".5020" fill="#c8c8c8"/>
<use xlink:href="#f" transform="matrix(1.079 0 0 1.079 -55.39 -6.391)" height="360" width="640" y="0" x="0"/>
</g>
<g id="id_MixedEasy">
<g id="s">
<use xlink:href="#f" transform="matrix(.7057 .008627 -.008627 .7057 20.05 98.15)" height="360" width="640" y="0" x="0"/>
<use xlink:href="#h" transform="matrix(.7188 0 0 .7188 31.56 132.9)" height="360" width="640" y="0" x="0"/>
<use xlink:href="#c" transform="matrix(.6463 .2530 -.2530 .6463 185 215.9)" height="360" width="640" y="0" x="0"/>
<use xlink:href="#d" transform="matrix(.8905 -.05011 .05011 .8905 .8586 212.4)" height="360" width="640" y="0" x="0"/>
</g>
<use xlink:href="#a" transform="matrix(1.013 0 0 1.013 108.1 256.6)" height="360" width="640" y="0" x="0"/>
<rect height="50" width="55" y="210" x="40" fill="none"/>
</g>
<g id="id_MixedMedium">
<use xlink:href="#f" transform="matrix(.6812 -.04611 .04611 .6812 67.84 106.4)" height="360" width="640" y="0" x="0"/>
<use xlink:href="#v" transform="matrix(.7077 0 0 .7077 -27.77 133.7)" height="360" width="640" y="0" x="0"/>
<use xlink:href="#d" transform="matrix(.8021 -.1660 .1660 .8021 55.2 223.6)" height="360" width="640" y="0" x="0"/>
<use xlink:href="#e" transform="matrix(.7594 .05111 -.05111 .7594 181.1 174.9)" height="360" width="640" y="0" x="0"/>
<use xlink:href="#a" transform="matrix(1.013 0 0 1.013 163.1 256.6)" height="360" width="640" y="0" x="0"/>
<rect height="50" width="55" y="210" x="95" fill="none"/>
</g>
<g id="id_MixedHard" transform="translate(55)">
<use xlink:href="#u" transform="matrix(.7410 0 0 .7410 -51.59 91.51)" height="360" width="640" y="0" x="0"/>
<use xlink:href="#t" transform="matrix(.6995 0 0 .6995 -138.1 135.4)" height="360" width="640" y="0" x="0"/>
<use xlink:href="#d" transform="matrix(.8021 -.1660 .1660 .8021 55.57 223.9)" height="360" width="640" y="0" x="0"/>
<use xlink:href="#e" transform="matrix(.7594 .05111 -.05111 .7594 181.1 174.9)" height="360" width="640" y="0" x="0"/>
<use xlink:href="#a" transform="matrix(1.013 0 0 1.013 163.1 256.6)" height="360" width="640" y="0" x="0"/>
<rect height="50" width="55" y="210" x="95" fill="none"/>
</g>
<g id="id_Mixed">
<rect height="50" width="45.5" y="210" x="-5.5" fill="none"/>
<path d="m-5.5 250.3v9.75h45.5v-9.625c-15.66 0.1958-20.92-0.1722-45.5-0.125z" fill-opacity=".5020" fill="#c8c8c8"/>
<use xlink:href="#s" transform="matrix(.9052 0 0 .9052 -45.33 27.36)" height="360" width="640" y="0" x="0"/>
</g>
<g id="id_Color">
<rect height="50" width="45.5" y="260" x="-5.5" fill="none"/>
<path d="m-5.5 300.7v9.312h45.5v-9.375c-8.659 0.6958-32.8-0.5472-45.5 0.0625z" fill-opacity=".5020" fill="#c8c8c8"/>
<path d="m26.78 275.6c-0.9314 0.921-0.6299 2.577 0.5316 2.789 1.162 0.2117 2.182-0.4777 2.103-1.916-0.07907-1.439-1.704-1.793-2.635-0.8725zm-9.032 0.2326c-6.036 0.4772-6.126 2.264-8.923 5.091-2.798 2.827-1.297 1.523-3.691 1.382-2.393-0.1408-2.948 2.686-1.48 3.125 1.469 0.4397 3.064-1.2 3.536 0.4923 0.4721 1.693-0.2192 2.546 1.455 4.442 1.674 1.897 2.771 0.978 4.419 2.274s-1.779 4.076-2.007 5.909c-0.2277 1.833 2.207 3.784 3.836 2.498s0.5454-2.009 2.285-4.183 6.703-2.382 8.306-3.689c1.603-1.306 2.498-0.9803 2.734-1.375 0.2363-0.3945-1.715 0.4147-0.7419-2.992 0.9732-3.407-3.693-13.45-9.729-12.98zm11.38 16.1c-0.1144 0.2644 0.4278 0.6 1.155 1.674 0.7273 1.074 2.258-0.2154 1.482-1.046-0.7759-0.8311-2.522-0.8918-2.637-0.6274z" fill="#3030ff"/>
<g fill-opacity=".6667" fill="#fff">
<path d="m26.74 276.3c0.08584-0.3276 0.9037-1.059 1.086-0.7108 0.1825 0.3484-0.2539 0.5879-0.4376 0.9596-0.1837 0.3716-0.1685 0.7883-0.4934 0.845-0.3248 0.0567-0.2411-0.7662-0.1552-1.094z"/>
<path d="m13.29 296c0.2848 0.1958-0.1684 0.9048-0.41 1.532-0.2416 0.6271-0.04685 1.399-0.6115 1.461-0.5647 0.0612-0.3482-1.197-0.0076-1.839 0.3406-0.6415 0.7443-1.35 1.029-1.154z"/>
<path d="m3.72 283.2c0.2431-0.3762 1.255-0.6377 1.413-0.3794 0.1585 0.2584-0.4524 0.4699-0.7521 0.7526s-0.4235 0.8486-0.8179 0.8138-0.08624-0.8107 0.1569-1.187z"/>
<path d="m29.74 292.2c0.07927-0.2108 0.637-0.216 0.9265 0.068s-0.2074 0.5985-0.4517 0.5065-0.554-0.3637-0.4748-0.5745z"/>
<path d="m11.08 279.2c0.6162-0.7869 1.562-1.629 1.866-1.332 0.3032 0.2968-0.6667 1.136-1.282 1.779-0.6157 0.643-1.025 1.791-1.596 1.488-0.5706-0.3027 0.3965-1.149 1.013-1.936z"/>
</g>
</g>
</svg>
