<svg xmlns:rdf="http://www.w3.org/1999/02/22-rdf-syntax-ns#" xmlns="http://www.w3.org/2000/svg" viewBox="0 0 744.09448819 1052.3622047" height="100%" width="100%" version="1.1" xmlns:cc="http://creativecommons.org/ns#" xmlns:xlink="http://www.w3.org/1999/xlink" xmlns:dc="http://purl.org/dc/elements/1.1/">
<g id="id_rooster">
<rect height="66.83" width="65.1" y="-.1817" x="402.9" fill="none"/>
<path fill="#222" d="m422.2 8.835c-0.539-1.188-3.024-5.148-2.41-5.582 1.113-0.7891 5.144 2.559 6.047 2.195 1.621-0.6836 0.179-2.266 0.933-3.707 2.032-3.556 6.295-0.9341 6.231 1.801-0.035 1.476-1.657 2.195-1.043 3.422 0.644 1.223 2.734 0.6446 3.562 1.473 1.403 1.332-0.504 2.09-1.043 2.988-0.398 0.6484 2.989 1.297 1.043 3.422-0.793 0.8632-2.375 0.1445-3.097 1.043-0.754 0.8633 0.543 0.6836 0.144 2.52-0.43 1.836-1.656 3.098-1.801 4.754-0.105 1.113-0.285 2.41 1.047 4.32 1.332 1.906 2.41 2.23 4.141 3.129 0.863 0.4336 8.601 1.191 7.449 0.289-2.23-1.801-4.785-4.789-4.75-7.738 0.035-2.918 1.691-5.762 1.656-4.574-0.074 1.477 0.25 3.672 2.52 3.527 2.265-0.1406 1.512-2.625 5.508-4.137 3.961-1.551 6.586-1.875 10.4-1.945 3.781-0.0704 5.363 1.547 4.644 1.726-1.007 0.2188-7.128 1.227-7.488 2.883-0.105 0.4649 3.961 1.547 6.555 3.707 1.512 1.297 2.301 1.945 3.707 5.074 1.402 3.098 2.016 6.191 1.762 7.777-0.036 0.3242-2.625-1.871-3.094-1.547-0.399 0.25 1.402 2.23 1.187 4.894-0.254 2.988-1.261 6.41-1.8 7.02-0.575 0.6485-1.258-4.176-1.907-2.41-0.433 1.152-0.722 2.445-2.379 4.605-1.691 2.199-3.058 3.781-4.32 4.176-1.258 0.4336 0.363-3.527-0.898-4.894-0.36-0.3946-1.621 1.91-2.809 1.945-0.828 0-1.258-2.016-1.941-1.945-0.688 0.0703 0.179 1.836-0.758 2.23-0.938 0.3633-1.871-1.402-2.953-0.7539-1.078 0.6836-0.071 3.094-1.332 3.418-1.293 0.3242-2.485-2.16-3.742-2.086-1.262 0.0703-0.254 1.726-1.332 2.375-1.083 0.6836-2.954-0.3242-3.133 0.2148-0.035 0.1836-0.25 1.766 0.144 2.918 0.434 1.152 1.727 0.8633 1.656 1.801-0.074 0.9336-0.863 0.4688-1.945 1.906-1.078 1.477-1.512 3.242-2.375 3.891-0.863 0.6094-0.07-1.73-1.043-1.332-0.972 0.3594-1.98 2.949-2.808 2.805-0.864-0.1406 0.359-2.879-0.614-3.418-0.972-0.5039-2.808 2.125-3.273 1.332-0.434-0.7578 2.121-3.602 1.512-4.465-0.649-0.8281-3.387 1.262-4.036 1.043-0.609-0.2148-0.285-1.113 1.477-1.906 1.801-0.8281 3.926-0.3945 5.652-1.367 1.766-0.9375 1.262-1.047 1.657-2.16 0.359-1.117 0-2.055-0.145-2.305-0.285-0.3945-1.113 2.125-2.086 1.512-0.973-0.6484-0.324-2.629-1.801-4.031-1.441-1.406-2.554-0.5039-3.996-1.621-1.476-1.117-1.117-2.23-1.801-2.844-0.648-0.5742 0.973 2.34-1.835-0.2148-2.879-2.594-7.165-5.328-10.37-9.289-1.007-1.297-1.656-3.781-1.332-5.941 0.899-5.398 3.278-6.371 3.059-7.27-0.215-0.9024-1.091-2.027-0.2738-6.07 0.8175-4.043 6.615-6.027 7.403-6.278 0.7876-0.2513-0.289-2.773-0.07-2.988 0.609-0.6132 3.238 1.871 2.734 0.6836"/>
<g fill="#ff8000">
<path d="m428.1 59.16c1.008-0.1797-0.0202 1.731 1.097 1.082 0.684-0.3945 3.059-0.6484 3.672-1.113 0.649-0.4336 0.613-2.773-0.18-1.875-2.352 1.573-6.193 1.248-7.882 2.988 0.394 0.03516 2.285-0.8684 3.293-1.082z"/>
<path d="m430.8 65.28c0.215 0.07421 1.726-2.59 2.449-2.734 0.504-0.07031 0.648-2.16-0.469-0.8984-0.144 0.1797-2.051 0.5039-1.98 1.008 0.144 1.188-0.25 2.555 0 2.625z"/>
<path d="m435.8 53.54c0.36 1.476-0.179 3.059 0.324 4.535 0.54 1.512 1.547 0.6133 1.762 1.008 0.215 0.3984-1.941 0.8672-2.375 1.801-0.433 0.9375-0.648 2.629-1.222 2.664-0.614 0.03516 1.511-2.809-0.614-2.699-2.16 0.1094-5.867 2.52-6.445 2.773-0.828 0.3203 1.477-2.09 3.203-3.242 1.695-1.152 2.738 0.2891 3.422-1.402 0.648-1.656-0.254-4.176-0.254-5.582 0-0.9338 2.09-0.2503 2.199 0.1443z"/>
</g>
<path fill="#f00" d="m427.5 1.886c1.472-2.238 3.596-1.094 4.426 0.684 0.648 1.512-1.692 3.602-1.008 4.644 0.902 1.402 3.387 0.9375 3.926 1.98-0.135 2.031-3.407 2.049-0.504 3.562 1.836 0.9727 0.394 2.629-1.082 1.98-0.934-0.3945-1.188 1.152-1.618 0.4687-1.107-6.159-2.68-10.02-4.32-9.757 0.5-1.259-0.5-2.267 0.2-3.563z"/>
<path fill="#f00" d="m420 11.93c0.828 0.1094 3.816 1.227 3.347 2.16-0.0275 2.782-0.007 6.047-1.691 8.172-8.281 8.298-13.96-6.482-3.492-9.683 1.367-0.0706 1.043-0.7542 1.836-0.6487z"/>
<path fill="#ff0" d="m424.8 11.5c0.179 0.5039-2.196 0.5039-3.278 0-1.078-0.4687-1.257-1.91-1.043-1.91 0.614-0.1054 4.141 1.441 4.321 1.91z"/>
<path fill="#ff0" d="m425.8 6.64c0.829 0.8985-0.468 0.2852-0.503 1.656-0.04 1.367 1.187 3.488 0.464 3.203-0.683-0.2891-2.554-2.629-3.562-4.32-1-1.656-1.9-3.203-1-2.879 0.899 0.2851 3.781 1.473 4.609 2.34z"/>
<path fill="#f9b628" d="m426 8.905c-0.179 1.117 1.078 1.73 0.684 2.953-0.434 1.258-1.547-0.3242-2.34 0.9375 0.4169 10.56-4.135 15.93-11.3 11.48-4.53 8.336-4.604 11.05 8.93 20.77 1.801 0.5039-0.254-3.383 0.754-3.562 1.008-0.1797 2.883 3.527 3.277 2.844 0.36-0.7226-2.664-4.465-1.8-5.652 0.863-1.188 4.5 2.52 5.218 0.8984 0.688-1.656-3.453-6.047-2.375-7.449 1.043-1.406 5.223 2.949 6.336 2.34 1.117-0.6485-1.297-2.629-2.23-4.32-0.938-1.73 0.539-0.4687-0.035-2.27-0.543-1.766-1.731-2.664-1.407-4.969 0.325-2.305 3.133-3.492 2.196-5.293-1.871-3.527-1.981-6.152-3.026-9.139-0.9-2.662-2.6-1.295-2.9 0.432z"/>
<path fill="#804000" d="m437.2 31.62c5.186 0.4545 11.47-0.263 13.68 3.887 1.365 4.234-0.5535 8.626-1.472 11.91-0.578 1.98 0.465 2.883-0.649 3.312-5.356-4.533-2.84 2.295-4.175 2.593-7.193-6.156-3.287-0.1542-5.582 0.539-7.298-5.263-6.346-1.05-8.172-0.214-2.284-9.43-6.208 0.4604-7.739-11.2 8.295 8.068 0.5854-2.734 1.727-3.312 0.719-0.3984 5.473 2.664 5.723 1.691 4.302 3.234 12.09 4.983 11.98 2.51-0.684-4.894-8.527-7.873-7.844-8.776 0.903-1.078-3.238-4.391-3.022-5.034 0.3955-1.148 2.376 1.552 5.544 2.094z"/>
<path fill="#004080" d="m442.1 28.92c-3.922-3.852-2.879-9.07-2.375-8.781 0.434 0.25 0.289 2.879 3.387 3.203 1.367 0.1445 1.148-2.52 2.23 0.7929 0.754 2.375 4.465 8.133 4.246 8.457-0.574 0.7226-5.613-1.836-7.488-3.672z"/>
<path fill="#0d4d66" d="m446.1 23.48c-1.187-3.566 2.34-4.754 6.047-6.012 3.742-1.262 9.145-0.793 10.01-0.3633 0.863 0.3984-5.113 0.9726-7.309 2.918-1.007 0.8632-2.265 3.527-2.375 6.48-0.074 3.457-1.152 9.035-1.801 7.416-0.4-1.08-3.6-7.56-4.6-10.44z"/>
<path fill="#1a5a4d" d="m453.1 26.58c0.359-4.969 0.972-5.688 4.14-4.426 2.301 0.8632 4.321 1.871 6.84 4.75 2.485 2.918 3.707 9.398 3.239 9.289-1.223-0.2539-5.579-6.086-9.11-5.902-3.527 0.2148-5.937 8.027-6.406 6.37-0.359-1.333 0.973-5.978 1.297-10.08z"/>
<path fill="#266633" d="m458.3 30.98c2.809-0.4688 5.075 3.383 6.301 6.156 1.258 2.805 0.36 9.465-0.578 9.465-0.394 0-0.648-4.68-4.535-6.945-2.988-1.73-7.453 0.504-7.309-0.793 0.18-1.297 3.672-7.488 6.121-7.883z"/>
<path fill="#33731a" d="m458.6 40.11c2.015 1.012 3.058 2.09 2.769 5.043-0.25 2.914-5.109 8.242-5.648 7.992-0.578-0.2187 1.043-5.832 0.035-8.641-1.008-2.844-4.5-2.305-4.07-3.277 0.398-0.9727 4.863-2.125 6.914-1.117z"/>
<path fill="#408000" d="m455.3 46.53c-0.254 0.9727-2.953 4.106-3.601 3.672-0.789-0.539-1.942-2.125-1.762-2.449 0.609-1.223 1.043-5.363 1.836-5.289 0.793 0.0704 4.39 0.8633 3.527 4.066z"/>
<path fill="#0d4d66" d="m439 39.72c-1.114-0.2891-5.938-3.277-6.621-3.312-0.614 0 4.535 2.953 7.199 4.031 2.445 1.008 2.555 2.738 1.726 3.168-6.73-0.04535-10.97-1.991-13.71-10.98 0.753-0.793 3.168 1.871 6.259 3.06 2.807 1.08 6.264 4.322 5.147 4.032z"/>
<path fill="#222" d="m426.9 8.331c0.375 0 0.683 0.3399 0.683 0.7578 0 0.418-0.308 0.7579-0.683 0.7579s-0.684-0.3399-0.684-0.7579c0-0.4179 0.309-0.7578 0.684-0.7578"/>
</g>
<g id="id_airplane">
<rect height="75" width="74.3" y="82.85" x="436.7" fill="none"/>
<path fill="#222" d="m455.1 98.38c0.937-1.551 1.296-1.477 1.261-2.199-0.306-3.895-0.527-7.992-0.218-11.7 0.039-0.574 5.303-1.342 7.643-1.342 5.224 7.881 8.305 17.09 12.63 23.55 8.078-0.6538 14.09 0.5711 20.59 0.325 0.863-1.008 3.273-4.102 4.176-5.399 0.539-0.793 4.461-0.648 4.605-0.07 0.434 1.797 0.074 4.75 0.793 6.226 0.395 0.899 4.32 1.078 3.961 1.946-0.254 0.574-4.68 1.148-6.301 1.472-1.332 0.289-0.324 0.145-1.332 1.766-0.433 0.684-0.254 0.289-3.347 2.375-4.86 3.277-10.3 5.617-15.41 8.101 3.149 10.88 5.774 21.51 6.196 32.79 0.035 1.008-5.977 2.121-6.625 1.113-3.785-5.832-6.618-10.02-10.33-15.8-4.726 2.163-5.945-1.803-6.231-4.97-0.179-1.98 0.723-3.492 1.192-4.43 0.359-0.753-1.192-4.14-1.836-5.507-5.971 1.308-16.04 1.653-20.63-3.563 0.5891-3.708 4.713-7.294 6.371-8.894 2.135-2.408 4.442-2.641 6.914-3.707 0.285-0.395-0.9776-3.165-1.193-4.966-2.569 1.621-5.235-2.9-2.878-7.124z"/>
<path fill="#ff0" d="m489.5 155.9c-1.766 0.8984-4.43 1.402-4.859 0.789-2.703-3.996-7.164-11.23-9.793-15.37-0.325-0.5742 4.211-1.297 5.148-1.726 1.223-0.579 0.574-1.477-0.469-1.297-1.586 0.289-6.371 2.629-5.722 1.297 1.111-3.052 0.5777-5.793-0.758-7.957 0.973-0.54 3.601-0.43 4.789-0.395 1.258 0.035 2.305-0.504 0.035-0.938-2.269-0.429-7.558 1.262-7.957 0.469-1.402-2.773-2.914-6.445-2.771-6.984 0.103-0.3955 10.79-2.727 15.12-3.56 3.877 12.56 6.837 23.2 7.239 35.67z"/>
<path d="m467.1 123.8c0.105-0.395 14.69-3.457 15.16-3.527 0.43-0.075 1.148 4.714 3.129 11.16 1.656 5.578 4.968 24.01 4.07 24.48-1.766 0.8984-4.43 1.402-4.859 0.789-2.703-3.996-7.164-11.23-9.793-15.37-0.325-0.5742 4.211-1.297 5.148-1.726 1.223-0.579 0.574-1.477-0.469-1.297-1.586 0.289-6.371 2.629-5.722 1.297 0.14-0.325 0.644-3.204 0.465-5.04-0.215-1.8-1.512-2.773-1.223-2.917 0.973-0.54 3.601-0.43 4.789-0.395 1.258 0.035 2.305-0.504 0.035-0.938-2.269-0.429-7.558 1.262-7.957 0.469-1.402-2.773-2.914-6.445-2.769-6.984z" fill="none"/>
<path d="m469.9 140.6c1.586 1.258 2.883-0.828 3.168-1.871 0.359-1.187 0.18-5.293-0.828-6.011-1.836-1.332-3.598 0.683-3.922 2.484-0.398 1.976 0.285 4.355 1.582 5.398z" fill="#ff8000"/>
<path d="m456.5 104.6c2.729 0.5245 3.458-3.223 3.203-5.004 0.074-1.371-1.836-2.773-2.914-1.836-2.077 1.861-2.22 5.973-0.289 6.84z" fill="#ff8000"/>
<path d="m475.2 106.9c-1.512 0.07-13.32 2.41-14.65 3.203-0.289 0.18-1.442-4.32-0.938-4.934 0.364-0.468 5.188-0.828 5.473-1.078 0.937-0.902-5.652 0.18-5.613 0.035 0.324-1.082 1.007-2.375 1.148-3.925 0.184-1.512-0.719-2.016-1.148-2.989-0.469-1.078 3.671-0.754 4.39-0.933 0.828-0.18 0.793-0.684-0.394-0.793-3.242-0.324-5.149 1.332-5.727-0.145-1.008-2.629-0.863-6.84-0.754-10.08 0.035-0.683 6.406-2.055 6.766-1.117 2.305 6.695 12.49 22.72 11.45 22.75" fill="#FF0"/>
<path d="m454.4 117.8c3.142 0.882 4.531-0.6332 6.741-2.675 1.261-1.523-3.29 0.2971-3.608 0.2999-1.117 0.035-3.277-0.039-3.527-0.723-0.254-0.683-0.039-1.078 2.519-2.015 8.79-3.369 17.13-4.9 25.12-5.074 4.719-0.075 11.39 0.2342 15.38 0.3082 1.721-0.8702 2.893-3.324 4.958-5.926 0.504-0.468 2.774-0.179 3.242-0.179 0.649 0 0.614 5.363 0.684 6.121 0.035 0.504-2.879 0.898-3.926 1.258-1.367 0.468-1.726 0.722-0.969 0.867 2.036-0.2486 4.321-0.9977 5.868-1.297 0.718 0.18 3.562 0.395 2.843 0.828-0.718 0.43-4.39 0.504-5.687 0.863-1.692 0.504-0.684 1.801-2.125 2.555-6.622 4.067-11.26 6.693-17.97 9.254-0.609-0.938-1.008-3.242-1.402-3.098-4.645 1.657-12.57 2.485-16.74 3.887-0.539 0.219 0.973 2.449 0.219 2.594-5.708 0.6263-11.96 1.893-17.9-1.981-2.211-0.9134 1.467-6.248 3.718-7.019 1.374-0.395 2.022 1.008 2.562 1.152z" fill="#FF0"/>
<g fill="#222">
<path d="m473.5 118.4c-0.035-1.043-0.18-3.168-0.434-3.492-0.215-0.215-1.761 0.074-1.871 0.324-0.215 0.504-0.07 2.629 0.145 3.562 0.074 0.364 2.16-0.035 2.16-0.394z"/>
<path d="m477.4 117.4c-0.039-1.043-0.219-2.809-0.504-3.098-0.184-0.25-1.731 0.035-1.801 0.289-0.219 0.504 0 2.449 0.215 3.418 0.109 0.363 2.09-0.25 2.09-0.609z"/>
<path d="m480.9 116.7c-0.035-1.043-0.109-2.664-0.359-2.984-0.219-0.254-1.477 0.035-1.586 0.285-0.18 0.504-0.11 2.16 0.109 3.133 0.07 0.359 1.836-0.071 1.836-0.434z"/>
<path d="m484.1 115.9c0-1.047-0.11-2.699-0.289-2.844-0.215-0.254-1.262 0-1.367 0.25-0.18 0.504-0.145 2.16 0.07 3.133 0.07 0.359 1.621-0.18 1.586-0.539z"/>
<path d="m486.9 115.2c-0.035-0.972 0.075-2.519-0.105-2.703-0.184-0.215-1.332 0.039-1.406 0.254-0.18 0.469-0.18 1.906 0.035 2.844 0.074 0.324 1.476-0.07 1.476-0.395z"/>
</g>
</g>
<g id="id_elephant">
<rect height="62.46" width="80.33" y="1.263" x="286.7" fill="none"/>
<path d="m304.9 58.28c-0.61-0.7188-1.957 0.1048-3.238-0.6484-3.938-1.372-5.663-6.97-5.797-10.22-0.0553-8.451-0.7981-13.04 1.261-23.51 0.3277-3.424 3.813-5.891 4.536-8.317 0.359-1.438 0.828-2.809 1.511-4.285 0.539-1.148 0.793-1.258 1.258-1.652 1.542-0.8467 3.234-1.153 4.899-1.551 13.61-7.38 23.43-8.271 32.94-3.313 4.626 2.155 9.157 7.039 11.44 9.723 5.106 5.511 5.154 18.03 6.156 21.82 1.619 2.079 5.141 1.852 6.915 1.078-0.7835 1.598-2.506 2.315-3.997 2.27-3.628-1.015-5.734-0.01606-6.984 2.878-0.3814 2.165 2.985 10.43 3.059 16.16-1.504 3.853-21.19 3.864-21.92 2.773 0.8659-4.08 2.071-7.038 3.707-10.8-5.854 3.399-10.63 2.849-15.8 1.512-0.394 0.25-1.367 2.734-2.09 4.895-0.718 2.125-0.25 3.133-0.898 3.926-3.112 3.414-7.291 2.774-12.17 2.086-2.41-0.3945-3.961-0.1797-5.258-1.008-0.789-0.5039-0.285-1.367-0.18-1.801 0.254-0.8281 0.829-1.797 0.649-2.016zm2.16-6.766c1.369-2.879 2.785-5.554 4.28-8.579-2.769 1.313-2.258-0.911-4.71-6.976 0.035-1.942 2.086-0.645 2.77-1.188 0.683-0.5392 0.504-0.6838-0.07-1.008-1.368-0.754-1.333-2.445-2.051-2.195-4.53-0.2-6.71 12.32-4.719 20.2 0.231 0.7179 1.327 2.5 2.055 1.007 0.215-0.684-0.254-1.98 0-2.375 0.259 0.2345 1.681 1.089 2.445 1.117z" fill-rule="evenodd" fill="#222"/>
<path fill="#fff" d="m309.8 29.73c-0.364 0.1094-2.496 0.561-3.884 0.3812s-3.531-0.7379-4.222-2.506c2.712 1.181 4.981 1.379 7.45 0.7228-0.5618 0.483-0.5124 1.438 0.656 1.402z"/>
<path fill="#c0c0c0" d="m320.5 4.171c8.1-2.505 18-2.538 27.1 5.585 6.879 5.474 10.37 13.86 10.3 21.38 0.215 1.551-0.398 4.863 1.258 6.051 0.684 0.5039 2.27 1.078 3.457 1.402 1.152 0.3243 2.27-0.289 2.41-0.1054-2.045 1.46-4.663-0.5571-6.586-0.1094-2.574 0.7054-4.073 2.671-4.39 4.894 0.9218 4.871 2.951 10.47 3.619 15.15-0.1554 0.9714-7.679 2.397-11.04 2.272-1.547-0.07422-0.504-1.586-1.297-2.34-0.789-0.7578-3.313-0.4336-4.68-0.4336-1.187-0.03515-1.437 0.3242-1.043-1.332 0.9789-3.978 3.665-7.092 3.418-10.84-2.328 4.231-9.079 8.552-16.99 5.004-1.117-1.801 1.726-6.586 0.898-5.902-2.89 4.343-4.456 11.79-6.149 15.66-1.37 1.611-4.846 2.625-9.811 1.672-1.059-0.225 0.0567-2.607-0.9968-3.911-1.152-1.477-4.355 0.8281-2.34-4.211 1.297-3.348 4.465-8.281 5.403-11.52 0.933-3.242-1.406-1.441-1.586-1.367-0.469 0.1445-0.828 0.7187-1.223 0-0.578-1.117-1.691-2.988-1.621-4.285 0.07-1.332 1.078-0.3945 1.906-1.008 0.828-0.6133 0.325-0.8281 1.442-1.476 1.117-0.6485 1.621-0.3946 2.988-1.078 1.332-0.7226 5.113-3.996 5.074-4.285-0.035-0.2891-3.707 2.41-5.254 3.098-1.547 0.6446-2.519 1.402-3.886 1.078-1.371-0.3243-2.235-1.223-2.485-2.016-0.219-0.7929 1.153-1.043 1.582-1.188 2.485-0.8632-0.609-0.2187-0.718-1.008-0.11-0.6484 3.636-1.836-0.145-1.008-2.484 0.5391-3.527 0.2149-5.219-0.0742-1.691-0.25-2.304-1.188-2.664-0.793-0.398 0.3985 0.36 1.586 1.332 2.344 0.973 0.789 3.313 0.9336 3.418 1.547-5.419 0.3875-6.706 21.3-2.769 23.11 1.958 0.6953 2.094-0.8373 1.976-2.34 0.184-0.2149 1.406 0.3633 1.153 1.551 0.3787 2.514-1.73 4.738-4.571 3.562-4.567-2.174-4.898-6.691-5.078-10.12 0.003-7.354-0.1267-14.86 1.012-20.41 1.692-6.935 3.36-7.058 4.68-10.08 0.648-1.512 0.609-2.734 1.546-4.281 1.149-2.24 3.197-2.111 6.009-3.087 2.812-0.9762 2.303-2.246 10.48-4.751zm-1.5 9.289c-1.297 1.297 0.18 1.152 1.512 0.6875 3.507-2.247 9.449-6.937 12.82-3.97 3.342 3.061 2.037 6.882 1.585 10.34-0.4516 3.458 0.4629 10.02-4.465 10.3-4.928 0.2762-5.615-3.351-8.246-6.375-1.222-1.402-0.394 0.3984-0.07 0.8633 2.33 3.193 1.603 3.035 4.331 5.376 2.727 2.341 7.762 0.9464 8.435-2.884 0.5858-3.331 0.5141-6.825 0.9138-9.1 0.8336-4.744 0.2075-7.199-2.032-8.92-2.1-1.722-3.7-1.837-14.7 3.68zm4.899 1.551c-0.973 0.7891-0.434 1.223 0.754 0.8281 1.152-0.4336 2.554-1.73 3.961-2.52 0.753-0.3984 1.117-0.7226 1.726-0.2539 0.578 0.4336 0.359 1.297 0.649 2.016 0.324 0.7188 0.324 0.793 0.539 0.8633 0.254 0.0742 0.543-0.1055 0.433-0.6094-0.144-0.7578-0.394-1.836-0.828-2.559-0.504-0.8281-1.906-0.539-2.629-0.25-1.582 0.6485-3.637 1.656-4.605 2.484"/>
<path fill="#222" d="m306.6 14.22c0.754-0.8984 1.981-1.586 3.168-1.152 1.597 0.7157 1.82 2.819 0.719 3.816-1.078 0.8984-2.699 1.152-3.887 0.25-1.007-0.7539-0.683-2.051 0-2.914"/>
<g fill="#fff">
<path d="m307.3 15.28c-0.4857 0.6342-0.3002 0.9885 0.2949 1.427 0.5951 0.4384 1.563 0.2847 2.141-0.2544 0.9504-0.7401 0.7646-1.653 0.2792-2.235-0.4854-0.5828-1.277-0.5344-1.782-0.02473 2.623 0.7707-0.4077 3.059-0.9331 1.087z"/>
<path d="m339.1 58.65c0.25-0.25 1.187-0.3594 1.473 0.2539 0.179 0.3242-0.036 1.836-0.325 2.41-0.105 0.2188-1.691 0-1.836-0.1408-0.503-0.3986 0.18-1.98 0.688-2.523z"/>
<path d="m341.7 58.64c0.219-0.1797 0.648-0.2148 1.082 0.2539 0.285 0.3594 0.359 1.836 0.035 2.41-0.109 0.1836-1.512 0.1445-1.586-0.03503-0.14-0.3944-0.07-2.195 0.469-2.629z"/>
<path d="m343.9 58.83c0.145-0.2539 0.723-0.3984 1.082 0 0.18 0.2148 0.504 1.727 0.18 2.301-0.11 0.1445-1.332 0.2188-1.367 0.03903-0.11-0.5039-0.18-1.836 0.105-2.34z"/>
<path d="m306.1 58.43c0.289-0.25 1.222-0.2891 1.546 0.4336 0.18 0.3945-0.035 2.086-0.359 2.734-0.109 0.2148-1.727-0.1445-1.906-0.3239-0.469-0.5388 0.215-2.266 0.719-2.844z"/>
<path d="m308.8 58.72c0.214-0.2148 0.613-0.2148 1.007 0.3594 0.25 0.3945 0.25 2.125-0.074 2.809-0.105 0.2148-1.437 0.1094-1.472-0.145-0.145-0.4692 0-2.52 0.539-3.023z"/>
</g>
</g>
<g id="id_candle">
<path fill="#222" d="m314 161.8c0.684-1.008-0.359-21.71-0.035-29.66 1.043 0.683 1.766 0.074 2.125-0.25 1.727-1.477-0.828-5.258-0.937-7.02-0.145-2.449 0.828-5.043 0-7.164-0.6098-1.999-3.932-4.074-7.235-3.637l0.035-2.34c2.203-1.176 3.806-3.412 4.48-6.826 0.6739-3.413-2.361-5.52-3.651-8.33s-1.836-5.867-2.235-8.531c-0.644 2.484-1.292 4.949-2.734 8.531s-2.463 3.265-3.144 6.476c-0.6804 3.211-0.4328 8.867 3.683 9.22l0.144 1.765c-4.596 0.3882-6.415 1.388-6.406 5.184-0.433 11.59-0.5576 31.81-0.074 42.12 7.164 4.108 13.81 1.307 15.98 0.462z"/>
<path d="m301 116.4c0.289-0.863 2.301-1.093 3.418-0.9878-0.3297 2.708 3.966 1.951 3.346-0.1143 1.383-0.3491 7.298 0.7032 4.396 2.075-3.619 0.8697-10.06 0.8401-11.16-0.973" fill="#ff8080"/>
<path d="m299.2 128.1c-0.035 9.789-0.788 24.05-0.174 32.37 3.999 2.416 13.15 1.354 13.73-0.0528 0.5024-7.922 0.0536-20.32 0.1626-28.46 0-0.504-1.691-1.226-1.836-3.527 0.0323-2.542-0.1624-5.143-2.918-5.512-1.043-0.18-1.761-1.078-2.195 1.262-0.469 2.34-0.539 3.383-0.254 7.054 0.289 3.711 1.297 4.106 0.902 6.157-0.433 2.09-1.91 2.449-2.593 2.16-0.934-0.43-1.981-0.684-2.34-3.274-0.504-3.492 0.578-7.019 0.324-10.73-0.25-3.742-1.367-3.313-1.332-4.141 0.035-0.863 0-2.699 1.441 0.758 1.512 3.563-0.394 11.05 0.793 14.29 0.934 2.59 3.528 3.024 2.879-0.683-0.757-4.215-1.91-9.364-0.718-13.18 1.187-3.781 1.796-1.731 4.57-0.543 1.928 0.8618 2.151 6.58 2.808 7.562 1.721 2.355 2.375 1.188 2.52-0.218 0.109-1.438-1.152-2.879-1.297-5.399-0.18-2.484 0.973-6.047-0.719-5.652-4.031 1.008-12.37-0.3832-13.44-0.7892-1.07-0.4061-0.2905 7.052-0.3157 10.55z" fill="#c20000"/>
<path d="m306.4 91.66c-0.649 2.34-0.954 3.761-2.161 6.73s-2.29 2.87-2.703 5.977 0.4608 6.012 2.873 6.232c0.2243-1.452 0.0356-5.035 0.2801-6.511 0.902 0.074 1.781-0.006 2.609 0.1741 0.3644 1.422 0.1205 4.813 0.359 6.046 2.664-1.666 4.12-5.335 3.603-7.551-0.5176-2.216-1.909-2.745-2.989-4.906s-1.153-3.961-1.871-6.191" fill="#ffff80"/>
</g>
<g id="id_robot">
<path fill="#222" d="m383.7 93.73-7.418-7.773 0.359-0.399 7.418 7.742c3.379-3.262 7.078-2.992 10.19-0.433l7.308-7.668 0.395 0.324-7.09 7.922c3.128 3.454 4.475 8.022 5.498 11.95 2.253 0.3857 5.727-0.7361 6.346 3.276 12.56 1.474 11.34 8.682 11.33 16.84 1.867 1.134 2.109 6.873-2.121 7.323-0.105 0-1.426-1.467-1.426-1.467s-1.881 1.422-2.096 1.277c-3.791-2.734-2.567-6.798-0.418-7.872 0-1.656 0.238-4.226 0.02-6.132-0.25-1.91-1.153-2.379-2.375-2.844-0.938-0.363-1.871-0.144-2.989-0.179-0.035 2.769 0.036 6.226-0.289 9.574-0.07 0.898-0.14 3.707-1.332 4.105l-2.16 0.036c1.227 0.933 2.199 1.367 2.199 3.636 0 1.512-1.836 2.485-1.875 3.887-0.07 1.152 2.161 2.09 1.946 4.789-0.18 2.305-1.727 2.844-1.836 4.031-0.071 1.188 1.765 0.539 1.765 3.457 0 2.375-1.765 1.762-1.765 3.672 0 1.258 2.519 1.438 3.203 3.527 0.504 1.621 0.578 1.98 0.18 3.492-5.11 0-9.684 0.2891-15.52 0.1055 0.035-2.375-0.25-1.512 0.109-3.562 0.36-2.086 2.34-2.555 2.45-3.238 0.214-1.441-1.836-1.695-1.766-3.816 0.035-2.09 2.16-2.52 2.051-3.852-0.18-1.621-2.121-1.945-2.051-4.539 0.035-2.519 1.476-2.519 1.441-3.851-0.039-1.477-2.125-1.582-1.8-4.356 0.214-2.05 1.332-2.664 2.16-3.492l-5.942-0.18c0.828 1.043 1.657 1.223 1.621 4.211-0.035 2.774-1.871 2.485-1.621 4.215 0.18 1.367 1.766 1.293 1.621 3.996-0.144 3.239-1.945 3.059-1.8 4.391 0.144 1.402 2.414 0.9375 2.125 3.672-0.289 2.664-1.871 2.375-1.981 3.852-0.109 1.082 2.34 1.082 2.449 2.738 0.106 2.051 0.286 1.836 0.071 3.633-6.371 0.2891-11.38 0.1797-16.81 0.1797-0.359-1.941-0.359-2.664 0.973-4.785 1.402-2.305 3.601-1.91 3.492-2.52-0.289-1.262-2.016-1.082-2.16-3.492-0.07-1.801 2.34-2.234 2.414-3.348 0.105-1.442-2.16-2.02-2.234-5.043-0.036-2.34 2.375-2.16 2.519-3.528 0.18-1.656-2.555-1.836-2.629-3.922-0.105-2.125 0.543-3.636 1.586-4.429l-2.629-0.035c-1.008 0.105-1.402 0.144-1.476-2.918-0.071-3.563-0.036-6.551 0-9.575-6.662-1.842-5.833 7.582-5.59 9.013 3.623 2.989 1.861 6.452-0.7416 7.935-1.163-0.8539-1.86-1.596-1.86-1.596s-0.8622 0.7825-2.066 1.567c-4.908-2.671-2.51-7.495-1.083-8.192-1.566-9.067 0.6011-15.91 11.74-15.78 0.2733-3.453 1.656-3.167 4.895-3.492 1.747-5.614 1.138-7.029 5.079-12.06z"/>
<path d="m382.8 98.13c0.863-2.2 1.656-3.168 2.988-4.176 1.582-1.192 3.094-1.875 5.508-0.867 2.375 1.007 3.492 2.988 4.645 5.437 1.472 3.277 2.015 5.363 2.23 6.984-7.453 0.25-10.37 0.18-17.17 0.29 0.249-2.125 0.648-4.825 1.8-7.668z" fill="#FF0"/>
<path id="h" d="m363.4 126.4c0.04-1.203 2.953-1.018 2.953-0.035 1.697 0.006 3.89 4.059 0.289 5.578-0.219-0.105-0.469-0.394-0.902-1.007 3.448-4.283-5.03-3.827-1.188 0.109-0.105 0.144-0.8687 0.8929-1.303 0.9979-2.945-1.551-1.694-5.331 0.1507-5.643z" fill="#FF0"/>
<use xlink:href="#h" transform="matrix(.9933 .1083 -.1153 .9333 66.89 -31.08)" height="1052.3622" width="744.09448" y="0" x="0"/>
<g id="i">
<path fill="#a1a1a1" d="m373.6 114.7c-0.2487 0.0344-1.48-0.1419-2.636 0.0234-1.155 0.1653-2.234 0.6723-2.657 0.8746-0.4226 0.2023-1.764-1.962-2.071-3.065-0.3071-1.103 6.889-2.99 7.294-1.836 0.4049 1.154 0.3185 3.968 0.0698 4.003z"/>
<path fill="#a1a1a1" d="m367.2 116.3c0.1873 0.5176-0.6266 2.68-0.9589 2.858-0.3324 0.178-2.497 0.0189-2.997-0.414-0.5003-0.4329 0.5822-4.827 1.506-4.97 0.9241-0.1423 2.263 2.008 2.45 2.526z"/>
<path d="m366.1 120.4c0.2568 0.4381 0.3677 3.936 0.07 4.25-0.2977 0.3143-2.125 0.1308-2.519 0-0.3943-0.1308-0.9033-4.065-0.469-4.5 0.4343-0.4349 2.661-0.1881 2.918 0.25z" fill="#a1a1a1"/>
</g>
<use xlink:href="#i" transform="matrix(-.9468 -.02879 -.03040 .9995 764 10.66)" height="1052.3622" width="744.09448" y="0" x="0"/>
<path id="g" d="m386 95.75c1.43 0 2.594 1.211 2.594 2.699s-1.164 2.699-2.594 2.699c-1.429 0-2.593-1.211-2.593-2.699s1.164-2.699 2.594-2.699zm-2.16 2.699c0 1.172 0.922 2.125 2.051 2.125s2.051-0.953 2.051-2.125-0.922-2.125-2.051-2.125-2.051 0.953-2.051 2.125zm3.598-0.11c0 0.813-0.613 1.477-1.367 1.477s-1.368-0.664-1.368-1.477c0-0.812 0.614-1.476 1.368-1.476s1.367 0.664 1.367 1.476z" fill-rule="evenodd" fill="#222"/>
<use xlink:href="#g" transform="matrix(-.9766 .2149 -.2149 -.9766 790.4 111.7)" height="1052.3622" width="744.09448" y="0" x="0"/>
<path d="m404.6 107.3c1.262 0.359 0.614 15.77 0.11 20.09-0.145 1.113-29.3 0.933-29.48-0.074-0.753-4.102-0.793-18.43 0.612-19.69 1.041-0.934 26.1-1.118 28.76-0.325z" fill="#e0e0e0"/>
<path fill="#222" d="m390.7 115.4c0.215-0.469 9.719-0.539 10.3-0.071 0.289 0.215 0.25 7.774-0.145 8.172-0.433 0.465-9.539 0.43-9.972 0.035-0.325-0.289-0.395-7.488-0.18-8.136"/>
<g id="b">
<path id="f" fill="#222" d="m383.3 110.4c0.105 0.109 0.105 3.277-0.074 3.457-0.18 0.215-4.176 0.18-4.391 0.035-0.144-0.144-0.18-3.168-0.07-3.457 0.105-0.18 4.281-0.215 4.535-0.035z"/>
<path d="m382.4 111.1c0.11 0.075 0.075 1.946-0.035 2.051-0.109 0.11-2.449 0.11-2.554 0-0.11-0.07-0.11-1.871-0.075-2.015 0.075-0.145 2.52-0.145 2.664-0.036z" fill="#00F"/>
</g>
<use id="e" xlink:href="#b" transform="translate(5.873 -.03968)" height="1052.3622" width="744.09448" y="0" x="0"/>
<use xlink:href="#b" transform="translate(12.06)" height="1052.3622" width="744.09448" y="0" x="0"/>
<g id="k">
<use xlink:href="#f" transform="translate(17.62 -.07937)" height="1052.3622" width="744.09448" y="0" x="0"/>
<path d="m400 111c0.07 0.035 0.07 1.946-0.035 2.051-0.11 0.109-2.485 0.109-2.594 0-0.07-0.07-0.109-1.871-0.035-2.016 0.035-0.144 2.519-0.144 2.664-0.035z" fill="#F00"/>
</g>
<use id="d" xlink:href="#e" transform="translate(-5.913 4.881)" height="1052.3622" width="744.09448" y="0" x="0"/>
<use xlink:href="#d" transform="translate(6.032 .03968)" height="1052.3622" width="744.09448" y="0" x="0"/>
<use id="c" xlink:href="#k" transform="translate(-17.58 9.921)" height="1052.3622" width="744.09448" y="0" x="0"/>
<use xlink:href="#c" transform="translate(5.992)" height="1052.3622" width="744.09448" y="0" x="0"/>
<path d="m400 116.1c0.215 0.179 0.215 6.191-0.105 6.551-0.363 0.359-7.633 0.324-7.957 0.035-0.289-0.25-0.36-6.012-0.145-6.516 0.145-0.394 7.739-0.43 8.207-0.07z" fill="#00F"/>
<path d="m403 154.8c1.727 0.9375 2.735 4.035 1.871 4.106-2.16 0.1445-8.531 0.1796-11.66-0.1094-0.578-0.0703-0.578-2.988 1.115-3.852 1.51-0.754 6.694-1.258 8.674-0.1446z" fill="#404040"/>
<path d="m386.5 154.6c1.727 0.9726 2.375 3.852 1.547 3.922-2.16 0.1445-9.574 0.3632-12.71 0.039-0.574-0.039 0.254-3.133 1.982-3.996 1.514-0.7579 7.202-1.047 9.182 0.0351z" fill="#404040"/>
<g id="j">
<path id="a" d="m379.4 129.6c0.4638-0.9182 6.767-0.7871 7.099 0.2642 0.3328 1.051 1.562 0.8738 1.67 2.782 0.1075 1.909-1.487 2.149-1.68 2.944-0.1925 0.7953-7.051 0.9013-7.234 0.0907-0.1836-0.8106-2.127-1.454-1.896-3.22 0.2311-1.765 1.577-1.944 2.041-2.862z" fill="#a1a1a1"/>
<use xlink:href="#a" transform="matrix(1 0 0 -1.072 .1587 283.3)" height="1052.3622" width="744.09448" y="0" x="0"/>
<use xlink:href="#a" transform="matrix(1 0 0 .9348 0 25.49)" height="1052.3622" width="744.09448" y="0" x="0"/>
</g>
<use xlink:href="#j" transform="matrix(-1 0 0 .9808 781.2 2.818)" height="1052.3622" width="744.09448" y="0" x="0"/>
</g>
<g id="id_banana">
<rect height="31.34" width="88.89" y="13.32" x="170.8" fill="none"/>
<path fill="#222" d="m181.1 26.27c14.36 0.641 27.17 3.891 37.39 1.988s11.11-4.129 16.4-5.93c4.102-1.402 7.773-1.951 11.59-2.779 1.474-0.8551 3.258-2.562 5.504-5.232l3.348-0.6836 4.211 2.27-1.582 1.762c-3.199 2.29-7.754 4.584-8.606 6.336-0.3512 5.206-5.77 13.14-12.64 15.27-11.99 3.958-26.36 6.744-39.5 4.141-8.61-1.391-12.51-4.863-16.71-10.19-2.16-2.734-1.98-1.941-3.672-2.805l0.5865-5.406c0.8725 0.6096 2.094 1.437 3.68 1.258z"/>
<path fill="#ff0" d="m181.5 27.21c13.02 1.946 23.14 2.565 32.36 2.414 9.217-0.1514 17.38-5.069 21.96-6.515s7.886-1.541 11.2-2.444c1.347-1.692 3.41-1.941 6.008-5.443l1.836 1.441-1.477 1.656 2.02-1.512 1.402 0.0351c-1.332 1.332-3.636 2.234-5.543 3.816-1.875 1.586-1.875 0.2149-2.988 2.09-1.082 1.906-0.106 3.151-1.254 5.921-3.068 7.75-10.01 9.433-14.71 11.12-9.163 3.264-31.87 6.066-42.21 0.4184-4.394-2.625-7.019-5.578-9.219-7.449-0.07-0.5039 0.1396-0.2976 0.04-0.793 12.11 5.764 20.84 6.341 33.43 5.067s19.54-3.649 30.07-8.813c0.25-0.5039-15.37 6.538-30.1 8.011-14.74 1.473-23.11-0.5634-33.55-4.842 0.3328-1.8 0.0339-2.433 0.725-4.178z"/>
<path fill="#804000" d="m177.7 30.16c0.6487 0.4493 1.173 0.7931 1.73 0.2891 0.5566-0.504 1.15-2.285 0.684-2.988-0.4665-0.7029-1.799-1.619-2.051-0.8632-0.252 0.756-1.011 3.113-0.3626 3.562z"/>
<path fill="#804000" d="m254.4 15.22c0.43 0.2891 1.836 1.371 2.375 0.8672 1.367-1.297-1.765-1.73-1.801-1.551-0.289 0.7931-1.437 0.1095-0.574 0.6837z"/>
</g>
<g id="id_scissors">
<g fill-rule="evenodd">
<path d="m73.8 42.23c-3.15 3.95-15.36 5.82-18.19-3.18s8.86-10.11 24.31-12.69c7.8-3.72 28.68-15.5 46.68-12.6l-42.19 15.38c-2.8 2.77-7.36 2.71-10.92 3.99-0.4 2.49 3.46 5.15 0.31 9.1zm-11.09-8.64c-3.95 1.893-3.415 5.112-0.96 7.203s9.11 0.724 9.923-2.343c0.8132-3.067-5.013-6.753-8.963-4.86z" fill="#222"/>
<path d="m59.66 42.66c-6.09-4.84-2.02-10 1.72-11.83 3.023-1.441 7.453-1.367 10.15-1.551l8.93-1.941c11.15-6.75 30.54-13.72 41.24-13.11l-37.87 13.86c0 0.6484-0.7578 0.9023-2.773 1.801-2.445 1.117-7.45 2.342-8.782 2.701 5.467 10.71-6.526 14.92-12.62 10.07zm-0.91-6.95c-1.404 3.677 2.091 8.27 7.968 7.174 5.878-1.096 8.276-6.247 3.746-9.324s-10.31-1.528-11.71 2.15z" fill="#a1a1a1"/>
<path d="m58.22 8.592c-4.98 2.938-7.46 14.3 10.68 15.75l10.44 1.656c10.57 7.572 30.82 12.71 39.49 13.39 6.371 0.504 6.805-0.1445 7.234-0.7929l-42.19-15.37c-2.384-2.347-7.816-3.059-11.36-4.373 1.176-1.612 4.05-5.516 1.471-8.564-2.61-3.052-10.82-4.631-15.8-1.698zm3.383 2.287c2.449-0.8708 6.518-0.9555 8.625 1.953 2.12 2.91-2.74 7.59-7.65 6.44s-3.41-7.52-0.96-8.39z" fill="#222"/>
<path d="m57.46 10.82c-3.496 5.289-1.059 8.569 3.353 10.71 4.412 2.143 11.59 1.98 14.76 2.629l4.539 1.117c0.1406 0.1054 1.078-1.801 1.367-1.371 0.2148 0.3594-0.7227 1.586-0.5782 1.656 11.58 7.316 32.49 13.84 41.8 12.89l-33.91-11.92c-0.6132 0.9726-0.7929 1.547-1.082 1.586-0.1445 0.0352-0.0703-1.047 0.3242-1.945l-4.824-1.91c0.03-0.61-0.76-0.9-2.74-1.8-2.45-1.12-7.93-2.7-9.23-3.07 9.65-11.44-10.29-13.87-13.78-8.58zm4.744 9.266c-2.77-1.12-5.91-4.3-3.27-7.97 2.64-3.676 9.68-3.914 12.75 0.92s-6.712 8.171-9.478 7.05z" fill="#a1a1a1"/>
</g>
<path fill="#222" d="m85.88 26.41c-0.02-0.19 0.05-0.84-0.59-1.02-0.65-0.18-1.05 0.11-1.41 0.43z"/>
<path fill="#222" d="m85.8 26.82c-0.1446 0.2324-0.609 0.736-1.254 0.5524-0.6485-0.2148-0.7438-0.6696-0.779-1.134z"/>
</g>
<g id="id_flower">
<path fill="#222" d="m220.4 165.3 6.59 0.5782c-0.504-5.723-0.9745-10.5-0.543-20.88s1.332-15.98 2.27-20.7c11.38-0.5937 13.7-5.95 11.27-15.88-5.901 1.406-8.99 5.993-10.59 11.24l5.364-26.43c0.039 4.934-1.981 7.922 0.613 10.4 2.555 2.524 8.137 1.946 9.793-1.258 1.656-3.242-1.586-8.136-2.699-12.17 2.554 2.809 3.453 6.84 6.84 6.481 3.347-0.359 6.8-4.789 5.937-7.992-0.863-3.242-5.937-3.133-10.22-5.078 5.293-0.106 8.387 2.304 11.23-0.934 2.883-3.203 1.008-10.69-1.801-12.31-2.769-1.657-4.82 2.265-9.14 5.039 2.664-4.5 5.937-7.778 4.64-11.63-1.293-3.887-7.09-5.508-10.01-3.168-2.949 2.379-1.906 6.914-1.761 12.06-1.043-6.086-2.125-10.76-5.653-12.39-3.562-1.618-7.633 2.054-8.531 6.445-0.902 4.39 3.273 6.84 6.984 9.828-4.214-1.547-8.211-2.914-10.94-1.078-2.734 1.836-2.844 6.621-0.574 8.89 2.301 2.266 6.297-0.468 10.22-0.324-4.25 2.41-8.387 2.305-9.29 5.903-0.898 3.636 2.485 8.211 5.149 9.039 2.629 0.863 5.184-3.856 6.551-7.094l-7.344 34.67c-1.362-13.11-5.863-17.9-16.83-15.53-0.6518 16.73 10.27 18.39 15.57 18.7-0.324 2.23-1.98 5.758-2.484 14.72s-0.434 14.15-0.614 20.84"/>
<path fill="#00c200" d="m227.6 116.2c-1.621 6.839-0.758 4.355-2.918 12.45-2.613-6.009-1.976-20.4-16.02-16.97-0.0263 11.77 3.797 15.43 16.14 17.37-2.762 9.023-3.312 16.71-2.988 35.06l3.852 0.1797c-0.4943-13.14-0.7928-24.64 2.304-40.65 11.1-1.172 12.45-2.949 11.3-14.08-7.463 2.022-7.722 8.71-11.3 13.25 2.086-11.62 3.887-21.06 6.047-30.31l-0.035-1.473-1.19 0.9006c-1.4 6.18-2.4 12.86-5.2 24.26z"/>
<path fill="#ff0" d="m243.2 79.48c1.8 3.24-0.6 8.2-5.2 8.2-4.567 0-7.044-4.844-4.875-8.991 2.169-4.146 8.241-2.446 10.07 0.7937z"/>
<g fill="#f00">
<path d="m232.6 61.9c-2.305-1.657-7.383 1.98-7.309 5.257 0.106 3.239 5.613 8.278 7.883 9.36 1.187-1.082 2.988-1.91 4.211-1.946 0-2.196-2.445-11.02-4.785-12.67z"/>
<path d="m221.4 75.86c-2.774 0.719-4.285 6.875-1.153 7.848 3.024 0.938 8.711-1.078 10.98-1.367-0.215-1.586 0.324-2.918 0.721-4.285-1.655-0.938-7.811-2.879-10.55-2.196z"/>
<path d="m221.6 89.54c-1.223 2.555 1.406 8.531 4.61 7.883 3.167-0.649 5.078-7.199 7.453-9.539-0.973-1.043-1.332-1.547-1.982-3.059-2.306 0.504-8.856 2.121-10.08 4.715z"/>
<path d="m236 102.2c1.118 2.629 7.524 2.41 8.028-0.793 0.469-2.949-1.981-10.4-3.781-12.31-1.473 0.364-2.161 0.504-3.707 0.2535-0.864 2.734-1.657 10.22-0.54 12.85z"/>
<path d="m248.5 95.56c2.09 0.504 6.949-3.528 5.402-6.371-1.476-2.664-6.914-3.457-9.398-4.285-0.574 1.152-1.223 2.234-2.121 3.058 1.008 2.16 3.777 7.059 6.117 7.598z"/>
<path d="m255 81.95c2.34-1.617 1.511-11.05-1.731-10.73-3.094 0.289-7.269 5.039-9.324 6.84 0.613 1.222 0.758 1.765 0.9035 3.638 2.412 0.506 7.814 1.873 10.15 0.252z"/>
<path d="m249 65.57c0.254-2.808-5.473-5.976-8.242-4.285-2.809 1.696-1.477 10.51-1.586 13.61 1.406 0.215 2.23 0.898 3.527 1.836 1.332-1.224 6.012-8.318 6.301-11.16z"/>
</g>
</g>
<g id="id_fish">
<rect height="67.11" width="111.6" y="90.19" x="41.07" fill="none"/>
<path fill="#222" d="m89.43 98.04c3.598-0.719 10.87-5.902 15.95-7.559 1.082 2.16 0.4996 7.821 1.797 9.332 13.47 3.777 17.62 10.79 21.93 19.4 5.475-8.648 8.929-15.28 20.77-18.22-3.528 8.922-14.01 27.79 2.594 45.25-8.559 2.8-22.67-7.382-24.19-14.55-7.417 35.59-60.58 30.81-72.7 3.484-4.08-20.9 12.5-35 33.83-37.06z"/>
<path fill="#c2ff80" d="m56.61 131.8c6.707 1.963 14.54 1.105 19.03-1.142-4.625 5.592-11.29 5.28-18.26 4.105 13.01 26.54 65.56 30.21 70.39-6.952 0.464 0.109 1.592 3.178 2.998 4.694-0.828-4.863-0.9835-7.717 0.0945-13.3-0.468 1.007-1.078 2.265-1.761 3.851-11.2-31.41-41.44-24.12-52.23-21.1-10.79 3.1-22.79 17.9-20.26 29.8z"/>
<g fill="#222">
<path d="m72.5 111.2c3.078 0 5.578 2.68 5.578 5.977s-2.5 5.977-5.578 5.977-5.578-2.68-5.578-5.977 2.5-5.977 5.578-5.977"/>
<path d="m84.49 108.8c3.892 11 5.223 27.86-1.297 40.07 6.936-12.61 8.578-23.44 1.297-40.07"/>
<path d="m87.62 110.9c4.255 10.52 2.608 28.4-1.297 36.15 5.81-13.06 7.484-25.31 1.297-36.15"/>
<path d="m103.2 113.2c2.305-0.398-1.797 4.102-1.332 8.531 3.576 7.405 1.64 5.702 0 11.02-1.008 3.562 2.02 9.289-0.141 7.883-2.199-1.403-7.193-4.553-8.705-9.99-2.153-7.565 2.346-14.6 10.18-17.44z"/>
</g>
<path d="m71.93 112.9c2.305 0 4.176 1.953 4.176 4.355 0 2.403-1.871 4.356-4.176 4.356s-4.176-1.953-4.176-4.356c0-2.402 1.871-4.355 4.176-4.355" fill="#FFF"/>
<path fill="#222" d="m69.95 117c0.6719 0 1.223 0.629 1.223 1.403 0 0.773-0.5508 1.402-1.223 1.402-0.6719 0-1.223-0.629-1.223-1.402 0-0.774 0.5507-1.403 1.223-1.403"/>
<g fill="#00c200">
<path d="m147.4 102.8c-26.74 16.38-15.75 39.26 1.754 42.99-16.16-17.99-1.754-42.99-1.754-42.99z"/>
<path d="m104.4 91.99c0.973 1.293 1.073 4.361 0.7478 7.205-4.1-0.5-10.05-0.66-12.73-0.837 2.655-1.509 8.452-5.075 11.98-6.368z"/>
<path d="m101.5 123.8c3.006 4.366 0.6196 4.478-0.5907 8.225s3.385 9.541-1.754 5.823c-5.138-3.718-8.492-14.48-0.4033-21.23 8.089-6.748-0.2585 2.815 2.748 7.181z"/>
</g>
</g>
<g id="id_key">
<rect height="44.89" width="117.6" y="204.9" x="37.58" fill="none"/>
<path fill="#222" d="m52.14 227.6c0.2147-20.27 28.71-32.89 40.03-8.973 1.077-3.493 5.551-2.266 4.985 1.142 16.83-1.384 33.55-0.9239 48.96-0.9173 3.986 2.356 8.296 6.65 8.66 7.893-1.237 0.6226-4.645 7.526-6.42 9.261-4.565-2.241-6.777-3.262-9.508-4.406-1.802 1.857-3.218 2.879-5.814 6.506-1.268-2.227-3.953-4.831-4.957-6.176-1.007 1.025-3.686 3.728-5.8 5.739-1.115-1.999-1.896-2.197-2.662-2.998-0.7103 0.5665-2.155 2.992-3.448 4.102-2.622-2.848-4.738-4.332-9.926-4.741-1.171 2.335-2.618 3.796-3.809 5.817-2.153-2.719-4.41-2.126-5.705-0.9979-1.929 3.071-4.311 0.9722-5.765 0.3051-14.87 18.85-39.04 8.713-38.82-11.56zm17.19-4.8c-3.487-1.808-7.286 2.116-6.807 5.121s2.561 4.046 5.555 3.281c2.994-0.7654 4.739-6.594 1.252-8.402z"/>
<path fill="#999" d="m53.68 227.6c-0.69-12.3 10.76-20.8 21.06-20.2 10.3 0.5376 14.29 7.866 16.97 14.17 0.8459-1.18 1.825-3.403 3.14-3.302 1.315 0.1012 1.114 0.6791 1.322 2.667 14.58-0.9549 35.28-0.798 48.86-0.7716 3.707 2.603 4.925 2.677 7.673 6.366-2.166 2.946-2.694 3.919-4.389 7.035-3.311-1.215-1.93-1.274-9.926-3.698 0 0-2.287 1.993-5.327 5.078-2.304-1.868-4.986-4.895-4.986-4.895s-3.939 2.861-5.54 4.336c-2.561-1.576-2.5-1.488-3.484-1.947-0.7624 0.9288-1.717 2.792-3.012 3.594-1.994-2.639-6.909-3.749-10.19-3.691-1.478 1.633-2.615 2.858-3.796 4.535-2.535-1.989-6.056-0.8198-6.056-0.8198-0.2773 3.515-4.276 3.482-4.89 0.0342-3.916 7.42-9.219 11.25-19.98 11.16-10.76-0.094-16.76-7.368-17.45-19.63zm7.701-2.085c-1.354 5.684 2.382 7.868 6.976 6.823s5.081-5.528 3.653-8.639c-1.428-3.11-9.275-3.869-10.63 1.815z"/>
<path fill="#222" d="m88.22 228.4c-0.01857-5.494-1.371-12.74-2.946-12.95-1.575-0.2123 0.8134 3.9 0.9728 12.8s-4.643 14.14-2.684 13.19c1.959-0.946 4.676-7.55 4.658-13.04zm4.423 5.635c-1.451 0.1127-1.408-10.89 0.1945-10.65 1.602 0.2389 1.257 10.54-0.1945 10.65zm55.52-6.239c0.0525 1.343-4.51 0.2928-23.61 0.9082s-24.86 1.581-24.88 0.5049c-0.02328-1.076 5.763-0.9249 25.63-1.628 19.87-0.7034 22.8-1.128 22.86 0.2152zm-48.64-2.791c-0.06275-2.402 2.21-1.298 22.4-1.953 20.19-0.6546 24.54-1.184 24.58 0.7235 0.0331 1.907-0.748 1.511-21.02 1.833-20.27 0.3218-25.89 1.8-25.96-0.6024z"/>
</g>
<g id="id_horse">
<rect height="73.46" width="82.24" y="186.5" x="186.1" fill="none"/>
<g>
<path d="m194.6 201c1.293-2.064 1.695-2.78 3.269-4.35-1.647-1.093-1.529-5.495 2.788-4.627 0.8756-1.533 1.079-2.464 2.147-5.181l1.609 3.298c1.134-0.6954 2.318-0.8046 3.076-0.5964 0.5276-1.226 1.33-1.95 2.072-2.782 0.1803 1.049 0.2142 2.156 0.5631 3.137 3.648 1.914 3.965 0.9736 6.013 5.24 0.8074 1.682 4.807 4.134 5.974 8.145 1.067 3.666 4.328 4.555 4.744 8.012 11.33 4.254 23.15-9.681 32.28 3.364 4.077 3.114 1.504 14.81 9.065 20.08-2.77 1.942-9.581-1.633-8.526-14.26-1.062 8.177-4.658 11.05-3.781 15.43-1.707 3.74-2.229 12.71-0.724 19.77-1.164 0.726-1.967 0.5798-2.976 0.6435l0.5631 2.896c-2.658 0.2879-5.118 0.8079-6.757 0.0805 2.181-7.657 1.334-15.84 3.129-21.64-2.653-1.272-4.302-4.096-5.14-6.978-9.048 2.961-13.81 1.706-20.43 0.724-0.456 3.88 0.0212 17.26 0.0296 20.4 0.002 0.7951 0.5365 2.101-0.008 3.459-0.8493 0.2598-1.581 0.1772-2.355 0.1746 0.4803 1.26 0.3951 2.52 0.2413 3.781-2.421 0.0947-4.599 0.4663-7.722-0.2413 0.262-1.367 1.36-2.735 2.574-4.102 0.2896-18.1-5.039-23.05-5.872-35.21-1.517-4.486-3.131-8.062-4.362-13.4-2.708 1.713-4.084 1.613-6.888 2.589-4.079 3.946-8.36-0.854-7.573-4.87-0.6201-1.728 0.1118-2.839 2.976-2.976z" fill="#222"/>
<path d="m209.1 188.4c-0.9923 0.7621-1.504 2.02-2.122 3.231-0.6766-0.089-1.485-0.1259-2.502-0.0633-0.4726-0.7475-1.062-1.528-1.489-2.597-0.4533 1.178-0.8311 2.419-1.458 3.681 3.971-1.013 4.195 2.651 3.38 4.193-0.8143 1.542-4.139 2.851-5.28-0.5766-2.844 2.206-2.864 3.625-4.533 5.496-2.732-0.0492-2.973 1.172-2.595 2.327-0.1537 6.731 6.268 7.263 9.344-1.121 0.0792 1.478-0.029 2.964-1.299 4.593 5.167-1.414 8.17-3.509 9.185-6.335-0.3766 2.533-1.434 3.295-2.724 4.529 2.56 8.084 3.025 6.435 5.18 13.84-0.3534 3.442 5.564 19.31 5.443 34.9l2.206 0.025c0.3817-9.416-0.7101-24.77 2.882-30.3-0.3777 1.718-0.7693 3.107-0.8301 4.746 7.259 2.299 15.23 2.697 21.97 0.4626-0.0225-3.104 0.1454-3.341 0.4309-4.448 0.3791 4.835 1.239 9.42 5.955 12.16-1.436 5.441-1.889 13.95-2.135 17.82 1.022 0.0444 1.85 0.4155 3.117 0.2144-0.3462-8.26 1.594-18.74 2.546-20.66 1.454-5.762 8.491-15.18 2.241-21.76-6.726-7.091-18.04 2.217-28.73 0.1892-8.474-2.58-12.57-15.54-17.7-20.46-0.4901-0.9508-0.4886-2.631-0.4751-4.086zm-13.27 15.01c0.4681-0.0682 0.9872 0.1734 1.52 0.6335-0.0495 0.5602-0.0936 1.149-1.14 0.6018-0.6466 0.7686-1.247 0.6815-1.704-0.1422 0.3817-0.7701 0.8557-1.025 1.324-1.093z" fill="#a05a2c"/>
<path d="m199.3 195-0.9297 1.113c-2.127-1.738 0.4196-4.927 2.275-3.356l-0.9101 1.586c-0.1872-0.8763-1.01-0.7368-1.213-0.3325-0.2031 0.4044-0.0875 1.188 0.7779 0.9898z" fill="#fff"/>
<path d="m200.3 194.4c-0.7013 1.335 0.9416 3.898 2.787 3.167 1.846-0.7306 1.943-3.361 0.6651-4.149-1.278-0.7877-2.751-0.3528-3.452 0.9819zm3.088 0.5384c0.3827 0.2162 0.3431 0.9609-0.19 1.172-0.5331 0.211-1.115-0.4349-0.8235-0.9185 0.2914-0.4836 0.6308-0.4696 1.014-0.2534z" fill="#fff"/>
<path d="m221.7 231 1.144 0.1792c-0.3947 5.577-0.3279 14.66-0.1338 20.23l-1.591-0.0887c0.0236-5.939 0.099-15.31 0.5805-20.33z" fill="#784421"/>
<path d="m254.8 235.7c-1.789 7.395-1.163 13.14-1.199 16.67l-1.172 0.1102c0.0263-6.546 1.632-15.23 2.371-16.78z" fill="#784421"/>
</g>
</g>
<g id="id_dog">
<rect height="76.08" width="91.21" y="183.4" x="272.2" fill="none"/>
<g>
<path d="m286.7 209.7c0.3432-0.5337 9.694-0.6412 9.694-0.6412-2.421-1.235-0.4294-6.78 2.547-5.908 0.6127-1.048 0.5482-2.055-0.7364-3.103-1.098 0.9972-4.377 2.096-4.546 1.74-0.1691-0.3562 4.939-6.51 4.939-6.51 1.916 1.374 4.049 2.669 4.602 4.546 2.081-0.5036 4.62 0.1544 5.219 0.8979 2.181-1.246 4.376-2.491 7.801-3.592 1.782 1.628 5.168 9.6 4.686 10.35-0.4823 0.7542-5.865-4.405-5.865-4.405l-1.627 2.133c0.0633 0.717 2.368 7.677 3.089 9.38 0.1483-0.1146 0.2048-0.2858 0.3843-0.3364 0.6423 0.4405 2.547 2.479 3.117 3.568-0.067 0.1721-0.1515 0.1973-0.3612 0.5764 18.49 10.53 21.85 22.31 23.33 34.18 14.58-2.299 13.93-14.12 11.63-24.02 3.208 1.727 8.232 4.349 6.566 6.847-1.666 2.497 4.029 2.999 1.403 6.285s-0.2445 7.764-1.627 9.989c-1.383 2.225-8.701 4.964-17.93 5.083-0.7266 1.356-1.892 2.049-2.988 2.591-7.731 0.2327-15.94 0.0421-25.18 0.014-0.5123-1.54-3.058-7.238 9.148-6.454-6.019-3.261-7.082-5.744-8.481-7.994-1.932 3.578-1.759 11.77-1.93 11.92-0.1707 0.1478-1.76 0.2954-2.08 0.2245-0.0233 0.7811 0.0243 2.01-0.5283 2.262-3.417 0.01-8.249 0.2993-9.761 0s-1.104-6.232 5.13-6.976c1.191-8.531 3.012-17.11 1.515-26.24 0 0-1.187 0.085-1.403-0.0281-0.2159-0.1131-0.6536-2.326-0.7576-3.648l1.094-0.477c-2.112-0.9408-4.391 1.164-5.535 0.9787-1.144-0.1856-0.8983-0.6236-0.9184-1.287-1.762 1.03-4.365 0.7107-5.563 0.1848-3.62 0.5234-5.727-1.274-6.473-5.724-2.432-0.2776-1.945-5.88-1.601-6.414z" fill="#222"/>
<path d="m291.5 210.1 7.064-0.1984c3.136 3.259 6.023 0.583 7.014-0.7851 1.66-0.1447 10.69-2.388 2.907 12.39-3.22-1.994-8.136 2.275-7.659-0.0793 4.26-1.998 6.314-5.694 7.748-9.157 0.2013-0.0736 0.9668 0.3364 1.498 0.5456-0.6979-1.359-2.377-1.503-3.849-1.032 0.5853 0.0871 1.171 0.0604 1.756 0.2679-1.35 5.964-12.55 15.07-16.4 4.931 0.1819 2.498 0.9184 3.052 1.627 4.097-2.176 0.1991-3.723-1.532-4.405-5.04 2.004-0.4259 2.349-3.657 2.698-5.943z" fill="#d4aa00"/>
<path d="m316.2 238.4c3.483 2.439 4.051 3.79 4.608 6.283 0.1282 4.05 2.155 5.946 3.768 8.041-3.079-2.01-7.314-4.364-9.54-10.94z" fill="#d4aa00"/>
</g>
<g fill="#540">
<path d="m295.3 200.7c1.048-1.474 2.246-2.978 3.479-4.49 1.484 1.187 2.991 2.215 3.76 4.546 1.648-0.7603 4.363-0.0762 6.173 0.954 1.898-1.155 2.916-2.103 7.183-3.816 0 0 4.097 8.53 4.041 8.306-0.0561-0.2245-6.173-5.893-6.173-5.893l-4.097 2.525c1.496-0.047 3.195 0.5505 4.714-0.6173l-2.109 3.156c1.143 3.229 2.209 6.955 3.807 9.993-1.9 3.158-4.456 4.352-6.131 5.202 2.557-5.572 6.408-13.58-4.097-12.4 1.24-2.905-2.031-6.682-5.591-4.265-0.4044-0.4001-0.5352-0.487-0.9024-0.6668 1.337-1.646-0.7214-3.421-0.9706-5.282l-0.3928 1.627c-1.232 0.7782-2.172 1.204-2.694 1.122z"/>
<path d="m319.4 218.8c23.04 15.09 22.39 33.23 22.95 37.51-0.5688 1.556-2.306 2.416-3.914 2.251 0.1329-0.5176 0.8871-3.094-4.272-9.851 1.359 3.589 4.681 7.369 2.918 9.821l-17.47-0.0281c-0.4331-0.5475-0.6137-1.232-0.484-2.034-0.3994 0.7209-0.4748 1.316-0.2175 1.964l-1.256-0.028c-0.2222-0.5599-0.5467-1.307-0.47-2.315-0.6157 1.115-0.4391 1.664-0.484 2.28l-1.34-0.007c-1.703-5.209 4.042-5.611 14.14-3.648-12.13-5.668-9.19-19.16 2.75-17.51-7.029-1.438-10.77 1.869-11.36 5.836-0.5241-1.753-2.691-4.296-4.441-5.288 0.1172-0.51 0.3772-1.542 0.4286-2.639-6.151 12.56-6.565 22.28-6.847 23.36l-4.56 0.0702c-0.3491-0.6599-0.1082-1.27-0.0421-1.894-0.5226 0.7634-0.5215 1.309-0.6173 1.894l-1.361 0.0421c-0.4363-0.5875-0.2574-1.544-0.1543-2.455-0.7363 0.9704-0.7839 1.7-0.7857 2.413-2.592-0.5366-0.1273-4.909 4.153-5.177 2.606-8.13 3.676-23.19 2.141-27.38 0 0 7.129-2.837 10.6-7.188z"/>
<path d="m343.1 253.4c8.33-1.636 17.71-5.623 12.74-23.37 0 0 6.261 2.663 4.77 5.219-1.491 2.557 3.559 3.325 1.01 6.566s0.449 7.352-2.469 10.33c-2.918 2.974-16.05 3.985-16.05 3.985z"/>
</g>
<g>
<path d="m302.1 203.9c-2.509 0.2771-4.546 4.186-2.312 6.038 2.233 1.851 5.232-0.5702 5.488-2.403 0.2562-1.833-0.6664-3.912-3.175-3.635zm0.4675 2.503c1.087-0.0687 1.587 0.9113 1.428 1.651-0.1586 0.7399-1.357 1.492-2.25 0.7513-0.893-0.7402-0.2653-2.334 0.8221-2.402z" fill="#fff"/>
<path d="m299.7 204.4c-0.4846 0.5317-0.7765 0.9024-0.9918 1.403-0.1171-0.7641-1.207-0.6947-1.592 0.0463-0.3855 0.7411-0.042 1.796 1.006 1.625-0.0514 0.6769 0.0746 1.488 0.0746 1.488-4.272 0.0717-1.574-7.7 1.504-4.562z" fill="#fff"/>
<path d="m315.3 244.3c-1.04 2.358-2.135 4.415-2.301 11.87l-1.447-0.0678c0.1243-3.703 2.515-12.21 3.046-13.51z" fill="#2b2200"/>
</g>
</g>
<g id="id_cat">
<rect height="77.35" width="93.12" y="184" x="374.4" fill="none"/>
<g>
<path d="m391.4 212.8c3.76-2.53 4.882-3.994 6.005-5.668-0.8108-1.468 0.0215-4.24 2.501-5.053-0.1394-2.193 0.0335-4.773 0.6422-7.265 2.656 0.7109 4.452 2.479 5.836 5.808 0.4019-0.4723 0.4908-0.8924 1.291-1.431-0.0162 0.7783 0.1239 1.087 0.2525 1.431 0.0588-0.3805 0.1609-0.7741 0.954-1.375 0.1127 0.5566-0.2741 0.9734 0.5331 1.599 0.2888-0.4339 0.5515-0.8606 1.235-1.403 0.0547 0.7008 0.1709 1.299 0.449 1.627 3.11-2.863 5.981-4.732 8.642-5.724-1.589 5.109-0.4616 9.334-1.908 12.12 1.813 1.628 3.458 3.312 4.602 5.163-0.8321 0.5961-1.041 0.9229-1.431 1.375 0.8605 0.0415 1.872 1.176 2.357 1.88-0.926 1.403-1.719 2.14-2.497 2.806 2.744 4.521 9.537 0.0541 18.11 8.132 8.572 8.078 1.988 27.4 14.78 25.09 12.79-2.312 3.851-19.02 10.05-21.16 6.195-2.142 4.452 20.47-3.956 25.87-8.408 5.398-15.69 2.595-17.27 1.53-0.1844 0.4848 0.4088 1.349-1.836 2.146-2.245 0.7976-23.34 1.21-24.97 0.5331-1.636-0.6768-2.021-1.597-1.833-2.849-0.6288-0.8564-1.346-1.787-0.4672-2.621 0.9164-0.8694 1.758-1.085 4.354-1.411-1.611-0.73-2.925-1.665-3.372-2.834-2.071-0.8514-2.681-1.389-4.075-2.067-0.4262 3.403-0.3946 6.218-0.4732 9.174 0.3023 1.021 0.4358 3.055-4.273 3.025-4.709-0.0295-4.103-1.231-4.752-2.263-0.8134 0.3822-2.868 0.3474-3.574-0.5854-0.1004-2.45 0.4439-4.434 2.886-4.64l-0.3431-11.23c-3.653-3.491-7.029-11.7-1.126-21.08-2.768-1.295-3.064-3.287-7.42-4.677l1.964-2.301s-0.5654-1.181-1.852-1.684z" fill="#222"/>
<path d="m417.8 196.8c-2.298 1.727-4.768 3.044-6.781 5.438-2.482-1.181-6.211-1.062-8.547 0.375 0.1602 0.1145 0.8572 0.5045 1.236 1.151 3.462-3.62 7.982 0.3545 6.685 3.974-1.245 3.474-5.849 4.128-7.75 0.9062-2.374 0.8505-3.662 0.3764-4.562-0.5625-1.477 1.884-3.265 3.394-5.156 4.781l1.594 2.031-1.312 1.562c4.84 2.972 4.347 5.284 13.88 6.188-3.511 0.4027-5.416 0.1422-7.656-0.8438-5.278 12.51-0.9878 17.79 4.036 21.93l-0.3482-8.489c1.88 8.484 1.378 14.14 1.281 19.75-1.289-0.141-3.412 4.258-1.188 4.812-0.5452-0.6395-0.0136-2.107 0.0473-2.137-0.0197 1.579 0.3606 2.396 1.039 2.378-0.0103-1.017 0.1374-1.382 0.4946-1.979-0.5986 1.656 0.2932 2.303 0.9268 2.13 1.044 0.1095 1.879-0.1583 3.274-0.8917-0.2192-10.25 1.757-18.44 3.188-21.34l-1.719 9.75c2.285 1.857 5.811 3.261 8.719 4.752-3.089-3.241-2.452-9.174 5.625-11.1-11.89 5.158-5.814 13.89 4.188 14.34-7.64-0.2568-16.47 0.1363-13.44 4.031-0.0832-0.0747-0.0555-1.188 0.9688-1.906-0.403 0.512-1.203 2.179 0.3281 2.594-0.2461-0.4932-0.0771-1.909 1.172-2.438-0.4429 0.4455-1.246 1.655-0.5781 2.547 7.579-0.3439 21.66-0.2964 22.81-0.7848 1.152-0.4883 2.511-2.284-1.318-4.944 5.083 3.246 8.832 5.302 17.24 2.744 11.14-3.388 12.9-27.03 7.969-26.38-4.93 0.6514 3.412 19.45-10.34 21.62-13.76 2.177-8.204-15.59-15.06-24.31-6.859-8.723-14.95-4.309-18.47-9.062-1.476 0.8005-2.628 1.527-3.938 2.281 2.132-1.774 3.699-2.355 5.594-5.312-0.4124-0.7107-0.9757-1.709-2.438-2l1.469-2.031c-2.201-3.27-4.382-3.773-6.844-7.344 1.159-2.622 1.932-5.896 3.688-8.219zm-16.59-1.312c0.8696 1.655 2.153 4.214 2.125 5.844 0.7035-0.2003 1.264-0.4723 2.438-0.4375-1.179-2.358-2.099-3.983-4.562-5.406z" fill="#deaa87"/>
<path d="m414.9 204.7c0.3518 0.6672 1.453 1.619 2.359 2.289 1.19-2.639 0.2201-5.543 1.461-10.51-0.898 1.154-1.853 3.034-3.82 8.219zm-14.07-8.319c0.918 0.8938 1.539 3.15 2.055 5.193-0.5177 0.2362-0.7148 0.3923-1.016 0.5745-0.6387-0.1791-0.8679-0.179-1.193-0.221-0.0851-1.434-0.4545-2.644 0.1547-5.546zm15.08 55.24c3.605 1.756 4.64 2.177 6.85 3.214-6.473 0.1979-6.972 1.354-8.284 1.906-0.2058-1.284 1.54-2.045 5.8-2.378-2.589-1.274-4.069-2.068-4.365-2.741zm-14.8-8.1c0.9541 0.8906 0.2741 0.4688 2.047 1.672l-0.0469 8.641c-1.56 0.787-1.964 1.998-2.297 3.234-1.012 0.6805-0.9178 0.1878-1.781 0.2656-0.4745-1.871 0.9877-2.364 1.891-2.5z" fill="#c87137"/>
<path d="m398.5 210.3c1.274-0.0495 2.62 0.0174 4.265 0.5612-0.742 1.994-1.571 3.051-2.207 3.793l-0.206 1.51c6.956 4.037 9.297-2.409 8.446-3.676 2.729 1.713-2.803 9.116-8.783 4.013-3.295 3.696-9.88-2.722-3.059-6.398-4.237 2.396-1.938 9.418 2.723 6.004 0.1272-0.7431-0.1148-1.322-0.0999-1.541-0.6267-1.235-0.9014-2.583-1.079-4.267z" fill="#222"/>
<path fill="#fff" d="m403.3 204.2c-0.3616 0.5036-0.6725 0.9893-0.8388 1.693 0.0787-1.636-2.027-1.619-2.188-0.1769-0.161 1.443 1.654 1.764 2.116 0.698-0.0514 0.6769 0.0772 1.31 0.0772 1.31-3.201 2.052-5.148-1.022-4.284-3.167 0.8647-2.145 3.605-2.697 5.118-0.3566zm2.902-1.108c-2.509 0.2771-4.373 4.305-2.094 6.1 2.827 2.226 5.607-0.0389 5.863-2.466 0.1943-1.84-1.26-3.912-3.769-3.635zm0.8425 2.316c1.087-0.0687 1.587 0.9113 1.428 1.651-0.1586 0.7399-1.357 1.492-2.25 0.7513-0.893-0.7402-0.2653-2.334 0.8221-2.402z"/>
<path fill="#222" d="m396.4 215.3c-3.612 0.6786-5.02 2.475-6.385 4.388 2.977-3.348 5.08-3.278 6.511-3.651 0.4679-0.5075 0.3246-0.6377-0.1262-0.7375zm-0.6025-1.953c-5.881 0.0222-7.135 0.7295-9.077 2.478 3.409-2.381 6.707-1.825 8.94-1.645 0.6867-0.369 0.5819-0.561 0.1374-0.8338zm0.4257-1.624c-6.009-2.093-7.791-0.3804-9.415 0.7531 1.284-0.5076 4.056-2.485 9.043 0.006 0.764-0.1555 0.7189-0.3695 0.3719-0.7589zm10.55 4.212c4.425 1.179 5.708 2.85 7.228 5.107-2.977-3.348-4.674-3.59-7.355-4.369-0.4679-0.5075-0.3246-0.6377 0.1262-0.7375zm0.5712-1.734c5.881 0.0222 7.635 0.7295 10.26 2.853-4.19-2.6-7.114-2.169-10.13-2.02-0.6867-0.369-0.5819-0.561-0.1374-0.8338zm-0.0507-1.531c6.009-2.093 8.304-0.9612 12.02 0.7973-3.347-1.008-6.664-2.529-11.65-0.0385-0.764-0.1555-0.7189-0.3695-0.3719-0.7589z"/>
</g>
</g>
<g id="id_camel">
<rect height="74.25" width="87.17" y="187.2" x="480.8" fill="none"/>
<path d="m498.2 187.7c0.8 1.8 1.9 3.2 2.9 4-2.4-1.6-4.4 0.9-3.3 2.8-1.5 1.2-7 1.5-6.8 4.3-5.1 2.8-3.3 7.5-1.3 6.3 1 1.1 1.9 2.2 4.3 0.5 0.2 3 3 1.7 3.9-0.3 1.2-0.4 2.4-0.8 3.2-1.6 2.8 10.1-2.6 23.9 14.1 24.1 0.5 5 1.8 5.5 2.8 9.6-1.4 2-1.1 4.8 0.5 6.4-0.1 0.9 1.3 6.9 0.3 10-0.6 1.8-2.8 1.6-4.3 3.9 0.4 0.5 0.5 0.6 1.6 0.6-1.4 0.2-2.5 1.3-2.5 1.8 0.9 0.9 3.4 2.3 12.1 0.4 0 0-0.9-5.4-0.9-8.3s0.3-6 0.5-7.7c1-1.6 1.3-4.9 0.3-6.7 0-4.2 0.7-5.7 2.2-9.6 3.4 0.4 6.9 0.9 11.2-0.2 0.5 4.8 4.7 12.4 5.7 14.5 0.6 1.4-2.4 7.5-5 12.6-3.8 1.6-3.8 2.9-4 3.7 2.1 0.9 2.6 0.6 4.7 0.7-1.1 2.2 4.6 1.5 10.5 0.8 0.2-2.1-0.3-6.9 0.5-10.5s3-6.1 3.2-8.2-2.6-7.3-2.5-9.3c0.2-3 2.8-8 4.1-12.3 0.5 1 1.6 2.2 4 3.2 3.1 2.2 4.3 0.1 7.6-0.6-2.8 0.1-5.8-3-7.3-1-2.9-1-3.5-3.4-3.6-5.1-0.1-6-4.1-8-7.7-11.5-0.8-0.8-1.7-2.7-2.7-4.4-1-1.6-2.3-3.1-3.8-3.2s-2.3 1.7-3.1 3.4c-0.7 1.8-1.5 3.6-3 3.6-1.6 0-2-1.7-2.7-3.3-0.6-1.6-1.4-3.2-3.8-3.3-2.3-0.1-4.2 2.9-6.3 6s-4.5 6.3-7.8 6.5c-6.8 0.5-5.5-15.3-5.5-15.3 4.8 0.8 3.2-2.3 7.4-4.9-8.3 0.5-6.8 0.7-9.2 1l-0.4-2.2s-0.4 1-0.9 1.2c-0.4-1.4-0.7-2.1-0.7-2.1s-0.4 1.5-1 1.7c-0.6-1.4-2-2-2-2 0.3 0.8 0.5 1.3 0.1 2.1-1.3-1.2-3.6-1.7-5.6-2.1zm49.9 57.2c-0.1 2.7-0.8 5.6-1.7 9.4-0.6 0.5-1.5 1.6-1.9 1.6 1.6-5.9 2.1-6.3 3.6-11z" fill="#222"/>
<g fill="#7d5a1a">
<path d="m508.6 192.3c1.8-0.8 4.5-1.2 7.4-1.6-2.2 2.7-3.5 4.4-6.6 3.4 0 0-2.2 14.4 4.1 17.6 5.1 0.9 8-2.3 10.2-5.6 2.3-3.3 4-6.8 6.7-6.6 1.5 0.1 2.3 1.6 3.1 3.1 0.7 1.5 1.5 3 3.1 3 1.9 0.2 2.8-1.7 3.6-3.6s1.5-3.8 3.1-3.5c1 0.2 1.9 1.6 2.9 3.2s1.9 3.5 2.9 4.9c2.1 2.7 5.8 3.7 6.6 8.1 1 5.4-4.7 12-4.8 17.6-0.1 3.9 4.1 8.4 2 10.9-2.9 3.6-3.2 10.5-3 15.7-1.7 0.4-5.2 1.3-7.3 1 1.2-1.2 0.8-1 2-1.7-1.3 0.3-1.1 0.5-2.6 1 1.1-1.6 4.4-2.4 5.3-4.5s2.2-12 2-12.5c-1.6-4.1-5-8.8-5.6-10.7-2.1-6.9-2.3-14.5-2.3-14.5-0.5 3.1-0.8 5.9-0.2 9-4.8 1.9-9.2 1.8-13.2 1 0.5-1.8 0.3-3.6 0.5-5.5-2.8 10.5-3.8 10.4-3.8 16.5 0.9 2.1 0.2 4.9-0.4 6-0.6 5.4-0.6 9.6 0.4 15.1-3.4 1.3-5.1 1.1-8.3 1 1.2-0.8 1.5-1 2.4-1.2-1.1-0.1-1.5 0.2-2.9 0.5 1.8-0.9 3.9-1.5 4.8-3.8 0.6-1.4 0.9-10.9 0.9-10.9-1.2-2.4-1.2-4.1-0.1-6.6-2.7-5.9-3.5-10.8-4.3-17.2-0.1 2-0.5 3.1-0.5 5-15.9-0.4-10.7-8.3-14.3-23.1 0.8-0.9 1-1.3 1.7-2-3.5 2.3-6.1 2.9-8 5.4-0.6 0.1-1.2 0.1-1.2-0.9 4.2-2.5 4.8-3.9 4.8-5.2-2.1 3.3-5.5 3.9-7.5 5.3-3-0.2-2-3.2-0.5-4.6-2.6 1.4-2 2.3-2.6 3.4-0.8-1.3-0.6-3.8 2.5-4.8-0.9-1.6 2.7-3.1 6.8-4.4 0.5 0.4 1 0.4 1.7 0.2 1.3 2.4 4.1 1.6 4.7 0 0.8-2-1.1-3.7-2.9-3.2 0.7-0.7 1.1-1.1 2.5-1.5 1.9-0.5 3.4 0.5 4.2 1.8z"/>
<path d="m560.9 222.4c0.8499-1.191 2.578-0.151 4.315 0.2635-2.251 0.9398-3.163 1.043-4.315-0.2635z"/>
<path d="m499.5 188.6c1.1 0.4327 1.783 0.3595 3.472 1.506-0.4804 0.2931-0.9703 0.5815-1.234 0.983-1.158-0.7145-1.616-1.614-2.238-2.489z"/>
</g>
<g>
<path d="m492.9 199.5c1.1-0.1 2.7-1.2 2.7-1.2-0.7 1.6-1.6 1.7-2.7 1.2z" fill="#222"/>
<path d="m500.8 192.5c-0.2 0.3-0.4 0.5-0.6 0.9 0.2-0.8-0.9-0.8-1-0.2-0.2 0.7 0.6 1 0.9 0.5-0.1 0.4-0.1 0.8-0.1 0.8-1.4 0.8-2.3-0.8-1.7-1.9 0.5-1 1.9-1.1 2.5-0.1zm1.7 0c-1.3 0-2.4 1.9-1.4 3 1.3 1.3 2.9 0.4 3.2-0.9 0.2-0.9-0.5-2.1-1.8-2.1zm0.3 1.1c0.5 0.1 0.7 0.6 0.6 1-0.1 0.3-0.8 0.6-1.2 0.2s0-1.2 0.6-1.2z" fill="#fff"/>
<path d="m540 227.7c0.6-0.2 1.4-0.6 1.4-0.6 2.1 8.6 2.3 6.3 6.5 14.8-1.7 5.5-3.4 10.9-4.9 14.5-1.7 1.9-3 1.8-5 2 0.1-0.5 0.6-0.8 1-1.1-0.7 0.1-1.3 0.5-2 0.9 0.8-0.7 0.6-1.3 3.5-2.6 0 0 6.2-11.6 5.4-13.2-0.9-1.6-5.8-11.3-5.9-14.7z" fill="#3e2e1f"/>
<path d="m516.3 227.8h0.6c0.8 4.7 2.1 7 3.5 10.3-1 1.5-0.8 4.2 0.2 7.4-0.4 3.4 1.6 10-3.1 12.2h-1.3l0.6-0.6-1 0.3c0.9-1.2 2.9-1.5 3.8-3.1 0.5-3.7 0.3-9.3-0.5-11.3-1.6-1.8-1.1-3.8 0.1-5.4-1.4-4-3-7.2-2.9-9.8z" fill="#3e2e1f"/>
</g>
</g>
<g id="id_crocodile">
<rect height="52.47" width="128.5" y="298.7" x="41.12" fill="none"/>
<path d="m49.73 336.7c-8.919-4.81 0.3118-12.94 8.889-9.365 3.352-0.168 8.718-0.7428 12.55-1.308-1.904-3.938 3.28-8.359 7.081-4.957 1.935-1.02 4.007-0.9008 5.721 0.6446 2.28-0.7256 4.988 0.3793 9.554 0.8305 6.303 0.0132 10.1-3.075 16.63-1.607 2.973 0.6687 4.311-2.083 9.642-0.3311 5.33 1.752 8.121-0.5614 12.1 1.76 3.983 2.321 7.374 4.284 17.51 4.546-3.903-2.334-7.444-5.977-8.024-9.575 2.809 6.202 17.76 2.536 27.39 9.441 0.7642 2.497-0.0245 5.798-0.1468 7.849-2.816 4.309-9.284 10.24-26.83 9.214 2.306 1.91-2.706 5.68-13.49 6.667 1.843-2.573-1.002-2.046-4.048-0.9524 1.376-3.595-1.438-2.704-5.198-0.9127 0.2342-0.9051 0.9436-1.86 2.024-2.976-4.264 0.5423-8.446 0.2513-11.67-0.3968-7.53 6.517-7.502 3.021-11.27 5.873-0.444-0.8948 2.107-3.986-4.127-0.6349 2.429-4.508-3.312-1.701-3.968-0.873 0.3515-1.316 0.7173-2.736 2.302-5.079-6.809 0.2984-46.67 2.456-42.62-7.857z" fill="#222"/>
<path d="m144.6 321.1c0.8292 1.703 4.079 3.951 7.124 5.802 1.367 0.1301 2.976 0.0361 4.554-0.2555-0.5749-0.9002-2.095-1.414-3.903-2.441 1.234 0.3344 3.608 0.4691 6.748 2.711-4.424 2.828-13.61 0.6669-19.19 0.875-15.49-7.942-38-6.297-46.03-2.062-2.242-1.937-7.527-3.551-9.125-2.719 1.931 5.413-6.143 9.602-8.906 3.562-3.856 0.4145-11.96 1.974-16.66 2.469-0.3031 1.857-1.06 2.549-1.656 2.719 0.1731-5.867-7.69-3.437-8.433-1.006-0.4301 1.408-1.236 4.518 6.933 4.568 4.942 0.0306 5.51 1.506 13.31-0.5625-0.1441-0.9104 0.1753-2.203 0.4062-3.469 1.511 0.9557 2.83 2.358 3.312 3.094 6.806 1.471 14.14-1.108 17-5-1.622 3.909-3.852 4.491-7.219 6.094-0.8201 2.59-2.211 3.476-3.031 3.969l-0.2812-2.75c-1.595 0.3435-5.61-0.5621-8.688-0.4688-3.077 0.0934-5.207 1.403-8.562 1.312-0.9059 0.9238-1.391 1.654-2.312 2.625l-0.9375-3.094c-4.791-0.6781-4.987 0.077-7.031 0.25 0.2279 5.985 25.73 5.949 31.59 5.5 5.859-0.4486 7.656-5.594 7.656-5.594s-1.353 4.061-1.125 4.281c0.7561 0.731 6.045 0.0645 5.875-0.2188-3.067-2.047-3.125-5.162-2.893-8.177 1.224 6.356 4.404 7.58 8.612 8.552-7.243 0.6559-6.984 3.451-8.5 4.781 1.141-0.5866 4.34-2.387 3.75 0.8125 5.31-1.733 4.219 0.2542 4.002 1.122 3.312-0.7856 5.043-3.209 7.133-4.405-0.5145-5.036-2.957-7.945-5.261-10.81 3.98 2.772 5.326 5.75 7.219 10.19 6.16 1.626 13.63 0.6524 16.16-0.25-2.64-2.422-3.222-9.284 2.812-12.06-5.654 6.117-3.424 11.31 2.531 12.94-4.273-0.7122-6.565 0.6377-9.281 2.219 5.956-2.281 4.324 1.313 4.324 1.313 4.911-1.794 5.176 0.0351 4.486 1.223 1.936-0.005 5.95-0.7892 8.817-3.793-1.409-1.788-4.569-3.463-8.064-5.4 6.854 3.154 7.051-0.8634 7.454-4.432 0.1673 2.402 0.4145 4.697-1.235 6.401 5.81 1.444 30.43 1.53 29.95-13.07-9.691 7.725-20.42 3.649-28.33 3.027 9.734-0.3287 20.92 2.95 27.9-4.423-5.514-3.755-14.31-3.336-23.01-5.945zm-29.76 7.129c3.316 0.047 6.703 0.4482 9.188 1.062-7.085-0.2598-12.55-0.2375-17.94-0.0937 2.188-0.7112 5.434-1.016 8.75-0.9688zm-59.16 2.281c0.3007 0.8275-1.703 2.232-2.844 2.125-1.141-0.1075-0.4267-1.864 0.4062-2.281 1.151-0.6135 2.137-0.6712 2.438 0.1562z" fill="#73943a"/>
<g fill="#fff">
<path d="m76.99 321.9c-0.3054 0.3142-0.514 0.6652-0.7294 1.166-0.5899-0.9091-2.031-0.3609-2.256 0.5521-0.26 1.054 0.253 1.635 1.166 1.735-1.182 0.2291-2.163 0.3347-2.939 0.4826-0.6708-1.071-0.6548-2.041-0.2003-3.105 0.8928-2.089 4.212-2.793 4.959-0.8308zm3.201-0.4077c-2.733 0.1087-4.513 4.277-2.234 6.072 2.827 2.226 5.607-0.0389 5.863-2.466 0.1943-1.84-1.107-3.707-3.629-3.606zm0.7022 2.288c1.087-0.0687 1.587 0.9113 1.428 1.651-0.1586 0.7399-1.357 1.492-2.25 0.7513-0.893-0.7402-0.2653-2.334 0.8221-2.402z"/>
<path d="m59.61 336.5c0.7015 0.2531 2.219 0.2276 2.219 0.2276l-1.639 2.157z"/>
<path d="m69.98 335.4c0.8605-0.1797 2.826 0.0256 2.826 0.0256-0.6345-0.9766-1.448-2.102-2.67-3.225-0.0974 1.08-0.1772 2.14-0.1565 3.2z"/>
<path d="m79.96 335.3c0.8558-0.0702 2.161-0.5051 2.161-0.5051-0.3278 1.373-0.8984 2.625-1.824 3.564-0.03321-0.9419-0.05763-2-0.3367-3.059z"/>
</g>
</g>
<g id="id_pig">
<g>
<path d="m278.7 318.7s2.467-1.077 2.332-2.928c-0.1804-2.469-4.424-1.632-4.325 0.5351 0.0722 1.579 1.994 2.393 1.994 2.393zm-82.71-9.511c-0.905-1.958-0.6386-5.469 2.339-6.841 0.7987-4.107 1.411-6.142 2.801-9.615 1.992 3.309 3.184 5.055 4.108 9.459 2.62-0.4105 3.621 0.6749 4.164 1.145 2.554-2.761 6.049-6.4 7.601-10.76 2.555 4.006 4.179 6.394 5.246 12.93 18.19-3.818 40.95-3.812 50.29 13.33 1.042 0.1381 2.269 0.5607 3.989 0.2812-7.103-7.045 11.34-9.512 4.32 0.2984 3.167 0.0751 6.97-1.369 8.359-7.102 0.5806 5.648-4.143 9.012-10.2 8.465-2.334 0.8212-3.53 1.05-5.833 1.059-0.0578 17.34-6.058 16.77-5.873 39.68-1.802 0.2612-2.763 0.4109-4.565 0.299l-0.2709-3.429c-0.7395 0.9312-0.7882 2.728-0.8827 3.404-0.6593-0.0581-1.787-0.1676-2.339-0.4044-0.0441-1.439-0.1942-2.781-0.0328-4.15l-1.457-0.0934c-0.1228-0.5226-0.2456-1.479-0.3684-2.134-0.3603 0.7978-0.3575 1.593-0.378 2.152-0.5927-0.0147-1.361-0.0628-1.956-0.6209-0.7143-5.714-0.458-12.13-2.83-15.66-8.304 2.205-16.49 1.909-22.94-0.2381l-3.492 20.79c-1.431 0.3718-2.461 0.2685-3.325 0.2148l-0.1731-3.151c-0.6542 1.053-0.6865 2.107-0.7608 3.16-0.8365-0.0418-1.475 0.0226-2.212-0.364-0.3344-1.549-0.2395-3.313-0.2826-5.008l-1.66 0.0541-0.3082-2.474c-0.4028 1.235-0.3257 1.799-0.3804 2.547-0.7019-0.0256-1.376 0.1731-2.064-0.4017-0.2972-7.828 0.4825-16.81-3.518-22.99-3.009-2.423-11.69-8.855-18.35-10.72-11.69 0.1545-8.155-9.738-4.742-10.41 3.413-0.6703 4.479-1.06 7.974-2.706z" fill="#222"/>
<path d="m200.7 296c-0.883 2.277-1.437 3.774-1.613 6.269 0.3459-0.0969 0.7361-0.1315 1.177-0.1256-0.0533-2.381 0.3385-3.32 0.4365-6.143zm0.5893-1.642c0.4216 0.3271 2.28 5.624 2.83 8.265-0.4834 0.2076-0.8803 0.5584-1.287 0.9102-0.3645-0.6202-0.9834-1.149-1.872-1.291 0.1385-2.234 0.4438-5.433 0.329-7.885zm16.11 0.9078-2.463 11.65 1.25 3.344c-1.091-1.601-2.2-3.079-3.5-3.844 0.369-0.4115 0.9626-0.3858 1.5-0.4688 0.8205-2.857 1.153-5.233 1.713-8.402-1.32 2.621-4.631 5.743-5.835 6.781 1.216 1.851 0.8886 5.255-0.8784 6.746-2.502 2.11-7.356 1.524-8.062-2.406-0.7691 0.4368-2.186 0.4632-4.25 1.625 1.006 0.6632 1.284 1.862 1.281 3.219-0.6734-1.054-0.9932-1.759-2.844-2.531l-3.938 1.312c4.314 0.4657 4.938 6.858 3.099 8.614 5.516 2.589 15.65-1.502 15.65-2.239 1.314-2.406 0.138-2.729-0.25-4 1.43 0.8383 2.467 2.07 2.844 4.594-0.4125 0.1933-0.7522-0.3146-1.125-0.0937-4.518 2.676-8.643 3.96-12.97 3.974 4.396 2.492 7.892 4.033 14.81 8.658 1.455 0.5112 3.027-1.745 4.501-2.82-1.044 1.37-1.109 2.431-2.219 3.438 2.419 7.118 4.417 17.11 5.388 22.57l3.998 0.1612c1.64-8.132 2.719-19.63 7.677-28.77-1.213 6.4-2.181 8.217-3.094 12.28 6.588 2.181 16.33 2.938 25.13-1.01-1.128-3.613-1.102-8.126 0.2742-12.08-0.3993 7.223-0.5041 11.71 5.562 16.28l0.2188 13.17 4.844 0.0625c0.618-14.89 8.071-23.12 5.812-34.2-1.774-4.506-10.27-21.47-49.32-13.53-1.979 2.246-1.952 3.396-3.614 3.844 4.91-6.072 0.043-10.44-1.193-15.93zm-27.71 17.93c-2.694 0.1134-4.121 1.924-3.594 4.594 0.7475 3.787 7.139 4.516 7.913 0.8438 0.774-3.673-1.625-5.551-4.32-5.438zm-1.844 1.625c1.019-0.1716 1.645 3.646 0.2812 3.656-1.363 0.0107-1.3-3.485-0.2812-3.656zm3.656 0.0937c1.192-0.0176 1.245 4.247-0.3125 4.031s-0.8798-4.014 0.3125-4.031z" fill="#e290c1"/>
<path d="m202.2 304.2c-0.4603 0.4497-0.6294 1.001-0.8561 1.528-0.4621-1.512-2.192-1.199-2.586 0.0487-0.2029 0.6422 0.3709 1.618 1.355 1.595-1.244 0.2411-2.201 0.9832-3.018 1.139-0.7059-1.127-0.661-2.316-0.1827-3.435 0.9395-2.198 4.475-2.799 5.288-0.8743zm3.551-0.878c-2.879 0.0193-4.862 4.894-2.463 6.783 2.975 2.343 5.956 0.2957 6.226-2.258 0.2045-1.937-0.5752-4.546-3.763-4.525zm0.6267 2.8c1.144-0.0723 1.67 0.959 1.503 1.738-0.1669 0.7786-1.428 1.57-2.368 0.7906-0.9398-0.779-0.2792-2.456 0.8651-2.528z" fill="#fff"/>
<path fill="#794564" d="m253.6 340.4c0.6994-0.3324 1.52-0.7032 1.974-0.966 0.5857 1.099 2.125 2.64 2.923 3.297 0.4594 2.22 0.3562 7.281 0.4865 10.09l-2.934-0.0268c-0.2874-4.552-0.824-8.864-2.449-12.39zm-38.93-7.272c2.399 6.953 3.356 13.16 3.968 18.75l-2.705-0.0397c0.3463-9.868-1.733-15.56-2.785-18.18 0.7103-0.22 1.277-0.4095 1.522-0.5344z"/>
</g>
<rect height="93.11" width="114.8" y="269.3" x="174.8" fill="none"/>
</g>
<g id="id_snake">
<path d="m337.2 292.7c3.675-4.099 9.377-1.714 10.31 2.465 0 0 6.359 0.5714 8.301 7.812s-5.967 15.79-15.34 27.07c11.9-2.236 29.97-0.5757 36.43 5.836 6.458 6.411 0.0977 10.84 0.0977 10.84 9.776-0.7898 9.74-9.511 22.17-15.53-8.971 8.882-11.67 23.53-24.77 26.16-13.09 2.625-27.66 2.634-38.74 1.927-11.08-0.7077-21.75-6.505-22.45-15.15-0.6973-8.649 11.92-11.94 11.92-11.94 2.928-10.31 9.086-11.7 12.51-19.99-7.381 3.152-12.09 3.183-15.82 9.032-0.2806-1.36-0.925-2.376 0.1953-5.566-1.492 0.2795-2.88 0.5912-4.785 1.66 2.271-4.358 4.814-5.265 10.55-5.957-3.252-1.773-2.917-7.527 2.916-11.41-6.985-3.736 0.8294-13.3 6.5-7.263z" fill="#222"/>
<path d="m347.4 296.5c4.224 0.3693 9.696 6.74 5.908 13.94-3.788 7.201-12.51 16.13-12.51 16.13l-4.012-0.1312 1.657 3.867c-0.6053 1.688-1.486 3.375-0.8523 5.063l-2.877 2.81 3.453-0.1381c2.035 1.339 4.037 2.602 6.492 3.291l-0.2777 3.338 2.572-2.56c3.016 0.6283 6.162 0.4832 9.305 0.3502l2.9 3.176 0.8286-3.867 6.346-1.357c2.341 0.8556 2.849 2.525 4.15 3.843-0.5815-1.835-0.8547-3.448-2.512-4.924-0.1282-1.138 0.6259-2.318 1.408-3.5-1.517 0.635-2.571 1.501-3.308 2.526-2.41-0.1321-3.868-0.0261-5.255 0.0977-0.8111-1.618-1.098-3.411-1.13-5.289-1.213 1.873-1.868 3.684-1.908 5.427l-6.215 0.4143c-1.081-1.926-1.543-4.085-1.583-6.402-0.9436 1.905-1.831 3.857-2.007 6.402-0.104 0.156-10.91-1.41-8.286-7.491 8.062-2.401 31.86-0.5798 35.98 4.827 4.125 5.407 1.891 8.838-7.394 12.88-9.285 4.046-34.62 5.179-37.57-6.629-2.941-11.81 9.115-17.38 12.15-32.94 4.081-2.792 5.799-5.857 6.742-8.787-5.012 8.467-18.99 11.14-20.97 9.27-1.975-1.867-2.292-7.502 7.513-11.19 4.101 4.851 10.78 1.958 11.25-2.448z" fill-opacity=".6229" fill="#3bcc33"/>
<path d="m324.7 334s-15.85 4.734-7.394 16.19c8.459 11.46 53.45 8.524 61.2 4.291 7.749-4.233 14.98-18.32 14.98-18.32-5.841 3.964-8.138 12.31-18.53 12.28-16.39 7.757-32.98 5.441-43.11 0.7784l-4.696 1.795 2.316-3.225c-1.764-1.372-3.059-3.228-4.281-5.167l-4.802-0.7226 4.241-2.096c-0.1655-1.495-0.2725-3.277 0.0809-5.81z" fill-opacity=".6229" fill="#3bcc33"/>
<g>
<path d="m332.5 295.7c0.004 1.831 2.523 1.975 2.986 0.5724 0.0349 0.8557 0.3081 1.63 0.3081 1.63-4.035 3.029-7.159-0.5452-6.316-3.357 0.8433-2.812 4.603-3.988 7.023-1.271-0.5936 0.6093-0.8592 1.905-0.8592 1.905-0.3171-1.691-3.151-1.339-3.141 0.5208zm7.944-4.137c-3.369 0.7058-5.279 6.021-1.901 7.944 4.19 2.386 7.618-0.8501 7.59-3.928-0.0211-2.334-2.32-4.722-5.689-4.016zm1.505 2.782c1.468-0.2415 2.299 0.9153 2.198 1.865-0.1008 0.9499-1.614 2.063-2.943 1.263-1.329-0.8001-0.7227-2.887 0.7453-3.128z" fill="#fff"/>
<path d="m319 315.7c2.139-1.705 4.912-3.81 12.85-3.879 2.717-0.0236 3.167-0.5608 5.936-0.9845-3.938 3.021-10.91 1.867-15.38 8.324-0.0346-0.5018 0.6435-3.195 2.961-5.269-2.441 0.3856-4.532 0.9514-6.37 1.808z" fill="#ab1d1d"/>
<path d="m339.1 311.6c0.8763-0.379 1.814-0.9348 2.568-1.375-2.329 8.496-6.142 13.13-9.438 18.39-3.676 5.859-4.92 11.21-0.9598 18.55-1.636-0.7771-11.36-8.467-0.5783-23.11 2.535-3.444 4.578-4.391 8.408-12.46z" fill="#848411"/>
</g>
<rect height="87.2" width="102.9" y="272.8" x="296.4" fill="none"/>
</g>
<g id="id_giraffe">
<g>
<path d="m426.2 275.8 0.7857-3.597c-2.228-5.34 5.936-3.157 1.515 0.0281l-0.295 2.24c0.6551 0.9182 1.953 1.054 2.778 0.7857l2.007-2.208c-0.5433-5.347 6.141-1.086 1.599 0.6734l-2.497 3.564c1.736-0.6273 3.95-1.521 6.768-0.4161-0.7713 1.282-2.083 4.674-5.606 4.622 0.7078 1.132 1.642 1.773 1.791 3.738 0.2107 2.782 1.377 2.533 1.838 5.747 0.2775 1.933 2.131 3.582 2.386 6.05 0.2715 2.632 1.788 2.722 2.783 6.409 0.9951 3.688 4.641 6.472 6.991 8.117 4.145 2.929 12.7 4.106 15.24 7.94 2.541 3.833 6.69 16.09 6.9 15.32 2.049 1.126 2.585 3.206 3.679 6.884-2.548-5.102-2.052-2.666-0.6848 1.334-3.428-6.932-1.302-1.443-1.039-0.2221-1.403-3.608-2.377-2.849-2.766-7.362-1.708-4.578-3.393-7.202-4.616-9.232-0.3656 0.3319-1.888 7.969-0.912 12.83 0.5889 2.932-0.1757 3.861-0.1479 5.94 0.0916 6.859-0.0684 13.58 0.2117 14.1 0.2801 0.519 0.4618 3.32 0.4265 3.442-0.0353 0.1218-1.585 0.1959-2.343 0.2086-0.3407-0.9193-0.2535-1.088-0.4072-2.604-0.2668 1.303-0.211 1.832-0.1813 2.585-0.199-0.0317-0.3475 0.0585-0.988-0.0971s-0.3913-2.08-0.2174-2.675c0 0-0.3446 0.0323-0.7503 0.0465-0.1683-0.6159-0.1978-1.304-0.203-1.729-0.1086 0.4368-0.2757 1.32-0.2343 1.733-0.4216-0.009-0.9443-0.0571-0.9872-0.2039s0.2132-9.52-0.0876-14.61c-0.928-1.192-1.331-3.906-0.689-5.306-0.6737-2.102-0.944-5.636-1.161-6.587-4.541 0.5305-7.713-0.8437-10.47-1.852 0 0-2.026 9.266-1.478 10.51 0.5477 1.242 0.3203 1.527 0 3.451s0.5171 14.31-0.2854 14.58c-0.8025 0.265-1.769 0.0794-1.769 0.0794l-0.3367 2.582s-2.017 0.2162-3.011 0.0115c0.009-0.8666 0.049-1.351 0.5215-3.018-1.037 1.735-1.011 2.31-1.139 2.937-0.5115-0.0731-0.8924-0.279-1.135-0.3653-0.2425-0.0864 0.146-1.572 0.7228-3.83 0.5767-2.258 0.7691-11.35 0.4185-12.51-0.3506-1.158-0.7567-2.553-0.4042-4.639-0.4085-3.636-0.175-7.919-1.652-11.64-2.021-5.092-2.235-7.577-1.207-11.39 0.1277-7.849-5.605-26.55-6.077-31.2-3.252 1.615-4.909 1.443-6.35 1.404-1.029-0.0274-1.919 0.8678-3.298 1.205-1.596 0.3899-3.69-2.235-1.95-4.381s2.562-0.7662 4.947-4.378c-2.033 0.1412-3.292-1.814-3.991-5.318 3.302-0.4059 4.366 1.085 5.741 1.553 0.5276-0.5749 0.8472-1.03 1.319-1.273z" fill="#222"/>
<path d="m426 279.1c0.1114-0.8432-1.134-1.013-1.311-0.1561-0.1765 0.8574 0.6192 1.093 1.077 0.6944-0.1736 0.4773-0.1427 0.7498-0.1208 1.031-1.584 0.6314-2.529-1.172-1.874-2.312s2.418-1.26 3.049-0.2346c-0.3066 0.2042-0.7416 0.6416-0.8204 0.9778zm2.424-0.9135c-1.654 0.0105-2.811 2.317-1.501 3.514 1.277 1.168 3.121 0.2483 3.43-1.119 0.2343-1.037-0.4795-2.385-1.929-2.395zm0.2556 1.261c0.6248 0.0338 0.8438 0.6262 0.7037 1.038-0.1401 0.4114-0.874 0.7597-1.334 0.2776-0.4597-0.4821 0.006-1.349 0.63-1.315z" fill="#fff"/>
<path d="m419.8 275.9c1.623-0.1967 3.119 0.6444 4.305 1.322-0.2358 0.1272-0.4268 0.3177-0.5784 0.4857-0.0724 0.0802-0.9023-1.081-2.717-1.427 2.038 1.669 2.444 1.857 2.405 1.95-0.2491 0.5945-0.2803 1.31-0.0529 1.921-3.082-0.0839-2.895-2.668-3.361-4.252zm11.97 2.29c1.428-1.294 5.152-1.756 6.372-1.134-0.8114 1.34-2.516 4.107-5.565 3.819 0.682 1.735 0.8452 2.063 1.306 4.167-2.357 1.675-2.186 3.073-1.822 4.324 0.3642 1.251 1.647 1.354 3.51 0.8146 1.214 4.447 3.151 8.818 4.346 11.48-1.134 1.039-3.715 3.769-2.493 5.81s3.633 4.032 5.354-0.1749c1.38 2.252 3.651 3.326 5.799 4.818-0.317 0.6498-1.796 1.237-0.766 3.736 0.6319 1.533-1.104 2.586 1.546 3.849s4.915-1.099 6.133-4.228c2.719 0.7893 2.755 0.7787 4.408 1.506 0 0-1.672 4.551-0.3504 6.058s5.497 0.5539 5.497 0.5539c-0.0151 2.226-2.424 11.31-1.604 14.72 0.8203 3.41 0.0396 3.969-0.0777 6.333-0.1174 2.364-0.3546 11.86 0.1277 14.06l-1.686 0.271c-0.8681-3.707-0.6169-10.34-0.6722-14.65-1.688-1.622-0.9582-3.01-1.065-4.581-1.768-3.796-3.423-10.97-3.364-15.22-0.007 2.818-0.7082 3.55 0.2237 8.058-0.8466 0.2574-1.39 0.1756-2.849-0.0469 0.6774-1.739-0.1698-8.88-2.597-10-2.428-1.119-4.12 6.915-2.357 8.749 0 0-3.58-1.092-3.552-1.487 0.1712-2.406-0.5652-8.511-0.6145-8.413 0.1298 5.863-0.6316 14.64-2.211 19.97 0.1586 1.321 0.9599 2.642-0.2765 3.962l-0.898 13.66-2.064-0.3968c0.7773-1.472 1.028-11.57 0.8536-12.93-0.8823-2.097-0.5363-3.309-0.4404-4.081 0.0959-0.7729-0.8328-7.501-1.314-11.14-0.4807-3.635-3.3-5.932-1.795-10.28 2.663 0.8802 8.64 1.373 8.275-1.31-0.3652-2.683-1.896-5.126-3.992-6.424s-4.313 1.468-4.313 1.468l-1.889-10.67c1.72-0.9705 1.747-2.244 1.498-5.198s-1.495-3.125-4.053-2.819c-0.6168-1.915-1.681-8.184-2.266-9.918-0.4338 1.437-3.06 1.744-5.588 2.147 1.947-0.8735 3.686-1.195 4.174-3.04-0.6977 1.377-2.721 1.763-3.448 2.116-0.7269 0.3526-1.96 0.4627-3.01 1.026-1.221 0.6553-1.859 1.348-2.847 1.17-0.9884-0.1788-1.476-2.246-0.6178-3.314 1.455-1.811 2.671-1.022 5.011-4.551 0.4109 0.4295 1.189 0.6549 1.944 0.3572 0.852 2.438 3.705 1.991 4.85 0.4336 1.145-1.558-0.0874-5.063-3.282-3.846-0.1985-0.4029-0.8507-0.8119-1.429-0.8532 1.074-1.618 3.697-1.552 4.405-0.0198 0.7081 1.533 1.534 1.283 1.534 1.283z" fill="#c6af24"/>
<path fill="#222" d="m421.2 285.1c1.046 0.2556-0.8555 2.753-1.604 1.696-0.1833-0.259 1.216-1.791 1.604-1.696zm-2.228 1.372c-0.8719 0.1572 0.846-2.534 1.332-1.636 0.1348 0.2493-0.9998 1.576-1.332 1.636zm13.01-7.553c1.433-0.5697 3.382-1.417 5.011-1.496-2.08 0.7994-3.599 1.628-4.654 2.325z"/>
<path d="m433.7 271.9c0.0189-1.149 1.667-1.1 1.651 0.0457-0.0156 1.146-1.67 1.103-1.651-0.0457zm-6.351-1.528c0.0189-1.149 1.667-1.212 1.651-0.0665-0.0156 1.146-1.67 1.215-1.651 0.0665zm25.65 61.99c1.022-0.4089 0.4387-8.534-1.576-8.933-2.044-0.4837-2.691 4.977-1.596 8.116 0.8828 0.3905 2.196 0.7865 3.172 0.8177zm7.315-15.13c-0.1726 1.377-1.261 4.718 0.0185 5.573 1.279 0.8555 4.671 0.1207 4.671 0.1207-0.0616-2.287-3.125-5.342-4.69-5.694zm-5.666-2.121c-2.223-0.5928-3.785-1.563-5.395-2.506-0.2014 0.309-1.5 0.7463-0.6152 2.562 0.6896 1.414-0.9063 3.346 1.746 4.038 2.652 0.6916 4.14-2.907 4.265-4.094zm-17.78 4.123c0.414-0.839 0.1681-2.668 0.007-4.369 0.3464-0.0616 1.915-1.76 3.178-1.908 1.304-0.1527 4.094 3.73 3.995 5.921-0.0989 2.191-7.18 0.3562-7.18 0.3562zm-4.227-23.32 1.95 6.329c0.5078-0.0647 1.021-0.4178 1.092-1.505 0.1041-1.59 0.3602-3.476-0.5493-4.428-0.9094-0.9521-2.493-0.3967-2.493-0.3967zm7.702 6.4 2.205 4.353c-0.2775 0.19-0.889 1.835-1.536 2.148-0.905 0.438-1.636 0.0981-2.871-1.505-1.236-1.603 2.203-4.995 2.203-4.995zm-5.036-13.08s-2.288 1.374-2.782-0.3445c-0.4939-1.719 1.681-3.015 1.681-3.015z" fill="#906700"/>
<path d="m459.4 340c-0.4043 1.644 0.0889 3.674 0.887 4.605l0.5404 12.44-0.9051 0.1731-0.2702-12.65c-1.085-1.108-1.114-3.542-0.6421-4.653-1.463-4.392-1.075-4.912-1.391-6.745 0.5335 1.538 0.9381 4.484 1.781 6.826zm-13.76-8.781-0.4548-0.2424-1.45 10.6c0.4043 1.644 0.2823 3.038-0.5159 3.968l-0.2381 11.19 1.27-0.0794-0.3968-11.51c0.7727-1.202 0.4059-2.176 0.1587-3.175z" fill="#3c4006"/>
</g>
<rect height="94.9" width="63.44" y="268.1" x="411.7" fill="none"/>
</g>
<g id="id_snail">
<g>
<path d="m515.3 321.1c0.4127 0.0948 0.816 0.2707 1.058 0.4453 1.829-0.1647 2.988 0.1628 3.869 0.6971l5.42-15.6c-2.193-8.149 9.138-3.339 2.973 0.7319l-5.303 17.1c1.865 3.464 3.098 6.524 4.234 9.981 8.426-5.228 5.249-27.78 29.79-24.91s26.31 31.12 16.17 37.77c11.12 3.996 18.01 4.686 25.28 5.864-6.284 3.817-43.64 3.649-57.8 3.231-14.16-0.4186-17.87 2.007-20.64-5.428-2.764-7.435-6.874-11.6-12.22-14.86-5.342-3.264-7.237-8.124-1.826-10.78-2.503-4.436 2.629-7.188 5.881-4.849l-0.1973-15.94c-4.727-6.822 7.357-6.305 2.779 0.0581z" fill="#222"/>
<path d="m512.8 303.9 0.4324 16.9c0.342-0.04 0.7945-0.0103 1.018 0.0281l-0.4152-16.9c2.676-4.282-3.859-3.685-1.036-0.0281zm14.09 2.44-5.94 16.58c0.1945 0.3962 0.1312 0.3125 0.2283 0.5848-0.6115-0.746-2.566-1.679-4.241-1.417 4.395 6.521-7.088 10.41-7.384 2.979-1.876 0.7782-6.823 2.779-3.094 7.281 7.099 0.6839 10.34-0.9785 12.2-3.742-1.182 2.093-2.651 5.568-10.82 5.273 0 0 9.728 4.365 13.37 13.21 3.643 8.843 5.427 7.281 11.63 7.597 20.83-0.4739 40.67 2.304 61.32-1.335-5.299-0.4564-13.15-2.374-21.93-5.092-3.847 2.97-15.56 5.566-23.82-3.914-9.916 4.156-15.2-5.437-21.86-8.078-0.7504-3.3-2.06-7.055-4.455-12l5.781-17.62c3.994-3.176-3.206-4.827-0.9815-0.3068z" fill="#deaa87"/>
<path d="m508.4 322.6c-0.5618 0.7636 0.0584 1.425 0.3879 1.459-0.8484 0.2986-1.117 0.5387-1.516 0.7939-0.6347-1.014-1.022-2.037-0.0715-3.37 0.9502-1.333 2.913-1.444 4.395-0.1805-0.8006 0.483-1.347 1.079-1.618 1.527-0.054-0.5083-1.015-0.9926-1.577-0.229zm5.157-0.9831c-2.588 0.0174-4.189 4.006-2.103 5.79s5.173-0.00067 5.388-1.988c0.1878-1.741-0.419-3.821-3.285-3.802zm0.6758 2.209c1.029-0.065 1.501 0.8623 1.351 1.562-0.15 0.7001-1.284 1.411-2.129 0.7109-0.845-0.7004-0.2511-2.208 0.7779-2.273z" fill="#fff"/>
<path d="m529.1 335.6c6.545-3.454 7.114-25.97 25.58-24.74 18.47 1.229 27.48 20.51 20.62 31.64-6.862 11.13-23.07 7.937-27.28-2.035-4.215-9.972 1.65-19.27 9.71-18.66 8.06 0.6091 8.414 9.642 5.893 12.69-2.521 3.052-6.761 2.619-7.122-0.2754-0.3602-2.894 2.861-3.464 3.341-1.614 0.2002-0.8532-1.407-1.961-2.736-1.135-1.329 0.8263-2.167 3.111-0.4336 4.857s6.629 1.672 8.681-3.095c2.052-4.768-0.1344-11.43-6.842-12.59-6.707-1.162-18.36 6.22-10.92 22.28-6.979 2.651-12.1-3.532-18.49-7.325z" fill="#7d5a1a"/>
</g>
<rect height="68.1" width="108.2" y="289.3" x="490.9" fill="none"/>
</g>
<g id="id_hedgehog">
<g>
<path d="m55.37 434.7c3.61-0.2325 6.257-1.08 9.039-2.395-5.651-4.741 2.624-10.03 5.595-6.468 2.183-5.084 0.179-10.77-1.508-15.32 0 0 29.82-10.71 48.88-4.327 19.06 6.387 23.38 20.35 21.48 29.72-1.899 9.375-7.54 10.95-7.54 10.95-0.7207-0.8248-1.649-1.429-2.619-2.143-1.155 0.7846-2.935 2.044-3.175 2.937-0.2397 0.8924 1.103 4.714 0.9921 7.818-0.1106 3.103-13.74 2.024-14.8 1.151-1.061-0.873 0-2.5 0-2.5s-3.172-0.041-3.492-1.032c-0.3204-0.9907 0.8265-1.972 0.8265-1.972-4.442 0.2791-8.376 0.204-12.52-0.2614 0 0-1.132 5.559-3.806 5.963-2.674 0.4042-8.486 1.216-12.7-0.1587-4.213-1.375 1.342-5.646 1.342-5.646-0.6928-0.0203-1.647 0.0872-2.619-0.6672-0.973-0.7544-0.4916-1.994-0.04283-2.642-4.219-0.3477-9.343 0.1352-12.71-2.076-4.047-0.3431-8.29-0.4613-13.97-4.881-5.117-0.3667-3.122-9.497 3.342-6.058z" fill="#222"/>
<path d="m72.34 421.3c0.03627 1.951-0.7543 3.774-1.438 5.438 6.539-0.8098 7.288 5.091 5.398 7.9s-8.348 3.629-9.226-1.51c-3.921 1.634-8.726 2.917-11.45 3.054-0.3351 2.021 0.06517 3.152-1.284 4.242 9.511 6.269 21.81 3.474 25.25-1.781-1.737 3.126-4.807 5.661-11.35 6.852 1.922 1.731 12.49 0.3392 18.75 2.367 1.213-0.6781 1.958-2.016 3.07-4.094-2.147 8.363-7.643 5.233-10.77 11.36 0.4383 0.466 1.025 0.7889 1.672 0.7969 0.3686-0.7661 0.9123-2.048 2.688-2.859-1.334 1.287-1.709 2.291-1.922 3.031l1.703 0.0781c0.5831-1.536 1.097-2.113 1.844-2.812-0.4309 0.8731-0.8845 1.735-0.8438 2.844 2.74-0.2083 6.625 0.1825 8.375-0.6406s3.163-6.215 4.531-9.359c-0.1532 1.119-0.2762 2.014-0.5 3.375 5.854 0.5874 12.72 0.426 18.28 0.2812 0.6029-0.6479 1.14-1.858 1.594-4-0.0889 7.202-5.096 8.088-4.016 10.01 0.1982 0.3535 0.5502 0.3137 1.016 0.3924 0.2561-0.955 0.9486-1.781 2-2.5-0.513 0.8286-1.277 1.711-1.303 2.566 0.5027 0.0474 0.9383 0.1283 1.605 0.0937 0.2225-1.436 0.7932-1.815 1.48-2.535-0.3172 0.8964-0.6637 1.903-0.4375 2.599 3.688-0.0825 6.775 0.9152 8.169-1.772 0 0-1.338-6.703-0.9817-7.859 0.3564-1.156 3.188-2.875 3.188-2.875-5.009-2.969-18.41-3.26-30.31-3.812-0.0595-1.87-0.7721-3.825-2.312-5.906-3.149 1.301-5.703 0.906-7.219-0.125 15.37 1.401 5.177-20.69-3.5-8.094-0.3006-4.368-9.819-4.685-11.75-4.75zm18.5 3.375c1.985 0.209 2.699 2.783 1.781 3.344-0.01182-0.9851-1.897-4.1-5.156-0.5 2.034 0.8472 1.142 2.159 0.7188 2.875-0.5302-1.472-0.8656-2.019-2.219-2.594 2.032-2.514 3.684-3.25 4.875-3.125z" fill="#d4aa00"/>
<path d="m69.43 427.3c-0.4227 0.3171-0.8357 0.682-1.229 1.297-0.6991-1.077-2.266-0.5118-2.533 0.5701-0.3081 1.249 0.2687 1.717 1.147 1.93-0.4552 0.1387-0.9488 0.5753-1.38 0.7883-1.412-0.8069-2.083-2.537-1.544-3.797 1.058-2.475 4.655-3.113 5.54-0.7881zm2.335 0.1784c-3.239 0.1288-5.227 5.196-2.603 7.416 2.908 2.461 6.821-0.0903 6.903-3.187 0.05852-2.192-1.311-4.348-4.3-4.23zm0.327 2.723c1.289-0.0814 1.88 1.08 1.692 1.957-0.1879 0.8768-1.608 1.767-2.666 0.8903-1.058-0.8772-0.3144-2.766 0.9742-2.847z" fill="#fff"/>
<path d="m72.37 419.7c-0.04652-2.681-0.6103-5.362-1.237-8.043 10.92-4.967 41.87-10.18 55.52 0.9663s12.73 23.57 6.173 30.94c-11.74-5.727-24.9-4.546-34.29-5.038l-1.945-5.834c3.869-2.826-0.1317-17.39-11.58-10.61-4.763-1.81-8.807-2.205-12.64-2.386z" fill="#7e7e7e"/>
<path d="m80.03 447.9c-1.313 2.172 1.061 2.235 2.5 2.312 1.2-0.5615 2.245-0.9992 3.062-1.469-1.78-0.4246-3.937-0.7435-5.562-0.8438zm30 3.223c-1.808 2.243 0.9131 2.15 2.375 2.091 0.6462-0.6794 1.489-1.536 2.032-2.308-1.623 0.1194-2.933 0.1371-4.407 0.2168z" fill="#7b6200"/>
<path d="m105.6 406.3-13.61 1.143 0.6417 0.4504zm-17.09 2.875-11.86 2.987 1.107 0.5129zm17.13 0.375 0.4062 0.6875 13.97-0.9375zm-2.969 1.625-16.8 3.759 1.123 0.5975zm-29 1.094 0.3438 7.906 1-0.0313-1.344-7.875zm4.812 1.406-0.7812 6.844 0.9688 0.0937-0.1875-6.938zm31.75 0.1875 0.0313 0.9062 16.69 0.5625-16.72-1.469zm-26.78 0.9375-2.062 6.594 0.9375 0.2812zm28.58 2.6l-16.78 0.3125 0.8438 0.9062zm4.031 3-0.0625 0.875 16.59 2.031zm-16.28 3.812-0.09375 0.75 18.97 1.094zm18.06 5.25-0.1562 0.875 16.34 3.5zm-16.81 2.5-0.0313 0.9062 16.66 1.25z" fill="#222"/>
</g>
<rect height="69.62" width="97.12" y="388.5" x="42.95" fill="none"/>
</g>
</svg>
