<svg xmlns:rdf="http://www.w3.org/1999/02/22-rdf-syntax-ns#" xmlns="http://www.w3.org/2000/svg" viewBox="0 0 744.09448819 1052.3622047" height="100%" width="100%" version="1.1" xmlns:cc="http://creativecommons.org/ns#" xmlns:xlink="http://www.w3.org/1999/xlink" xmlns:dc="http://purl.org/dc/elements/1.1/">
<g id="id_rooster">
<rect height="81.11" width="87.95" y="-16.69" x="388.7" fill="none"/>
<path fill="#222" d="m423.1 9.789c-0.8-1.146-3-5.078-3.3-6.536 1.565 0.2025 2.699 0.6882 4.209 1.55 1.2-1.014 2.3-0.322 2.7 0.336-0.2-0.767-0.7-1.957 0.1-3.398 2.032-3.556 6.295-0.9341 6.231 1.801-0.035 1.476-1.657 2.195-1.043 3.422 0.644 1.223 2.734 0.6446 3.562 1.473 1.403 1.332-0.504 2.09-1.043 2.988-0.398 0.6484 2.989 1.297 1.043 3.422-0.793 0.8632-2.375 0.1445-3.097 1.043-0.754 0.8633 0.543 0.6836 0.144 2.52-0.43 1.836-1.656 3.098-1.801 4.754-0.105 1.113-0.285 2.41 1.047 4.32 1.332 1.906 2.41 2.23 4.141 3.129 0.863 0.4336 8.601 1.191 7.449 0.289-2.23-1.801-4.785-4.789-4.75-7.738 0.035-2.918 1.691-5.762 1.656-4.574-0.074 1.477 0.25 3.672 2.52 3.527 2.265-0.1406 1.512-2.625 5.508-4.137 3.961-1.551 6.586-1.875 10.4-1.945 3.781-0.0704 5.363 1.547 4.644 1.726-1.007 0.2188-7.128 1.227-7.488 2.883-0.105 0.4649 3.961 1.547 6.555 3.707 1.512 1.297 2.301 1.945 3.707 5.074 1.402 3.098 2.016 6.191 1.762 7.777-0.036 0.3242-2.625-1.871-3.094-1.547-0.399 0.25 1.402 2.23 1.187 4.894-0.254 2.988-1.261 6.41-1.8 7.02-0.575 0.6485-1.258-4.176-1.907-2.41-0.433 1.152-0.722 2.445-2.379 4.605-1.691 2.199-3.058 3.781-4.32 4.176-1.258 0.4336 0.363-3.527-0.898-4.894-0.36-0.3946-1.621 1.91-2.809 1.945-0.828 0-1.258-2.016-1.941-1.945-0.688 0.0703 0.179 1.836-0.758 2.23-0.938 0.3633-1.871-1.402-2.953-0.7539-1.078 0.6836-0.071 3.094-1.332 3.418-1.293 0.3242-2.485-2.16-3.742-2.086-1.262 0.0703-0.254 1.726-1.332 2.375-1.083 0.6836-2.954-0.3242-3.133 0.2148-0.035 0.1836-0.25 1.766 0.144 2.918 0.434 1.152 1.727 0.8633 1.656 1.801-0.074 0.9336-0.863 0.4688-1.945 1.906-1.078 1.477-0.9585 3.886-2.454 3.335-1.496-0.5509 2.819-5.587-7.659-0.05744-0.434-0.7578 2.121-3.602 1.512-4.465-0.649-0.8281-3.387 1.262-4.036 1.043-0.609-0.2148-0.285-1.113 1.477-1.906 1.801-0.8281 3.926-0.3945 5.652-1.367 1.766-0.9375 1.262-1.047 1.657-2.16 0.359-1.117 0-2.055-0.145-2.305-0.285-0.3945-1.113 2.125-2.086 1.512-0.973-0.6484-0.324-2.629-1.801-4.031-1.441-1.406-2.554-0.5039-3.996-1.621-1.476-1.117-1.117-2.23-1.801-2.844-0.648-0.5742 0.973 2.34-1.835-0.2148-2.879-2.594-7.165-5.328-10.37-9.289-1.007-1.297-1.656-3.781-1.332-5.941 0.899-5.398 3.278-6.371 3.059-7.27-0.215-0.9024-1.091-2.027-0.2738-6.07 0.8175-4.043 7.737-7.009 7.95-6.222-0.3067-0.8265-0.9624-2.633-0.7434-2.848"/>
<path fill="#ff8000" d="m428.1 59.16c1.008-0.1797-0.0202 1.731 1.097 1.082 0.684-0.3945 3.059-0.6484 3.672-1.113 0.649-0.4336 0.613-2.773-0.18-1.875-2.352 1.573-6.193 1.248-7.882 2.988 0.394 0.03516 2.285-0.8684 3.293-1.082z"/>
<path fill="#ff8000" d="m435.8 53.54c0.36 1.476-0.179 3.059 0.324 4.535 0.54 1.512 1.547 0.6133 1.762 1.008 0.215 0.3984-1.941 0.8672-2.375 1.801-0.433 0.9375-0.648 2.629-1.222 2.664-0.614 0.03516 1.511-2.809-0.614-2.699-2.16 0.1094-5.867 2.52-6.445 2.773-0.828 0.3203 1.477-2.09 3.203-3.242 1.695-1.152 2.738 0.2891 3.422-1.402 0.648-1.656-0.254-4.176-0.254-5.582 0-0.9338 2.09-0.2503 2.199 0.1443z"/>
<path fill="#f00" d="m427.5 1.886c1.472-2.238 3.596-1.094 4.426 0.684 0.648 1.512-1.692 3.602-1.008 4.644 0.902 1.402 3.387 0.9375 3.926 1.98-0.135 2.031-3.407 2.049-0.504 3.562 1.836 0.9727 0.394 2.629-1.082 1.98-0.934-0.3945-1.188 1.152-1.618 0.4687-1.107-6.159-2.68-10.02-4.32-9.757 0.5-1.259-0.5-2.267 0.2-3.563z"/>
<path fill="#f00" d="m420 11.93c0.828 0.1094 3.816 1.227 3.347 2.16-0.0275 2.782-0.007 6.047-1.691 8.172-8.281 8.298-13.96-6.482-3.492-9.683 1.367-0.0706 1.043-0.7542 1.836-0.6487z"/>
<path d="m421.2 4.312c0.0151 0.8548 1.659 5.131 4.436 6.737-1.488-0.3624-4.427-1.343-5.467-1.705-0.214 0 0.7186 2.089 1.797 2.557 1.643 0.2945 3.466-0.02667 4.552-0.03698-0.9044-1.258-0.982-1.81-0.942-3.177-0.7507-1.118-0.7341-1.063-0.4688-2.031-0.828-0.867-3.007-2.059-3.906-2.344z" transform="translate(-.000004923)" fill="#ff0"/>
<path fill="#f9b628" d="m426 8.905c-0.179 1.117 0.4607 2.74 1.414 3.458-1.725-0.1731-2.389 0.06864-3.07 0.4324 0.4169 10.56-4.135 15.93-11.3 11.48-4.53 8.336-4.604 11.05 8.93 20.77 1.801 0.5039-0.254-3.383 0.754-3.562 1.008-0.1797 2.883 3.527 3.277 2.844 0.36-0.7226-2.664-4.465-1.8-5.652 0.863-1.188 4.5 2.52 5.218 0.8984 0.688-1.656-3.453-6.047-2.375-7.449 1.043-1.406 5.223 2.949 6.336 2.34 1.117-0.6485-1.297-2.629-2.23-4.32-0.938-1.73 0.539-0.4687-0.035-2.27-0.543-1.766-1.731-2.664-1.407-4.969 0.325-2.305 3.133-3.492 2.196-5.293-1.871-3.527-2.121-6.769-3.167-9.757-0.3674 1.322-2.126 1.483-2.741 1.049z"/>
<path fill="#804000" d="m437.2 31.62c5.186 0.4545 11.47-0.263 13.68 3.887 1.365 4.234-0.5535 8.626-1.472 11.91-0.578 1.98 0.465 2.883-0.649 3.312-5.356-4.533-2.84 2.295-4.175 2.593-7.193-6.156-3.287-0.1542-5.582 0.539-7.298-5.263-6.346-1.05-8.172-0.214-2.284-9.43-6.208 0.4604-7.739-11.2 8.295 8.068 0.5854-2.734 1.727-3.312 0.719-0.3984 5.473 2.664 5.723 1.691 4.302 3.234 12.09 4.983 11.98 2.51-0.684-4.894-8.527-7.873-7.844-8.776 0.903-1.078-3.238-4.391-3.022-5.034 0.3955-1.148 2.376 1.552 5.544 2.094z"/>
<path fill="#004080" d="m442.1 28.92c-3.922-3.852-2.879-9.07-2.375-8.781 0.434 0.25 0.289 2.879 3.387 3.203 1.367 0.1445 1.148-2.52 2.23 0.7929 0.754 2.375 4.465 8.133 4.246 8.457-0.574 0.7226-5.613-1.836-7.488-3.672z"/>
<path fill="#0d4d66" d="m446.1 23.48c-1.187-3.566 2.34-4.754 6.047-6.012 3.742-1.262 9.145-0.793 10.01-0.3633 0.863 0.3984-5.113 0.9726-7.309 2.918-1.007 0.8632-2.265 3.527-2.375 6.48-0.074 3.457-1.152 9.035-1.801 7.416-0.4-1.08-3.6-7.56-4.6-10.44z"/>
<path fill="#1a5a4d" d="m453.1 26.58c0.359-4.969 0.972-5.688 4.14-4.426 2.301 0.8632 4.321 1.871 6.84 4.75 2.485 2.918 3.707 9.398 3.239 9.289-1.223-0.2539-5.579-6.086-9.11-5.902-3.527 0.2148-5.937 8.027-6.406 6.37-0.359-1.333 0.973-5.978 1.297-10.08z"/>
<path fill="#266633" d="m458.3 30.98c2.809-0.4688 5.075 3.383 6.301 6.156 1.258 2.805 0.36 9.465-0.578 9.465-0.394 0-0.648-4.68-4.535-6.945-2.988-1.73-7.453 0.504-7.309-0.793 0.18-1.297 3.672-7.488 6.121-7.883z"/>
<path fill="#33731a" d="m458.6 40.11c2.015 1.012 3.058 2.09 2.769 5.043-0.25 2.914-5.109 8.242-5.648 7.992-0.578-0.2187 1.043-5.832 0.035-8.641-1.008-2.844-4.5-2.305-4.07-3.277 0.398-0.9727 4.863-2.125 6.914-1.117z"/>
<path fill="#408000" d="m455.3 46.53c-0.254 0.9727-2.953 4.106-3.601 3.672-0.789-0.539-1.942-2.125-1.762-2.449 0.609-1.223 1.043-5.363 1.836-5.289 0.793 0.0704 4.39 0.8633 3.527 4.066z"/>
<path fill="#0d4d66" d="m439 39.72c-1.114-0.2891-5.938-3.277-6.621-3.312-0.614 0 4.535 2.953 7.199 4.031 2.445 1.008 2.555 2.738 1.726 3.168-6.73-0.04535-10.97-1.991-13.71-10.98 0.753-0.793 3.168 1.871 6.259 3.06 2.807 1.08 6.264 4.322 5.147 4.032z"/>
<path d="m425.8 5.861c0.007-0.26-0.2575-0.4668-0.5255-0.2978-0.1904 0.1201-0.2894 0.3227-0.0292 0.6338-0.3132-0.2578-0.6854-0.6218-0.9427-0.7267 0.007-0.4443 0.5528-0.7863 0.9588-0.8068 0.3754-0.01888 1.079 0.3067 1.022 0.8502-0.1827 0.08576-0.4032 0.2507-0.4831 0.3471zm1.693 0.1964c-0.8106-0.518-2.253 0.4882-1.924 1.454 0.4081 1.198 1.616 1.166 2.156 0.499 0.4094-0.5058 0.6653-1.379-0.2322-1.953zm-0.3334 0.899c0.334 0.1878 0.2937 0.5724 0.1054 0.7603-0.1884 0.1879-0.6857 0.1804-0.8076-0.2088-0.1218-0.3892 0.3682-0.7393 0.7022-0.5515z" fill="#fff"/>
</g>
<g id="id_airplane">
<rect height="75" width="74.3" y="82.85" x="436.7" fill="none"/>
<path fill="#222" d="m460.6 98.01c-0.4647-3.855-1.056-9.16-1.065-13.15 1.666-0.5343 2.565-0.5483 4.905-0.5483 4.43 8.357 8.279 15.52 12.05 22.54 8.078-0.6538 12.91-0.2582 20.55 0.1663 0.863-1.008 3.273-4.102 4.176-5.399 0.539-0.793 4.699-0.5686 4.843 0.009 0.434 1.797 0.5899 4.433 0.4755 6.464 2.022 0.3434 4.512 0.9289 4.153 1.797-4.322 0.7744-8.203 1.801-9.253 3.546-4.812 3.328-10.31 6.806-17.37 9.563 3.387 10.64 5.774 15.3 9.053 30.35-1.116 0.9286-3.858 1.288-5.458 0.9543-3.785-5.832-5.951-8.479-9.663-14.26-3.812 2.635-7.818-4.097-4.967-8.209-0.1172-0.3562-2.653-4.389-3.297-5.756-5.971 1.308-18.03 2.043-23.81-2.697 0.5891-3.708 4.713-7.611 6.371-9.211 2.135-2.408 8.807-4.07 10.45-4.699-0.1303-1.13-0.2469-1.959-0.5184-3.339-4.862 0.3712-3.782-6.861-1.618-8.125z"/>
<path d="m467.1 123.8c0.105-0.395 14.69-3.457 15.16-3.527 0.43-0.075 1.148 4.714 3.129 11.16 1.656 5.578 4.968 24.01 4.07 24.48-1.766 0.8984-4.43 1.402-4.859 0.789-2.703-3.996-7.164-11.23-9.793-15.37-0.325-0.5742 4.211-1.297 5.148-1.726 1.223-0.579 0.574-1.477-0.469-1.297-1.586 0.289-6.371 2.629-5.722 1.297 0.14-0.325 0.644-3.204 0.465-5.04-0.215-1.8-1.512-2.773-1.223-2.917 0.973-0.54 3.601-0.43 4.789-0.395 1.258 0.035 2.305-0.504 0.035-0.938-2.269-0.429-7.558 1.262-7.957 0.469-1.402-2.773-2.914-6.445-2.769-6.984z" fill="none"/>
<path d="m453.9 114.4c5.75-4.37 22.87-8.422 43.59-6.398 0.967-1.386 2.44-3.681 4.505-6.005 0.9569-0.183 1.26-0.1839 3.05-0.0952 0.7284 1.587 0.4998 5.375 0.5698 6.133-1.738 0.3541-3.041 0.9867-3.914 1.471 1.896-0.3468 2.535-0.6802 4.439-0.8208 0.718 0.18 2.424 0.2499 3.445 0.8372-6.717 0.8371-7.017 2.096-9.091 3.582-6.622 4.067-9.782 6.097-16.85 8.698-0.3312-0.7793-0.1815-1.192-0.9326-2.516-5.558 1.22-10.45 2.247-14.62 3.649 0.2362 1.132 0.5558 1.466 0.8335 2.047-13.24 2.532-21.25-1.3-21.79-1.871-0.5406-0.5705 2.553-4.969 4.011-6.136 3.753 2.801 9.674-1.578 9.674-1.578-2.835 0.1367-5.569 0.0551-6.92-0.996zm21.3-7.5c-1.512 0.07-10.01 1.504-11.34 2.297-2.41-12.21-2.876-15.05-3.514-23.77 1.242-0.5146 2.204-0.4484 3.651-0.3001m27.91 67.51c-1.449 0.7794-2.308 0.6548-3.69 0.5974-7.057-10.47-12.27-17.92-18.7-29.83 0.103-0.3955 8.439-2.302 12.76-3.136 3.877 12.56 7.402 21.08 9.629 32.36z" fill="#e5e52b"/>
<g fill="#222">
<path d="m473.5 118.4c0.1016-0.2646-0.1792-3.282-0.434-3.492-0.2548-0.2104-1.728 0.1057-1.871 0.324-0.1427 0.2183-0.0392 3.37 0.145 3.562 0.1842 0.1922 2.058-0.1294 2.16-0.394z"/>
<path d="m477.4 117.5c0.0599-0.2249-0.2292-3.026-0.4643-3.197s-1.676 0.1274-1.801 0.289 0.0529 3.248 0.215 3.418c0.1621 0.1703 1.99-0.2849 2.05-0.5098z"/>
<path d="m480.9 116.7c0.1016-0.2666-0.1244-2.875-0.359-2.984-0.2346-0.1085-1.402 0.0269-1.586 0.285-0.1843 0.2582-0.095 2.963 0.109 3.133s1.734-0.1674 1.836-0.434z"/>
<path d="m484.1 115.9c0.0817-0.287-0.1308-2.544-0.3287-2.745-0.1978-0.2004-1.304 0.0316-1.446 0.2302-0.1426 0.1986-0.013 2.824 0.189 3.054 0.202 0.2295 1.504-0.252 1.586-0.539z"/>
<path d="m486.9 115.2c0.0619-0.2518 0.1565-2.543-0.105-2.703-0.2615-0.1599-1.279 0.0707-1.406 0.254s-0.1492 2.65 0.035 2.844c0.1842 0.1945 1.414-0.1432 1.476-0.395z"/>
</g>
<path fill="#e3801b" d="m460.8 98.73c-1.994 1.628-1.794 7.578 1.295 6.59 0 0-1.03-4.064-1.295-6.59zm12.69 33.95c-1.635 2.175 0.6562 8.983 3.94 6.376 0 0-2.615-4.15-3.94-6.376z"/>
</g>
<g id="id_elephant">
<rect height="62.8" width="82.16" y=".9226" x="285.1" fill="none"/>
<path d="m300.6 57.16c-2.679-1.39-4.671-3.893-4.765-9.744-0.0947-5.851-0.2702-14.08 0.9243-21.04 1.194-6.953 7.166-9.555 7.889-11.98 0.8148-4.54 4.201-6.262 8.462-7.25 14.04-8.555 28.07-7.224 40.57 7.362 5.106 5.511 5.154 18.03 6.156 21.82 1.619 2.079 5.141 1.852 6.915 1.078-0.7835 1.598-3.128 2.565-5.703 2.032-2.6-0.54-4.1 0.22-5.3 3.11-0.3814 2.165 2.985 10.43 3.059 16.16-1.504 3.853-21.19 3.864-21.92 2.773 0.8659-4.08 2.071-7.038 3.707-10.8-5.854 3.399-10.63 2.849-15.8 1.512-0.394 0.25-1.367 2.734-2.09 4.895-0.718 2.125-0.25 3.133-0.898 3.926-4.555 3.16-8.168 2.789-16.87 1.098-0.789-0.5039-0.8406-1.387-0.7356-1.821 0.254-0.8281 1.288-2.98 1.288-2.98s-2.228 1.23-4.907-0.1602zm10.7-14.22c-1.784-1.42-4.195-7.095-1.384-8.68-1.628-0.7726-1.835-1.609-2.399-3.005-4.53-0.2-6.591 13.04-5.354 18.61 1.237 5.577 2.831 3.482 2.174 0.4574 0.259 0.2345 2.197 1.208 2.762 2.149 1.611-3.181 2.878-6.864 4.201-9.534z" fill-rule="evenodd" fill="#222"/>
<path fill="#fff" d="m309.8 29.73c-2.83 0.631-7.038 0.3507-8.106-2.125 2.712 1.181 4.981 1.379 7.45 0.7228-0.5618 0.483-0.5124 1.438 0.656 1.402z"/>
<path fill="#c0c0c0" d="m347.6 9.756c6.879 5.474 10.37 13.86 10.3 21.38 0.215 1.551-0.398 4.863 1.258 6.051 1.89 1.109 3.88 1.677 5.867 1.297-2.045 1.46-4.663-0.5571-6.586-0.1094-2.574 0.7054-4.073 2.671-4.39 4.894 0.9218 4.871 2.951 10.47 3.619 15.15-0.1554 0.9714-8.314 2.595-11.67 2.47 0.00064-1.781-0.1072-1.903-0.9002-2.657-0.789-0.7578-3.075-0.3146-4.442-0.3146-1.187-0.03515-1.437 0.3242-1.043-1.332 0.9789-3.978 3.665-7.092 3.418-10.84-2.328 4.231-9.079 8.552-16.99 5.004-1.117-1.801 1.726-6.586 0.898-5.902-2.89 4.343-4.456 11.79-6.149 15.66-1.37 1.611-5.203 2.585-10.17 1.632 0.6474-1.971 0.8107-2.686-0.2428-3.99-1.152-1.477-4.752 0.9471-2.737-4.092 1.297-3.348 4.465-8.281 5.403-11.52 0.933-3.242-1.406-1.441-1.586-1.367-3.158-3.052-1.489-7.502 0.504-6.769 3.151-0.9402 5.169-3.448 7.665-6.117-2.02 1.654-6.006 5.505-8.743 4.93-1.371-0.3243-2.244-1.672-2.494-2.465 1.011-0.1183 1.66-0.3427 2.605-0.8449-1.418-0.758-2.02-1.152-0.3419-2.462-3.5 1.051-6.764 0.7029-9.818-0.6223 1.075 2.982 2.499 3.563 5.427 3.88-5.419 0.3875-6.984 21.62-3.047 23.43 1.958 0.6953 2.094-0.8373 1.976-2.34 3.137 1.741 0.1897 6.472-3.418 5.113-4.567-2.174-4.898-6.691-5.078-10.12 0.003-7.354-0.1267-14.86 1.012-20.41 1.692-6.935 6.297-7.852 7.617-10.87 0.9515-4.819 3.744-6.083 7.555-7.368 12.8-6.76 24.1-7.573 34.7 1.628zm-27.11 4.394c3.507-2.247 9.449-6.937 12.82-3.97 3.342 3.061 2.037 6.882 1.585 10.34-0.4518 3.458-0.1167 9.687-4.465 10.3-4.348 0.6125-4.79-2.011-8.316-5.512 2.33 3.193 1.603 3.035 4.331 5.376 2.727 2.341 7.762 0.9464 8.435-2.884 0.5858-3.331 0.5141-6.825 0.9138-9.1 0.8336-4.744 0.2075-7.199-2.032-8.92-3.687-2.748-6.727-0.7234-13.27 4.37zm9.828-1.082c0.578 0.4336 0.3117 3.157 1.086 2.73 0.7738-0.4264 0.0469-2.277-0.2925-3.019-0.504-0.8281-4.525 0.5324-6.697 3.073 1.958-1.431 4.173-2.862 5.904-2.784z"/>
<path fill="#222" d="m313.2 13.21c2.409 1.221 1.745 5.573-1.67 5.733-3.415 0.1606-3.695-3.105-3.075-4.323 0.6194-1.218 2.336-2.632 4.745-1.411z"/>
<g fill="#fff">
<path d="m339.1 58.65c0.25-0.25 1.187-0.3594 1.473 0.2539 0.179 0.3242-0.036 1.836-0.325 2.41-0.105 0.2188-1.691 0-1.836-0.1408-0.503-0.3986 0.18-1.98 0.688-2.523z"/>
<path d="m341.7 58.64c0.219-0.1797 0.648-0.2148 1.082 0.2539 0.285 0.3594 0.359 1.836 0.035 2.41-0.109 0.1836-1.512 0.1445-1.586-0.03503-0.14-0.3944-0.07-2.195 0.469-2.629z"/>
<path d="m343.9 58.83c0.145-0.2539 0.723-0.3984 1.082 0 0.18 0.2148 0.504 1.727 0.18 2.301-0.11 0.1445-1.332 0.2188-1.367 0.03903-0.11-0.5039-0.18-1.836 0.105-2.34z"/>
<path d="m306.1 58.43c0.289-0.25 1.222-0.2891 1.546 0.4336 0.18 0.3945-0.035 2.086-0.359 2.734-0.109 0.2148-1.727-0.1445-1.906-0.3239-0.469-0.5388 0.215-2.266 0.719-2.844z"/>
<path d="m308.8 58.72c0.214-0.2148 0.613-0.2148 1.007 0.3594 0.25 0.3945 0.25 2.125-0.074 2.809-0.105 0.2148-1.437 0.1094-1.472-0.145-0.145-0.4692 0-2.52 0.539-3.023z"/>
<path d="m309.1 14.93c-0.7013 1.335 0.9416 3.898 2.787 3.167 1.846-0.7306 2.28-3.249 1.002-4.037-1.278-0.7877-3.088-0.465-3.789 0.8696zm3.305 0.357c0.6674 0.3771 0.5983 1.676-0.3314 2.044s-1.944-0.7585-1.436-1.602c0.5082-0.8433 1.1-0.819 1.768-0.4419z"/>
</g>
</g>
<g id="id_candle">
<path fill="#222" d="m314 132.2c1.183 0.2761 2.261 0.0319 2.62-0.2921 1.727-1.477-1.186-5.363-1.313-7.468-0.127-2.106 0.0556-5.914-0.119-7.754-0.1747-1.84-4.323-2.73-7.824-2.571l-0.1334-2.34c2.282-0.5014 5.81-5.352 4.761-8.89-1.048-3.537-4.551-10.46-5.589-16.9-1.596 9.792-4.813 14.12-5.643 17.67-0.8293 3.557 0.3529 8.306 4.469 8.659l-0.0244 1.765c-4.596 0.3882-6.255 0.8732-6.546 2.416-0.2914 1.543-1.091 34.58-0.6071 44.89 7.164 4.108 13.81 1.307 15.24 0.3805 1.429-0.9265 0.386-21.61 0.71-29.56z"/>
<path fill="#ff8080" d="m313.7 116.7c-1.255 1.891-12.38 1.367-13.41-0.0482-1.025-1.415 4.176-1.456 4.788-1.581 0.4047 2.556 2.892 1.487 2.381 0.0878 0 0 7.496-0.3495 6.241 1.541z"/>
<path d="m299.2 128.1c-0.035 9.789-0.788 24.05-0.174 32.37 3.999 2.416 13.15 1.354 13.73-0.0528 0.5024-7.922 0.3314-20.44 0.4404-28.58-3.619-2.141-1.747-7.543-4.714-8.602s-2.751 3.458-2.806 5.737c-0.0551 2.278 2.03 10.81-1.651 10.58-3.682-0.2292-1.764-9.423-2.016-14-0.252-3.726-0.9305-3.67-1.57-4.935 4.536 4.196 0.0364 18.24 3.623 18.02 3.587-0.2187-1.519-15.82 3.113-16.52 4.633-0.6984 3.322 9.558 7.438 9.46 4.116-0.0986-0.3409-4.921-0.543-7.343-0.2022-2.423 0.0151-6.604 0.0151-6.604-3.258 3.289-14.19 0.6038-14.57-0.0749-0.2962 1.935-0.2905 7.052-0.3157 10.55z" fill="#c02222"/>
<path fill="#ffff80" d="m306.4 91.66c-0.8572 4.768-3.945 9.3-4.359 12.34-0.4137 3.042 0.7975 6.377 3.21 6.597 0.2524-1.508 0.204-4.221 1.459-5.81 0.6242 0.193 0.9993 0.4826 1.43 0.6231-0.5616 1.254-1.254 3.691-1.016 4.924 2.664-1.666 4.007-5.434 3.294-7.804-0.7123-2.37-3.137-5.255-4.018-10.87"/>
<rect height="92.02" width="63.11" y="73.41" x="274.9" fill="none"/>
</g>
<g id="id_robot">
<path fill="#222" d="m383.7 93.73-7.418-7.773 0.359-0.399 7.418 7.742c3.379-3.262 7.078-2.992 10.19-0.433l7.308-7.668 0.395 0.324-7.09 7.922c3.128 3.454 4.475 8.022 5.498 11.95 2.253 0.3857 5.727-0.7361 6.346 3.276 12.56 1.474 11.34 8.682 11.33 16.84 1.867 1.134 2.109 6.873-2.121 7.323-0.105 0-1.426-1.467-1.426-1.467s-1.881 1.422-2.096 1.277c-3.791-2.734-2.488-6.957-0.418-7.555 1.316-5.827-0.0169-9.349-5.344-9.472-0.035 2.769-0.0571 12.61-0.4477 12.95-0.3907 0.3362-2.778 0.8473-2.778 0.8473 0.4218 9.062-0.013 20.25-0.1216 23.39 1.945 2.773 4.311 3.428 3.383 7.019-5.11 0-9.684 0.2891-15.52 0.1055-0.3307-3.297 0.2923-4.349 2.559-6.8-0.5971-4.312-0.6779-12.78-0.2456-23.32l-5.423-0.1335c-0.0193 9.652-0.5647 15.94-0.2731 23.7 2.975 1.436 2.751 4.379 2.52 6.371-6.371 0.2891-11.38 0.1797-16.81 0.1797-0.5452-3.898 1.256-5.584 4.068-6.829 0.0914-4.924-0.4352-13.11-0.1072-24.24-1.346-0.1494-2.226-0.142-3.073-0.6514-0.8474-0.5094-1.068-8.853-1.032-11.88-6.662-1.842-5.833 7.582-5.59 9.013 3.623 2.989 1.861 6.452-0.7416 7.935-1.163-0.8539-1.86-1.596-1.86-1.596s-0.8622 0.7825-2.066 1.567c-4.908-2.671-2.51-7.495-1.083-8.192-1.566-9.067 0.6011-15.91 11.74-15.78 0.2733-3.453 1.656-3.167 4.895-3.492 1.747-5.614 1.138-7.029 5.079-12.06z"/>
<path d="m398.6 105.3c-7.453 0.25-12.12 0.0213-17.8 0.5281 3.001-19.88 15.56-15.96 17.8-0.5281z" fill="#e3e31b"/>
<path id="h" d="m366.6 131.9c-0.219-0.105-0.469-0.394-0.902-1.007 3.448-4.283-5.03-3.827-1.188 0.109-0.105 0.144-0.8687 0.8929-1.303 0.9979-3.97-2.215-1.534-6.582 1.555-6.504 3.578 0.0904 6.462 4.404 1.838 6.404z" fill="#e3e31b"/>
<use xlink:href="#h" transform="matrix(.9933 .1083 -.1153 .9333 66.89 -31.08)" height="1052.3622" width="744.09448" y="0" x="0"/>
<g id="i">
<path fill="#a1a1a1" d="m369 114.9c-1.266 0.7425-2.316-1.083-2.623-2.186s7.146-2.555 7.193-1.362c0.0478 1.194 0.1893 3.016-0.3545 2.984-0.5439-0.0322-2.951-0.178-4.216 0.5645z"/>
<path fill="#a1a1a1" d="m366.1 119.1c-0.3324 0.178-2.244 0.2574-2.744-0.1755-0.5002-0.4329 0.6522-4.869 1.576-5.012 0.924-0.1426 2.006 2.099 2.099 2.358 0.0935 0.2589-0.5986 2.652-0.931 2.83z"/>
<path fill="#a1a1a1" d="m366 120.4c0.2569 0.4381 0.3817 3.838 0.084 4.152-0.2977 0.3142-1.999 0.201-2.393 0.0702-0.3942-0.1308-0.8051-4.023-0.3708-4.458s2.423-0.2021 2.679 0.236z"/>
</g>
<use xlink:href="#i" transform="matrix(-.9468 -.02879 -.03040 .9995 764 10.66)" height="1052.3622" width="744.09448" y="0" x="0"/>
<path id="g" d="m386 95.75c1.43 0 2.594 1.211 2.594 2.699s-1.164 2.699-2.594 2.699c-1.429 0-2.593-1.211-2.593-2.699s1.164-2.699 2.594-2.699zm-2.16 2.699c0 1.172 0.922 2.125 2.051 2.125s2.051-0.953 2.051-2.125-0.922-2.125-2.051-2.125-2.051 0.953-2.051 2.125zm3.598-0.11c0 0.813-0.613 1.477-1.367 1.477s-1.368-0.664-1.368-1.477c0-0.812 0.614-1.476 1.368-1.476s1.367 0.664 1.367 1.476z" fill-rule="evenodd" fill="#222"/>
<use xlink:href="#g" transform="matrix(-.9766 .2149 -.2149 -.9766 790.4 111.7)" height="1052.3622" width="744.09448" y="0" x="0"/>
<path fill="#e0e0e0" d="m404.7 127.4c-0.4039 1.129-28.85 1.131-29.48-0.074-0.6252-1.205-0.611-19.15 0.3739-19.85 0.9849-0.7002 27.63-1.356 28.93-0.3546 1.297 1.002 0.5846 19.15 0.1807 20.28z"/>
<path fill="#222" d="m390.7 115.4c0.215-0.469 9.719-0.539 10.3-0.071 0.289 0.215 0.25 7.774-0.145 8.172-0.433 0.465-9.539 0.43-9.972 0.035-0.325-0.289-0.395-7.488-0.18-8.136"/>
<g id="b">
<path id="f" fill="#222" d="m383.3 110.4c0.105 0.109 0.105 3.277-0.074 3.457-0.18 0.215-4.176 0.18-4.391 0.035-0.144-0.144-0.18-3.168-0.07-3.457 0.105-0.18 4.281-0.215 4.535-0.035z"/>
<path d="m382.4 111.1c0.11 0.075 0.075 1.946-0.035 2.051-0.109 0.11-2.449 0.11-2.554 0-0.11-0.07-0.11-1.871-0.075-2.015 0.075-0.145 2.52-0.145 2.664-0.036z" fill="#00F"/>
</g>
<use id="e" xlink:href="#b" transform="translate(5.873 -.03968)" height="1052.3622" width="744.09448" y="0" x="0"/>
<use xlink:href="#b" transform="translate(12.06)" height="1052.3622" width="744.09448" y="0" x="0"/>
<g id="k">
<use xlink:href="#f" transform="translate(17.62 -.07937)" height="1052.3622" width="744.09448" y="0" x="0"/>
<path d="m400 111c0.07 0.035 0.07 1.946-0.035 2.051-0.11 0.109-2.485 0.109-2.594 0-0.07-0.07-0.109-1.871-0.035-2.016 0.035-0.144 2.519-0.144 2.664-0.035z" fill="#d92525"/>
</g>
<use id="d" xlink:href="#e" transform="translate(-5.913 4.881)" height="1052.3622" width="744.09448" y="0" x="0"/>
<use xlink:href="#d" transform="translate(6.032 .03968)" height="1052.3622" width="744.09448" y="0" x="0"/>
<use id="c" xlink:href="#k" transform="translate(-17.58 9.921)" height="1052.3622" width="744.09448" y="0" x="0"/>
<use xlink:href="#c" transform="translate(5.992)" height="1052.3622" width="744.09448" y="0" x="0"/>
<path d="m400 116.1c0.3416 0.2695 0.2367 6.191-0.105 6.551-0.3417 0.3597-7.65 0.3045-7.957 0.035-0.3065-0.2695-0.3251-6.067-0.145-6.516 0.1801-0.4491 7.865-0.3395 8.207-0.07z" fill="#2525d9"/>
<path fill="#404040" d="m404.9 158.9c-2.16 0.161-8.531 0.2002-11.66-0.1219-1.689-7.916 13.34-6.164 11.66 0.1219z"/>
<path fill="#404040" d="m388 158.5c-2.16 0.1469-9.574 0.3692-12.71 0.0396-1.162-7.266 14.77-5.756 12.71-0.0396z"/>
<g id="j">
<path id="a" d="m379.2 129.6c0.341-0.2771 6.816 0.0404 7.186 0.3436 0.3696 0.3032 0.451 5.713-0.1078 6.124-0.5588 0.4106-6.796 0.4789-7.312 0.0298-0.5161-0.4491-0.107-6.22 0.234-6.497z" fill="#a1a1a1"/>
<use xlink:href="#a" transform="matrix(1 .009841 .01055 -1.072 -1.384 280)" height="1052.3622" width="744.09448" y="0" x="0"/>
<use xlink:href="#a" transform="matrix(1 0 0 .9348 0 25.01)" height="1052.3622" width="744.09448" y="0" x="0"/>
</g>
<use xlink:href="#j" transform="matrix(-1 0 0 .9808 781.2 2.736)" height="1052.3622" width="744.09448" y="0" x="0"/>
</g>
<g id="id_banana">
<rect height="66.36" width="92.04" y="-5.089" x="169.4" fill="none"/>
<path fill="#222" d="m181.1 26.27c14.36 0.641 27.17 3.891 37.39 1.988s11.11-3.905 16.4-5.706c4.102-1.402 7.829-2.063 11.65-2.891 1.474-0.8551 3.728-2.625 5.974-5.295l2.822-0.7332 4.211 2.27-1.582 1.762c-3.199 2.29-7.754 4.584-8.606 6.336-0.3512 5.206-4.817 12.51-16.91 16.68-12.09 4.172-33.79 3.832-40.5 0.7999s-9.262-4.896-11.44-8.427c-2.16-2.734-1.98-1.773-3.672-2.637l0.7452-4.89c1.23 0.1731 1.975 0.5643 3.522 0.7424z"/>
<path d="m180.9 27.19c13.97 1.385 23.11 2.847 32.95 2.751 9.834-0.09526 18.73-5.661 23.31-7.106 4.5-1.45 6.5-1.27 9.8-2.18 1.545-1.732 3.41-1.941 6.008-5.443l1.836 1.441-1.477 1.656 2.02-1.512 1.561 0.551c-3.19 2.004-5.915 3.708-8.293 6.065-1.492 8.876-11.86 17.02-27.19 18.61s-31.51 2.099-41.21-10.56c9.947 4.931 21.49 6.837 34.08 5.563s19.14-3.808 30.07-8.813c-2.369 0.5675-15.36 6.538-30.1 8.011s-23.53-0.9602-33.97-5.239c0.6616-2.05 1.362-2.075 0.5566-3.802z" fill="#efdc38"/>
<path fill="#804000" d="m177.5 30.19c0.1725 0.1219 1.966 0.7786 2.047 0.6859 0.0806-0.09265 0.719-2.206 0.7523-2.602 0.0345-0.4113-0.6707-1.464-0.7528-1.666-0.0821-0.2014-1.392-0.3692-1.545-0.06954-0.1528 0.2997-0.674 3.53-0.5015 3.651z"/>
<path fill="#804000" d="m256.5 16.66c0.4438-0.0031 1.61-0.3753 1.641-0.6904 0.0304-0.3151-2.646-1.789-3.001-1.67-0.3558 0.1189-1.594 0.2687-1.358 0.888 0.0791 0.2072 2.275 1.475 2.718 1.472z"/>
</g>
<g id="id_scissors">
<g fill-rule="evenodd">
<path d="m73.09 42.55c-3.15 3.95-14.96 5.105-17.8-3.897-2.83-9 9.18-9.71 24.63-12.29 7.8-3.72 28.68-15.5 46.68-12.6l-42.19 15.38c-3.276 2.373-7.36 2.71-10.92 3.99 0.6318 2.252 2.746 5.467-0.4043 9.417zm-10.38-8.96c-3.95 1.893-3.534 5.39-1.079 7.481s9.189 0.1288 10-2.938c0.82-3.06-4.97-6.43-8.92-4.54z" fill="#222"/>
<path d="m59.71 42.77c-5.25-4.11-3.53-10.05 1.56-11.66 5.09-1.62 12.75-2.38 19.19-3.77 11.15-6.75 30.54-13.72 41.24-13.11l-37.87 13.86c0 0.6484-0.7578 0.9023-2.773 1.801-2.445 1.117-7.45 2.342-8.782 2.701 5.467 10.71-7.312 14.3-12.56 10.19zm-0.96-7.06c-1.404 3.677 2.091 8.27 7.968 7.174 5.878-1.096 8.276-6.247 3.746-9.324s-10.31-1.528-11.71 2.15z" fill="#a1a1a1"/>
<path d="m57.07 9.981c-4.7 4.719-3.61 12.47 11.83 14.36l10.44 1.656c10.57 7.572 31.08 12.94 37.74 13.43 6.667 0.4928 7.916-0.1842 8.98-0.8326l-42.19-15.37c-2.42-2.35-7.77-2.95-11.32-4.26 1.18-1.61 3.66-5.4 1.08-8.45-2.58-3.044-11.9-5.258-16.6-0.539zm2.91 2.409c2.21-2.461 8.1-2.625 10.69 0.84 2.58 3.46-3.78 7.19-8.1 6.04s-4.8-4.42-2.59-6.88z" fill="#222"/>
<path d="m57.96 10.49c-4.113 4.728-1.452 8.512 2.96 10.66 4.41 2.13 11.48 2.36 14.65 3.01l4.539 1.117c0.2669-0.5119 1.283-1.203 1.283-1.203-0.3628 0.5849-0.7247 1.05-0.7606 1.382 11.58 7.316 32.76 13.95 42.07 13l-33.91-11.92c-0.9307 0.4369-0.907 1.091-1.082 1.586-0.01553-0.5551-0.05542-1.25 0.3242-1.945l-4.824-1.91c0.03-0.61-0.76-0.9-2.74-1.8-2.45-1.12-7.93-2.7-9.23-3.07 9.65-11.44-9.16-13.64-13.28-8.91zm4.856 9.883c-4.274-1.041-6.697-4.407-4.057-8.083s9.61-3.845 12.92 0.7516c3.309 4.596-4.587 8.372-8.861 7.331z" fill="#a1a1a1"/>
</g>
<path fill="#222" d="m85.88 26.41c-0.02-0.19 0.05-0.84-0.59-1.02-0.65-0.18-1.05 0.11-1.41 0.43z"/>
<path fill="#222" d="m85.8 26.82c-0.1446 0.2324-0.609 0.736-1.254 0.5524-0.6485-0.2148-0.7438-0.6696-0.779-1.134z"/>
<rect height="55.58" width="93.83" y="-0.18" x="37.71" fill="none"/>
</g>
<g id="id_flower">
<path fill="#222" d="m219.7 161 4.808 0.4218c-0.3677-4.175-0.7109-7.657-0.3961-15.23 0.3148-7.576 0.9718-11.66 1.656-15.1 8.305-0.4331 9.997-4.341 8.221-11.58-4.305 1.026-6.558 4.372-7.723 8.197l3.913-19.28c0.0682 3.679-1.431 5.763 0.4472 7.587 1.878 1.825 5.936 1.434 7.145-0.9178 1.208-2.351-1.157-5.936-1.969-8.879 1.466 2.208 2.534 4.99 4.99 4.728 2.456-0.2619 4.961-3.48 4.331-5.831-0.6296-2.351-4.331-2.286-7.456-3.705 3.862-0.0773 6.104 1.668 8.193-0.6814 2.089-2.35 1.329-8.25-1.314-8.981-2.643-0.7312-4.389 1.533-6.668 3.676 1.944-3.283 4.33-5.662 3.385-8.485-0.9448-2.823-5.162-4.033-7.303-2.311-2.141 1.721-1.391 5.044-1.285 8.798-0.7609-4.44-1.538-7.854-4.124-9.039s-5.567 1.499-6.224 4.702c-0.6566 3.203 2.388 4.99 5.095 7.17-3.074-1.129-5.989-2.126-7.981-0.7865-1.993 1.339-2.086 4.831-0.4188 6.486 1.667 1.654 4.941 0.006 7.456-0.2364-1.711 0.8897-6.121 1.668-6.778 4.307s1.826 5.978 3.756 6.594c1.931 0.6168 3.782-2.813 4.779-5.175l-5.358 25.29c-0.9938-9.567-4.278-13.06-12.28-11.33-0.4755 12.2 7.489 13.42 11.36 13.64-0.2364 1.627-1.445 4.201-1.812 10.74-0.3677 6.538-0.3166 10.32-0.448 15.2"/>
<g>
<path d="m212 122.5c-0.0192 8.587 2.874 10.66 10.92 12.02-2.015 6.583-2.358 11.84-2.122 25.23l2.483 0.3493c-0.3606-9.588-0.3817-17.85 1.878-29.53 8.097-0.855 9.047-2.988 8.32-9.758-5.445 1.475-5.522 6.573-8.248 9.153 1.522-8.477 3.266-16.84 4.842-23.59l-0.005-0.9723-1.093 1.394c-1.834 10.14-5.767 27.45-6.01 27.5-1.457-2.047-0.9296-14.51-10.97-11.81z" fill="#26d626"/>
<path d="m236.3 98.36c1.333 2.364-0.4573 5.98-3.789 5.98s-5.139-3.534-3.557-6.559c1.583-3.025 6.013-1.785 7.345 0.579z" fill="#d9d925"/>
<path d="m235.1 85.44c-2.241 1.068-1.576 7.321-1.656 9.583 1.026 0.1569 1.607 0.6384 2.553 1.322 0.9718-0.8926 4.508-6.136 4.05-8.536-0.4584-2.4-2.707-3.437-4.947-2.369zm-11.59 4.27c-0.2153 2.741 3.906 5.709 5.562 6.499 0.866-0.7894 2.186-1.41 3.078-1.436 0-1.602-1.6-7.889-3.409-8.916-2.547-1.445-5.016 1.112-5.231 3.854zm20.44 2.901c-2.311 0.2222-5.493 3.401-6.992 4.715 0.4472 0.8915 0.555 1.278 0.6612 2.645 1.759 0.3691 5.703 1.364 7.41 0.1824 1.706-1.181 1.233-7.764-1.078-7.542zm-22.65 3.205c-2.302 0.4633-3.066 5.025-0.8208 5.722 2.246 0.6971 5.541-0.8785 7.196-1.089-0.1569-1.157 0.2347-2.126 0.5244-3.123-2.6-0.844-4.597-1.973-6.9-1.51zm6.672 6.457c-1.682 0.3677-6.25 1.74-7.143 3.618s1.257 6.23 3.51 5.49c2.046-0.6715 3.359-5.19 5.092-6.897-0.7098-0.7609-0.9849-1.108-1.459-2.211zm9.37 0.0456c-0.4188 0.8404-0.8952 1.633-1.55 2.234 0.7354 1.576 2.972 4.802 4.588 5.183 1.616 0.3805 4.905-2.285 3.802-4.294s-5.027-2.519-6.84-3.123zm-3.146 3.078c-1.075 0.2656-1.585 0.3652-2.713 0.1824-0.6303 1.995-1.004 7.174-0.1892 9.092 0.8153 1.918 5.306 1.595 5.661-0.6493 0.3549-2.244-1.445-7.232-2.759-8.626z" fill="#da2a2a"/>
</g>
<rect height="94.26" width="82.87" y="68.48" x="188.7" fill="none"/>
</g>
<g id="id_fish">
<rect height="83.94" width="93.19" y="80.98" x="47.42" fill="none"/>
<path fill="#222" d="m101.4 98.46c0.7946 1.586 0.3669 5.744 1.32 6.854 9.893 2.774 12.94 7.924 16.11 14.25 1.96-5.857 6.558-11.22 15.25-13.38-2.591 6.552-10.29 20.41 1.905 33.23-6.286 2.056-16.65-5.421-17.77-10.69-6.437 27.28-44.19 20.37-52.31 1.787-0.4288-0.0522-1.06-0.1621-1.357-0.1889-0.6367-4.258-1.212-6.719 1.53-12.04-5.546-5.904 3.251-13.22 7.72-9.025 4.986-3.484 11.29-5.539 17.41-5.539 6.36-2.987 7.137-3.624 10.19-5.256z"/>
<path d="m65.57 128.8c4.926 1.442 12.29 0.884 15.96-1.888-4.176 4.47-9.719 4.347-14.34 3.773 9.555 19.49 46.85 22.48 50.89-4.402l0.5657-4.069c-7.156-18.76-29.45-20.88-41.86-12.98 9.287-1.636 9.808 7.057 6.161 11.22-4.25 4.851-15.8-1.594-8.672-9.77-5.537 4.28-9.757 11.3-8.704 18.11z" fill="#c1ec93"/>
<path fill="#222" d="m86.08 138.3c3.94-7.777 5.063-14 0.2107-23.78 2.858 8.079 4.207 13.74-0.2107 23.78z"/>
<path fill="#222" d="m99.57 122.8c2.262 4.055 0.593 3.89-0.6341 6.777s1.751 6.861 1.751 6.861-7.261-4.498-8.371-8.491c-1.581-5.556 3.126-11.99 8.579-13.39-0.8937 1.365-3.587 4.183-1.325 8.239z"/>
<path fill="#20bb20" d="m100.7 100.1c-2.65 1.299-5.578 2.587-7.528 3.695 1.967 0.13 4.445 0.1986 8.033 1.102-0.00041-1.969-0.1251-2.776-0.5049-4.797zm31.72 7.872c-21.99 10.89-12.55 29.41 1.538 30.91-12.03-12.64-1.538-30.91-1.538-30.91zm-33 7.987c-9.297 5.402-8.459 13.44-0.2525 18.5-1.213-2.71-1.945-2.71-1.056-5.462 0.8889-2.752 2.644-2.83 0.4361-6.036s0.05317-5.938 0.8721-7z"/>
<path d="m70.28 112.3c-1.658-1.015-3.042 1.407-1.924 2.47-0.771 1.141-1.141 1.536-1.769 2.598-3.283-4.334 2.086-10.01 5.961-7.221-0.5375 0.494-1.423 1.026-2.268 2.152zm8.086-2.084c-4.026 0.0269-6.625 6.457-3.27 9.099 4.161 3.277 8.156 0.4719 8.533-3.1 0.286-2.709-0.8046-6.029-5.263-5.999zm0.8766 3.587c1.601-0.1011 2.335 1.341 2.102 2.43-0.2334 1.089-1.997 2.195-3.312 1.106-1.314-1.09-0.3905-3.435 1.21-3.536z" fill="#fff"/>
<path fill="#222" d="m87.53 138.1c3.94-7.777 5.063-14 0.2107-23.78 2.858 8.079 4.207 13.74-0.2107 23.78z"/>
</g>
<g id="id_key">
<rect height="76.63" width="99.86" y="186.8" x="42.34" fill="none"/>
<path fill="#222" d="m58.81 225.4c0.1715-16.19 22.93-26.27 31.99-7.169 0.8605-2.791 4.435-1.81 3.983 0.9124 13.45-1.106 26.81-0.7382 39.12-0.7329 3.185 1.882 6.628 5.313 6.919 6.306-0.9883 0.4974-3.711 6.013-5.129 7.399-3.647-1.79-5.415-2.606-7.596-3.52-1.44 1.484-2.571 2.3-4.645 5.198-1.013-1.779-3.158-3.86-3.96-4.934-0.8046 0.8189-2.945 2.979-4.634 4.585-0.8908-1.597-1.515-1.755-2.127-2.395-0.5675 0.4526-1.722 2.39-2.755 3.277-2.095-2.275-3.785-3.461-7.93-3.788-0.9356 1.866-2.092 3.033-3.043 4.648-1.72-2.172-3.523-1.699-4.558-0.7973-1.541 2.454-3.444 0.7767-4.606 0.2438-11.88 15.06-31.19 6.961-31.02-9.232zm13.86-3.409c-2.786-1.444-5.948 1.247-5.565 3.648 0.3827 2.401 2.046 3.233 4.438 2.621 2.392-0.6116 3.913-4.824 1.127-6.269z"/>
<path fill="#999" d="m60.04 225.3c-0.2821-8.897 8.602-16.49 16.83-16.07 8.225 0.4295 11.42 6.285 13.56 11.32 0.6758-0.9428 1.458-2.719 2.509-2.638 1.051 0.0808 0.89 0.5426 1.056 2.131 11.65-0.7629 28.19-0.6376 39.04-0.6165 2.962 2.08 3.935 2.139 6.13 5.086-1.731 2.354-2.152 3.131-3.507 5.621-2.645-0.9707-1.542-1.018-7.93-2.955 0 0-1.827 1.592-4.256 4.057-1.841-1.492-3.984-3.911-3.984-3.911s-3.147 2.286-4.426 3.464c-2.046-1.259-1.997-1.189-2.784-1.556-0.6091 0.7421-1.372 2.231-2.406 2.871-1.593-2.108-5.52-2.995-8.141-2.949-1.181 1.305-2.089 2.283-3.033 3.623-2.025-1.589-4.838-0.655-4.838-0.655-0.2216 2.808-3.416 2.782-3.907 0.0273-3.129 5.928-9.069 9.526-16.05 9.362-6.983-0.1648-13.57-7.322-13.85-16.22zm6.026-1.259c-1.018 4.034 2.601 6.223 5.7 5.198s4.25-4.036 2.918-6.902c-1.331-2.865-7.601-2.33-8.619 1.704z"/>
<path fill="#222" d="m87.63 226c-0.01484-4.39-0.5573-8.744-2.354-10.35 0.2661 3.059 0.9189 3.654 0.7772 10.23-0.1417 6.573-1.109 7.71-2.145 10.54 1.924-1.742 3.736-6.032 3.721-10.42zm3.534 4.502c-0.8903-2.78-0.8557-6.098 0.1554-8.507 0.9212 2.881 1.183 5.191-0.1554 8.507zm44.36-4.985c-2.29 0.804-3.155 0.503-18.86 0.7256-15.71 0.2226-16.54 1.442-19.88 0.4034 2.223-0.9494 6.219-1.008 20.48-1.301s15.97-0.5425 18.26 0.172zm-38.86-2.23c3.358-2.098 4.366-1.127 17.9-1.56 13.53-0.4334 17.45-0.946 19.64 0.578-2.574 1.434-3.288 1.118-16.79 1.464-13.51 0.3467-17.37 1.259-20.74-0.4813z"/>
</g>
<g id="id_horse">
<rect height="73.46" width="82.24" y="186.5" x="186.1" fill="none"/>
<g>
<path d="m194.6 201c1.293-2.064 1.695-2.78 3.269-4.35-1.647-1.093-1.529-5.495 2.788-4.627 0.8756-1.533 1.079-2.464 2.147-5.181l1.609 3.298c1.134-0.6954 2.318-0.8046 3.076-0.5964 0.5276-1.226 1.33-1.95 2.072-2.782 0.1803 1.049 0.2142 2.156 0.5631 3.137 3.648 1.914 3.965 0.9736 6.013 5.24 0.8074 1.682 4.807 4.134 5.974 8.145 1.067 3.666 4.328 4.555 4.744 8.012 11.33 4.254 23.15-9.681 32.28 3.364 4.077 3.114 1.504 14.81 9.065 20.08-2.77 1.942-9.581-1.633-8.526-14.26-1.062 8.177-4.658 11.05-3.781 15.43-1.707 3.74-2.229 12.71-0.724 19.77-1.164 0.726-1.967 0.5798-2.976 0.6435l0.5631 2.896c-2.658 0.2879-5.118 0.8079-6.757 0.0805 2.181-7.657 1.334-15.84 3.129-21.64-2.653-1.272-4.302-4.096-5.14-6.978-9.048 2.961-13.81 1.706-20.43 0.724-0.456 3.88 0.0212 17.26 0.0296 20.4 0.002 0.7951 0.5365 2.101-0.008 3.459-0.8493 0.2598-1.581 0.1772-2.355 0.1746 0.4803 1.26 0.3951 2.52 0.2413 3.781-2.421 0.0947-4.599 0.4663-7.722-0.2413 0.262-1.367 1.36-2.735 2.574-4.102 0.2896-18.1-5.039-23.05-5.872-35.21-1.517-4.486-3.131-8.062-4.362-13.4-2.708 1.713-4.084 1.613-6.888 2.589-4.079 3.946-8.36-0.854-7.573-4.87-0.6201-1.728 0.1118-2.839 2.976-2.976z" fill="#222"/>
<path d="m209.1 188.4c-0.9923 0.7621-1.504 2.02-2.122 3.231-0.6766-0.089-1.485-0.1259-2.502-0.0633-0.4726-0.7475-1.062-1.528-1.489-2.597-0.4533 1.178-0.8311 2.419-1.458 3.681 3.971-1.013 4.195 2.651 3.38 4.193-0.8143 1.542-4.139 2.851-5.28-0.5766-2.844 2.206-2.864 3.625-4.533 5.496-2.732-0.0492-2.973 1.172-2.595 2.327-0.1537 6.731 6.268 7.263 9.344-1.121 0.0792 1.478-0.029 2.964-1.299 4.593 5.167-1.414 8.17-3.509 9.185-6.335-0.3766 2.533-1.434 3.295-2.724 4.529 2.56 8.084 3.025 6.435 5.18 13.84-0.3534 3.442 5.564 19.31 5.443 34.9l2.206 0.025c0.3817-9.416-0.7101-24.77 2.882-30.3-0.3777 1.718-0.7693 3.107-0.8301 4.746 7.259 2.299 15.23 2.697 21.97 0.4626-0.0225-3.104 0.1454-3.341 0.4309-4.448 0.3791 4.835 1.239 9.42 5.955 12.16-1.436 5.441-1.889 13.95-2.135 17.82 1.022 0.0444 1.85 0.4155 3.117 0.2144-0.3462-8.26 1.594-18.74 2.546-20.66 1.454-5.762 8.491-15.18 2.241-21.76-6.726-7.091-18.04 2.217-28.73 0.1892-8.474-2.58-12.57-15.54-17.7-20.46-0.4901-0.9508-0.4886-2.631-0.4751-4.086zm-13.27 15.01c0.4681-0.0682 0.9872 0.1734 1.52 0.6335-0.0495 0.5602-0.0936 1.149-1.14 0.6018-0.6466 0.7686-1.247 0.6815-1.704-0.1422 0.3817-0.7701 0.8557-1.025 1.324-1.093z" fill="#af6330"/>
<path d="m199.3 195-0.9297 1.113c-2.127-1.738 0.4196-4.927 2.275-3.356l-0.9101 1.586c-0.1872-0.8763-1.01-0.7368-1.213-0.3325-0.2031 0.4044-0.0875 1.188 0.7779 0.9898z" fill="#fff"/>
<path d="m200.3 194.4c-0.7013 1.335 0.9416 3.898 2.787 3.167 1.846-0.7306 1.943-3.361 0.6651-4.149-1.278-0.7877-2.751-0.3528-3.452 0.9819zm3.088 0.5384c0.3827 0.2162 0.3431 0.9609-0.19 1.172-0.5331 0.211-1.115-0.4349-0.8235-0.9185 0.2914-0.4836 0.6308-0.4696 1.014-0.2534z" fill="#fff"/>
<path d="m221.7 231 1.144 0.1792c-0.3947 5.577-0.3279 14.66-0.1338 20.23l-1.591-0.0887c0.0236-5.939 0.099-15.31 0.5805-20.33z" fill="#784421"/>
<path d="m254.8 235.7c-1.789 7.395-1.163 13.14-1.199 16.67l-1.172 0.1102c0.0263-6.546 1.632-15.23 2.371-16.78z" fill="#784421"/>
</g>
</g>
<g id="id_dog">
<rect height="86.24" width="102.6" y="173.9" x="265.9" fill="none"/>
<g>
<path d="m286.7 209.7c0.3432-0.5337 9.694-0.6412 9.694-0.6412-2.421-1.235-0.4294-6.78 2.547-5.908 0.6127-1.048 0.5482-2.055-0.7364-3.103-1.098 0.9972-4.377 2.096-4.546 1.74-0.1691-0.3562 4.939-6.51 4.939-6.51 1.916 1.374 4.049 2.669 4.602 4.546 2.081-0.5036 4.62 0.1544 5.219 0.8979 2.181-1.246 4.376-2.491 7.801-3.592 1.782 1.628 5.168 9.6 4.686 10.35-0.4823 0.7542-5.865-4.405-5.865-4.405l-1.627 2.133c0.0633 0.717 2.368 7.677 3.089 9.38 0.1483-0.1146 0.2048-0.2858 0.3843-0.3364 0.6423 0.4405 2.547 2.479 3.117 3.568-0.067 0.1721-0.1515 0.1973-0.3612 0.5764 18.49 10.53 21.85 22.31 23.33 34.18 14.58-2.299 13.93-14.12 11.63-24.02 3.208 1.727 8.232 4.349 6.566 6.847-1.666 2.497 4.029 2.999 1.403 6.285s-0.2445 7.764-1.627 9.989c-1.383 2.225-8.701 4.964-17.93 5.083-0.7266 1.356-1.892 2.049-2.988 2.591-7.731 0.2327-15.94 0.0421-25.18 0.014-0.5123-1.54-3.058-7.238 9.148-6.454-6.019-3.261-7.082-5.744-8.481-7.994-1.932 3.578-1.759 11.77-1.93 11.92-0.1707 0.1478-1.76 0.2954-2.08 0.2245-0.0233 0.7811 0.0243 2.01-0.5283 2.262-3.417 0.01-8.249 0.2993-9.761 0s-1.104-6.232 5.13-6.976c1.191-8.531 3.012-17.11 1.515-26.24 0 0-1.187 0.085-1.403-0.0281-0.2159-0.1131-0.6536-2.326-0.7576-3.648l1.094-0.477c-2.112-0.9408-4.391 1.164-5.535 0.9787-1.144-0.1856-0.8983-0.6236-0.9184-1.287-1.762 1.03-4.365 0.7107-5.563 0.1848-3.62 0.5234-5.727-1.274-6.473-5.724-2.432-0.2776-1.945-5.88-1.601-6.414z" fill="#222"/>
<path d="m291.5 210.1 7.064-0.1984c3.136 3.259 6.023 0.583 7.014-0.7851 1.66-0.1447 10.69-2.388 2.907 12.39-3.22-1.994-8.136 2.275-7.659-0.0793 4.26-1.998 6.314-5.694 7.748-9.157 0.2013-0.0736 0.9668 0.3364 1.498 0.5456-0.6979-1.359-2.377-1.503-3.849-1.032 0.5853 0.0871 1.171 0.0604 1.756 0.2679-1.35 5.964-12.55 15.07-16.4 4.931 0.1819 2.498 0.9184 3.052 1.627 4.097-2.176 0.1991-3.723-1.532-4.405-5.04 2.004-0.4259 2.349-3.657 2.698-5.943z" fill="#d4aa00"/>
<path d="m316.2 238.4c3.483 2.439 4.051 3.79 4.608 6.283 0.1282 4.05 2.155 5.946 3.768 8.041-3.079-2.01-7.314-4.364-9.54-10.94z" fill="#d4aa00"/>
<path fill="#625417" d="m343.1 253.4c8.33-1.636 17.71-5.623 12.74-23.37 0 0 6.261 2.663 4.77 5.219-1.491 2.557 3.559 3.325 1.01 6.566s0.449 7.352-2.469 10.33c-2.918 2.974-16.05 3.985-16.05 3.985zm-23.68-34.6c23.04 15.09 22.39 33.23 22.95 37.51-0.5688 1.556-2.306 2.416-3.914 2.251 0.1329-0.5176 0.8871-3.094-4.272-9.851 1.359 3.589 4.681 7.369 2.918 9.821l-17.47-0.0281c-0.4331-0.5475-0.6137-1.232-0.484-2.034-0.3994 0.7209-0.4748 1.316-0.2175 1.964l-1.256-0.028c-0.2222-0.5599-0.5467-1.307-0.47-2.315-0.6157 1.115-0.4391 1.664-0.484 2.28l-1.34-0.007c-1.703-5.209 4.042-5.611 14.14-3.648-12.13-5.668-9.19-19.16 2.75-17.51-7.029-1.438-10.77 1.869-11.36 5.836-0.5241-1.753-2.691-4.296-4.441-5.288 0.1172-0.51 0.3772-1.542 0.4286-2.639-6.151 12.56-6.565 22.28-6.847 23.36l-4.56 0.0702c-0.3491-0.6599-0.1082-1.27-0.0421-1.894-0.5226 0.7634-0.5215 1.309-0.6173 1.894l-1.361 0.0421c-0.4363-0.5875-0.2574-1.544-0.1543-2.455-0.7363 0.9704-0.7839 1.7-0.7857 2.413-2.592-0.5366-0.1273-4.909 4.153-5.177 2.606-8.13 3.676-23.19 2.141-27.38 0 0 7.129-2.837 10.6-7.188zm-24.08-18.01c1.048-1.474 2.246-2.978 3.479-4.49 1.484 1.187 2.991 2.215 3.76 4.546 1.648-0.7603 4.363-0.0762 6.173 0.954 1.898-1.155 2.916-2.103 7.183-3.816 0 0 4.097 8.53 4.041 8.306-0.0561-0.2245-6.173-5.893-6.173-5.893l-4.097 2.525c1.496-0.047 3.195 0.5505 4.714-0.6173l-2.109 3.156c1.143 3.229 2.209 6.955 3.807 9.993-1.9 3.158-4.456 4.352-6.131 5.202 2.557-5.572 6.408-13.58-4.097-12.4 1.24-2.905-2.031-6.682-5.591-4.265-0.4044-0.4001-0.5352-0.487-0.9024-0.6668 1.337-1.646-0.7214-3.421-0.9706-5.282l-0.3928 1.627c-1.232 0.7782-2.172 1.204-2.694 1.122z"/>
<path d="m302.1 203.9c-2.509 0.2771-4.546 4.186-2.312 6.038 2.233 1.851 5.232-0.5702 5.488-2.403 0.2562-1.833-0.6664-3.912-3.175-3.635zm0.4675 2.503c1.087-0.0687 1.587 0.9113 1.428 1.651-0.1586 0.7399-1.357 1.492-2.25 0.7513-0.893-0.7402-0.2653-2.334 0.8221-2.402z" fill="#fff"/>
<path d="m299.7 204.4c-0.4846 0.5317-0.7765 0.9024-0.9918 1.403-0.1171-0.7641-1.207-0.6947-1.592 0.0463-0.3855 0.7411-0.042 1.796 1.006 1.625-0.0514 0.6769 0.0746 1.488 0.0746 1.488-4.272 0.0717-1.574-7.7 1.504-4.562z" fill="#fff"/>
<path d="m315.3 244.3c-1.04 2.358-2.135 4.415-2.301 11.87l-1.447-0.0678c0.1243-3.703 2.515-12.21 3.046-13.51z" fill="#2b2200"/>
</g>
</g>
<g id="id_cat">
<rect height="91.32" width="107.7" y="171.3" x="366.1" fill="none"/>
<g>
<path d="m391.4 212.8c3.76-2.53 4.882-3.994 6.005-5.668-0.8108-1.468 0.0215-4.24 2.501-5.053-0.1394-2.193 0.0335-4.773 0.6422-7.265 2.656 0.7109 4.452 2.479 5.836 5.808 0.4019-0.4723 0.4908-0.8924 1.291-1.431-0.0162 0.7783 0.1239 1.087 0.2525 1.431 0.0588-0.3805 0.1609-0.7741 0.954-1.375 0.1127 0.5566-0.2741 0.9734 0.5331 1.599 0.2888-0.4339 0.5515-0.8606 1.235-1.403 0.0547 0.7008 0.1709 1.299 0.449 1.627 3.11-2.863 5.981-4.732 8.642-5.724-1.589 5.109-0.4616 9.334-1.908 12.12 1.813 1.628 3.458 3.312 4.602 5.163-0.8321 0.5961-1.041 0.9229-1.431 1.375 0.8605 0.0415 1.872 1.176 2.357 1.88-0.926 1.403-1.719 2.14-2.497 2.806 2.744 4.521 9.537 0.0541 18.11 8.132 8.572 8.078 1.988 27.4 14.78 25.09 12.79-2.312 3.851-19.02 10.05-21.16 6.195-2.142 4.452 20.47-3.956 25.87-8.408 5.398-15.69 2.595-17.27 1.53-0.1844 0.4848 0.4088 1.349-1.836 2.146-2.245 0.7976-23.34 1.21-24.97 0.5331-1.636-0.6768-2.021-1.597-1.833-2.849-0.6288-0.8564-1.346-1.787-0.4672-2.621 0.9164-0.8694 1.758-1.085 4.354-1.411-1.611-0.73-2.925-1.665-3.372-2.834-2.071-0.8514-2.681-1.389-4.075-2.067-0.4262 3.403-0.3946 6.218-0.4732 9.174 0.3023 1.021 0.4358 3.055-4.273 3.025-4.709-0.0295-4.103-1.231-4.752-2.263-0.8134 0.3822-2.868 0.3474-3.574-0.5854-0.1004-2.45 0.4439-4.434 2.886-4.64l-0.3431-11.23c-3.653-3.491-7.029-11.7-1.126-21.08-2.768-1.295-3.064-3.287-7.42-4.677l1.964-2.301s-0.5654-1.181-1.852-1.684z" fill="#222"/>
<path d="m417.8 196.8c-2.298 1.727-4.768 3.044-6.781 5.438-2.482-1.181-6.211-1.062-8.547 0.375 0.1602 0.1145 0.8572 0.5045 1.236 1.151 3.462-3.62 7.982 0.3545 6.685 3.974-1.245 3.474-5.849 4.128-7.75 0.9062-2.374 0.8505-3.662 0.3764-4.562-0.5625-1.477 1.884-3.265 3.394-5.156 4.781l1.594 2.031-1.312 1.562c4.84 2.972 4.347 5.284 13.88 6.188-3.511 0.4027-5.416 0.1422-7.656-0.8438-5.278 12.51-0.9878 17.79 4.036 21.93l-0.3482-8.489c1.88 8.484 1.378 14.14 1.281 19.75-1.289-0.141-3.412 4.258-1.188 4.812-0.5452-0.6395-0.0136-2.107 0.0473-2.137-0.0197 1.579 0.3606 2.396 1.039 2.378-0.0103-1.017 0.1374-1.382 0.4946-1.979-0.5986 1.656 0.2932 2.303 0.9268 2.13 1.044 0.1095 1.879-0.1583 3.274-0.8917-0.2192-10.25 1.757-18.44 3.188-21.34l-1.719 9.75c2.285 1.857 5.811 3.261 8.719 4.752-3.089-3.241-2.452-9.174 5.625-11.1-11.89 5.158-5.814 13.89 4.188 14.34-7.64-0.2568-16.47 0.1363-13.44 4.031-0.0832-0.0747-0.0555-1.188 0.9688-1.906-0.403 0.512-1.203 2.179 0.3281 2.594-0.2461-0.4932-0.0771-1.909 1.172-2.438-0.4429 0.4455-1.246 1.655-0.5781 2.547 7.579-0.3439 21.66-0.2964 22.81-0.7848 1.152-0.4883 2.511-2.284-1.318-4.944 5.083 3.246 8.832 5.302 17.24 2.744 11.14-3.388 12.9-27.03 7.969-26.38-4.93 0.6514 3.412 19.45-10.34 21.62-13.76 2.177-8.204-15.59-15.06-24.31-6.859-8.723-14.95-4.309-18.47-9.062-1.476 0.8005-2.628 1.527-3.938 2.281 2.132-1.774 3.699-2.355 5.594-5.312-0.4124-0.7107-0.9757-1.709-2.438-2l1.469-2.031c-2.201-3.27-4.382-3.773-6.844-7.344 1.159-2.622 1.932-5.896 3.688-8.219zm-16.59-1.312c0.8696 1.655 2.153 4.214 2.125 5.844 0.7035-0.2003 1.264-0.4723 2.438-0.4375-1.179-2.358-2.099-3.983-4.562-5.406z" fill="#deaa87"/>
<path d="m414.9 204.7c0.3518 0.6672 1.453 1.619 2.359 2.289 1.19-2.639 0.2201-5.543 1.461-10.51-0.898 1.154-1.853 3.034-3.82 8.219zm-14.07-8.319c0.918 0.8938 1.539 3.15 2.055 5.193-0.5177 0.2362-0.7148 0.3923-1.016 0.5745-0.6387-0.1791-0.8679-0.179-1.193-0.221-0.0851-1.434-0.4545-2.644 0.1547-5.546zm15.08 55.24c3.605 1.756 4.64 2.177 6.85 3.214-6.473 0.1979-6.972 1.354-8.284 1.906-0.2058-1.284 1.54-2.045 5.8-2.378-2.589-1.274-4.069-2.068-4.365-2.741zm-14.8-8.1c0.9541 0.8906 0.2741 0.4688 2.047 1.672l-0.0469 8.641c-1.56 0.787-1.964 1.998-2.297 3.234-1.012 0.6805-0.9178 0.1878-1.781 0.2656-0.4745-1.871 0.9877-2.364 1.891-2.5z" fill="#c87137"/>
<path d="m398.5 210.3c1.274-0.0495 2.62 0.0174 4.265 0.5612-0.742 1.994-1.571 3.051-2.207 3.793l-0.206 1.51c6.956 4.037 9.297-2.409 8.446-3.676 2.729 1.713-2.803 9.116-8.783 4.013-3.295 3.696-9.88-2.722-3.059-6.398-4.237 2.396-1.938 9.418 2.723 6.004 0.1272-0.7431-0.1148-1.322-0.0999-1.541-0.6267-1.235-0.9014-2.583-1.079-4.267z" fill="#222"/>
<path fill="#fff" d="m403.3 204.2c-0.3616 0.5036-0.6725 0.9893-0.8388 1.693 0.0787-1.636-2.027-1.619-2.188-0.1769-0.161 1.443 1.654 1.764 2.116 0.698-0.0514 0.6769 0.0772 1.31 0.0772 1.31-3.201 2.052-5.148-1.022-4.284-3.167 0.8647-2.145 3.605-2.697 5.118-0.3566zm2.902-1.108c-2.509 0.2771-4.373 4.305-2.094 6.1 2.827 2.226 5.607-0.0389 5.863-2.466 0.1943-1.84-1.26-3.912-3.769-3.635zm0.8425 2.316c1.087-0.0687 1.587 0.9113 1.428 1.651-0.1586 0.7399-1.357 1.492-2.25 0.7513-0.893-0.7402-0.2653-2.334 0.8221-2.402z"/>
<path fill="#222" d="m396.4 215.3c-3.612 0.6786-5.02 2.475-6.385 4.388 2.977-3.348 5.08-3.278 6.511-3.651 0.4679-0.5075 0.3246-0.6377-0.1262-0.7375zm-0.6025-1.953c-5.881 0.0222-7.135 0.7295-9.077 2.478 3.409-2.381 6.707-1.825 8.94-1.645 0.6867-0.369 0.5819-0.561 0.1374-0.8338zm0.4257-1.624c-6.009-2.093-7.791-0.3804-9.415 0.7531 1.284-0.5076 4.056-2.485 9.043 0.006 0.764-0.1555 0.7189-0.3695 0.3719-0.7589zm10.55 4.212c4.425 1.179 5.708 2.85 7.228 5.107-2.977-3.348-4.674-3.59-7.355-4.369-0.4679-0.5075-0.3246-0.6377 0.1262-0.7375zm0.5712-1.734c5.881 0.0222 7.635 0.7295 10.26 2.853-4.19-2.6-7.114-2.169-10.13-2.02-0.6867-0.369-0.5819-0.561-0.1374-0.8338zm-0.0507-1.531c6.009-2.093 8.304-0.9612 12.02 0.7973-3.347-1.008-6.664-2.529-11.65-0.0385-0.764-0.1555-0.7189-0.3695-0.3719-0.7589z"/>
</g>
</g>
<g id="id_camel">
<rect height="74.25" width="87.17" y="187.2" x="480.8" fill="none"/>
<g>
<path d="m498.2 187.7c0.8 1.8 1.9 3.2 2.9 4-2.4-1.6-4.4 0.9-3.3 2.8-1.5 1.2-7 1.5-6.8 4.3-5.1 2.8-3.3 7.5-1.3 6.3 1 1.1 1.9 2.2 4.3 0.5 0.2 3 3 1.7 3.9-0.3 1.2-0.4 2.4-0.8 3.2-1.6 2.8 10.1-2.6 23.9 14.1 24.1 0.5 5 1.8 5.5 2.8 9.6-1.4 2-1.1 4.8 0.5 6.4-0.1 0.9 1.3 6.9 0.3 10-0.6 1.8-2.8 1.6-4.3 3.9 0.4 0.5 0.5 0.6 1.6 0.6-1.4 0.2-2.5 1.3-2.5 1.8 0.9 0.9 3.4 2.3 12.1 0.4 0 0-0.9-5.4-0.9-8.3s0.3-6 0.5-7.7c1-1.6 1.3-4.9 0.3-6.7 0-4.2 0.7-5.7 2.2-9.6 3.4 0.4 6.9 0.9 11.2-0.2 0.5 4.8 4.7 12.4 5.7 14.5 0.6 1.4-2.4 7.5-5 12.6-3.8 1.6-3.8 2.9-4 3.7 2.1 0.9 2.6 0.6 4.7 0.7-1.1 2.2 4.6 1.5 10.5 0.8 0.2-2.1-0.3-6.9 0.5-10.5s3-6.1 3.2-8.2-2.6-7.3-2.5-9.3c0.2-3 2.8-8 4.1-12.3 0.5 1 1.6 2.2 4 3.2 3.1 2.2 4.3 0.1 7.6-0.6-2.8 0.1-5.8-3-7.3-1-2.9-1-3.5-3.4-3.6-5.1-0.1-6-4.1-8-7.7-11.5-0.8-0.8-1.7-2.7-2.7-4.4-1-1.6-2.3-3.1-3.8-3.2s-2.3 1.7-3.1 3.4c-0.7 1.8-1.5 3.6-3 3.6-1.6 0-2-1.7-2.7-3.3-0.6-1.6-1.4-3.2-3.8-3.3-2.3-0.1-4.2 2.9-6.3 6s-4.5 6.3-7.8 6.5c-6.8 0.5-5.5-15.3-5.5-15.3 4.8 0.8 3.2-2.3 7.4-4.9-8.3 0.5-6.8 0.7-9.2 1l-0.4-2.2s-0.4 1-0.9 1.2c-0.4-1.4-0.7-2.1-0.7-2.1s-0.4 1.5-1 1.7c-0.6-1.4-2-2-2-2 0.3 0.8 0.5 1.3 0.1 2.1-1.3-1.2-3.6-1.7-5.6-2.1zm49.9 57.2c-0.1 2.7-0.8 5.6-1.7 9.4-0.6 0.5-1.5 1.6-1.9 1.6 1.6-5.9 2.1-6.3 3.6-11z" fill="#222"/>
<path d="m508.6 192.3c1.8-0.8 4.5-1.2 7.4-1.6-2.2 2.7-3.5 4.4-6.6 3.4 0 0-2.2 14.4 4.1 17.6 5.1 0.9 8-2.3 10.2-5.6 2.3-3.3 4-6.8 6.7-6.6 1.5 0.1 2.3 1.6 3.1 3.1 0.7 1.5 1.5 3 3.1 3 1.9 0.2 2.8-1.7 3.6-3.6s1.5-3.8 3.1-3.5c1 0.2 1.9 1.6 2.9 3.2s1.9 3.5 2.9 4.9c2.1 2.7 5.8 3.7 6.6 8.1 1 5.4-4.7 12-4.8 17.6-0.1 3.9 4.1 8.4 2 10.9-2.9 3.6-3.2 10.5-3 15.7-1.7 0.4-5.2 1.3-7.3 1 1.2-1.2 0.8-1 2-1.7-1.3 0.3-1.1 0.5-2.6 1 1.1-1.6 4.4-2.4 5.3-4.5s2.2-12 2-12.5c-1.6-4.1-5-8.8-5.6-10.7-2.1-6.9-2.3-14.5-2.3-14.5-0.5 3.1-0.8 5.9-0.2 9-4.8 1.9-9.2 1.8-13.2 1 0.5-1.8 0.3-3.6 0.5-5.5-2.8 10.5-3.8 10.4-3.8 16.5 0.9 2.1 0.2 4.9-0.4 6-0.6 5.4-0.6 9.6 0.4 15.1-3.4 1.3-5.1 1.1-8.3 1 1.2-0.8 1.5-1 2.4-1.2-1.1-0.1-1.5 0.2-2.9 0.5 1.8-0.9 3.9-1.5 4.8-3.8 0.6-1.4 0.9-10.9 0.9-10.9-1.2-2.4-1.2-4.1-0.1-6.6-2.7-5.9-3.5-10.8-4.3-17.2-0.1 2-0.5 3.1-0.5 5-15.9-0.4-10.7-8.3-14.3-23.1 0.8-0.9 1-1.3 1.7-2-3.5 2.3-6.1 2.9-8 5.4-0.6 0.1-1.2 0.1-1.2-0.9 4.2-2.5 4.8-3.9 4.8-5.2-2.1 3.3-5.5 3.9-7.5 5.3-3-0.2-2-3.2-0.5-4.6-2.6 1.4-2 2.3-2.6 3.4-0.8-1.3-0.6-3.8 2.5-4.8-0.9-1.6 2.7-3.1 6.8-4.4 0.5 0.4 1 0.4 1.7 0.2 1.3 2.4 4.1 1.6 4.7 0 0.8-2-1.1-3.7-2.9-3.2 0.7-0.7 1.1-1.1 2.5-1.5 1.9-0.5 3.4 0.5 4.2 1.8z" fill="#a07321"/>
<path d="m560.9 222.4c0.8499-1.191 2.578-0.151 4.315 0.2635-2.251 0.9398-3.163 1.043-4.315-0.2635z" fill="#7d5a1a"/>
<path d="m499.5 188.6c1.1 0.4327 1.783 0.3595 3.472 1.506-0.4804 0.2931-0.9703 0.5815-1.234 0.983-1.158-0.7145-1.616-1.614-2.238-2.489z" fill="#7d5a1a"/>
<path d="m492.9 199.5c1.1-0.1 2.7-1.2 2.7-1.2-0.7 1.6-1.6 1.7-2.7 1.2z" fill="#222"/>
<path d="m500.8 192.5c-0.2 0.3-0.4 0.5-0.6 0.9 0.2-0.8-0.9-0.8-1-0.2-0.2 0.7 0.6 1 0.9 0.5-0.1 0.4-0.1 0.8-0.1 0.8-1.4 0.8-2.3-0.8-1.7-1.9 0.5-1 1.9-1.1 2.5-0.1zm1.7 0c-1.3 0-2.4 1.9-1.4 3 1.3 1.3 2.9 0.4 3.2-0.9 0.2-0.9-0.5-2.1-1.8-2.1zm0.3 1.1c0.5 0.1 0.7 0.6 0.6 1-0.1 0.3-0.8 0.6-1.2 0.2s0-1.2 0.6-1.2z" fill="#fff"/>
<path d="m516.9 227.8c0.8749 4.687 2.156 6.969 3.494 10.3-0.9636 1.503-0.7733 4.166 0.2795 7.407-0.4581 3.393 1.592 10.03-3.145 12.16l-1.281 0.0466 0.6056-0.6522-0.9783 0.3261c0.8778-1.227 2.817-1.441 3.727-3.098 0.5755-3.734 0.3282-9.249-0.4658-11.25-1.558-1.841-1.131-3.835 0.0699-5.427-1.885-4.315-3.413-8.529-3.188-9.692zm23.15-0.1393c0.6144-0.1801 1.415-0.5571 1.415-0.5571 2.047 8.542 2.224 6.296 6.506 14.83-1.726 5.502-3.485 10.83-4.949 14.41-1.696 1.995-2.989 1.893-4.996 2.071 0.0736-0.5054 0.6066-0.7812 1.006-1.124-0.6643 0.1112-1.309 0.5106-1.952 0.9465 0.8024-0.7902 0.5947-1.308 3.49-2.662 0 0 6.21-11.56 5.317-13.19-0.8934-1.636-5.716-11.27-5.837-14.72z" fill="#624831"/>
</g>
</g>
<g id="id_crocodile">
<rect height="72.79" width="125.3" y="278.4" x="44.3" fill="none"/>
<path d="m49.73 336.7c-8.919-4.81 0.3118-12.94 8.889-9.365 3.352-0.168 8.718-0.7428 12.55-1.308-1.904-3.938 3.28-8.359 7.081-4.957 1.935-1.02 4.007-0.9008 5.721 0.6446 2.28-0.7256 4.988 0.3793 9.554 0.8305 6.303 0.0132 10.1-3.075 16.63-1.607 2.973 0.6687 4.311-2.083 9.642-0.3311 5.33 1.752 8.121-0.5614 12.1 1.76 3.983 2.321 7.374 4.284 17.51 4.546-3.903-2.334-7.444-5.977-8.024-9.575 2.809 6.202 17.76 2.536 27.39 9.441 0.7642 2.497-0.0245 5.798-0.1468 7.849-2.816 4.309-9.284 10.24-26.83 9.214 2.306 1.91-2.706 5.68-13.49 6.667 1.843-2.573-1.002-2.046-4.048-0.9524 1.376-3.595-1.438-2.704-5.198-0.9127 0.2342-0.9051 0.9436-1.86 2.024-2.976-4.264 0.5423-8.446 0.2513-11.67-0.3968-7.53 6.517-7.502 3.021-11.27 5.873-0.444-0.8948 2.107-3.986-4.127-0.6349 2.429-4.508-3.312-1.701-3.968-0.873 0.3515-1.316 0.7173-2.736 2.302-5.079-6.809 0.2984-46.67 2.456-42.62-7.857z" fill="#222"/>
<path d="m144.6 321.1c0.8292 1.703 4.079 3.951 7.124 5.802 1.367 0.1301 2.976 0.0361 4.554-0.2555-0.5749-0.9002-2.095-1.414-3.903-2.441 1.234 0.3344 3.608 0.4691 6.748 2.711-4.424 2.828-13.61 0.6669-19.19 0.875-15.49-7.942-38-6.297-46.03-2.062-2.242-1.937-7.527-3.551-9.125-2.719 1.931 5.413-6.143 9.602-8.906 3.562-3.856 0.4145-11.96 1.974-16.66 2.469-0.3031 1.857-1.06 2.549-1.656 2.719 0.1731-5.867-7.69-3.437-8.433-1.006-0.4301 1.408-1.236 4.518 6.933 4.568 4.942 0.0306 5.51 1.506 13.31-0.5625-0.1441-0.9104 0.1753-2.203 0.4062-3.469 1.511 0.9557 2.83 2.358 3.312 3.094 6.806 1.471 14.14-1.108 17-5-1.622 3.909-3.852 4.491-7.219 6.094-0.8201 2.59-2.211 3.476-3.031 3.969l-0.2812-2.75c-1.595 0.3435-5.61-0.5621-8.688-0.4688-3.077 0.0934-5.207 1.403-8.562 1.312-0.9059 0.9238-1.391 1.654-2.312 2.625l-0.9375-3.094c-4.791-0.6781-4.987 0.077-7.031 0.25 0.2279 5.985 25.73 5.949 31.59 5.5 5.859-0.4486 7.656-5.594 7.656-5.594s-1.353 4.061-1.125 4.281c0.7561 0.731 6.045 0.0645 5.875-0.2188-3.067-2.047-3.125-5.162-2.893-8.177 1.224 6.356 4.404 7.58 8.612 8.552-7.243 0.6559-6.984 3.451-8.5 4.781 1.141-0.5866 4.34-2.387 3.75 0.8125 5.31-1.733 4.219 0.2542 4.002 1.122 3.312-0.7856 5.043-3.209 7.133-4.405-0.5145-5.036-2.957-7.945-5.261-10.81 3.98 2.772 5.326 5.75 7.219 10.19 6.16 1.626 13.63 0.6524 16.16-0.25-2.64-2.422-3.222-9.284 2.812-12.06-5.654 6.117-3.424 11.31 2.531 12.94-4.273-0.7122-6.565 0.6377-9.281 2.219 5.956-2.281 4.324 1.313 4.324 1.313 4.911-1.794 5.176 0.0351 4.486 1.223 1.936-0.005 5.95-0.7892 8.817-3.793-1.409-1.788-4.569-3.463-8.064-5.4 6.854 3.154 7.051-0.8634 7.454-4.432 0.1673 2.402 0.4145 4.697-1.235 6.401 5.81 1.444 30.43 1.53 29.95-13.07-9.691 7.725-20.42 3.649-28.33 3.027 9.734-0.3287 20.92 2.95 27.9-4.423-5.514-3.755-14.31-3.336-23.01-5.945zm-29.76 7.129c3.316 0.047 6.703 0.4482 9.188 1.062-7.085-0.2598-12.55-0.2375-17.94-0.0937 2.188-0.7112 5.434-1.016 8.75-0.9688zm-59.16 2.281c0.3007 0.8275-1.703 2.232-2.844 2.125-1.141-0.1075-0.4267-1.864 0.4062-2.281 1.151-0.6135 2.137-0.6712 2.438 0.1562z" fill="#73943a"/>
<g fill="#fff">
<path d="m76.99 321.9c-0.3054 0.3142-0.514 0.6652-0.7294 1.166-0.5899-0.9091-2.031-0.3609-2.256 0.5521-0.26 1.054 0.253 1.635 1.166 1.735-1.182 0.2291-2.163 0.3347-2.939 0.4826-0.6708-1.071-0.6548-2.041-0.2003-3.105 0.8928-2.089 4.212-2.793 4.959-0.8308zm3.201-0.4077c-2.733 0.1087-4.513 4.277-2.234 6.072 2.827 2.226 5.607-0.0389 5.863-2.466 0.1943-1.84-1.107-3.707-3.629-3.606zm0.7022 2.288c1.087-0.0687 1.587 0.9113 1.428 1.651-0.1586 0.7399-1.357 1.492-2.25 0.7513-0.893-0.7402-0.2653-2.334 0.8221-2.402z"/>
<path d="m59.61 336.5c0.7015 0.2531 2.219 0.2276 2.219 0.2276l-1.639 2.157z"/>
<path d="m69.98 335.4c0.8605-0.1797 2.826 0.0256 2.826 0.0256-0.6345-0.9766-1.448-2.102-2.67-3.225-0.0974 1.08-0.1772 2.14-0.1565 3.2z"/>
<path d="m79.96 335.3c0.8558-0.0702 2.161-0.5051 2.161-0.5051-0.3278 1.373-0.8984 2.625-1.824 3.564-0.03321-0.9419-0.05763-2-0.3367-3.059z"/>
</g>
</g>
<g id="id_pig">
<g>
<path d="m278.7 318.7s2.467-1.077 2.332-2.928c-0.1804-2.469-4.424-1.632-4.325 0.5351 0.0722 1.579 1.994 2.393 1.994 2.393zm-82.71-9.511c-0.905-1.958-0.6386-5.469 2.339-6.841 0.7987-4.107 1.411-6.142 2.801-9.615 1.992 3.309 3.184 5.055 4.108 9.459 2.62-0.4105 3.621 0.6749 4.164 1.145 2.554-2.761 6.049-6.4 7.601-10.76 2.555 4.006 4.179 6.394 5.246 12.93 18.19-3.818 40.95-3.812 50.29 13.33 1.042 0.1381 2.269 0.5607 3.989 0.2812-7.103-7.045 11.34-9.512 4.32 0.2984 3.167 0.0751 6.97-1.369 8.359-7.102 0.5806 5.648-4.143 9.012-10.2 8.465-2.334 0.8212-3.53 1.05-5.833 1.059-0.0578 17.34-6.058 16.77-5.873 39.68-1.802 0.2612-2.763 0.4109-4.565 0.299l-0.2709-3.429c-0.7395 0.9312-0.7882 2.728-0.8827 3.404-0.6593-0.0581-1.787-0.1676-2.339-0.4044-0.0441-1.439-0.1942-2.781-0.0328-4.15l-1.457-0.0934c-0.1228-0.5226-0.2456-1.479-0.3684-2.134-0.3603 0.7978-0.3575 1.593-0.378 2.152-0.5927-0.0147-1.361-0.0628-1.956-0.6209-0.7143-5.714-0.458-12.13-2.83-15.66-8.304 2.205-16.49 1.909-22.94-0.2381l-3.492 20.79c-1.431 0.3718-2.461 0.2685-3.325 0.2148l-0.1731-3.151c-0.6542 1.053-0.6865 2.107-0.7608 3.16-0.8365-0.0418-1.475 0.0226-2.212-0.364-0.3344-1.549-0.2395-3.313-0.2826-5.008l-1.66 0.0541-0.3082-2.474c-0.4028 1.235-0.3257 1.799-0.3804 2.547-0.7019-0.0256-1.376 0.1731-2.064-0.4017-0.2972-7.828 0.4825-16.81-3.518-22.99-3.009-2.423-11.69-8.855-18.35-10.72-11.69 0.1545-8.155-9.738-4.742-10.41 3.413-0.6703 4.479-1.06 7.974-2.706z" fill="#222"/>
<path d="m200.7 296c-0.883 2.277-1.437 3.774-1.613 6.269 0.3459-0.0969 0.7361-0.1315 1.177-0.1256-0.0533-2.381 0.3385-3.32 0.4365-6.143zm0.5893-1.642c0.4216 0.3271 2.28 5.624 2.83 8.265-0.4834 0.2076-0.8803 0.5584-1.287 0.9102-0.3645-0.6202-0.9834-1.149-1.872-1.291 0.1385-2.234 0.4438-5.433 0.329-7.885zm16.11 0.9078-2.463 11.65 1.25 3.344c-1.091-1.601-2.2-3.079-3.5-3.844 0.369-0.4115 0.9626-0.3858 1.5-0.4688 0.8205-2.857 1.153-5.233 1.713-8.402-1.32 2.621-4.631 5.743-5.835 6.781 1.216 1.851 0.8886 5.255-0.8784 6.746-2.502 2.11-7.356 1.524-8.062-2.406-0.7691 0.4368-2.186 0.4632-4.25 1.625 1.006 0.6632 1.284 1.862 1.281 3.219-0.6734-1.054-0.9932-1.759-2.844-2.531l-3.938 1.312c4.314 0.4657 4.938 6.858 3.099 8.614 5.516 2.589 15.65-1.502 15.65-2.239 1.314-2.406 0.138-2.729-0.25-4 1.43 0.8383 2.467 2.07 2.844 4.594-0.4125 0.1933-0.7522-0.3146-1.125-0.0937-4.518 2.676-8.643 3.96-12.97 3.974 4.396 2.492 7.892 4.033 14.81 8.658 1.455 0.5112 3.027-1.745 4.501-2.82-1.044 1.37-1.109 2.431-2.219 3.438 2.419 7.118 4.417 17.11 5.388 22.57l3.998 0.1612c1.64-8.132 2.719-19.63 7.677-28.77-1.213 6.4-2.181 8.217-3.094 12.28 6.588 2.181 16.33 2.938 25.13-1.01-1.128-3.613-1.102-8.126 0.2742-12.08-0.3993 7.223-0.5041 11.71 5.562 16.28l0.2188 13.17 4.844 0.0625c0.618-14.89 8.071-23.12 5.812-34.2-1.774-4.506-10.27-21.47-49.32-13.53-1.979 2.246-1.952 3.396-3.614 3.844 4.91-6.072 0.043-10.44-1.193-15.93zm-27.71 17.93c-2.694 0.1134-4.121 1.924-3.594 4.594 0.7475 3.787 7.139 4.516 7.913 0.8438 0.774-3.673-1.625-5.551-4.32-5.438zm-1.844 1.625c1.019-0.1716 1.645 3.646 0.2812 3.656-1.363 0.0107-1.3-3.485-0.2812-3.656zm3.656 0.0937c1.192-0.0176 1.245 4.247-0.3125 4.031s-0.8798-4.014 0.3125-4.031z" fill="#e290c1"/>
<path d="m202.2 304.2c-0.4603 0.4497-0.6294 1.001-0.8561 1.528-0.4621-1.512-2.192-1.199-2.586 0.0487-0.2029 0.6422 0.3709 1.618 1.355 1.595-1.244 0.2411-2.201 0.9832-3.018 1.139-0.7059-1.127-0.661-2.316-0.1827-3.435 0.9395-2.198 4.475-2.799 5.288-0.8743zm3.551-0.878c-2.879 0.0193-4.862 4.894-2.463 6.783 2.975 2.343 5.956 0.2957 6.226-2.258 0.2045-1.937-0.5752-4.546-3.763-4.525zm0.6267 2.8c1.144-0.0723 1.67 0.959 1.503 1.738-0.1669 0.7786-1.428 1.57-2.368 0.7906-0.9398-0.779-0.2792-2.456 0.8651-2.528z" fill="#fff"/>
<path fill="#794564" d="m253.6 340.4c0.6994-0.3324 1.52-0.7032 1.974-0.966 0.5857 1.099 2.125 2.64 2.923 3.297 0.4594 2.22 0.3562 7.281 0.4865 10.09l-2.934-0.0268c-0.2874-4.552-0.824-8.864-2.449-12.39zm-38.93-7.272c2.399 6.953 3.356 13.16 3.968 18.75l-2.705-0.0397c0.3463-9.868-1.733-15.56-2.785-18.18 0.7103-0.22 1.277-0.4095 1.522-0.5344z"/>
</g>
<rect height="93.11" width="114.8" y="269.3" x="174.8" fill="none"/>
</g>
<g id="id_snake">
<g>
<path d="m337.2 292.7c3.675-4.099 9.377-1.714 10.31 2.465 0 0 6.359 0.5714 8.301 7.812s-5.967 15.79-15.34 27.07c11.9-2.236 29.97-0.5757 36.43 5.836 6.458 6.411 0.0977 10.84 0.0977 10.84 9.776-0.7898 9.74-9.511 22.17-15.53-8.971 8.882-11.67 23.53-24.77 26.16-13.09 2.625-27.66 2.634-38.74 1.927-11.08-0.7077-21.75-6.505-22.45-15.15-0.6973-8.649 11.92-11.94 11.92-11.94 2.928-10.31 9.086-11.7 12.51-19.99-7.381 3.152-12.09 3.183-15.82 9.032-0.2806-1.36-0.925-2.376 0.1953-5.566-1.492 0.2795-2.88 0.5912-4.785 1.66 2.271-4.358 4.814-5.265 10.55-5.957-3.252-1.773-2.917-7.527 2.916-11.41-6.985-3.736 0.8294-13.3 6.5-7.263z" fill="#222"/>
<path d="m347.4 296.5c4.224 0.3693 9.696 6.74 5.908 13.94-3.788 7.201-12.51 16.13-12.51 16.13l-4.012-0.1312 1.657 3.867c-0.6053 1.688-1.486 3.375-0.8523 5.063l-2.877 2.81 3.453-0.1381c2.035 1.339 4.037 2.602 6.492 3.291l-0.2777 3.338 2.572-2.56c3.016 0.6283 6.162 0.4832 9.305 0.3502l2.9 3.176 0.8286-3.867 6.346-1.357c2.341 0.8556 2.849 2.525 4.15 3.843-0.5815-1.835-0.8547-3.448-2.512-4.924-0.1282-1.138 0.6259-2.318 1.408-3.5-1.517 0.635-2.571 1.501-3.308 2.526-2.41-0.1321-3.868-0.0261-5.255 0.0977-0.8111-1.618-1.098-3.411-1.13-5.289-1.213 1.873-1.868 3.684-1.908 5.427l-6.215 0.4143c-1.081-1.926-1.543-4.085-1.583-6.402-0.9436 1.905-1.831 3.857-2.007 6.402-0.104 0.156-10.91-1.41-8.286-7.491 8.062-2.401 31.86-0.5798 35.98 4.827 4.125 5.407 1.891 8.838-7.394 12.88-9.285 4.046-34.62 5.179-37.57-6.629-2.941-11.81 9.115-17.38 12.15-32.94 4.081-2.792 5.799-5.857 6.742-8.787-5.012 8.467-18.99 11.14-20.97 9.27-1.975-1.867-2.292-7.502 7.513-11.19 4.101 4.851 10.78 1.958 11.25-2.448z" fill="#318b2c"/>
<path d="m324.7 334s-15.85 4.734-7.394 16.19c8.459 11.46 53.45 8.524 61.2 4.291 7.749-4.233 14.98-18.32 14.98-18.32-5.841 3.964-8.138 12.31-18.53 12.28-16.39 7.757-32.98 5.441-43.11 0.7784l-4.696 1.795 2.316-3.225c-1.764-1.372-3.059-3.228-4.281-5.167l-4.802-0.7226 4.241-2.096c-0.1655-1.495-0.2725-3.277 0.0809-5.81z" fill="#318b2c"/>
<path d="m332.5 295.7c0.004 1.831 2.523 1.975 2.986 0.5724 0.0349 0.8557 0.3081 1.63 0.3081 1.63-4.035 3.029-7.159-0.5452-6.316-3.357 0.8433-2.812 4.603-3.988 7.023-1.271-0.5936 0.6093-0.8592 1.905-0.8592 1.905-0.3171-1.691-3.151-1.339-3.141 0.5208zm7.944-4.137c-3.369 0.7058-5.279 6.021-1.901 7.944 4.19 2.386 7.618-0.8501 7.59-3.928-0.0211-2.334-2.32-4.722-5.689-4.016zm1.505 2.782c1.468-0.2415 2.299 0.9153 2.198 1.865-0.1008 0.9499-1.614 2.063-2.943 1.263-1.329-0.8001-0.7227-2.887 0.7453-3.128z" fill="#fff"/>
<path d="m319 315.7c2.139-1.705 4.912-3.81 12.85-3.879 2.717-0.0236 3.167-0.5608 5.936-0.9845-3.938 3.021-10.91 1.867-15.38 8.324-0.0346-0.5018 0.6435-3.195 2.961-5.269-2.441 0.3856-4.532 0.9514-6.37 1.808z" fill="#ab1d1d"/>
<path d="m339.1 311.6c0.8763-0.379 1.814-0.9348 2.568-1.375-2.329 8.496-6.142 13.13-9.438 18.39-3.676 5.859-4.92 11.21-0.9598 18.55-1.636-0.7771-11.36-8.467-0.5783-23.11 2.535-3.444 4.578-4.391 8.408-12.46z" fill="#848411"/>
</g>
<rect height="87.2" width="102.9" y="272.8" x="296.4" fill="none"/>
</g>
<g id="id_giraffe">
<g>
<path d="m427 272.2c-2.228-5.34 5.936-3.157 1.515 0.0281l-0.295 2.24c0.9357 0.6937 1.896 0.7731 3.03 0.8979l1.754-2.32c-0.5433-5.347 6.141-1.086 1.599 0.6734l-2.245 3.172c1.988-1.273 4.23-1.353 7.049-0.2477-0.7713 1.282-1.971 4.814-5.606 5.099 0.7078 1.132 1.362 1.436 1.51 3.401 0.2107 2.782 1.377 2.533 1.838 5.747 0.2775 1.933 2.131 3.582 2.386 6.05 0.2715 2.632 1.788 2.722 2.783 6.409 0.9951 3.688 4.669 6.276 7.019 7.921 4.145 2.929 13.09 4.162 15.18 7.883 2.092 3.721 6.465 16.42 6.675 15.66 2.049 1.126 2.585 3.206 3.679 6.884-2.548-5.102-2.052-2.666-0.6848 1.334-3.428-6.932-1.302-1.443-1.039-0.2221-1.403-3.608-2.377-2.849-2.766-7.362-1.708-4.578-3.028-7.314-4.252-9.344-0.3656 0.3319-2.168 8.222-1.193 13.08 0.5889 2.932-0.2598 3.721-0.2321 5.8 0.0916 6.859-0.0684 13.58 0.2117 14.1 0.2801 0.519 0.4618 3.32 0.4265 3.442-0.0353 0.1218-1.585 0.1959-2.343 0.2086-0.3407-0.9193-0.2535-1.088-0.4072-2.604-0.2668 1.303-0.211 1.832-0.1813 2.585-0.199-0.0317-0.3475 0.0585-0.988-0.0971s-0.3913-2.08-0.2174-2.675c0 0-0.3446 0.0323-0.7503 0.0465-0.1683-0.6159-0.1978-1.304-0.203-1.729-0.1086 0.4368-0.2757 1.32-0.2343 1.733-0.4216-0.009-1.141-0.029-1.184-0.1759-0.0429-0.1468 0.0168-9.52-0.284-14.61-0.928-1.192-1.331-3.878-0.689-5.278-0.6737-2.102-1.084-5.201-1.301-6.152-4.878 0.2499-7.166-1.152-9.921-2.161 0 0-1.762 9.043-1.215 10.29 0.5477 1.242 0.3203 1.527 0 3.451s0.5171 14.31-0.2854 14.58c-0.8025 0.265-2.047 0.1191-2.047 0.1191l-0.3367 2.582s-2.017 0.2162-3.011 0.0115c0.009-0.8666 0.049-1.351 0.5215-3.018-1.037 1.735-1.011 2.31-1.139 2.937-0.5115-0.0731-1.17-0.279-1.413-0.3653-0.2425-0.0864 0.146-1.572 0.7228-3.83 0.5767-2.258 0.8881-11.31 0.5376-12.47-0.3506-1.158-0.7567-2.553-0.4042-4.639-0.4085-3.636-0.4528-8.197-1.929-11.92-2.021-5.092-1.997-7.299-0.9689-11.11-0.2295-10.83-5.843-25.56-6.117-30.92-3.252 1.615-4.274 1.205-5.715 1.166-1.029-0.0274-2.554 1.106-4.132 1.284-1.633 0.1844-3.531-2.473-1.791-4.619s2.046-1.123 4.471-3.981c-2.033 0.1412-3.054-2.647-3.752-6.152 3.302-0.4059 4.871 0.8397 6.217 1.672 0.3873-0.5468 0.7698-1.25 1.747-1.604 0.1542-1.388 0.2987-2.416 0.3977-2.869z" fill="#222"/>
<path d="m426 279.1c0.1114-0.8432-1.134-1.013-1.311-0.1561-0.1765 0.8574 0.6192 1.093 1.077 0.6944-0.1736 0.4773-0.1427 0.7498-0.1208 1.031-1.584 0.6314-2.529-1.172-1.874-2.312s2.418-1.26 3.049-0.2346c-0.3066 0.2042-0.7416 0.6416-0.8204 0.9778zm2.424-0.9135c-1.654 0.0105-2.811 2.317-1.501 3.514 1.277 1.168 3.121 0.2483 3.43-1.119 0.2343-1.037-0.4795-2.385-1.929-2.395zm0.2556 1.261c0.6248 0.0338 0.8438 0.6262 0.7037 1.038-0.1401 0.4114-0.874 0.7597-1.334 0.2776-0.4597-0.4821 0.006-1.349 0.63-1.315z" fill="#fff"/>
<path d="m419.8 275.9c1.623-0.1967 3.119 0.6444 4.305 1.322-0.2358 0.1272-0.4268 0.3177-0.5784 0.4857-0.0724 0.0802-0.9023-1.081-2.717-1.427 2.038 1.669 2.444 1.857 2.405 1.95-0.2491 0.5945-0.2803 1.31-0.0529 1.921-3.082-0.0839-2.895-2.668-3.361-4.252zm11.97 2.29c1.428-1.294 5.152-1.756 6.372-1.134-0.8114 1.34-2.516 4.107-5.565 3.819 0.682 1.735 0.8452 2.063 1.306 4.167-2.357 1.675-2.186 3.073-1.822 4.324 0.3642 1.251 1.647 1.354 3.51 0.8146 1.214 4.447 3.151 8.818 4.346 11.48-1.134 1.039-3.715 3.769-2.493 5.81s3.633 4.032 5.354-0.1749c1.38 2.252 3.651 3.326 5.799 4.818-0.317 0.6498-1.796 1.237-0.766 3.736 0.6319 1.533-1.104 2.586 1.546 3.849s4.915-1.099 6.133-4.228c2.719 0.7893 2.755 0.7787 4.408 1.506 0 0-1.672 4.551-0.3504 6.058s5.497 0.5539 5.497 0.5539c-0.0151 2.226-2.424 11.31-1.604 14.72 0.8203 3.41 0.0396 3.969-0.0777 6.333-0.1174 2.364-0.3546 11.86 0.1277 14.06l-1.686 0.271c-0.8681-3.707-0.6169-10.34-0.6722-14.65-1.688-1.622-0.9582-3.01-1.065-4.581-1.768-3.796-3.423-10.97-3.364-15.22-0.007 2.818-0.7082 3.55 0.2237 8.058-0.8466 0.2574-1.39 0.1756-2.849-0.0469 0.6774-1.739-0.1698-8.88-2.597-10-2.428-1.119-4.12 6.915-2.357 8.749 0 0-3.58-1.092-3.552-1.487 0.1712-2.406-0.5652-8.511-0.6145-8.413 0.1298 5.863-0.6316 14.64-2.211 19.97 0.1586 1.321 0.9599 2.642-0.2765 3.962l-0.898 13.66-2.064-0.3968c0.7773-1.472 1.028-11.57 0.8536-12.93-0.8823-2.097-0.5363-3.309-0.4404-4.081 0.0959-0.7729-0.8328-7.501-1.314-11.14-0.4807-3.635-3.3-5.932-1.795-10.28 2.663 0.8802 8.64 1.373 8.275-1.31-0.3652-2.683-1.896-5.126-3.992-6.424s-4.313 1.468-4.313 1.468l-1.889-10.67c1.72-0.9705 1.747-2.244 1.498-5.198s-1.495-3.125-4.053-2.819c-0.6168-1.915-1.681-8.184-2.266-9.918-0.4338 1.437-3.06 1.744-5.588 2.147 1.947-0.8735 3.686-1.195 4.174-3.04-0.6977 1.377-2.721 1.763-3.448 2.116-0.7269 0.3526-1.96 0.4627-3.01 1.026-1.221 0.6553-1.859 1.348-2.847 1.17-0.9884-0.1788-1.476-2.246-0.6178-3.314 1.455-1.811 2.671-1.022 5.011-4.551 0.4109 0.4295 1.189 0.6549 1.944 0.3572 0.852 2.438 3.705 1.991 4.85 0.4336 1.145-1.558-0.0874-5.063-3.282-3.846-0.1985-0.4029-0.8507-0.8119-1.429-0.8532 1.074-1.618 3.697-1.552 4.405-0.0198 0.7081 1.533 1.534 1.283 1.534 1.283z" fill="#c6af24"/>
<path fill="#222" d="m421.2 285.1c1.046 0.2556-0.8555 2.753-1.604 1.696-0.1833-0.259 1.216-1.791 1.604-1.696zm-2.228 1.372c-0.8719 0.1572 0.846-2.534 1.332-1.636 0.1348 0.2493-0.9998 1.576-1.332 1.636zm13.01-7.553c1.433-0.5697 3.382-1.417 5.011-1.496-2.08 0.7994-3.599 1.628-4.654 2.325z"/>
<path d="m433.7 271.9c0.0189-1.149 1.667-1.1 1.651 0.0457-0.0156 1.146-1.67 1.103-1.651-0.0457zm-6.351-1.528c0.0189-1.149 1.667-1.212 1.651-0.0665-0.0156 1.146-1.67 1.215-1.651 0.0665zm25.65 61.99c1.022-0.4089 0.4387-8.534-1.576-8.933-2.044-0.4837-2.691 4.977-1.596 8.116 0.8828 0.3905 2.196 0.7865 3.172 0.8177zm7.315-15.13c-0.1726 1.377-1.261 4.718 0.0185 5.573 1.279 0.8555 4.671 0.1207 4.671 0.1207-0.0616-2.287-3.125-5.342-4.69-5.694zm-5.666-2.121c-2.223-0.5928-3.785-1.563-5.395-2.506-0.2014 0.309-1.5 0.7463-0.6152 2.562 0.6896 1.414-0.9063 3.346 1.746 4.038 2.652 0.6916 4.14-2.907 4.265-4.094zm-17.78 4.123c0.414-0.839 0.1681-2.668 0.007-4.369 0.3464-0.0616 1.915-1.76 3.178-1.908 1.304-0.1527 4.094 3.73 3.995 5.921-0.0989 2.191-7.18 0.3562-7.18 0.3562zm-4.227-23.32 1.95 6.329c0.5078-0.0647 1.021-0.4178 1.092-1.505 0.1041-1.59 0.3602-3.476-0.5493-4.428-0.9094-0.9521-2.493-0.3967-2.493-0.3967zm7.702 6.4 2.205 4.353c-0.2775 0.19-0.889 1.835-1.536 2.148-0.905 0.438-1.636 0.0981-2.871-1.505-1.236-1.603 2.203-4.995 2.203-4.995zm-5.036-13.08s-2.288 1.374-2.782-0.3445c-0.4939-1.719 1.681-3.015 1.681-3.015z" fill="#906700"/>
<path d="m459.4 340c-0.4043 1.644 0.0889 3.674 0.887 4.605l0.5404 12.44-0.9051 0.1731-0.2702-12.65c-1.085-1.108-1.114-3.542-0.6421-4.653-1.463-4.392-1.075-4.912-1.391-6.745 0.5335 1.538 0.9381 4.484 1.781 6.826zm-13.76-8.781-0.4548-0.2424-1.45 10.6c0.4043 1.644 0.2823 3.038-0.5159 3.968l-0.2381 11.19 1.27-0.0794-0.3968-11.51c0.7727-1.202 0.4059-2.176 0.1587-3.175z" fill="#3c4006"/>
</g>
<rect height="94.9" width="63.44" y="268.1" x="411.7" fill="none"/>
</g>
<g id="id_snail">
<g>
<path d="m515.3 321.1c0.4127 0.0948 0.816 0.2707 1.058 0.4453 1.829-0.1647 2.988 0.1628 3.869 0.6971l5.42-15.6c-2.193-8.149 9.138-3.339 2.973 0.7319l-5.303 17.1c1.865 3.464 3.098 6.524 4.234 9.981 8.426-5.228 5.249-27.78 29.79-24.91s26.31 31.12 16.17 37.77c11.12 3.996 18.01 4.686 25.28 5.864-6.284 3.817-43.64 3.649-57.8 3.231-14.16-0.4186-17.87 2.007-20.64-5.428-2.764-7.435-6.874-11.6-12.22-14.86-5.342-3.264-7.237-8.124-1.826-10.78-2.503-4.436 2.629-7.188 5.881-4.849l-0.1973-15.94c-4.727-6.822 7.357-6.305 2.779 0.0581z" fill="#222"/>
<path d="m512.8 303.9 0.4324 16.9c0.342-0.04 0.7945-0.0103 1.018 0.0281l-0.4152-16.9c2.676-4.282-3.859-3.685-1.036-0.0281zm14.09 2.44-5.94 16.58c0.1945 0.3962 0.1312 0.3125 0.2283 0.5848-0.6115-0.746-2.566-1.679-4.241-1.417 4.395 6.521-7.088 10.41-7.384 2.979-1.876 0.7782-6.823 2.779-3.094 7.281 7.099 0.6839 10.34-0.9785 12.2-3.742-1.182 2.093-2.651 5.568-10.82 5.273 0 0 9.728 4.365 13.37 13.21 3.643 8.843 5.427 7.281 11.63 7.597 20.83-0.4739 40.67 2.304 61.32-1.335-5.299-0.4564-13.15-2.374-21.93-5.092-3.847 2.97-15.56 5.566-23.82-3.914-9.916 4.156-15.2-5.437-21.86-8.078-0.7504-3.3-2.06-7.055-4.455-12l5.781-17.62c3.994-3.176-3.206-4.827-0.9815-0.3068z" fill="#deaa87"/>
<path d="m508.4 322.6c-0.5618 0.7636 0.0584 1.425 0.3879 1.459-0.8484 0.2986-1.117 0.5387-1.516 0.7939-0.6347-1.014-1.022-2.037-0.0715-3.37 0.9502-1.333 2.913-1.444 4.395-0.1805-0.8006 0.483-1.347 1.079-1.618 1.527-0.054-0.5083-1.015-0.9926-1.577-0.229zm5.157-0.9831c-2.588 0.0174-4.189 4.006-2.103 5.79s5.173-0.00067 5.388-1.988c0.1878-1.741-0.419-3.821-3.285-3.802zm0.6758 2.209c1.029-0.065 1.501 0.8623 1.351 1.562-0.15 0.7001-1.284 1.411-2.129 0.7109-0.845-0.7004-0.2511-2.208 0.7779-2.273z" fill="#fff"/>
<path d="m529.1 335.6c6.545-3.454 7.114-25.97 25.58-24.74 18.47 1.229 27.48 20.51 20.62 31.64-6.862 11.13-23.07 7.937-27.28-2.035-4.215-9.972 1.65-19.27 9.71-18.66 8.06 0.6091 8.414 9.642 5.893 12.69-2.521 3.052-6.761 2.619-7.122-0.2754-0.3602-2.894 2.861-3.464 3.341-1.614 0.2002-0.8532-1.407-1.961-2.736-1.135-1.329 0.8263-2.167 3.111-0.4336 4.857s6.629 1.672 8.681-3.095c2.052-4.768-0.1344-11.43-6.842-12.59-6.707-1.162-18.36 6.22-10.92 22.28-6.979 2.651-12.1-3.532-18.49-7.325z" fill="#637962"/>
</g>
<rect height="80.8" width="127.3" y="276.6" x="478.8" fill="none"/>
</g>
<g id="id_hedgehog">
<g>
<path d="m55.37 434.7c3.61-0.2325 6.257-1.08 9.039-2.395-5.651-4.741 2.624-10.03 5.595-6.468 2.183-5.084 0.179-10.77-1.508-15.32 0 0 29.82-10.71 48.88-4.327 19.06 6.387 23.38 20.35 21.48 29.72-1.899 9.375-7.54 10.95-7.54 10.95-0.7207-0.8248-1.649-1.429-2.619-2.143-1.155 0.7846-2.935 2.044-3.175 2.937-0.2397 0.8924 1.103 4.714 0.9921 7.818-0.1106 3.103-13.74 2.024-14.8 1.151-1.061-0.873 0-2.5 0-2.5s-3.172-0.041-3.492-1.032c-0.3204-0.9907 0.8265-1.972 0.8265-1.972-4.442 0.2791-8.376 0.204-12.52-0.2614 0 0-1.132 5.559-3.806 5.963-2.674 0.4042-8.486 1.216-12.7-0.1587-4.213-1.375 1.342-5.646 1.342-5.646-0.6928-0.0203-1.647 0.0872-2.619-0.6672-0.973-0.7544-0.4916-1.994-0.04283-2.642-4.219-0.3477-9.343 0.1352-12.71-2.076-4.047-0.3431-8.29-0.4613-13.97-4.881-5.117-0.3667-3.122-9.497 3.342-6.058z" fill="#222"/>
<path d="m72.34 421.3c0.03627 1.951-0.7543 3.774-1.438 5.438 6.539-0.8098 7.288 5.091 5.398 7.9s-8.348 3.629-9.226-1.51c-3.921 1.634-8.726 2.917-11.45 3.054-0.3351 2.021 0.06517 3.152-1.284 4.242 9.511 6.269 21.81 3.474 25.25-1.781-1.737 3.126-4.807 5.661-11.35 6.852 1.922 1.731 12.49 0.3392 18.75 2.367 1.213-0.6781 1.958-2.016 3.07-4.094-2.147 8.363-7.643 5.233-10.77 11.36 0.4383 0.466 1.025 0.7889 1.672 0.7969 0.3686-0.7661 0.9123-2.048 2.688-2.859-1.334 1.287-1.709 2.291-1.922 3.031l1.703 0.0781c0.5831-1.536 1.097-2.113 1.844-2.812-0.4309 0.8731-0.8845 1.735-0.8438 2.844 2.74-0.2083 6.625 0.1825 8.375-0.6406s3.163-6.215 4.531-9.359c-0.1532 1.119-0.2762 2.014-0.5 3.375 5.854 0.5874 12.72 0.426 18.28 0.2812 0.6029-0.6479 1.14-1.858 1.594-4-0.0889 7.202-5.096 8.088-4.016 10.01 0.1982 0.3535 0.5502 0.3137 1.016 0.3924 0.2561-0.955 0.9486-1.781 2-2.5-0.513 0.8286-1.277 1.711-1.303 2.566 0.5027 0.0474 0.9383 0.1283 1.605 0.0937 0.2225-1.436 0.7932-1.815 1.48-2.535-0.3172 0.8964-0.6637 1.903-0.4375 2.599 3.688-0.0825 6.775 0.9152 8.169-1.772 0 0-1.338-6.703-0.9817-7.859 0.3564-1.156 3.188-2.875 3.188-2.875-5.009-2.969-18.41-3.26-30.31-3.812-0.0595-1.87-0.7721-3.825-2.312-5.906-3.149 1.301-5.703 0.906-7.219-0.125 15.37 1.401 5.177-20.69-3.5-8.094-0.3006-4.368-9.819-4.685-11.75-4.75zm18.5 3.375c1.985 0.209 2.699 2.783 1.781 3.344-0.01182-0.9851-1.897-4.1-5.156-0.5 2.034 0.8472 1.142 2.159 0.7188 2.875-0.5302-1.472-0.8656-2.019-2.219-2.594 2.032-2.514 3.684-3.25 4.875-3.125z" fill="#d4aa00"/>
<path d="m69.43 427.3c-0.4227 0.3171-0.8357 0.682-1.229 1.297-0.6991-1.077-2.266-0.5118-2.533 0.5701-0.3081 1.249 0.2687 1.717 1.147 1.93-0.4552 0.1387-0.9488 0.5753-1.38 0.7883-1.412-0.8069-2.083-2.537-1.544-3.797 1.058-2.475 4.655-3.113 5.54-0.7881zm2.335 0.1784c-3.239 0.1288-5.227 5.196-2.603 7.416 2.908 2.461 6.821-0.0903 6.903-3.187 0.05852-2.192-1.311-4.348-4.3-4.23zm0.327 2.723c1.289-0.0814 1.88 1.08 1.692 1.957-0.1879 0.8768-1.608 1.767-2.666 0.8903-1.058-0.8772-0.3144-2.766 0.9742-2.847z" fill="#fff"/>
<path d="m72.37 419.7c-0.04652-2.681-0.6103-5.362-1.237-8.043 10.92-4.967 41.87-10.18 55.52 0.9663s12.73 23.57 6.173 30.94c-11.74-5.727-24.9-4.546-34.29-5.038l-1.945-5.834c3.869-2.826-0.1317-17.39-11.58-10.61-4.763-1.81-8.807-2.205-12.64-2.386z" fill="#7e7e7e"/>
<path d="m80.03 447.9c-1.313 2.172 1.061 2.235 2.5 2.312 1.2-0.5615 2.245-0.9992 3.062-1.469-1.78-0.4246-3.937-0.7435-5.562-0.8438zm30 3.223c-1.808 2.243 0.9131 2.15 2.375 2.091 0.6462-0.6794 1.489-1.536 2.032-2.308-1.623 0.1194-2.933 0.1371-4.407 0.2168z" fill="#7b6200"/>
<path d="m105.6 406.3-13.61 1.143 0.6417 0.4504zm-17.09 2.875-11.86 2.987 1.107 0.5129zm17.13 0.375 0.4062 0.6875 13.97-0.9375zm-2.969 1.625-16.8 3.759 1.123 0.5975zm-29 1.094 0.3438 7.906 1-0.0313-1.344-7.875zm4.812 1.406-0.7812 6.844 0.9688 0.0937-0.1875-6.938zm31.75 0.1875 0.0313 0.9062 16.69 0.5625-16.72-1.469zm-26.78 0.9375-2.062 6.594 0.9375 0.2812zm28.58 2.6l-16.78 0.3125 0.8438 0.9062zm4.031 3-0.0625 0.875 16.59 2.031zm-16.28 3.812-0.09375 0.75 18.97 1.094zm18.06 5.25-0.1562 0.875 16.34 3.5zm-16.81 2.5-0.0313 0.9062 16.66 1.25z" fill="#222"/>
</g>
<rect height="81.05" width="117.4" y="377.7" x="32.16" fill="none"/>
</g>
</svg>
