<?xml version="1.0" encoding="UTF-8" standalone="no"?>
<!-- Created with Inkscape (http://www.inkscape.org/) -->

<svg
   xmlns:dc="http://purl.org/dc/elements/1.1/"
   xmlns:cc="http://creativecommons.org/ns#"
   xmlns:rdf="http://www.w3.org/1999/02/22-rdf-syntax-ns#"
   xmlns:svg="http://www.w3.org/2000/svg"
   xmlns="http://www.w3.org/2000/svg"
   xmlns:xlink="http://www.w3.org/1999/xlink"
   xmlns:sodipodi="http://sodipodi.sourceforge.net/DTD/sodipodi-0.dtd"
   xmlns:inkscape="http://www.inkscape.org/namespaces/inkscape"
   width="744.09448819"
   height="1052.3622047"
   id="svg2"
   version="1.1"
   inkscape:version="0.48.0 r9654"
   sodipodi:docname="clocks.svg">
  <defs
     id="defs4" />
  <sodipodi:namedview
     id="base"
     pagecolor="#ffffff"
     bordercolor="#666666"
     borderopacity="1.0"
     inkscape:pageopacity="0.0"
     inkscape:pageshadow="2"
     inkscape:zoom="1.4"
     inkscape:cx="111.36488"
     inkscape:cy="892.84601"
     inkscape:document-units="px"
     inkscape:current-layer="layer1"
     showgrid="false"
     inkscape:window-width="1920"
     inkscape:window-height="1030"
     inkscape:window-x="-8"
     inkscape:window-y="-8"
     inkscape:window-maximized="1"
     showguides="true"
     inkscape:guide-bbox="true"
     inkscape:snap-from-guide="false"
     gridtolerance="10"
     guidetolerance="1">
    <sodipodi:guide
       orientation="0,1"
       position="-73.741136,953.33147"
       id="guide3790" />
    <sodipodi:guide
       orientation="1,0"
       position="100.76272,941.20964"
       id="guide3792" />
  </sodipodi:namedview>
  <metadata
     id="metadata7">
    <rdf:RDF>
      <cc:Work
         rdf:about="">
        <dc:format>image/svg+xml</dc:format>
        <dc:type
           rdf:resource="http://purl.org/dc/dcmitype/StillImage" />
        <dc:title></dc:title>
      </cc:Work>
    </rdf:RDF>
  </metadata>
  <g
     inkscape:label="Layer 1"
     inkscape:groupmode="layer"
     id="layer1">
    <g
       id="background_1">
      <path
         sodipodi:nodetypes="zzzz"
         inkscape:connector-curvature="0"
         id="path3765"
         d="M 190.21159,89.39165 C 193.26851,162.3524 130.03978,198.67737 76.997315,185.10594 23.954846,171.53451 -14.965592,107.04125 33.425885,42.963074 81.817364,-21.115101 187.15467,16.430899 190.21159,89.39165 z"
         style="fill:#000000;fill-opacity:1;fill-rule:evenodd;stroke:none" />
      <path
         sodipodi:nodetypes="zzzzzzzz"
         inkscape:connector-curvature="0"
         id="path3767"
         d="M 100.94114,11.88912 C 45.369694,9.4452198 -15.319716,83.85067 28.075084,147.25519 71.469884,210.65971 165.28127,191.05791 183.41882,124.04091 201.55638,57.02391 156.51259,14.33302 100.94114,11.88912 z m 72.5759,89.38394 C 169.12381,165.06407 99.879134,193.19603 53.892034,153.4293 7.9049336,113.66257 30.334654,54.43918 67.490664,34.08522 104.64667,13.73126 177.91027,37.48204 173.51704,101.27306 z"
         style="fill:#2f2fcf;fill-opacity:1;fill-rule:evenodd;stroke:none" />
      <path
         sodipodi:nodetypes="zzzz"
         inkscape:connector-curvature="0"
         id="path3779"
         d="m 165.30722,111.10846 c -10.44914,48.26267 -68.476416,74.62031 -110.714276,30.35715 -42.23787,-44.26317 -2.35468,-102.778964 36.25,-107.721904 38.604666,-4.94294 84.913416,29.102093 74.464276,77.364754 z"
         style="fill:#ffffff;fill-opacity:1;fill-rule:evenodd;stroke:none" />
      <path
         inkscape:tile-y0="33.556162"
         inkscape:tile-x0="98.430928"
         inkscape:tile-h="13.943399"
         inkscape:tile-w="4.159462"
         inkscape:tile-cy="99.030713"
         inkscape:tile-cx="100.51066"
         inkscape:transform-center-y="-58.502851"
         sodipodi:nodetypes="ccccc"
         inkscape:connector-curvature="0"
         id="path3782"
         d="m 99.693619,33.051086 c 1.027501,9.428887 0.716521,13.901586 0.714281,13.928571 1.17085,-0.01479 2.38491,0.143284 3.44518,-0.313814 -0.12583,-4.651785 -0.23955,-9.310838 -0.94516,-13.614757 z"
         style="fill:#000000;fill-opacity:1;stroke:none" />
      <use
         height="1052.3622"
         width="744.09448"
         transform="matrix(-0.03639416,-0.99950961,-1.1616796,0.03131355,212.68132,199.10056)"
         id="use3784"
         xlink:href="#path3782"
         y="0"
         x="0" />
      <use
         height="1052.3622"
         width="744.09448"
         transform="matrix(0.99502721,-0.09960347,-0.09148554,-0.91393003,4.4201421,205.24128)"
         id="use3786"
         xlink:href="#path3782"
         y="0"
         x="0" />
      <use
         height="1052.3622"
         width="744.09448"
         transform="matrix(-0.04345369,-0.99885791,-0.90842503,0.04777947,83.003581,198.86157)"
         id="use3788"
         xlink:href="#path3782"
         y="0"
         x="0" />
      <use
         height="1052.3622"
         width="744.09448"
         inkscape:transform-center-y="-50.807262"
         inkscape:transform-center-x="-29.155161"
         id="use3814"
         transform="matrix(0.8660254,0.5,-0.5,0.8660254,62.511636,-38.390556)"
         xlink:href="#path3782"
         inkscape:tiled-clone-of="#path3782"
         y="0"
         x="0" />
      <use
         height="1052.3622"
         width="744.09448"
         inkscape:transform-center-y="-29.333587"
         inkscape:transform-center-x="-50.613653"
         id="use3816"
         transform="matrix(0.5,0.8660254,-0.8660254,0.5,137.34139,-38.569149)"
         xlink:href="#path3782"
         inkscape:tiled-clone-of="#path3782"
         y="0"
         x="0" />
      <use
         height="1052.3622"
         width="744.09448"
         inkscape:transform-center-y="29.155161"
         inkscape:transform-center-x="-50.807258"
         id="use3820"
         transform="matrix(-0.5,0.8660254,-0.8660254,-0.5,239.11474,60.209026)"
         xlink:href="#path3782"
         inkscape:tiled-clone-of="#path3782"
         y="0"
         x="0" />
      <use
         height="1052.3622"
         width="744.09448"
         inkscape:transform-center-y="50.613662"
         inkscape:transform-center-x="-29.333585"
         id="use3822"
         transform="matrix(-0.8660254,0.5,-0.5,-0.8660254,241.31361,133.52356)"
         xlink:href="#path3782"
         inkscape:tiled-clone-of="#path3782"
         y="0"
         x="0" />
      <use
         height="1052.3622"
         width="744.09448"
         inkscape:transform-center-y="50.807257"
         inkscape:transform-center-x="29.15516"
         id="use3826"
         transform="matrix(-0.8660254,-0.5,0.5,-0.8660254,141.0202,235.80195)"
         xlink:href="#path3782"
         inkscape:tiled-clone-of="#path3782"
         y="0"
         x="0" />
      <use
         height="1052.3622"
         width="744.09448"
         inkscape:transform-center-y="29.333584"
         inkscape:transform-center-x="50.613657"
         id="use3828"
         transform="matrix(-0.5,-0.8660254,0.8660254,-0.5,66.948097,238.00086)"
         xlink:href="#path3782"
         inkscape:tiled-clone-of="#path3782"
         y="0"
         x="0" />
      <use
         height="1052.3622"
         width="744.09448"
         inkscape:transform-center-y="-29.15516"
         inkscape:transform-center-x="50.807261"
         id="use3832"
         transform="matrix(0.5,-0.8660254,0.8660254,0.5,-35.582868,137.95999)"
         xlink:href="#path3782"
         inkscape:tiled-clone-of="#path3782"
         y="0"
         x="0" />
      <use
         height="1052.3622"
         width="744.09448"
         inkscape:transform-center-y="-50.613658"
         inkscape:transform-center-x="29.333586"
         id="use3834"
         transform="matrix(0.8660254,-0.5,0.5,0.8660254,-37.024152,62.87772)"
         xlink:href="#path3782"
         inkscape:tiled-clone-of="#path3782"
         y="0"
         x="0" />
      <path
         sodipodi:nodetypes="zzzzzzzz"
         inkscape:connector-curvature="0"
         id="path3773"
         d="M 103.42949,28.087482 C 43.337458,25.411436 13.746374,91.70204 39.333994,133.08556 c 25.58763,41.38351 82.580256,55.27307 118.077216,8.94957 35.49696,-46.323496 6.11031,-111.271602 -53.98172,-113.947648 z m 47.41343,26.783788 c 37.5952,40.59105 10.64996,90.02056 -26.07142,107.48214 C 88.050124,179.815 23.512564,138.41439 37.084004,83.96949 50.655434,29.52458 113.24772,14.28022 150.84292,54.87127 z"
         style="fill:#afcdfa;fill-opacity:1;fill-rule:evenodd;stroke:none" />
    </g>
    <g
       id="minute_1">
      <path
         sodipodi:nodetypes="ccczcccc"
         inkscape:connector-curvature="0"
         id="path3836"
         d="M 98.278031,101.68236 C 97.633216,88.424115 98.170562,65.695683 98.170562,65.695683 c -1.402862,-0.08353 -3.213002,0.08309 -6.878026,1.38896 0,0 7.336178,-18.872275 9.887164,-19.445437 2.55099,-0.573161 8.97634,19.950513 8.97634,19.950513 -1.87242,-0.933194 -4.60389,-2.093221 -5.96721,-1.767767 -0.66529,11.878301 -0.0129,22.952386 0.42988,35.481598 z"
         style="fill:#000000;fill-opacity:1;stroke:none" />
      <path
         sodipodi:nodetypes="ccczcccc"
         inkscape:connector-curvature="0"
         id="path3836-3"
         d="m 99.003451,101.52453 c -0.477917,-12.02636 0.242743,-37.111034 0.242743,-37.111034 -1.039768,-0.07577 -3.214288,-0.524418 -5.930717,0.660127 0,0 5.973487,-14.467118 7.864223,-14.987025 1.89073,-0.519907 6.83486,15.255769 6.83486,15.255769 -1.56844,-1.412456 -4.03276,-1.140994 -5.03318,-0.814335 -0.4931,10.774637 0.28601,25.193109 0.61415,36.558188 z"
         style="fill:#2f2fcf;fill-opacity:1;stroke:none" />
    </g>
    <g
       id="hour_1">
      <path
         sodipodi:nodetypes="ccczcccc"
         inkscape:connector-curvature="0"
         id="path3836-5"
         d="m 103.49406,96.13881 c 0.6657,13.26319 -0.0705,28.28423 -0.0705,28.28423 1.64765,0.095 2.44971,-0.0569 6.76482,-1.33291 0,0 -6.66668,16.60237 -9.66782,17.15474 -3.001122,0.55237 -9.079105,-18.5662 -9.079105,-18.5662 2.19345,0.94842 4.886423,2.88344 6.490453,2.5691 0.863985,-11.8726 0.121555,-15.43867 -0.311765,-27.971199 z"
         style="fill:#000000;fill-opacity:1;stroke:none" />
      <path
         sodipodi:nodetypes="ccczcccc"
         inkscape:connector-curvature="0"
         id="path3836-3-2"
         d="m 102.63629,96.922064 c 0.47815,12.029976 -0.48541,28.774376 -0.48541,28.774376 1.22111,0.0842 2.44701,0.55058 5.64678,-0.61181 0,0 -5.03512,12.46095 -7.26016,12.96545 -2.225019,0.50449 -6.721876,-13.60335 -6.721876,-13.60335 1.83298,1.4252 4.348274,1.42326 5.525935,1.10476 0.654022,-10.77036 -0.218424,-17.05045 -0.525182,-28.417927 z"
         style="fill:#2f2fcf;fill-opacity:1;stroke:none" />
    </g>
    <g
       id="foreground_1">
      <path
         sodipodi:nodetypes="zzzz"
         inkscape:connector-curvature="0"
         id="path3765-6"
         d="m 107.82378,98.291779 c 0.41065,5.589361 -4.23493,8.573801 -8.416643,7.480291 -4.181795,-1.09339 -7.759148,-6.058202 -3.944033,-11.220908 3.815128,-5.16257 11.950026,-1.848675 12.360676,3.740617 z"
         style="fill:#000000;fill-opacity:1;fill-rule:evenodd;stroke:none" />
      <path
         sodipodi:nodetypes="zzzzzzzz"
         inkscape:connector-curvature="0"
         id="path3773-8"
         d="m 101.07839,93.492409 c -5.789087,-0.204641 -6.988711,6.715931 -4.433155,9.271491 2.555555,2.55555 5.665665,2.73113 8.476675,0.28589 2.81101,-2.44523 1.74557,-9.35274 -4.04352,-9.557381 z m 1.84235,3.955991 c 1.30273,1.582313 -0.009,3.80808 -1.58231,4.07325 -1.573417,0.26517 -3.519012,-1.25757 -2.698569,-3.437955 0.820442,-2.180383 2.978149,-2.217608 4.280879,-0.635295 z"
         style="fill:#afcdfa;fill-opacity:1;fill-rule:evenodd;stroke:none" />
    </g>
  </g>
</svg>
