<?xml version="1.0" encoding="UTF-8" standalone="no"?>
<svg
   xmlns:dc="http://purl.org/dc/elements/1.1/"
   xmlns:cc="http://creativecommons.org/ns#"
   xmlns:rdf="http://www.w3.org/1999/02/22-rdf-syntax-ns#"
   xmlns:svg="http://www.w3.org/2000/svg"
   xmlns="http://www.w3.org/2000/svg"
   xmlns:xlink="http://www.w3.org/1999/xlink"
   xmlns:sodipodi="http://sodipodi.sourceforge.net/DTD/sodipodi-0.dtd"
   xmlns:inkscape="http://www.inkscape.org/namespaces/inkscape"
   id="svg2"
   height="100%"
   viewBox="0 0 640 360"
   width="100%"
   version="1.1"
   inkscape:version="0.48.0 r9654"
   sodipodi:docname="lessonicons.svg">
  <sodipodi:namedview
     pagecolor="#ffffff"
     bordercolor="#666666"
     borderopacity="1"
     objecttolerance="10"
     gridtolerance="10"
     guidetolerance="10"
     inkscape:pageopacity="0"
     inkscape:pageshadow="2"
     inkscape:window-width="1920"
     inkscape:window-height="1030"
     id="namedview106"
     showgrid="false"
     inkscape:zoom="2.8284273"
     inkscape:cx="-52.124913"
     inkscape:cy="204.46164"
     inkscape:window-x="-8"
     inkscape:window-y="-8"
     inkscape:window-maximized="1"
     inkscape:current-layer="svg2"
     showguides="true"
     inkscape:guide-bbox="true">
    <sodipodi:guide
       orientation="0,1"
       position="0,100"
       id="guide4281" />
    <sodipodi:guide
       orientation="0,1"
       position="0,50"
       id="guide4283" />
    <sodipodi:guide
       orientation="0,1"
       position="0,150"
       id="guide4285" />
    <sodipodi:guide
       orientation="0,1"
       position="0,200"
       id="guide4289" />
    <sodipodi:guide
       orientation="0,1"
       position="0,250"
       id="guide4291" />
    <sodipodi:guide
       orientation="0,1"
       position="0,0"
       id="guide4293" />
    <sodipodi:guide
       orientation="1,0"
       position="40,0"
       id="guide4295" />
    <sodipodi:guide
       orientation="1,0"
       position="95,0"
       id="guide4297" />
    <sodipodi:guide
       orientation="1,0"
       position="150,0"
       id="guide4299" />
    <sodipodi:guide
       orientation="1,0"
       position="205,0"
       id="guide4301" />
    <sodipodi:guide
       orientation="1,0"
       position="260,0"
       id="guide4303" />
    <sodipodi:guide
       orientation="1,0"
       position="-5.5,0"
       id="guide4305" />
    <sodipodi:guide
       orientation="0,1"
       position="0,300"
       id="guide3462" />
    <sodipodi:guide
       orientation="0,1"
       position="0,350"
       id="guide3464" />
  </sodipodi:namedview>
  <defs
     id="defs4" />
  <metadata
     id="metadata25">
    <rdf:RDF>
      <cc:Work
         rdf:about="">
        <dc:format>image/svg+xml</dc:format>
        <dc:type
           rdf:resource="http://purl.org/dc/dcmitype/StillImage" />
        <dc:title />
      </cc:Work>
    </rdf:RDF>
  </metadata>
  <path
     style="fill:#fbf2d5;fill-opacity:1;stroke:#000000;stroke-width:0.43075556;stroke-linecap:butt;stroke-linejoin:miter;stroke-miterlimit:4;stroke-opacity:1;stroke-dasharray:none"
     d="m -56.10865,-15.661692 c 28.598003,1.375504 33.285653,-0.300894 33.285653,-0.300894 -0.07326,3.43788 -0.793839,7.6500587 -0.134913,12.0356717 -11.238183,-1.119108 -22.642672,0.126268 -33.858955,-0.859696 0.553645,-3.419849 0.525144,-6.9974107 0.708215,-10.8750817 z"
     id="answerlabel"
     inkscape:connector-curvature="0"
     sodipodi:nodetypes="ccccc" />
  <g
     id="id_FirstLetter"
     transform="translate(6,0)">
    <use
       height="360"
       width="640"
       transform="translate(101.34099,56.866115)"
       id="use3793"
       xlink:href="#answerlabel"
       y="0"
       x="0" />
    <g
       id="robot"
       transform="translate(-3.4090097,-0.88388345)">
      <path
         id="path4536"
         d="m 62.635037,20.894835 -2.467171,-2.585242 0.1194,-0.132705 2.467172,2.574932 c 1.123831,-1.084918 2.35409,-0.995117 3.389118,-0.144013 l 2.430587,-2.55032 0.131374,0.107761 -2.358081,2.634798 c 1.040349,1.148775 1.488352,2.668057 1.828594,3.974481 0.749331,0.128281 1.904758,-0.244822 2.110632,1.089574 4.177363,0.490241 3.7716,2.887568 3.768274,5.600858 0.62095,0.37716 0.701438,2.285909 -0.705429,2.435576 -0.03492,0 -0.474277,-0.487913 -0.474277,-0.487913 0,0 -0.625606,0.472946 -0.697114,0.42472 -1.260858,-0.909307 -0.853765,-2.260964 -0.139023,-2.618169 0,-0.550772 0.07916,-1.405536 0.0066,-2.039457 -0.08314,-0.635252 -0.383479,-0.791238 -0.789907,-0.945893 -0.311971,-0.120732 -0.622281,-0.0479 -0.994119,-0.05953 -0.01164,0.920949 0.01197,2.070722 -0.09612,3.184242 -0.02328,0.298668 -0.04657,1.23292 -0.443014,1.365293 l -0.7184,0.01197 c 0.408091,0.310308 0.731372,0.454653 0.731372,1.209306 0,0.50288 -0.610641,0.826493 -0.623612,1.292788 -0.02328,0.383146 0.718733,0.695118 0.647225,1.592785 -0.05987,0.766626 -0.574387,0.945894 -0.61064,1.340681 -0.02361,0.395121 0.587027,0.179268 0.587027,1.149773 0,0.789907 -0.587027,0.586028 -0.587027,1.221279 0,0.418402 0.837801,0.478269 1.065294,1.173055 0.167627,0.539132 0.192239,0.658533 0.05987,1.161413 -1.699548,0 -3.220827,0.09615 -5.161837,0.03509 0.01164,-0.789907 -0.08314,-0.50288 0.03625,-1.184695 0.119734,-0.693788 0.778267,-0.849774 0.814853,-1.076935 0.07117,-0.479266 -0.610641,-0.563744 -0.587359,-1.269173 0.01164,-0.695119 0.7184,-0.838134 0.682147,-1.281147 -0.05987,-0.539132 -0.705429,-0.646893 -0.682147,-1.509638 0.01164,-0.837801 0.490907,-0.837801 0.479266,-1.280814 -0.01297,-0.491239 -0.70676,-0.526161 -0.598667,-1.448773 0.07117,-0.681815 0.443014,-0.886027 0.7184,-1.161413 l -1.976265,-0.05987 c 0.275387,0.346895 0.551106,0.40676 0.539133,1.400547 -0.01164,0.922612 -0.622281,0.826493 -0.539133,1.401878 0.05987,0.454654 0.587359,0.430042 0.539133,1.329041 -0.04789,1.077267 -0.646893,1.0174 -0.598667,1.460413 0.04789,0.466295 0.802879,0.311805 0.706759,1.22128 -0.09612,0.886027 -0.62228,0.789907 -0.658866,1.281147 -0.03625,0.359865 0.778267,0.359865 0.81452,0.910639 0.03526,0.682146 0.09512,0.610639 0.02361,1.208308 -2.118948,0.09615 -3.784904,0.05976 -5.590882,0.05976 -0.1194,-0.645562 -0.1194,-0.886026 0.323613,-1.591455 0.466295,-0.766626 1.197666,-0.635252 1.161413,-0.838134 -0.09612,-0.419732 -0.670506,-0.359865 -0.7184,-1.161413 -0.02328,-0.599 0.778267,-0.743012 0.802878,-1.11352 0.03493,-0.479599 -0.718399,-0.671837 -0.743011,-1.677264 -0.01197,-0.778267 0.789907,-0.7184 0.837801,-1.173387 0.05987,-0.550774 -0.849774,-0.61064 -0.874386,-1.304428 -0.03492,-0.706759 0.180598,-1.209307 0.527492,-1.473053 l -0.874386,-0.01164 c -0.335254,0.03492 -0.466295,0.04789 -0.490907,-0.970505 -0.02361,-1.185028 -0.01197,-2.178815 0,-3.184574 -2.215732,-0.612637 -1.940012,2.521717 -1.859192,2.997657 1.204982,0.994118 0.618954,2.145886 -0.246651,2.639121 -0.386805,-0.284 -0.618622,-0.530817 -0.618622,-0.530817 0,0 -0.286761,0.260254 -0.687136,0.521173 -1.632365,-0.888356 -0.834808,-2.492782 -0.360198,-2.724599 -0.52084,-3.015617 0.199921,-5.291548 3.904636,-5.248311 0.0909,-1.148442 0.550774,-1.053321 1.628041,-1.161413 0.58104,-1.867176 0.378491,-2.337794 1.689238,-4.011067 z"
         inkscape:connector-curvature="0" />
      <path
         id="path4538"
         d="m 62.335704,22.358242 c 0.287027,-0.731704 0.550774,-1.053653 0.993787,-1.388907 0.526161,-0.39645 1.029041,-0.623611 1.83192,-0.288357 0.789907,0.334921 1.161413,0.993786 1.544892,1.808305 0.489576,1.089906 0.670175,1.783694 0.741682,2.322827 -2.478813,0.08314 -3.448986,0.05987 -5.710615,0.09645 0.08281,-0.70676 0.21552,-1.604759 0.598667,-2.55032 z"
         inkscape:connector-curvature="0"
         style="fill:#ffff00" />
      <path
         id="path4540"
         d="m 61.271408,35.751745 c 0,-0.215853 2.095665,-0.204211 2.084025,-0.03659 -0.02462,0.288358 0.61064,0.348225 0.586028,1.090238 -0.01197,0.622281 -0.61064,0.802879 -0.574388,1.041681 0.02328,0.167626 -2.120277,0.167626 -2.072052,-0.02462 0.0479,-0.13104 -0.634254,-0.346893 -0.634254,-1.136801 0,-0.658533 0.610641,-0.754652 0.610641,-0.93392 z"
         inkscape:connector-curvature="0"
         style="fill:#a1a1a1" />
      <path
         id="path4542"
         d="m 61.271408,38.412485 c -0.03526,-0.323478 2.059081,-0.263712 2.084025,0.03509 0.01164,0.215687 0.73004,0.383147 0.753322,0.898999 0.04823,0.753654 -0.753322,0.778265 -0.717069,0.992456 0.0469,0.288424 -2.191786,0.371506 -2.168505,0.09615 0.01297,-0.263746 -0.633921,-0.454654 -0.670173,-1.136802 -0.02361,-0.408091 0.743011,-0.658533 0.7184,-0.886026 z"
         inkscape:connector-curvature="0"
         style="fill:#a1a1a1" />
      <path
         id="path4544"
         d="m 66.626148,38.412485 c 0.05953,-0.167593 2.203427,-0.155918 2.1552,0.08444 -0.04789,0.27542 0.526161,0.190975 0.514521,0.957534 -0.02328,0.645562 -0.670507,0.622281 -0.646893,0.838134 0.03626,0.395119 -1.963293,0.346893 -1.999546,0.09615 -0.02328,-0.15592 -0.633922,-0.408091 -0.645562,-1.101546 -0.02495,-0.479599 0.562414,-0.647225 0.62228,-0.87472 z"
         inkscape:connector-curvature="0"
         style="fill:#a1a1a1" />
      <path
         id="path4546"
         d="m 63.566296,41.139745 c 0.574388,0.32348 0.789908,1.281147 0.514522,1.304428 -0.7184,0.04806 -3.184242,0.120798 -4.227252,0.01297 -0.190908,-0.01297 0.08448,-1.042012 0.659198,-1.329039 0.503545,-0.252073 2.395332,-0.348225 3.053865,0.01167 z"
         inkscape:connector-curvature="0"
         style="fill:#404040" />
      <path
         id="path4548"
         d="m 69.054074,41.206263 c 0.574387,0.311807 0.909641,1.342012 0.622281,1.365625 -0.7184,0.04806 -2.837347,0.05973 -3.87803,-0.03639 -0.192238,-0.02338 -0.192238,-0.993787 0.370842,-1.281147 0.502214,-0.250774 2.226374,-0.418401 2.884907,-0.0481 z"
         inkscape:connector-curvature="0"
         style="fill:#404040" />
      <path
         id="path4550"
         d="m 55.883407,31.760634 c 0.01331,-0.400108 0.982147,-0.338579 0.982147,-0.01164 0.564409,0.002 1.293785,1.349993 0.09612,1.855201 -0.07283,-0.03492 -0.155986,-0.131041 -0.299999,-0.334921 1.14678,-1.424494 -1.67294,-1.272832 -0.395119,0.03625 -0.03493,0.0479 -0.288923,0.296973 -0.433369,0.331895 -0.979485,-0.515851 -0.563411,-1.773051 0.05012,-1.87682 z"
         inkscape:connector-curvature="0"
         style="fill:#ffff00" />
      <path
         id="path4552"
         d="m 72.38,31.627597 c -0.06675,-0.346561 1.29445,-0.205475 1.010084,0.05518 0.657868,0.125987 0.890683,1.308752 -0.02126,1.758418 -0.07151,-0.02495 -0.144346,-0.132705 -0.275387,-0.348225 1.241568,-1.28414 -1.548218,-1.347 -0.40676,0.02461 -0.03659,0.0479 -0.282305,0.27735 -0.413413,0.313602 -0.928266,-0.732701 -0.363523,-1.610413 0.106696,-1.803649 z"
         inkscape:connector-curvature="0"
         style="fill:#ffff00" />
      <path
         id="path4554"
         d="m 59.275853,27.869301 c -0.08272,0.01144 -0.492238,-0.04719 -0.876714,0.0077 -0.384146,0.05498 -0.743013,0.223602 -0.883699,0.290886 -0.140554,0.06728 -0.586693,-0.652546 -0.688799,-1.019396 -0.10214,-0.36685 2.29123,-0.994452 2.425929,-0.61064 0.134668,0.383812 0.105932,1.319727 0.02322,1.331368 z"
         inkscape:connector-curvature="0"
         style="fill:#a1a1a1" />
      <path
         id="path4556"
         d="m 57.14726,28.401449 c 0.06229,0.172151 -0.208403,0.891348 -0.318923,0.95055 -0.110554,0.0592 -0.830484,0.0062 -0.996781,-0.137693 -0.166396,-0.14398 0.193636,-1.605425 0.500885,-1.652985 0.307349,-0.04733 0.752657,0.667845 0.814852,0.840128 z"
         inkscape:connector-curvature="0"
         style="fill:#a1a1a1" />
      <path
         id="path4558"
         d="m 56.781408,29.765079 c 0.08541,0.145709 0.122294,1.309085 0.02328,1.413518 -0.09901,0.104535 -0.706758,0.0435 -0.8378,0 -0.131142,-0.04351 -0.300431,-1.351989 -0.155987,-1.496667 0.144446,-0.144643 0.88503,-0.06256 0.970506,0.08314 z"
         inkscape:connector-curvature="0"
         style="fill:#a1a1a1" />
      <path
         id="path4560"
         d="m 70.251408,27.703005 c 0.08195,0.107527 0.293546,0.0092 0.833477,0.11827 0.358534,0.07247 0.570395,0.20644 0.755982,0.18705 0.18542,-0.0194 0.803212,-0.613301 0.79024,-0.959198 -0.01311,-0.345896 -2.371052,-0.992456 -2.444555,-0.698443 -0.07337,0.293978 -0.01683,1.24456 0.06512,1.352321 z"
         inkscape:connector-curvature="0"
         style="fill:#a1a1a1" />
      <path
         id="path4562"
         d="m 72.246963,28.301671 c -0.03618,0.169357 0.24532,0.937911 0.360198,1.010749 0.114777,0.07293 0.885694,0.04344 1.013742,-0.170919 0.127948,-0.214356 -0.319389,-1.459417 -0.524166,-1.548218 -0.20481,-0.08864 -0.813521,0.539132 -0.849774,0.708421 z"
         inkscape:connector-curvature="0"
         style="fill:#a1a1a1" />
      <path
         id="path4564"
         d="m 72.646074,31.095449 c 0.12755,0.08132 0.789243,0.165265 0.911304,0.07972 0.122128,-0.08555 0.195963,-1.334694 0.09585,-1.490016 -0.100115,-0.155386 -0.896337,-0.03386 -0.98514,0.05625 -0.08874,0.09009 -0.149499,1.272832 -0.02195,1.353985 z"
         inkscape:connector-curvature="0"
         style="fill:#a1a1a1" />
      <path
         id="path4566"
         d="m 61.071852,32.791671 c 0,-0.21552 2.465841,-0.180597 2.454201,0 -0.02361,0.287027 0.467625,0.358535 0.443013,1.125161 -0.01197,0.646893 -0.61064,0.82616 -0.574388,1.076935 0.02328,0.180598 -2.120277,0.167626 -2.072051,-0.02328 0.03626,-0.144346 -0.634255,-0.371506 -0.634255,-1.185028 0,-0.670174 0.38348,-0.82616 0.38348,-0.993787 z"
         inkscape:connector-curvature="0"
         style="fill:#a1a1a1" />
      <path
         id="path4568"
         d="m 66.459852,32.991227 c 0,-0.20388 2.024159,-0.20388 2.012517,-0.02328 -0.02461,0.275387 0.586029,0.346895 0.574389,1.088576 -0.01197,0.622281 -0.599,0.802878 -0.562747,1.042013 0.02328,0.167626 -2.04744,0.155985 -2.011188,-0.02328 0.03526,-0.144345 -0.623611,-0.359866 -0.623611,-1.138131 0,-0.658867 0.61064,-0.754986 0.61064,-0.945894 z"
         inkscape:connector-curvature="0"
         style="fill:#a1a1a1" />
      <path
         id="path4570"
         d="m 66.559629,35.651967 c 0,-0.215852 2.082696,-0.202881 2.071054,-0.02361 -0.02361,0.275387 0.610308,0.346895 0.598668,1.090239 -0.01164,0.633921 -0.622281,0.82483 -0.587026,1.065294 0.02461,0.167627 -2.107307,0.155986 -2.059414,-0.02462 0.03659,-0.143015 -0.645562,-0.358867 -0.645562,-1.161745 0,-0.657204 0.62228,-0.753323 0.62228,-0.945562 z"
         inkscape:connector-curvature="0"
         style="fill:#a1a1a1" />
      <path
         id="path4572"
         d="m 63.4,21.566671 0,0 c 0.475608,0 0.862745,0.40277 0.862745,0.897668 0,0.494898 -0.387137,0.897668 -0.862745,0.897668 -0.475275,0 -0.862412,-0.40277 -0.862412,-0.897668 0,-0.494898 0.387137,-0.897668 0.862412,-0.897668 z m -0.03625,0.190909 c 0.375496,0 0.682147,0.31696 0.682147,0.706759 0,0.389799 -0.306651,0.706759 -0.682147,0.706759 -0.375497,0 -0.682148,-0.31696 -0.682148,-0.706759 0,-0.389799 0.306651,-0.706759 0.682148,-0.706759 z m 0.05986,0.179268 c 0.250775,0 0.454655,0.22084 0.454655,0.490905 0,0.270399 -0.20388,0.49124 -0.454655,0.49124 -0.250774,0 -0.454986,-0.220841 -0.454986,-0.49124 0,-0.270065 0.204212,-0.490905 0.454986,-0.490905"
         inkscape:connector-curvature="0"
         style="fill-rule:evenodd" />
      <path
         id="path4574"
         d="m 64.697111,22.511235 c 0,0.515851 0.394787,0.922612 0.886027,0.922612 0.491239,0 0.886027,-0.406761 0.886027,-0.922612 0,-0.514189 -0.394788,-0.920949 -0.886027,-0.920949 -0.49124,0 -0.886027,0.40676 -0.886027,0.920949 z m 0.227494,-0.01164 c 0,0.408092 0.311638,0.730374 0.706759,0.730374 0.383146,0 0.610308,-0.335253 0.610308,-0.742014 0,-0.394787 -0.227162,-0.70676 -0.610308,-0.70676 -0.395121,0 -0.706759,0.323613 -0.706759,0.7184 z m 0.192238,-0.02328 c 0,0.275387 0.20388,0.49124 0.454654,0.49124 0.239134,0 0.443013,-0.215853 0.443013,-0.49124 0,-0.275387 -0.203879,-0.491239 -0.443013,-0.491239 -0.250774,0 -0.454654,0.215852 -0.454654,0.491239"
         inkscape:connector-curvature="0"
         style="fill-rule:evenodd" />
      <path
         id="path4576"
         d="m 69.586222,25.408116 c 0.419732,0.119401 0.204212,5.244985 0.03659,6.681785 -0.04823,0.370175 -9.744963,0.310308 -9.80483,-0.02462 -0.250443,-1.364295 -0.263746,-6.129681 0.203547,-6.548748 0.346229,-0.310642 8.680667,-0.371838 9.565362,-0.108093 z"
         inkscape:connector-curvature="0"
         style="fill:#e0e0e0" />
      <path
         id="path4578"
         d="m 62.502,26.439153 c 0.03492,0.03626 0.03492,1.089906 -0.02462,1.149773 -0.05987,0.0715 -1.388906,0.05987 -1.460413,0.01164 -0.04789,-0.0479 -0.05987,-1.053653 -0.02328,-1.149772 0.03492,-0.05987 1.423828,-0.07151 1.508307,-0.01164 z"
         inkscape:connector-curvature="0" />
      <path
         id="path4580"
         d="m 62.202667,26.671967 c 0.03659,0.02495 0.02495,0.647226 -0.01164,0.682148 -0.03626,0.03659 -0.814519,0.03659 -0.849441,0 -0.03659,-0.02328 -0.03659,-0.622281 -0.02495,-0.670174 0.02495,-0.04823 0.838134,-0.04823 0.886027,-0.01197 z"
         inkscape:connector-curvature="0"
         style="fill:#0000ff" />
      <path
         id="path4582"
         d="m 64.963185,28.102116 c 0.07151,-0.155986 3.232468,-0.179267 3.425704,-0.02361 0.09612,0.0715 0.08314,2.585575 -0.04823,2.717947 -0.144012,0.154655 -3.172601,0.143014 -3.316613,0.01164 -0.108092,-0.09612 -0.131375,-2.490453 -0.05987,-2.705973"
         inkscape:connector-curvature="0" />
      <path
         id="path4584"
         d="m 68.056296,28.334931 c 0.07151,0.05953 0.07151,2.059081 -0.03493,2.178813 -0.120731,0.119401 -2.538679,0.107761 -2.646439,0.01164 -0.09612,-0.08314 -0.119733,-1.999547 -0.04823,-2.167174 0.04823,-0.131042 2.573934,-0.143015 2.729587,-0.02328 z"
         inkscape:connector-curvature="0"
         style="fill:#0000ff" />
      <path
         id="path4586"
         d="m 64.431037,26.405894 c 0.03492,0.03626 0.03492,1.101546 -0.02462,1.161413 -0.0715,0.05987 -1.400547,0.05987 -1.460413,0 -0.04789,-0.04789 -0.05987,-1.053654 -0.02328,-1.138132 0.02328,-0.07151 1.423828,-0.08314 1.508307,-0.02328 z"
         inkscape:connector-curvature="0" />
      <path
         id="path4588"
         d="m 64.131704,26.638709 c 0.02461,0.02361 0.02461,0.647225 -0.01197,0.682147 -0.03625,0.03626 -0.826161,0.03626 -0.862413,0 -0.02361,-0.02328 -0.03526,-0.62228 -0.01197,-0.670507 0.02495,-0.03626 0.838133,-0.04789 0.886359,-0.01164 z"
         inkscape:connector-curvature="0"
         style="fill:#0000ff" />
      <path
         id="path4590"
         d="m 62.502,28.102116 c 0.04823,0.03492 0.04823,1.088575 -0.01164,1.149772 -0.07283,0.05953 -1.401877,0.05953 -1.461744,0.01164 -0.04657,-0.04823 -0.05953,-1.053653 -0.02328,-1.149773 0.02328,-0.05987 1.425159,-0.0715 1.496667,-0.01164 z"
         inkscape:connector-curvature="0" />
      <path
         id="path4592"
         d="m 62.235926,28.301671 c 0.02328,0.01164 0.02328,0.645562 -0.01297,0.682148 -0.03526,0.03626 -0.826493,0.03626 -0.861414,0 -0.02462,-0.02328 -0.03659,-0.622281 -0.01164,-0.670507 0.01164,-0.04789 0.8378,-0.04789 0.886026,-0.01164 z"
         inkscape:connector-curvature="0"
         style="fill:#0000ff" />
      <path
         id="path4594"
         d="m 64.464296,28.068856 c 0.04823,0.03526 0.04823,1.10055 -0.01164,1.148776 -0.07283,0.0725 -1.401878,0.05953 -1.461745,0.01297 -0.04657,-0.04823 -0.05953,-1.053654 -0.02328,-1.149773 0.02328,-0.05987 1.412188,-0.0715 1.496666,-0.01197 z"
         inkscape:connector-curvature="0" />
      <path
         id="path4596"
         d="m 64.164963,28.301671 c 0.02328,0.02328 0.02328,0.645562 -0.01297,0.682148 -0.03526,0.03493 -0.826493,0.03493 -0.861414,0 -0.02462,-0.02495 -0.03659,-0.622281 -0.01164,-0.670507 0.01164,-0.04789 0.837801,-0.04789 0.886027,-0.01164 z"
         inkscape:connector-curvature="0"
         style="fill:#0000ff" />
      <path
         id="path4598"
         d="m 62.568519,29.665301 c 0.04789,0.03492 0.03625,1.101547 -0.02328,1.161414 -0.05987,0.05987 -1.388906,0.05987 -1.450104,0 -0.04657,-0.04823 -0.05987,-1.053654 -0.02328,-1.138132 0.02328,-0.07151 1.413519,-0.08314 1.496667,-0.02328 z"
         inkscape:connector-curvature="0" />
      <path
         id="path4600"
         d="m 62.269186,29.898116 c 0.02361,0.02361 0.02361,0.645894 -0.01297,0.682147 -0.03493,0.03626 -0.82483,0.03626 -0.861416,0 -0.02461,-0.02328 -0.03626,-0.622281 -0.01164,-0.670507 0.01164,-0.03626 0.838133,-0.04789 0.886027,-0.01164 z"
         inkscape:connector-curvature="0"
         style="fill:#ff0000" />
      <path
         id="path4602"
         d="m 64.497556,29.69856 c 0.04789,0.02328 0.03625,1.088575 -0.02328,1.149773 -0.05987,0.05987 -1.388906,0.05987 -1.450104,0 -0.04657,-0.03659 -0.0715,-1.053654 -0.02328,-1.138132 0.02328,-0.07151 1.413519,-0.08448 1.496667,-0.01164 z"
         inkscape:connector-curvature="0" />
      <path
         id="path4604"
         d="m 64.231481,29.898116 c 0.02361,0.02461 0.02361,0.647225 -0.01297,0.683478 -0.03492,0.03492 -0.824829,0.03492 -0.861082,0 -0.02495,-0.02462 -0.03659,-0.610641 -0.01197,-0.670507 0.01197,-0.03625 0.838134,-0.04789 0.886026,-0.01297 z"
         inkscape:connector-curvature="0"
         style="fill:#0000ff" />
      <path
         id="path4606"
         d="m 66.393333,26.439153 c 0.03625,0.03626 0.03625,1.089906 -0.02361,1.149773 -0.0715,0.05987 -1.400548,0.05987 -1.460082,0 -0.04823,-0.03626 -0.05987,-1.042013 -0.02495,-1.138132 0.02495,-0.0715 1.425492,-0.08314 1.508639,-0.01164 z"
         inkscape:connector-curvature="0" />
      <path
         id="path4608"
         d="m 66.127259,26.638709 c 0.02328,0.01197 0.02328,0.635584 -0.01164,0.670506 -0.03659,0.03626 -0.814518,0.03626 -0.851104,0.01164 -0.03493,-0.03492 -0.04789,-0.62228 -0.02328,-0.682147 0.02328,-0.03626 0.837801,-0.0479 0.886026,0 z"
         inkscape:connector-curvature="0"
         style="fill:#ff0000" />
      <path
         id="path4610"
         d="m 68.35563,26.439153 c 0.04823,0.03626 0.04823,1.089906 -0.01164,1.149773 -0.07151,0.05987 -1.400547,0.05987 -1.460081,0.01164 -0.04823,-0.0479 -0.05987,-1.053653 -0.02495,-1.149772 0.02495,-0.05987 1.413518,-0.07151 1.496667,-0.01164 z"
         inkscape:connector-curvature="0" />
      <path
         id="path4612"
         d="m 68.056296,26.638709 c 0.02328,0.01164 0.02328,0.647225 -0.01164,0.682147 -0.03659,0.03626 -0.826492,0.03626 -0.862745,0 -0.02328,-0.02328 -0.03625,-0.62228 -0.01164,-0.670507 0.01164,-0.04789 0.837801,-0.04789 0.886026,-0.01164 z"
         inkscape:connector-curvature="0"
         style="fill:#ff0000" />
    </g>
    <rect
       y="10"
       x="33.934132"
       height="50"
       width="55"
       id="rect4029"
       style="fill:none;stroke:none" />
  </g>
  <g
     id="id_NameTerms"
     transform="translate(-129.59102,0)">
    <use
       x="0"
       y="0"
       xlink:href="#answerlabel"
       id="use3797"
       transform="matrix(-1,0,0,1,212.12184,56.741114)"
       width="640"
       height="360" />
    <use
       height="360"
       width="640"
       transform="matrix(0.98168153,-0.02624163,0.02624163,0.98168153,190.06138,2.6358049)"
       id="use4027"
       xlink:href="#robot"
       y="0"
       x="0" />
    <rect
       y="10"
       x="224.59102"
       height="50"
       width="55"
       id="rect4166"
       style="fill:none;stroke:none" />
  </g>
  <g
     id="id_Read">
    <rect
       y="10"
       x="-5.5"
       height="50"
       width="45.5"
       id="rect4541"
       style="fill:none;stroke:none" />
    <path
       style="fill:#c8c8c8;fill-opacity:0.50196081;stroke:none"
       d="M -5.5,50.625019 -5.5,60 40,60 40,50.875019 c -14.16706,-1.934071 -37.8333329,0.08333 -45.5,-0.25 z"
       id="path4607"
       inkscape:connector-curvature="0"
       sodipodi:nodetypes="ccccc" />
    <use
       x="0"
       y="0"
       xlink:href="#robot"
       id="use4465"
       transform="matrix(1.1801627,0,0,1.1801627,-55.137725,1.1116326)"
       width="640"
       height="360" />
  </g>
  <g
     id="three_apples"
     transform="matrix(1.2099774,0,0,1.2099774,31.970187,-20.830287)">
    <path
       style="fill:#a16121;stroke:#232323;stroke-width:0.33707997;stroke-linejoin:round;stroke-miterlimit:4;stroke-dasharray:none"
       inkscape:connector-curvature="0"
       d="m -137.86095,82.632043 c 0.37846,-1.532415 0.36451,-2.649965 1.51167,-3.466217 l 0.53726,0.449296 c -1.12067,0.788771 -1.19067,2.337266 -1.40018,3.416438 z"
       id="use3067" />
    <path
       style="fill:#c60000;stroke:#232323;stroke-width:0.33707997;stroke-linejoin:round;stroke-miterlimit:4;stroke-dasharray:none"
       inkscape:connector-curvature="0"
       d="m -132.98626,87.817896 c -2.57425,4.822832 -3.87486,6.223009 -6.68973,3.79292 -3.25983,1.205193 -3.50045,-1.455666 -4.13676,-6.06744 -0.63941,-4.613326 3.43614,-6.694921 6.58603,-3.605717 2.40935,-1.550047 6.81939,1.060508 4.24306,5.88075 z"
       id="use3069" />
    <path
       style="fill:#ffffff;stroke:none"
       inkscape:connector-curvature="0"
       d="m -142.63193,83.669216 c -0.004,-0.331381 0.42369,-1.649618 0.79188,-2.007442 0.59533,-0.577707 1.42974,-0.638895 1.40329,-0.106933 -0.0258,0.553327 -0.99983,1.671921 -1.36958,2.033367 -0.3668,0.354351 -0.81781,0.401546 -0.82559,0.0809 z"
       id="use3071" />
    <path
       style="fill:#a16121;stroke:#232323;stroke-width:0.38341936;stroke-linejoin:round;stroke-miterlimit:4;stroke-dasharray:none"
       inkscape:connector-curvature="0"
       d="m -145.74139,87.773821 c 0.16706,-1.787325 -0.0373,-3.042581 1.11546,-4.153907 l 0.68013,0.414683 c -1.12785,1.076523 -0.94499,2.830225 -0.99808,4.079582 z"
       id="use3022" />
    <path
       style="fill:#c60000;stroke:#232323;stroke-width:0.38341936;stroke-linejoin:round;stroke-miterlimit:4;stroke-dasharray:none"
       inkscape:connector-curvature="0"
       d="m -151.69913,93.082704 c 1.89055,5.784914 4.73257,6.571218 7.37934,5.547784 2.98596,0.143929 5.08591,0.793383 6.02854,-6.117014 0.94262,-6.907448 -4.19461,-6.459142 -7.02543,-5.248127 -2.32647,-1.069445 -8.27006,0.03321 -6.38245,5.819717 z"
       id="use3024" />
    <path
       style="fill:#ffffff;stroke:none"
       inkscape:connector-curvature="0"
       d="m -150.51938,91.902952 c -0.21714,-0.335344 -0.46937,-1.895271 -0.18776,-2.447985 0.45627,-0.892482 1.57438,-1.382079 1.87875,-0.827596 0.31877,0.575955 -0.31599,2.213215 -0.59695,2.770058 -0.2819,0.548348 -0.87715,0.827596 -1.09363,0.505051 z"
       id="use3026" />
    <path
       style="fill:#a16121;stroke:#232323;stroke-width:0.3596648;stroke-linejoin:round;stroke-miterlimit:4;stroke-dasharray:none"
       inkscape:connector-curvature="0"
       d="m -130.10483,85.795229 c 0.18692,-1.673826 0.0165,-2.854079 1.11607,-3.87719 l 0.63079,0.400503 c -1.07567,0.99046 -0.93402,2.638279 -1.0054,3.809129 z"
       id="use3031" />
    <path
       style="fill:#c60000;stroke:#232323;stroke-width:0.3596648;stroke-linejoin:round;stroke-miterlimit:4;stroke-dasharray:none"
       inkscape:connector-curvature="0"
       d="m -124.68219,91.439198 c -2.69362,5.033093 -5.44754,5.293712 -7.7245,3.915366 -2.78103,-0.356232 -4.82725,-0.100208 -4.56774,-6.634429 0.2614,-6.534835 4.93294,-5.280434 7.34823,-3.696251 2.32399,-0.606446 7.63596,1.386096 4.94124,6.418635 z"
       id="use3033" />
    <path
       style="fill:#ffffff;stroke:none"
       inkscape:connector-curvature="0"
       d="m -135.19547,87.510553 c -0.14718,-0.344611 -0.13147,-1.826545 0.21707,-2.292447 0.5644,-0.752528 1.67549,-1.026431 1.8686,-0.465076 0.20274,0.583211 -0.64518,1.995309 -0.99434,2.465086 -0.34804,0.461867 -0.94287,0.624714 -1.09116,0.292325 z"
       id="use3035" />
  </g>
  <g
     id="twelve_apples"
     transform="matrix(0.74931392,0,0,0.74931392,-15.145053,21.885986)">
    <use
       height="360"
       width="640"
       transform="matrix(0.61002327,0.10183648,-0.10183648,0.61002327,29.98608,40.723203)"
       id="use4204"
       xlink:href="#three_apples"
       y="0"
       x="0" />
    <use
       height="360"
       width="640"
       transform="matrix(0.75308236,-0.11092258,0.11092258,0.75308236,21.337232,3.7755283)"
       id="use4202"
       xlink:href="#three_apples"
       y="0"
       x="0" />
    <use
       height="360"
       width="640"
       transform="matrix(0.85452091,0.24382902,-0.24396649,0.8522187,84.023657,46.177754)"
       id="use4200"
       xlink:href="#three_apples"
       y="0"
       x="0" />
    <use
       height="360"
       width="640"
       transform="matrix(0.99721104,0.07463337,-0.07463337,0.99721104,75.031059,13.818864)"
       id="use4196"
       xlink:href="#three_apples"
       y="0"
       x="0" />
  </g>
  <g
     id="id_CountEasy">
    <use
       height="360"
       width="640"
       transform="matrix(1.0542307,0,0,1.0542307,210.97758,-10.301842)"
       id="use4212"
       xlink:href="#three_apples"
       y="0"
       x="0" />
    <use
       height="360"
       width="640"
       transform="translate(107.79158,106.70665)"
       id="use4276"
       xlink:href="#answerlabel"
       y="0"
       x="0" />
    <rect
       y="60"
       x="40"
       height="50"
       width="55"
       id="rect4284"
       style="fill:none;stroke:none" />
  </g>
  <g
     id="id_CountReadEasy"
     transform="translate(-107.59102,0)">
    <use
       height="360"
       width="640"
       transform="matrix(0.99353371,0.11353755,-0.11353755,0.99353371,374.52498,11.002587)"
       id="use4214"
       xlink:href="#three_apples"
       y="0"
       x="0" />
    <use
       height="360"
       width="640"
       transform="matrix(-1,0,0,1,190.05551,106.86198)"
       id="use4278"
       xlink:href="#answerlabel"
       y="0"
       x="0" />
    <rect
       y="60"
       x="202.59102"
       height="50"
       width="55"
       id="rect4291"
       style="fill:none;stroke:none" />
  </g>
  <g
     id="id_CountHard"
     transform="translate(-212.35355,0)">
    <g
       id="g4312"
       transform="translate(4.8838835,1.0606601)">
      <use
         x="0"
         y="0"
         xlink:href="#twelve_apples"
         id="use4272"
         transform="matrix(1.0932371,0,0,1.0932371,451.66122,-14.125323)"
         width="640"
         height="360" />
      <use
         x="0"
         y="0"
         xlink:href="#answerlabel"
         id="use4280"
         transform="matrix(1,0,0,-1,424.97116,86.41183)"
         width="640"
         height="360" />
    </g>
    <rect
       y="60"
       x="362.35355"
       height="50"
       width="55.000004"
       id="rect4298"
       style="fill:none;stroke:none" />
  </g>
  <g
     id="id_CountReadHard"
     transform="translate(-318.7071,0)">
    <use
       height="360"
       width="640"
       transform="matrix(1.0973843,0.06352874,-0.06352874,1.0973843,624.33337,-10.338833)"
       id="use4274"
       xlink:href="#twelve_apples"
       y="0"
       x="0" />
    <use
       height="360"
       width="640"
       transform="matrix(-1,0,0,-1,512.46218,87.098069)"
       id="use4282"
       xlink:href="#answerlabel"
       y="0"
       x="0" />
    <rect
       y="60"
       x="523.70709"
       height="50"
       width="55.000008"
       id="rect4305"
       style="fill:none;stroke:none" />
  </g>
  <g
     id="id_Count">
    <rect
       y="60"
       x="-5.5"
       height="50"
       width="45.5"
       id="rect4549"
       style="fill:none;stroke:none" />
    <path
       style="fill:#c8c8c8;fill-opacity:0.50196081;stroke:none"
       d="m -5.5,100.25002 0,9.74998 45.5,0 0,-9.12498 c -21.91706,-1.184072 -26.833334,-1.5417 -45.5,-0.625 z"
       id="path4607-6"
       inkscape:connector-curvature="0"
       sodipodi:nodetypes="ccccc" />
    <use
       x="0"
       y="0"
       xlink:href="#three_apples"
       id="use4458"
       transform="matrix(0.88456644,0.10108515,-0.10108515,0.88456644,145.65078,24.67537)"
       width="640"
       height="360" />
  </g>
  <g
     id="id_ClockEasy">
    <g
       transform="matrix(0.79186448,0,0,0.79186448,-712.81198,-455.21758)"
       id="g4536">
      <g
         id="clock_background">
        <path
           style="fill:#000000;fill-opacity:1;fill-rule:evenodd;stroke:none"
           d="m 1000.911,739.27466 c 0.4889,11.66977 -9.62427,17.47979 -18.10818,15.3091 -8.48392,-2.17069 -14.70908,-12.48612 -6.96906,-22.73516 7.74001,-10.24903 24.58824,-4.24371 25.07724,7.42606 z"
           id="path3765"
           inkscape:connector-curvature="0"
           sodipodi:nodetypes="zzzz" />
        <path
           style="fill:#5050b4;fill-opacity:1;fill-rule:evenodd;stroke:none"
           d="m 986.63254,726.87846 c -8.88842,-0.3909 -18.59544,11.50994 -11.65462,21.65123 6.94081,10.14129 21.94558,7.00606 24.84657,-3.71303 2.90111,-10.71908 -4.30353,-17.54731 -13.19195,-17.9382 z m 11.60821,14.29658 c -0.70266,10.20311 -11.77807,14.7027 -19.13352,8.34217 -7.35544,-6.36052 -3.7679,-15.83305 2.17504,-19.08858 5.94295,-3.25553 17.66114,0.5433 16.95848,10.74641 z"
           id="path3767"
           inkscape:connector-curvature="0"
           sodipodi:nodetypes="zzzzzzzz" />
        <path
           style="fill:#ffffff;fill-opacity:1;fill-rule:evenodd;stroke:none"
           d="m 996.92763,742.74817 c -1.6713,7.71941 -10.95252,11.93521 -17.70829,4.8555 -6.75577,-7.07971 -0.37662,-16.43906 5.79803,-17.22966 6.17468,-0.79061 13.58157,4.65475 11.91026,12.37416 z"
           id="path3779"
           inkscape:connector-curvature="0"
           sodipodi:nodetypes="zzzz" />
        <path
           style="fill:#000000;fill-opacity:1;stroke:none"
           d="m 986.433,730.26322 c 0.16435,1.50811 0.11461,2.2235 0.11425,2.22782 0.18727,-0.002 0.38146,0.0229 0.55104,-0.0502 -0.0201,-0.74403 -0.0383,-1.48922 -0.15117,-2.17762 z"
           id="path3782"
           inkscape:connector-curvature="0"
           sodipodi:nodetypes="ccccc"
           inkscape:transform-center-y="-58.502851"
           inkscape:tile-cx="100.51066"
           inkscape:tile-cy="99.030713"
           inkscape:tile-w="4.159462"
           inkscape:tile-h="13.943399"
           inkscape:tile-x0="98.430928"
           inkscape:tile-y0="33.556162" />
        <use
           x="0"
           y="0"
           xlink:href="#path3782"
           id="use3784"
           transform="matrix(-0.03639416,-0.99950961,-1.1616796,0.03131355,1882.0158,1704.1321)"
           width="744.09448"
           height="1052.3622" />
        <use
           x="0"
           y="0"
           xlink:href="#path3782"
           id="use3786"
           transform="matrix(0.99502721,-0.09960347,-0.09148554,-0.91393003,71.857911,1517.0463)"
           width="744.09448"
           height="1052.3622" />
        <use
           x="0"
           y="0"
           xlink:href="#path3782"
           id="use3788"
           transform="matrix(-0.04345369,-0.99885791,-0.90842503,0.04777947,1684.5219,1691.524)"
           width="744.09448"
           height="1052.3622" />
        <use
           x="0"
           y="0"
           inkscape:tiled-clone-of="#path3782"
           xlink:href="#path3782"
           transform="matrix(0.8660254,0.5,-0.5,0.8660254,502.50757,-394.25564)"
           id="use3814"
           inkscape:transform-center-x="-29.155161"
           inkscape:transform-center-y="-50.807262"
           width="744.09448"
           height="1052.3622" />
        <use
           x="0"
           y="0"
           inkscape:tiled-clone-of="#path3782"
           xlink:href="#path3782"
           transform="matrix(0.5,0.8660254,-0.8660254,0.5,1135.0593,-484.14731)"
           id="use3816"
           inkscape:transform-center-x="-50.613653"
           inkscape:transform-center-y="-29.333587"
           width="744.09448"
           height="1052.3622" />
        <use
           x="0"
           y="0"
           inkscape:tiled-clone-of="#path3782"
           xlink:href="#path3782"
           transform="matrix(-0.5,0.8660254,-0.8660254,-0.5,2121.8249,256.62869)"
           id="use3820"
           inkscape:transform-center-x="-50.807258"
           inkscape:transform-center-y="29.155161"
           width="744.09448"
           height="1052.3622" />
        <use
           x="0"
           y="0"
           inkscape:tiled-clone-of="#path3782"
           xlink:href="#path3782"
           transform="matrix(-0.8660254,0.5,-0.5,-0.8660254,2212.0397,888.93802)"
           id="use3822"
           inkscape:transform-center-x="-29.333585"
           inkscape:transform-center-y="50.613662"
           width="744.09448"
           height="1052.3622" />
        <use
           x="0"
           y="0"
           inkscape:tiled-clone-of="#path3782"
           xlink:href="#path3782"
           transform="matrix(-0.8660254,-0.5,0.5,-0.8660254,1471.0214,1875.7845)"
           id="use3826"
           inkscape:transform-center-x="29.15516"
           inkscape:transform-center-y="50.807257"
           width="744.09448"
           height="1052.3622" />
        <use
           x="0"
           y="0"
           inkscape:tiled-clone-of="#path3782"
           xlink:href="#path3782"
           transform="matrix(-0.5,-0.8660254,0.8660254,-0.5,838.59083,1965.9992)"
           id="use3828"
           inkscape:transform-center-x="50.613657"
           inkscape:transform-center-y="29.333584"
           width="744.09448"
           height="1052.3622" />
        <use
           x="0"
           y="0"
           inkscape:tiled-clone-of="#path3782"
           xlink:href="#path3782"
           transform="matrix(0.5,-0.8660254,0.8660254,0.5,-148.29598,1225.0213)"
           id="use3832"
           inkscape:transform-center-x="50.807261"
           inkscape:transform-center-y="-29.15516"
           width="744.09448"
           height="1052.3622" />
        <use
           x="0"
           y="0"
           inkscape:tiled-clone-of="#path3782"
           xlink:href="#path3782"
           transform="matrix(0.8660254,-0.5,0.5,0.8660254,-238.38961,592.42922)"
           id="use3834"
           inkscape:transform-center-x="29.333586"
           inkscape:transform-center-y="-50.613658"
           width="744.09448"
           height="1052.3622" />
        <path
           style="fill:#afcdfa;fill-opacity:1;fill-rule:evenodd;stroke:none"
           d="m 987.03054,729.46932 c -9.61147,-0.42803 -14.34444,10.17488 -10.25181,16.794 4.09264,6.61912 13.20837,8.8407 18.88597,1.43144 5.6776,-7.40924 0.97733,-17.79742 -8.63416,-18.22544 z m 7.58358,4.28395 c 6.01318,6.49237 1.70344,14.39841 -4.17002,17.19132 -5.87342,2.79291 -16.19594,-3.82895 -14.02524,-12.53718 2.17069,-8.70824 12.18206,-11.14651 18.19526,-4.65414 z"
           id="path3773"
           inkscape:connector-curvature="0"
           sodipodi:nodetypes="zzzzzzzz" />
      </g>
      <g
         transform="translate(0,-0.26516505)"
         id="clock_minute">
        <path
           style="fill:#000000;fill-opacity:1;stroke:none"
           d="m 986.53531,740.40946 c -0.0848,-1.74279 -0.0141,-4.73042 -0.0141,-4.73042 -0.1844,-0.011 -0.42234,0.0109 -0.90411,0.18257 0,0 0.96434,-2.48074 1.29966,-2.55608 0.33533,-0.0753 1.17994,2.62248 1.17994,2.62248 -0.24613,-0.12267 -0.60518,-0.27516 -0.78439,-0.23238 -0.0874,1.5614 -0.002,3.01708 0.0565,4.66403 z"
           id="path3836"
           inkscape:connector-curvature="0"
           sodipodi:nodetypes="ccczcccc" />
        <path
           style="fill:#44449c;fill-opacity:1;stroke:none"
           d="m 986.63067,740.38871 c -0.0628,-1.58085 0.0319,-4.87822 0.0319,-4.87822 -0.13668,-0.01 -0.42252,-0.0689 -0.77959,0.0868 0,0 0.78521,-1.90169 1.03374,-1.97004 0.24854,-0.0683 0.89844,2.00536 0.89844,2.00536 -0.20617,-0.18566 -0.5301,-0.14998 -0.66161,-0.10704 -0.0648,1.41632 0.0376,3.31161 0.0807,4.80555 z"
           id="path3836-3"
           inkscape:connector-curvature="0"
           sodipodi:nodetypes="ccczcccc" />
      </g>
      <g
         id="clock_hour">
        <path
           style="fill:#000000;fill-opacity:1;stroke:none"
           d="m 987.04999,740.31083 c 1.07972,1.65543 2.1109,3.642 2.1109,3.642 0.21896,-0.11131 0.31096,-0.19052 0.7699,-0.67843 0,0 0.38721,2.63437 0.0427,2.93034 -0.34448,0.29596 -2.55895,-1.70668 -2.55895,-1.70668 0.35312,-0.0425 0.84441,0.004 1.02708,-0.15615 -0.77879,-1.59131 -1.14153,-1.99418 -2.1366,-3.5731 z"
           id="path3836-5"
           inkscape:connector-curvature="0"
           sodipodi:nodetypes="ccczcccc" />
        <path
           style="fill:#44449c;fill-opacity:1;stroke:none"
           d="m 986.99841,740.47583 c 0.96319,1.51093 2.09434,3.7361 2.09434,3.7361 0.16329,-0.0807 0.35587,-0.11265 0.68016,-0.50195 0,0 0.28658,1.9796 0.0383,2.21123 -0.24827,0.23166 -1.88388,-1.24526 -1.88388,-1.24526 0.3425,0.0459 0.66577,-0.14291 0.79331,-0.27213 -0.7232,-1.43383 -1.30605,-2.17593 -2.19755,-3.61452 z"
           id="path3836-3-2"
           inkscape:connector-curvature="0"
           sodipodi:nodetypes="ccczcccc" />
        <path
           style="fill:#000000;fill-opacity:1;fill-rule:evenodd;stroke:none"
           d="m 987.76807,740.26312 c 0.47172,0.6879 0.0981,1.41982 -0.52152,1.59266 -0.61964,0.17284 -1.45174,-0.19739 -1.34816,-1.14715 0.1036,-0.94974 1.39794,-1.13338 1.86968,-0.44551 z"
           id="path3765-6"
           inkscape:connector-curvature="0"
           sodipodi:nodetypes="zzzz" />
        <path
           style="fill:#afcdfa;fill-opacity:1;fill-rule:evenodd;stroke:none"
           d="m 986.54104,740.15162 c -0.75971,0.40756 -0.39522,1.38734 0.12491,1.52438 0.52014,0.13704 0.93318,-0.0735 1.11136,-0.59854 0.17816,-0.5251 -0.47657,-1.33339 -1.23625,-0.92579 z m 0.5334,0.37056 c 0.2861,0.10581 0.28456,0.49014 0.10184,0.64233 -0.18241,0.15206 -0.54672,0.10207 -0.60465,-0.23978 -0.0579,-0.34184 0.2167,-0.50835 0.50278,-0.4026 z"
           id="path3773-8"
           inkscape:connector-curvature="0"
           sodipodi:nodetypes="zzzzzzzz" />
      </g>
    </g>
    <use
       height="360"
       width="640"
       transform="translate(107.76056,157.03262)"
       id="use4439"
       xlink:href="#answerlabel"
       y="0"
       x="0" />
    <rect
       y="110"
       x="40"
       height="50"
       width="55"
       id="rect4503"
       style="fill:none;stroke:none" />
  </g>
  <g
     id="id_ClockMedium"
     transform="translate(-107.59102,0)">
    <g
       id="g3265">
      <use
         height="360"
         width="640"
         transform="matrix(-0.82163595,0.00355522,0.00355522,0.82163595,1037.7968,-481.98809)"
         id="use4649"
         xlink:href="#clock_background"
         y="0"
         x="0" />
      <use
         height="360"
         width="640"
         transform="matrix(0.88622475,0,0,-0.86318665,-644.87912,769.64119)"
         id="use4653"
         xlink:href="#clock_minute"
         y="0"
         x="0" />
      <use
         height="360"
         width="640"
         transform="matrix(-0.24312792,0.74854144,-0.74854144,-0.24312792,1024.3033,-428.12391)"
         id="use4656"
         xlink:href="#clock_hour"
         y="0"
         x="0" />
    </g>
    <use
       height="360"
       width="640"
       transform="matrix(-1,0,0,1,190.23231,156.77011)"
       id="use4443"
       xlink:href="#answerlabel"
       y="0"
       x="0" />
    <rect
       y="110"
       x="202.59102"
       height="50"
       width="55"
       id="rect4450"
       style="fill:none;stroke:none" />
  </g>
  <g
     id="id_ClockHard"
     transform="translate(-212,0)">
    <g
       id="g3316">
      <use
         height="360"
         width="640"
         transform="matrix(0,0.80718267,-0.80718267,0,987.53804,-665.23872)"
         id="use4659"
         xlink:href="#clock_background"
         y="0"
         x="0" />
      <use
         height="360"
         width="640"
         transform="matrix(-0.37879509,0.70716533,-0.70716533,-0.37879509,1287.5295,-285.79706)"
         id="use4662"
         xlink:href="#clock_minute"
         y="0"
         x="0" />
      <use
         height="360"
         width="640"
         transform="matrix(-0.29256463,-0.74697689,0.74697689,-0.29256463,125.087,1085.4192)"
         id="use4665"
         xlink:href="#clock_hour"
         y="0"
         x="0" />
    </g>
    <use
       height="360"
       width="640"
       transform="translate(429.7086,156.85591)"
       id="use4445"
       xlink:href="#answerlabel"
       y="0"
       x="0" />
    <rect
       y="110"
       x="362"
       height="50"
       width="55"
       id="rect4465"
       style="fill:none;stroke:none" />
  </g>
  <g
     id="id_Clock">
    <rect
       y="110"
       x="-5.5"
       height="50"
       width="45.5"
       id="rect4557"
       style="fill:none;stroke:none" />
    <path
       style="fill:#c8c8c8;fill-opacity:0.50196081;stroke:none"
       d="m -5.5,150.25002 0,9.74998 45.5,0 0,-9.62498 c -15.659175,0.19576 -20.922282,-0.17218 -45.5,-0.125 z"
       id="path4607-65"
       inkscape:connector-curvature="0"
       sodipodi:nodetypes="ccccc" />
    <use
       x="0"
       y="0"
       xlink:href="#g4536"
       id="use4578"
       transform="matrix(1.0679829,0,0,1.0679829,-55.685861,-3.2291545)"
       width="640"
       height="360" />
  </g>
  <g
     id="id_NotesReadEasy">
    <use
       height="360"
       width="640"
       transform="translate(107.25772,206.86353)"
       id="use4641"
       xlink:href="#answerlabel"
       y="0"
       x="0" />
    <g
       transform="matrix(1.0522582,0,0,1.0522582,-0.6233298,-10.765021)"
       id="g4671">
      <path
         style="fill:#000000;fill-opacity:1;stroke:none"
         d="m 51.554716,175.14352 c 0,0 4.194277,0.0349 6.291412,0.0367 2.097142,0.002 4.12822,-0.10549 6.291412,-0.0257 2.1632,0.0798 4.179031,0.0973 6.29142,0.0211 2.112381,-0.0761 6.291389,-0.0101 6.291389,-0.0101 0.0085,0.13725 0.0293,0.27981 -0.0077,0.39702 0,0 -4.193568,0.0213 -6.290356,0.0164 -2.096787,-0.004 -4.193575,-0.0411 -6.290363,-0.046 -2.096788,-0.004 -4.158001,-0.10344 -6.290355,-0.046 -2.132361,0.0575 -6.290364,0.0164 -6.290364,0.0164 0.01812,-0.10098 -0.04249,-0.15177 0.0031,-0.35981 z"
         id="staffline_5"
         inkscape:connector-curvature="0"
         sodipodi:nodetypes="czzzcczzzcc" />
      <path
         style="fill:#000000;fill-opacity:1;stroke:none"
         d="m 76.701532,178.73365 c 0,0 -4.172515,-0.0342 -6.258761,-0.0361 -2.086253,-0.002 -3.342722,0.0568 -6.258761,0.0252 -2.91603,-0.0316 -4.09856,-0.0175 -6.258753,-0.0207 -2.160193,-0.003 -6.258753,0.01 -6.258753,0.01 -0.0087,-0.1349 -0.03755,-0.275 -0.0015,-0.39019 0,0 4.180119,0.0103 6.266018,0.0151 2.085907,0.004 3.395986,0.18996 6.257713,0.0544 2.861718,-0.13552 4.136424,0.03 6.257712,-0.0265 2.121287,-0.0565 6.257674,-0.0161 6.257674,-0.0161 -0.01234,0.0974 -0.0077,0.20023 0,0.38488 z"
         id="staffline_4"
         inkscape:connector-curvature="0"
         sodipodi:nodetypes="czzzcczzzccc" />
      <path
         style="fill:#000000;fill-opacity:1;stroke:none"
         d="m 76.520001,181.49725 c 0,0 -4.138869,0.0342 -6.208327,0.0361 -2.06945,0.002 -3.315801,-0.0164 -6.208358,0.0152 -2.892557,0.0316 -4.065563,-0.023 -6.208366,-0.0197 -2.142795,0.003 -6.208366,-0.01 -6.208366,-0.01 -0.0087,0.1349 -0.029,0.27499 0.007,0.39019 0,0 4.138213,-0.0103 6.207324,-0.0151 2.069111,-0.004 3.345322,-0.0686 6.207325,-0.0544 2.862003,0.0142 4.091458,0.0914 6.207324,0.0265 2.115867,-0.0649 6.207355,0.0161 6.207355,0.0161 -0.01773,-0.0993 0.02545,-0.25118 0,-0.38488 z"
         id="staffline_3"
         inkscape:connector-curvature="0"
         sodipodi:nodetypes="czzzcczzzccc" />
      <path
         style="fill:#000000;fill-opacity:1;stroke:none"
         d="m 51.460241,185.09367 c 0,0 4.170487,-0.0349 6.255738,-0.0367 2.085251,-0.002 4.104815,0.12573 6.255746,0.0459 2.150931,-0.0798 4.155334,-0.11749 6.255738,-0.0413 2.100405,0.0761 6.255754,0.0101 6.255754,0.0101 0.0085,-0.13725 0.0293,-0.2798 -0.0077,-0.39702 0,0 -4.169785,-0.0416 -6.254682,-0.0366 -2.084896,0.004 -3.735074,0.16243 -6.254689,0.10668 -2.519624,-0.0558 -4.134436,0.063 -6.254706,0.005 -2.120262,-0.0575 -6.233922,-0.0164 -6.233922,-0.0164 0.01805,0.10099 0.02838,0.1874 -0.01781,0.35982 z"
         id="staffline_2"
         inkscape:connector-curvature="0"
         sodipodi:nodetypes="czzzcczzzcc" />
      <path
         style="fill:#000000;fill-opacity:1;stroke:none"
         d="m 51.657512,188.26674 c 0,0 4.160585,0.006 6.240878,0.004 2.080292,-0.002 3.333175,0.0164 6.240878,-0.0152 2.907702,-0.0316 4.086854,-0.0175 6.240878,-0.0207 2.154023,-0.003 6.240878,0.01 6.240878,0.01 0.0085,-0.1349 0.0293,-0.275 -0.0077,-0.39021 0,0 -4.159922,0.0306 -6.239868,0.0354 -2.079946,0.004 -3.353133,0.0266 -6.239837,0.0342 -2.886695,0.008 -4.124602,0.03 -6.239829,-0.0265 -2.115226,-0.0564 -6.239837,-0.0161 -6.239837,-0.0161 0.01797,0.0993 0.04905,0.21543 0.0031,0.38488 z"
         id="staffline_1"
         inkscape:connector-curvature="0"
         sodipodi:nodetypes="czzzcczzzccc" />
      <path
         style="fill:#000000;stroke:none"
         d="m 59.502158,169.12631 c -0.471048,0.47366 -2.842608,2.68087 -1.738945,7.73671 -9.099119,7.38516 -1.790529,12.25787 2.307199,10.78761 l 0.496836,2.45004 c 0.204635,2.04562 -2.244218,3.12722 -3.761995,2.30565 2.574507,-0.41437 1.850633,-3.45929 -0.124219,-3.08661 -1.974852,0.37266 -1.508037,3.68724 1.048024,3.72627 2.556061,0.0391 3.320675,-1.81426 3.122324,-3.01673 l -0.451815,-2.48419 c 4.568545,-2.78424 1.468253,-6.43909 -1.375622,-6.00499 l -0.585341,-2.68969 c 3.527176,-2.79865 3.620656,-6.58857 1.063554,-9.72407 z m 0.40988,1.79793 c 0.02877,0 0.05745,7.7e-4 0.08696,0.003 0,0 0.852503,0.60927 0.648986,2.14727 -0.203518,1.538 -2.622373,3.58035 -2.622373,3.58035 -0.31293,-1.40034 0.07542,-5.73034 1.88643,-5.73074 z m -1.752903,8.13418 0.544972,2.52457 c -0.66788,0.10869 -1.714053,0.60131 -2.252855,1.92525 -0.538803,1.32395 0.483648,2.59042 1.703225,2.7233 0,0 -1.132543,-0.70508 -0.996788,-1.81191 0.08707,-0.70978 0.90704,-1.32587 1.855391,-1.50138 l 0.959518,4.40323 c -2.631766,1.25871 -5.399056,-0.86364 -5.403119,-3.14871 -0.0031,-1.90735 1.92559,-3.98214 3.589656,-5.11435 z m 1.173785,3.80425 c 2.832336,-0.0226 2.669398,3.41651 0.937778,4.31104 z"
         id="clef"
         inkscape:connector-curvature="0"
         sodipodi:nodetypes="cccccsscccccscscsccscsccscccc" />
      <path
         sodipodi:nodetypes="cccccccc"
         inkscape:connector-curvature="0"
         id="use3118"
         d="m 71.738786,182.81363 c 0.06053,-1.86628 -0.138247,-3.7471 0.0135,-5.28775 0.02429,-2.05052 -0.06277,-3.39713 0.0135,-5.28775 0.167836,-0.004 0.342142,-0.0123 0.485462,0.003 0.06308,1.75298 -0.0229,3.69792 -0.03625,5.28687 0.0138,1.94822 0.01041,3.39683 -0.03625,5.28687 -0.123486,-0.008 -0.185587,0.0178 -0.439979,-0.002 z"
         style="fill:#000000;fill-opacity:1;stroke:none" />
      <path
         sodipodi:nodetypes="zszsz"
         inkscape:connector-curvature="0"
         id="note_a_head"
         d="m 67.754395,183.85902 c -0.0162,-0.92778 1.397923,-2.21921 2.953224,-2.18458 0.726087,0.0162 1.501829,0.31689 1.47662,1.23388 -0.02522,0.91699 -1.348985,2.06327 -2.912777,2.10367 -0.754304,0.0195 -1.500896,-0.2252 -1.517067,-1.15297 z"
         style="fill:#000000;fill-opacity:1;stroke:none" />
    </g>
    <rect
       y="160"
       x="40"
       height="50"
       width="55"
       id="rect4699"
       style="fill:none;stroke:none" />
  </g>
  <g
     id="id_NotesReadHard"
     transform="translate(-107.59102,0)">
    <use
       height="360"
       width="640"
       transform="matrix(-1,0,0,-1,190.54578,187.09806)"
       id="use4643"
       xlink:href="#answerlabel"
       y="0"
       x="0" />
    <g
       id="g3309">
      <path
         style="fill:#000000"
         inkscape:connector-curvature="0"
         d="m 231.07038,185.17236 0.10694,-2.57587 0.99107,-0.24397 -0.10639,2.56272 z m 2.07477,-0.5381 -0.74283,0.18527 0.10639,-2.5627 0.74261,-0.17981 0.0442,-1.06451 -0.74261,0.17981 0.10872,-2.61845 -0.33651,0.004 -0.112,2.69784 -0.9916,0.25657 0.10571,-2.54617 -0.33632,-0.0139 -0.10974,2.64308 -0.74262,0.18036 -0.0443,1.0667 0.7426,-0.17981 -0.10619,2.55778 -0.74258,0.17927 -0.0441,1.06232 0.74261,-0.1798 -0.10811,2.60365 0.33633,0.0139 0.11196,-2.69676 0.99103,-0.24287 -0.10517,2.53302 0.3365,-0.004 0.10912,-2.6283 0.74263,-0.18035 z"
         id="sharp"
         sodipodi:nodetypes="cccccccccccccccccccccccccccccccccc" />
      <use
         x="0"
         y="0"
         xlink:href="#g4671"
         id="use4681"
         transform="matrix(0.99943343,0.03365727,-0.03365727,0.99943343,169.69983,-0.77041384)"
         width="640"
         height="360" />
    </g>
    <rect
       y="160"
       x="202.59102"
       height="50"
       width="55"
       id="rect4701"
       style="fill:none;stroke:none" />
  </g>
  <g
     id="id_Music">
    <rect
       y="160"
       x="-5.5"
       height="50"
       width="45.5"
       id="rect4697"
       style="fill:none;stroke:none" />
    <path
       style="fill:#c8c8c8;fill-opacity:0.50196081;stroke:none"
       d="m -5.5,200.25002 0,9.74998 45.5,0 0,-9.87498 c -21.784175,0.69576 -22.797282,-1.29718 -45.5,0.125 z"
       id="path4607-65-9"
       inkscape:connector-curvature="0"
       sodipodi:nodetypes="ccccc" />
    <use
       x="0"
       y="0"
       xlink:href="#g4671"
       id="use4592"
       transform="matrix(1.0794587,0,0,1.0794587,-55.394075,-6.3911652)"
       width="640"
       height="360" />
  </g>
  <g
     id="id_MixedEasy">
    <g
       id="g4596">
      <use
         height="360"
         width="640"
         transform="matrix(0.70565239,0.00862657,-0.00862657,0.70565239,20.04642,98.15459)"
         id="use3158-2"
         xlink:href="#g4671"
         y="0"
         x="0" />
      <use
         height="360"
         width="640"
         transform="matrix(0.71875283,0,0,0.71875283,31.561413,132.94102)"
         id="use3155-5"
         xlink:href="#g4536"
         y="0"
         x="0" />
      <use
         height="360"
         width="640"
         transform="matrix(0.64629015,0.25298794,-0.25298794,0.64629015,184.99211,215.91893)"
         id="use3153-8"
         xlink:href="#three_apples"
         y="0"
         x="0" />
      <use
         height="360"
         width="640"
         transform="matrix(0.89053662,-0.05011198,0.05011198,0.89053662,0.85855419,212.36455)"
         id="use3150-2"
         xlink:href="#robot"
         y="0"
         x="0" />
    </g>
    <use
       x="0"
       y="0"
       xlink:href="#answerlabel"
       id="use3148-8"
       transform="matrix(1.0134293,0,0,1.0134293,108.14246,256.58273)"
       width="640"
       height="360" />
    <rect
       style="fill:none;stroke:none"
       id="rect4701-9"
       width="55"
       height="50"
       x="40"
       y="210" />
  </g>
  <g
     id="id_MixedMedium">
    <use
       x="0"
       y="0"
       xlink:href="#g4671"
       id="use3158-2-8"
       transform="matrix(0.68120912,-0.04611079,0.04611079,0.68120912,67.837991,106.44307)"
       width="640"
       height="360" />
    <use
       x="0"
       y="0"
       xlink:href="#g3265"
       id="use3270"
       transform="matrix(0.70768098,0,0,0.70768098,-27.765875,133.72432)"
       width="640"
       height="360" />
    <use
       x="0"
       y="0"
       xlink:href="#robot"
       id="use3150-2-6"
       transform="matrix(0.80214195,-0.16603768,0.16603768,0.80214195,55.199251,223.55418)"
       width="640"
       height="360" />
    <use
       x="0"
       y="0"
       xlink:href="#twelve_apples"
       id="use3262"
       transform="matrix(0.75936194,0.05110955,-0.05110955,0.75936194,181.13514,174.93871)"
       width="640"
       height="360" />
    <use
       x="0"
       y="0"
       xlink:href="#answerlabel"
       id="use3148-8-3"
       transform="matrix(1.0134293,0,0,1.0134293,163.14246,256.58273)"
       width="640"
       height="360" />
    <rect
       style="fill:none;stroke:none"
       id="rect4701-9-2"
       width="55"
       height="50"
       x="95"
       y="210" />
  </g>
  <g
     transform="translate(55,0)"
     id="id_MixedHard">
    <use
       x="0"
       y="0"
       xlink:href="#g3309"
       id="use3313"
       transform="matrix(0.74095963,0,0,0.74095963,-51.587164,91.509127)"
       width="640"
       height="360" />
    <use
       x="0"
       y="0"
       xlink:href="#g3316"
       id="use3321"
       transform="matrix(0.69954204,0,0,0.69954204,-138.09676,135.36935)"
       width="640"
       height="360" />
    <use
       x="0"
       y="0"
       xlink:href="#robot"
       id="use3150-2-6-9"
       transform="matrix(0.80214195,-0.16603768,0.16603768,0.80214195,55.574251,223.92918)"
       width="640"
       height="360" />
    <use
       x="0"
       y="0"
       xlink:href="#twelve_apples"
       id="use3262-7"
       transform="matrix(0.75936194,0.05110955,-0.05110955,0.75936194,181.13514,174.93871)"
       width="640"
       height="360" />
    <use
       x="0"
       y="0"
       xlink:href="#answerlabel"
       id="use3148-8-3-1"
       transform="matrix(1.0134293,0,0,1.0134293,163.14246,256.58273)"
       width="640"
       height="360" />
    <rect
       style="fill:none;stroke:none"
       id="rect4701-9-2-9"
       width="55"
       height="50"
       x="95"
       y="210" />
  </g>
  <g
     id="id_Mixed">
    <rect
       y="210"
       x="-5.5"
       height="50"
       width="45.5"
       id="rect3161"
       style="fill:none;stroke:none" />
    <path
       style="fill:#c8c8c8;fill-opacity:0.50196081;stroke:none"
       d="m -5.5,250.25002 0,9.74998 45.5,0 0,-9.62498 c -15.659175,0.19576 -20.922282,-0.17218 -45.5,-0.125 z"
       id="path4607-65-7"
       inkscape:connector-curvature="0"
       sodipodi:nodetypes="ccccc" />
    <use
       x="0"
       y="0"
       xlink:href="#g4596"
       id="use4602"
       transform="matrix(0.90524165,0,0,0.90524165,-45.328,27.361648)"
       width="640"
       height="360" />
  </g>
  <g
     id="id_Color">
    <rect
       style="fill:none;stroke:none"
       id="rect3161-7"
       width="45.499996"
       height="50"
       x="-5.5"
       y="260" />
    <path
       style="fill:#c8c8c8;fill-opacity:0.50196081;stroke:none"
       d="m -5.5,300.68752 0,9.31248 45.5,0 0,-9.37498 c -8.659175,0.69576 -32.7972813,-0.54718 -45.5,0.0625 z"
       id="path4607-65-7-9"
       inkscape:connector-curvature="0"
       sodipodi:nodetypes="ccccc" />
    <path
       sodipodi:nodetypes="zzzzzzzzzzzzzzzzzzzzzz"
       inkscape:connector-curvature="0"
       d="m 26.779653,275.61612 c -0.931388,0.92097 -0.62992,2.57724 0.531627,2.78897 1.16155,0.21171 2.18246,-0.47766 2.103379,-1.91649 -0.07907,-1.43884 -1.703618,-1.79346 -2.635006,-0.87248 z m -9.031528,0.23258 c -6.03583,0.4772 -6.125573,2.26426 -8.9232993,5.09117 -2.797726,2.82693 -1.2972495,1.52327 -3.690707,1.38241 -2.3934569,-0.14085 -2.9483225,2.68564 -1.4797038,3.12534 1.4686195,0.43971 3.0643421,-1.20043 3.5363972,0.49226 0.4720548,1.69272 -0.2192381,2.54582 1.4551984,4.44236 1.6744335,1.89652 2.7710725,0.97804 4.4190615,2.27403 1.647986,1.29603 -1.779381,4.07571 -2.007046,5.90919 -0.227665,1.83348 2.207494,3.78356 3.836051,2.49771 1.628558,-1.28586 0.545351,-2.00898 2.284986,-4.18274 1.739635,-2.17375 6.702724,-2.38229 8.305677,-3.68854 1.602954,-1.30625 2.497972,-0.98031 2.734303,-1.37481 0.236332,-0.39447 -1.715075,0.4147 -0.741902,-2.99195 0.97317,-3.40665 -3.693184,-13.45362 -9.729016,-12.97643 z m 11.378283,16.1006 c -0.114408,0.26436 0.427777,0.60002 1.155089,1.67388 0.727312,1.07384 2.257609,-0.21541 1.481695,-1.0465 -0.775912,-0.8311 -2.522375,-0.89176 -2.636784,-0.62738 z"
       style="fill:#3030ff;fill-opacity:1;stroke:none"
       id="path3190" />
    <path
       style="fill:#ffffff;fill-opacity:0.66666667;stroke:none"
       d="m 26.74396,276.28057 c 0.08584,-0.32759 0.903683,-1.05915 1.08621,-0.71078 0.182528,0.3484 -0.253915,0.58793 -0.437587,0.95956 -0.183673,0.37165 -0.168537,0.78832 -0.493373,0.84499 -0.324837,0.0567 -0.241099,-0.76617 -0.15525,-1.09377 z"
       id="path3192"
       inkscape:connector-curvature="0" />
    <path
       style="fill:#ffffff;fill-opacity:0.66666667;stroke:none"
       d="m 13.294265,296.01006 c 0.284788,0.19576 -0.168389,0.9048 -0.409992,1.53189 -0.241602,0.62709 -0.04685,1.39943 -0.611543,1.46065 -0.5647,0.0612 -0.34819,-1.19727 -0.0076,-1.83876 0.340631,-0.64152 0.744308,-1.34951 1.029093,-1.15378 z"
       id="path3201"
       inkscape:connector-curvature="0"
       sodipodi:nodetypes="sssss" />
    <path
       style="fill:#ffffff;fill-opacity:0.66666667;stroke:none"
       d="m 3.7197722,283.23083 c 0.2431337,-0.3762 1.2545943,-0.63773 1.4131157,-0.37941 0.1585279,0.25835 -0.4523988,0.46988 -0.7521059,0.75256 -0.2997077,0.28267 -0.4234796,0.84857 -0.8179031,0.81379 -0.3944214,-0.0348 -0.086238,-0.81073 0.1568933,-1.18694 z"
       id="path3199"
       inkscape:connector-curvature="0"
       sodipodi:nodetypes="sssss" />
    <path
       inkscape:connector-curvature="0"
       style="fill:#ffffff;fill-opacity:0.66666667;stroke:none"
       d="m 29.743452,292.22935 c 0.07927,-0.21084 0.63697,-0.21601 0.926456,0.068 0.289485,0.284 -0.207417,0.59851 -0.451701,0.50653 -0.244283,-0.092 -0.554019,-0.36369 -0.474755,-0.57453 z"
       id="path3192-1"
       sodipodi:nodetypes="zzzz" />
    <path
       style="fill:#ffffff;fill-opacity:0.66666667;stroke:none"
       d="m 11.083445,279.20525 c 0.616239,-0.78689 1.562343,-1.62858 1.865588,-1.33182 0.30325,0.29678 -0.666718,1.13623 -1.282448,1.77925 -0.615728,0.643 -1.02526,1.79101 -1.595866,1.48827 -0.5706049,-0.30271 0.396484,-1.14881 1.012726,-1.9357 z"
       id="path3197"
       inkscape:connector-curvature="0" />
  </g>
</svg>
