<?xml version="1.0" encoding="UTF-8" standalone="no"?>
<svg
   xmlns:dc="http://purl.org/dc/elements/1.1/"
   xmlns:cc="http://creativecommons.org/ns#"
   xmlns:rdf="http://www.w3.org/1999/02/22-rdf-syntax-ns#"
   xmlns:svg="http://www.w3.org/2000/svg"
   xmlns="http://www.w3.org/2000/svg"
   xmlns:xlink="http://www.w3.org/1999/xlink"
   xmlns:sodipodi="http://sodipodi.sourceforge.net/DTD/sodipodi-0.dtd"
   xmlns:inkscape="http://www.inkscape.org/namespaces/inkscape"
   id="svg2"
   height="100%"
   viewBox="0 0 640 360"
   width="100%"
   version="1.1"
   inkscape:version="0.48.0 r9654"
   sodipodi:docname="lessonicons.svg">
  <sodipodi:namedview
     pagecolor="#ffffff"
     bordercolor="#666666"
     borderopacity="1"
     objecttolerance="10"
     gridtolerance="10"
     guidetolerance="10"
     inkscape:pageopacity="0"
     inkscape:pageshadow="2"
     inkscape:window-width="1920"
     inkscape:window-height="1030"
     id="namedview106"
     showgrid="false"
     inkscape:zoom="2.8284273"
     inkscape:cx="-52.124913"
     inkscape:cy="204.46164"
     inkscape:window-x="-8"
     inkscape:window-y="-8"
     inkscape:window-maximized="1"
     inkscape:current-layer="svg2"
     showguides="true"
     inkscape:guide-bbox="true">
    <sodipodi:guide
       orientation="0,1"
       position="0,100"
       id="guide4281" />
    <sodipodi:guide
       orientation="0,1"
       position="0,50"
       id="guide4283" />
    <sodipodi:guide
       orientation="0,1"
       position="0,150"
       id="guide4285" />
    <sodipodi:guide
       orientation="0,1"
       position="0,200"
       id="guide4289" />
    <sodipodi:guide
       orientation="0,1"
       position="0,250"
       id="guide4291" />
    <sodipodi:guide
       orientation="0,1"
       position="0,0"
       id="guide4293" />
    <sodipodi:guide
       orientation="1,0"
       position="40,0"
       id="guide4295" />
    <sodipodi:guide
       orientation="1,0"
       position="95,0"
       id="guide4297" />
    <sodipodi:guide
       orientation="1,0"
       position="150,0"
       id="guide4299" />
    <sodipodi:guide
       orientation="1,0"
       position="205,0"
       id="guide4301" />
    <sodipodi:guide
       orientation="1,0"
       position="260,0"
       id="guide4303" />
    <sodipodi:guide
       orientation="1,0"
       position="-5.5,0"
       id="guide4305" />
    <sodipodi:guide
       orientation="0,1"
       position="0,300"
       id="guide3462" />
    <sodipodi:guide
       orientation="0,1"
       position="0,350"
       id="guide3464" />
  </sodipodi:namedview>
  <defs
     id="defs4" />
  <metadata
     id="metadata25">
    <rdf:RDF>
      <cc:Work
         rdf:about="">
        <dc:format>image/svg+xml</dc:format>
        <dc:type
           rdf:resource="http://purl.org/dc/dcmitype/StillImage" />
        <dc:title />
      </cc:Work>
    </rdf:RDF>
  </metadata>
  <path
     style="fill:#fbf2d5;fill-opacity:1;stroke:#000000;stroke-width:0.43075556;stroke-linecap:butt;stroke-linejoin:miter;stroke-miterlimit:4;stroke-opacity:1;stroke-dasharray:none"
     d="m -56.10865,-15.661692 c 28.598003,1.375504 33.285653,-0.300894 33.285653,-0.300894 -0.07326,3.43788 -0.793839,7.6500587 -0.134913,12.0356717 -11.238183,-1.119108 -22.642672,0.126268 -33.858955,-0.859696 0.553645,-3.419849 0.525144,-6.9974107 0.708215,-10.8750817 z"
     id="answerlabel"
     inkscape:connector-curvature="0"
     sodipodi:nodetypes="ccccc" />
  <g
     id="id_FirstLetter"
     transform="translate(6,0)">
    <use
       height="360"
       width="640"
       transform="translate(101.34099,56.866115)"
       id="use3793"
       xlink:href="#answerlabel"
       y="0"
       x="0" />
    <g
       id="robot">
      <path
         style="fill:#222222"
         id="path99"
         d="m 59.166148,19.975859 -2.486322,-2.605308 0.120327,-0.133735 2.486322,2.594918 c 1.132553,-1.093338 2.372363,-1.002841 3.415425,-0.14513 l 2.449452,-2.570115 0.132394,0.108596 -2.376385,2.65525 c 1.048425,1.157691 1.499905,2.688766 1.842788,4.00533 0.755147,0.129277 1.919542,-0.246721 2.127015,1.098031 4.209787,0.494047 3.800875,2.909982 3.797523,5.644332 0.62577,0.380088 0.706882,2.303652 -0.710905,2.454481 -0.03519,0 -0.477958,-0.491701 -0.477958,-0.491701 0,0 -0.630462,0.476618 -0.702525,0.428018 -1.270645,-0.916366 -0.860392,-2.278514 -0.140103,-2.638491 0,-0.555049 0.07977,-1.416446 0.0067,-2.055288 -0.08379,-0.640183 -0.386456,-0.797379 -0.796039,-0.953235 -0.314393,-0.121668 -0.627111,-0.04826 -1.001835,-0.06 -0.01173,0.928097 0.01207,2.086794 -0.09687,3.208957 -0.02346,0.300986 -0.04692,1.24249 -0.446452,1.37589 l -0.723976,0.01207 c 0.411259,0.312717 0.737048,0.458183 0.737048,1.218693 0,0.506783 -0.615379,0.832908 -0.628451,1.302822 -0.02346,0.386121 0.724311,0.700514 0.652249,1.605149 -0.06033,0.772576 -0.578846,0.953235 -0.61538,1.351087 -0.0238,0.398187 0.591582,0.180659 0.591582,1.158697 0,0.796038 -0.591582,0.590577 -0.591582,1.230759 0,0.421649 0.844304,0.481981 1.073563,1.182159 0.168927,0.543318 0.19373,0.663645 0.06033,1.170429 -1.71274,0 -3.245826,0.0969 -5.201903,0.03536 0.01173,-0.796038 -0.08379,-0.506783 0.03653,-1.19389 0.120663,-0.699173 0.784308,-0.85637 0.821177,-1.085294 0.07173,-0.482986 -0.61538,-0.56812 -0.591918,-1.279024 0.01173,-0.700514 0.723977,-0.844639 0.687443,-1.291091 -0.06033,-0.543317 -0.710905,-0.651914 -0.687443,-1.521355 0.01173,-0.844304 0.494717,-0.844304 0.482986,-1.290756 -0.01307,-0.495052 -0.712245,-0.530246 -0.603313,-1.460019 0.07173,-0.687107 0.446452,-0.892904 0.723976,-1.170428 l -1.991605,-0.06033 c 0.277525,0.349587 0.555384,0.409918 0.543318,1.411418 -0.01173,0.929773 -0.627111,0.832908 -0.543318,1.412759 0.06033,0.458183 0.591918,0.43338 0.543318,1.339356 -0.04826,1.085629 -0.651914,1.025298 -0.603314,1.47175 0.04827,0.469914 0.809111,0.314226 0.712245,1.230759 -0.09687,0.892904 -0.627111,0.796039 -0.66398,1.291091 -0.03653,0.362658 0.784308,0.362658 0.820842,0.917707 0.03553,0.687442 0.09586,0.61538 0.0238,1.217687 -2.135394,0.0969 -3.814282,0.06023 -5.634277,0.06023 -0.120328,-0.650573 -0.120328,-0.892904 0.326124,-1.603808 0.469914,-0.772576 1.206962,-0.640183 1.170428,-0.844639 -0.09687,-0.42299 -0.675711,-0.362658 -0.723976,-1.170428 -0.02346,-0.603649 0.784308,-0.748779 0.809111,-1.122163 0.03519,-0.483321 -0.723977,-0.677052 -0.748779,-1.690283 -0.01207,-0.784308 0.796038,-0.723976 0.844303,-1.182495 0.06033,-0.555048 -0.85637,-0.615379 -0.881173,-1.314552 -0.03519,-0.712246 0.182,-1.218694 0.531587,-1.484487 l -0.881173,-0.01173 c -0.337856,0.03519 -0.469914,0.04826 -0.494717,-0.978038 -0.0238,-1.194225 -0.01207,-2.195726 0,-3.209292 -2.23293,-0.617391 -1.955071,2.54129 -1.873624,3.020924 1.214336,1.001836 0.623759,2.162544 -0.248565,2.659607 -0.389807,-0.286205 -0.623424,-0.534938 -0.623424,-0.534938 0,0 -0.288987,0.262274 -0.69247,0.525218 -1.645034,-0.89525 -0.841287,-2.51213 -0.362993,-2.745747 -0.524883,-3.039024 0.201473,-5.33262 3.934944,-5.289048 0.0916,-1.157356 0.555049,-1.061496 1.640678,-1.170428 0.585549,-1.881667 0.381428,-2.355939 1.702349,-4.0422 z"
         inkscape:connector-curvature="0" />
      <path
         id="path101"
         d="m 58.864491,21.450625 c 0.289255,-0.737383 0.555048,-1.061831 1.0015,-1.399687 0.530246,-0.399527 1.037029,-0.628451 1.846139,-0.290596 0.796039,0.337521 1.170428,1.001501 1.556884,1.822342 0.493376,1.098366 0.675376,1.797539 0.747438,2.340856 -2.498052,0.08379 -3.475755,0.06033 -5.754939,0.0972 0.08346,-0.712245 0.217192,-1.617216 0.603313,-2.570116 z"
         inkscape:connector-curvature="0"
         style="fill:#ffff00" />
      <path
         id="path113"
         d="m 52.362112,30.925998 c 0.01341,-0.403214 0.98977,-0.341207 0.98977,-0.01173 0.56879,0.002 1.303827,1.360472 0.09686,1.869602 -0.0734,-0.03519 -0.157197,-0.132059 -0.302327,-0.337521 1.15568,-1.435551 -1.685926,-1.282711 -0.398187,0.03653 -0.03519,0.04827 -0.291166,0.299277 -0.436732,0.33447 -0.987088,-0.519855 -0.567785,-1.786813 0.05051,-1.891387 z"
         inkscape:connector-curvature="0"
         style="fill:#ffff00" />
      <use
         height="1052.3622"
         width="744.09448"
         transform="matrix(0.9933299,0.10834036,-0.11530702,0.93331457,20.637576,-3.6558834)"
         id="use3227"
         xlink:href="#path113"
         y="0"
         x="0" />
      <g
         transform="matrix(0.33517414,0,0,0.33517414,-69.44017,-11.440013)"
         id="g3220">
        <path
           d="m 373.6,114.7 c -0.2487,0.0344 -1.48,-0.1419 -2.636,0.0234 -1.155,0.1653 -2.234,0.6723 -2.657,0.8746 -0.4226,0.2023 -1.764,-1.962 -2.071,-3.065 -0.3071,-1.103 6.889,-2.99 7.294,-1.836 0.4049,1.154 0.3185,3.968 0.0698,4.003 z"
           id="path117"
           inkscape:connector-curvature="0"
           style="fill:#a1a1a1" />
        <path
           d="m 367.2,116.3 c 0.1873,0.5176 -0.6266,2.68 -0.9589,2.858 -0.3324,0.178 -2.497,0.0189 -2.997,-0.414 -0.5003,-0.4329 0.5822,-4.827 1.506,-4.97 0.9241,-0.1423 2.263,2.008 2.45,2.526 z"
           id="path119"
           inkscape:connector-curvature="0"
           style="fill:#a1a1a1" />
        <path
           d="m 366.1,120.4 c 0.2568,0.4381 0.3677,3.936 0.07,4.25 -0.2977,0.3143 -2.125,0.1308 -2.519,0 -0.3943,-0.1308 -0.9033,-4.065 -0.469,-4.5 0.4343,-0.4349 2.661,-0.1881 2.918,0.25 z"
           id="path121"
           inkscape:connector-curvature="0"
           style="fill:#a1a1a1" />
      </g>
      <use
         height="1052.3622"
         width="744.09448"
         transform="matrix(-0.94675861,-0.0287912,-0.03039624,0.99953793,120.55849,1.568867)"
         id="use3225"
         xlink:href="#g3220"
         y="0"
         x="0" />
      <path
         sodipodi:nodetypes="zssszsssssssszs"
         inkscape:connector-curvature="0"
         style="fill:#222222;fill-rule:evenodd"
         id="path135"
         d="m 59.937216,20.652911 c 0.479131,0 0.869274,0.405896 0.869274,0.904635 0,0.498739 -0.390143,0.904635 -0.869442,0.904635 -0.478964,0 -0.869107,-0.405896 -0.869107,-0.904635 0,-0.498739 0.390143,-0.904635 0.869275,-0.904635 z m -0.724144,0.904635 c 0,0.392824 0.30903,0.712245 0.687442,0.712245 0.378412,0 0.687442,-0.319421 0.687442,-0.712245 0,-0.392824 -0.30903,-0.712245 -0.687442,-0.712245 -0.378412,0 -0.687442,0.319421 -0.687442,0.712245 z m 1.205956,-0.03687 c 0,0.272496 -0.205461,0.495052 -0.458183,0.495052 -0.252721,0 -0.458518,-0.222556 -0.458518,-0.495052 0,-0.272162 0.205796,-0.494717 0.458518,-0.494717 0.252722,0 0.458183,0.222555 0.458183,0.494717 z" />
      <use
         x="0"
         y="0"
         xlink:href="#path135"
         id="use5713"
         transform="matrix(-0.97637628,0.21607722,-0.21607722,-0.97637628,125.21032,29.607881)"
         width="640"
         height="360" />
      <path
         id="path139"
         d="m 66.171287,24.524172 c 0.42299,0.120328 0.205797,5.285696 0.03687,6.733649 -0.0486,0.373049 -9.820602,0.312717 -9.880933,-0.0248 -0.252387,-1.374885 -0.265794,-6.17726 0.205126,-6.599579 0.348916,-0.313053 8.748045,-0.374725 9.639608,-0.108932 z"
         inkscape:connector-curvature="0"
         style="fill:#e0e0e0" />
      <path
         style="fill:#222222"
         id="path145"
         d="m 61.512366,27.239083 c 0.07206,-0.157197 3.257558,-0.180659 3.452294,-0.0238 0.09687,0.07206 0.08379,2.605644 -0.0486,2.739043 -0.145131,0.155856 -3.197226,0.144125 -3.342357,0.01173 -0.108931,-0.09687 -0.132393,-2.509784 -0.06033,-2.726977"
         inkscape:connector-curvature="0" />
      <g
         transform="matrix(0.33517414,0,0,0.33517414,-69.44017,-11.440013)"
         id="g3175">
        <path
           d="m 383.3,110.4 c 0.105,0.109 0.105,3.277 -0.074,3.457 -0.18,0.215 -4.176,0.18 -4.391,0.035 -0.144,-0.144 -0.18,-3.168 -0.07,-3.457 0.105,-0.18 4.281,-0.215 4.535,-0.035 z"
           id="path141"
           style="fill:#222222"
           inkscape:connector-curvature="0" />
        <path
           d="m 382.4,111.1 c 0.11,0.075 0.075,1.946 -0.035,2.051 -0.109,0.11 -2.449,0.11 -2.554,0 -0.11,-0.07 -0.11,-1.871 -0.075,-2.015 0.075,-0.145 2.52,-0.145 2.664,-0.036 z"
           id="path143"
           inkscape:connector-curvature="0"
           style="fill:#0000ff" />
      </g>
      <use
         height="1052.3622"
         width="744.09448"
         transform="translate(1.9684975,-0.01330066)"
         id="use3186"
         xlink:href="#g3175"
         y="0"
         x="0" />
      <use
         height="1052.3622"
         width="744.09448"
         transform="translate(4.0434004,0)"
         id="use3169"
         xlink:href="#g3175"
         y="0"
         x="0" />
      <g
         transform="matrix(0.33517414,0,0,0.33517414,-69.44017,-11.440013)"
         id="g3182">
        <use
           x="0"
           y="0"
           xlink:href="#path141"
           id="use3179"
           transform="translate(17.619178,-0.07936566)"
           width="744.09448"
           height="1052.3622" />
        <path
           d="m 400,111 c 0.07,0.035 0.07,1.946 -0.035,2.051 -0.11,0.109 -2.485,0.109 -2.594,0 -0.07,-0.07 -0.109,-1.871 -0.035,-2.016 0.035,-0.144 2.519,-0.144 2.664,-0.035 z"
           id="path175"
           inkscape:connector-curvature="0"
           style="fill:#ff0000" />
      </g>
      <use
         height="1052.3622"
         width="744.09448"
         transform="translate(-1.9817982,1.6359811)"
         id="use3188"
         xlink:href="#use3186"
         y="0"
         x="0" />
      <use
         height="1052.3622"
         width="744.09448"
         transform="translate(2.0217002,0.01330066)"
         id="use3190"
         xlink:href="#use3188"
         y="0"
         x="0" />
      <use
         height="1052.3622"
         width="744.09448"
         transform="translate(-5.8921918,3.3251647)"
         id="use3194"
         xlink:href="#g3182"
         y="0"
         x="0" />
      <use
         height="1052.3622"
         width="744.09448"
         transform="translate(2.0083995,0)"
         id="use3196"
         xlink:href="#use3194"
         y="0"
         x="0" />
      <path
         id="path147"
         d="m 64.629486,27.473705 c 0.07206,0.06 0.07206,2.075063 -0.03519,2.195725 -0.121668,0.120328 -2.558384,0.108597 -2.666981,0.01173 -0.09687,-0.08379 -0.120663,-2.015067 -0.0486,-2.183995 0.0486,-0.132059 2.593913,-0.144125 2.750774,-0.02346 z"
         inkscape:connector-curvature="0"
         style="fill:#0000ff" />
      <path
         id="path111"
         d="m 65.635008,40.444944 c 0.578846,0.314226 0.916702,1.352428 0.627111,1.376225 -0.723976,0.04843 -2.85937,0.0602 -3.90813,-0.03667 -0.193731,-0.02356 -0.193731,-1.0015 0.373719,-1.291091 0.506113,-0.252721 2.243656,-0.421649 2.9073,-0.04847 z"
         inkscape:connector-curvature="0"
         style="fill:#404040" />
      <path
         id="path109"
         d="m 60.104635,40.377909 c 0.578846,0.32599 0.796039,1.291091 0.518515,1.314553 -0.723977,0.04843 -3.208958,0.121735 -4.260064,0.01307 -0.19239,-0.01307 0.08513,-1.050101 0.664315,-1.339356 0.507454,-0.254029 2.413924,-0.350927 3.077569,0.01177 z"
         inkscape:connector-curvature="0"
         style="fill:#404040" />
      <g
         transform="matrix(0.33517414,0,0,0.33517414,-69.44017,-11.440013)"
         id="g3213">
        <path
           d="m 379.3619,129.60055 c 0.46381,-0.91824 6.76656,-0.78708 7.09934,0.26423 0.33279,1.05131 1.56226,0.87378 1.66976,2.78237 0.10751,1.90858 -1.48734,2.14903 -1.6798,2.94431 -0.19247,0.79529 -7.05071,0.90126 -7.2343,0.0907 -0.18358,-0.81058 -2.12704,-1.45423 -1.89595,-3.21959 0.23109,-1.76536 1.57715,-1.94377 2.04095,-2.86201 z"
           id="path105"
           inkscape:connector-curvature="0"
           style="fill:#a1a1a1"
           sodipodi:nodetypes="zzzzzzz" />
        <use
           x="0"
           y="0"
           xlink:href="#path105"
           id="use3209"
           transform="matrix(1,0,0,-1.0717084,0.15873133,283.30488)"
           width="744.09448"
           height="1052.3622" />
        <use
           x="0"
           y="0"
           xlink:href="#path105"
           id="use3211"
           transform="matrix(1,0,0,0.93480531,0,25.48648)"
           width="744.09448"
           height="1052.3622" />
      </g>
      <use
         height="1052.3622"
         width="744.09448"
         transform="matrix(-1,0,0,0.98076124,122.95709,0.72451725)"
         id="use3218"
         xlink:href="#g3213"
         y="0"
         x="0" />
    </g>
    <rect
       y="10"
       x="33.934132"
       height="50"
       width="55"
       id="rect4029"
       style="fill:none;stroke:none" />
  </g>
  <g
     id="id_NameTerms"
     transform="translate(-129.59102,0)">
    <use
       x="0"
       y="0"
       xlink:href="#answerlabel"
       id="use3797"
       transform="matrix(-1,0,0,1,212.12184,56.741114)"
       width="640"
       height="360" />
    <use
       height="360"
       width="640"
       transform="matrix(0.98168153,-0.02624163,0.02624163,0.98168153,190.06138,2.6358049)"
       id="use4027"
       xlink:href="#robot"
       y="0"
       x="0" />
    <rect
       y="10"
       x="224.59102"
       height="50"
       width="55"
       id="rect4166"
       style="fill:none;stroke:none" />
  </g>
  <g
     id="id_Read">
    <rect
       y="10"
       x="-5.5"
       height="50"
       width="45.5"
       id="rect4541"
       style="fill:none;stroke:none" />
    <path
       style="fill:#c8c8c8;fill-opacity:0.50196081;stroke:none"
       d="M -5.5,50.625019 -5.5,60 40,60 40,50.875019 c -14.16706,-1.934071 -37.8333329,0.08333 -45.5,-0.25 z"
       id="path4607"
       inkscape:connector-curvature="0"
       sodipodi:nodetypes="ccccc" />
    <use
       x="0"
       y="0"
       xlink:href="#robot"
       id="use4465"
       transform="matrix(1.1801627,0,0,1.1801627,-55.137725,1.1116326)"
       width="640"
       height="360" />
  </g>
  <g
     id="three_apples"
     transform="matrix(1.2099774,0,0,1.2099774,31.970187,-20.830287)">
    <path
       style="fill:#a16121;stroke:#232323;stroke-width:0.33707997;stroke-linejoin:round;stroke-miterlimit:4;stroke-dasharray:none"
       inkscape:connector-curvature="0"
       d="m -137.86095,82.632043 c 0.37846,-1.532415 0.36451,-2.649965 1.51167,-3.466217 l 0.53726,0.449296 c -1.12067,0.788771 -1.19067,2.337266 -1.40018,3.416438 z"
       id="use3067" />
    <path
       style="fill:#c60000;stroke:#232323;stroke-width:0.33707997;stroke-linejoin:round;stroke-miterlimit:4;stroke-dasharray:none"
       inkscape:connector-curvature="0"
       d="m -132.98626,87.817896 c -2.57425,4.822832 -3.87486,6.223009 -6.68973,3.79292 -3.25983,1.205193 -3.50045,-1.455666 -4.13676,-6.06744 -0.63941,-4.613326 3.43614,-6.694921 6.58603,-3.605717 2.40935,-1.550047 6.81939,1.060508 4.24306,5.88075 z"
       id="use3069" />
    <path
       style="fill:#ffffff;stroke:none"
       inkscape:connector-curvature="0"
       d="m -142.63193,83.669216 c -0.004,-0.331381 0.42369,-1.649618 0.79188,-2.007442 0.59533,-0.577707 1.42974,-0.638895 1.40329,-0.106933 -0.0258,0.553327 -0.99983,1.671921 -1.36958,2.033367 -0.3668,0.354351 -0.81781,0.401546 -0.82559,0.0809 z"
       id="use3071" />
    <path
       style="fill:#a16121;stroke:#232323;stroke-width:0.38341936;stroke-linejoin:round;stroke-miterlimit:4;stroke-dasharray:none"
       inkscape:connector-curvature="0"
       d="m -145.74139,87.773821 c 0.16706,-1.787325 -0.0373,-3.042581 1.11546,-4.153907 l 0.68013,0.414683 c -1.12785,1.076523 -0.94499,2.830225 -0.99808,4.079582 z"
       id="use3022" />
    <path
       style="fill:#c60000;stroke:#232323;stroke-width:0.38341936;stroke-linejoin:round;stroke-miterlimit:4;stroke-dasharray:none"
       inkscape:connector-curvature="0"
       d="m -151.69913,93.082704 c 1.89055,5.784914 4.73257,6.571218 7.37934,5.547784 2.98596,0.143929 5.08591,0.793383 6.02854,-6.117014 0.94262,-6.907448 -4.19461,-6.459142 -7.02543,-5.248127 -2.32647,-1.069445 -8.27006,0.03321 -6.38245,5.819717 z"
       id="use3024" />
    <path
       style="fill:#ffffff;stroke:none"
       inkscape:connector-curvature="0"
       d="m -150.51938,91.902952 c -0.21714,-0.335344 -0.46937,-1.895271 -0.18776,-2.447985 0.45627,-0.892482 1.57438,-1.382079 1.87875,-0.827596 0.31877,0.575955 -0.31599,2.213215 -0.59695,2.770058 -0.2819,0.548348 -0.87715,0.827596 -1.09363,0.505051 z"
       id="use3026" />
    <path
       style="fill:#a16121;stroke:#232323;stroke-width:0.3596648;stroke-linejoin:round;stroke-miterlimit:4;stroke-dasharray:none"
       inkscape:connector-curvature="0"
       d="m -130.10483,85.795229 c 0.18692,-1.673826 0.0165,-2.854079 1.11607,-3.87719 l 0.63079,0.400503 c -1.07567,0.99046 -0.93402,2.638279 -1.0054,3.809129 z"
       id="use3031" />
    <path
       style="fill:#c60000;stroke:#232323;stroke-width:0.3596648;stroke-linejoin:round;stroke-miterlimit:4;stroke-dasharray:none"
       inkscape:connector-curvature="0"
       d="m -124.68219,91.439198 c -2.69362,5.033093 -5.44754,5.293712 -7.7245,3.915366 -2.78103,-0.356232 -4.82725,-0.100208 -4.56774,-6.634429 0.2614,-6.534835 4.93294,-5.280434 7.34823,-3.696251 2.32399,-0.606446 7.63596,1.386096 4.94124,6.418635 z"
       id="use3033" />
    <path
       style="fill:#ffffff;stroke:none"
       inkscape:connector-curvature="0"
       d="m -135.19547,87.510553 c -0.14718,-0.344611 -0.13147,-1.826545 0.21707,-2.292447 0.5644,-0.752528 1.67549,-1.026431 1.8686,-0.465076 0.20274,0.583211 -0.64518,1.995309 -0.99434,2.465086 -0.34804,0.461867 -0.94287,0.624714 -1.09116,0.292325 z"
       id="use3035" />
  </g>
  <g
     id="twelve_apples"
     transform="matrix(0.74931392,0,0,0.74931392,-15.145053,21.885986)">
    <use
       height="360"
       width="640"
       transform="matrix(0.61002327,0.10183648,-0.10183648,0.61002327,29.98608,40.723203)"
       id="use4204"
       xlink:href="#three_apples"
       y="0"
       x="0" />
    <use
       height="360"
       width="640"
       transform="matrix(0.75308236,-0.11092258,0.11092258,0.75308236,21.337232,3.7755283)"
       id="use4202"
       xlink:href="#three_apples"
       y="0"
       x="0" />
    <use
       height="360"
       width="640"
       transform="matrix(0.85452091,0.24382902,-0.24396649,0.8522187,84.023657,46.177754)"
       id="use4200"
       xlink:href="#three_apples"
       y="0"
       x="0" />
    <use
       height="360"
       width="640"
       transform="matrix(0.99721104,0.07463337,-0.07463337,0.99721104,75.031059,13.818864)"
       id="use4196"
       xlink:href="#three_apples"
       y="0"
       x="0" />
  </g>
  <g
     id="id_CountEasy">
    <use
       height="360"
       width="640"
       transform="matrix(1.0542307,0,0,1.0542307,210.97758,-10.301842)"
       id="use4212"
       xlink:href="#three_apples"
       y="0"
       x="0" />
    <use
       height="360"
       width="640"
       transform="translate(107.79158,106.70665)"
       id="use4276"
       xlink:href="#answerlabel"
       y="0"
       x="0" />
    <rect
       y="60"
       x="40"
       height="50"
       width="55"
       id="rect4284"
       style="fill:none;stroke:none" />
  </g>
  <g
     id="id_CountReadEasy"
     transform="translate(-107.59102,0)">
    <use
       height="360"
       width="640"
       transform="matrix(0.99353371,0.11353755,-0.11353755,0.99353371,374.52498,11.002587)"
       id="use4214"
       xlink:href="#three_apples"
       y="0"
       x="0" />
    <use
       height="360"
       width="640"
       transform="matrix(-1,0,0,1,190.05551,106.86198)"
       id="use4278"
       xlink:href="#answerlabel"
       y="0"
       x="0" />
    <rect
       y="60"
       x="202.59102"
       height="50"
       width="55"
       id="rect4291"
       style="fill:none;stroke:none" />
  </g>
  <g
     id="id_CountHard"
     transform="translate(-212.35355,0)">
    <g
       id="g4312"
       transform="translate(4.8838835,1.0606601)">
      <use
         x="0"
         y="0"
         xlink:href="#twelve_apples"
         id="use4272"
         transform="matrix(1.0932371,0,0,1.0932371,451.66122,-14.125323)"
         width="640"
         height="360" />
      <use
         x="0"
         y="0"
         xlink:href="#answerlabel"
         id="use4280"
         transform="matrix(1,0,0,-1,424.97116,86.41183)"
         width="640"
         height="360" />
    </g>
    <rect
       y="60"
       x="362.35355"
       height="50"
       width="55.000004"
       id="rect4298"
       style="fill:none;stroke:none" />
  </g>
  <g
     id="id_CountReadHard"
     transform="translate(-318.7071,0)">
    <use
       height="360"
       width="640"
       transform="matrix(1.0973843,0.06352874,-0.06352874,1.0973843,624.33337,-10.338833)"
       id="use4274"
       xlink:href="#twelve_apples"
       y="0"
       x="0" />
    <use
       height="360"
       width="640"
       transform="matrix(-1,0,0,-1,512.46218,87.098069)"
       id="use4282"
       xlink:href="#answerlabel"
       y="0"
       x="0" />
    <rect
       y="60"
       x="523.70709"
       height="50"
       width="55.000008"
       id="rect4305"
       style="fill:none;stroke:none" />
  </g>
  <g
     id="id_Count">
    <rect
       y="60"
       x="-5.5"
       height="50"
       width="45.5"
       id="rect4549"
       style="fill:none;stroke:none" />
    <path
       style="fill:#c8c8c8;fill-opacity:0.50196081;stroke:none"
       d="m -5.5,100.25002 0,9.74998 45.5,0 0,-9.12498 c -21.91706,-1.184072 -26.833334,-1.5417 -45.5,-0.625 z"
       id="path4607-6"
       inkscape:connector-curvature="0"
       sodipodi:nodetypes="ccccc" />
    <use
       x="0"
       y="0"
       xlink:href="#three_apples"
       id="use4458"
       transform="matrix(0.88456644,0.10108515,-0.10108515,0.88456644,145.65078,24.67537)"
       width="640"
       height="360" />
  </g>
  <g
     id="id_ClockEasy">
    <g
       transform="matrix(0.79186448,0,0,0.79186448,-712.81198,-455.21758)"
       id="g4536">
      <g
         id="clock_background">
        <path
           style="fill:#000000;fill-opacity:1;fill-rule:evenodd;stroke:none"
           d="m 1000.911,739.27466 c 0.4889,11.66977 -9.62427,17.47979 -18.10818,15.3091 -8.48392,-2.17069 -14.70908,-12.48612 -6.96906,-22.73516 7.74001,-10.24903 24.58824,-4.24371 25.07724,7.42606 z"
           id="path3765"
           inkscape:connector-curvature="0"
           sodipodi:nodetypes="zzzz" />
        <path
           style="fill:#5050b4;fill-opacity:1;fill-rule:evenodd;stroke:none"
           d="m 986.63254,726.87846 c -8.88842,-0.3909 -18.59544,11.50994 -11.65462,21.65123 6.94081,10.14129 21.94558,7.00606 24.84657,-3.71303 2.90111,-10.71908 -4.30353,-17.54731 -13.19195,-17.9382 z m 11.60821,14.29658 c -0.70266,10.20311 -11.77807,14.7027 -19.13352,8.34217 -7.35544,-6.36052 -3.7679,-15.83305 2.17504,-19.08858 5.94295,-3.25553 17.66114,0.5433 16.95848,10.74641 z"
           id="path3767"
           inkscape:connector-curvature="0"
           sodipodi:nodetypes="zzzzzzzz" />
        <path
           style="fill:#ffffff;fill-opacity:1;fill-rule:evenodd;stroke:none"
           d="m 996.92763,742.74817 c -1.6713,7.71941 -10.95252,11.93521 -17.70829,4.8555 -6.75577,-7.07971 -0.37662,-16.43906 5.79803,-17.22966 6.17468,-0.79061 13.58157,4.65475 11.91026,12.37416 z"
           id="path3779"
           inkscape:connector-curvature="0"
           sodipodi:nodetypes="zzzz" />
        <path
           style="fill:#000000;fill-opacity:1;stroke:none"
           d="m 986.433,730.26322 c 0.16435,1.50811 0.11461,2.2235 0.11425,2.22782 0.18727,-0.002 0.38146,0.0229 0.55104,-0.0502 -0.0201,-0.74403 -0.0383,-1.48922 -0.15117,-2.17762 z"
           id="path3782"
           inkscape:connector-curvature="0"
           sodipodi:nodetypes="ccccc"
           inkscape:transform-center-y="-58.502851"
           inkscape:tile-cx="100.51066"
           inkscape:tile-cy="99.030713"
           inkscape:tile-w="4.159462"
           inkscape:tile-h="13.943399"
           inkscape:tile-x0="98.430928"
           inkscape:tile-y0="33.556162" />
        <use
           x="0"
           y="0"
           xlink:href="#path3782"
           id="use3784"
           transform="matrix(-0.03639416,-0.99950961,-1.1616796,0.03131355,1882.0158,1704.1321)"
           width="744.09448"
           height="1052.3622" />
        <use
           x="0"
           y="0"
           xlink:href="#path3782"
           id="use3786"
           transform="matrix(0.99502721,-0.09960347,-0.09148554,-0.91393003,71.857911,1517.0463)"
           width="744.09448"
           height="1052.3622" />
        <use
           x="0"
           y="0"
           xlink:href="#path3782"
           id="use3788"
           transform="matrix(-0.04345369,-0.99885791,-0.90842503,0.04777947,1684.5219,1691.524)"
           width="744.09448"
           height="1052.3622" />
        <use
           x="0"
           y="0"
           inkscape:tiled-clone-of="#path3782"
           xlink:href="#path3782"
           transform="matrix(0.8660254,0.5,-0.5,0.8660254,502.50757,-394.25564)"
           id="use3814"
           inkscape:transform-center-x="-29.155161"
           inkscape:transform-center-y="-50.807262"
           width="744.09448"
           height="1052.3622" />
        <use
           x="0"
           y="0"
           inkscape:tiled-clone-of="#path3782"
           xlink:href="#path3782"
           transform="matrix(0.5,0.8660254,-0.8660254,0.5,1135.0593,-484.14731)"
           id="use3816"
           inkscape:transform-center-x="-50.613653"
           inkscape:transform-center-y="-29.333587"
           width="744.09448"
           height="1052.3622" />
        <use
           x="0"
           y="0"
           inkscape:tiled-clone-of="#path3782"
           xlink:href="#path3782"
           transform="matrix(-0.5,0.8660254,-0.8660254,-0.5,2121.8249,256.62869)"
           id="use3820"
           inkscape:transform-center-x="-50.807258"
           inkscape:transform-center-y="29.155161"
           width="744.09448"
           height="1052.3622" />
        <use
           x="0"
           y="0"
           inkscape:tiled-clone-of="#path3782"
           xlink:href="#path3782"
           transform="matrix(-0.8660254,0.5,-0.5,-0.8660254,2212.0397,888.93802)"
           id="use3822"
           inkscape:transform-center-x="-29.333585"
           inkscape:transform-center-y="50.613662"
           width="744.09448"
           height="1052.3622" />
        <use
           x="0"
           y="0"
           inkscape:tiled-clone-of="#path3782"
           xlink:href="#path3782"
           transform="matrix(-0.8660254,-0.5,0.5,-0.8660254,1471.0214,1875.7845)"
           id="use3826"
           inkscape:transform-center-x="29.15516"
           inkscape:transform-center-y="50.807257"
           width="744.09448"
           height="1052.3622" />
        <use
           x="0"
           y="0"
           inkscape:tiled-clone-of="#path3782"
           xlink:href="#path3782"
           transform="matrix(-0.5,-0.8660254,0.8660254,-0.5,838.59083,1965.9992)"
           id="use3828"
           inkscape:transform-center-x="50.613657"
           inkscape:transform-center-y="29.333584"
           width="744.09448"
           height="1052.3622" />
        <use
           x="0"
           y="0"
           inkscape:tiled-clone-of="#path3782"
           xlink:href="#path3782"
           transform="matrix(0.5,-0.8660254,0.8660254,0.5,-148.29598,1225.0213)"
           id="use3832"
           inkscape:transform-center-x="50.807261"
           inkscape:transform-center-y="-29.15516"
           width="744.09448"
           height="1052.3622" />
        <use
           x="0"
           y="0"
           inkscape:tiled-clone-of="#path3782"
           xlink:href="#path3782"
           transform="matrix(0.8660254,-0.5,0.5,0.8660254,-238.38961,592.42922)"
           id="use3834"
           inkscape:transform-center-x="29.333586"
           inkscape:transform-center-y="-50.613658"
           width="744.09448"
           height="1052.3622" />
        <path
           style="fill:#afcdfa;fill-opacity:1;fill-rule:evenodd;stroke:none"
           d="m 987.03054,729.46932 c -9.61147,-0.42803 -14.34444,10.17488 -10.25181,16.794 4.09264,6.61912 13.20837,8.8407 18.88597,1.43144 5.6776,-7.40924 0.97733,-17.79742 -8.63416,-18.22544 z m 7.58358,4.28395 c 6.01318,6.49237 1.70344,14.39841 -4.17002,17.19132 -5.87342,2.79291 -16.19594,-3.82895 -14.02524,-12.53718 2.17069,-8.70824 12.18206,-11.14651 18.19526,-4.65414 z"
           id="path3773"
           inkscape:connector-curvature="0"
           sodipodi:nodetypes="zzzzzzzz" />
      </g>
      <g
         transform="translate(0,-0.26516505)"
         id="clock_minute">
        <path
           style="fill:#000000;fill-opacity:1;stroke:none"
           d="m 986.53531,740.40946 c -0.0848,-1.74279 -0.0141,-4.73042 -0.0141,-4.73042 -0.1844,-0.011 -0.42234,0.0109 -0.90411,0.18257 0,0 0.96434,-2.48074 1.29966,-2.55608 0.33533,-0.0753 1.17994,2.62248 1.17994,2.62248 -0.24613,-0.12267 -0.60518,-0.27516 -0.78439,-0.23238 -0.0874,1.5614 -0.002,3.01708 0.0565,4.66403 z"
           id="path3836"
           inkscape:connector-curvature="0"
           sodipodi:nodetypes="ccczcccc" />
        <path
           style="fill:#44449c;fill-opacity:1;stroke:none"
           d="m 986.63067,740.38871 c -0.0628,-1.58085 0.0319,-4.87822 0.0319,-4.87822 -0.13668,-0.01 -0.42252,-0.0689 -0.77959,0.0868 0,0 0.78521,-1.90169 1.03374,-1.97004 0.24854,-0.0683 0.89844,2.00536 0.89844,2.00536 -0.20617,-0.18566 -0.5301,-0.14998 -0.66161,-0.10704 -0.0648,1.41632 0.0376,3.31161 0.0807,4.80555 z"
           id="path3836-3"
           inkscape:connector-curvature="0"
           sodipodi:nodetypes="ccczcccc" />
      </g>
      <g
         id="clock_hour">
        <path
           style="fill:#000000;fill-opacity:1;stroke:none"
           d="m 987.04999,740.31083 c 1.07972,1.65543 2.1109,3.642 2.1109,3.642 0.21896,-0.11131 0.31096,-0.19052 0.7699,-0.67843 0,0 0.38721,2.63437 0.0427,2.93034 -0.34448,0.29596 -2.55895,-1.70668 -2.55895,-1.70668 0.35312,-0.0425 0.84441,0.004 1.02708,-0.15615 -0.77879,-1.59131 -1.14153,-1.99418 -2.1366,-3.5731 z"
           id="path3836-5"
           inkscape:connector-curvature="0"
           sodipodi:nodetypes="ccczcccc" />
        <path
           style="fill:#44449c;fill-opacity:1;stroke:none"
           d="m 986.99841,740.47583 c 0.96319,1.51093 2.09434,3.7361 2.09434,3.7361 0.16329,-0.0807 0.35587,-0.11265 0.68016,-0.50195 0,0 0.28658,1.9796 0.0383,2.21123 -0.24827,0.23166 -1.88388,-1.24526 -1.88388,-1.24526 0.3425,0.0459 0.66577,-0.14291 0.79331,-0.27213 -0.7232,-1.43383 -1.30605,-2.17593 -2.19755,-3.61452 z"
           id="path3836-3-2"
           inkscape:connector-curvature="0"
           sodipodi:nodetypes="ccczcccc" />
        <path
           style="fill:#000000;fill-opacity:1;fill-rule:evenodd;stroke:none"
           d="m 987.76807,740.26312 c 0.47172,0.6879 0.0981,1.41982 -0.52152,1.59266 -0.61964,0.17284 -1.45174,-0.19739 -1.34816,-1.14715 0.1036,-0.94974 1.39794,-1.13338 1.86968,-0.44551 z"
           id="path3765-6"
           inkscape:connector-curvature="0"
           sodipodi:nodetypes="zzzz" />
        <path
           style="fill:#afcdfa;fill-opacity:1;fill-rule:evenodd;stroke:none"
           d="m 986.54104,740.15162 c -0.75971,0.40756 -0.39522,1.38734 0.12491,1.52438 0.52014,0.13704 0.93318,-0.0735 1.11136,-0.59854 0.17816,-0.5251 -0.47657,-1.33339 -1.23625,-0.92579 z m 0.5334,0.37056 c 0.2861,0.10581 0.28456,0.49014 0.10184,0.64233 -0.18241,0.15206 -0.54672,0.10207 -0.60465,-0.23978 -0.0579,-0.34184 0.2167,-0.50835 0.50278,-0.4026 z"
           id="path3773-8"
           inkscape:connector-curvature="0"
           sodipodi:nodetypes="zzzzzzzz" />
      </g>
    </g>
    <use
       height="360"
       width="640"
       transform="translate(107.76056,157.03262)"
       id="use4439"
       xlink:href="#answerlabel"
       y="0"
       x="0" />
    <rect
       y="110"
       x="40"
       height="50"
       width="55"
       id="rect4503"
       style="fill:none;stroke:none" />
  </g>
  <g
     id="id_ClockMedium"
     transform="translate(-107.59102,0)">
    <g
       id="g3265">
      <use
         height="360"
         width="640"
         transform="matrix(-0.82163595,0.00355522,0.00355522,0.82163595,1037.7968,-481.98809)"
         id="use4649"
         xlink:href="#clock_background"
         y="0"
         x="0" />
      <use
         height="360"
         width="640"
         transform="matrix(0.88622475,0,0,-0.86318665,-644.87912,769.64119)"
         id="use4653"
         xlink:href="#clock_minute"
         y="0"
         x="0" />
      <use
         height="360"
         width="640"
         transform="matrix(-0.24312792,0.74854144,-0.74854144,-0.24312792,1024.3033,-428.12391)"
         id="use4656"
         xlink:href="#clock_hour"
         y="0"
         x="0" />
    </g>
    <use
       height="360"
       width="640"
       transform="matrix(-1,0,0,1,190.23231,156.77011)"
       id="use4443"
       xlink:href="#answerlabel"
       y="0"
       x="0" />
    <rect
       y="110"
       x="202.59102"
       height="50"
       width="55"
       id="rect4450"
       style="fill:none;stroke:none" />
  </g>
  <g
     id="id_ClockHard"
     transform="translate(-212,0)">
    <g
       id="g3316">
      <use
         height="360"
         width="640"
         transform="matrix(0,0.80718267,-0.80718267,0,987.53804,-665.23872)"
         id="use4659"
         xlink:href="#clock_background"
         y="0"
         x="0" />
      <use
         height="360"
         width="640"
         transform="matrix(-0.37879509,0.70716533,-0.70716533,-0.37879509,1287.5295,-285.79706)"
         id="use4662"
         xlink:href="#clock_minute"
         y="0"
         x="0" />
      <use
         height="360"
         width="640"
         transform="matrix(-0.29256463,-0.74697689,0.74697689,-0.29256463,125.087,1085.4192)"
         id="use4665"
         xlink:href="#clock_hour"
         y="0"
         x="0" />
    </g>
    <use
       height="360"
       width="640"
       transform="translate(429.7086,156.85591)"
       id="use4445"
       xlink:href="#answerlabel"
       y="0"
       x="0" />
    <rect
       y="110"
       x="362"
       height="50"
       width="55"
       id="rect4465"
       style="fill:none;stroke:none" />
  </g>
  <g
     id="id_Clock">
    <rect
       y="110"
       x="-5.5"
       height="50"
       width="45.5"
       id="rect4557"
       style="fill:none;stroke:none" />
    <path
       style="fill:#c8c8c8;fill-opacity:0.50196081;stroke:none"
       d="m -5.5,150.25002 0,9.74998 45.5,0 0,-9.62498 c -15.659175,0.19576 -20.922282,-0.17218 -45.5,-0.125 z"
       id="path4607-65"
       inkscape:connector-curvature="0"
       sodipodi:nodetypes="ccccc" />
    <use
       x="0"
       y="0"
       xlink:href="#g4536"
       id="use4578"
       transform="matrix(1.0679829,0,0,1.0679829,-55.685861,-3.2291545)"
       width="640"
       height="360" />
  </g>
  <g
     id="id_NotesReadEasy">
    <use
       height="360"
       width="640"
       transform="translate(107.25772,206.86353)"
       id="use4641"
       xlink:href="#answerlabel"
       y="0"
       x="0" />
    <g
       transform="matrix(1.0522582,0,0,1.0522582,-0.6233298,-10.765021)"
       id="g4671">
      <path
         style="fill:#000000;fill-opacity:1;stroke:none"
         d="m 51.554716,175.14352 c 0,0 4.194277,0.0349 6.291412,0.0367 2.097142,0.002 4.12822,-0.10549 6.291412,-0.0257 2.1632,0.0798 4.179031,0.0973 6.29142,0.0211 2.112381,-0.0761 6.291389,-0.0101 6.291389,-0.0101 0.0085,0.13725 0.0293,0.27981 -0.0077,0.39702 0,0 -4.193568,0.0213 -6.290356,0.0164 -2.096787,-0.004 -4.193575,-0.0411 -6.290363,-0.046 -2.096788,-0.004 -4.158001,-0.10344 -6.290355,-0.046 -2.132361,0.0575 -6.290364,0.0164 -6.290364,0.0164 0.01812,-0.10098 -0.04249,-0.15177 0.0031,-0.35981 z"
         id="staffline_5"
         inkscape:connector-curvature="0"
         sodipodi:nodetypes="czzzcczzzcc" />
      <path
         style="fill:#000000;fill-opacity:1;stroke:none"
         d="m 76.701532,178.73365 c 0,0 -4.172515,-0.0342 -6.258761,-0.0361 -2.086253,-0.002 -3.342722,0.0568 -6.258761,0.0252 -2.91603,-0.0316 -4.09856,-0.0175 -6.258753,-0.0207 -2.160193,-0.003 -6.258753,0.01 -6.258753,0.01 -0.0087,-0.1349 -0.03755,-0.275 -0.0015,-0.39019 0,0 4.180119,0.0103 6.266018,0.0151 2.085907,0.004 3.395986,0.18996 6.257713,0.0544 2.861718,-0.13552 4.136424,0.03 6.257712,-0.0265 2.121287,-0.0565 6.257674,-0.0161 6.257674,-0.0161 -0.01234,0.0974 -0.0077,0.20023 0,0.38488 z"
         id="staffline_4"
         inkscape:connector-curvature="0"
         sodipodi:nodetypes="czzzcczzzccc" />
      <path
         style="fill:#000000;fill-opacity:1;stroke:none"
         d="m 76.520001,181.49725 c 0,0 -4.138869,0.0342 -6.208327,0.0361 -2.06945,0.002 -3.315801,-0.0164 -6.208358,0.0152 -2.892557,0.0316 -4.065563,-0.023 -6.208366,-0.0197 -2.142795,0.003 -6.208366,-0.01 -6.208366,-0.01 -0.0087,0.1349 -0.029,0.27499 0.007,0.39019 0,0 4.138213,-0.0103 6.207324,-0.0151 2.069111,-0.004 3.345322,-0.0686 6.207325,-0.0544 2.862003,0.0142 4.091458,0.0914 6.207324,0.0265 2.115867,-0.0649 6.207355,0.0161 6.207355,0.0161 -0.01773,-0.0993 0.02545,-0.25118 0,-0.38488 z"
         id="staffline_3"
         inkscape:connector-curvature="0"
         sodipodi:nodetypes="czzzcczzzccc" />
      <path
         style="fill:#000000;fill-opacity:1;stroke:none"
         d="m 51.460241,185.09367 c 0,0 4.170487,-0.0349 6.255738,-0.0367 2.085251,-0.002 4.104815,0.12573 6.255746,0.0459 2.150931,-0.0798 4.155334,-0.11749 6.255738,-0.0413 2.100405,0.0761 6.255754,0.0101 6.255754,0.0101 0.0085,-0.13725 0.0293,-0.2798 -0.0077,-0.39702 0,0 -4.169785,-0.0416 -6.254682,-0.0366 -2.084896,0.004 -3.735074,0.16243 -6.254689,0.10668 -2.519624,-0.0558 -4.134436,0.063 -6.254706,0.005 -2.120262,-0.0575 -6.233922,-0.0164 -6.233922,-0.0164 0.01805,0.10099 0.02838,0.1874 -0.01781,0.35982 z"
         id="staffline_2"
         inkscape:connector-curvature="0"
         sodipodi:nodetypes="czzzcczzzcc" />
      <path
         style="fill:#000000;fill-opacity:1;stroke:none"
         d="m 51.657512,188.26674 c 0,0 4.160585,0.006 6.240878,0.004 2.080292,-0.002 3.333175,0.0164 6.240878,-0.0152 2.907702,-0.0316 4.086854,-0.0175 6.240878,-0.0207 2.154023,-0.003 6.240878,0.01 6.240878,0.01 0.0085,-0.1349 0.0293,-0.275 -0.0077,-0.39021 0,0 -4.159922,0.0306 -6.239868,0.0354 -2.079946,0.004 -3.353133,0.0266 -6.239837,0.0342 -2.886695,0.008 -4.124602,0.03 -6.239829,-0.0265 -2.115226,-0.0564 -6.239837,-0.0161 -6.239837,-0.0161 0.01797,0.0993 0.04905,0.21543 0.0031,0.38488 z"
         id="staffline_1"
         inkscape:connector-curvature="0"
         sodipodi:nodetypes="czzzcczzzccc" />
      <path
         style="fill:#000000;stroke:none"
         d="m 59.502158,169.12631 c -0.471048,0.47366 -2.842608,2.68087 -1.738945,7.73671 -9.099119,7.38516 -1.790529,12.25787 2.307199,10.78761 l 0.496836,2.45004 c 0.204635,2.04562 -2.244218,3.12722 -3.761995,2.30565 2.574507,-0.41437 1.850633,-3.45929 -0.124219,-3.08661 -1.974852,0.37266 -1.508037,3.68724 1.048024,3.72627 2.556061,0.0391 3.320675,-1.81426 3.122324,-3.01673 l -0.451815,-2.48419 c 4.568545,-2.78424 1.468253,-6.43909 -1.375622,-6.00499 l -0.585341,-2.68969 c 3.527176,-2.79865 3.620656,-6.58857 1.063554,-9.72407 z m 0.40988,1.79793 c 0.02877,0 0.05745,7.7e-4 0.08696,0.003 0,0 0.852503,0.60927 0.648986,2.14727 -0.203518,1.538 -2.622373,3.58035 -2.622373,3.58035 -0.31293,-1.40034 0.07542,-5.73034 1.88643,-5.73074 z m -1.752903,8.13418 0.544972,2.52457 c -0.66788,0.10869 -1.714053,0.60131 -2.252855,1.92525 -0.538803,1.32395 0.483648,2.59042 1.703225,2.7233 0,0 -1.132543,-0.70508 -0.996788,-1.81191 0.08707,-0.70978 0.90704,-1.32587 1.855391,-1.50138 l 0.959518,4.40323 c -2.631766,1.25871 -5.399056,-0.86364 -5.403119,-3.14871 -0.0031,-1.90735 1.92559,-3.98214 3.589656,-5.11435 z m 1.173785,3.80425 c 2.832336,-0.0226 2.669398,3.41651 0.937778,4.31104 z"
         id="clef"
         inkscape:connector-curvature="0"
         sodipodi:nodetypes="cccccsscccccscscsccscsccscccc" />
      <path
         sodipodi:nodetypes="cccccccc"
         inkscape:connector-curvature="0"
         id="use3118"
         d="m 71.738786,182.81363 c 0.06053,-1.86628 -0.138247,-3.7471 0.0135,-5.28775 0.02429,-2.05052 -0.06277,-3.39713 0.0135,-5.28775 0.167836,-0.004 0.342142,-0.0123 0.485462,0.003 0.06308,1.75298 -0.0229,3.69792 -0.03625,5.28687 0.0138,1.94822 0.01041,3.39683 -0.03625,5.28687 -0.123486,-0.008 -0.185587,0.0178 -0.439979,-0.002 z"
         style="fill:#000000;fill-opacity:1;stroke:none" />
      <path
         sodipodi:nodetypes="zszsz"
         inkscape:connector-curvature="0"
         id="note_a_head"
         d="m 67.754395,183.85902 c -0.0162,-0.92778 1.397923,-2.21921 2.953224,-2.18458 0.726087,0.0162 1.501829,0.31689 1.47662,1.23388 -0.02522,0.91699 -1.348985,2.06327 -2.912777,2.10367 -0.754304,0.0195 -1.500896,-0.2252 -1.517067,-1.15297 z"
         style="fill:#000000;fill-opacity:1;stroke:none" />
    </g>
    <rect
       y="160"
       x="40"
       height="50"
       width="55"
       id="rect4699"
       style="fill:none;stroke:none" />
  </g>
  <g
     id="id_NotesReadHard"
     transform="translate(-107.59102,0)">
    <use
       height="360"
       width="640"
       transform="matrix(-1,0,0,-1,190.54578,187.09806)"
       id="use4643"
       xlink:href="#answerlabel"
       y="0"
       x="0" />
    <g
       id="g3309">
      <path
         style="fill:#000000"
         inkscape:connector-curvature="0"
         d="m 231.07038,185.17236 0.10694,-2.57587 0.99107,-0.24397 -0.10639,2.56272 z m 2.07477,-0.5381 -0.74283,0.18527 0.10639,-2.5627 0.74261,-0.17981 0.0442,-1.06451 -0.74261,0.17981 0.10872,-2.61845 -0.33651,0.004 -0.112,2.69784 -0.9916,0.25657 0.10571,-2.54617 -0.33632,-0.0139 -0.10974,2.64308 -0.74262,0.18036 -0.0443,1.0667 0.7426,-0.17981 -0.10619,2.55778 -0.74258,0.17927 -0.0441,1.06232 0.74261,-0.1798 -0.10811,2.60365 0.33633,0.0139 0.11196,-2.69676 0.99103,-0.24287 -0.10517,2.53302 0.3365,-0.004 0.10912,-2.6283 0.74263,-0.18035 z"
         id="sharp"
         sodipodi:nodetypes="cccccccccccccccccccccccccccccccccc" />
      <use
         x="0"
         y="0"
         xlink:href="#g4671"
         id="use4681"
         transform="matrix(0.99943343,0.03365727,-0.03365727,0.99943343,169.69983,-0.77041384)"
         width="640"
         height="360" />
    </g>
    <rect
       y="160"
       x="202.59102"
       height="50"
       width="55"
       id="rect4701"
       style="fill:none;stroke:none" />
  </g>
  <g
     id="id_Music">
    <rect
       y="160"
       x="-5.5"
       height="50"
       width="45.5"
       id="rect4697"
       style="fill:none;stroke:none" />
    <path
       style="fill:#c8c8c8;fill-opacity:0.50196081;stroke:none"
       d="m -5.5,200.25002 0,9.74998 45.5,0 0,-9.87498 c -21.784175,0.69576 -22.797282,-1.29718 -45.5,0.125 z"
       id="path4607-65-9"
       inkscape:connector-curvature="0"
       sodipodi:nodetypes="ccccc" />
    <use
       x="0"
       y="0"
       xlink:href="#g4671"
       id="use4592"
       transform="matrix(1.0794587,0,0,1.0794587,-55.394075,-6.3911652)"
       width="640"
       height="360" />
  </g>
  <g
     id="id_MixedEasy">
    <g
       id="g4596">
      <use
         height="360"
         width="640"
         transform="matrix(0.70565239,0.00862657,-0.00862657,0.70565239,20.04642,98.15459)"
         id="use3158-2"
         xlink:href="#g4671"
         y="0"
         x="0" />
      <use
         height="360"
         width="640"
         transform="matrix(0.71875283,0,0,0.71875283,31.561413,132.94102)"
         id="use3155-5"
         xlink:href="#g4536"
         y="0"
         x="0" />
      <use
         height="360"
         width="640"
         transform="matrix(0.64629015,0.25298794,-0.25298794,0.64629015,184.99211,215.91893)"
         id="use3153-8"
         xlink:href="#three_apples"
         y="0"
         x="0" />
      <use
         height="360"
         width="640"
         transform="matrix(0.89053662,-0.05011198,0.05011198,0.89053662,0.85855419,212.36455)"
         id="use3150-2"
         xlink:href="#robot"
         y="0"
         x="0" />
    </g>
    <use
       x="0"
       y="0"
       xlink:href="#answerlabel"
       id="use3148-8"
       transform="matrix(1.0134293,0,0,1.0134293,108.14246,256.58273)"
       width="640"
       height="360" />
    <rect
       style="fill:none;stroke:none"
       id="rect4701-9"
       width="55"
       height="50"
       x="40"
       y="210" />
  </g>
  <g
     id="id_MixedMedium">
    <use
       x="0"
       y="0"
       xlink:href="#g4671"
       id="use3158-2-8"
       transform="matrix(0.68120912,-0.04611079,0.04611079,0.68120912,67.837991,106.44307)"
       width="640"
       height="360" />
    <use
       x="0"
       y="0"
       xlink:href="#g3265"
       id="use3270"
       transform="matrix(0.70768098,0,0,0.70768098,-27.765875,133.72432)"
       width="640"
       height="360" />
    <use
       x="0"
       y="0"
       xlink:href="#robot"
       id="use3150-2-6"
       transform="matrix(0.80214195,-0.16603768,0.16603768,0.80214195,55.199251,223.55418)"
       width="640"
       height="360" />
    <use
       x="0"
       y="0"
       xlink:href="#twelve_apples"
       id="use3262"
       transform="matrix(0.75936194,0.05110955,-0.05110955,0.75936194,181.13514,174.93871)"
       width="640"
       height="360" />
    <use
       x="0"
       y="0"
       xlink:href="#answerlabel"
       id="use3148-8-3"
       transform="matrix(1.0134293,0,0,1.0134293,163.14246,256.58273)"
       width="640"
       height="360" />
    <rect
       style="fill:none;stroke:none"
       id="rect4701-9-2"
       width="55"
       height="50"
       x="95"
       y="210" />
  </g>
  <g
     transform="translate(55,0)"
     id="id_MixedHard">
    <use
       x="0"
       y="0"
       xlink:href="#g3309"
       id="use3313"
       transform="matrix(0.74095963,0,0,0.74095963,-51.587164,91.509127)"
       width="640"
       height="360" />
    <use
       x="0"
       y="0"
       xlink:href="#g3316"
       id="use3321"
       transform="matrix(0.69954204,0,0,0.69954204,-138.09676,135.36935)"
       width="640"
       height="360" />
    <use
       x="0"
       y="0"
       xlink:href="#robot"
       id="use3150-2-6-9"
       transform="matrix(0.80214195,-0.16603768,0.16603768,0.80214195,55.574251,223.92918)"
       width="640"
       height="360" />
    <use
       x="0"
       y="0"
       xlink:href="#twelve_apples"
       id="use3262-7"
       transform="matrix(0.75936194,0.05110955,-0.05110955,0.75936194,181.13514,174.93871)"
       width="640"
       height="360" />
    <use
       x="0"
       y="0"
       xlink:href="#answerlabel"
       id="use3148-8-3-1"
       transform="matrix(1.0134293,0,0,1.0134293,163.14246,256.58273)"
       width="640"
       height="360" />
    <rect
       style="fill:none;stroke:none"
       id="rect4701-9-2-9"
       width="55"
       height="50"
       x="95"
       y="210" />
  </g>
  <g
     id="id_Mixed">
    <rect
       y="210"
       x="-5.5"
       height="50"
       width="45.5"
       id="rect3161"
       style="fill:none;stroke:none" />
    <path
       style="fill:#c8c8c8;fill-opacity:0.50196081;stroke:none"
       d="m -5.5,250.25002 0,9.74998 45.5,0 0,-9.62498 c -15.659175,0.19576 -20.922282,-0.17218 -45.5,-0.125 z"
       id="path4607-65-7"
       inkscape:connector-curvature="0"
       sodipodi:nodetypes="ccccc" />
    <use
       x="0"
       y="0"
       xlink:href="#g4596"
       id="use4602"
       transform="matrix(0.90524165,0,0,0.90524165,-45.328,27.361648)"
       width="640"
       height="360" />
  </g>
  <g
     id="id_Color">
    <rect
       style="fill:none;stroke:none"
       id="rect3161-7"
       width="45.499996"
       height="50"
       x="-5.5"
       y="260" />
    <path
       style="fill:#c8c8c8;fill-opacity:0.50196081;stroke:none"
       d="m -5.5,300.68752 0,9.31248 45.5,0 0,-9.37498 c -8.659175,0.69576 -32.7972813,-0.54718 -45.5,0.0625 z"
       id="path4607-65-7-9"
       inkscape:connector-curvature="0"
       sodipodi:nodetypes="ccccc" />
    <path
       sodipodi:nodetypes="zzzzzzzzzzzzzzzzzzzzzz"
       inkscape:connector-curvature="0"
       d="m 26.779653,275.61612 c -0.931388,0.92097 -0.62992,2.57724 0.531627,2.78897 1.16155,0.21171 2.18246,-0.47766 2.103379,-1.91649 -0.07907,-1.43884 -1.703618,-1.79346 -2.635006,-0.87248 z m -9.031528,0.23258 c -6.03583,0.4772 -6.125573,2.26426 -8.9232993,5.09117 -2.797726,2.82693 -1.2972495,1.52327 -3.690707,1.38241 -2.3934569,-0.14085 -2.9483225,2.68564 -1.4797038,3.12534 1.4686195,0.43971 3.0643421,-1.20043 3.5363972,0.49226 0.4720548,1.69272 -0.2192381,2.54582 1.4551984,4.44236 1.6744335,1.89652 2.7710725,0.97804 4.4190615,2.27403 1.647986,1.29603 -1.779381,4.07571 -2.007046,5.90919 -0.227665,1.83348 2.207494,3.78356 3.836051,2.49771 1.628558,-1.28586 0.545351,-2.00898 2.284986,-4.18274 1.739635,-2.17375 6.702724,-2.38229 8.305677,-3.68854 1.602954,-1.30625 2.497972,-0.98031 2.734303,-1.37481 0.236332,-0.39447 -1.715075,0.4147 -0.741902,-2.99195 0.97317,-3.40665 -3.693184,-13.45362 -9.729016,-12.97643 z m 11.378283,16.1006 c -0.114408,0.26436 0.427777,0.60002 1.155089,1.67388 0.727312,1.07384 2.257609,-0.21541 1.481695,-1.0465 -0.775912,-0.8311 -2.522375,-0.89176 -2.636784,-0.62738 z"
       style="fill:#3030ff;fill-opacity:1;stroke:none"
       id="path3190" />
    <path
       style="fill:#ffffff;fill-opacity:0.66666667;stroke:none"
       d="m 26.74396,276.28057 c 0.08584,-0.32759 0.903683,-1.05915 1.08621,-0.71078 0.182528,0.3484 -0.253915,0.58793 -0.437587,0.95956 -0.183673,0.37165 -0.168537,0.78832 -0.493373,0.84499 -0.324837,0.0567 -0.241099,-0.76617 -0.15525,-1.09377 z"
       id="path3192"
       inkscape:connector-curvature="0" />
    <path
       style="fill:#ffffff;fill-opacity:0.66666667;stroke:none"
       d="m 13.294265,296.01006 c 0.284788,0.19576 -0.168389,0.9048 -0.409992,1.53189 -0.241602,0.62709 -0.04685,1.39943 -0.611543,1.46065 -0.5647,0.0612 -0.34819,-1.19727 -0.0076,-1.83876 0.340631,-0.64152 0.744308,-1.34951 1.029093,-1.15378 z"
       id="path3201"
       inkscape:connector-curvature="0"
       sodipodi:nodetypes="sssss" />
    <path
       style="fill:#ffffff;fill-opacity:0.66666667;stroke:none"
       d="m 3.7197722,283.23083 c 0.2431337,-0.3762 1.2545943,-0.63773 1.4131157,-0.37941 0.1585279,0.25835 -0.4523988,0.46988 -0.7521059,0.75256 -0.2997077,0.28267 -0.4234796,0.84857 -0.8179031,0.81379 -0.3944214,-0.0348 -0.086238,-0.81073 0.1568933,-1.18694 z"
       id="path3199"
       inkscape:connector-curvature="0"
       sodipodi:nodetypes="sssss" />
    <path
       inkscape:connector-curvature="0"
       style="fill:#ffffff;fill-opacity:0.66666667;stroke:none"
       d="m 29.743452,292.22935 c 0.07927,-0.21084 0.63697,-0.21601 0.926456,0.068 0.289485,0.284 -0.207417,0.59851 -0.451701,0.50653 -0.244283,-0.092 -0.554019,-0.36369 -0.474755,-0.57453 z"
       id="path3192-1"
       sodipodi:nodetypes="zzzz" />
    <path
       style="fill:#ffffff;fill-opacity:0.66666667;stroke:none"
       d="m 11.083445,279.20525 c 0.616239,-0.78689 1.562343,-1.62858 1.865588,-1.33182 0.30325,0.29678 -0.666718,1.13623 -1.282448,1.77925 -0.615728,0.643 -1.02526,1.79101 -1.595866,1.48827 -0.5706049,-0.30271 0.396484,-1.14881 1.012726,-1.9357 z"
       id="path3197"
       inkscape:connector-curvature="0" />
  </g>
</svg>
