<?xml version="1.0" encoding="UTF-8" standalone="no"?>
<!-- Created with Inkscape (http://www.inkscape.org/) -->

<svg
   xmlns:dc="http://purl.org/dc/elements/1.1/"
   xmlns:cc="http://creativecommons.org/ns#"
   xmlns:rdf="http://www.w3.org/1999/02/22-rdf-syntax-ns#"
   xmlns:svg="http://www.w3.org/2000/svg"
   xmlns="http://www.w3.org/2000/svg"
   xmlns:sodipodi="http://sodipodi.sourceforge.net/DTD/sodipodi-0.dtd"
   xmlns:inkscape="http://www.inkscape.org/namespaces/inkscape"
   width="744.09448819"
   height="1052.3622047"
   id="svg2"
   version="1.1"
   inkscape:version="0.48.0 r9654"
   sodipodi:docname="notes.svg">
  <defs
     id="defs4" />
  <sodipodi:namedview
     id="base"
     pagecolor="#ffffff"
     bordercolor="#666666"
     borderopacity="1.0"
     inkscape:pageopacity="0.0"
     inkscape:pageshadow="2"
     inkscape:zoom="2.8"
     inkscape:cx="17.319797"
     inkscape:cy="872.16993"
     inkscape:document-units="px"
     inkscape:current-layer="layer1"
     showgrid="false"
     showguides="true"
     inkscape:guide-bbox="true"
     inkscape:window-width="1920"
     inkscape:window-height="1030"
     inkscape:window-x="-8"
     inkscape:window-y="-8"
     inkscape:window-maximized="1">
    <sodipodi:guide
       orientation="0,1"
       position="0,952.069"
       id="guide3776" />
    <sodipodi:guide
       orientation="0,1"
       position="0,924.037"
       id="guide3778" />
    <sodipodi:guide
       orientation="0,1"
       position="0,896.005"
       id="guide3780" />
    <sodipodi:guide
       orientation="0,1"
       position="0,867.924"
       id="guide3782" />
    <sodipodi:guide
       orientation="0,1"
       position="0,839.866"
       id="guide3784" />
    <sodipodi:guide
       orientation="0,1"
       position="0,812.068"
       id="guide4109" />
  </sodipodi:namedview>
  <metadata
     id="metadata7">
    <rdf:RDF>
      <cc:Work
         rdf:about="">
        <dc:format>image/svg+xml</dc:format>
        <dc:type
           rdf:resource="http://purl.org/dc/dcmitype/StillImage" />
        <dc:title />
      </cc:Work>
    </rdf:RDF>
  </metadata>
  <g
     inkscape:label="Layer 1"
     inkscape:groupmode="layer"
     id="layer1">
    <path
       style="fill:#000000;stroke:none"
       d="m 74.593456,45.335966 c -4.15843,4.181619 -25.094739,23.667088 -15.351509,68.300514 -80.328031,65.19696 -15.806996,108.21387 20.368162,95.23418 l 4.386146,21.62918 c 1.806544,18.0589 -19.812211,27.60742 -33.211346,20.35446 22.728051,-3.65799 16.337673,-30.53887 -1.096536,-27.24894 -17.434212,3.28994 -13.313165,32.55139 9.252026,32.8961 22.565193,0.3447 29.315304,-16.01659 27.564183,-26.63213 L 82.515931,207.93861 C 122.84751,183.35909 95.477762,151.09372 70.371791,154.92605 L 65.204363,131.18106 C 96.342658,106.4744 97.167846,73.016483 74.593456,45.335966 z m 3.61857,15.872364 c 0.253782,-5.7e-5 0.507437,0.008 0.767576,0.02742 0,0 7.526072,5.378753 5.729402,18.956373 C 82.912333,93.76974 61.55838,111.79978 61.55838,111.79978 58.795752,99.437431 62.223675,61.211808 78.212026,61.20833 z m -15.47487,71.80942 4.811053,22.28711 c -5.896041,0.95955 -15.13182,5.30839 -19.888428,16.99632 -4.756607,11.68791 4.269668,22.86851 15.036255,24.04156 0,0 -9.998241,-6.22456 -8.799704,-15.99573 0.768592,-6.26601 8.007346,-11.70486 16.379512,-13.25439 l 8.470743,38.87222 c -23.233478,11.11194 -47.663401,-7.62428 -47.699332,-27.7972 -0.02999,-16.83816 16.999349,-35.15462 31.689901,-45.14989 z m 10.362269,33.58434 c 25.004196,-0.19968 23.56579,30.16119 8.278849,38.05824 z"
       id="clef"
       inkscape:connector-curvature="0"
       sodipodi:nodetypes="cccccsscccccscscsccscsccscccc" />
    <path
       style="fill:#000000;fill-opacity:1;stroke:none"
       d="m -0.0812837,98.456573 c 0,0 63.3856397,0.307822 95.0784597,0.324048 31.692824,0.01623 62.387364,-0.931334 95.078454,-0.226692 32.69111,0.704648 63.15527,0.858563 95.07847,0.186372 31.92319,-0.672191 95.07846,-0.089 95.07846,-0.089 0.13171,1.211673 0.44439,2.470129 -0.10862,3.504879 0,0 -63.37504,0.18822 -95.06256,0.14452 -31.68752,-0.0436 -63.37504,-0.36251 -95.06254,-0.40608 -31.68752,-0.0436 -62.83751,-0.91323 -95.062564,-0.40605 -32.225057,0.50715 -95.06255507,0.14452 -95.06255507,0.14452 0.27399869,-0.89155 -0.64176777,-1.33991 0.04499537,-3.176517 z"
       id="staffline_5"
       inkscape:connector-curvature="0"
       sodipodi:nodetypes="czzzcczzzcc" />
    <path
       style="fill:#000000;fill-opacity:1;stroke:none"
       d="m 380.47663,130.15059 c 0,0 -63.38564,-0.30253 -95.07846,-0.31848 -31.69282,-0.016 -50.7802,0.50174 -95.07845,0.2228 -44.29825,-0.27894 -62.26241,-0.15446 -95.078471,-0.18318 -32.816058,-0.0287 -95.07845999,0.0875 -95.07845999,0.0875 -0.13171,-1.19087 -0.57065907,-2.42769 -0.0176491,-3.44469 0,0 63.50130909,0.0908 95.18882909,0.13371 31.687521,0.0429 51.589331,1.67693 95.062541,0.48051 43.47321,-1.19642 62.83751,0.26467 95.06256,-0.2338 32.22506,-0.49846 95.06256,-0.14204 95.06256,-0.14204 -0.1927,0.85998 -0.0762,1.76759 -0.045,3.39769 z"
       id="staffline_4"
       inkscape:connector-curvature="0"
       sodipodi:nodetypes="czzzcczzzccc" />
    <path
       style="fill:#000000;fill-opacity:1;stroke:none"
       d="m 380.3726,154.54793 c 0,0 -63.38564,0.30253 -95.07846,0.31848 -31.69282,0.016 -50.7802,-0.1446 -95.07845,0.13434 -44.29825,0.27894 -62.26241,-0.20268 -95.078505,-0.17396 -32.81606,0.0287 -95.07845871,-0.0875 -95.07845871,-0.0875 -0.13171,1.19087 -0.44439,2.42769 0.10862,3.44469 0,0 63.37503671,-0.0908 95.06255871,-0.13371 31.687555,-0.0429 51.232225,-0.6055 95.062575,-0.48051 43.83035,0.12499 62.65893,0.80677 95.06256,0.2338 32.40363,-0.57297 95.06256,0.14204 95.06256,0.14204 -0.274,-0.87624 0.38922,-2.21745 -0.045,-3.39769 z"
       id="staffline_3"
       inkscape:connector-curvature="0"
       sodipodi:nodetypes="czzzcczzzccc" />
    <path
       style="fill:#000000;fill-opacity:1;stroke:none"
       d="m -0.34546208,186.29754 c 0,0 63.38563608,-0.30782 95.07845808,-0.32405 31.692904,-0.0162 62.387444,1.10991 95.078534,0.40526 32.69111,-0.70465 63.15527,-1.03713 95.07847,-0.36494 31.92319,0.67219 95.07846,0.089 95.07846,0.089 0.13171,-1.21166 0.44439,-2.47008 -0.10862,-3.50483 0,0 -63.37504,-0.36679 -95.06256,-0.32309 -31.68752,0.0436 -56.7679,1.43394 -95.06254,0.94179 -38.29464,-0.49214 -62.83751,0.55609 -95.062644,0.0489 -32.225059,-0.50715 -94.74688041,-0.14452 -94.74688041,-0.14452 0.27399792,0.89155 0.43151881,1.65443 -0.27067767,3.17648 z"
       id="staffline_2"
       inkscape:connector-curvature="0"
       sodipodi:nodetypes="czzzcczzzcc" />
    <path
       style="fill:#000000;fill-opacity:1;stroke:none"
       d="m -0.0284946,214.30968 c 0,0 63.3856396,0.0546 95.0784596,0.0387 31.692825,-0.016 50.780205,0.1446 95.078455,-0.13434 44.29825,-0.27894 62.26241,-0.15446 95.07848,-0.18318 32.81605,-0.0287 95.07846,0.0875 95.07846,0.0875 0.13171,-1.19087 0.44439,-2.42769 -0.10862,-3.44469 0,0 -63.37504,0.26937 -95.06256,0.31228 -31.68753,0.0429 -51.08426,0.23567 -95.06255,0.30194 -43.97829,0.0663 -62.83751,0.26467 -95.062565,-0.2338 -32.22506,-0.49846 -95.0625596,-0.14204 -95.0625596,-0.14204 0.274,0.87624 0.7472,1.90178 0.045,3.39769 z"
       id="staffline_1"
       inkscape:connector-curvature="0"
       sodipodi:nodetypes="czzzcczzzccc" />
    <g
       id="note_c">
      <path
         sodipodi:nodetypes="cccccc"
         inkscape:connector-curvature="0"
         id="path2997-4"
         d="m 195.37308,238.91147 c 18.71351,0.49807 34.48136,-0.84163 51.96066,0.19472 0.018,1.21168 0.0607,2.47013 -0.0148,3.50488 -18.27668,-0.27877 -34.31807,-0.14559 -52.04126,-0.25523 0.0374,-0.89155 0.002,-1.60777 0.0953,-3.44437 z"
         style="fill:#000000;fill-opacity:1;stroke:none" />
      <g
         transform="translate(-16.868635,0)"
         id="note_up">
        <path
           style="fill:#000000;fill-opacity:1;stroke:none"
           d="m 218.75,245.21934 c -0.14276,-8.19045 12.34103,-19.59135 26.07143,-19.28572 6.40997,0.14268 13.25828,2.79758 13.03571,10.89286 -0.22257,8.09528 -11.90899,18.21472 -25.71428,18.57142 -6.65908,0.17206 -13.25009,-1.98812 -13.39286,-10.17856 z"
           id="note_head"
           inkscape:connector-curvature="0"
           sodipodi:nodetypes="zszsz" />
        <path
           style="fill:#000000;fill-opacity:1;stroke:none"
           d="m 253.87143,235.95491 c 0.53446,-16.47577 -1.2204,-33.0799 0.11904,-46.68085 0.21443,-18.10224 -0.55438,-29.99021 0.11908,-46.68086 1.48161,-0.0323 3.02044,-0.1091 4.28571,0.0267 0.55699,15.47555 -0.20212,32.6457 -0.31983,46.67305 0.12185,17.19907 0.092,29.98767 -0.31979,46.67305 -1.09018,-0.0673 -1.63843,0.15754 -3.88421,-0.011 z"
           id="note_stem"
           inkscape:connector-curvature="0"
           sodipodi:nodetypes="cccccccc" />
      </g>
    </g>
    <use
       x="0"
       y="0"
       xlink:href="#note_up"
       id="note_d"
       transform="translate(77.145434,-14)"
       width="744.09448"
       height="1052.3622" />
    <use
       x="0"
       y="0"
       xlink:href="#note_up"
       id="note_e"
       transform="translate(154.77534,-28)"
       width="744.09448"
       height="1052.3622" />
    <use
       x="0"
       y="0"
       xlink:href="#note_up"
       id="note_f"
       transform="translate(232.40523,-41.495437)"
       width="744.09448"
       height="1052.3622" />
    <use
       x="0"
       y="0"
       xlink:href="#note_up"
       id="note_g"
       transform="translate(310.03514,-55.982935)"
       width="744.09448"
       height="1052.3622" />
    <use
       x="0"
       y="0"
       xlink:href="#note_up"
       id="note_a"
       transform="translate(387.66506,-69.798086)"
       width="744.09448"
       height="1052.3622" />
    <g
       id="note_b">
      <use
         height="1052.3622"
         width="744.09448"
         transform="translate(449.10525,-84.040717)"
         id="use3891"
         xlink:href="#note_head"
         y="0"
         x="0" />
      <use
         height="1052.3622"
         width="744.09448"
         transform="translate(413.7565,17.785705)"
         id="use3895"
         xlink:href="#note_stem"
         y="0"
         x="0" />
    </g>
    <path
       style="fill:#000000"
       inkscape:connector-curvature="0"
       d="m 180.02748,252.0253 0,-20.1653 7.66609,-2.22823 0,20.06242 z m 16.03987,-4.87843 -5.74518,1.68902 0,-20.06241 5.74518,-1.64615 0,-8.33362 -5.74518,1.64615 0,-20.49868 -2.6286,0.13811 0,21.12027 -7.66609,2.32682 0,-19.93282 -2.633,0 0,20.69159 -5.74518,1.65044 0,8.35076 5.74518,-1.64614 0,20.02383 -5.74518,1.64185 0,8.31647 5.74518,-1.64614 0,20.38294 2.633,0 0,-21.11171 7.66609,-2.21965 0,19.82994 2.6286,-0.13811 0,-20.57585 5.74518,-1.65043 z"
       id="sharp"
       sodipodi:nodetypes="cccccccccccccccccccccccccccccccccc" />
    <path
       inkscape:connector-curvature="0"
       d="m 175.83127,254.0675 c 0,-4.82443 0,-9.64887 0,-14.4733 6.8507,-10.54861 13.36037,-10.11027 14.51191,-5.44478 1.15153,4.66549 -2.27383,13.1675 -14.51191,19.91808 z m 0,-21.60806 0,-40.56422 -3.14063,0 0,64.80528 c 0,1.96359 0.53552,2.94539 1.60657,2.94539 9.74528,-5.20017 23.93815,-19.29757 20.41103,-27.50847 -3.52712,-8.2109 -13.74181,-4.71391 -18.87697,0.32202 z"
       style="fill:#000000"
       id="flat"
       sodipodi:nodetypes="cczccccsczc" />
  </g>
</svg>
