<?xml version="1.0" encoding="UTF-8" standalone="no"?>
<!-- Created with Inkscape (http://www.inkscape.org/) -->

<svg
   xmlns:dc="http://purl.org/dc/elements/1.1/"
   xmlns:cc="http://creativecommons.org/ns#"
   xmlns:rdf="http://www.w3.org/1999/02/22-rdf-syntax-ns#"
   xmlns:svg="http://www.w3.org/2000/svg"
   xmlns="http://www.w3.org/2000/svg"
   xmlns:xlink="http://www.w3.org/1999/xlink"
   xmlns:sodipodi="http://sodipodi.sourceforge.net/DTD/sodipodi-0.dtd"
   xmlns:inkscape="http://www.inkscape.org/namespaces/inkscape"
   width="744.09448819"
   height="1052.3622047"
   id="svg2"
   version="1.1"
   inkscape:version="0.48.0 r9654"
   sodipodi:docname="notes.svg">
  <defs
     id="defs4" />
  <sodipodi:namedview
     id="base"
     pagecolor="#d3e323"
     bordercolor="#666666"
     borderopacity="1.0"
     inkscape:pageopacity="1"
     inkscape:pageshadow="2"
     inkscape:zoom="1.4"
     inkscape:cx="649.95933"
     inkscape:cy="999.20109"
     inkscape:document-units="px"
     inkscape:current-layer="layer1"
     showgrid="false"
     showguides="true"
     inkscape:guide-bbox="true"
     inkscape:window-width="1920"
     inkscape:window-height="1030"
     inkscape:window-x="-8"
     inkscape:window-y="-8"
     inkscape:window-maximized="1">
    <sodipodi:guide
       orientation="0,1"
       position="0,952.069"
       id="guide3776" />
    <sodipodi:guide
       orientation="0,1"
       position="0,924.037"
       id="guide3778" />
    <sodipodi:guide
       orientation="0,1"
       position="0,896.005"
       id="guide3780" />
    <sodipodi:guide
       orientation="0,1"
       position="0,867.924"
       id="guide3782" />
    <sodipodi:guide
       orientation="0,1"
       position="0,839.866"
       id="guide3784" />
    <sodipodi:guide
       orientation="0,1"
       position="0,812.068"
       id="guide4109" />
    <sodipodi:guide
       orientation="1,0"
       position="380.57497,901.05607"
       id="guide4056" />
  </sodipodi:namedview>
  <metadata
     id="metadata7">
    <rdf:RDF>
      <cc:Work
         rdf:about="">
        <dc:format>image/svg+xml</dc:format>
        <dc:type
           rdf:resource="http://purl.org/dc/dcmitype/StillImage" />
        <dc:title></dc:title>
      </cc:Work>
    </rdf:RDF>
  </metadata>
  <g
     inkscape:label="Layer 1"
     inkscape:groupmode="layer"
     id="layer1">
    <g
       id="stafflines">
      <path
         style="opacity:0.35;fill:#ffffff;fill-opacity:1;stroke:none"
         d="m -13.079921,28.790755 c 103.371228,-1.428571 179.492871,2.93259 215.571321,2.499999 90.25675,-1.082204 128.08253,-2.431557 192.76342,-1.428571 0,0 0.24525,38.496574 -0.73573,124.464287 -0.98098,85.96771 -0.73573,130.17857 -0.73573,130.17857 0,0 -128.40493,-1.78503 -203.61559,0 -75.21064,1.78503 -122.982682,-0.63446 -203.61556,0 -1.532789,-38.75 -0.410374,-89.2321 0.46736,-131.02841 0.952838,-45.37256 0.339722,-86.354705 -0.09949,-124.685875 z"
         id="path3027"
         inkscape:connector-curvature="0"
         sodipodi:nodetypes="csczczcsc" />
      <path
         sodipodi:nodetypes="czzzcczzzcc"
         inkscape:connector-curvature="0"
         id="staffline_5"
         d="m -0.16748498,98.456573 c 0,0 63.95875698,0.307822 95.93813598,0.324048 31.979389,0.01623 62.951449,-0.931334 95.938139,-0.226692 32.98669,0.704648 63.72629,0.858563 95.93814,0.186372 32.21183,-0.672191 95.93813,-0.089 95.93813,-0.089 0.1329,1.211673 0.44841,2.470129 -0.1096,3.504879 0,0 -63.94805,0.18822 -95.92209,0.14452 -31.97403,-0.0436 -63.94806,-0.36251 -95.92208,-0.40608 -31.97403,-0.0436 -63.40566,-0.91323 -95.92209,-0.40605 -32.516428,0.50715 -95.92208722,0.14452 -95.92208722,0.14452 0.27647612,-0.89155 -0.64757045,-1.33991 0.0454018,-3.176517 z"
         style="fill:#000000;fill-opacity:1;stroke:none" />
      <path
         sodipodi:nodetypes="czzzcczzzccc"
         inkscape:connector-curvature="0"
         id="staffline_4"
         d="m 383.29766,130.15059 c 0,0 -63.62676,-0.30253 -95.44013,-0.31848 -31.81338,-0.016 -50.97336,0.50174 -95.44012,0.2228 -44.46675,-0.27894 -62.49925,-0.15446 -95.440139,-0.18318 -32.940887,-0.0287 -95.440129,0.0875 -95.440129,0.0875 -0.1322111,-1.19087 -0.57282983,-2.42769 -0.017716,-3.44469 0,0 63.7428614,0.0908 95.5509174,0.13371 31.808047,0.0429 51.785567,1.67693 95.424157,0.48051 43.63857,-1.19642 63.07653,0.26467 95.42416,-0.2338 32.34764,-0.49846 95.42417,-0.14204 95.42417,-0.14204 -0.19344,0.85998 -0.0765,1.76759 -0.0451,3.39769 z"
         style="fill:#000000;fill-opacity:1;stroke:none" />
      <path
         sodipodi:nodetypes="czzzcczzzccc"
         inkscape:connector-curvature="0"
         id="staffline_3"
         d="m 380.53016,154.54793 c 0,0 -63.11444,0.30253 -94.67167,0.31848 -31.55722,0.016 -50.56293,-0.1446 -94.67164,0.13434 -44.10873,0.27894 -61.99602,-0.20268 -94.67172,-0.17396 -32.675657,0.0287 -94.6716644,-0.0875 -94.6716644,-0.0875 -0.1311465,1.19087 -0.4424887,2.42769 0.1081552,3.44469 0,0 63.1038862,-0.0908 94.6558322,-0.13371 31.551987,-0.0429 51.013027,-0.6055 94.655847,-0.48051 43.64282,0.12499 62.39084,0.80677 94.65584,0.2338 32.26499,-0.57297 94.65583,0.14204 94.65583,0.14204 -0.27282,-0.87624 0.38755,-2.21745 -0.0448,-3.39769 z"
         style="fill:#000000;fill-opacity:1;stroke:none" />
      <path
         sodipodi:nodetypes="czzzcczzzcc"
         inkscape:connector-curvature="0"
         id="staffline_2"
         d="m -1.6081528,186.29754 c 0,0 63.5960848,-0.30782 95.3941308,-0.32405 31.798132,-0.0162 62.594582,1.10991 95.394202,0.40526 32.79965,-0.70465 63.36496,-1.03713 95.39415,-0.36494 32.02918,0.67219 95.39413,0.089 95.39413,0.089 0.13215,-1.21166 0.44587,-2.47008 -0.10898,-3.50483 0,0 -63.58545,-0.36679 -95.37818,-0.32309 -31.79273,0.0436 -56.95638,1.43394 -95.37816,0.94179 -38.42178,-0.49214 -63.04614,0.55609 -95.378264,0.0489 -32.332051,-0.50715 -95.0614524,-0.14452 -95.0614524,-0.14452 0.2749076,0.89155 0.4329515,1.65443 -0.2715764,3.17648 z"
         style="fill:#000000;fill-opacity:1;stroke:none" />
      <path
         sodipodi:nodetypes="czzzcczzzccc"
         inkscape:connector-curvature="0"
         id="staffline_1"
         d="m 1.400119,214.30968 c 0,0 63.444993,0.0546 95.167491,0.0387 31.7225,-0.016 50.82776,0.1446 95.16749,-0.13434 44.33972,-0.27894 62.32071,-0.15446 95.16751,-0.18318 32.84678,-0.0287 95.16749,0.0875 95.16749,0.0875 0.13184,-1.19087 0.4448,-2.42769 -0.10872,-3.44469 0,0 -63.43438,0.26937 -95.15158,0.31228 -31.7172,0.0429 -51.1321,0.23567 -95.15157,0.30194 -44.01946,0.0663 -62.89634,0.26467 -95.151577,-0.2338 -32.255236,-0.49846 -95.1515762,-0.14204 -95.1515762,-0.14204 0.2742566,0.87624 0.7478997,1.90178 0.045042,3.39769 z"
         style="fill:#000000;fill-opacity:1;stroke:none" />
    </g>
    <path
       style="fill:#000000;stroke:none"
       d="m 74.593456,45.335966 c -4.15843,4.181619 -25.094739,23.667088 -15.351509,68.300514 -80.328031,65.19696 -15.806996,108.21387 20.368162,95.23418 l 4.386146,21.62918 c 1.806544,18.0589 -19.812211,27.60742 -33.211346,20.35446 22.728051,-3.65799 16.337673,-30.53887 -1.096536,-27.24894 -17.434212,3.28994 -13.313165,32.55139 9.252026,32.8961 22.565193,0.3447 29.315304,-16.01659 27.564183,-26.63213 L 82.515931,207.93861 C 122.84751,183.35909 95.477762,151.09372 70.371791,154.92605 L 65.204363,131.18106 C 96.342658,106.4744 97.167846,73.016483 74.593456,45.335966 z m 3.61857,15.872364 c 0.253782,-5.7e-5 0.507437,0.008 0.767576,0.02742 0,0 7.526072,5.378753 5.729402,18.956373 C 82.912333,93.76974 61.55838,111.79978 61.55838,111.79978 58.795752,99.437431 62.223675,61.211808 78.212026,61.20833 z m -15.47487,71.80942 4.811053,22.28711 c -5.896041,0.95955 -15.13182,5.30839 -19.888428,16.99632 -4.756607,11.68791 4.269668,22.86851 15.036255,24.04156 0,0 -9.998241,-6.22456 -8.799704,-15.99573 0.768592,-6.26601 8.007346,-11.70486 16.379512,-13.25439 l 8.470743,38.87222 c -23.233478,11.11194 -47.663401,-7.62428 -47.699332,-27.7972 -0.02999,-16.83816 16.999349,-35.15462 31.689901,-45.14989 z m 10.362269,33.58434 c 25.004196,-0.19968 23.56579,30.16119 8.278849,38.05824 z"
       id="clef"
       inkscape:connector-curvature="0"
       sodipodi:nodetypes="cccccsscccccscscsccscsccscccc" />
    <g
       id="note_c">
      <path
         sodipodi:nodetypes="cccccc"
         inkscape:connector-curvature="0"
         id="path2997-4"
         d="m 195.37308,238.91147 c 18.71351,0.49807 34.48136,-0.84163 51.96066,0.19472 0.018,1.21168 0.0607,2.47013 -0.0148,3.50488 -18.27668,-0.27877 -34.31807,-0.14559 -52.04126,-0.25523 0.0374,-0.89155 0.002,-1.60777 0.0953,-3.44437 z"
         style="fill:#000000;fill-opacity:1;stroke:none" />
      <path
         sodipodi:nodetypes="zszsz"
         inkscape:connector-curvature="0"
         id="note_c_head"
         d="m 201.88136,245.21934 c -0.14276,-8.19045 12.34103,-19.59135 26.07143,-19.28572 6.40997,0.14268 13.25828,2.79758 13.03571,10.89286 -0.22257,8.09528 -11.90898,18.21472 -25.71428,18.57142 -6.65908,0.17206 -13.25009,-1.98812 -13.39286,-10.17856 z"
         style="fill:#000000;fill-opacity:1;stroke:none" />
      <path
         sodipodi:nodetypes="cccccccc"
         inkscape:connector-curvature="0"
         id="note_stem"
         d="m 237.00279,235.95491 c 0.53446,-16.47577 -1.2204,-33.0799 0.11904,-46.68085 0.21443,-18.10224 -0.55438,-29.99021 0.11908,-46.68086 1.48161,-0.0323 3.02044,-0.1091 4.28571,0.0267 0.55699,15.47555 -0.20211,32.6457 -0.31983,46.67305 0.12185,17.19907 0.092,29.98767 -0.31979,46.67305 -1.09018,-0.0673 -1.63843,0.15754 -3.88421,-0.011 z"
         style="fill:#000000;fill-opacity:1;stroke:none" />
    </g>
    <g
       id="note_d">
      <use
         height="1052.3622"
         width="744.09448"
         transform="translate(74.441149,-14.107132)"
         id="use3074"
         xlink:href="#note_stem"
         y="0"
         x="0" />
      <use
         height="1052.3622"
         width="744.09448"
         transform="translate(74.226859,-14)"
         id="note_d_head"
         xlink:href="#note_c_head"
         y="0"
         x="0" />
    </g>
    <g
       id="note_e">
      <use
         height="1052.3622"
         width="744.09448"
         transform="translate(149.14173,-28.04064)"
         id="use3088"
         xlink:href="#note_stem"
         y="0"
         x="0" />
      <use
         height="1052.3622"
         width="744.09448"
         transform="translate(149.16321,-28)"
         id="note_e_head"
         xlink:href="#note_c_head"
         y="0"
         x="0" />
    </g>
    <g
       id="note_f">
      <use
         height="1052.3622"
         width="744.09448"
         transform="translate(224.00025,-41.494924)"
         id="use3098"
         xlink:href="#note_stem"
         y="0"
         x="0" />
      <use
         height="1052.3622"
         width="744.09448"
         transform="translate(223.94162,-41.55357)"
         id="note_f_head"
         xlink:href="#note_c_head"
         y="0"
         x="0" />
    </g>
    <g
       id="note_g">
      <use
         height="1052.3622"
         width="744.09448"
         transform="translate(298.87869,-55.964281)"
         id="use3108"
         xlink:href="#note_stem"
         y="0"
         x="0" />
      <use
         height="1052.3622"
         width="744.09448"
         transform="translate(298.70012,-56)"
         id="note_g_head"
         xlink:href="#note_c_head"
         y="0"
         x="0" />
    </g>
    <g
       id="note_a">
      <use
         height="1052.3622"
         width="744.09448"
         transform="translate(373.63451,-69.78572)"
         id="use3118"
         xlink:href="#note_stem"
         y="0"
         x="0" />
      <use
         height="1052.3622"
         width="744.09448"
         transform="translate(373.58132,-69.821428)"
         id="note_a_head"
         xlink:href="#note_c_head"
         y="0"
         x="0" />
    </g>
    <g
       id="note_b">
      <use
         height="1052.3622"
         width="744.09448"
         transform="translate(413.75653,17.785705)"
         id="use3895"
         xlink:href="#note_stem"
         y="0"
         x="0" />
      <use
         height="1052.3622"
         width="744.09448"
         transform="translate(449.10528,-84.040717)"
         id="note_b_head"
         xlink:href="#note_c_head"
         y="0"
         x="0" />
    </g>
    <path
       style="fill:#000000"
       inkscape:connector-curvature="0"
       d="m 180.02748,252.0253 0,-20.1653 7.66609,-2.22823 0,20.06242 z m 16.03987,-4.87843 -5.74518,1.68902 0,-20.06241 5.74518,-1.64615 0,-8.33362 -5.74518,1.64615 0,-20.49868 -2.6286,0.13811 0,21.12027 -7.66609,2.32682 0,-19.93282 -2.633,0 0,20.69159 -5.74518,1.65044 0,8.35076 5.74518,-1.64614 0,20.02383 -5.74518,1.64185 0,8.31647 5.74518,-1.64614 0,20.38294 2.633,0 0,-21.11171 7.66609,-2.21965 0,19.82994 2.6286,-0.13811 0,-20.57585 5.74518,-1.65043 z"
       id="sharp"
       sodipodi:nodetypes="cccccccccccccccccccccccccccccccccc" />
    <path
       inkscape:connector-curvature="0"
       d="m 175.83127,254.0675 c 0,-4.82443 0,-9.64887 0,-14.4733 6.8507,-10.54861 13.36037,-10.11027 14.51191,-5.44478 1.15153,4.66549 -2.27383,13.1675 -14.51191,19.91808 z m 0,-21.60806 0,-40.56422 -3.14063,0 0,64.80528 c 0,1.96359 0.53552,2.94539 1.60657,2.94539 9.74528,-5.20017 23.93815,-19.29757 20.41103,-27.50847 -3.52712,-8.2109 -13.74181,-4.71391 -18.87697,0.32202 z"
       style="fill:#000000"
       id="flat"
       sodipodi:nodetypes="cczccccsczc" />
  </g>
</svg>
