<?xml version="1.0"?>
<!-- Converted with SVG Converter - Version 0.9.5 (Compiled Mon May 30 09:08:51 2011) - Copyright (C) 2011 Nokia -->
<svg xmlns="http://www.w3.org/2000/svg" width="96" version="1.1" height="96" baseProfile="tiny" xmlns:xlink="http://www.w3.org/1999/xlink" id="svg2">
 <metadata id="metadata25"/>
 <defs id="defs4">
  <linearGradient gradientTransform="matrix(1 0 0 -1 -178 -171)" id="SVGID_2_" y1="-179.2529" x1="226" y2="-258.498" gradientUnits="userSpaceOnUse" x2="226">
   <stop offset="0" style="stop-color:#FFFFFF" id="stop3087"/>
   <stop offset="1" style="stop-color:#FFFFFF;stop-opacity:0" id="stop3089"/>
  </linearGradient>
  <linearGradient id="SVGID_1_" y1="8" x1="48" y2="88.0005" gradientUnits="userSpaceOnUse" x2="48">
   <stop offset="0" style="stop-color:#e7dc25;stop-opacity:1;" id="stop3074"/>
   <stop offset="1" style="stop-color:#bdb41f;stop-opacity:1;" id="stop3082"/>
  </linearGradient>
  <linearGradient gradientTransform="matrix(0.16218642,-0.02112904,0.0211573,0.16196983,49.424659,1.4941804)" id="linearGradient3097" y1="36.62862" y2="94.836052" x1="-259.82175" x2="-229.6599" gradientUnits="userSpaceOnUse">
   <stop offset="0" stop-color="#FFF" id="stop3785"/>
   <stop offset="1" stop-color="#FFF" id="stop3787" stop-opacity="0"/>
  </linearGradient>
  <linearGradient gradientTransform="matrix(1,0,0,-1,-128.66591,686.35593)" id="linearGradient3063" y1="-179.2529" x1="226" y2="-258.498" gradientUnits="userSpaceOnUse" x2="226">
   <stop offset="0" style="stop-color:#FFFFFF" id="stop2998"/>
   <stop offset="1" style="stop-color:#FFFFFF;stop-opacity:0" id="stop3000"/>
  </linearGradient>
  <linearGradient gradientTransform="translate(49.334089,857.35593)" id="linearGradient3066" y1="106.61698" x1="-1.748708" y2="186.52246" gradientUnits="userSpaceOnUse" x2="-1.748708">
   <stop offset="0" style="stop-color:#e7dc25;stop-opacity:1;" id="stop3003"/>
   <stop offset="1" style="stop-color:#bdb41f;stop-opacity:1;" id="stop3005"/>
  </linearGradient>
  <linearGradient gradientTransform="matrix(0.26084457,-0.03402729,0.0340273,0.26084456,93.113556,968.49876)" id="linearGradient3079" y1="36.62862" x1="-259.82175" y2="94.836052" gradientUnits="userSpaceOnUse" x2="-229.6599">
   <stop offset="0" stop-color="#FFF" id="stop3008"/>
   <stop offset="1" stop-color="#FFF" id="stop3010" stop-opacity="0"/>
  </linearGradient>
  <linearGradient gradientTransform="matrix(0.26084457,-0.03402729,0.0340273,0.26084456,93.113556,12.13658)" id="linearGradient3021" y1="36.62862" x1="-259.82175" y2="94.836052" gradientUnits="userSpaceOnUse" x2="-229.6599">
   <stop offset="0" stop-color="#FFF" id="stop3013"/>
   <stop offset="1" stop-color="#FFF" id="stop3015" stop-opacity="0"/>
  </linearGradient>
  <linearGradient gradientTransform="matrix(1,0,0,-1,-128.66591,-270.00625)" id="linearGradient3026" y1="-179.2529" x1="226" y2="-258.498" gradientUnits="userSpaceOnUse" x2="226">
   <stop offset="0" style="stop-color:#FFFFFF" id="stop3018"/>
   <stop offset="1" style="stop-color:#FFFFFF;stop-opacity:0" id="stop3020"/>
  </linearGradient>
  <linearGradient gradientTransform="translate(49.334089,-99.00625)" id="linearGradient3029" y1="106.61698" x1="-1.748708" y2="186.52246" gradientUnits="userSpaceOnUse" x2="-1.748708">
   <stop offset="0" style="stop-color:#e3ec54;stop-opacity:1;" id="stop3023"/>
   <stop offset="1" style="stop-color:#b4bd1f;stop-opacity:1;" id="stop3025"/>
  </linearGradient>
 </defs>
 <path style="fill-opacity:0.4" id="path3071" d="m 88,49.00002 c 0,29.635 -10.363,40 -40,40 -29.635,0 -40,-10.365 -40,-40 0,-29.63302 10.365,-40 40,-40 29.637,0 40,10.367 40,40 z"/>
 <path style="fill:url(#linearGradient3029)" id="path3084" d="m 88,48.00002 c 0,29.635 -10.363,40 -40,40 -29.635,0 -40,-10.365 -40,-40 0,-29.63302 10.365,-40 40,-40 29.637,0 40,10.367 40,40 z"/>
 <path style="fill:url(#linearGradient3026);fill-opacity:0.25" id="path3091" d="M 48,8 C 18.365,8 8,18.367 8,48.00002 c 0,29.635 10.365,40 40,40 29.637,0 40,-10.365 40,-40 C 88,18.36698 77.637,8 48,8 z m 0,79.00002 c -29.158,0 -39,-9.842 -39,-39 C 9,18.84198 18.842,9 48,9 c 29.158,0 39,9.842 39,39.00002 0,29.158 -9.842,39 -39,39 z"/>
 <path style="fill:#a16121;fill-rule:evenodd;stroke:none" id="path3789" d="m 44.863917,22.28956 c -0.0968,-2.97778 0.542133,-5.13011 1.471502,-6.12572 l 3.485139,1.05535 c -1.316607,1.37032 -1.723206,3.78874 -1.45214,6.50404 0.42596,4.33904 1.23916,6.46422 2.245978,10.12082 l -4.550043,-2.7153 c -0.406599,-2.14327 -1.064902,-4.55084 -1.200436,-8.83919 z" stroke-miterlimit="4"/>
 <path style="fill:#ff3921;fill-rule:evenodd;stroke:none;fill-opacity:1" id="path3791" d="m 40.214287,27.80182 c -4.792736,-0.0258 -5.468223,-0.1079 -9.971465,2.20631 -8.152477,4.18718 -8.330998,16.82919 -6.309364,23.39989 3.176394,10.3552 7.735986,18.5409 12.656911,20.4159 4.920923,1.875 9.252971,-0.1887 12.29266,-0.4463 3.039689,-0.2577 6.330031,1.5518 10.989581,-0.2347 4.65955,-1.7864 8.583441,-8.8966 12.330782,-21.8607 3.200519,-11.03161 2.685863,-13.43119 -2.492866,-19.48648 -5.178729,-6.03919 -12.689494,-5.96511 -17.128405,-4.83136 -7.124773,1.80371 -3.490013,1.40109 -12.367834,0.83744 z" stroke-miterlimit="4"/>
 <path style="opacity:0.57964597;fill:url(#linearGradient3021);fill-rule:evenodd" id="path3793" d="M 25.55945,42.40861 C 25.445261,33.18072 33.781084,30.52348 36.064871,30.57179 59.867724,31.05493 25.856986,66.50092 25.55945,42.40861 z"/>
 <path style="fill:#fbf3d3;fill-opacity:1;stroke-width:0;stroke-miterlimit:4" id="path3795" d="m 40.342951,37.25517 c -0.289494,0 -1.077561,0.93406 -2.364202,2.80218 -0.96498,1.38499 -1.785214,2.57672 -2.412451,3.63967 -0.514657,0.097 -0.739819,0.322 -0.739819,0.7408 0,0.161 0.01608,0.3221 0.0965,0.4509 -0.852399,1.5782 -1.28664,2.5284 -1.318806,2.77 0,0.2093 0.0965,0.3704 0.257328,0.5153 0.16083,0.1611 0.353826,0.2416 0.546822,0.2416 0.289494,0.016 0.48249,-0.08 0.659403,-0.3543 0.675487,-1.2562 1.045396,-1.9004 1.33489,-2.5606 l 2.187289,-0.3543 c 0.8524,-0.145 1.463554,-0.2416 1.994294,-0.2899 0.144747,1.1434 0.353826,1.6426 0.466407,2.1097 0.289494,1.2078 0.675486,1.8359 1.157976,1.852 0.402076,-0.048 0.836317,-0.2577 0.804151,-0.7086 0.01608,-0.1288 -0.01608,-0.4348 -0.144747,-0.8535 L 42.449828,46.04822 41.50093,40.71764 41.147104,38.15702 C 41.01844,37.59336 40.761112,37.28738 40.342953,37.25517 z m -0.498573,2.75387 0.289494,1.22394 0.144747,2.06138 c -1.65655,0.16104 -2.251621,0.30599 -2.878858,0.45096 l 1.238391,-2.22246 z" stroke-miterlimit="4"/>
 <path style="fill:#fbf3d3;fill-opacity:1" id="path3797" d="m 50.105338,46.32202 c -0.981064,0.4509 -2.235538,0.7247 -3.779507,0.8213 -0.192996,0.016 -0.385992,-0.064 -0.562906,-0.2254 -0.176913,-0.1772 -0.273411,-0.3543 -0.289494,-0.5476 l -0.112581,-1.9325 c -0.04825,-0.6281 -0.06433,-1.52997 -0.04825,-2.7056 0,-1.27225 0,-2.19021 -0.03217,-2.75387 -0.03217,-0.41872 -0.04825,-1.01458 -0.04825,-1.83592 0.01608,-0.20935 0.08042,-0.3704 0.192996,-0.45092 0.595072,-0.22546 1.270558,-0.3543 2.026459,-0.40261 0.788068,-0.0483 1.543969,0.17715 2.299871,0.66028 0.868482,0.54755 1.318806,1.28836 1.383138,2.17411 0.06433,1.14342 -0.32166,2.06138 -1.157976,2.78608 1.174059,0.32209 1.801297,0.74081 2.106874,1.93255 0.03217,0.5475 -0.225162,1.079 -0.771984,1.6104 -0.36991,0.3866 -0.788068,0.6764 -1.206226,0.8697 z m -2.557199,-8.68035 c -0.48249,0.0322 -0.820233,0.0644 -1.013229,0.11274 l 0.06433,1.15952 0.01608,2.57672 c 0.64332,0.0161 0.981063,0.0161 1.013229,0.0161 0.675487,-0.0966 1.206226,-0.3382 1.608301,-0.7247 0.418159,-0.43483 0.627238,-0.95017 0.578989,-1.56214 -0.01608,-0.43482 -0.273411,-0.80523 -0.771985,-1.12732 -0.48249,-0.33819 -0.981063,-0.48313 -1.49572,-0.45093 z m 1.077562,5.26618 -0.707652,-0.0644 c -0.06433,0 -0.144747,0.0161 -0.273412,0.0322 -0.112581,0.0161 -0.209079,0.0161 -0.257328,0.0161 -0.241245,0.0161 -0.498573,0.0161 -0.771984,0 0.01608,0.54755 0.03217,1.04677 0.04825,1.49767 l 0.0965,1.3689 c 1.157977,-0.1127 2.090791,-0.3382 2.798444,-0.6764 0.305577,-0.1288 0.578988,-0.3382 0.852399,-0.6119 0.257328,-0.2416 0.369909,-0.4187 0.369909,-0.5476 -0.01608,-0.1932 -0.305577,-0.4187 -0.900648,-0.64416 -0.434242,-0.17715 -0.8524,-0.28989 -1.254475,-0.37041 z"/>
 <path style="fill:#fbf3d3;fill-opacity:1" id="path3799" d="m 61.540357,39.34875 c -0.337743,-0.0322 -0.578988,-0.24156 -0.707652,-0.64418 -0.128664,-0.3543 -0.241245,-0.56366 -0.369909,-0.64418 -0.112581,-0.0644 -0.36991,-0.11273 -0.804151,-0.14494 -0.771984,-0.0644 -1.65655,0.46703 -2.669779,1.56214 -1.367056,1.46551 -2.106874,2.89881 -2.203373,4.29993 -0.04825,0.6764 0.128665,1.2722 0.53074,1.7876 0.402075,0.5475 0.916731,0.8374 1.543969,0.8857 0.546822,0.032 1.093644,-0.064 1.65655,-0.306 0.32166,-0.1288 0.80415,-0.4026 1.479636,-0.8213 0.305578,-0.1932 0.546823,-0.2899 0.69157,-0.2899 0.225162,0.016 0.402075,0.1289 0.546822,0.306 0.144747,0.1772 0.209079,0.3704 0.192996,0.5798 -0.01608,0.2415 -0.144747,0.4348 -0.353826,0.6119 -1.463554,1.1113 -2.911025,1.6266 -4.326329,1.53 -1.077562,-0.081 -1.962128,-0.5637 -2.653697,-1.4494 -0.659403,-0.8697 -0.96498,-1.852 -0.884565,-2.9472 0.128664,-1.77145 1.013229,-3.54295 2.637613,-5.29834 1.350973,-1.48162 2.653697,-2.15801 3.924254,-2.06138 0.257328,0.0161 0.482491,0.0322 0.69157,0.0805 0.192996,0.0322 0.369909,0.0805 0.530739,0.14494 0.209079,-0.24156 0.450324,-0.3704 0.739818,-0.33819 0.36991,0.0161 0.578989,0.27378 0.643321,0.75691 0.04825,0.43482 0.04825,0.96627 0,1.57824 -0.01608,0.20936 -0.08042,0.40262 -0.209079,0.54756 -0.16083,0.20936 -0.36991,0.28988 -0.627238,0.27377 z"/>
 <path style="fill:#fbf3d3;fill-opacity:1" id="path3801" d="m 40.92194,63.61822 -1.415305,0.1289 -1.415305,0.1288 c -0.337743,0.032 -0.562905,0.032 -0.707652,0 -0.241245,-0.048 -0.385992,-0.2255 -0.418158,-0.4992 -0.04825,-0.4832 0.305577,-0.7569 1.061478,-0.8214 l 0.337743,-0.032 0.289494,-0.016 c -0.01608,-0.2254 -0.08042,-0.5636 -0.16083,-0.9985 -0.08042,-0.4509 -0.128664,-0.7891 -0.16083,-0.9984 -0.04825,-0.612 -0.08041,-1.53 -0.0965,-2.77 -0.01608,-1.224 -0.04825,-2.158 -0.112581,-2.77 -0.595071,0.5476 -0.981063,0.8374 -1.141893,0.8536 -0.192997,0.016 -0.36991,-0.032 -0.514657,-0.1611 -0.16083,-0.1288 -0.241245,-0.2899 -0.257328,-0.4831 -0.03217,-0.2255 0.144747,-0.5154 0.530739,-0.8697 0.241246,-0.2093 0.562906,-0.5314 0.997147,-0.9662 0.385992,-0.4671 0.755901,-0.7247 1.141894,-0.757 0.305577,-0.032 0.48249,0.145 0.530739,0.4993 v 0.4992 c -0.01608,0.2094 0,0.3865 0,0.4832 0.01608,0.161 0.04825,0.4026 0.0965,0.7247 0.04825,0.3059 0.08041,0.5475 0.0965,0.7086 0.04825,0.5314 0.06433,1.3527 0.06433,2.4317 -0.01608,1.079 0,1.9004 0.06433,2.4318 0.01608,0.2738 0.08042,0.612 0.144747,0.9985 0.08041,0.3865 0.128664,0.7086 0.16083,0.9663 l 0.739819,-0.081 c 0.209079,-0.032 0.369909,0.032 0.514656,0.1449 0.144747,0.1127 0.225162,0.2738 0.241245,0.467 0.03217,0.1933 -0.01608,0.3704 -0.144747,0.5154 -0.112581,0.1288 -0.273411,0.2093 -0.466407,0.2415 z"/>
 <path style="fill:#fbf3d3;fill-opacity:1" id="path3803" d="m 49.108191,63.98862 c -0.128664,-0.032 -0.305577,-0.081 -0.530739,-0.1932 -0.209079,-0.1127 -0.385992,-0.1772 -0.498573,-0.1933 -0.273411,-0.032 -0.659404,-0.081 -1.17406,-0.1127 -0.530739,-0.032 -0.916731,-0.08 -1.190143,-0.1127 -0.192996,-0.032 -0.48249,-0.032 -0.884565,-0.048 -0.402075,0 -0.691569,-0.016 -0.884566,-0.032 -0.06433,-0.016 -0.144747,-0.032 -0.241245,-0.064 -0.112581,-0.032 -0.192996,-0.064 -0.241245,-0.064 -0.353826,-0.048 -0.562905,-0.2416 -0.611154,-0.612 -0.04825,-0.1771 -0.03217,-0.4831 0.01608,-0.9179 0.16083,-1.1918 0.611154,-2.0936 1.367056,-2.7378 0.337743,-0.2899 1.206225,-0.7891 2.62153,-1.4977 0.788067,-0.4026 1.33489,-0.7247 1.608301,-0.9824 0.514656,-0.4187 0.80415,-0.9663 0.884565,-1.6265 0.04825,-0.3221 -0.128664,-0.6442 -0.514656,-0.9502 -0.337743,-0.2738 -0.675486,-0.4348 -1.045395,-0.4831 -0.466408,-0.064 -0.916732,0 -1.383139,0.2093 l -1.206226,0.7086 c -0.241245,0.145 -0.418158,0.2094 -0.562905,0.1933 -0.514656,-0.064 -0.755902,-0.306 -0.69157,-0.7247 0.03217,-0.2416 0.160831,-0.4349 0.36991,-0.5798 0.675486,-0.4831 1.238391,-0.8213 1.704799,-1.0146 0.675486,-0.2576 1.318806,-0.3543 1.97821,-0.2576 0.820233,0.097 1.527886,0.4348 2.106874,0.9662 0.659403,0.5959 0.932814,1.2884 0.820233,2.0775 -0.06433,0.5153 -0.209079,0.9824 -0.418158,1.4011 -0.192996,0.4187 -0.48249,0.7891 -0.820233,1.1112 -0.450325,0.4026 -1.157977,0.8374 -2.139041,1.2723 -1.045395,0.467 -1.736965,0.8374 -2.074708,1.1112 -0.64332,0.5153 -1.013229,1.1756 -1.109727,2.013 l 1.576135,0.065 c 1.093644,0.097 1.865629,0.161 2.332036,0.2254 0.385992,0.048 0.739818,0.1611 1.061478,0.3382 0.434242,0.2416 0.627238,0.5315 0.595072,0.8375 -0.03217,0.1932 -0.128664,0.3704 -0.273411,0.4992 -0.16083,0.1449 -0.353827,0.1932 -0.546823,0.1771 z"/>
 <path style="fill:#fbf3d3;fill-opacity:1" id="path3805" d="m 55.091071,62.94182 c -0.69157,0 -1.302724,-0.1449 -1.849546,-0.4348 -0.611155,-0.3382 -1.029313,-0.8052 -1.238392,-1.4011 -0.03217,-0.081 -0.04825,-0.161 -0.04825,-0.2415 0,-0.1772 0.06433,-0.3382 0.209079,-0.451 0.144747,-0.1288 0.305577,-0.1771 0.48249,-0.1771 0.176913,0 0.337743,0.081 0.466408,0.2416 l 0.32166,0.4831 c 0.16083,0.2094 0.385992,0.3865 0.659403,0.4992 0.273411,0.1128 0.611154,0.1611 0.997147,0.1611 0.498573,0 0.932814,-0.145 1.302723,-0.4671 0.402076,-0.322 0.595072,-0.7247 0.595072,-1.1917 0,-0.6925 -0.257328,-1.24 -0.755902,-1.6588 -0.450324,-0.3543 -1.045395,-0.5636 -1.769131,-0.6441 -0.514656,-0.048 -0.771984,-0.2577 -0.771984,-0.612 0,-0.2738 0.209079,-0.4831 0.595071,-0.6281 l 1.640467,-0.4026 c 0.305577,-0.1127 0.546822,-0.2577 0.707653,-0.4509 0.16083,-0.1933 0.241245,-0.4348 0.241245,-0.7086 0.01608,-0.4026 -0.144747,-0.7247 -0.466408,-0.9824 -0.32166,-0.2577 -0.788067,-0.3704 -1.399221,-0.3704 -0.305578,0 -0.611155,0.064 -0.900649,0.2255 l -0.771984,0.4831 c -0.144747,0.097 -0.273411,0.1449 -0.353827,0.1449 -0.192996,0 -0.337743,-0.08 -0.466407,-0.2093 -0.128664,-0.145 -0.192996,-0.306 -0.192996,-0.4832 0,-0.3543 0.337743,-0.7086 1.045396,-1.0306 0.595071,-0.306 1.093644,-0.451 1.49572,-0.451 0.96498,0 1.753048,0.2094 2.315953,0.6442 0.627237,0.467 0.932814,1.1273 0.932814,1.997 0,1.079 -0.434241,1.7715 -1.302723,2.1258 -0.08042,0.032 -0.16083,0.064 -0.257329,0.097 0.595072,0.2094 1.045396,0.5475 1.350973,0.9985 0.305577,0.4348 0.450324,0.9985 0.450324,1.6587 0,0.9019 -0.32166,1.6588 -0.948897,2.2869 -0.627237,0.6281 -1.399222,0.9501 -2.315953,0.9501 z"/>
</svg>
