<svg xmlns:rdf="http://www.w3.org/1999/02/22-rdf-syntax-ns#" xmlns="http://www.w3.org/2000/svg" height="44" width="44" version="1.1" xmlns:cc="http://creativecommons.org/ns#" xmlns:dc="http://purl.org/dc/elements/1.1/" viewBox="0 0 44 44">
<metadata>
<rdf:RDF>
<cc:Work rdf:about="">
<dc:format>image/svg+xml</dc:format>
<dc:type rdf:resource="http://purl.org/dc/dcmitype/StillImage"/>
<dc:title/>
</cc:Work>
</rdf:RDF>
</metadata>
<defs>
<linearGradient id="linearGradient3097" x1="2.53" gradientUnits="userSpaceOnUse" x2="23.26" gradientTransform="matrix(0.26084456,-0.0340273,0.0340273,0.26084456,7.2125268,12.233103)" y1="3.539" y2="19.38">
<stop stop-color="#FFF" offset="0"/>
<stop stop-color="#FFF" stop-opacity="0" offset="1"/>
</linearGradient>
</defs>
<path stroke-linejoin="miter" d="M19.12,6.137c-0.05-1.645,0.28-2.834,0.76-3.384l1.8,0.583c-0.68,0.757-0.89,2.093-0.75,3.593,0.22,2.397,0.64,3.571,1.16,5.591l-2.35-1.5c-0.21-1.184-0.55-2.514-0.62-4.883z" fill-rule="evenodd" stroke="#282828" stroke-linecap="butt" stroke-dasharray="none" stroke-miterlimit="4" stroke-width="1" fill="#a16121"/>
<path stroke-linejoin="miter" d="M16.23,10.01c-2.98-0.016-3.4-0.067-6.2,1.37-5.069,2.6-5.18,10.45-3.923,14.53,1.975,6.43,1.441,10.38,8.173,12.98,2.42,0.94,5.45-0.42,7.34-0.58s3.26,1.26,5.62,0.46c7.68-2.63,6.55-6.13,8.88-14.18,1.99-6.85,1.67-8.34-1.55-12.1-3.22-3.75-7.89-3.704-10.65-3-4.43,1.12-2.17,0.87-7.69,0.52z" fill-rule="evenodd" stroke="#282828" stroke-linecap="butt" stroke-dasharray="none" stroke-miterlimit="4" stroke-width="1" fill="#ff1e00"/>
<path opacity="0.57964597" fill="url(#linearGradient3097)" d="M7.118,19.08c-0.071-5.73,5.112-7.38,6.532-7.35,14.8,0.3-6.347,22.31-6.532,7.35z" fill-rule="evenodd"/>
<path d="M16.31,15.88c-0.18,0-0.67,0.58-1.47,1.74-0.6,0.86-1.11,1.6-1.5,2.26-0.32,0.06-0.46,0.2-0.46,0.46,0,0.1,0.01,0.2,0.06,0.28-0.53,0.98-0.8,1.57-0.82,1.72,0,0.13,0.06,0.23,0.16,0.32,0.1,0.1,0.22,0.15,0.34,0.15,0.18,0.01,0.3-0.05,0.41-0.22,0.42-0.78,0.65-1.18,0.83-1.59l1.36-0.22c0.53-0.09,0.91-0.15,1.24-0.18,0.09,0.71,0.22,1.02,0.29,1.31,0.18,0.75,0.42,1.14,0.72,1.15,0.25-0.03,0.52-0.16,0.5-0.44,0.01-0.08-0.01-0.27-0.09-0.53l-0.26-0.75-0.59-3.31-0.22-1.59c-0.08-0.35-0.24-0.54-0.5-0.56zm-0.31,1.71,0.18,0.76,0.09,1.28c-1.03,0.1-1.4,0.19-1.79,0.28l0.77-1.38z" stroke-miterlimit="4" stroke-width="0" fill="#FFF"/>
<path d="M22.38,21.51c-0.61,0.28-1.39,0.45-2.35,0.51-0.12,0.01-0.24-0.04-0.35-0.14-0.11-0.11-0.17-0.22-0.18-0.34l-0.07-1.2c-0.03-0.39-0.04-0.95-0.03-1.68,0-0.79,0-1.36-0.02-1.71-0.02-0.26-0.03-0.63-0.03-1.14,0.01-0.13,0.05-0.23,0.12-0.28,0.37-0.14,0.79-0.22,1.26-0.25,0.49-0.03,0.96,0.11,1.43,0.41,0.54,0.34,0.82,0.8,0.86,1.35,0.04,0.71-0.2,1.28-0.72,1.73,0.73,0.2,1.12,0.46,1.31,1.2,0.02,0.34-0.14,0.67-0.48,1-0.23,0.24-0.49,0.42-0.75,0.54zm-1.59-5.39c-0.3,0.02-0.51,0.04-0.63,0.07l0.04,0.72,0.01,1.6c0.4,0.01,0.61,0.01,0.63,0.01,0.42-0.06,0.75-0.21,1-0.45,0.26-0.27,0.39-0.59,0.36-0.97-0.01-0.27-0.17-0.5-0.48-0.7-0.3-0.21-0.61-0.3-0.93-0.28zm0.67,3.27-0.44-0.04c-0.04,0-0.09,0.01-0.17,0.02-0.07,0.01-0.13,0.01-0.16,0.01-0.15,0.01-0.31,0.01-0.48,0,0.01,0.34,0.02,0.65,0.03,0.93l0.06,0.85c0.72-0.07,1.3-0.21,1.74-0.42,0.19-0.08,0.36-0.21,0.53-0.38,0.16-0.15,0.23-0.26,0.23-0.34-0.01-0.12-0.19-0.26-0.56-0.4-0.27-0.11-0.53-0.18-0.78-0.23z" fill="#FFF"/>
<path d="M29.49,17.18c-0.21-0.02-0.36-0.15-0.44-0.4-0.08-0.22-0.15-0.35-0.23-0.4-0.07-0.04-0.23-0.07-0.5-0.09-0.48-0.04-1.03,0.29-1.66,0.97-0.85,0.91-1.31,1.8-1.37,2.67-0.03,0.42,0.08,0.79,0.33,1.11,0.25,0.34,0.57,0.52,0.96,0.55,0.34,0.02,0.68-0.04,1.03-0.19,0.2-0.08,0.5-0.25,0.92-0.51,0.19-0.12,0.34-0.18,0.43-0.18,0.14,0.01,0.25,0.08,0.34,0.19s0.13,0.23,0.12,0.36c-0.01,0.15-0.09,0.27-0.22,0.38-0.91,0.69-1.81,1.01-2.69,0.95-0.67-0.05-1.22-0.35-1.65-0.9-0.41-0.54-0.6-1.15-0.55-1.83,0.08-1.1,0.63-2.2,1.64-3.29,0.84-0.92,1.65-1.34,2.44-1.28,0.16,0.01,0.3,0.02,0.43,0.05,0.12,0.02,0.23,0.05,0.33,0.09,0.13-0.15,0.28-0.23,0.46-0.21,0.23,0.01,0.36,0.17,0.4,0.47,0.03,0.27,0.03,0.6,0,0.98-0.01,0.13-0.05,0.25-0.13,0.34-0.1,0.13-0.23,0.18-0.39,0.17z" fill="#FFF"/>
<path d="M16.67,32.25,15.79,32.33,14.91,32.41c-0.21,0.02-0.35,0.02-0.44,0-0.15-0.03-0.24-0.14-0.26-0.31-0.03-0.3,0.19-0.47,0.66-0.51l0.21-0.02,0.18-0.01c-0.01-0.14-0.05-0.35-0.1-0.62-0.05-0.28-0.08-0.49-0.1-0.62-0.03-0.38-0.05-0.95-0.06-1.72-0.01-0.76-0.03-1.34-0.07-1.72-0.37,0.34-0.61,0.52-0.71,0.53-0.12,0.01-0.23-0.02-0.32-0.1-0.1-0.08-0.15-0.18-0.16-0.3-0.02-0.14,0.09-0.32,0.33-0.54,0.15-0.13,0.35-0.33,0.62-0.6,0.24-0.29,0.47-0.45,0.71-0.47,0.19-0.02,0.3,0.09,0.33,0.31v0.31c-0.01,0.13,0,0.24,0,0.3,0.01,0.1,0.03,0.25,0.06,0.45,0.03,0.19,0.05,0.34,0.06,0.44,0.03,0.33,0.04,0.84,0.04,1.51-0.01,0.67,0,1.18,0.04,1.51,0.01,0.17,0.05,0.38,0.09,0.62,0.05,0.24,0.08,0.44,0.1,0.6l0.46-0.05c0.13-0.02,0.23,0.02,0.32,0.09s0.14,0.17,0.15,0.29c0.02,0.12-0.01,0.23-0.09,0.32-0.07,0.08-0.17,0.13-0.29,0.15z" fill="#FFF"/>
<path d="M21.76,32.48c-0.08-0.02-0.19-0.05-0.33-0.12-0.13-0.07-0.24-0.11-0.31-0.12-0.17-0.02-0.41-0.05-0.73-0.07-0.33-0.02-0.57-0.05-0.74-0.07-0.12-0.02-0.3-0.02-0.55-0.03-0.25,0-0.43-0.01-0.55-0.02-0.04-0.01-0.09-0.02-0.15-0.04-0.07-0.02-0.12-0.04-0.15-0.04-0.22-0.03-0.35-0.15-0.38-0.38-0.03-0.11-0.02-0.3,0.01-0.57,0.1-0.74,0.38-1.3,0.85-1.7,0.21-0.18,0.75-0.49,1.63-0.93,0.49-0.25,0.83-0.45,1-0.61,0.32-0.26,0.5-0.6,0.55-1.01,0.03-0.2-0.08-0.4-0.32-0.59-0.21-0.17-0.42-0.27-0.65-0.3-0.29-0.04-0.57,0-0.86,0.13l-0.75,0.44c-0.15,0.09-0.26,0.13-0.35,0.12-0.32-0.04-0.47-0.19-0.43-0.45,0.02-0.15,0.1-0.27,0.23-0.36,0.42-0.3,0.77-0.51,1.06-0.63,0.42-0.16,0.82-0.22,1.23-0.16,0.51,0.06,0.95,0.27,1.31,0.6,0.41,0.37,0.58,0.8,0.51,1.29-0.04,0.32-0.13,0.61-0.26,0.87-0.12,0.26-0.3,0.49-0.51,0.69-0.28,0.25-0.72,0.52-1.33,0.79-0.65,0.29-1.08,0.52-1.29,0.69-0.4,0.32-0.63,0.73-0.69,1.25l0.98,0.04c0.68,0.06,1.16,0.1,1.45,0.14,0.24,0.03,0.46,0.1,0.66,0.21,0.27,0.15,0.39,0.33,0.37,0.52-0.02,0.12-0.08,0.23-0.17,0.31-0.1,0.09-0.22,0.12-0.34,0.11z" fill="#FFF"/>
<path d="M25.48,31.83c-0.43,0-0.81-0.09-1.15-0.27-0.38-0.21-0.64-0.5-0.77-0.87-0.02-0.05-0.03-0.1-0.03-0.15,0-0.11,0.04-0.21,0.13-0.28,0.09-0.08,0.19-0.11,0.3-0.11s0.21,0.05,0.29,0.15l0.2,0.3c0.1,0.13,0.24,0.24,0.41,0.31s0.38,0.1,0.62,0.1c0.31,0,0.58-0.09,0.81-0.29,0.25-0.2,0.37-0.45,0.37-0.74,0-0.43-0.16-0.77-0.47-1.03-0.28-0.22-0.65-0.35-1.1-0.4-0.32-0.03-0.48-0.16-0.48-0.38,0-0.17,0.13-0.3,0.37-0.39l1.02-0.25c0.19-0.07,0.34-0.16,0.44-0.28s0.15-0.27,0.15-0.44c0.01-0.25-0.09-0.45-0.29-0.61s-0.49-0.23-0.87-0.23c-0.19,0-0.38,0.04-0.56,0.14l-0.48,0.3c-0.09,0.06-0.17,0.09-0.22,0.09-0.12,0-0.21-0.05-0.29-0.13-0.08-0.09-0.12-0.19-0.12-0.3,0-0.22,0.21-0.44,0.65-0.64,0.37-0.19,0.68-0.28,0.93-0.28,0.6,0,1.09,0.13,1.44,0.4,0.39,0.29,0.58,0.7,0.58,1.24,0,0.67-0.27,1.1-0.81,1.32-0.05,0.02-0.1,0.04-0.16,0.06,0.37,0.13,0.65,0.34,0.84,0.62,0.19,0.27,0.28,0.62,0.28,1.03,0,0.56-0.2,1.03-0.59,1.42s-0.87,0.59-1.44,0.59z" fill="#FFF"/>
</svg>
