<?xml version="1.0"?>
<!-- Converted with SVG Converter - Version 0.9.5 (Compiled Mon May 30 09:08:51 2011) - Copyright (C) 2011 Nokia -->
<svg xmlns="http://www.w3.org/2000/svg" width="96" version="1.1" height="96" baseProfile="tiny" xmlns:xlink="http://www.w3.org/1999/xlink" id="svg2">
 <metadata id="metadata25"/>
 <defs id="defs4">
  <linearGradient gradientTransform="matrix(0.26084457,-0.03402729,0.0340273,0.26084456,93.113556,12.13658)" id="linearGradient3021" y1="36.63" y2="94.84" x1="-259.8" gradientUnits="userSpaceOnUse" x2="-229.7">
   <stop offset="0" stop-color="#FFF" id="stop3013"/>
   <stop offset="1" stop-color="#FFF" id="stop3015" stop-opacity="0"/>
  </linearGradient>
  <linearGradient gradientTransform="matrix(1,0,0,-1,-128.66591,-270.00625)" id="linearGradient3026" y1="-278.3" y2="-358.2" x1="178.4" gradientUnits="userSpaceOnUse" x2="178.6">
   <stop offset="0" stop-color="#FFF" id="stop3018"/>
   <stop offset="1" stop-color="#FFF" id="stop3020" stop-opacity="0"/>
  </linearGradient>
  <linearGradient gradientTransform="translate(49.334089,-99.00625)" id="linearGradient3029" y1="106.6" y2="186.5" x1="-1.749" gradientUnits="userSpaceOnUse" x2="-1.749">
   <stop offset="0" stop-color="#e4ed5b" id="stop3023" stop-opacity="1"/>
   <stop offset="1" stop-color="#a3ab1c" id="stop3025" stop-opacity="1"/>
  </linearGradient>
 </defs>
 <rect width="96" x="0" y="0" height="96" style="fill:none;stroke:none" id="rect3003"/>
 <path fill-opacity="0.4" id="path3071" d="m88,49c0,29.64-10.36,40-40,40s-40-10.36-40-40c0-29.63,10.36-40,40-40s40,10.37,40,40z"/>
 <path fill="url(#linearGradient3029)" id="path3084" d="m88,48c0,29.64-10.36,40-40,40s-40-10.36-40-40c0-29.63,10.36-40,40-40s40,10.37,40,40z"/>
 <path fill="url(#linearGradient3026)" fill-opacity="0.25000000000000000" id="path3091" d="M48,8c-29.64,0-40,10.37-40,40,0,29.64,10.36,40,40,40s40-10.36,40-40c0-29.63-10.36-40-40-40zm0,79c-29.16,0-39-9.842-39-39s9.84-39,39-39,39,9.842,39,39-9.842,39-39,39z"/>
 <path fill="#a16121" fill-rule="evenodd" id="path3789" d="m44.86,22.29c-0.0968-2.978,0.5421-5.13,1.472-6.126l3.485,1.055c-1.317,1.37-1.723,3.789-1.452,6.504,0.426,4.339,1.239,6.464,2.246,10.12l-4.55-2.715c-0.4066-2.143-1.065-4.551-1.2-8.839z" stroke-miterlimit="4"/>
 <path fill="#ff3921" fill-rule="evenodd" id="path3791" d="m40.21,27.8c-4.793-0.0258-5.468-0.1079-9.971,2.206-8.152,4.187-8.331,16.83-6.309,23.4,3.176,10.36,7.736,18.54,12.66,20.42,4.921,1.875,9.253-0.1887,12.29-0.4463,3.04-0.2577,6.33,1.552,10.99-0.2347,4.66-1.786,8.583-8.897,12.33-21.86,3.201-11.03,2.686-13.43-2.493-19.49-5.179-6.039-12.69-5.965-17.13-4.831-7.125,1.804-3.49,1.401-12.37,0.8374z" stroke-miterlimit="4"/>
 <path stroke-opacity="0.57964597" fill="url(#linearGradient3021)" fill-rule="evenodd" fill-opacity="0.57964597" id="path3793" d="M25.56,42.41c-0.11-9.23,8.22-11.89,10.5-11.84,23.81,0.48-10.2,35.93-10.5,11.84z"/>
 <path fill="#fbf3d3" id="path3005" stroke-width="0" d="m40.34,36.94c-0.5425,0.075-0.837,0.6447-1.19,1.005-1.101,1.416-2.096,2.912-3.101,4.397-0.3668,0.5524-0.6053,1.183-1.271,1.379-0.5603,0.4542,0.05704,1.118-0.4026,1.583-0.3787,0.7325-0.8126,1.446-1.08,2.229-0.06704,0.5625,0.4688,1.073,0.987,1.181,0.4551,0.08573,0.9097-0.1788,1.086-0.6027,0.4159-0.787,0.8799-1.55,1.253-2.359,1.24-0.189,2.476-0.3988,3.719-0.5625,0.1557,0.9408,0.4307,1.859,0.7088,2.769,0.1913,0.5475,0.6185,1.233,1.286,1.156,0.595-0.04473,1.07-0.5972,0.9762-1.194-0.03825-0.7243-0.4513-1.353-0.6123-2.043-0.307-1.729-0.614-3.459-0.9209-5.188,0.05542-0.1264-0.04089-0.3855-0.04432-0.5633-0.11-0.68-0.2-1.35-0.29-2.02-0.13-0.54-0.48-1.17-1.12-1.18l-0.0013,0.000063zm-0.625,3.75c0.04167,0.1875,0.08333,0.375,0.125,0.5625-0.06329,0.1272,0.01689,0.3879,0.0092,0.5669,0.02817,0.3944,0.05634,0.7887,0.0845,1.183-0.6608,0.07159-1.319,0.1689-1.969,0.3125,0.3318-0.5705,0.6494-1.166,0.9877-1.722,0.2541-0.3012,0.5082-0.6023,0.7623-0.9035z" stroke-miterlimit="4"/>
 <path fill="#fbf3d3" id="path3007" d="m47.41,35.97c-0.7379,0.04146-1.467,0.2051-2.156,0.4688-0.4898,0.3675-0.3144,1.031-0.3326,1.554,0.09938,1.516,0.08611,3.036,0.07882,4.555,0.006,1.288,0.1111,2.573,0.16,3.859,0.0695,0.5559,0.5821,1.008,1.129,1.065,1.531-0.09945,3.105-0.3676,4.443-1.157,0.7416-0.5133,1.499-1.206,1.662-2.137,0.07927-0.3695-0.1174-0.7079-0.2386-1.052-0.2631-0.6811-0.8964-1.12-1.576-1.318,0.06957-0.3152,0.6102-0.8457,0.6913-1.335,0.3711-1.093,0.1784-2.406-0.6692-3.23-0.8361-0.8121-2.012-1.342-3.191-1.274zm0.1875,2c0.6117-0.05951,1.181,0.2599,1.624,0.6431,0.4029,0.385,0.3412,1.041,0.1345,1.509-0.4029,0.7857-1.357,1.119-2.193,1.083-0.3155,0.07985-0.2059-0.2328-0.2273-0.4286-0.01-0.92-0.01-1.85-0.05-2.77,0.239-0.02113,0.4796-0.01192,0.7188-0.03125zm0.2812,5.188c0.2398,0.01504,0.4791,0.04271,0.7188,0.0625,0.3457-0.01601,0.8101,0.2368,1.186,0.3438,0.3279,0.1338,1.013,0.3741,0.4075,0.6874-0.6874,0.7531-1.751,0.9277-2.707,1.096-0.3589,0.1415-0.525,0.03776-0.4726-0.3235-0.04315-0.6003-0.05815-1.202-0.07048-1.804,0.3143,0.01155,0.6289,0.0044,0.9375-0.0625z"/>
 <path fill="#fbf3d3" id="path3009" d="m61.72,35.88c-0.4971,0.0058-0.7762,0.531-1.282,0.1984-1.069-0.2375-2.198,0.03514-3.095,0.6456-0.8249,0.5376-1.515,1.25-2.161,1.971-1.339,1.572-2.412,3.565-2.273,5.688,0.1242,1.888,1.563,3.705,3.491,3.961,1.754,0.2512,3.485-0.5073,4.851-1.558,0.4939-0.3679,0.7032-1.138,0.2188-1.625-0.3573-0.5498-1.103-0.5325-1.564-0.132-0.882,0.5445-1.813,1.193-2.903,1.105-1.216,0.0094-2.081-1.303-1.897-2.44,0.192-1.766,1.335-3.251,2.564-4.458,0.5989-0.5562,1.363-1.167,2.239-0.9856,0.7063-0.08921,0.5675,0.8349,0.9991,1.16,0.4792,0.4578,1.312,0.2341,1.582-0.3339,0.3538-0.5574,0.2049-1.268,0.2223-1.895,0.0071-0.5897-0.3252-1.284-0.992-1.302z"/>
 <path fill="#fbf3d3" id="path3011" d="m38.84,52.28c-0.5487,0.04817-0.9467,0.478-1.281,0.875-0.3363,0.2535-0.6224,0.6222-0.9572,0.8999-0.3783,0.3307-0.8618,0.7924-0.6615,1.349,0.1846,0.5699,0.9699,0.9666,1.474,0.5432,0.2099-0.1286,0.5097-0.5102,0.4449-0.0491,0.1143,1.542,0.05009,3.091,0.1682,4.632,0.1242,0.377,0.1383,0.8924,0.2339,1.318,0.1868,0.3976-0.1063,0.4113-0.4138,0.4167-0.54,0.03687-1.141,0.3692-1.194,0.9605-0.05171,0.4172,0.2058,0.8867,0.655,0.9301,0.6486,0.1145,1.303-0.03586,1.953-0.07015,0.5676-0.05044,1.135-0.09898,1.703-0.1486,0.4913-0.1136,0.9393-0.5837,0.8438-1.125-0.0075-0.5606-0.6123-0.9051-1.062-0.875-0.1495-0.01933-0.4382,0.1456-0.4802-0.0161-0.2875-1.307-0.3336-2.65-0.301-3.984-0.01664-1.083,0.04281-2.18-0.1956-3.244-0.09494-0.5676-0.02699-1.144-0.06871-1.714-0.04-0.42-0.4-0.77-0.84-0.71z"/>
 <path fill="#fbf3d3" id="path3013" d="m46.97,51.59c-1.049,0.141-1.966,0.7072-2.812,1.312-0.4327,0.2963-0.6697,0.8698-0.4257,1.377,0.3377,0.5525,1.153,0.6485,1.64,0.2328,0.4905-0.2575,0.9392-0.6067,1.467-0.7833,0.61-0.1506,1.32-0.07664,1.819,0.33,0.4172,0.3012,0.4862,0.7527,0.2609,1.211-0.2287,0.7658-0.9602,1.153-1.601,1.533-1.176,0.659-2.469,1.164-3.474,2.084-0.9387,0.9247-1.393,2.294-1.299,3.597-0.02695,0.3953,0.349,0.9019,0.8136,0.968,0.3999,0.06535,0.7691,0.2107,1.186,0.1942,0.5061,0.02912,1.005-0.03565,1.493,0.08373,0.7423,0.1198,1.512,0.05668,2.241,0.236,0.3927,0.2023,0.8517,0.4872,1.292,0.2478,0.5333-0.2508,0.9123-0.9843,0.509-1.5-0.5908-0.7437-1.603-0.9285-2.5-0.9825-0.9301-0.09269-1.861-0.1633-2.796-0.1706,0.1432-0.8305,0.7177-1.539,1.485-1.878,1.217-0.6474,2.575-1.081,3.609-2.028,0.4131-0.3132,0.724-0.7954,0.9472-1.271,0.4335-0.9028,0.6868-2.047,0.1109-2.949-0.6322-0.9967-1.725-1.706-2.902-1.843-0.2827,0.02639-0.724-0.06892-1.062,0z"/>
 <path fill="#fbf3d3" id="path3015" d="m54.88,51.88c-0.825,0.02248-1.597,0.4039-2.277,0.8421-0.408,0.2806-0.7765,0.8233-0.5026,1.318,0.1811,0.4459,0.7145,0.7688,1.188,0.552,0.4656-0.22,0.8446-0.6147,1.349-0.748,0.5925-0.04913,1.33-0.07653,1.756,0.4179,0.3173,0.4167,0.2169,1.12-0.2693,1.371-0.3454,0.1897-0.7559,0.2118-1.134,0.3199-0.4783,0.1312-1.027,0.1409-1.374,0.5499-0.4423,0.4109-0.203,1.178,0.3461,1.358,0.5142,0.1669,1.084,0.1389,1.573,0.4,0.7723,0.3097,1.295,1.158,1.132,1.988-0.1616,0.7422-0.9908,1.139-1.702,1.067-0.5468,0.01874-1.128-0.2024-1.392-0.7074-0.2107-0.3845-0.5919-0.7552-1.07-0.652-0.497,0.07451-0.9391,0.5361-0.8265,1.063,0.1885,0.8755,0.9274,1.55,1.733,1.873,1.37,0.6355,3.15,0.4502,4.219-0.6685,1.091-1.044,1.339-2.819,0.6515-4.148-0.1795-0.3334-0.4688-0.6194-0.7965-0.8469-0.2937-0.1211-0.252-0.2093,0.01249-0.3408,1.047-0.7852,1.198-2.371,0.6025-3.476-0.63-1.12-2-1.55-3.22-1.52z"/>
</svg>
