<?xml version="1.0" encoding="UTF-8" standalone="no"?>
<!-- Created with Inkscape (http://www.inkscape.org/) -->

<svg
   xmlns:dc="http://purl.org/dc/elements/1.1/"
   xmlns:cc="http://creativecommons.org/ns#"
   xmlns:rdf="http://www.w3.org/1999/02/22-rdf-syntax-ns#"
   xmlns:svg="http://www.w3.org/2000/svg"
   xmlns="http://www.w3.org/2000/svg"
   xmlns:xlink="http://www.w3.org/1999/xlink"
   xmlns:sodipodi="http://sodipodi.sourceforge.net/DTD/sodipodi-0.dtd"
   xmlns:inkscape="http://www.inkscape.org/namespaces/inkscape"
   width="744.09448819"
   height="1052.3622047"
   id="svg2"
   version="1.1"
   inkscape:version="0.48.0 r9654"
   sodipodi:docname="clocks.svg">
  <defs
     id="defs4" />
  <sodipodi:namedview
     id="base"
     pagecolor="#ffffff"
     bordercolor="#666666"
     borderopacity="1.0"
     inkscape:pageopacity="0.0"
     inkscape:pageshadow="2"
     inkscape:zoom="1.4"
     inkscape:cx="111.36488"
     inkscape:cy="892.84601"
     inkscape:document-units="px"
     inkscape:current-layer="layer1"
     showgrid="false"
     inkscape:window-width="1920"
     inkscape:window-height="1030"
     inkscape:window-x="-8"
     inkscape:window-y="-8"
     inkscape:window-maximized="1"
     showguides="true"
     inkscape:guide-bbox="true"
     inkscape:snap-from-guide="false"
     gridtolerance="10"
     guidetolerance="1">
    <sodipodi:guide
       orientation="0,1"
       position="-73.741136,953.33147"
       id="guide3790" />
    <sodipodi:guide
       orientation="1,0"
       position="100.76272,941.20964"
       id="guide3792" />
    <sodipodi:guide
       orientation="1,0"
       position="350,982.14286"
       id="guide3018" />
    <sodipodi:guide
       orientation="1,0"
       position="600,1105"
       id="guide3159" />
  </sodipodi:namedview>
  <metadata
     id="metadata7">
    <rdf:RDF>
      <cc:Work
         rdf:about="">
        <dc:format>image/svg+xml</dc:format>
        <dc:type
           rdf:resource="http://purl.org/dc/dcmitype/StillImage" />
        <dc:title></dc:title>
      </cc:Work>
    </rdf:RDF>
  </metadata>
  <g
     inkscape:label="Layer 1"
     inkscape:groupmode="layer"
     id="layer1">
    <g
       id="id_background_1">
      <rect
         style="fill:none;stroke:none"
         id="rect3066"
         width="182.72321"
         height="180.98216"
         x="9.8660707"
         y="8.6121836" />
      <path
         sodipodi:type="arc"
         style="fill:#9191af;fill-opacity:0.627451;fill-rule:evenodd;stroke:none"
         id="path3832"
         sodipodi:cx="100.0051"
         sodipodi:cy="97.894295"
         sodipodi:rx="82.579971"
         sodipodi:ry="82.201164"
         d="m 182.58507,97.894295 a 82.579971,82.201164 0 1 1 -165.159945,0 82.579971,82.201164 0 1 1 165.159945,0 z" />
      <path
         style="fill:#222222;fill-opacity:1;fill-rule:evenodd;stroke:none"
         d="M 100.28125 10.1875 C 75.571644 10.038996 50.828188 19.940656 33.4375 42.96875 C -14.953977 107.04693 23.957531 171.52232 77 185.09375 C 130.04247 198.66518 193.27567 162.367 190.21875 89.40625 C 188.26041 42.665769 144.32881 10.452224 100.28125 10.1875 z M 98.15625 33.28125 C 135.01488 33.125435 175.10857 65.847505 165.3125 111.09375 C 154.86336 159.35642 96.83161 185.73191 54.59375 141.46875 C 12.35588 97.20558 52.23907 38.69294 90.84375 33.75 C 93.256542 33.441066 95.699008 33.291638 98.15625 33.28125 z "
         id="path3765" />
      <path
         sodipodi:nodetypes="zzzzzzzz"
         inkscape:connector-curvature="0"
         id="path3767"
         d="M 100.94114,11.88912 C 45.369694,9.4452198 -15.319716,83.85067 28.075084,147.25519 71.469884,210.65971 165.28127,191.05791 183.41882,124.04091 201.55638,57.02391 156.51259,14.33302 100.94114,11.88912 z m 72.5759,89.38394 C 169.12381,165.06407 99.879134,193.19603 53.892034,153.4293 7.9049336,113.66257 30.334654,54.43918 67.490664,34.08522 104.64667,13.73126 177.91027,37.48204 173.51704,101.27306 z"
         style="fill:#4d4db1;fill-opacity:1;fill-rule:evenodd;stroke:none" />
      <path
         inkscape:tile-y0="33.556162"
         inkscape:tile-x0="98.430928"
         inkscape:tile-h="13.943399"
         inkscape:tile-w="4.159462"
         inkscape:tile-cy="99.030713"
         inkscape:tile-cx="100.51066"
         inkscape:transform-center-y="-58.502851"
         sodipodi:nodetypes="ccccc"
         inkscape:connector-curvature="0"
         id="path3782"
         d="m 98.683467,32.040934 c 1.027497,9.428887 0.716519,13.901586 0.714279,13.928571 1.170844,-0.01479 2.384904,0.143284 3.445174,-0.313814 -0.12583,-4.651785 -0.23955,-9.310838 -0.94516,-13.614757 z"
         style="fill:#222222;fill-opacity:1;stroke:none" />
      <use
         height="1052.3622"
         width="744.09448"
         transform="matrix(-0.03639416,-0.99950961,-1.1616796,0.03131355,211.47108,198.62764)"
         id="use3784"
         xlink:href="#path3782"
         y="0"
         x="0" />
      <use
         height="1052.3622"
         width="744.09448"
         transform="matrix(0.99502721,-0.09960347,-0.09148554,-0.91393003,4.0701664,204.21748)"
         id="use3786"
         xlink:href="#path3782"
         y="0"
         x="0" />
      <use
         height="1052.3622"
         width="744.09448"
         transform="matrix(-0.04345369,-0.99885791,-0.90842503,0.04777947,82.042037,197.64831)"
         id="use3788"
         xlink:href="#path3782"
         y="0"
         x="0" />
      <use
         height="1052.3622"
         width="744.09448"
         inkscape:transform-center-y="-50.807262"
         inkscape:transform-center-x="-29.155161"
         id="use3814"
         transform="matrix(0.8660254,0.5,-0.5,0.8660254,62.881376,-37.010664)"
         xlink:href="#path3782"
         inkscape:tiled-clone-of="#path3782"
         y="0"
         x="0" />
      <use
         height="1052.3622"
         width="744.09448"
         inkscape:transform-center-y="-29.333587"
         inkscape:transform-center-x="-50.613653"
         id="use3816"
         transform="matrix(0.5,0.8660254,-0.8660254,0.5,137.22421,-37.946871)"
         xlink:href="#path3782"
         inkscape:tiled-clone-of="#path3782"
         y="0"
         x="0" />
      <use
         height="1052.3622"
         width="744.09448"
         inkscape:transform-center-y="29.155161"
         inkscape:transform-center-x="-50.807258"
         id="use3820"
         transform="matrix(-0.5,0.8660254,-0.8660254,-0.5,237.9874,61.33638)"
         xlink:href="#path3782"
         inkscape:tiled-clone-of="#path3782"
         y="0"
         x="0" />
      <use
         height="1052.3622"
         width="744.09448"
         inkscape:transform-center-y="50.613662"
         inkscape:transform-center-x="-29.333585"
         id="use3822"
         transform="matrix(-0.8660254,0.5,-0.5,-0.8660254,237.91341,134.92162)"
         xlink:href="#path3782"
         inkscape:tiled-clone-of="#path3782"
         y="0"
         x="0" />
      <use
         height="1052.3622"
         width="744.09448"
         inkscape:transform-center-y="50.807257"
         inkscape:transform-center-x="29.15516"
         id="use3826"
         transform="matrix(-0.8660254,-0.5,0.5,-0.8660254,138.8827,234.92715)"
         xlink:href="#path3782"
         inkscape:tiled-clone-of="#path3782"
         y="0"
         x="0" />
      <use
         height="1052.3622"
         width="744.09448"
         inkscape:transform-center-y="29.333584"
         inkscape:transform-center-x="50.613657"
         id="use3828"
         transform="matrix(-0.5,-0.8660254,0.8660254,-0.5,65.802609,235.35828)"
         xlink:href="#path3782"
         inkscape:tiled-clone-of="#path3782"
         y="0"
         x="0" />
      <use
         height="1052.3622"
         width="744.09448"
         inkscape:transform-center-y="-29.15516"
         inkscape:transform-center-x="50.807261"
         id="use3832"
         transform="matrix(0.5,-0.8660254,0.8660254,0.5,-35.213128,136.83265)"
         xlink:href="#path3782"
         inkscape:tiled-clone-of="#path3782"
         y="0"
         x="0" />
      <use
         height="1052.3622"
         width="744.09448"
         inkscape:transform-center-y="-50.613658"
         inkscape:transform-center-x="29.333586"
         id="use3834"
         transform="matrix(0.8660254,-0.5,0.5,0.8660254,-35.896798,63.24746)"
         xlink:href="#path3782"
         inkscape:tiled-clone-of="#path3782"
         y="0"
         x="0" />
      <path
         sodipodi:nodetypes="zzzzzzzz"
         inkscape:connector-curvature="0"
         id="path3773"
         d="M 103.42949,28.087482 C 43.337458,25.411436 13.746374,91.70204 39.333994,133.08556 c 25.58763,41.38351 82.580256,55.27307 118.077216,8.94957 35.49696,-46.323496 6.11031,-111.271602 -53.98172,-113.947648 z m 47.41343,26.783788 c 37.5952,40.59105 10.64996,90.02056 -26.07142,107.48214 C 88.050124,179.815 23.512564,138.41439 37.084004,83.96949 50.655434,29.52458 113.24772,14.28022 150.84292,54.87127 z"
         style="fill:#bfd0ea;fill-opacity:1;fill-rule:evenodd;stroke:none" />
    </g>
    <g
       id="id_minute_1">
      <path
         sodipodi:nodetypes="ccczcccc"
         inkscape:connector-curvature="0"
         id="path3836"
         d="M 98.278031,101.68236 C 97.633216,88.424115 98.170562,65.695683 98.170562,65.695683 c -1.402862,-0.08353 -3.213002,0.08309 -6.878026,1.38896 0,0 7.023678,-18.872275 9.574664,-19.445437 2.55099,-0.573161 9.28884,19.950513 9.28884,19.950513 -1.87242,-0.933194 -4.60389,-2.093221 -5.96721,-1.767767 -0.66529,11.878301 -0.0129,22.952386 0.42988,35.481598 z"
         style="fill:#222222;fill-opacity:1;stroke:none" />
      <path
         sodipodi:nodetypes="ccczcccc"
         inkscape:connector-curvature="0"
         id="path3836-3"
         d="m 99.003451,101.52453 c -0.477917,-12.02636 0.242743,-37.111034 0.242743,-37.111034 -1.039768,-0.07577 -3.214288,-0.524418 -5.930717,0.660127 0,0 5.660987,-14.467118 7.551723,-14.987025 1.89073,-0.519907 7.14736,15.255769 7.14736,15.255769 -1.56844,-1.412456 -4.03276,-1.140994 -5.03318,-0.814335 -0.4931,10.774637 0.28601,25.193109 0.61415,36.558188 z"
         style="fill:#4343bb;fill-opacity:1;stroke:none" />
    </g>
    <g
       id="id_hour_1">
      <path
         sodipodi:nodetypes="ccczcccc"
         inkscape:connector-curvature="0"
         id="path3836-5"
         d="m 103.49406,96.13881 c 0.6657,13.26319 -0.0705,26.49852 -0.0705,26.49852 1.64765,0.095 2.44971,-0.0569 6.76482,-1.33291 0,0 -6.57739,16.60237 -9.57853,17.15474 -3.001126,0.55237 -9.168395,-18.5662 -9.168395,-18.5662 2.19345,0.94842 4.886423,2.88344 6.490453,2.5691 0.596128,-11.96189 0.121555,-13.65296 -0.311765,-26.185489 z"
         style="fill:#222222;fill-opacity:1;stroke:none" />
      <path
         sodipodi:nodetypes="ccczcccc"
         inkscape:connector-curvature="0"
         id="path3836-3-2"
         d="m 102.63629,96.922064 c 0.16565,9.440686 -0.39612,20.290126 -0.48541,26.988666 1.22111,0.0842 2.44701,0.55058 5.64678,-0.61181 0,0 -4.94583,12.46095 -7.17087,12.96545 -2.225023,0.50449 -6.811166,-13.60335 -6.811166,-13.60335 1.83298,1.4252 4.348274,1.42326 5.525935,1.10476 0.296879,-8.18107 -0.263067,-17.67545 -0.525182,-26.632217 z"
         style="fill:#4343bb;fill-opacity:1;stroke:none" />
    </g>
    <g
       id="id_foreground_1">
      <path
         sodipodi:nodetypes="zzzz"
         inkscape:connector-curvature="0"
         id="path3765-6"
         d="m 107.82378,98.291779 c 0.41065,5.589361 -4.23493,8.573801 -8.416643,7.480291 -4.181795,-1.09339 -7.759148,-6.058202 -3.944033,-11.220908 3.815128,-5.16257 11.950026,-1.848675 12.360676,3.740617 z"
         style="fill:#222222;fill-opacity:1;fill-rule:evenodd;stroke:none" />
      <path
         sodipodi:nodetypes="zzzzzzzz"
         inkscape:connector-curvature="0"
         id="path3773-8"
         d="m 101.07839,93.492409 c -5.789087,-0.204641 -6.988711,6.715931 -4.433155,9.271491 2.555555,2.55555 5.665665,2.73113 8.476675,0.28589 2.81101,-2.44523 1.74557,-9.35274 -4.04352,-9.557381 z m 1.84235,3.955991 c 1.30273,1.582313 -0.009,3.80808 -1.58231,4.07325 -1.573417,0.26517 -3.519012,-1.25757 -2.698569,-3.437955 0.820442,-2.180383 2.978149,-2.217608 4.280879,-0.635295 z"
         style="fill:#c4d1e5;fill-opacity:1;fill-rule:evenodd;stroke:none" />
    </g>
    <g
       id="id_background_2">
      <rect
         style="fill:none;stroke:none"
         id="rect3066-1"
         width="180.75893"
         height="182.94644"
         x="259.32382"
         y="8.2490387" />
      <path
         sodipodi:type="arc"
         style="fill:#ffe680;fill-opacity:0.50196081;fill-rule:evenodd;stroke:none"
         id="path3061"
         sodipodi:cx="350.77548"
         sodipodi:cy="99.409523"
         sodipodi:rx="81.064743"
         sodipodi:ry="82.706238"
         d="m 431.84023,99.409523 a 81.064743,82.706238 0 1 1 -162.12949,0 81.064743,82.706238 0 1 1 162.12949,0 z" />
      <path
         style="fill:#222222;fill-opacity:1;fill-rule:evenodd;stroke:none"
         d="M 344.59375 9.8125 C 305.07182 10.502451 272.96205 39.768341 263.84375 75.40625 C 250.27232 128.44872 286.60175 191.68192 359.5625 188.625 C 432.52325 185.56808 470.07817 80.235229 406 31.84375 C 384.97435 15.965297 363.89516 9.4755471 344.59375 9.8125 z M 348 27.65625 C 383.392 27.412037 415.36135 57.918054 420.1875 88 C 427.05135 130.78321 391.72293 180.87938 336.46875 168.5625 C 281.21457 156.24562 254.72394 91.949379 303.125 46.75 C 317.49406 33.331434 333.05671 27.759362 348 27.65625 z "
         id="path3765-7" />
      <path
         sodipodi:nodetypes="zzzzzzzz"
         inkscape:connector-curvature="0"
         id="path3767-4"
         d="m 437.06526,99.34829 c 2.4439,-55.571446 -71.96155,-116.260856 -135.36607,-72.866056 -63.40452,43.3948 -43.80272,137.206186 23.21428,155.343736 67.017,18.13756 109.70789,-26.90623 112.15179,-82.47768 z m -89.38394,72.5759 C 283.89031,167.53096 254.24312,98.79136 295.52508,52.299184 336.80704,5.8070075 395.02028,30.762109 415.37424,67.918119 435.7282,105.07413 411.47234,176.31742 347.68132,171.92419 z"
         style="fill:#ffe680;fill-opacity:1;fill-rule:evenodd;stroke:none" />
      <path
         inkscape:tile-y0="33.556162"
         inkscape:tile-x0="98.430928"
         inkscape:tile-h="13.943399"
         inkscape:tile-w="4.159462"
         inkscape:tile-cy="99.030713"
         inkscape:tile-cx="100.51066"
         inkscape:transform-center-y="-58.502851"
         sodipodi:nodetypes="ccccc"
         inkscape:connector-curvature="0"
         id="path3782-9"
         d="m 416.91345,96.881407 c -9.42889,1.027507 -13.90159,0.716524 -13.92858,0.714284 0.0148,1.170853 -0.14328,2.384911 0.31382,3.445179 4.65178,-0.12583 9.31084,-0.23955 13.61476,-0.94516 z"
         style="fill:#222222;fill-opacity:1;stroke:none" />
      <use
         height="1052.3622"
         width="744.09448"
         transform="matrix(0.03131355,1.1616796,0.99950961,-0.03639416,238.06957,-311.7285)"
         id="use3784-4"
         xlink:href="#path3782-9"
         y="0"
         x="0" />
      <use
         height="1052.3622"
         width="744.09448"
         transform="matrix(-0.91393003,0.09148554,0.09960347,0.99502721,655.22928,-36.759091)"
         id="use3786-8"
         xlink:href="#path3782-9"
         y="0"
         x="0" />
      <use
         height="1052.3622"
         width="744.09448"
         transform="matrix(0.04777947,0.90842503,0.99885791,-0.04345369,231.40272,-329.99589)"
         id="use3788-8"
         xlink:href="#path3782-9"
         y="0"
         x="0" />
      <use
         height="1052.3622"
         width="744.09448"
         inkscape:transform-center-y="-50.807262"
         inkscape:transform-center-x="-29.155161"
         id="use3814-2"
         transform="matrix(0.8660254,0.5,-0.5,0.8660254,96.763195,-161.37551)"
         xlink:href="#path3782-9"
         inkscape:tiled-clone-of="#path3782-9"
         y="0"
         x="0" />
      <use
         height="1052.3622"
         width="744.09448"
         inkscape:transform-center-y="-29.333587"
         inkscape:transform-center-x="-50.613653"
         id="use3816-4"
         transform="matrix(0.5,0.8660254,-0.8660254,0.5,261.36852,-252.02097)"
         xlink:href="#path3782-9"
         inkscape:tiled-clone-of="#path3782-9"
         y="0"
         x="0" />
      <use
         height="1052.3622"
         width="744.09448"
         inkscape:transform-center-y="29.155161"
         inkscape:transform-center-x="-50.807258"
         id="use3820-5"
         transform="matrix(-0.5,0.8660254,-0.8660254,-0.5,610.02948,-153.56491)"
         xlink:href="#path3782-9"
         inkscape:tiled-clone-of="#path3782-9"
         y="0"
         x="0" />
      <use
         height="1052.3622"
         width="744.09448"
         inkscape:transform-center-y="50.613662"
         inkscape:transform-center-x="-29.333585"
         id="use3822-5"
         transform="matrix(-0.8660254,0.5,-0.5,-0.8660254,701.68509,10.787836)"
         xlink:href="#path3782-9"
         inkscape:tiled-clone-of="#path3782-9"
         y="0"
         x="0" />
      <use
         height="1052.3622"
         width="744.09448"
         inkscape:transform-center-y="50.807257"
         inkscape:transform-center-x="29.15516"
         id="use3826-1"
         transform="matrix(-0.8660254,-0.5,0.5,-0.8660254,603.98669,360.20641)"
         xlink:href="#path3782-9"
         inkscape:tiled-clone-of="#path3782-9"
         y="0"
         x="0" />
      <use
         height="1052.3622"
         width="744.09448"
         inkscape:transform-center-y="29.333584"
         inkscape:transform-center-x="50.613657"
         id="use3828-7"
         transform="matrix(-0.5,-0.8660254,0.8660254,-0.5,438.62376,450.85193)"
         xlink:href="#path3782-9"
         inkscape:tiled-clone-of="#path3782-9"
         y="0"
         x="0" />
      <use
         height="1052.3622"
         width="744.09448"
         inkscape:transform-center-y="-29.15516"
         inkscape:transform-center-x="50.807261"
         id="use3832-1"
         transform="matrix(0.5,-0.8660254,0.8660254,0.5,89.457708,351.8908)"
         xlink:href="#path3782-9"
         inkscape:tiled-clone-of="#path3782-9"
         y="0"
         x="0" />
      <use
         height="1052.3622"
         width="744.09448"
         inkscape:transform-center-y="-50.613658"
         inkscape:transform-center-x="29.333586"
         id="use3834-1"
         transform="matrix(0.8660254,-0.5,0.5,0.8660254,-1.9454093,187.79055)"
         xlink:href="#path3782-9"
         inkscape:tiled-clone-of="#path3782-9"
         y="0"
         x="0" />
    </g>
    <g
       id="id_minute_2">
      <path
         sodipodi:nodetypes="ccccc"
         inkscape:connector-curvature="0"
         id="path3836-3-2-2-4-4"
         d="m 347.06787,99.058232 0.0714,-50.301182 5.77125,0.250331 0.40622,49.998087 z"
         style="fill:#222222;fill-opacity:1;stroke:none" />
      <path
         sodipodi:nodetypes="ccccc"
         inkscape:connector-curvature="0"
         id="path3836-3-2-2-7"
         d="m 347.99427,99.051024 0.19209,-49.046086 3.69936,0.20555 0.4024,48.848453 z"
         style="fill:#c8ab37;fill-opacity:1;stroke:none" />
    </g>
    <g
       id="id_hour_2">
      <path
         sodipodi:nodetypes="ccccc"
         inkscape:connector-curvature="0"
         id="path3836-3-2-2-4"
         d="m 354.32848,98.305215 c 1.13783,15.090915 -0.90256,35.275055 -0.90256,35.275055 l -6.68517,-0.18183 c 0,0 -0.45662,-20.56807 -1.1866,-34.827912 0.83273,-6.212023 8.88242,-4.330553 8.77433,-0.265313 z"
         style="fill:#222222;fill-opacity:1;stroke:none" />
      <path
         style="fill:#c8ab37;fill-opacity:1;stroke:none"
         d="m 350.09375,95.901786 c -2.00666,0.09097 -3.37814,1.348739 -3.54018,3.357143 0.50911,11.701571 1.25893,32.723211 1.25893,32.723211 l 4.6875,0.125 c 0,0 1.84268,-20.49592 1.04911,-32.879461 -0.0174,-1.8438 -1.71416,-3.404827 -3.45536,-3.325893 z m 1.39509,2.783481 c 0.31049,1.003254 -0.85574,2.191963 -2.01339,1.834823 -1.15765,-0.35714 -1.43525,-1.949954 -0.375,-2.661252 1.06025,-0.711299 2.0779,-0.176824 2.38839,0.826429 z"
         id="path3836-3-2-2"
         inkscape:connector-curvature="0"
         sodipodi:nodetypes="sccccszzzz" />
    </g>
    <g
       id="id_background_3"
       transform="translate(0,-0.25253814)">
      <rect
         style="fill:none;stroke:none"
         id="rect3066-8"
         width="182.90176"
         height="181.69644"
         x="508.81696"
         y="8.7461157" />
      <path
         sodipodi:type="arc"
         style="fill:#a0a0a0;fill-opacity:0.62745098;fill-rule:evenodd;stroke:none"
         id="path3300"
         sodipodi:cx="603.75"
         sodipodi:cy="97.897896"
         sodipodi:rx="83.571434"
         sodipodi:ry="82.5"
         d="m 687.32143,97.897896 c 0,45.563494 -37.4162,82.500004 -83.57143,82.500004 -46.15523,0 -83.57143,-36.93651 -83.57143,-82.500004 0,-45.563492 37.4162,-82.5 83.57143,-82.5 46.15523,0 83.57143,36.936508 83.57143,82.5 z" />
      <path
         inkscape:tile-y0="33.556162"
         inkscape:tile-x0="98.430928"
         inkscape:tile-h="13.943399"
         inkscape:tile-w="4.159462"
         inkscape:tile-cy="99.030713"
         inkscape:tile-cx="100.51066"
         inkscape:transform-center-y="-58.502851"
         sodipodi:nodetypes="ccccc"
         inkscape:connector-curvature="0"
         id="path3782-3"
         d="m 597.87813,25.203723 c 1.0275,9.428887 0.71652,13.901586 0.71428,13.928571 1.17085,-0.01479 2.38491,0.143284 3.44518,-0.313814 -0.12583,-4.651785 -0.23955,-9.310838 -0.94516,-13.614757 z"
         style="fill:#222222;fill-opacity:1;stroke:none" />
      <use
         height="1052.3622"
         width="744.09448"
         transform="matrix(-0.03639416,-0.99950961,-1.1616796,0.03131355,726.95179,698.02542)"
         id="use3784-9"
         xlink:href="#path3782-3"
         y="0"
         x="0" />
      <use
         height="1052.3622"
         width="744.09448"
         transform="matrix(0.99502721,-0.09960347,-0.09148554,-0.91393003,6.432127,254.4901)"
         id="use3786-84"
         xlink:href="#path3782-3"
         y="0"
         x="0" />
      <use
         height="1052.3622"
         width="744.09448"
         transform="matrix(-0.04345369,-0.99885791,-0.90842503,0.04777947,588.88877,697.08591)"
         id="use3788-0"
         xlink:href="#path3782-3"
         y="0"
         x="0" />
      <use
         height="1052.3622"
         width="744.09448"
         inkscape:transform-center-y="-50.807262"
         inkscape:transform-center-x="-29.155161"
         id="use3814-5"
         transform="matrix(0.8660254,0.5,-0.5,0.8660254,129.8777,-286.26133)"
         xlink:href="#path3782-3"
         inkscape:tiled-clone-of="#path3782-3"
         y="0"
         x="0" />
      <use
         height="1052.3622"
         width="744.09448"
         inkscape:transform-center-y="-29.333587"
         inkscape:transform-center-x="-50.613653"
         id="use3816-42"
         transform="matrix(0.5,0.8660254,-0.8660254,0.5,386.45615,-470.39775)"
         xlink:href="#path3782-3"
         inkscape:tiled-clone-of="#path3782-3"
         y="0"
         x="0" />
      <use
         height="1052.3622"
         width="744.09448"
         inkscape:transform-center-y="29.155161"
         inkscape:transform-center-x="-50.807258"
         id="use3820-1"
         transform="matrix(-0.5,0.8660254,-0.8660254,-0.5,985.65641,-371.13315)"
         xlink:href="#path3782-3"
         inkscape:tiled-clone-of="#path3782-3"
         y="0"
         x="0" />
      <use
         height="1052.3622"
         width="744.09448"
         inkscape:transform-center-y="50.613662"
         inkscape:transform-center-x="-29.333585"
         id="use3822-0"
         transform="matrix(-0.8660254,0.5,-0.5,-0.8660254,1169.2879,-115.31232)"
         xlink:href="#path3782-3"
         inkscape:tiled-clone-of="#path3782-3"
         y="0"
         x="0" />
      <use
         height="1052.3622"
         width="744.09448"
         inkscape:transform-center-y="50.807257"
         inkscape:transform-center-x="29.15516"
         id="use3826-7"
         transform="matrix(-0.8660254,-0.5,0.5,-0.8660254,1070.5284,484.89805)"
         xlink:href="#path3782-3"
         inkscape:tiled-clone-of="#path3782-3"
         y="0"
         x="0" />
      <use
         height="1052.3622"
         width="744.09448"
         inkscape:transform-center-y="29.333584"
         inkscape:transform-center-x="50.613657"
         id="use3828-9"
         transform="matrix(-0.5,-0.8660254,0.8660254,-0.5,814.70742,668.52939)"
         xlink:href="#path3782-3"
         inkscape:tiled-clone-of="#path3782-3"
         y="0"
         x="0" />
      <use
         height="1052.3622"
         width="744.09448"
         inkscape:transform-center-y="-29.15516"
         inkscape:transform-center-x="50.807261"
         id="use3832-3"
         transform="matrix(0.5,-0.8660254,0.8660254,0.5,213.99195,569.51732)"
         xlink:href="#path3782-3"
         inkscape:tiled-clone-of="#path3782-3"
         y="0"
         x="0" />
      <use
         height="1052.3622"
         width="744.09448"
         inkscape:transform-center-y="-50.613658"
         inkscape:transform-center-x="29.333586"
         id="use3834-3"
         transform="matrix(0.8660254,-0.5,0.5,0.8660254,30.613141,313.19146)"
         xlink:href="#path3782-3"
         inkscape:tiled-clone-of="#path3782-3"
         y="0"
         x="0" />
      <path
         style="fill:#222222;fill-opacity:1;fill-rule:evenodd;stroke:none"
         d="m 599.46875,10.40625 c -24.70961,-0.148504 -49.45306,9.753156 -66.84375,32.78125 -48.39148,64.07818 -9.47997,128.58482 43.5625,142.15625 53.04246,13.57143 116.27567,-22.758 113.21875,-95.71875 -1.95834,-46.740481 -45.88994,-78.954026 -89.9375,-79.21875 z m -3.0625,17.5 c 40.34503,-0.170176 84.22267,35.583362 73.5,85 -11.43751,52.71109 -74.95442,81.49919 -121.1875,33.15625 -46.23308,-48.342946 -2.56874,-112.257714 39.6875,-117.65625 2.64101,-0.337408 5.31033,-0.488655 8,-0.5 z"
         id="path3765-0"
         inkscape:connector-curvature="0" />
      <path
         sodipodi:nodetypes="zzzzzzzz"
         inkscape:connector-curvature="0"
         id="path3767-48"
         d="M 600.1358,12.122977 C 544.56435,9.6790771 483.87494,84.084527 527.26974,147.48905 570.66454,210.89357 664.47593,191.29177 682.61348,124.27477 700.75104,57.257767 655.70725,14.566877 600.1358,12.122977 z m 72.5759,89.383943 c -4.39323,63.79101 -73.63791,91.92297 -119.62501,52.15624 -45.9871,-39.76673 -23.55738,-98.990123 13.59863,-119.344083 37.15601,-20.35396 110.41961,3.39682 106.02638,67.187843 z"
         style="fill:#808080;fill-opacity:1;fill-rule:evenodd;stroke:none" />
    </g>
    <g
       id="id_minute_3">
      <path
         sodipodi:nodetypes="cccccc"
         inkscape:connector-curvature="0"
         id="path4070"
         d="m 598.39188,41.314385 3.42938,0.115438 c -0.26848,27.276829 -0.14158,51.339119 0.0532,67.497277 -1.28517,-0.14019 -2.34938,-0.12711 -3.53985,-0.0207 0.017,-23.435328 -0.4069,-43.03876 0.0572,-67.591985 z"
         style="fill:#222222;fill-opacity:1;stroke:none" />
      <path
         sodipodi:nodetypes="ccccc"
         inkscape:connector-curvature="0"
         id="path4070-1"
         d="m 601.12771,42.00632 c -0.3254,26.752252 -0.0715,50.898348 0.0271,66.35931 -0.7293,-0.0157 -1.51183,-0.0989 -2.11486,-0.0288 -0.10149,-22.408351 -0.40047,-54.619679 0.0247,-66.404684 z"
         style="fill:#5c5c5c;fill-opacity:1;stroke:none" />
    </g>
    <g
       id="id_hour_3">
      <path
         sodipodi:nodetypes="cccccc"
         inkscape:connector-curvature="0"
         id="path4070-12"
         d="m 597.89978,89.111407 4.78706,0.07931 c -0.37477,18.740013 -0.75568,35.271543 -0.48374,46.372693 -1.79397,-0.0963 -2.18574,-0.0873 -3.84752,-0.0142 0.0237,-16.10079 -1.1037,-29.56895 -0.45591,-46.437762 z"
         style="fill:#222222;fill-opacity:1;stroke:none" />
      <path
         sodipodi:nodetypes="ccccc"
         inkscape:connector-curvature="0"
         id="path4070-1-5"
         d="m 601.96798,89.676073 c -0.45422,18.379617 -0.45694,34.700867 -0.31934,45.323017 -1.01802,-0.0108 -1.89461,-0.0679 -2.73638,-0.0198 -0.14167,-15.39522 -1.00544,-37.257528 -0.41193,-45.354187 z"
         style="fill:#5c5c5c;fill-opacity:1;stroke:none" />
    </g>
    <g
       id="id_foreground_3">
      <path
         sodipodi:nodetypes="zzzz"
         inkscape:connector-curvature="0"
         id="path3765-6-9"
         d="m 603.90477,98.925232 c 0.22753,3.096958 -2.3465,4.750588 -4.6635,4.144688 -2.31706,-0.60583 -4.2992,-3.356732 -2.18532,-6.21729 2.11389,-2.860481 6.62128,-1.024315 6.84882,2.072602 z"
         style="fill:#222222;fill-opacity:1;fill-rule:evenodd;stroke:none" />
    </g>
  </g>
</svg>
