<?xml version="1.0" encoding="UTF-8" standalone="no"?>
<svg
   xmlns:dc="http://purl.org/dc/elements/1.1/"
   xmlns:cc="http://creativecommons.org/ns#"
   xmlns:rdf="http://www.w3.org/1999/02/22-rdf-syntax-ns#"
   xmlns:svg="http://www.w3.org/2000/svg"
   xmlns="http://www.w3.org/2000/svg"
   xmlns:xlink="http://www.w3.org/1999/xlink"
   xmlns:sodipodi="http://sodipodi.sourceforge.net/DTD/sodipodi-0.dtd"
   xmlns:inkscape="http://www.inkscape.org/namespaces/inkscape"
   id="svg2"
   height="100%"
   viewBox="0 0 640 360"
   width="100%"
   version="1.1"
   inkscape:version="0.48.0 r9654"
   sodipodi:docname="design.svg">
  <sodipodi:namedview
     pagecolor="#ffffff"
     bordercolor="#666666"
     borderopacity="1"
     objecttolerance="10"
     gridtolerance="10"
     guidetolerance="10"
     inkscape:pageopacity="0"
     inkscape:pageshadow="2"
     inkscape:window-width="1914"
     inkscape:window-height="873"
     id="namedview106"
     showgrid="false"
     inkscape:zoom="22.627418"
     inkscape:cx="746.76542"
     inkscape:cy="105.26539"
     inkscape:window-x="0"
     inkscape:window-y="1"
     inkscape:window-maximized="0"
     inkscape:current-layer="svg2"
     showguides="true"
     inkscape:guide-bbox="true" />
  <defs
     id="defs4">
    <radialGradient
       r="181"
       gradientTransform="matrix(0.44361696,0,5.2895859e-4,0.1367241,251.52715,38.894115)"
       cx="1180"
       cy="9.1960001"
       gradientUnits="userSpaceOnUse"
       id="radialGradient4152">
      <stop
         offset="0"
         stop-opacity="0"
         stop-color="#000"
         id="stop4154" />
      <stop
         offset="0.34764165"
         stop-opacity="0"
         stop-color="#000"
         id="stop4156" />
      <stop
         offset="0.76657844"
         stop-opacity="0.11764706"
         stop-color="#000"
         id="stop4158" />
      <stop
         offset="1"
         stop-opacity="0.27450982"
         stop-color="#000"
         id="stop4160" />
    </radialGradient>
    <radialGradient
       id="radialGradient3045"
       gradientUnits="userSpaceOnUse"
       cy="9.196"
       cx="1180"
       gradientTransform="matrix(1.4951715,-0.00368325,0.00246343,0.99999697,-584.32495,4.3462641)"
       r="181">
      <stop
         id="stop17"
         stop-color="#000"
         stop-opacity="0"
         offset="0" />
      <stop
         id="stop19"
         stop-color="#000"
         stop-opacity="0"
         offset="0.4337" />
      <stop
         id="stop21"
         stop-color="#000"
         stop-opacity="0.11764706"
         offset="0.7082" />
      <stop
         id="stop23"
         stop-color="#000"
         stop-opacity="0.27450982"
         offset="1" />
    </radialGradient>
    <radialGradient
       inkscape:collect="always"
       xlink:href="#radialGradient4152"
       id="radialGradient4150"
       gradientUnits="userSpaceOnUse"
       gradientTransform="matrix(0.13072879,-1.8651492e-5,1.5587868e-4,0.12843681,1766.7386,252.99233)"
       cx="1180"
       cy="9.1960001"
       fx="1180"
       fy="9.1960001"
       r="181" />
    <radialGradient
       r="181"
       gradientTransform="matrix(0.44361696,0,5.2895859e-4,0.1367241,251.52715,38.894115)"
       cx="1180"
       cy="9.1960001"
       gradientUnits="userSpaceOnUse"
       id="radialGradient4152-3">
      <stop
         offset="0"
         stop-opacity="0"
         stop-color="#000"
         id="stop4154-7" />
      <stop
         offset="0.34764165"
         stop-opacity="0"
         stop-color="#000"
         id="stop4156-2" />
      <stop
         offset="0.76657844"
         stop-opacity="0.11764706"
         stop-color="#000"
         id="stop4158-7" />
      <stop
         offset="1"
         stop-opacity="0.27450982"
         stop-color="#000"
         id="stop4160-9" />
    </radialGradient>
    <radialGradient
       inkscape:collect="always"
       xlink:href="#radialGradient4152-3"
       id="radialGradient4534"
       gradientUnits="userSpaceOnUse"
       gradientTransform="matrix(0.19609319,-1.8651492e-5,2.3381802e-4,0.12843681,1698.6079,514.99233)"
       cx="1180"
       cy="9.1960001"
       fx="1180"
       fy="9.1960001"
       r="181" />
    <radialGradient
       r="181"
       gradientTransform="matrix(0.44361696,0,5.2895859e-4,0.1367241,251.52715,38.894115)"
       cx="1180"
       cy="9.1960001"
       gradientUnits="userSpaceOnUse"
       id="radialGradient4152-3-3">
      <stop
         offset="0"
         stop-opacity="0"
         stop-color="#000"
         id="stop4154-7-5" />
      <stop
         offset="0.34764165"
         stop-opacity="0"
         stop-color="#000"
         id="stop4156-2-3" />
      <stop
         offset="0.76657844"
         stop-opacity="0.11764706"
         stop-color="#000"
         id="stop4158-7-1" />
      <stop
         offset="1"
         stop-opacity="0.27450982"
         stop-color="#000"
         id="stop4160-9-3" />
    </radialGradient>
    <radialGradient
       inkscape:collect="always"
       xlink:href="#radialGradient4152-3-3"
       id="radialGradient4901"
       gradientUnits="userSpaceOnUse"
       gradientTransform="matrix(0.24074343,0,2.786218e-4,0.12843683,1656.9202,763.97032)"
       cx="1180"
       cy="9.1960001"
       fx="1180"
       fy="9.1960001"
       r="181" />
    <radialGradient
       r="181"
       gradientTransform="matrix(0.44361696,0,5.2895859e-4,0.1367241,251.52715,38.894115)"
       cx="1180"
       cy="9.1960001"
       gradientUnits="userSpaceOnUse"
       id="radialGradient4152-3-3-7">
      <stop
         offset="0"
         stop-opacity="0"
         stop-color="#000"
         id="stop4154-7-5-4" />
      <stop
         offset="0.34764165"
         stop-opacity="0"
         stop-color="#000"
         id="stop4156-2-3-4" />
      <stop
         offset="0.76657844"
         stop-opacity="0.11764706"
         stop-color="#000"
         id="stop4158-7-1-2" />
      <stop
         offset="1"
         stop-opacity="0.27450982"
         stop-color="#000"
         id="stop4160-9-3-3" />
    </radialGradient>
    <radialGradient
       inkscape:collect="always"
       xlink:href="#radialGradient4152-3-3-7"
       id="radialGradient5129"
       gradientUnits="userSpaceOnUse"
       gradientTransform="matrix(0.31296645,0,3.6220833e-4,0.12843683,1583.6962,1017.9703)"
       cx="1180"
       cy="9.1960001"
       fx="1180"
       fy="9.1960001"
       r="181" />
    <radialGradient
       r="181"
       gradientTransform="matrix(0.44361696,0,5.2895859e-4,0.1367241,251.52715,38.894115)"
       cx="1180"
       cy="9.1960001"
       gradientUnits="userSpaceOnUse"
       id="radialGradient4152-3-3-7-0">
      <stop
         offset="0"
         stop-opacity="0"
         stop-color="#000"
         id="stop4154-7-5-4-4" />
      <stop
         offset="0.34764165"
         stop-opacity="0"
         stop-color="#000"
         id="stop4156-2-3-4-1" />
      <stop
         offset="0.76657844"
         stop-opacity="0.11764706"
         stop-color="#000"
         id="stop4158-7-1-2-9" />
      <stop
         offset="1"
         stop-opacity="0.27450982"
         stop-color="#000"
         id="stop4160-9-3-3-8" />
    </radialGradient>
    <radialGradient
       inkscape:collect="always"
       xlink:href="#radialGradient4152-3-3-7-0"
       id="radialGradient5294"
       gradientUnits="userSpaceOnUse"
       gradientTransform="matrix(0.37315231,0,4.3186379e-4,0.12843683,1522.6762,1307.9703)"
       cx="1180"
       cy="9.1960001"
       fx="1180"
       fy="9.1960001"
       r="181" />
    <radialGradient
       r="181"
       gradientTransform="matrix(0.44361696,0,5.2895859e-4,0.1367241,251.52715,38.894115)"
       cx="1180"
       cy="9.1960001"
       gradientUnits="userSpaceOnUse"
       id="radialGradient4152-3-3-7-0-9">
      <stop
         offset="0"
         stop-opacity="0"
         stop-color="#000"
         id="stop4154-7-5-4-4-7" />
      <stop
         offset="0.34764165"
         stop-opacity="0"
         stop-color="#000"
         id="stop4156-2-3-4-1-7" />
      <stop
         offset="0.76657844"
         stop-opacity="0.11764706"
         stop-color="#000"
         id="stop4158-7-1-2-9-5" />
      <stop
         offset="1"
         stop-opacity="0.27450982"
         stop-color="#000"
         id="stop4160-9-3-3-8-0" />
    </radialGradient>
    <radialGradient
       inkscape:collect="always"
       xlink:href="#radialGradient4152-3-3-7-0-9"
       id="radialGradient5434"
       gradientUnits="userSpaceOnUse"
       gradientTransform="matrix(0.43333816,0,5.0151922e-4,0.12843683,1461.6562,1597.9703)"
       cx="1180"
       cy="9.1960001"
       fx="1180"
       fy="9.1960001"
       r="181" />
  </defs>
  <metadata
     id="metadata25">
    <rdf:RDF>
      <cc:Work
         rdf:about="">
        <dc:format>image/svg+xml</dc:format>
        <dc:type
           rdf:resource="http://purl.org/dc/dcmitype/StillImage" />
        <dc:title />
      </cc:Work>
    </rdf:RDF>
  </metadata>
  <rect
     style="fill:#808080;fill-opacity:1;stroke:none"
     id="rect3149"
     width="459.61935"
     height="204.22452"
     x="698.62146"
     y="219.35043" />
  <g
     id="id_frame_1">
    <rect
       id="frame_1_rect"
       height="276.29999"
       width="360"
       y="-130"
       x="1000"
       style="fill:url(#radialGradient3045)" />
    <path
       id="path37"
       d="m 999,-131 0,278 362,0 0,-278 z m 360.64,34.027 c -0.4404,15.323301 -1.271,10.85 -1.148,63.55 0.1226,52.71 2.2583,132.89802 -0.3827,148.6 -2.641,15.70198 -13.5138,25.77695 -27.02,27.78 -13.5062,2.00305 -69.9083,3.14827 -149.6,1.409 -77.751,-1.69692 -143.6462,0.42795 -153.5,-1.096 -9.8538,-1.52395 -26.7308,-10.07563 -27.69,-30.34 -0.9592,-20.264374 3.592,-71.82 3.531,-106.2 -0.095,-53.6 -3.6243,-93.817721 -2.438,-106.9 1.5314,-16.88909 12.9445,-27.22356 28.59,-28.6914 15.6455,-1.46784 124.6613,0.15682 166.2,-0.7474 46.26,-1.007 114.4333,1.67831 133.8913,1.78603 19.458,0.10772 30.0068,15.52647 29.5664,30.84977 z"
       inkscape:connector-curvature="0"
       style="fill:#000000"
       sodipodi:nodetypes="ccccczszzszzsszszz" />
  </g>
  <g
     id="id_frame_2">
    <use
       transform="matrix(1,0,0,1.1582734,381,20.733812)"
       x="0"
       y="0"
       xlink:href="#frame_1_rect"
       id="frame_2_rect"
       width="640"
       height="360" />
    <path
       id="path37-8"
       d="m 1380,-131 0,322 362,0 0,-322 z m 360.64,33.96293 c -0.4404,16.555647 -1.271,18.016902 -1.148,79.05791 0.1226,61.052591 3.319,160.17839 -0.3827,178.56907 -3.7017,18.39068 -15.6351,24.81662 -27.02,26.72719 -11.3849,1.91057 -69.9083,3.64656 -149.6,1.63201 -77.751,-1.9655 -143.2927,0.49568 -153.5,-1.26947 -10.2073,-1.76515 -26.3772,-7.31949 -27.69,-29.69237 -1.3128,-22.37288 2.7991,-89.636839 2.7381,-129.458278 -0.095,-62.083454 -4.1111,-114.295687 -1.6451,-129.269062 2.9457,-17.88599 13.298,-25.35416 28.59,-28.28285 15.292,-2.92869 124.6613,1.18164 166.2,0.13431 46.26,-1.16638 115.494,0.53444 133.8913,1.06871 18.3973,0.53427 30.0068,14.22718 29.5664,30.78283 z"
       inkscape:connector-curvature="0"
       style="fill:#000000"
       sodipodi:nodetypes="ccccczszzszzsszszz" />
  </g>
  <g
     id="id_frame_3">
    <use
       transform="matrix(1,0,0,1.3129497,381,386.9964)"
       x="0"
       y="0"
       xlink:href="#frame_1_rect"
       id="frame_3_rect"
       width="640"
       height="360" />
    <path
       id="path37-8-3"
       d="m 1380,215 0,365.00001 362,0 L 1742,215 z m 359.492,128.11369 c 0.1226,69.20558 1.7799,185.78095 -0.029,203.96907 -1.8089,18.18812 -16.2136,27.19552 -27.3736,29.11123 -11.16,1.91571 -69.9083,4.13352 -149.6,1.84995 -77.751,-2.22797 -143.914,0.18688 -153.5,-1.439 -9.586,-1.62588 -26.4808,-13.26212 -27.69,-32.11884 -1.2092,-18.85672 2.7991,-103.51433 2.7381,-148.65355 -0.095,-70.3741 -5.0358,-132.71113 -1.6451,-149.54518 3.8295,-19.0129 14.3587,-26.97907 28.59,-29.41498 14.2313,-2.43591 124.6613,1.33944 166.2,0.15225 46.26,-1.32214 112.8423,-0.80839 133.8913,1.21143 21.049,2.01982 28.9797,14.82393 29.0361,31.54169 0.056,16.71776 -0.6783,47.455 -0.6178,93.33593 z"
       inkscape:connector-curvature="0"
       style="fill:#000000"
       sodipodi:nodetypes="cccccczzszzsszszzc" />
  </g>
  <g
     id="id_frame_4">
    <use
       transform="matrix(1,0,0,0.9084329,381,719.09628)"
       x="0"
       y="0"
       xlink:href="#frame_1_rect"
       id="frame_4_rect"
       width="640"
       height="360" />
    <path
       id="path37-8-3-8"
       d="m 1380,600 0,253.00001 362,0 L 1742,600 z m 359.492,128.11369 c 0.1226,69.20558 1.7799,73.78095 -0.029,91.96907 -1.8089,18.18812 -16.2136,26.82052 -27.3736,28.73623 -11.16,1.91571 -69.9083,4.50852 -149.6,2.22495 -77.751,-2.22797 -143.914,0.18688 -153.5,-1.439 -9.586,-1.62588 -26.4808,-13.26212 -27.69,-32.11884 -1.2092,-18.85672 1.3849,-47.51433 1.3239,-92.65355 -0.095,-70.3741 -3.6216,-76.71113 -0.2309,-93.54518 3.8295,-19.0129 14.3587,-26.97907 28.59,-29.41498 14.2313,-2.43591 124.6613,1.71444 166.2,0.52725 46.26,-1.32214 112.8423,-1.18339 133.8913,0.83643 21.049,2.01982 28.9797,14.82393 29.0361,31.54169 0.056,16.71776 -0.6783,47.455 -0.6178,93.33593 z"
       inkscape:connector-curvature="0"
       style="fill:#000000"
       sodipodi:nodetypes="cccccczzszzsszszzc" />
  </g>
  <g
     id="id_frame_5">
    <use
       x="0"
       y="0"
       xlink:href="#frame_1_rect"
       id="frame_5_rect"
       width="640"
       height="360"
       transform="matrix(1,0,0,0.77813974,381,979.15817)" />
    <path
       id="path37-8-3-8-2"
       d="m 1380,876.99999 0,217.00001 362,0 0,-217.00001 z m 359.492,128.11371 c 0.1799,36.8608 1.7799,37.7809 -0.029,55.9691 -1.8089,18.1881 -16.2136,27.1955 -27.3736,29.1112 -11.16,1.9157 -69.9083,4.1335 -149.6,1.8499 -77.751,-2.2279 -143.914,0.1869 -153.5,-1.439 -9.586,-1.6258 -26.9227,-13.4389 -27.69,-32.1188 -0.7673,-18.6799 1.1197,-11.5143 1.0587,-56.6536 -0.095,-70.37406 -3.0028,-76.71109 0.3879,-93.54514 3.8295,-19.0129 14.0051,-26.7139 28.2364,-29.14981 14.2313,-2.43591 124.6613,1.07427 166.2,-0.11292 46.26,-1.32214 112.8423,-0.80839 133.8913,1.21143 21.049,2.01982 28.9797,14.82393 29.0361,31.54169 0.056,16.71776 -0.7977,56.47516 -0.6178,93.33595 z"
       inkscape:connector-curvature="0"
       style="fill:#000000"
       sodipodi:nodetypes="ccccczzzszzsszszzz" />
  </g>
  <path
     style="fill:#eeeeee;fill-opacity:0.58039216;fill-rule:evenodd"
     d="m 778.40625,245.46875 c -3.75864,0.17354 -7.56419,2.49522 -8.40625,6.4375 -1.497,7.0085 3.2245,11.1236 9.6875,10.1875 6.4632,-0.94 9.364,-6.77725 6,-12.90625 -1.47,-2.68188 -4.35787,-3.85372 -7.28125,-3.71875 z M 777.625,247.125 c 6.4045,-0.1418 8.7685,4.62225 7.3125,9.03125 -1.639,4.961 -8.68125,5.8795 -11.90625,2.6875 -3.224,-3.192 -1.81075,-11.57695 4.59375,-11.71875 z m 1.53946,1.55173 0.14963,4.2266 2.55213,-0.0827 -0.13108,-4.21535 z m -4.40065,0.19556 -0.099,4.13568 2.85126,-0.0345 0.005,-4.23545 z m -0.1545,5.92979 -0.0408,4.07504 2.97772,0.0953 0.0238,-4.08775 z m 4.79426,0.0664 0.0386,4.11719 2.46745,-0.0944 -0.0107,-4.05423 z"
     id="id_menubutton"
     inkscape:connector-curvature="0"
     sodipodi:nodetypes="ssccssccscccccccccccccccccccc" />
  <path
     style="fill:#eeeeee;fill-opacity:0.57999997999999997;fill-rule:evenodd"
     d="m 727.875,245.40625 c -0.63366,0.0303 -1.26706,0.13677 -1.90625,0.34375 -6.81804,2.20781 -8.01268,8.34056 -3.96875,13.46875 4.04392,5.12818 10.5602,4.72633 14.1875,-1.25 3.28725,-5.41605 -2.18717,-12.85538 -8.3125,-12.5625 z M 728.84375,247 c 1.95084,0.0483 3.84686,0.91541 5.09375,2.96875 3.32506,5.47556 0.64357,9.84142 -4.1875,10.84375 -4.83108,1.00232 -9.43336,-4.58025 -8.28125,-8.96875 0.72006,-2.74281 4.12359,-4.92432 7.375,-4.84375 z m -4.81245,4.34375 9.3125,0.21875 0.0625,-1.96875 c 0,0 -9.12837,-0.15625 -9.23609,-0.15625 z m -0.18755,1.625 0,1.90625 9.3125,0.21875 0.0625,-1.96875 c 0,0 -9.15962,-0.15625 -9.375,-0.15625 z m 0.0937,3.3125 -0.0312,1.90625 9.34375,0.21875 0.0312,-1.96875 c 0,0 -9.12837,-0.15625 -9.34375,-0.15625 z"
     id="id_optionsbutton"
     inkscape:connector-curvature="0"
     sodipodi:nodetypes="ssssscssscccccccccccccccc" />
  <path
     id="id_exitbutton"
     style="fill:#eeeeee;fill-opacity:0.58039216;stroke:none"
     d="m 732.76905,286.91735 1.58563,1.6718 -3.05162,3.13086 2.95028,3.19714 -1.67938,1.67938 -2.8581,-3.30227 -2.82686,3.02952 -1.61309,-1.70147 2.93735,-2.91904 -3.08667,-3.21167 1.63519,-1.63517 2.99449,3.2063 z m -4.11768,-3.57115 c -7.29291,0.27565 -8.71754,9.01892 -5.34467,13.54733 4.04392,5.12818 10.5602,4.72633 14.1875,-1.25 3.28725,-5.41605 -1.54992,-12.57299 -8.84283,-12.29733 z m 7.12316,4.91605 c 2.48568,4.30027 -0.15193,9.31108 -4.983,10.31341 -4.83108,1.00232 -9.05438,-4.75497 -7.0438,-9.94101 2.01057,-5.18604 9.54112,-4.67267 12.0268,-0.3724 z"
     inkscape:connector-curvature="0"
     sodipodi:nodetypes="cccccccccccccscssssss" />
  <path
     style="fill:#eeeeee;fill-opacity:0.58039216;fill-rule:evenodd"
     d="m 778.21875,283.5 c -3.35449,0.21015 -6.39211,2.47874 -7.5,6 -1.61147,5.12184 3.074,12.46733 11,9.9375 7.92599,-2.52984 5.94531,-12.21765 1.125,-14.875 -1.50634,-0.83042 -3.10023,-1.15802 -4.625,-1.0625 z m 0.3125,1.75 c 6.18352,-0.0534 7.70375,4.65875 6.15625,9.34375 -1.5475,4.685 -7.713,4.817 -10.9375,1.625 -3.2245,-3.192 -1.40228,-10.91534 4.78125,-10.96875 z m -0.67456,0.76294 -4.46875,3.6875 4.75,2.71875 -0.125,-2.33839 c 0,0 1.28101,-0.40514 2.79106,0.18209 1.51005,0.58723 1.68786,2.96564 0.2317,3.82009 -1.31012,0.76876 -3.70603,0.32256 -4.14776,0.33616 l -0.10669,2.03975 c 0,0 3.10061,0.77037 5.20802,-0.59153 2.17772,-1.40733 2.89767,-5.48182 0.44286,-6.98261 -2.4548,-1.5008 -4.5442,-0.88258 -4.5442,-0.88258 z"
     id="id_backbutton"
     inkscape:connector-curvature="0"
     sodipodi:nodetypes="ssssssssscccczsccsscc" />
  <g
     id="id_activemarker">
    <path
       sodipodi:nodetypes="czzz"
       id="path2568"
       d="m 757.93624,251.20492 c -2.63199,-4.7564 -9.32768,-5.71917 -12.16279,-2.20928 -2.81356,3.48321 -1.9604,9.10006 3.501,11.64839 5.44435,2.54037 11.27509,-4.7165 8.66179,-9.43911 z"
       style="fill:#52ea22;fill-opacity:0.63297874;fill-rule:evenodd"
       inkscape:connector-curvature="0" />
  </g>
  <g
     id="background">
    <g
       id="id_background_01">
      <rect
         id="rect3096"
         height="190"
         width="1025"
         y="1319.9978"
         x="-326"
         style="fill:#ffffff" />
      <path
         style="fill:#000000"
         d="m 642.725,1332.4509 11.94,-0.094 -0.0637,-11.44 -12.00128,0.094 z"
         id="path3146"
         inkscape:connector-curvature="0" />
      <path
         style="fill:#000000"
         d="m 580.38,1321.3125 0.0937,11.06 11.78,-0.4062 -0.31305,-11.1569 z"
         id="path3144"
         inkscape:connector-curvature="0" />
      <path
         style="fill:#000000"
         d="m 612.19,1321.3125 0.5312,10.78 10.91,-0.5313 0.3719,-10.5912 z"
         id="path3142"
         inkscape:connector-curvature="0" />
      <path
         style="fill:#000000"
         d="m -8.0071489,1326.8967 c -4.0720001,-4.222 -11.1168511,-3.2699 -13.1778511,2.0701 -2.061,5.34 1.410955,13.7971 9.18575,11.8105 7.7747952,-1.9866 8.0641011,-9.6586 3.9921011,-13.8806 z"
         id="path3140"
         inkscape:connector-curvature="0" />
      <path
         style="fill:#000000"
         d="m 139.5,1330.2748 c -3.347,-4.3425 -10.84333,-4.412 -14.06,2.346 -3.21667,6.758 2.86933,12.8917 9.56,11.624 6.69067,-1.2677 7.847,-9.6275 4.5,-13.97 z"
         id="path3138"
         inkscape:connector-curvature="0" />
      <path
         style="fill:#000000"
         d="m 423.9125,1405.5948 c 0,0 -55.26,51.578 -130.8,53.5 -75.54,1.922 -68.29,-56.4825 -114,-58.72 -45.71,-2.2375 -59.52,52.9505 -122.1,52.91 -62.58,-0.04 -76.375,-71.759 -150.9,-69.69 -74.525,2.069 -88.207,67.04 -150.6,66.62 -62.393,-0.42 -81.5,-55 -81.5,-55 l 0,114.7852 1025,0 0,-114.7852 -28.47,0.1562 c 0.018,12.54 -1.061,28.34 -0.5625,40.12 -30.34,0.7113 -65.87,-0.9849 -103.8,1.906 -1.954,-31.1 -1.676,-62.35 -1.438,-97.28 -52.09,1.862 -94.26,-1.632 -141.1,0.5938 -0.068,23.3655 0.17895,49.643 0.2705,64.884 z"
         id="path3136"
         inkscape:connector-curvature="0"
         sodipodi:nodetypes="cssssscccccccccc" />
      <path
         style="fill:#000000"
         d="m 21.2,1372.6248 c -7.179,25.25 8.933,63.69 43.53,55.66 34.597,-8.03 48.22,-57.84 23.25,-78.47 -24.97,-20.63 -59.601,-2.44 -66.78,22.81 z"
         id="path3134"
         inkscape:connector-curvature="0" />
      <path
         style="fill:#000000"
         d="m 313.3812,1344.1948 c -4.2419,-2.0775 -9.2159,1.192 -8.969,5.436 0.2469,4.244 5.18865,6.5793 8.68765,4.904 3.499,-1.6753 4.52325,-8.2625 0.28135,-10.34 z"
         id="path3132"
         inkscape:connector-curvature="0" />
      <path
         style="fill:#ffffff"
         d="m 75.8,1360.3088 c 15.44,13.405 12.25,49.5785 -13.36,54.67 -25.61,5.0915 -37.54,-18.01 -31.28,-38 6.26,-19.99 29.2,-30.075 44.64,-16.67 z"
         id="path3130"
         inkscape:connector-curvature="0" />
      <path
         style="fill:#000000"
         d="m 599.775,1401.7738 c 12.82,-1.068 26.34,-2.609 36.59,-1.844 -0.3702,-9.945 0.4412,-35.62 0.4412,-35.62 l -37.4081,1.624 c 0,0 0.1635,24.25 0.3769,35.84 z"
         id="path3128"
         inkscape:connector-curvature="0" />
      <path
         style="fill:#ffffff"
         d="m 456.66,1435.8088 c -1.18,-25.55 -1.014,-48.63 1.094,-68.16 22.59,-1.051 68.43,-0.3175 68.43,-0.3175 l 0.5641,67.1013 c 0,0 -46.0481,0.6691 -70.0881,1.3762 z"
         id="path3126"
         inkscape:connector-curvature="0" />
      <path
         style="fill:#000000"
         d="M 60.957107,1399.9467 C 74.838107,1396.1272 77.43,1380.2208 67,1371.9338 c -10.43,-8.287 -21.12,-3.14 -24.72,6.97 -3.6,10.11 4.796107,24.8624 18.677107,21.0429 z"
         id="path3124"
         inkscape:connector-curvature="0" />
      <path
         style="fill:#000000"
         d="m 323.312,1380.5338 c -15.474,-12.8883 -39.6895,1.6499 -39.44,22.87 0.2495,21.2201 24.32039,26.5484 37.8765,17.4695 13.55611,-9.0789 17.0375,-27.4512 1.5635,-40.3395 z"
         id="path3122"
         inkscape:connector-curvature="0" />
      <path
         style="fill:#000000"
         d="m 512.305,1421.435 c -0.2965,-14.41 0.8667,-41.65 0.8667,-41.65 -8.72939,-0.9549 -23.88568,-0.7412 -42.36978,0.077 l -1.38045,41.9866 c 0,0 23.82353,1.0212 42.88353,-0.4136 z"
         id="path3120"
         inkscape:connector-curvature="0" />
      <path
         style="fill:#000000"
         d="m 265.169,1386.5238 c -4.867,-2.9055 -10.9576,1.4275 -10.9,6.002 0.0576,4.5745 6.344,6.1611 8.6835,5.1883 2.3395,-0.9728 7.0835,-8.2848 2.2165,-11.1903 z"
         id="path3118"
         inkscape:connector-curvature="0"
         sodipodi:nodetypes="sszs" />
      <path
         style="fill:#ffffff"
         d="m 300.00851,1400.2875 c 0.659,-7.3992 7.08099,-12.1457 14.16149,-8.7667 7.0805,3.379 6.89701,13.8281 -0.15154,17.2695 -7.04855,3.4414 -14.66895,-1.1036 -14.00995,-8.5028 z"
         id="path3116"
         inkscape:connector-curvature="0"
         sodipodi:nodetypes="zszz" />
      <path
         style="fill:#000000"
         d="m 351.80248,1397.1102 c 0.9046,4.8156 5.89635,5.5748 8.52385,3.5273 2.6275,-2.0475 4.08385,-6.6478 -0.28033,-8.9547 -4.36418,-2.3069 -9.14812,0.6119 -8.24352,5.4274 z"
         id="path3114"
         inkscape:connector-curvature="0" />
      <path
         style="fill:#000000"
         d="m -241.92,1407.2228 c 0.93765,-7.526 -7.0915,-12.78 -13.22,-10.76 -6.1285,2.02 -6.56683,10.495 -2.4725,15.45 4.09433,4.955 14.75485,2.836 15.6925,-4.69 z"
         id="path3112"
         inkscape:connector-curvature="0" />
      <path
         style="fill:#ffffff"
         d="m -100.31,1400.7938 c 3.495,2.095 2.914,8.5291 -1.719,9.5 -4.633,0.9709 -7.762,-2.591 -6.719,-6.344 1.043,-3.753 4.943,-5.251 8.438,-3.156 z"
         id="path3110"
         inkscape:connector-curvature="0" />
      <path
         style="fill:#ffffff"
         d="m 184.09,1443.7638 c -8.61333,6.6013 -27.7065,0.057 -25.81,-12.34 1.8965,-12.3965 12.27,-17.888 23.53,-13.53 11.26,4.358 10.89333,19.2687 2.28,25.87 z"
         id="path3108"
         inkscape:connector-curvature="0" />
      <path
         style="fill:#ffffff"
         d="m -132.52,1466.6948 c -10.53344,-21.8526 6.3995,-45.6895 28.91,-44.94 22.5105,0.7495 33.067684,22.3253 27.501,41.1595 -5.566684,18.8342 -45.87756,25.6331 -56.411,3.7805 z"
         id="path3106"
         inkscape:connector-curvature="0" />
      <path
         style="fill:#000000"
         d="m 176.5712,1426.7318 c -3.7264,-1.5195 -7.3209,1.143 -7.5,4.593 -0.1791,3.45 4.6225,6.5377 8.2189,4.2188 3.5964,-2.3189 3.0075,-7.2923 -0.7189,-8.8118 z"
         id="path3104"
         inkscape:connector-curvature="0" />
      <path
         style="fill:#ffffff"
         d="m 207.79,1448.0738 c 3.1135,2.1055 3.024,7.029 -0.375,8.563 -3.399,1.534 -7.2929,-0.3881 -7.094,-4.375 0.1989,-3.9869 4.3555,-6.2935 7.469,-4.188 z"
         id="path3102"
         inkscape:connector-curvature="0" />
      <path
         style="fill:#000000"
         d="m -108.11,1452.0738 c -0.63388,2.8941 0.57795,7.1459 5.75,6.406 5.17205,-0.7399 5.938281,-8.5591 2.406,-10.06 -3.53228,-1.5009 -7.52212,0.7599 -8.156,3.654 z"
         id="path3100"
         inkscape:connector-curvature="0" />
      <path
         style="fill:#ffffff"
         d="m -56.3,1448.8868 c 3.4745,2.3525 2.852,8.4041 -1.781,9.375 -4.633,0.9709 -7.758,-2.7575 -6.625,-6.188 1.133,-3.4305 4.9315,-5.5395 8.406,-3.187 z"
         id="path3098"
         inkscape:connector-curvature="0" />
      <path
         style="fill:#ffffff"
         d="m 146.1,1457.5118 c -3.193,2.3045 -8.6041,-0.2373 -8.10115,-4.3353 0.50295,-4.0983 3.77215,-5.9297 7.35115,-4.4457 3.579,1.484 3.943,6.4765 0.75,8.781 z"
         id="path3096"
         inkscape:connector-curvature="0"
         sodipodi:nodetypes="szss" />
      <path
         style="fill:#ffffff"
         d="m -148.5,1449.5688 c 3.5215,2.106 1.6415,8.114 -1.489,9.35 -3.1305,1.236 -7.664,-1.096 -6.599,-5.793 1.065,-4.697 4.5665,-5.663 8.088,-3.557 z"
         id="path3094"
         inkscape:connector-curvature="0" />
      <path
         style="fill:#ffffff"
         d="m 169.275,1466.4768 c -0.16742,-4.8301 4.64233,-5.7227 7.782,-3.907 3.13967,1.8157 2.86403,6.2213 0.34335,7.969 -2.52068,1.7477 -7.95793,0.7681 -8.12535,-4.062 z"
         id="path3092"
         inkscape:connector-curvature="0" />
      <path
         style="fill:#ffffff"
         d="m 538.09,1476.4118 0.3125,-11.75 12.16,-0.5306 -0.16095,12.0303 z"
         id="path3090"
         inkscape:connector-curvature="0" />
      <path
         style="fill:#ffffff"
         d="m 487.34,1476.8852 -0.1616,-11.83 12.1,-0.238 0.1817,11.7884 z"
         id="path3088"
         inkscape:connector-curvature="0" />
      <path
         style="fill:#ffffff"
         d="m 434.62,1477.4781 0.0625,-11.78 12.47,0.092 -0.28215,11.689 z"
         id="path3086"
         inkscape:connector-curvature="0" />
      <path
         style="fill:#ffffff"
         d="m 51.35,1474.7521 c 0.416467,-5.4279 6.459334,-7.2814 9.914667,-5.2587 3.455333,2.0227 5.264333,7.3464 0.205333,10.79 -3.193948,2.1741 -10.536467,-0.1034 -10.12,-5.5313 z"
         id="path3084"
         inkscape:connector-curvature="0" />
      <path
         style="fill:#ffffff"
         d="m -101.93,1495.6031 c 3.3605,2.276 2.821,8.3101 -1.812,9.281 -4.633,0.9709 -8.352,-2.8295 -7,-6.062 1.352,-3.2325 5.4515,-5.495 8.812,-3.219 z"
         id="path114"
         inkscape:connector-curvature="0" />
    </g>
    <use
       id="use3165"
       xlink:href="#id_background_01"
       transform="translate(-1025,0)"
       height="360"
       width="640"
       y="0"
       x="0" />
    <use
       id="use3938"
       xlink:href="#id_background_01"
       transform="translate(1025,0)"
       height="360"
       width="640"
       y="0"
       x="0" />
  </g>
  <g
     id="id_button_1">
    <rect
       id="button_1_rect"
       height="36"
       width="36"
       y="236"
       x="1903"
       style="fill:url(#radialGradient4150)" />
    <path
       d="m 1903,236 0,36 36,0 0,-36 z m 2.375,1.437 c 10.3925,0.4845 25.385,-0.2008 31.7,-0.125 0.6822,12.3175 0.7196,23.1225 0.375,33.4325 -11.845,-0.32924 -19.2875,-0.333 -32.075,-0.3125 -0.3674,-9.88867 -1.2319,-19.07393 0,-32.995 z"
       inkscape:connector-curvature="0"
       style="fill:#000000"
       sodipodi:nodetypes="cccccccccc"
       id="path186" />
  </g>
  <g
     id="id_button_2">
    <use
       x="0"
       y="0"
       xlink:href="#button_1_rect"
       id="button_2_rect"
       transform="matrix(-1,0,0,1,3842,60)"
       width="640"
       height="360" />
    <path
       d="m 1939,296 0,36 -36,0 0,-36 z m -2.625,1.812 c -13.6,-0.26 -22.205,-0.4253 -31,-0.25 -0.5246,13.6 -0.3775,23.27 0.5,32.87 10.654,0.1667 20.7659,0.69014 31.2,0.5 0.8017,-17.57304 -0.1749,-24.33501 -0.7,-33.12 z"
       inkscape:connector-curvature="0"
       style="fill:#000000"
       sodipodi:nodetypes="cccccccccc"
       id="path190" />
  </g>
  <g
     id="id_button_3">
    <use
       height="360"
       width="640"
       transform="matrix(-1,0,0,1,3842,120)"
       id="button_3_rect"
       xlink:href="#button_1_rect"
       y="0"
       x="0" />
    <path
       d="m 1903,392 0,-36 36,0 0,36 z m 34.275,-1.312 c -0.3241,-8.43208 -0.1363,-23.06704 -0.125,-33.245 -11.605,-0.25 -21.14,-0.5267 -32.375,-0.375 0.2083,8.26 0.7587,23.32839 0.55,33.62 8.7913,0.16661 20.7685,0.25657 31.95,0 z"
       inkscape:connector-curvature="0"
       style="fill:#000000"
       sodipodi:nodetypes="cccccccccc"
       id="path194" />
  </g>
  <g
     id="id_button_4">
    <rect
       style="fill:url(#radialGradient4534)"
       x="1902"
       y="498"
       width="56"
       height="36"
       id="button_4_rect" />
    <path
       sodipodi:nodetypes="cccccccccc"
       style="fill:#000000"
       inkscape:connector-curvature="0"
       d="m 1902,498 0,36 56,0 0,-36 z m 2.375,1.437 c 17.3925,-0.5155 34.385,-0.7008 51.7,-0.125 0.6822,12.3175 0.7196,23.1225 0.375,33.4325 -18.345,-0.32924 -33.0375,-1.583 -52.075,-0.3125 -0.3674,-9.88867 -1.2319,-19.07393 0,-32.995 z"
       id="path198" />
  </g>
  <g
     id="id_button_5">
    <use
       x="0"
       y="0"
       xlink:href="#button_4_rect"
       id="button_5_rect"
       transform="translate(0,60)"
       width="640"
       height="360" />
    <path
       d="m 1958,558 0,36 -56,0 0,-36 z m -2.125,1.812 c -20.35,0.24 -39.455,-0.6753 -51.5,-0.25 -0.5246,13.6 -0.3775,23.27 0.5,32.87 21.904,-0.3333 36.5159,0.19014 51.2,0.5 -0.3233,-17.69804 0.3251,-24.33501 -0.2,-33.12 z"
       inkscape:connector-curvature="0"
       style="fill:#000000"
       sodipodi:nodetypes="cccccccccc"
       id="path202" />
  </g>
  <g
     id="id_button_6">
    <use
       x="0"
       y="0"
       xlink:href="#button_4_rect"
       id="button_6_rect"
       transform="translate(0,120)"
       width="640"
       height="360" />
    <path
       d="m 1902,654 0,-36 56,0 0,36 z m 54.275,-1.312 c -1.0741,-12.30708 -0.1363,-23.06704 -0.125,-33.245 -21.105,0 -31.89,-0.0267 -52.375,-0.375 0.2083,8.26 0.7587,23.32839 0.55,33.62 18.7913,-0.0834 34.2685,0.50657 51.95,0 z"
       inkscape:connector-curvature="0"
       style="fill:#000000"
       sodipodi:nodetypes="cccccccccc"
       id="path206" />
  </g>
  <g
     id="id_button_7">
    <rect
       style="fill:url(#radialGradient4901)"
       x="1903"
       y="747"
       width="76"
       height="36"
       id="button_7_rect" />
    <path
       sodipodi:nodetypes="cccccccccc"
       style="fill:#000000"
       inkscape:connector-curvature="0"
       d="m 1903,747 0,36 76,0 0,-36 z m 2.375,1.437 c 21.1425,-0.2655 50.385,-0.4508 71.7,-0.125 0.6822,12.3175 0.7196,23.1225 0.375,33.4325 -21.595,-0.32924 -47.2875,-2.083 -72.075,-0.3125 -0.3674,-9.88867 -1.2319,-19.07393 0,-32.995 z"
       id="path210" />
  </g>
  <g
     id="id_button_8">
    <use
       x="0"
       y="0"
       xlink:href="#button_7_rect"
       id="button_8_rect"
       transform="translate(0,60)"
       width="640"
       height="360" />
    <path
       id="rect3779-0-8-8-6"
       d="m 1979,807 0,36 -76,0 0,-36 z m -2.125,1.812 c -23.1,-0.01 -49.455,-0.1753 -71.5,-0.25 -0.5246,13.6 -0.3775,23.27 0.5,32.87 25.404,0.1667 46.5159,-0.55986 71.2,0.5 -0.3233,-17.69804 0.3251,-24.33501 -0.2,-33.12 z"
       inkscape:connector-curvature="0"
       style="fill:#000000"
       sodipodi:nodetypes="cccccccccc" />
  </g>
  <g
     id="id_button_9">
    <use
       x="0"
       y="0"
       xlink:href="#button_7_rect"
       id="button_9_rect"
       transform="translate(0,120)"
       width="640"
       height="360" />
    <path
       d="m 1903,903 0,-36 76,0 0,36 z m 74.275,-1.312 c -1.0741,-12.30708 -0.1363,-23.06704 -0.125,-33.245 -25.105,0 -47.39,0.9733 -72.375,-0.375 0.2083,8.26 0.7587,23.32839 0.55,33.62 23.5413,-0.5834 49.5185,0.50657 71.95,0 z"
       inkscape:connector-curvature="0"
       style="fill:#000000"
       sodipodi:nodetypes="cccccccccc"
       id="path217" />
  </g>
  <g
     id="id_button_10">
    <rect
       style="fill:url(#radialGradient5129)"
       x="1903"
       y="1001"
       width="100"
       height="36"
       id="button_10_rect" />
    <path
       sodipodi:nodetypes="cccccccccc"
       style="fill:#000000"
       inkscape:connector-curvature="0"
       d="m 1903,1001 0,36 100,0 0,-36 z m 2.375,1.437 c 31.1425,0.2345 65.385,0.049 95.7,-0.125 0.6822,12.3175 0.7196,23.1225 0.375,33.4325 -30.595,-0.8292 -60.7875,0.917 -96.075,-0.3125 -0.3674,-9.8887 -1.2319,-19.0739 0,-32.995 z"
       id="path221" />
  </g>
  <g
     id="id_button_11">
    <use
       x="0"
       y="0"
       xlink:href="#button_10_rect"
       id="button_11_rect"
       transform="translate(0,60)"
       width="640"
       height="360" />
    <path
       d="m 2003,1061 0,36 -100,0 0,-36 z m -2.125,1.812 c -29.1,0.49 -66.955,-0.1753 -95.5,-0.25 -0.5246,13.6 -0.3775,23.27 0.5,32.87 32.404,-0.3333 63.5159,-0.5599 95.2,0.5 -0.3233,-17.698 0.3251,-24.335 -0.2,-33.12 z"
       inkscape:connector-curvature="0"
       style="fill:#000000"
       sodipodi:nodetypes="cccccccccc"
       id="path225" />
  </g>
  <g
     id="id_button_12">
    <use
       x="0"
       y="0"
       xlink:href="#button_10_rect"
       id="button_12_rect"
       transform="translate(0,120)"
       width="640"
       height="360" />
    <path
       d="m 1903,1157 0,-36 100,0 0,36 z m 98.275,-1.312 c -1.0741,-12.3071 -0.1363,-23.067 -0.125,-33.245 -35.605,1 -64.39,0.9733 -96.375,-0.375 0.2083,8.26 0.7587,23.3284 0.55,33.62 31.5413,-0.5834 65.0185,0.01 95.95,0 z"
       inkscape:connector-curvature="0"
       style="fill:#000000"
       sodipodi:nodetypes="cccccccccc"
       id="path229" />
  </g>
  <g
     id="id_button_13">
    <rect
       style="fill:url(#radialGradient5294)"
       x="1903"
       y="1291"
       width="120"
       height="36"
       id="button_13_rect" />
    <path
       sodipodi:nodetypes="cccccccccc"
       style="fill:#000000"
       inkscape:connector-curvature="0"
       d="m 1903,1291 0,36 120,0 0,-36 z m 2.375,1.437 c 44.1425,0.7345 77.385,-0.451 115.7,-0.125 0.6822,12.3175 0.7196,23.1225 0.375,33.4325 -43.095,-1.8292 -73.2875,0.417 -116.075,-0.3125 -0.3674,-9.8887 -1.2319,-19.0739 0,-32.995 z"
       id="path233" />
  </g>
  <g
     id="id_button_14">
    <use
       x="0"
       y="0"
       xlink:href="#button_13_rect"
       id="button_14_rect"
       transform="translate(0,60)"
       width="640"
       height="360" />
    <path
       d="m 2023,1351 0,36 -120,0 0,-36 z m -2.125,1.812 c -37.6,0.49 -76.455,-0.6753 -115.5,-0.25 -0.5246,13.6 -0.3775,23.27 0.5,32.87 40.404,0.1667 76.5159,-0.06 115.2,0.5 -0.3233,-17.698 0.3251,-24.335 -0.2,-33.12 z"
       inkscape:connector-curvature="0"
       style="fill:#000000"
       sodipodi:nodetypes="cccccccccc"
       id="path237" />
  </g>
  <g
     id="id_button_15">
    <use
       x="0"
       y="0"
       xlink:href="#button_13_rect"
       id="button_15_rect"
       transform="translate(0,120)"
       width="640"
       height="360" />
    <path
       d="m 1903,1447 0,-36 120,0 0,36 z m 118.275,-1.312 c -1.0741,-12.3071 -0.1363,-23.067 -0.125,-33.245 -38.605,1 -74.89,-0.027 -116.375,-0.375 0.2083,8.26 0.7587,23.3284 0.55,33.62 42.0413,-0.5834 78.5185,0.01 115.95,0 z"
       inkscape:connector-curvature="0"
       style="fill:#000000"
       sodipodi:nodetypes="cccccccccc"
       id="path241" />
  </g>
  <g
     id="id_button_16">
    <rect
       style="fill:url(#radialGradient5434)"
       x="1903"
       y="1581"
       width="140"
       height="36"
       id="button_16_rect" />
    <path
       sodipodi:nodetypes="cccccccccc"
       style="fill:#000000"
       inkscape:connector-curvature="0"
       d="m 1903,1581 0,36 140,0 0,-36 z m 2.375,1.437 c 53.3349,1.4416 85.3642,-0.451 135.7,-0.125 0.6822,12.3175 0.7196,23.1225 0.375,33.4325 -48.7519,-1.1221 -83.388,-0.2901 -136.075,-0.3125 -0.3674,-9.8887 -1.2319,-19.0739 0,-32.995 z"
       id="path245" />
  </g>
  <g
     id="id_button_17">
    <use
       x="0"
       y="0"
       xlink:href="#button_16_rect"
       id="button_17_rect"
       transform="translate(0,60)"
       width="640"
       height="360" />
    <path
       d="m 2043,1641 0,36 -140,0 0,-36 z m -2.125,1.812 c -45.3782,-0.2171 -86.5555,-1.3824 -135.5,-0.25 -0.5246,13.6 -0.3775,23.27 0.5,32.87 50.3035,0.1667 87.3235,0.6471 135.2,0.5 -0.3233,-17.698 0.3251,-24.335 -0.2,-33.12 z"
       inkscape:connector-curvature="0"
       style="fill:#000000"
       sodipodi:nodetypes="cccccccccc"
       id="path249" />
  </g>
  <g
     id="id_button_18">
    <use
       x="0"
       y="0"
       xlink:href="#button_16_rect"
       id="button_18_rect"
       transform="translate(0,120)"
       width="640"
       height="360" />
    <path
       d="m 1903,1737 0,-36 140,0 0,36 z m 138.275,-1.312 c -1.0741,-12.3071 -0.1363,-23.067 -0.125,-33.245 -47.0903,1.7071 -86.4047,-2.1483 -136.375,-0.375 0.2083,8.26 0.7587,23.3284 0.55,33.62 47.6982,-0.5834 92.8616,-1.4042 135.95,0 z"
       inkscape:connector-curvature="0"
       style="fill:#000000"
       sodipodi:nodetypes="cccccccccc"
       id="path253" />
  </g>
  <g
     id="id_volumebar_20">
    <path
       sodipodi:nodetypes="zzzzz"
       inkscape:connector-curvature="0"
       id="path3151-75"
       d="m 817.46275,277.58199 c -1.25602,0.008 -1.0825,0.99999 -1.09612,1.5181 -0.0136,0.51811 -0.0233,1.62728 1.09612,1.65256 1.11941,0.0253 1.54646,-0.83392 1.50944,-1.63905 -0.037,-0.80513 -0.25342,-1.53952 -1.50944,-1.53161 z"
       style="fill:#eeeeee;fill-opacity:0.58039216;stroke:none" />
    <rect
       y="253.69821"
       x="814.71967"
       height="28.749998"
       width="6.1167221"
       id="rect3978-6"
       style="fill:none;fill-opacity:0.58039216000000005;stroke:none" />
  </g>
  <g
     id="id_volumebar_40">
    <path
       sodipodi:nodetypes="zzzzz"
       inkscape:connector-curvature="0"
       id="path3151-7"
       d="m 823.92518,272.7279 c -1.46477,0.0416 -1.12646,1.08683 -1.09612,3.79194 0.0303,2.70511 -0.0233,4.14266 1.25237,4.12776 1.27566,-0.0149 1.44504,-0.59819 1.35319,-4.09402 -0.0919,-3.49583 -0.0447,-3.86728 -1.50944,-3.82568 z"
       style="fill:#eeeeee;fill-opacity:0.58039216;stroke:none" />
    <rect
       y="253.69821"
       x="821.13934"
       height="28.749998"
       width="6.1167221"
       id="rect3978-5"
       style="fill:none;fill-opacity:0.58039216000000005;stroke:none" />
  </g>
  <g
     id="id_volumebar_60">
    <path
       sodipodi:nodetypes="zszsz"
       inkscape:connector-curvature="0"
       id="path3151-8"
       d="m 830.38762,267.85389 c -1.65227,0.0672 -0.91755,1.36182 -1.09612,6.12561 -0.19825,5.28857 -0.39829,6.69218 1.09612,6.6681 1.49441,-0.024 1.66705,-1.36244 1.50944,-6.6136 -0.15109,-5.03374 0.14283,-6.24726 -1.50944,-6.18011 z"
       style="fill:#eeeeee;fill-opacity:0.58039216;stroke:none" />
    <rect
       y="253.69821"
       x="827.55902"
       height="28.749998"
       width="6.1167221"
       id="rect3978-7"
       style="fill:none;fill-opacity:0.58039216000000005;stroke:none" />
  </g>
  <g
     id="id_volumebar_80">
    <path
       sodipodi:nodetypes="zzzzz"
       inkscape:connector-curvature="0"
       id="path3151-9"
       d="m 836.85005,261.73013 c -1.65227,0.0993 -1.34521,0.50068 -1.09612,9.05765 0.24909,8.55697 -0.39829,9.89542 1.09612,9.85982 1.49441,-0.0355 1.47629,-0.55033 1.50944,-9.77922 0.0331,-9.22889 0.14283,-9.23753 -1.50944,-9.13825 z"
       style="fill:#eeeeee;fill-opacity:0.58039216;stroke:none" />
    <rect
       y="253.69821"
       x="833.9787"
       height="28.749998"
       width="6.1167221"
       id="rect3978-4"
       style="fill:none;fill-opacity:0.58039216000000005;stroke:none" />
  </g>
  <g
     id="id_volumebar_100">
    <path
       sodipodi:nodetypes="zszsz"
       inkscape:connector-curvature="0"
       id="path3151"
       d="m 843.31246,255.74904 c -2.27727,0.0676 -1.22895,1.82641 -1.22112,11.87003 0.009,11.68745 -0.27329,12.84286 1.22112,12.92126 1.49441,0.0784 1.65072,0.1121 1.50944,-12.81564 -0.11273,-10.3153 0.76783,-12.04325 -1.50944,-11.97565 z"
       style="fill:#eeeeee;fill-opacity:0.58039216;stroke:none" />
    <rect
       y="253.69821"
       x="840.39838"
       height="28.749998"
       width="6.1167221"
       id="rect3978"
       style="fill:none;fill-opacity:0.58039216000000005;stroke:none" />
  </g>
  <path
     id="id_title"
     d="m 5,11 0,29 138,0 0,-29 z m 63.675823,5.034298 c 0.22,-0.01 0.48,0 0.65,0.03 0.34,0.04 0.7,0.13 0.75,0.37 0,0.41 -0.01,0.96 -0.03,1.36 l -0.22,4.04 c 0.02,0.67 -0.24,0.9 -0.44,0.93 -0.39,0.07 -0.94,0.08 -1.34,0 -0.19,-0.48 -0.42,-0.69 -0.44,-0.9 -0.08,-1.61 -0.19,-3.73 -0.28,-5.34 0.01,-0.25 0.36,-0.39 0.57,-0.43 0.24,-0.03 0.55,-0.06 0.78,-0.06 z m 13.2,0.12 c 0.23,0 0.52,0.01 0.69,0.03 0.34,0.05 0.7,0.13 0.75,0.37 -0.01,0.41 -0.05,0.96 -0.06,1.37 l -0.22,4.03 c 0.02,0.56 -0.24,0.78 -0.44,0.81 -0.4,0.07 -0.95,0.08 -1.34,0 -0.19,-0.37 -0.43,-0.6 -0.44,-0.81 -0.09,-1.6 -0.2,-3.73 -0.28,-5.34 0.01,-0.24 0.36,-0.36 0.56,-0.4 0.25,-0.04 0.56,-0.06 0.78,-0.06 z m -25.54,0.59 c 0.61,0 1.35,0.27 1.31,0.71 l 0.41,5.9 c 0.89,-1.05 2.65,-1.96 4.06,-1.83 1.29,0 2.85,1.04 3.31,2.23 0.55,1.37 0.51,3.34 0.65,4.78 l 0.32,4.54 c -0.24,0.66 -1.39,0.55 -1.97,0.65 -0.49,0.07 -1.36,-0.12 -1.25,-0.75 -0.15,-1.97 -0.3,-4.61 -0.47,-6.58 -0.07,-0.84 -0.74,-2.03 -1.68,-2.08 -1.13,-0.1 -2.17,1.09 -2.75,1.9 l 0.5,7.38 c -0.21,0.65 -1.32,0.53 -1.87,0.62 -0.46,0.04 -1.43,0 -1.35,-0.65 l -1.12,-16.17 c 0.19,-0.67 1.34,-0.56 1.9,-0.65 z m -31.34,0.19 c 0.52,0.06 0.5,0.92 0.56,1.3 0.04,0.46 0.02,1.47 -0.66,1.4 l -3.84,0.21 0.75,13.07 c -0.21,0.65 -1.32,0.53 -1.87,0.62 -0.46,-0.01 -1.51,0.08 -1.5,-0.59 l -0.75,-12.91 -4.09,0.25 c -0.66,-0.24 -0.52,-1.38 -0.56,-1.96 -0.07,-0.5 0.43,-0.83 0.87,-0.77 z m 61.53,0.34 c 0.49,0.03 1.54,-0.09 1.6,0.59 l 0.56,13.22 5.24,-0.22 c 0.54,0.05 0.55,0.99 0.6,1.37 0,0.45 0.03,1.44 -0.63,1.43 -2.28,0.09 -5.3,0.25 -7.58,0.34 -0.57,0.02 -1.03,-0.69 -0.97,-1.21 l -0.63,-14.9 c 0.2,-0.63 1.28,-0.54 1.81,-0.62 z m 25.959997,3.88 c 1,0.29 2.1,1.34 2.3,2.42 0.3,1.15 0.1,2.74 0.1,3.91 l -0.3,5.71 c -0.2,0.58 -1.1,0.37 -1.6,0.4 -0.4,0 -1.1,-0.17 -1,-0.71 0,-0.22 0,-0.49 0.1,-0.71 -1,0.97 -2.8,1.56 -4.1,1.36 -1.2,-0.12 -2.8,-0.96 -3.2,-2.14 -0.4,-1.07 -0.3,-2.75 0.4,-3.69 0.8,-1.08 2.6,-1.54 3.8,-1.62 0.9,-0.06 2,-0.01 2.8,0.03 0.1,-0.75 0.2,-1.88 -0.4,-2.45 -0.7,-0.5 -1.8,-0.5 -2.6,-0.43 -0.8,0.11 -1.8,0.56 -2.6,0.9 -0.6,0.19 -0.8,-0.79 -0.7,-1.21 -0.1,-0.56 0.3,-1.26 0.8,-1.43 1,-0.43 2.4,-0.74 3.4,-0.75 0.9,0 2,0.17 2.8,0.41 z m 10.1,0.4 c 0.3,0.36 0.2,1.03 0.3,1.46 -0.1,0.43 0.1,1.25 -0.4,1.49 -0.4,-0.03 -1,-0.35 -1.5,-0.25 -0.8,0.18 -1.5,1.14 -2,1.8 -0.1,0.21 -0.1,0.58 -0.1,0.84 0,1.93 0.1,4.49 0.1,6.42 -0.1,0.44 -0.9,0.42 -1.2,0.47 -0.6,-0.01 -1.3,0.05 -1.8,-0.22 -0.2,-0.2 -0.1,-0.58 -0.1,-0.84 -0.1,-3.22 -0.2,-7.52 -0.2,-10.74 0.2,-0.47 1,-0.41 1.3,-0.46 0,0.03 0.7,-0.05 0.9,0.43 l 0,1.46 c 1,-0.74 1.8,-1.75 2.7,-2.05 0.2,-0.04 0.4,-0.08 0.7,-0.1 0.3,-0.01 0.9,0.17 1.3,0.29 z m 2.6,0.21 c 0.5,0 1.2,-0.09 1.2,0.47 -0.1,0.35 -0.1,0.81 -0.1,1.15 1,-0.97 2.7,-1.94 4.1,-1.8 1.2,0.04 2.7,0.88 3.3,1.99 0.6,1.34 0.4,3.31 0.4,4.75 l -0.3,5.27 c -0.1,0.56 -1.1,0.4 -1.5,0.44 -0.5,-0.08 -1.5,0.02 -1.6,-0.56 0.1,-2.05 0.2,-4.78 0.3,-6.83 0,-0.8 -0.4,-2 -1.2,-2.27 -0.8,-0.29 -1.9,0.24 -2.4,0.78 -0.3,0.28 -0.8,0.63 -0.8,1.06 l -0.3,7.04 c -0.2,0.56 -1.1,0.4 -1.6,0.44 -0.5,-0.08 -1.6,0 -1.6,-0.59 l 0.6,-11.12 c 0.7,-0.51 1,-0.22 1.5,-0.22 z m -48.119997,-0.18 c 1.2,0.01 2.74,0.86 3.25,1.96 0.64,1.32 0.47,3.27 0.47,4.68 l -0.09,5.16 c -0.17,0.55 -1.11,0.38 -1.56,0.43 -0.46,-0.07 -1.42,0.07 -1.57,-0.5 0.04,-2.02 0.11,-4.74 0.13,-6.76 0,-0.79 -0.4,-1.96 -1.25,-2.21 -0.8,-0.26 -1.86,0.29 -2.4,0.84 -0.24,0.29 -0.74,0.64 -0.66,1.06 l -0.12,6.98 c -0.18,0.56 -1.14,0.42 -1.6,0.47 -0.45,-0.07 -1.41,0.03 -1.56,-0.53 l 0.22,-11.02 c 0.15,-0.57 1.11,-0.43 1.56,-0.47 0.39,0.02 1.2,0.1 1.13,0.66 -0.01,0.34 -0.03,0.8 -0.04,1.14 1.18,-1.11 2.56,-1.93 4.09,-1.89 z m 22.17,0.31 c 0.24,0 0.55,0.01 0.75,0.03 0.799997,0.04 1.799997,0.34 2.399997,0.81 1.2,0.86 1.8,2.73 1.9,4.1 0.1,0.46 -0.1,1.22 -0.6,1.3 -1.9,0.23 -4.389997,0.5 -6.259997,0.71 -0.45,-0.07 -0.22,0.48 -0.19,0.75 0.16,0.81 0.97,1.73 1.81,1.86 1.239997,0.23 2.939997,-0.26 4.039997,-0.77 0.4,-0.27 1.2,-0.47 1.2,0.24 0,0.49 0.2,1.28 -0.2,1.65 -0.8,0.5 -2,0.85 -2.9,1.05 -1.419997,0.27 -3.439997,0.31 -4.729997,-0.43 -1.11,-0.62 -1.98,-2.18 -2.24,-3.38 -0.38,-1.66 -0.4,-4.09 0.53,-5.59 0.82,-1.37 2.92,-2.32 4.49,-2.33 z m -63.07,0.16 c 0.74,-0.04 1.62,0.28 1.66,0.52 -0.02,1.94 -0.09,4.52 -0.09,6.46 -0.01,0.74 0.38,1.84 1.15,2.11 0.72,0.28 1.7,-0.15 2.22,-0.65 0.23,-0.3 0.82,-0.64 0.81,-1.06 l 0.06,-6.79 c 0.18,-0.56 1.16,-0.42 1.62,-0.47 0.41,0.05 1.3,-0.02 1.38,0.53 l -0.16,10.55 c -0.14,0.55 -1.03,0.43 -1.46,0.47 -0.74,-0.02 -1.54,-0.09 -1.47,-0.62 l 0,-1.09 c -0.54,0.97 -2.12,1.94 -3.5,1.83 -1.12,-0.01 -2.58,-0.75 -3.09,-1.77 -0.65,-1.24 -0.53,-3.12 -0.53,-4.47 l 0.03,-5.06 c 0.34,-0.29 0.93,-0.47 1.37,-0.49 z m 14.43,0.06 c 0.93,-0.03 2.14,0.28 2.93,0.77 0.44,0.22 0.58,0.84 0.57,1.28 -0.03,0.43 0.04,1.13 -0.35,1.42 -0.5,0.04 -0.93,-0.55 -1.37,-0.71 -0.81,-0.42 -2.24,-0.43 -2.94,0.22 -0.77,0.76 -0.92,2.27 -0.9,3.29 0.03,0.91 0.31,2.24 1.12,2.79 0.81,0.5 2.22,0.37 3,-0.12 0.39,-0.13 1,-1 1.37,-0.5 0.1,0.33 0.09,0.78 0.1,1.12 -0.02,0.45 0.01,1.19 -0.44,1.46 -1.32,0.87 -3.56,1.07 -5.06,0.62 -1.17,-0.35 -2.35,-1.6 -2.75,-2.73 -0.47,-1.35 -0.49,-3.27 -0.25,-4.66 0.27,-1.37 1.32,-3.08 2.63,-3.69 0.65,-0.3 1.61,-0.54 2.34,-0.56 z m -21.89,0.09 c 0.74,0.02 1.71,0.19 2.41,0.41 1.21,0.37 2.55,1.62 2.9,2.85 0.28,0.89 0.31,2.12 0.22,3.04 -0.15,1.54 -0.99,3.6 -2.31,4.5 -1.39,0.96 -3.76,1 -5.34,0.59 -1.32,-0.33 -2.81,-1.56 -3.22,-2.88 -0.42,-1.36 -0.33,-3.3 0.03,-4.66 0.37,-1.34 1.61,-2.9 2.94,-3.41 0.68,-0.28 1.64,-0.45 2.37,-0.44 z m 70.13,1.83 c -0.28,0.03 -0.64,0.14 -0.88,0.28 -0.84,0.47 -1.14,1.79 -1.09,2.67 l 4.419997,-0.49 c 0.1,-0.28 -0.1,-0.92 -0.2,-1.25 -0.3,-0.78 -1.459997,-1.29 -2.249997,-1.21 z m -70.28,0.5 c -0.21,0.02 -0.46,0.09 -0.66,0.15 -0.96,0.36 -1.54,1.68 -1.69,2.61 -0.13,1 -0.19,2.46 0.38,3.35 0.55,0.79 1.93,1.06 2.81,0.81 0.94,-0.3 1.56,-1.56 1.72,-2.45 0.04,-0.2 0.07,-0.48 0.09,-0.68 0.08,-0.97 0.03,-2.43 -0.72,-3.17 -0.46,-0.43 -1.31,-0.67 -1.93,-0.62 z m 81.529997,3.54 c -0.6,0 -1.2,0.09 -1.7,0.31 -0.9,0.43 -1,2.32 0,2.76 0.8,0.38 2,0.08 2.7,-0.5 0.2,-0.23 0.7,-0.5 0.6,-0.9 l 0,-1.58 c -0.5,-0.01 -1.1,-0.09 -1.6,-0.09 z"
     inkscape:connector-curvature="0"
     style="fill:#000000"
     sodipodi:nodetypes="ccccccccccccccccscccccccccscccccccccccccccccccccccccccccccccccccccccccccccccscccccccccccccscccccccccccsccccccccccccccccscccccccccccccccccccccccccccsccccccccccccccccccccccccccccccccccccccccccccccccccccccccccccccccccscccccs" />
  <g
     id="id_colorblot_1">
    <path
       sodipodi:nodetypes="zssssssssscssssszzczzc"
       inkscape:connector-curvature="0"
       id="id_colorblot_1_mask"
       d="m 689.13112,589.08731 c -2.99407,-5.17355 -7.06333,-1.61639 -6.13296,1.56006 1.14508,3.90948 2.31127,4.72066 1.43842,7.46783 -0.84394,2.65618 -6.66986,4.57229 -9.18658,13.8848 -1.22491,4.53248 0.71044,8.18066 -1.71875,11.125 -2.42919,2.94434 -6.00663,-0.40441 -10.0625,1.625 -4.05588,2.02941 -4.6269,7.81975 0.15625,9.34375 4.78315,1.52401 7.28814,-3.62835 10.4375,-3.375 10.34744,0.8324 4.71084,8.53628 23.28125,14.59375 1.75515,0.57251 1.59276,3.03491 2.8125,2.96875 1.02006,-0.0553 2.93479,-2.16245 3.90625,-2.21875 10.63087,-0.61641 21.31494,-16.61394 19.46599,-27.44606 -1.37484,-8.05454 5.97669,0.4802 11.77789,0.0849 5.8012,-0.39533 7.08211,-8.87596 0.42865,-10.19915 -6.65349,-1.32315 -9.23975,3.56429 -11.45282,-0.0438 -3.80621,-6.20548 -12.22149,-15.24101 -27.09467,-11.64585 -6.29652,1.522 -5.0623,-2.55164 -8.05638,-7.72519 z m 10.34651,60.27881 c -0.52509,-0.0479 -3.26572,1.60778 -3.97763,4.16513 -0.71191,2.55735 3.50423,3.20026 4.3125,0.875 0.80827,-2.32526 0.19023,-4.9922 -0.33487,-5.04013 z"
       style="fill:#000000;fill-opacity:1;stroke:none" />
    <g
       id="id_colorblot_1_highlight">
      <path
         id="path3965"
         d="m 684.00758,589.18214 c -0.28847,1.02926 0.16532,2.84877 1.08617,2.99242 0.92085,0.14365 0.51289,-1.22099 0.84911,-2.34153 0.33622,-1.12054 1.15691,-1.11882 0.60984,-1.96117 -0.54707,-0.84235 -2.25665,0.28102 -2.54512,1.31028 z"
         style="fill:#ffffff;fill-opacity:0.66666667;stroke:none"
         inkscape:connector-curvature="0" />
      <path
         id="path3963"
         d="m 677.72633,608.86964 c -0.73123,1.97919 -2.01142,6.72453 -0.875,6.625 1.13643,-0.0995 1.502,-3.30988 2.72097,-5.89331 1.21897,-2.58343 2.81641,-5.27007 2.27413,-5.72319 -0.54228,-0.45312 -3.38887,3.01231 -4.1201,4.9915 z"
         style="fill:#ffffff;fill-opacity:0.66666667;stroke:none"
         inkscape:connector-curvature="0" />
      <path
         id="path3961"
         d="m 662.81472,626.80936 c -0.80029,0.85234 -1.08649,2.93702 -0.28125,3.40625 0.80524,0.46923 0.83766,-1.40518 1.78125,-2.3125 0.94359,-0.90732 3.27668,-1.47145 2.21875,-2.1875 -1.05793,-0.71605 -2.91846,0.24141 -3.71875,1.09375 z"
         style="fill:#ffffff;fill-opacity:0.66666667;stroke:none"
         inkscape:connector-curvature="0" />
      <path
         id="path3992"
         d="m 697.0625,651.84375 c -0.33138,0.43585 -1.07102,1.51806 -0.37657,1.68593 0.69445,0.16787 0.64474,-0.6642 1.16318,-1.2415 0.51844,-0.5773 0.91989,-1.52435 0.55714,-1.60068 -0.36275,-0.0763 -1.01237,0.7204 -1.34375,1.15625 z"
         style="fill:#ffffff;fill-opacity:0.66666667;stroke:none"
         inkscape:connector-curvature="0" />
      <path
         sodipodi:nodetypes="sssss"
         id="path3965-8"
         d="m 732.1278,609.25988 c -1.77223,0.1126 -4.06493,1.29635 -3.56545,2.08319 0.49948,0.78684 2.67021,-0.24318 4.08771,-0.42031 1.16086,-0.14505 1.91338,0.39664 2.18559,-0.57018 0.27221,-0.96683 -1.11851,-1.19369 -2.70785,-1.0927 z"
         style="fill:#ffffff;fill-opacity:0.66666667;stroke:none"
         inkscape:connector-curvature="0" />
    </g>
    <rect
       y="583.70416"
       x="658.10211"
       height="74.757355"
       width="85.39949"
       id="rect4053"
       style="fill:none" />
  </g>
  <g
     id="id_colorblot_2">
    <path
       style="fill:#000000;fill-opacity:1;stroke:none"
       d="m 807.59283,587.8763 c -2.4015,2.07952 -1.98835,6.19333 0.75314,6.93176 2.74149,0.73843 5.31417,-0.75686 5.39293,-4.29604 0.0788,-3.53917 -3.74457,-4.71524 -6.14607,-2.63572 z m -4.62408,8.59245 c -14.5397,0.0265 -15.08754,4.38664 -22.3125,10.78125 -7.22496,6.39461 -3.38966,3.48548 -9.09375,2.6875 -5.70409,-0.79798 -7.55919,6.02008 -4.125,7.375 3.43419,1.35492 7.56022,-2.36033 8.375,1.875 0.81478,4.23533 -0.99925,6.19409 2.65625,11.15625 3.6555,4.96216 6.45218,2.91999 10.15625,6.40625 3.70407,3.48626 -5.01955,9.64601 -5.90625,14.09375 -0.8867,4.44774 4.58012,9.68504 8.71875,6.84375 4.13863,-2.84129 1.67999,-4.81745 6.25,-9.8125 4.57001,-4.99505 16.49133,-4.56654 20.57246,-7.46262 4.08113,-2.89609 6.16322,-1.92839 6.80254,-2.84988 0.63932,-0.92149 -4.18344,0.69112 -1.21875,-7.46875 2.96469,-8.15987 -6.3353,-33.65146 -20.875,-33.625 z m 24.2415,41.58931 c -0.32317,0.62589 0.91236,1.55065 2.45358,4.31851 1.54122,2.76786 5.44523,-0.10036 3.74242,-2.28282 -1.70281,-2.18246 -5.87283,-2.66158 -6.196,-2.03569 z"
       id="id_colorblot_2_mask"
       inkscape:connector-curvature="0"
       sodipodi:nodetypes="zzzzzzzzzzzzzzzzzzzzzz" />
    <g
       id="id_colorblot_2_highlight">
      <path
         id="path4000"
         d="m 785.87002,647.63913 c 0.93506,-1.5068 2.03344,-3.16452 2.6788,-2.63119 0.64535,0.53334 -0.57174,2.18431 -1.26702,3.67452 -0.69528,1.49021 -0.37292,3.41884 -1.7363,3.46187 -1.36338,0.043 -0.61054,-2.9984 0.32452,-4.5052 z"
         style="fill:#ffffff;fill-opacity:0.66666667;stroke:none"
         inkscape:connector-curvature="0" />
      <path
         id="path3998"
         d="m 768.00703,611.89516 c 0.65221,-0.87547 3.12253,-1.3246 3.45393,-0.66185 0.3314,0.66275 -1.17067,1.06527 -1.94089,1.70091 -0.77022,0.63564 -1.172,1.99834 -2.10983,1.83847 -0.93783,-0.15987 -0.0554,-2.00206 0.59679,-2.87753 z"
         style="fill:#ffffff;fill-opacity:0.66666667;stroke:none"
         inkscape:connector-curvature="0" />
      <path
         id="path3996"
         d="m 786.38697,603.42877 c 1.622,-1.81074 4.04397,-3.69329 4.71469,-2.90901 0.67073,0.78429 -1.80795,2.65683 -3.40192,4.11526 -1.59397,1.45843 -2.78836,4.19276 -4.09808,3.3433 -1.30972,-0.84946 1.16331,-2.73881 2.78531,-4.54955 z"
         style="fill:#ffffff;fill-opacity:0.66666667;stroke:none"
         inkscape:connector-curvature="0" />
      <path
         id="path4008"
         d="m 807.52297,589.48598 c 0.26658,-0.78615 2.36091,-2.42315 2.733,-1.53531 0.37209,0.88784 -0.71746,1.39194 -1.22645,2.26744 -0.50899,0.8755 -0.55039,1.89897 -1.33866,1.97628 -0.78827,0.0773 -0.43447,-1.92226 -0.16789,-2.70841 z"
         style="fill:#ffffff;fill-opacity:0.66666667;stroke:none"
         inkscape:connector-curvature="0" />
      <path
         id="path4008-0"
         d="m 828.49654,638.40547 c 0.22563,-0.16437 1.26198,-0.0326 1.46331,0.3686 0.20133,0.40117 -0.60506,0.26489 -0.89896,0.37135 -0.2939,0.10646 -0.27406,0.61994 -0.70154,0.17179 -0.42748,-0.44815 -0.0884,-0.74736 0.13719,-0.91174 z"
         style="fill:#ffffff;fill-opacity:0.66666667;stroke:none"
         inkscape:connector-curvature="0"
         sodipodi:nodetypes="zzzzz" />
    </g>
    <rect
       y="584.83661"
       x="762.53064"
       height="76.257355"
       width="74.39949"
       id="rect4053-5"
       style="fill:none" />
  </g>
  <g
     id="id_colorblot_3">
    <path
       style="fill:#000000;fill-opacity:1;stroke:none"
       d="m 874.62918,636.411 c 2.4015,2.07952 1.98835,6.19333 -0.75314,6.93176 -2.74149,0.73843 -5.31417,-0.75686 -5.39293,-4.29604 -0.0788,-3.53917 3.74457,-4.71524 6.14607,-2.63572 z m 16.12408,-35.65755 c 8.60643,-1.3463 4.95272,-3.96322 6.23496,-4.03801 2.02387,-0.11805 0.97203,2.39121 7.54179,2.70776 6.56976,0.31655 10.51588,5.04784 16.66075,10.4865 6.14487,5.43866 3.38966,9.98548 9.09375,9.1875 5.70409,-0.79798 7.55919,6.02008 4.125,7.375 -3.43419,1.35492 -7.56022,-2.36033 -8.375,1.875 -1.94288,7.56696 -4.47806,7.00745 -12.3125,14.3125 -3.70407,3.48626 -3.98045,2.14601 -4.09375,11.34375 -0.1133,9.19774 -9.58012,6.93504 -13.46875,2.09375 -3.88863,-4.84129 5.32001,-6.56745 2,-9.0625 -3.32001,-2.49505 -5.71862,0.01 -16.32246,-9.21262 -10.60384,-9.2226 0.30978,-35.72233 8.91621,-37.06863 z m 5.6335,-6.41069 c -0.51652,0.18395 -1.41236,-1.19935 -4.82858,-4.43149 -3.41622,-3.23214 2.17977,-5.10036 3.50758,-1.65782 1.32781,3.44254 1.83752,5.90536 1.321,6.08931 z"
       id="id_colorblot_3_mask"
       inkscape:connector-curvature="0"
       sodipodi:nodetypes="zzzzzszzzzcczzzzzzzzz" />
    <g
       id="id_colorblot_3_highlight">
      <path
         id="path4034"
         d="m 897.06507,652.27608 c 0.93506,-1.5068 2.2544,-2.10386 2.89976,-1.57053 0.64535,0.53334 -0.61593,0.81429 -1.31121,2.3045 -0.69528,1.49021 0.11319,1.91624 -0.71983,2.31282 -0.83305,0.39659 -1.80378,-1.53999 -0.86872,-3.04679 z"
         style="fill:#ffffff;fill-opacity:0.66666667;stroke:none"
         inkscape:connector-curvature="0" />
      <path
         id="path4032"
         d="m 870.38426,637.08977 c 0.96157,-0.91967 2.79107,-1.10364 3.12247,-0.44089 0.3314,0.66275 -1.08228,0.93269 -1.8525,1.56833 -0.77022,0.63564 -0.44279,1.97625 -1.46901,1.86057 -1.02622,-0.11568 -0.76253,-2.06835 0.19904,-2.98801 z"
         style="fill:#ffffff;fill-opacity:0.66666667;stroke:none"
         inkscape:connector-curvature="0" />
      <path
         id="path4030"
         d="m 886.03154,605.90097 c 1.622,-1.81074 4.23146,-3.6933 4.77719,-2.53401 0.54573,1.15929 -1.93295,2.96933 -3.52692,4.42776 -1.59397,1.45843 -2.97586,5.69276 -4.28558,4.8433 -1.30972,-0.84946 1.41331,-4.92631 3.03531,-6.73705 z"
         style="fill:#ffffff;fill-opacity:0.66666667;stroke:none"
         inkscape:connector-curvature="0" />
      <path
         id="path4042"
         d="m 891.39042,587.89702 c 0.26658,-0.78615 1.57236,-1.09197 1.92235,-0.69026 0.34998,0.40171 -0.22535,0.37012 -0.62382,1.04674 -0.39851,0.67663 0.45757,1.06215 -0.15392,1.33834 -0.6115,0.27618 -1.41119,-0.90867 -1.14461,-1.69482 z"
         style="fill:#ffffff;fill-opacity:0.66666667;stroke:none"
         inkscape:connector-curvature="0" />
      <path
         id="path4042-6"
         d="m 930.60988,619.81185 c 0.70009,-0.0612 2.07792,-0.30424 1.67445,0.66877 -0.40347,0.97301 -2.77423,1.06165 -3.15772,0.44314 -0.3835,-0.6185 0.78317,-1.05071 1.48327,-1.11191 z"
         style="fill:#ffffff;fill-opacity:0.66666667;stroke:none"
         inkscape:connector-curvature="0"
         inkscape:transform-center-x="1.3295045"
         inkscape:transform-center-y="-1.0105573"
         sodipodi:nodetypes="zzzz" />
    </g>
    <rect
       y="583.62134"
       x="865.55023"
       height="79.257355"
       width="72.89949"
       id="rect4053-5-3"
       style="fill:none" />
  </g>
</svg>
