<!-- Created with Inkscape (http://www.inkscape.org/) -->
<svg id="svg2" xmlns:rdf="http://www.w3.org/1999/02/22-rdf-syntax-ns#" xmlns="http://www.w3.org/2000/svg" height="1052" width="744.1" version="1.1" xmlns:cc="http://creativecommons.org/ns#" xmlns:xlink="http://www.w3.org/1999/xlink" xmlns:dc="http://purl.org/dc/elements/1.1/">
<metadata id="metadata7">
<rdf:RDF>
<cc:Work rdf:about="">
<dc:format>image/svg+xml</dc:format>
<dc:type rdf:resource="http://purl.org/dc/dcmitype/StillImage"/>
<dc:title/>
</cc:Work>
</rdf:RDF>
</metadata>
<g id="layer1">
<g id="background_1">
<path id="path3765" d="M188.9,89.9c3.1,73-60.1,109.3-113.2,95.7-53.04-13.6-91.96-78.1-43.57-142.1,48.39-64.08,153.7-26.53,156.7,46.43z" fill-rule="evenodd" fill="#000"/>
<path id="path3767" d="M99.68,12.39c-55.57-2.44-116.3,71.97-72.87,135.4,43.4,63.4,137.2,43.8,155.4-23.3,18.1-66.97-27-109.7-82.52-112.1zm72.62,89.41c-4.4,63.8-73.68,91.9-119.7,52.1-45.99-39.7-23.56-98.96,13.6-119.3,37.17-20.35,110.4,3.4,106.1,67.21z" fill-rule="evenodd" fill="#2f2fcf"/>
<path id="path3779" d="m164,111.6c-10.45,48.26-68.48,74.62-110.7,30.36-42.24-44.26-2.355-102.8,36.25-107.7,38.6-4.943,84.91,29.1,74.46,77.36z" fill-rule="evenodd" fill="#FFF"/>
<path id="path3782" d="m98.43,33.56c1.028,9.429,0.7165,13.9,0.7143,13.93,1.171-0.01479,2.385,0.1433,3.445-0.3138-0.1258-4.652-0.2396-9.311-0.9452-13.61z" fill="#000"/>
<use id="use3784" xlink:href="#path3782" transform="matrix(-0.03639416,-0.99950961,-1.1616796,0.03131355,211.95941,198.32775)" height="1052.3622" width="744.09448" y="0" x="0"/>
<use id="use3786" xlink:href="#path3782" transform="matrix(0.99502721,-0.09960347,-0.09148554,-0.91393003,4.4600702,206.08219)" height="1052.3622" width="744.09448" y="0" x="0"/>
<use id="use3788" xlink:href="#path3782" transform="matrix(-0.04345369,-0.99885791,-0.90842503,0.04777947,82.144846,198.08127)" height="1052.3622" width="744.09448" y="0" x="0"/>
<use id="use3814" xlink:href="#path3782" transform="matrix(0.8660254,0.5,-0.5,0.8660254,62.595006,-37.691543)" height="1052.3622" width="744.09448" y="0" x="0"/>
<use id="use3816" xlink:href="#path3782" transform="matrix(0.5,0.8660254,-0.8660254,0.5,137.14745,-37.223089)" height="1052.3622" width="744.09448" y="0" x="0"/>
<use id="use3820" xlink:href="#path3782" transform="matrix(-0.5,0.8660254,-0.8660254,-0.5,237.65811,62.060163)" height="1052.3622" width="744.09448" y="0" x="0"/>
<use id="use3822" xlink:href="#path3782" transform="matrix(-0.8660254,0.5,-0.5,-0.8660254,239.20994,135.09739)" height="1052.3622" width="744.09448" y="0" x="0"/>
<use id="use3826" xlink:href="#path3782" transform="matrix(-0.8660254,-0.5,0.5,-0.8660254,138.41145,236.11309)" height="1052.3622" width="744.09448" y="0" x="0"/>
<use id="use3828" xlink:href="#path3782" transform="matrix(-0.5,-0.8660254,0.8660254,-0.5,64.616652,237.66495)" height="1052.3622" width="744.09448" y="0" x="0"/>
<use id="use3832" xlink:href="#path3782" transform="matrix(0.5,-0.8660254,0.8660254,0.5,-36.651622,137.11901)" height="1052.3622" width="744.09448" y="0" x="0"/>
<use id="use3834" xlink:href="#path3782" transform="matrix(0.8660254,-0.5,0.5,0.8660254,-37.445859,62.314042)" height="1052.3622" width="744.09448" y="0" x="0"/>
<path id="path3773" d="M102.2,28.59c-60.13-2.67-89.72,63.62-64.13,105s82.58,55.27,118.1,8.95c35.5-46.32,6.11-111.3-53.98-113.9zm47.41,26.78c37.6,40.59,10.65,90.02-26.07,107.5-36.71,17.4-101.2-24-87.68-78.43,13.57-54.44,76.18-69.68,113.8-29.09z" fill-rule="evenodd" fill="#afcdfa"/>
</g>
<g id="minute_1">
<path id="path3836" d="M97.35,103.6c-0.75-13.28-0.12-37.53-0.12-37.53-1.648-0.08353-3.775,0.08309-8.081,1.389,0,0,8.62-18.87,11.62-19.45,2.997-0.5732,9.849,19.95,9.849,19.95-2.2-0.9332-4.712-2.093-6.313-1.768-0.7817,11.88-0.0151,24.47,0.5051,37z" fill="#000"/>
<path id="path3836-3" d="m98.21,102.8c-0.5615-12.03,0.2852-37.99,0.2852-37.99-1.222-0.07577-3.777-0.5244-6.968,0.6601,0,0,7.018-14.47,9.24-14.99,2.221-0.5199,7.585,15.26,7.585,15.26-1.843-1.412-4.293-1.141-5.469-0.8143-0.5794,10.77,0.336,26.08,0.7216,37.44z" fill="#2f2fcf"/>
</g>
<g id="hour_1">
<path id="path3836-5" d="m103.6,95.51c0.6657,13.26-0.0705,28.28-0.0705,28.28,1.648,0.095,2.955-0.0569,7.27-1.333,0,0-7.172,16.6-10.17,17.15-3.001,0.5524-8.448-17.81-8.448-17.81,2.193,0.9484,4.255,2.126,5.859,1.811,0.864-11.87,0.1216-15.44-0.3118-27.97z" fill="#000"/>
<path id="path3836-3-2" d="m102.8,96.29c0.4782,12.03-0.4854,28.77-0.4854,28.77,1.221,0.0842,2.952,0.5506,6.152-0.6118,0,0-5.54,12.46-7.765,12.97-2.225,0.5045-6.217-13.35-6.217-13.35,1.833,1.425,3.843,1.171,5.021,0.8522,0.654-10.77-0.2184-17.05-0.5252-28.42z" fill="#2f2fcf"/>
</g>
<g id="foreground_1" fill-rule="evenodd">
<path id="path3765-6" d="m107.8,98.29c0.4106,5.589-4.235,8.574-8.417,7.48-4.182-1.093-7.759-6.058-3.944-11.22,3.815-5.163,11.95-1.849,12.36,3.741z" fill="#000"/>
<path id="path3773-8" d="m101.1,93.49c-5.789-0.2046-6.989,6.716-4.433,9.271,2.556,2.556,5.666,2.731,8.477,0.2859s1.746-9.353-4.044-9.557zm1.842,3.956c1.303,1.582-0.009,3.808-1.582,4.073-1.573,0.2652-3.519-1.258-2.699-3.438,0.8204-2.18,2.978-2.218,4.281-0.6353z" fill="#afcdfa"/>
</g>
</g>
</svg>
