<!-- Created with Inkscape (http://www.inkscape.org/) -->
<svg id="svg2" xmlns:rdf="http://www.w3.org/1999/02/22-rdf-syntax-ns#" xmlns="http://www.w3.org/2000/svg" height="1052" width="744.1" version="1.1" xmlns:cc="http://creativecommons.org/ns#" xmlns:xlink="http://www.w3.org/1999/xlink" xmlns:dc="http://purl.org/dc/elements/1.1/">
<metadata id="metadata7">
<rdf:RDF>
<cc:Work rdf:about="">
<dc:format>image/svg+xml</dc:format>
<dc:type rdf:resource="http://purl.org/dc/dcmitype/StillImage"/>
<dc:title/>
</cc:Work>
</rdf:RDF>
</metadata>
<g id="layer1">
<g id="background_1">
<path id="path3765" d="M190.2,89.39c3.1,73.01-60.2,109.3-113.2,95.71-53.05-13.6-91.97-78.1-43.57-142.1,48.39-64.08,153.8-26.53,156.8,46.43z" fill-rule="evenodd" fill="#000"/>
<path id="path3767" d="M100.9,11.89c-55.53-2.445-116.2,71.96-72.82,135.4,43.39,63.4,137.2,43.8,155.3-23.3,18.2-66.98-26.9-109.7-82.5-112.1zm72.58,89.38c-4.4,63.8-73.62,91.9-119.6,52.1-45.98-39.7-23.56-98.96,13.6-119.3,37.11-20.36,110.4,3.39,106,67.21z" fill-rule="evenodd" fill="#2f2fcf"/>
<path id="path3779" d="m165.3,111.1c-10.45,48.26-68.48,74.62-110.7,30.36-42.24-44.26-2.355-102.8,36.25-107.7,38.6-4.943,84.91,29.1,74.46,77.36z" fill-rule="evenodd" fill="#FFF"/>
<path id="path3782" d="m99.69,33.05c1.028,9.429,0.7165,13.9,0.7143,13.93,1.171-0.01479,2.385,0.1433,3.445-0.3138-0.1258-4.652-0.2396-9.311-0.9452-13.61z" fill="#000"/>
<use id="use3784" xlink:href="#path3782" transform="matrix(-0.03639416,-0.99950961,-1.1616796,0.03131355,212.68132,199.10056)" height="1052.3622" width="744.09448" y="0" x="0"/>
<use id="use3786" xlink:href="#path3782" transform="matrix(0.99502721,-0.09960347,-0.09148554,-0.91393003,4.4201421,205.24128)" height="1052.3622" width="744.09448" y="0" x="0"/>
<use id="use3788" xlink:href="#path3782" transform="matrix(-0.04345369,-0.99885791,-0.90842503,0.04777947,83.003581,198.86157)" height="1052.3622" width="744.09448" y="0" x="0"/>
<use id="use3814" xlink:href="#path3782" transform="matrix(0.8660254,0.5,-0.5,0.8660254,62.511636,-38.390556)" height="1052.3622" width="744.09448" y="0" x="0"/>
<use id="use3816" xlink:href="#path3782" transform="matrix(0.5,0.8660254,-0.8660254,0.5,137.34139,-38.569149)" height="1052.3622" width="744.09448" y="0" x="0"/>
<use id="use3820" xlink:href="#path3782" transform="matrix(-0.5,0.8660254,-0.8660254,-0.5,239.11474,60.209026)" height="1052.3622" width="744.09448" y="0" x="0"/>
<use id="use3822" xlink:href="#path3782" transform="matrix(-0.8660254,0.5,-0.5,-0.8660254,241.31361,133.52356)" height="1052.3622" width="744.09448" y="0" x="0"/>
<use id="use3826" xlink:href="#path3782" transform="matrix(-0.8660254,-0.5,0.5,-0.8660254,141.0202,235.80195)" height="1052.3622" width="744.09448" y="0" x="0"/>
<use id="use3828" xlink:href="#path3782" transform="matrix(-0.5,-0.8660254,0.8660254,-0.5,66.948097,238.00086)" height="1052.3622" width="744.09448" y="0" x="0"/>
<use id="use3832" xlink:href="#path3782" transform="matrix(0.5,-0.8660254,0.8660254,0.5,-35.582868,137.95999)" height="1052.3622" width="744.09448" y="0" x="0"/>
<use id="use3834" xlink:href="#path3782" transform="matrix(0.8660254,-0.5,0.5,0.8660254,-37.024152,62.87772)" height="1052.3622" width="744.09448" y="0" x="0"/>
<path id="path3773" d="M103.4,28.09c-60.06-2.68-89.65,63.61-64.07,105,25.59,41.38,82.58,55.27,118.1,8.95,35.5-46.32,6.11-111.3-53.98-113.9zm47.41,26.78c37.6,40.59,10.65,90.02-26.07,107.5-36.65,17.4-101.2-24-87.62-78.43,13.58-54.45,76.12-69.69,113.7-29.1z" fill-rule="evenodd" fill="#afcdfa"/>
</g>
<g id="minute_1">
<path id="path3836" d="M98.28,101.7c-0.65-13.28-0.11-36-0.11-36-1.403-0.08353-3.213,0.08309-6.878,1.389,0,0,7.336-18.87,9.887-19.45,2.551-0.5732,8.976,19.95,8.976,19.95-1.872-0.9332-4.604-2.093-5.967-1.768-0.6653,11.88-0.0129,22.95,0.4299,35.48z" fill="#000"/>
<path id="path3836-3" d="m99,101.5c-0.4779-12.03,0.2427-37.11,0.2427-37.11-1.04-0.07577-3.214-0.5244-5.931,0.6601,0,0,5.973-14.47,7.864-14.99,1.891-0.5199,6.835,15.26,6.835,15.26-1.568-1.412-4.033-1.141-5.033-0.8143-0.4931,10.77,0.286,25.19,0.6142,36.56z" fill="#2f2fcf"/>
</g>
<g id="hour_1">
<path id="path3836-5" d="m103.5,96.14c0.6657,13.26-0.0705,28.28-0.0705,28.28,1.648,0.095,2.45-0.0569,6.765-1.333,0,0-6.667,16.6-9.668,17.15-3.001,0.5524-9.079-18.57-9.079-18.57,2.193,0.9484,4.886,2.883,6.49,2.569,0.864-11.87,0.1216-15.44-0.3118-27.97z" fill="#000"/>
<path id="path3836-3-2" d="m102.6,96.92c0.4782,12.03-0.4854,28.77-0.4854,28.77,1.221,0.0842,2.447,0.5506,5.647-0.6118,0,0-5.035,12.46-7.26,12.97-2.225,0.5045-6.722-13.6-6.722-13.6,1.833,1.425,4.348,1.423,5.526,1.105,0.654-10.77-0.2184-17.05-0.5252-28.42z" fill="#2f2fcf"/>
</g>
<g id="foreground_1" fill-rule="evenodd">
<path id="path3765-6" d="m107.8,98.29c0.4106,5.589-4.235,8.574-8.417,7.48-4.182-1.093-7.759-6.058-3.944-11.22,3.815-5.163,11.95-1.849,12.36,3.741z" fill="#000"/>
<path id="path3773-8" d="m101.1,93.49c-5.789-0.2046-6.989,6.716-4.433,9.271,2.556,2.556,5.666,2.731,8.477,0.2859s1.746-9.353-4.044-9.557zm1.842,3.956c1.303,1.582-0.009,3.808-1.582,4.073-1.573,0.2652-3.519-1.258-2.699-3.438,0.8204-2.18,2.978-2.218,4.281-0.6353z" fill="#afcdfa"/>
</g>
<g id="background_2">
<path id="path3765-7" d="M359.6,188.6c-73,3.1-109.3-60.2-95.8-113.2,13.6-53.04,78.1-91.96,142.2-43.57s26.5,153.8-46.4,156.8z" fill-rule="evenodd" fill="#000"/>
<path id="path3767-4" d="m437.1,99.35c2.444-55.57-71.96-116.3-135.4-72.87-63.4,43.39-43.8,137.2,23.21,155.3,67.02,18.14,109.7-26.91,112.2-82.48zm-89.38,72.58c-63.8-4.4-93.5-73.11-52.2-119.6s99.5-21.54,119.9,15.62c20.3,37.18-3.9,108.4-67.7,104z" fill-rule="evenodd" fill="#ffe680"/>
<path id="path3779-0" d="M336.5,168.6c-55.3-12.3-81.8-76.65-33.4-121.8,48.4-45.2,110.2-1.54,117.1,41.25,6.9,42.8-28.5,92.9-83.7,80.6z" fill-rule="evenodd" fill="#fff6d5"/>
<path id="path3782-9" d="m416.9,97.39c-9.429,1.028-13.9,0.7165-13.93,0.7143,0.0148,1.171-0.1433,2.385,0.3138,3.445,4.652-0.1258,9.311-0.2396,13.61-0.9452z" fill="#000"/>
<use id="use3784-4" xlink:href="#path3782-9" transform="matrix(0.03131355,1.1616796,0.99950961,-0.03639416,238.06983,-311.71012)" height="1052.3622" width="744.09448" y="0" x="0"/>
<use id="use3786-8" xlink:href="#path3782-9" transform="matrix(-0.91393003,0.09148554,0.09960347,0.99502721,655.17898,-36.756579)" height="1052.3622" width="744.09448" y="0" x="0"/>
<use id="use3788-8" xlink:href="#path3782-9" transform="matrix(0.04777947,0.90842503,0.99885791,-0.04345369,230.89822,-329.97395)" height="1052.3622" width="744.09448" y="0" x="0"/>
<use id="use3814-2" xlink:href="#path3782-9" transform="matrix(0.8660254,0.5,-0.5,0.8660254,96.510657,-161.30783)" height="1052.3622" width="744.09448" y="0" x="0"/>
<use id="use3816-4" xlink:href="#path3782-9" transform="matrix(0.5,0.8660254,-0.8660254,0.5,261.30084,-252.27351)" height="1052.3622" width="744.09448" y="0" x="0"/>
<use id="use3820-5" xlink:href="#path3782-9" transform="matrix(-0.5,0.8660254,-0.8660254,-0.5,611.72958,-153.31237)" height="1052.3622" width="744.09448" y="0" x="0"/>
<use id="use3822-5" xlink:href="#path3782-9" transform="matrix(-0.8660254,0.5,-0.5,-0.8660254,703.95795,14.003162)" height="1052.3622" width="744.09448" y="0" x="0"/>
<use id="use3826-1" xlink:href="#path3782-9" transform="matrix(-0.8660254,-0.5,0.5,-0.8660254,603.98669,360.89635)" height="1052.3622" width="744.09448" y="0" x="0"/>
<use id="use3828-7" xlink:href="#path3782-9" transform="matrix(-0.5,-0.8660254,0.8660254,-0.5,437.93382,451.35701)" height="1052.3622" width="744.09448" y="0" x="0"/>
<use id="use3832-1" xlink:href="#path3782-9" transform="matrix(0.5,-0.8660254,0.8660254,0.5,88.010148,351.13318)" height="1052.3622" width="744.09448" y="0" x="0"/>
<use id="use3834-1" xlink:href="#path3782-9" transform="matrix(0.8660254,-0.5,0.5,0.8660254,-2.4504856,186.84807)" height="1052.3622" width="744.09448" y="0" x="0"/>
</g>
<g id="minute_2">
<path id="path3836-3-2-2-4-4" d="m347.1,99.06,0.0714-50.3,5.771,0.2503,0.4062,50z" fill="#000"/>
<path id="path3836-3-2-2-7" d="m348,99.05,0.1921-49.05,3.699,0.2056,0.4024,48.85z" fill="#c8ab37"/>
</g>
<g id="hour_2">
<path id="path3836-3-2-2-4" d="m354.3,98.31c1.138,15.09-0.9026,35.28-0.9026,35.28l-6.685-0.1818s-0.4566-20.57-1.187-34.83c0.8327-6.212,8.882-4.331,8.774-0.2653z" fill="#000"/>
<path id="path3836-3-2-2" fill="#c8ab37" d="m350.1,95.9c-2.007,0.09097-3.378,1.349-3.54,3.357,0.5091,11.7,1.259,32.72,1.259,32.72l4.688,0.125s1.843-20.5,1.049-32.88c-0.0174-1.844-1.714-3.405-3.455-3.326zm1.395,2.783c0.3105,1.003-0.8557,2.192-2.013,1.835-1.158-0.3571-1.435-1.95-0.375-2.661,1.06-0.7113,2.078-0.1768,2.388,0.8264z"/>
</g>
<g id="background_3">
<path id="path3300" d="m687.3,97.9a83.57,82.5,0,1,1,-167.1,0,83.57,82.5,0,1,1,167.1,0z" fill-rule="evenodd" fill-opacity="0.62745098" fill="#a0a0a0"/>
<path id="path3782-3" d="m597.9,25.2c1.028,9.429,0.7165,13.9,0.7143,13.93,1.171-0.01479,2.385,0.1433,3.445-0.3138-0.1258-4.652-0.2396-9.311-0.9452-13.61z" fill="#000"/>
<use id="use3784-9" xlink:href="#path3782-3" transform="matrix(-0.03639416,-0.99950961,-1.1616796,0.03131355,726.95179,697.52034)" height="1052.3622" width="744.09448" y="0" x="0"/>
<use id="use3786-84" xlink:href="#path3782-3" transform="matrix(0.99502721,-0.09960347,-0.09148554,-0.91393003,6.432127,254.4901)" height="1052.3622" width="744.09448" y="0" x="0"/>
<use id="use3788-0" xlink:href="#path3782-3" transform="matrix(-0.04345369,-0.99885791,-0.90842503,0.04777947,588.88877,697.59099)" height="1052.3622" width="744.09448" y="0" x="0"/>
<use id="use3814-5" xlink:href="#path3782-3" transform="matrix(0.8660254,0.5,-0.5,0.8660254,131.39294,-284.74609)" height="1052.3622" width="744.09448" y="0" x="0"/>
<use id="use3816-42" xlink:href="#path3782-3" transform="matrix(0.5,0.8660254,-0.8660254,0.5,386.96123,-468.12489)" height="1052.3622" width="744.09448" y="0" x="0"/>
<use id="use3820-1" xlink:href="#path3782-3" transform="matrix(-0.5,0.8660254,-0.8660254,-0.5,985.15133,-372.64839)" height="1052.3622" width="744.09448" y="0" x="0"/>
<use id="use3822-0" xlink:href="#path3782-3" transform="matrix(-0.8660254,0.5,-0.5,-0.8660254,1170.5504,-116.82756)" height="1052.3622" width="744.09448" y="0" x="0"/>
<use id="use3826-7" xlink:href="#path3782-3" transform="matrix(-0.8660254,-0.5,0.5,-0.8660254,1071.7909,482.12011)" height="1052.3622" width="744.09448" y="0" x="0"/>
<use id="use3828-9" xlink:href="#path3782-3" transform="matrix(-0.5,-0.8660254,0.8660254,-0.5,815.2125,668.27685)" height="1052.3622" width="744.09448" y="0" x="0"/>
<use id="use3832-3" xlink:href="#path3782-3" transform="matrix(0.5,-0.8660254,0.8660254,0.5,214.74957,571.2851)" height="1052.3622" width="744.09448" y="0" x="0"/>
<use id="use3834-3" xlink:href="#path3782-3" transform="matrix(0.8660254,-0.5,0.5,0.8660254,28.845375,314.20162)" height="1052.3622" width="744.09448" y="0" x="0"/>
<path id="path3765-0" fill-rule="evenodd" fill="#000" d="m599.5,10.41c-24.71-0.1485-49.45,9.753-66.84,32.78-48.39,64.08-9.48,128.6,43.56,142.2,53.04,13.57,116.3-22.76,113.2-95.72-1.958-46.74-45.89-78.95-89.94-79.22zm-3.062,17.5c40.35-0.1702,84.22,35.58,73.5,85-11.44,52.71-74.95,81.5-121.2,33.16-46.23-48.34-2.569-112.3,39.69-117.7,2.641-0.3374,5.31-0.4887,8-0.5z"/>
<path id="path3767-48" d="M600.1,12.12c-55.5-2.441-116.2,71.96-72.8,135.4,43.4,63.4,137.2,43.8,155.3-23.2,18.2-67.04-26.9-109.7-82.5-112.2zm72.58,89.38c-4.393,63.79-73.64,91.92-119.6,52.16-45.99-39.77-23.56-98.99,13.6-119.3,37.16-20.35,110.4,3.397,106,67.19z" fill-rule="evenodd" fill="#808080"/>
</g>
<g id="minute_3">
<path id="path4070" d="m598.4,41.31,3.429,0.1154c-0.2685,27.28-0.1416,51.34,0.0532,67.5-1.285-0.1402-2.349-0.1271-3.54-0.0207,0.017-23.44-0.4069-43.04,0.0572-67.59z" fill="#000"/>
<path id="path4070-1" d="m601.1,42.01c-0.3254,26.75-0.0715,50.9,0.0271,66.36-0.7293-0.0157-1.512-0.0989-2.115-0.0288-0.1015-22.41-0.4005-54.62,0.0247-66.4z" fill="#5c5c5c"/>
</g>
<g id="hour_3">
<path id="path4070-12" d="m597.9,89.11,4.787,0.07931c-0.3748,18.74-0.7557,35.27-0.4837,46.37-1.794-0.0963-2.186-0.0873-3.848-0.0142,0.0237-16.1-1.104-29.57-0.4559-46.44z" fill="#000"/>
<path id="path4070-1-5" d="m602,89.68c-0.4542,18.38-0.4569,34.7-0.3193,45.32-1.018-0.0108-1.895-0.0679-2.736-0.0198-0.1417-15.4-1.005-37.26-0.4119-45.35z" fill="#5c5c5c"/>
</g>
<g id="foreground_3">
<path id="path3765-6-9" d="m603.9,98.93c0.2275,3.097-2.346,4.751-4.664,4.145-2.317-0.6058-4.299-3.357-2.185-6.217s6.621-1.024,6.849,2.073z" fill-rule="evenodd" fill="#000"/>
</g>
</g>
</svg>
