<!-- Created with Inkscape (http://www.inkscape.org/) -->
<svg id="svg2" xmlns:rdf="http://www.w3.org/1999/02/22-rdf-syntax-ns#" xmlns="http://www.w3.org/2000/svg" height="1052" width="744.1" version="1.1" xmlns:cc="http://creativecommons.org/ns#" xmlns:xlink="http://www.w3.org/1999/xlink" xmlns:dc="http://purl.org/dc/elements/1.1/">
<metadata id="metadata7">
<rdf:RDF>
<cc:Work rdf:about="">
<dc:format>image/svg+xml</dc:format>
<dc:type rdf:resource="http://purl.org/dc/dcmitype/StillImage"/>
<dc:title/>
</cc:Work>
</rdf:RDF>
</metadata>
<g id="layer1">
<g id="background_1">
<path id="path3765" d="M190.2,89.39c3.1,73.01-60.2,109.3-113.2,95.71-53.05-13.6-91.97-78.1-43.57-142.1,48.39-64.08,153.8-26.53,156.8,46.43z" fill-rule="evenodd" fill="#000"/>
<path id="path3767" d="M100.9,11.89c-55.53-2.445-116.2,71.96-72.82,135.4,43.39,63.4,137.2,43.8,155.3-23.3,18.2-66.98-26.9-109.7-82.5-112.1zm72.58,89.38c-4.4,63.8-73.62,91.9-119.6,52.1-45.98-39.7-23.56-98.96,13.6-119.3,37.11-20.36,110.4,3.39,106,67.21z" fill-rule="evenodd" fill="#2f2fcf"/>
<path id="path3779" d="m165.3,111.1c-10.45,48.26-68.48,74.62-110.7,30.36-42.24-44.26-2.355-102.8,36.25-107.7,38.6-4.943,84.91,29.1,74.46,77.36z" fill-rule="evenodd" fill="#FFF"/>
<path id="path3782" d="m99.69,33.05c1.028,9.429,0.7165,13.9,0.7143,13.93,1.171-0.01479,2.385,0.1433,3.445-0.3138-0.1258-4.652-0.2396-9.311-0.9452-13.61z" fill="#000"/>
<use id="use3784" xlink:href="#path3782" transform="matrix(-0.03639416,-0.99950961,-1.1616796,0.03131355,212.68132,199.10056)" height="1052.3622" width="744.09448" y="0" x="0"/>
<use id="use3786" xlink:href="#path3782" transform="matrix(0.99502721,-0.09960347,-0.09148554,-0.91393003,4.4201421,205.24128)" height="1052.3622" width="744.09448" y="0" x="0"/>
<use id="use3788" xlink:href="#path3782" transform="matrix(-0.04345369,-0.99885791,-0.90842503,0.04777947,83.003581,198.86157)" height="1052.3622" width="744.09448" y="0" x="0"/>
<use id="use3814" xlink:href="#path3782" transform="matrix(0.8660254,0.5,-0.5,0.8660254,62.511636,-38.390556)" height="1052.3622" width="744.09448" y="0" x="0"/>
<use id="use3816" xlink:href="#path3782" transform="matrix(0.5,0.8660254,-0.8660254,0.5,137.34139,-38.569149)" height="1052.3622" width="744.09448" y="0" x="0"/>
<use id="use3820" xlink:href="#path3782" transform="matrix(-0.5,0.8660254,-0.8660254,-0.5,239.11474,60.209026)" height="1052.3622" width="744.09448" y="0" x="0"/>
<use id="use3822" xlink:href="#path3782" transform="matrix(-0.8660254,0.5,-0.5,-0.8660254,241.31361,133.52356)" height="1052.3622" width="744.09448" y="0" x="0"/>
<use id="use3826" xlink:href="#path3782" transform="matrix(-0.8660254,-0.5,0.5,-0.8660254,141.0202,235.80195)" height="1052.3622" width="744.09448" y="0" x="0"/>
<use id="use3828" xlink:href="#path3782" transform="matrix(-0.5,-0.8660254,0.8660254,-0.5,66.948097,238.00086)" height="1052.3622" width="744.09448" y="0" x="0"/>
<use id="use3832" xlink:href="#path3782" transform="matrix(0.5,-0.8660254,0.8660254,0.5,-35.582868,137.95999)" height="1052.3622" width="744.09448" y="0" x="0"/>
<use id="use3834" xlink:href="#path3782" transform="matrix(0.8660254,-0.5,0.5,0.8660254,-37.024152,62.87772)" height="1052.3622" width="744.09448" y="0" x="0"/>
<path id="path3773" d="M103.4,28.09c-60.06-2.68-89.65,63.61-64.07,105,25.59,41.38,82.58,55.27,118.1,8.95,35.5-46.32,6.11-111.3-53.98-113.9zm47.41,26.78c37.6,40.59,10.65,90.02-26.07,107.5-36.65,17.4-101.2-24-87.62-78.43,13.58-54.45,76.12-69.69,113.7-29.1z" fill-rule="evenodd" fill="#afcdfa"/>
</g>
<g id="minute_1">
<path id="path3836" d="M98.28,101.7c-0.65-13.28-0.11-36-0.11-36-1.403-0.08353-3.213,0.08309-6.878,1.389,0,0,7.336-18.87,9.887-19.45,2.551-0.5732,8.976,19.95,8.976,19.95-1.872-0.9332-4.604-2.093-5.967-1.768-0.6653,11.88-0.0129,22.95,0.4299,35.48z" fill="#000"/>
<path id="path3836-3" d="m99,101.5c-0.4779-12.03,0.2427-37.11,0.2427-37.11-1.04-0.07577-3.214-0.5244-5.931,0.6601,0,0,5.973-14.47,7.864-14.99,1.891-0.5199,6.835,15.26,6.835,15.26-1.568-1.412-4.033-1.141-5.033-0.8143-0.4931,10.77,0.286,25.19,0.6142,36.56z" fill="#2f2fcf"/>
</g>
<g id="hour_1">
<path id="path3836-5" d="m103.5,96.14c0.6657,13.26-0.0705,28.28-0.0705,28.28,1.648,0.095,2.45-0.0569,6.765-1.333,0,0-6.667,16.6-9.668,17.15-3.001,0.5524-9.079-18.57-9.079-18.57,2.193,0.9484,4.886,2.883,6.49,2.569,0.864-11.87,0.1216-15.44-0.3118-27.97z" fill="#000"/>
<path id="path3836-3-2" d="m102.6,96.92c0.4782,12.03-0.4854,28.77-0.4854,28.77,1.221,0.0842,2.447,0.5506,5.647-0.6118,0,0-5.035,12.46-7.26,12.97-2.225,0.5045-6.722-13.6-6.722-13.6,1.833,1.425,4.348,1.423,5.526,1.105,0.654-10.77-0.2184-17.05-0.5252-28.42z" fill="#2f2fcf"/>
</g>
<g id="foreground_1" fill-rule="evenodd">
<path id="path3765-6" d="m107.8,98.29c0.4106,5.589-4.235,8.574-8.417,7.48-4.182-1.093-7.759-6.058-3.944-11.22,3.815-5.163,11.95-1.849,12.36,3.741z" fill="#000"/>
<path id="path3773-8" d="m101.1,93.49c-5.789-0.2046-6.989,6.716-4.433,9.271,2.556,2.556,5.666,2.731,8.477,0.2859s1.746-9.353-4.044-9.557zm1.842,3.956c1.303,1.582-0.009,3.808-1.582,4.073-1.573,0.2652-3.519-1.258-2.699-3.438,0.8204-2.18,2.978-2.218,4.281-0.6353z" fill="#afcdfa"/>
</g>
</g>
</svg>
