<svg id="svg2" xmlns:rdf="http://www.w3.org/1999/02/22-rdf-syntax-ns#" xmlns="http://www.w3.org/2000/svg" height="100%" viewBox="0 0 744.09448819 1052.3622047" width="100%" version="1.1" xmlns:cc="http://creativecommons.org/ns#" xmlns:xlink="http://www.w3.org/1999/xlink" xmlns:dc="http://purl.org/dc/elements/1.1/">
<rect id="rect3151" height="211.3" width="135.2" y="-9.488" x="-127.8" fill="#b3b3b3"/>
<g id="layer1" stroke="#232323">
<g id="apples" transform="translate(-14.29 -170)">
<path id="apple_red_1" d="m-37.63 235.4c3.92 15.66 6.525 20.57 15.44 15.37 7.912 5.627 10.15-1.926 14.61-14.88 4.468-12.95-5.078-21.65-15.28-14.76-5.452-6.069-18.7-1.39-14.78 14.27z" fill="#c60000"/>
<path id="apple_red_2" d="m-95.95 237c3.92 14.76 10.93 17.13 17.7 14.94 7.46 0.7818 12.63 2.706 15.97-14.47 3.337-17.18-9.598-16.78-16.86-14.14-5.678-3.007-20.73-1.084-16.81 13.68z" fill="#c60000"/>
<path id="apple_stem_1" d="m-23.3 201.6c0.6707-4.455 0.3357-7.628 3.38-10.25l1.646 1.135c-2.977 2.538-2.767 6.957-3.076 10.08z" fill="#a16121"/>
<path id="apple_reflection" d="m-54.99 265.6c-0.4967-0.8708-0.9086-4.814-0.125-6.159 1.269-2.172 4.139-3.241 4.823-1.808 0.7174 1.488-1.104 5.5-1.887 6.856-0.7836 1.334-2.315 1.949-2.811 1.111z" stroke="none" fill="#FFF"/>
<g id="apple_1">
<use xlink:href="#apple_stem_1" transform="translate(92.69 22.2)"/>
<use xlink:href="#apple_red_2" transform="translate(149.6 -.8526)"/>
<use xlink:href="#apple_reflection" transform="translate(111.8 -32.24)"/>
<path stroke="none" d="m38.69 263.8h59.75v-59.67h-59.75v59.67z" fill="none"/>
</g>
<g id="apple_2">
<use xlink:href="#apple_stem_1" transform="matrix(.9819 -.1894 .1894 .9819 118 22.14)"/>
<use xlink:href="#apple_red_2" transform="matrix(-.9968 -.07938 -.07938 .9968 73.11 -6.67)"/>
<use xlink:href="#apple_reflection" transform="matrix(.9993 -.03765 .03765 .9993 165.5 -36.42)"/>
<path stroke="none" d="m102.7 263.9h59.75v-59.67h-59.75v59.67z" fill="none"/>
</g>
<g id="apple_3">
<use xlink:href="#apple_stem_1" transform="matrix(.9705 -.2411 .2411 .9705 166.4 24.55)"/>
<use xlink:href="#apple_red_2" transform="matrix(.9885 -.1512 .1512 .9885 237.5 -9.671)"/>
<use xlink:href="#apple_reflection" transform="matrix(.9659 -.2274 .2588 .8485 166.7 -2.799)"/>
<path stroke="none" d="m166.6 263.8h59.75v-59.67h-59.75v59.67z" fill="none"/>
</g>
<g id="apple_4" transform="translate(24.22 -30.26)">
<use xlink:href="#apple_stem_1" transform="translate(258.3 50)"/>
<use xlink:href="#apple_red_1" transform="translate(259 30)"/>
<use xlink:href="#apple_reflection" transform="matrix(.7436 0 0 1 265.6 -5.279)"/>
<path stroke="none" d="m207.5 294.1h59.75v-59.67h-59.75v59.67z" fill="none"/>
</g>
<g id="apple_5">
<use xlink:href="#apple_stem_1" transform="matrix(.9943 -.1062 .1062 .9943 322.7 19.74)"/>
<use xlink:href="#apple_red_1" transform="matrix(1.025 -.1062 .1095 .9943 321.9 -1.491)"/>
<use xlink:href="#apple_reflection" transform="matrix(.7367 .1012 -.1361 .9907 387.5 -27.4)"/>
<path stroke="none" d="m294.6 263.9h59.75v-59.67h-59.75v59.67z" fill="none"/>
</g>
<g id="apple_6">
<use xlink:href="#apple_stem_1" transform="matrix(.9945 -.1051 .1051 .9945 390 20.13)"/>
<use xlink:href="#apple_red_1" transform="matrix(-1.05 -.02544 -.02421 .9605 370.7 7.746)"/>
<use xlink:href="#apple_reflection" transform="matrix(.7298 .1425 -.1917 .9815 466.3 -24.28)"/>
<path stroke="none" d="m356.7 263.8h59.75v-59.67h-59.75v59.67z" fill="none"/>
</g>
<g id="apple_7">
<use xlink:href="#apple_stem_1" transform="matrix(.9888 .1493 -.1357 .8990 502 43.15)"/>
<use xlink:href="#apple_red_1" transform="matrix(.9888 .1493 -.1357 .8990 505.4 25.27)"/>
<use xlink:href="#apple_reflection" transform="matrix(.7353 .1110 -.1357 .8990 515.8 -4.562)"/>
<path stroke="none" d="m421.6 263.9h59.75v-59.66h-59.75v59.66z" fill="none"/>
</g>
<g id="apple_8">
<use xlink:href="#apple_stem_1" transform="matrix(.9999 -.01268 .01268 .9999 538 23.83)"/>
<use xlink:href="#apple_red_2" transform="matrix(.9969 .07893 -.07893 .9969 615.1 6.787)"/>
<use xlink:href="#apple_reflection" transform="matrix(.9923 -.0003907 .05786 .8853 543.2 -2.266)"/>
<path stroke="none" d="m485.9 263.9h59.75v-59.66h-59.75v59.66z" fill="none"/>
</g>
</g>
<g id="fishes" transform="translate(-17.14 -217.1)">
<g id="fish_sideways" stroke-linejoin="round" transform="matrix(.9089 0 0 .9089 -3.257 34.31)" fill-rule="evenodd">
<path d="m16.15 340.3c-4.734 6.995 1.89 8.205-1.906 12.15-3.796 3.94 3.355 6.01-0.1116 9.172s-0.212 7.247-0.561 10.49c-14.77-9.042-7.195-28.03 2.579-31.8z" fill="#800040"/>
<path d="m-33.15 346.1c0.2717-3.592 4.736-5.724 7.379-3.964s2.733 7.029-0.3936 7.694c-3.127 0.6654-7.257-0.1381-6.985-3.73z" fill="#FFF"/>
<path d="m5.182 350.6c8.047 7.63 0.6859 20.5-14.65 23.06-15.34 2.557-27.75-6.13-22.93-20.44 4.815-14.31 29.54-10.24 37.58-2.614z" fill="#ffc080"/>
<path d="m-20.69 342.3c-4.228-0.6149-7.454 2.052-6.628 6.333 0.8256 4.281 8.071 5.544 10.51 2.061 2.44-3.483 0.3458-7.779-3.883-8.394z" fill="#FFF"/>
<path d="m-2.83 351.2c-2.037 4.551 2.373 5.488 1.171 7.542-1.203 2.054-2.167 2.644 0.191 5.315-12.08 2.424-7.33-9.812-1.362-12.86z" fill="#800040"/>
<path d="m-32.56 364.6c-2.807-0.6873-2.698-3.12-1.728-3.428 0.9705-0.3082 12.37-0.4817 17.77-3.553-4.402 4.916-9.632 8.141-16.04 6.982z" fill="#F00"/>
<path d="m-25.26 358.5c5.072 1.978 8.831-0.7398 8.831-0.7398-3.701 4.555-16.92 5.106-18.76 2.542-2.101-3.783 4.852-3.78 9.924-1.802z" fill="#F00"/>
</g>
<g id="fish_1">
<path stroke="none" d="m44.1 389.4h56.41v-56.41h-56.41v56.41z" fill="none"/>
<use xlink:href="#fish_sideways" transform="translate(84.8 1.772)"/>
<path d="m61.6 351.8c0 2.207-2.489 2.207-2.489 0 0-2.113 2.489-2.113 2.489 0z"/>
<path d="m54.84 350.8c0 1.843-2.125 1.843-2.125 0 0-1.737 2.125-1.737 2.125 0z"/>
</g>
<g id="fish_2">
<path stroke="none" d="m108.6 389.4h56.41v-56.41h-56.41v56.41z" fill="none"/>
<use xlink:href="#fish_sideways" transform="matrix(.9720 -.2350 .2350 .9720 64.13 10.44)"/>
<path d="m123.9 354.7c0 2.207-2.489 2.207-2.489 0 0-2.113 2.489-2.113 2.489 0z"/>
<path d="m117.1 355.5c0 1.843-2.125 1.843-2.125 0 0-1.737 2.125-1.737 2.125 0z"/>
</g>
<g id="fish_3">
<path stroke="none" d="m173.1 389.5h56.41v-56.41h-56.41v56.41z" fill="none"/>
<use xlink:href="#fish_sideways" transform="matrix(.9777 .2101 -.2101 .9777 288.2 12.05)"/>
<path d="m191.1 350c0 2.207-2.489 2.207-2.489 0 0-2.113 2.489-2.113 2.489 0z"/>
<path d="m185 347.6c0 1.843-2.125 1.843-2.125 0 0-1.737 2.125-1.737 2.125 0z"/>
</g>
<g id="fish_4">
<path stroke="none" d="m237.7 389.4h56.41v-56.41h-56.41v56.41z" fill="none"/>
<g fill="#800040">
<path d="m264.7 340.6c-2.459 0.0467-2.462 8.889-2.462 8.889l4.608-0.3223s0.3124-8.614-2.146-8.567z"/>
<path d="m252.2 358.1s-6.881-3.66-7.007-1.547c-0.1258 2.114 3.008 1.779 0.4095 4.236-2.599 2.457 3.118 0.2546-0.0558 4.744-3.174 4.49 6.413-1.583 6.413-1.583z"/>
<path d="m279.2 359.2c1.15-2.078 3.257-2.98 4.363-3.413s2.184 0.8635 0.5192 2.487c-1.665 1.623 3.217 1.775 0.7409 3.383-2.476 1.607 2.397 2.474 0.8225 3.802-1.575 1.328-5.058-0.2415-5.846-1.338-1.197-1.749-1.796-2.806-0.5987-4.919"/>
</g>
<path d="m251.8 353.8c6.728-10.93 24.29-7.88 27.6 3.228 3.312 11.11-1.928 24.64-14.65 25.32-12.72 0.6838-19.68-17.61-12.95-28.55z" fill="#ffc080"/>
<path d="m257.8 352.9c-3.584 0.1219-6.505 3.482-5.074 7.191s6.88 4.179 9.439 0.8857-0.7809-8.198-4.365-8.076z" fill="#FFF"/>
<path d="m276.6 362c2.48-3.698-0.1124-7.928-3.309-8.449-3.197-0.5204-6.175 1.45-5.907 5.615 0.2672 4.165 6.737 6.532 9.216 2.833z" fill="#FFF"/>
<path stroke-linejoin="round" d="m277.8 368.5c0.2348-1.291-0.7959 8.718-12.34 8.574-11.55-0.1442-11.04-4.851-14.64-9.034 9.977 5.601 17.61 3.976 26.99 0.4602z" fill="#F00"/>
<path stroke-linejoin="round" d="m251 368.2c5.54 2.448 7.688 0.9608 13.83 1.016 6.144 0.0556 7.646 1.519 13.24-0.7913-13.02 13.38-27.08-0.2251-27.08-0.2251z" fill="#F00"/>
<path d="m259.6 357.5c-0.0152 1.948-2.942 1.823-2.853 0 0.0885-1.823 2.868-1.948 2.853 0z"/>
<path d="m273.6 357.9c0.002 2.21-2.84 1.943-2.934 0-0.0936-1.943 2.932-2.21 2.934 0z"/>
</g>
<g id="fish_5">
<path d="m309.6 365c-2.729-1.289 1.901-2.496-0.7506-5.246s3.81-1.597 0.9589-5.031 6.789-1.033 6.789-1.033l-0.2975 8.707s-3.971 3.891-6.7 2.603z" fill="#800040"/>
<path stroke="none" d="m302.2 389.4h56.41v-56.41h-56.41v56.41z" fill="none"/>
<path d="m331 339.4c-1.92 0.026-1.943 5.059-1.943 5.059l3.726 0.2295s0.1368-5.315-1.783-5.289z" fill="#800040"/>
<path d="m351.6 352.8c2.649 1.009-2.66 2.696 0.7506 5.246 3.411 2.551-4.569 1.956-0.7991 5.591 3.77 3.634-6.949 0.4733-6.949 0.4733l0.2975-8.707s4.051-3.612 6.7-2.603z" fill="#800040"/>
<path d="m330.2 378.4c-15.08-0.1216-18.91-21.33-12.87-29.19 6.036-7.861 16.09-12.03 25.04-1.74s2.913 31.05-12.16 30.93z" fill="#ffc080"/>
<path d="m327.7 344.2c-2.176-2.209-8.666-1.616-9.524 3.232-0.8585 4.848 4.631 7.707 8.511 5.528 3.879-2.179 3.189-6.552 1.014-8.76z" fill="#FFF"/>
<path d="m333.5 350.5c1.288 3.904 5.699 5.519 9.248 2.069s0.7218-8.759-3.217-9.426c-3.939-0.6662-7.319 3.453-6.031 7.357z" fill="#FFF"/>
<path d="m322.3 349.8c-0.178-2.179 3.061-2.865 3.362-0.3955 0.3008 2.47-3.184 2.574-3.362 0.3955z"/>
<path d="m338.7 349.9c-0.1624 2.087-2.987 1.892-2.934 0 0.0531-1.892 3.096-2.087 2.934 0z"/>
<path stroke-linejoin="round" d="m344.2 359.9c0.2348-1.291-3.513 8.718-12.34 8.574-8.83-0.1442-11.04-4.851-14.64-9.034 9.977 5.601 17.61 3.976 26.99 0.4602z" fill="#F00"/>
<path stroke-linejoin="round" d="m317.3 359.4c5.301 0.9298 7.448 0.721 13.59 0.7766 6.144 0.0556 8.285 0.88 13.96-0.4717-13.81 11.8-27.56-0.305-27.56-0.305z" fill="#F00"/>
</g>
<g id="fish_6">
<path stroke="none" d="m423.1 389.4h-56.41v-56.41h56.41v56.41z" fill="none"/>
<use xlink:href="#fish_sideways" transform="matrix(-1 0 0 1 382.4 1.772)"/>
<path d="m405.6 351.8c0 2.207 2.489 2.207 2.489 0 0-2.113-2.489-2.113-2.489 0z"/>
<path d="m412.4 350.8c0 1.843 2.125 1.843 2.125 0 0-1.737-2.125-1.737-2.125 0z"/>
</g>
<g id="fish_7">
<path stroke="none" d="m487.7 389.4h-56.41v-56.41h56.41v56.41z" fill="none"/>
<use xlink:href="#fish_sideways" transform="matrix(-.9720 -.2350 -.2350 .9720 532.1 10.44)"/>
<path d="m472.4 354.7c0 2.207 2.489 2.207 2.489 0 0-2.113-2.489-2.113-2.489 0z"/>
<path d="m479.2 355.5c0 1.843 2.125 1.843 2.125 0 0-1.737-2.125-1.737-2.125 0z"/>
</g>
<g id="fish_8">
<path stroke="none" d="m552.2 389.5h-56.41v-56.41h56.41v56.41z" fill="none"/>
<use xlink:href="#fish_sideways" transform="matrix(-.9777 .2101 .2101 .9777 437.1 12.05)"/>
<path d="m534.2 350c0 2.207 2.489 2.207 2.489 0 0-2.113-2.489-2.113-2.489 0z"/>
<path d="m540.3 347.6c0 1.843 2.125 1.843 2.125 0 0-1.737-2.125-1.737-2.125 0z"/>
</g>
</g>
</g>
</svg>
