<?xml version="1.0" encoding="UTF-8" standalone="no"?>
<svg id="svg2" xmlns:rdf="http://www.w3.org/1999/02/22-rdf-syntax-ns#" xmlns="http://www.w3.org/2000/svg" height="100%" viewBox="0 0 640 360" width="100%" version="1.1" xmlns:cc="http://creativecommons.org/ns#" xmlns:xlink="http://www.w3.org/1999/xlink" xmlns:dc="http://purl.org/dc/elements/1.1/">
<defs id="defs4">
<radialGradient id="radialGradient3045" gradientUnits="userSpaceOnUse" cy="9.196" cx="1180" gradientTransform="matrix(1.4951715,-0.00368325,0.00246343,0.99999697,-584.32495,4.3462641)" r="181">
<stop id="stop17" stop-color="#000" stop-opacity="0" offset="0"/>
<stop id="stop19" stop-color="#000" stop-opacity="0" offset="0.4337"/>
<stop id="stop21" stop-color="#000" stop-opacity="0.11764706" offset="0.7082"/>
<stop id="stop23" stop-color="#000" stop-opacity="0.27450982" offset="1"/>
</radialGradient>
<radialGradient id="radialGradient4150" gradientUnits="userSpaceOnUse" cy="9.196" cx="1180" gradientTransform="matrix(0.13072879,-1.8651492e-5,1.5587868e-4,0.12843681,1766.7386,252.99233)" r="181">
<stop id="stop4154" stop-opacity="0" stop-color="#000" offset="0"/>
<stop id="stop4156" stop-opacity="0" stop-color="#000" offset="0.3476"/>
<stop id="stop4158" stop-opacity="0.11764706" stop-color="#000" offset="0.7666"/>
<stop id="stop4160" stop-opacity="0.27450982" stop-color="#000" offset="1"/>
</radialGradient>
<radialGradient id="radialGradient4534" gradientUnits="userSpaceOnUse" cy="9.196" cx="1180" gradientTransform="matrix(0.19609319,-1.8651492e-5,2.3381802e-4,0.12843681,1698.6079,514.99233)" r="181">
<stop id="stop4154-7" stop-opacity="0" stop-color="#000" offset="0"/>
<stop id="stop4156-2" stop-opacity="0" stop-color="#000" offset="0.3476"/>
<stop id="stop4158-7" stop-opacity="0.11764706" stop-color="#000" offset="0.7666"/>
<stop id="stop4160-9" stop-opacity="0.27450982" stop-color="#000" offset="1"/>
</radialGradient>
<radialGradient id="radialGradient4901" gradientUnits="userSpaceOnUse" cy="9.196" cx="1180" gradientTransform="matrix(0.24074343,0,2.786218e-4,0.12843683,1656.9202,763.97032)" r="181">
<stop id="stop4154-7-5" stop-opacity="0" stop-color="#000" offset="0"/>
<stop id="stop4156-2-3" stop-opacity="0" stop-color="#000" offset="0.3476"/>
<stop id="stop4158-7-1" stop-opacity="0.11764706" stop-color="#000" offset="0.7666"/>
<stop id="stop4160-9-3" stop-opacity="0.27450982" stop-color="#000" offset="1"/>
</radialGradient>
<radialGradient id="radialGradient5129" gradientUnits="userSpaceOnUse" cy="9.196" cx="1180" gradientTransform="matrix(0.31296645,0,3.6220833e-4,0.12843683,1583.6962,1017.9703)" r="181">
<stop id="stop4154-7-5-4" stop-opacity="0" stop-color="#000" offset="0"/>
<stop id="stop4156-2-3-4" stop-opacity="0" stop-color="#000" offset="0.3476"/>
<stop id="stop4158-7-1-2" stop-opacity="0.11764706" stop-color="#000" offset="0.7666"/>
<stop id="stop4160-9-3-3" stop-opacity="0.27450982" stop-color="#000" offset="1"/>
</radialGradient>
<radialGradient id="radialGradient5294" gradientUnits="userSpaceOnUse" cy="9.196" cx="1180" gradientTransform="matrix(0.37315231,0,4.3186379e-4,0.12843683,1522.6762,1307.9703)" r="181">
<stop id="stop4154-7-5-4-4" stop-opacity="0" stop-color="#000" offset="0"/>
<stop id="stop4156-2-3-4-1" stop-opacity="0" stop-color="#000" offset="0.3476"/>
<stop id="stop4158-7-1-2-9" stop-opacity="0.11764706" stop-color="#000" offset="0.7666"/>
<stop id="stop4160-9-3-3-8" stop-opacity="0.27450982" stop-color="#000" offset="1"/>
</radialGradient>
<radialGradient id="radialGradient5434" gradientUnits="userSpaceOnUse" cy="9.196" cx="1180" gradientTransform="matrix(0.43333816,0,5.0151922e-4,0.12843683,1461.6562,1597.9703)" r="181">
<stop id="stop4154-7-5-4-4-7" stop-opacity="0" stop-color="#000" offset="0"/>
<stop id="stop4156-2-3-4-1-7" stop-opacity="0" stop-color="#000" offset="0.3476"/>
<stop id="stop4158-7-1-2-9-5" stop-opacity="0.11764706" stop-color="#000" offset="0.7666"/>
<stop id="stop4160-9-3-3-8-0" stop-opacity="0.27450982" stop-color="#000" offset="1"/>
</radialGradient>
<radialGradient id="radialGradient5599" gradientUnits="userSpaceOnUse" cy="9.196" cx="1180" gradientTransform="matrix(0.49352401,0,5.7117466e-4,0.12843683,1400.6363,1877.9703)" r="181">
<stop id="stop4154-7-5-4-4-7-9" stop-opacity="0" stop-color="#000" offset="0"/>
<stop id="stop4156-2-3-4-1-7-8" stop-opacity="0" stop-color="#000" offset="0.3476"/>
<stop id="stop4158-7-1-2-9-5-7" stop-opacity="0.11764706" stop-color="#000" offset="0.7666"/>
<stop id="stop4160-9-3-3-8-0-5" stop-opacity="0.27450982" stop-color="#000" offset="1"/>
</radialGradient>
</defs>
<metadata id="metadata25">
<rdf:RDF>
<cc:Work rdf:about="">
<dc:format>image/svg+xml</dc:format>
<dc:type rdf:resource="http://purl.org/dc/dcmitype/StillImage"/>
<dc:title/>
</cc:Work>
</rdf:RDF>
</metadata>
<rect id="rect3149" height="204.2" width="459.6" y="219.4" x="698.6" fill="#808080"/>
<g id="frame_1">
<rect id="frame_1_rect" height="276.3" width="360" y="-130" x="1000" fill="url(#radialGradient3045)"/>
<path id="path37" fill="#000" d="m999-131,0,278,362,0,0-278zm360.6,28.03c-0.4404,10.02-1.271,16.85-1.148,69.55,0.1226,52.71,1.551,142.1-0.3827,154.6-1.934,12.52-12.11,20.13-21.02,21.78s-75.91,3.148-155.6,1.409c-77.75-1.697-151.4,0.428-159.5-1.096-8.086-1.524-20.73-6.55-21.69-24.34-0.9592-17.79,3.592-77.82,3.531-112.2-0.095-53.6-4.323-99.9-2.438-112.9s10.48-20.16,22.59-22.69c12.11-2.528,130.7,0.1568,172.2-0.7474,46.26-1.007,124.3,1.325,139.9,1.786,15.57,0.4613,24.01,14.83,23.57,24.85z"/>
</g>
<g id="frame_2">
<use id="frame_2_rect" xlink:href="#frame_1_rect" transform="matrix(1,0,0,1.1582734,381,20.733812)" height="360" width="640" y="0" x="0"/>
<path id="path37-8" fill="#000" d="m1380-131,0,322,362,0,0-322zm360.6,27.96c-0.4404,11.61-1.271,24.02-1.148,85.06,0.1226,61.05,1.551,170.1-0.3827,184.6s-12.11,18.82-21.02,20.73c-8.91,1.911-75.91,3.647-155.6,1.632-77.75-1.966-151.4,0.4957-159.5-1.269-8.086-1.765-20.73-3.087-21.69-23.69-0.9592-20.61,2.799-95.64,2.738-135.5-0.095-62.08-3.53-120.2-1.645-135.3,1.885-15.06,10.48-19.35,22.59-22.28,12.11-2.929,130.7,1.182,172.2,0.1343,46.26-1.166,124.3,0.5344,139.9,1.069,15.57,0.5343,24.01,13.18,23.57,24.78z"/>
</g>
<g id="frame_3">
<use id="frame_3_rect" xlink:href="#frame_1_rect" transform="matrix(1,0,0,1.3129497,381,386.9964)" height="360" width="640" y="0" x="0"/>
<path id="path37-8-3" fill="#000" d="m1380,215,0,365,362,0v-365zm360.6,29.48c-0.4404,13.16-1.271,29.44-1.148,98.63,0.1226,69.21,1.905,193.5-0.029,210-1.934,16.44-12.46,20.95-21.37,23.11-8.91,2.166-75.91,4.134-155.6,1.85-77.75-2.228-151.4,0.5619-159.5-1.439-8.086-2.001-20.73-2.762-21.69-26.12-0.9592-23.36,2.799-109.5,2.738-154.7-0.095-70.37-4.332-138.6-1.645-155.5,2.592-16.36,12.25-21.51,22.59-23.41,10.34-1.906,130.7,1.339,172.2,0.1522,46.26-1.322,124.3,0.6058,139.9,1.211,15.57,0.6056,24.01,13.09,23.57,26.25z"/>
</g>
<path id="menubutton" d="m778.4,245.5c-3.759,0.1735-7.564,2.495-8.406,6.438-1.497,7.008,3.224,11.12,9.688,10.19,6.463-0.94,9.364-6.777,6-12.91-1.47-2.682-4.358-3.854-7.281-3.719zm-0.8,1.6c6.404-0.1418,8.768,4.622,7.312,9.031-1.639,4.961-8.681,5.88-11.91,2.688-3.224-3.192-1.811-11.58,4.594-11.72zm1.539,1.552,0.1496,4.227,2.552-0.0827-0.1311-4.215zm-4.401,0.1956-0.099,4.136,2.851-0.0345,0.005-4.235zm-0.1545,5.93-0.0408,4.075,2.978,0.0953,0.0238-4.088zm4.794,0.0664,0.0386,4.117,2.467-0.0944-0.0107-4.054z" fill-opacity="0.58039216" fill-rule="evenodd" fill="#EEE"/>
<path id="optionsbutton" d="m727.9,245.4c-0.6337,0.0303-1.267,0.1368-1.906,0.3438-6.818,2.208-8.013,8.341-3.969,13.47,4.044,5.128,10.56,4.726,14.19-1.25,3.287-5.416-2.187-12.86-8.312-12.56zm0.9,1.6c1.951,0.0483,3.847,0.9154,5.094,2.969,3.325,5.476,0.6436,9.841-4.188,10.84-4.831,1.002-9.433-4.58-8.281-8.969,0.7201-2.743,4.124-4.924,7.375-4.844zm-4.812,4.344,9.312,0.2188,0.0625-1.969s-9.128-0.1562-9.236-0.1562zm-0.1876,1.625,0,1.906,9.312,0.2188,0.0625-1.969s-9.16-0.1562-9.375-0.1562zm0.0937,3.312-0.0312,1.906,9.344,0.2188,0.0312-1.969s-9.128-0.1562-9.344-0.1562z" fill-opacity="0.57999997999999997" fill-rule="evenodd" fill="#EEE"/>
<path id="exitbutton" d="m732.8,286.9,1.586,1.672-3.052,3.131,2.95,3.197-1.679,1.679-2.858-3.302-2.827,3.03-1.613-1.701,2.937-2.919-3.087-3.212,1.635-1.635,2.994,3.206zm-4.118-3.571c-7.293,0.2756-8.718,9.019-5.345,13.55,4.044,5.128,10.56,4.726,14.19-1.25,3.287-5.416-1.55-12.57-8.843-12.3zm7.123,4.916c2.486,4.3-0.1519,9.311-4.983,10.31-4.831,1.002-9.054-4.755-7.044-9.941,2.011-5.186,9.541-4.673,12.03-0.3724z" fill-opacity="0.58039216" fill="#EEE"/>
<path id="backbutton" d="m778.2,283.5c-3.354,0.2102-6.392,2.479-7.5,6-1.611,5.122,3.074,12.47,11,9.938,7.926-2.53,5.945-12.22,1.125-14.88-1.506-0.8304-3.1-1.158-4.625-1.062zm0.3125,1.75c6.184-0.0534,7.704,4.659,6.156,9.344s-7.713,4.817-10.94,1.625c-3.224-3.192-1.402-10.92,4.781-10.97zm-0.6746,0.7629-4.469,3.688,4.75,2.719-0.125-2.338s1.281-0.4051,2.791,0.1821,1.688,2.966,0.2317,3.82c-1.31,0.7688-3.706,0.3226-4.148,0.3362l-0.1067,2.04s3.101,0.7704,5.208-0.5915c2.178-1.407,2.898-5.482,0.4429-6.983s-4.544-0.8826-4.544-0.8826z" fill-opacity="0.58039216" fill-rule="evenodd" fill="#EEE"/>
<g id="activemarker">
<path id="path2568" d="m757.9,251.2c-2.632-4.756-9.328-5.719-12.16-2.209-2.814,3.483-1.96,9.1,3.501,11.65,5.444,2.54,11.28-4.716,8.662-9.439z" fill-opacity="0.63297874" fill-rule="evenodd" fill="#52ea22"/>
</g>
<g id="background">
<g id="background_01">
<rect id="rect3096" height="190" width="1025" y="1320" x="-326" fill="#FFF"/>
<path id="path3146" fill="#000" d="m642.7,1332,11.94-0.094-0.0637-11.44-12,0.094z"/>
<path id="path3144" fill="#000" d="m580.4,1321,0.0937,11.06,11.78-0.4062-0.313-11.16z"/>
<path id="path3142" fill="#000" d="m612.2,1321,0.5312,10.78,10.91-0.5313,0.3719-10.59z"/>
<path id="path3140" fill="#000" d="m-8.007,1327c-4.072-4.222-11.12-3.27-13.18,2.07-2.061,5.34,1.411,13.8,9.186,11.81,7.775-1.987,8.064-9.659,3.992-13.88z"/>
<path id="path3138" fill="#000" d="m139.5,1330c-3.347-4.342-10.84-4.412-14.06,2.346-3.217,6.758,2.869,12.89,9.56,11.62,6.691-1.268,7.847-9.628,4.5-13.97z"/>
<path id="path3136" fill="#000" d="m423.9,1406s-55.26,51.58-130.8,53.5c-75.54,1.922-68.29-56.48-114-58.72-45.71-2.238-59.52,52.95-122.1,52.91s-76.38-71.76-150.9-69.69c-74.52,2.069-88.21,67.04-150.6,66.62s-81.5-55-81.5-55v114.8h1025v-114.8l-28.47,0.1562c0.018,12.54-1.061,28.34-0.5625,40.12-30.34,0.7113-65.87-0.9849-103.8,1.906-1.954-31.1-1.676-62.35-1.438-97.28-52.09,1.862-94.26-1.632-141.1,0.5938-0.068,23.37,0.179,49.64,0.2705,64.88z"/>
<path id="path3134" fill="#000" d="m21.2,1373c-7.179,25.25,8.933,63.69,43.53,55.66s48.22-57.84,23.25-78.47-59.6-2.44-66.78,22.81z"/>
<path id="path3132" fill="#000" d="m313.4,1344c-4.242-2.078-9.216,1.192-8.969,5.436,0.2469,4.244,5.189,6.579,8.688,4.904s4.523-8.262,0.2814-10.34z"/>
<path id="path3130" fill="#FFF" d="m75.8,1360c15.44,13.4,12.25,49.58-13.36,54.67-25.61,5.092-37.54-18.01-31.28-38s29.2-30.08,44.64-16.67z"/>
<path id="path3128" fill="#000" d="m599.8,1402c12.82-1.068,26.34-2.609,36.59-1.844-0.3702-9.945,0.4412-35.62,0.4412-35.62l-37.41,1.624s0.1635,24.25,0.3769,35.84z"/>
<path id="path3126" fill="#FFF" d="m456.7,1436c-1.18-25.55-1.014-48.63,1.094-68.16,22.59-1.051,68.43-0.3175,68.43-0.3175l0.5641,67.1s-46.05,0.6691-70.09,1.376z"/>
<path id="path3124" fill="#000" d="M60.96,1400c13.88-4,16.47-20,6.04-28-10.43-8.287-21.12-3.14-24.72,6.97s4.796,24.86,18.68,21.04z"/>
<path id="path3122" fill="#000" d="m323.3,1381c-15.47-12.89-39.69,1.65-39.44,22.87,0.2495,21.22,24.32,26.55,37.88,17.47,13.56-9.079,17.04-27.45,1.564-40.34z"/>
<path id="path3120" fill="#000" d="m512.3,1421c-0.2965-14.41,0.8667-41.65,0.8667-41.65-8.729-0.9549-23.89-0.7412-42.37,0.077l-1.38,41.99s23.82,1.021,42.88-0.4136z"/>
<path id="path3118" fill="#000" d="m265.2,1387c-4.867-2.906-10.96,1.428-10.9,6.002,0.0576,4.574,6.344,6.161,8.684,5.188,2.34-0.9728,7.084-8.285,2.216-11.19z"/>
<path id="path3116" fill="#FFF" d="m300,1400c0.659-7.399,7.081-12.15,14.16-8.767,7.08,3.379,6.897,13.83-0.1515,17.27-7.049,3.441-14.67-1.104-14.01-8.503z"/>
<path id="path3114" fill="#000" d="m351.8,1397c0.9046,4.816,5.896,5.575,8.524,3.527s4.084-6.648-0.2803-8.955-9.148,0.6119-8.244,5.427z"/>
<path id="path3112" fill="#000" d="m-241.9,1407c0.9376-7.526-7.092-12.78-13.22-10.76s-6.567,10.5-2.472,15.45c4.094,4.955,14.75,2.836,15.69-4.69z"/>
<path id="path3110" fill="#FFF" d="m-100.3,1401c3.495,2.095,2.914,8.529-1.719,9.5-4.633,0.9709-7.762-2.591-6.719-6.344s4.943-5.251,8.438-3.156z"/>
<path id="path3108" fill="#FFF" d="m184.1,1444c-8.613,6.601-27.71,0.057-25.81-12.34,1.896-12.4,12.27-17.89,23.53-13.53,11.26,4.358,10.89,19.27,2.28,25.87z"/>
<path id="path3106" fill="#FFF" d="m-132.5,1467c-10.53-21.85,6.4-45.69,28.91-44.94,22.51,0.7495,33.07,22.33,27.5,41.16-5.567,18.83-45.88,25.63-56.41,3.78z"/>
<path id="path3104" fill="#000" d="m176.6,1427c-3.726-1.52-7.321,1.143-7.5,4.593-0.1791,3.45,4.622,6.538,8.219,4.219,3.596-2.319,3.008-7.292-0.7189-8.812z"/>
<path id="path3102" fill="#FFF" d="m207.8,1448c3.114,2.106,3.024,7.029-0.375,8.563s-7.293-0.3881-7.094-4.375c0.1989-3.987,4.356-6.294,7.469-4.188z"/>
<path id="path3100" fill="#000" d="m-108.1,1452c-0.6339,2.894,0.578,7.146,5.75,6.406,5.172-0.7399,5.938-8.559,2.406-10.06s-7.522,0.7599-8.156,3.654z"/>
<path id="path3098" fill="#FFF" d="m-56.3,1449c3.474,2.352,2.852,8.404-1.781,9.375-4.633,0.9709-7.758-2.758-6.625-6.188s4.932-5.54,8.406-3.187z"/>
<path id="path3096" fill="#FFF" d="m146.1,1458c-3.193,2.304-8.604-0.2373-8.101-4.335s3.772-5.93,7.351-4.446,3.943,6.476,0.75,8.781z"/>
<path id="path3094" fill="#FFF" d="m-148.5,1450c3.522,2.106,1.642,8.114-1.489,9.35-3.13,1.236-7.664-1.096-6.599-5.793s4.566-5.663,8.088-3.557z"/>
<path id="path3092" fill="#FFF" d="m169.3,1466c-0.1674-4.83,4.642-5.723,7.782-3.907s2.864,6.221,0.3434,7.969-7.958,0.7681-8.125-4.062z"/>
<path id="path3090" fill="#FFF" d="m538.1,1476,0.3125-11.75,12.16-0.5306-0.161,12.03z"/>
<path id="path3088" fill="#FFF" d="m487.3,1477-0.1616-11.83,12.1-0.238,0.1817,11.79z"/>
<path id="path3086" fill="#FFF" d="m434.6,1477,0.0625-11.78,12.47,0.092-0.2822,11.69z"/>
<path id="path3084" fill="#FFF" d="m51.35,1475c0.4165-5.428,6.459-7.281,9.915-5.259,3.455,2.023,5.264,7.346,0.2053,10.79-3.194,2.174-10.54-0.1034-10.12-5.531z"/>
<path id="path114" fill="#FFF" d="m-101.9,1496c3.36,2.276,2.821,8.31-1.812,9.281-4.633,0.9709-8.352-2.83-7-6.062s5.452-5.495,8.812-3.219z"/>
</g>
<use id="use3165" xlink:href="#background_01" transform="translate(-1025,0)" height="360" width="640" y="0" x="0"/>
<use id="use3938" xlink:href="#background_01" transform="translate(1025,0)" height="360" width="640" y="0" x="0"/>
</g>
<g id="button_1">
<rect id="button_1_rect" height="40" width="40" y="234" x="1901" fill="url(#radialGradient4150)"/>
<path id="path186" d="m1900,233,0,42,42,0,0-42zm5.375,4.437c10.39,0.4845,25.38-0.2008,31.7-0.125,0.6822,12.32,0.7196,23.12,0.375,33.43-11.84-0.3292-19.29-0.333-32.08-0.3125-0.3674-9.889-1.232-19.07,0-33z" fill="#000"/>
</g>
<g id="button_2">
<use id="button_2_rect" xlink:href="#button_1_rect" transform="matrix(-1,0,0,1,3842,60)" height="360" width="640" y="0" x="0"/>
<path id="path190" d="m1942,293,0,42-42,0,0-42zm-5.625,4.812c-13.6-0.26-22.2-0.4253-31-0.25-0.5246,13.6-0.3775,23.27,0.5,32.87,10.65,0.1667,20.77,0.6901,31.2,0.5,0.8017-17.57-0.1749-24.34-0.7-33.12z" fill="#000"/>
</g>
<g id="button_3">
<use id="button_3_rect" xlink:href="#button_1_rect" transform="matrix(-1,0,0,1,3842,120)" height="360" width="640" y="0" x="0"/>
<path id="path194" d="m1900,395,0-42,42,0,0,42zm37.28-4.312c-0.3241-8.432-0.1363-23.07-0.125-33.24-11.6-0.25-21.14-0.5267-32.38-0.375,0.2083,8.26,0.7587,23.33,0.55,33.62,8.791,0.1666,20.77,0.2566,31.95,0z" fill="#000"/>
</g>
<g id="button_4">
<rect id="button_4_rect" height="40" width="60" y="496" x="1900" fill="url(#radialGradient4534)"/>
<path id="path198" d="m1899,495,0,42,62,0,0-42zm5.375,4.437c17.39-0.5155,34.38-0.7008,51.7-0.125,0.6822,12.32,0.7196,23.12,0.375,33.43-18.34-0.3292-33.04-1.583-52.08-0.3125-0.3674-9.889-1.232-19.07,0-33z" fill="#000"/>
</g>
<g id="button_5">
<use id="button_5_rect" xlink:href="#button_4_rect" transform="translate(0,60)" height="360" width="640" y="0" x="0"/>
<path id="path202" d="m1961,555,0,42-62,0,0-42zm-5.125,4.812c-20.35,0.24-39.46-0.6753-51.5-0.25-0.5246,13.6-0.3775,23.27,0.5,32.87,21.9-0.3333,36.52,0.1901,51.2,0.5-0.3233-17.7,0.3251-24.34-0.2-33.12z" fill="#000"/>
</g>
<g id="button_6">
<use id="button_6_rect" xlink:href="#button_4_rect" transform="translate(0,120)" height="360" width="640" y="0" x="0"/>
<path id="path206" d="m1899,657,0-42,62,0,0,42zm57.28-4.312c-1.074-12.31-0.1363-23.07-0.125-33.24-21.1,0-31.89-0.0267-52.38-0.375,0.2083,8.26,0.7587,23.33,0.55,33.62,18.79-0.0834,34.27,0.5066,51.95,0z" fill="#000"/>
</g>
<g id="button_7">
<rect id="button_7_rect" height="40" width="80" y="745" x="1901" fill="url(#radialGradient4901)"/>
<path id="path210" d="m1900,744,0,42,82,0,0-42zm5.375,4.437c21.14-0.2655,50.38-0.4508,71.7-0.125,0.6822,12.32,0.7196,23.12,0.375,33.43-21.6-0.3292-47.29-2.083-72.08-0.3125-0.3674-9.889-1.232-19.07,0-33z" fill="#000"/>
</g>
<g id="button_8">
<use id="button_8_rect" xlink:href="#button_7_rect" transform="translate(0,60)" height="360" width="640" y="0" x="0"/>
<path id="rect3779-0-8-8-6" fill="#000" d="m1982,804,0,42-82,0,0-42zm-5.125,4.812c-23.1-0.01-49.46-0.1753-71.5-0.25-0.5246,13.6-0.3775,23.27,0.5,32.87,25.4,0.1667,46.52-0.5599,71.2,0.5-0.3233-17.7,0.3251-24.34-0.2-33.12z"/>
</g>
<g id="button_9">
<use id="button_9_rect" xlink:href="#button_7_rect" transform="translate(0,120)" height="360" width="640" y="0" x="0"/>
<path id="path217" d="m1900,906,0-42,82,0,0,42zm77.28-4.312c-1.074-12.31-0.1363-23.07-0.125-33.24-25.1,0-47.39,0.9733-72.38-0.375,0.2083,8.26,0.7587,23.33,0.55,33.62,23.54-0.5834,49.52,0.5066,71.95,0z" fill="#000"/>
</g>
<g id="button_10">
<rect id="button_10_rect" height="40" width="104" y="999" x="1901" fill="url(#radialGradient5129)"/>
<path id="path221" d="m1900,998,0,42,106,0,0-42zm5.375,4.437c31.14,0.2345,65.38,0.049,95.7-0.125,0.6822,12.32,0.7196,23.12,0.375,33.43-30.6-0.8292-60.79,0.917-96.08-0.3125-0.3674-9.889-1.232-19.07,0-33z" fill="#000"/>
</g>
<g id="button_11">
<use id="button_11_rect" xlink:href="#button_10_rect" transform="translate(0,60)" height="360" width="640" y="0" x="0"/>
<path id="path225" d="m2006,1058,0,42-106,0,0-42zm-5.125,4.812c-29.1,0.49-66.96-0.1753-95.5-0.25-0.5246,13.6-0.3775,23.27,0.5,32.87,32.4-0.3333,63.52-0.5599,95.2,0.5-0.3233-17.7,0.3251-24.34-0.2-33.12z" fill="#000"/>
</g>
<g id="button_12">
<use id="button_12_rect" xlink:href="#button_10_rect" transform="translate(0,120)" height="360" width="640" y="0" x="0"/>
<path id="path229" d="m1900,1160,0-42,106,0,0,42zm101.3-4.312c-1.074-12.31-0.1363-23.07-0.125-33.24-35.6,1-64.39,0.9733-96.38-0.375,0.2083,8.26,0.7587,23.33,0.55,33.62,31.54-0.5834,65.02,0.01,95.95,0z" fill="#000"/>
</g>
<g id="button_13">
<rect id="button_13_rect" height="40" width="124" y="1289" x="1901" fill="url(#radialGradient5294)"/>
<path id="path233" d="m1900,1288,0,42,126,0,0-42zm5.375,4.437c44.14,0.7345,77.38-0.451,115.7-0.125,0.6822,12.32,0.7196,23.12,0.375,33.43-43.1-1.829-73.29,0.417-116.1-0.3125-0.3674-9.889-1.232-19.07,0-33z" fill="#000"/>
</g>
<g id="button_14">
<use id="button_14_rect" xlink:href="#button_13_rect" transform="translate(0,60)" height="360" width="640" y="0" x="0"/>
<path id="path237" d="m2026,1348,0,42-126,0,0-42zm-5.125,4.812c-37.6,0.49-76.46-0.6753-115.5-0.25-0.5246,13.6-0.3775,23.27,0.5,32.87,40.4,0.1667,76.52-0.06,115.2,0.5-0.3233-17.7,0.3251-24.34-0.2-33.12z" fill="#000"/>
</g>
<g id="button_15">
<use id="button_15_rect" xlink:href="#button_13_rect" transform="translate(0,120)" height="360" width="640" y="0" x="0"/>
<path id="path241" d="m1900,1450,0-42,126,0,0,42zm121.3-4.312c-1.074-12.31-0.1363-23.07-0.125-33.24-38.6,1-74.89-0.027-116.4-0.375,0.2083,8.26,0.7587,23.33,0.55,33.62,42.04-0.5834,78.52,0.01,116,0z" fill="#000"/>
</g>
<g id="button_16">
<rect id="button_16_rect" height="40" width="144" y="1579" x="1901" fill="url(#radialGradient5434)"/>
<path id="path245" d="m1900,1578,0,42,146,0,0-42zm5.375,4.437c53.33,1.442,85.36-0.451,135.7-0.125,0.6822,12.32,0.7196,23.12,0.375,33.43-48.75-1.122-83.39-0.2901-136.1-0.3125-0.3674-9.889-1.232-19.07,0-33z" fill="#000"/>
</g>
<g id="button_17">
<use id="button_17_rect" xlink:href="#button_16_rect" transform="translate(0,60)" height="360" width="640" y="0" x="0"/>
<path id="path249" d="m2046,1638,0,42-146,0,0-42zm-5.125,4.812c-45.38-0.2171-86.56-1.382-135.5-0.25-0.5246,13.6-0.3775,23.27,0.5,32.87,50.3,0.1667,87.32,0.6471,135.2,0.5-0.3233-17.7,0.3251-24.34-0.2-33.12z" fill="#000"/>
</g>
<g id="button_18">
<use id="button_18_rect" xlink:href="#button_16_rect" transform="translate(0,120)" height="360" width="640" y="0" x="0"/>
<path id="path253" d="m1900,1740,0-42,146,0,0,42zm141.3-4.312c-1.074-12.31-0.1363-23.07-0.125-33.24-47.09,1.707-86.4-2.148-136.4-0.375,0.2083,8.26,0.7587,23.33,0.55,33.62,47.7-0.5834,92.86-1.404,136,0z" fill="#000"/>
</g>
<g id="button_19">
<rect id="button_19_rect" height="40" width="164" y="1859" x="1901" fill="url(#radialGradient5599)"/>
<path id="path257" d="m1900,1858,0,42,166,0,0-42zm5.375,4.437c61.33,1.442,101.4,0.049,155.7-0.125,0.6822,12.32,0.7196,23.12,0.375,33.43-54.75-1.622-96.39,0.7099-156.1-0.3125-0.3674-9.889-1.232-19.07,0-33z" fill="#000"/>
</g>
<g id="button_20">
<use id="button_20_rect" xlink:href="#button_19_rect" transform="translate(0,60)" height="360" width="640" y="0" x="0"/>
<path id="path261" d="m2066,1918,0,42-166,0,0-42zm-5.125,4.812c-59.38,0.2829-96.56-1.382-155.5-0.25-0.5246,13.6-0.3775,23.27,0.5,32.87,62.3-1.333,101.3,0.6471,155.2,0.5-0.3233-17.7,0.3251-24.34-0.2-33.12z" fill="#000"/>
</g>
<g id="button_21">
<use id="button_21_rect" xlink:href="#button_19_rect" transform="translate(0,120)" height="360" width="640" y="0" x="0"/>
<path id="path265" d="m1900,2020,0-42,166,0,0,42zm161.3-4.312c-1.074-12.31-0.1363-23.07-0.125-33.24-54.59,1.207-94.9-2.148-156.4-0.375,0.2083,8.26,0.7587,23.33,0.55,33.62,57.7-0.5834,105.4-0.9042,156,0z" fill="#000"/>
</g>
<g id="volumebar_20">
<path id="path3151-75" d="m817.5,277.6c-1.256,0.008-1.082,1-1.096,1.518-0.0136,0.5181-0.0233,1.627,1.096,1.653,1.119,0.0253,1.546-0.8339,1.509-1.639s-0.2534-1.54-1.509-1.532z" fill-opacity="0.58039216" fill="#EEE"/>
<rect id="rect3978-6" height="28.75" width="6.117" y="253.7" x="814.7" fill="none"/>
</g>
<g id="volumebar_40">
<path id="path3151-7" d="m823.9,272.7c-1.465,0.0416-1.126,1.087-1.096,3.792,0.0303,2.705-0.0233,4.143,1.252,4.128,1.276-0.0149,1.445-0.5982,1.353-4.094-0.0919-3.496-0.0447-3.867-1.509-3.826z" fill-opacity="0.58039216" fill="#EEE"/>
<rect id="rect3978-5" height="28.75" width="6.117" y="253.7" x="821.1" fill="none"/>
</g>
<g id="volumebar_60">
<path id="path3151-8" d="m830.4,267.9c-1.652,0.0672-0.9176,1.362-1.096,6.126-0.1982,5.289-0.3983,6.692,1.096,6.668s1.667-1.362,1.509-6.614c-0.1511-5.034,0.1428-6.247-1.509-6.18z" fill-opacity="0.58039216" fill="#EEE"/>
<rect id="rect3978-7" height="28.75" width="6.117" y="253.7" x="827.6" fill="none"/>
</g>
<g id="volumebar_80">
<path id="path3151-9" d="m836.9,261.7c-1.652,0.0993-1.345,0.5007-1.096,9.058,0.2491,8.557-0.3983,9.895,1.096,9.86,1.494-0.0355,1.476-0.5503,1.509-9.779,0.0331-9.229,0.1428-9.238-1.509-9.138z" fill-opacity="0.58039216" fill="#EEE"/>
<rect id="rect3978-4" height="28.75" width="6.117" y="253.7" x="834" fill="none"/>
</g>
<g id="volumebar_100">
<path id="path3151" d="m843.3,255.7c-2.277,0.0676-1.229,1.826-1.221,11.87,0.009,11.69-0.2733,12.84,1.221,12.92,1.494,0.0784,1.651,0.1121,1.509-12.82-0.1127-10.32,0.7678-12.04-1.509-11.98z" fill-opacity="0.58039216" fill="#EEE"/>
<rect id="rect3978" height="28.75" width="6.117" y="253.7" x="840.4" fill="none"/>
</g>
<path id="title" fill="#000" d="m5,11,0,29,138,0,0-29zm63.68,5.034c0.22-0.01,0.48,0,0.65,0.03,0.34,0.04,0.7,0.13,0.75,0.37,0,0.41-0.01,0.96-0.03,1.36l-0.22,4.04c0.02,0.67-0.24,0.9-0.44,0.93-0.39,0.07-0.94,0.08-1.34,0-0.19-0.48-0.42-0.69-0.44-0.9-0.08-1.61-0.19-3.73-0.28-5.34,0.01-0.25,0.36-0.39,0.57-0.43,0.24-0.03,0.55-0.06,0.78-0.06zm13.2,0.12c0.23,0,0.52,0.01,0.69,0.03,0.34,0.05,0.7,0.13,0.75,0.37-0.01,0.41-0.05,0.96-0.06,1.37l-0.22,4.03c0.02,0.56-0.24,0.78-0.44,0.81-0.4,0.07-0.95,0.08-1.34,0-0.19-0.37-0.43-0.6-0.44-0.81-0.09-1.6-0.2-3.73-0.28-5.34,0.01-0.24,0.36-0.36,0.56-0.4,0.25-0.04,0.56-0.06,0.78-0.06zm-25.54,0.59c0.61,0,1.35,0.27,1.31,0.71l0.41,5.9c0.89-1.05,2.65-1.96,4.06-1.83,1.29,0,2.85,1.04,3.31,2.23,0.55,1.37,0.51,3.34,0.65,4.78l0.32,4.54c-0.24,0.66-1.39,0.55-1.97,0.65-0.49,0.07-1.36-0.12-1.25-0.75-0.15-1.97-0.3-4.61-0.47-6.58-0.07-0.84-0.74-2.03-1.68-2.08-1.13-0.1-2.17,1.09-2.75,1.9l0.5,7.38c-0.21,0.65-1.32,0.53-1.87,0.62-0.46,0.04-1.43,0-1.35-0.65l-1.12-16.17c0.19-0.67,1.34-0.56,1.9-0.65zm-31.34,0.19c0.52,0.06,0.5,0.92,0.56,1.3,0.04,0.46,0.02,1.47-0.66,1.4l-3.84,0.21,0.75,13.07c-0.21,0.65-1.32,0.53-1.87,0.62-0.46-0.01-1.51,0.08-1.5-0.59l-0.75-12.91-4.09,0.25c-0.66-0.24-0.52-1.38-0.56-1.96-0.07-0.5,0.43-0.83,0.87-0.77zm61.53,0.34c0.49,0.03,1.54-0.09,1.6,0.59l0.56,13.22,5.24-0.22c0.54,0.05,0.55,0.99,0.6,1.37,0,0.45,0.03,1.44-0.63,1.43-2.28,0.09-5.3,0.25-7.58,0.34-0.57,0.02-1.03-0.69-0.97-1.21l-0.63-14.9c0.2-0.63,1.28-0.54,1.81-0.62zm25.96,3.88c1,0.29,2.1,1.34,2.3,2.42,0.3,1.15,0.1,2.74,0.1,3.91l-0.3,5.71c-0.2,0.58-1.1,0.37-1.6,0.4-0.4,0-1.1-0.17-1-0.71,0-0.22,0-0.49,0.1-0.71-1,0.97-2.8,1.56-4.1,1.36-1.2-0.12-2.8-0.96-3.2-2.14-0.4-1.07-0.3-2.75,0.4-3.69,0.8-1.08,2.6-1.54,3.8-1.62,0.9-0.06,2-0.01,2.8,0.03,0.1-0.75,0.2-1.88-0.4-2.45-0.7-0.5-1.8-0.5-2.6-0.43-0.8,0.11-1.8,0.56-2.6,0.9-0.6,0.19-0.8-0.79-0.7-1.21-0.1-0.56,0.3-1.26,0.8-1.43,1-0.43,2.4-0.74,3.4-0.75,0.9,0,2,0.17,2.8,0.41zm10.1,0.4c0.3,0.36,0.2,1.03,0.3,1.46-0.1,0.43,0.1,1.25-0.4,1.49-0.4-0.03-1-0.35-1.5-0.25-0.8,0.18-1.5,1.14-2,1.8-0.1,0.21-0.1,0.58-0.1,0.84,0,1.93,0.1,4.49,0.1,6.42-0.1,0.44-0.9,0.42-1.2,0.47-0.6-0.01-1.3,0.05-1.8-0.22-0.2-0.2-0.1-0.58-0.1-0.84-0.1-3.22-0.2-7.52-0.2-10.74,0.2-0.47,1-0.41,1.3-0.46,0,0.03,0.7-0.05,0.9,0.43v1.46c1-0.74,1.8-1.75,2.7-2.05,0.2-0.04,0.4-0.08,0.7-0.1,0.3-0.01,0.9,0.17,1.3,0.29zm2.6,0.21c0.5,0,1.2-0.09,1.2,0.47-0.1,0.35-0.1,0.81-0.1,1.15,1-0.97,2.7-1.94,4.1-1.8,1.2,0.04,2.7,0.88,3.3,1.99,0.6,1.34,0.4,3.31,0.4,4.75l-0.3,5.27c-0.1,0.56-1.1,0.4-1.5,0.44-0.5-0.08-1.5,0.02-1.6-0.56,0.1-2.05,0.2-4.78,0.3-6.83,0-0.8-0.4-2-1.2-2.27-0.8-0.29-1.9,0.24-2.4,0.78-0.3,0.28-0.8,0.63-0.8,1.06l-0.3,7.04c-0.2,0.56-1.1,0.4-1.6,0.44-0.5-0.08-1.6,0-1.6-0.59l0.6-11.12c0.7-0.51,1-0.22,1.5-0.22zm-48.12-0.18c1.2,0.01,2.74,0.86,3.25,1.96,0.64,1.32,0.47,3.27,0.47,4.68l-0.09,5.16c-0.17,0.55-1.11,0.38-1.56,0.43-0.46-0.07-1.42,0.07-1.57-0.5,0.04-2.02,0.11-4.74,0.13-6.76,0-0.79-0.4-1.96-1.25-2.21-0.8-0.26-1.86,0.29-2.4,0.84-0.24,0.29-0.74,0.64-0.66,1.06l-0.12,6.98c-0.18,0.56-1.14,0.42-1.6,0.47-0.45-0.07-1.41,0.03-1.56-0.53l0.22-11.02c0.15-0.57,1.11-0.43,1.56-0.47,0.39,0.02,1.2,0.1,1.13,0.66-0.01,0.34-0.03,0.8-0.04,1.14,1.18-1.11,2.56-1.93,4.09-1.89zm22.17,0.31c0.24,0,0.55,0.01,0.75,0.03,0.8,0.04,1.8,0.34,2.4,0.81,1.2,0.86,1.8,2.73,1.9,4.1,0.1,0.46-0.1,1.22-0.6,1.3-1.9,0.23-4.39,0.5-6.26,0.71-0.45-0.07-0.22,0.48-0.19,0.75,0.16,0.81,0.97,1.73,1.81,1.86,1.24,0.23,2.94-0.26,4.04-0.77,0.4-0.27,1.2-0.47,1.2,0.24,0,0.49,0.2,1.28-0.2,1.65-0.8,0.5-2,0.85-2.9,1.05-1.42,0.27-3.44,0.31-4.73-0.43-1.11-0.62-1.98-2.18-2.24-3.38-0.38-1.66-0.4-4.09,0.53-5.59,0.82-1.37,2.92-2.32,4.49-2.33zm-63.07,0.16c0.74-0.04,1.62,0.28,1.66,0.52-0.02,1.94-0.09,4.52-0.09,6.46-0.01,0.74,0.38,1.84,1.15,2.11,0.72,0.28,1.7-0.15,2.22-0.65,0.23-0.3,0.82-0.64,0.81-1.06l0.06-6.79c0.18-0.56,1.16-0.42,1.62-0.47,0.41,0.05,1.3-0.02,1.38,0.53l-0.16,10.55c-0.14,0.55-1.03,0.43-1.46,0.47-0.74-0.02-1.54-0.09-1.47-0.62v-1.09c-0.54,0.97-2.12,1.94-3.5,1.83-1.12-0.01-2.58-0.75-3.09-1.77-0.65-1.24-0.53-3.12-0.53-4.47l0.03-5.06c0.34-0.29,0.93-0.47,1.37-0.49zm14.43,0.06c0.93-0.03,2.14,0.28,2.93,0.77,0.44,0.22,0.58,0.84,0.57,1.28-0.03,0.43,0.04,1.13-0.35,1.42-0.5,0.04-0.93-0.55-1.37-0.71-0.81-0.42-2.24-0.43-2.94,0.22-0.77,0.76-0.92,2.27-0.9,3.29,0.03,0.91,0.31,2.24,1.12,2.79,0.81,0.5,2.22,0.37,3-0.12,0.39-0.13,1-1,1.37-0.5,0.1,0.33,0.09,0.78,0.1,1.12-0.02,0.45,0.01,1.19-0.44,1.46-1.32,0.87-3.56,1.07-5.06,0.62-1.17-0.35-2.35-1.6-2.75-2.73-0.47-1.35-0.49-3.27-0.25-4.66,0.27-1.37,1.32-3.08,2.63-3.69,0.65-0.3,1.61-0.54,2.34-0.56zm-21.89,0.09c0.74,0.02,1.71,0.19,2.41,0.41,1.21,0.37,2.55,1.62,2.9,2.85,0.28,0.89,0.31,2.12,0.22,3.04-0.15,1.54-0.99,3.6-2.31,4.5-1.39,0.96-3.76,1-5.34,0.59-1.32-0.33-2.81-1.56-3.22-2.88-0.42-1.36-0.33-3.3,0.03-4.66,0.37-1.34,1.61-2.9,2.94-3.41,0.68-0.28,1.64-0.45,2.37-0.44zm70.13,1.83c-0.28,0.03-0.64,0.14-0.88,0.28-0.84,0.47-1.14,1.79-1.09,2.67l4.42-0.49c0.1-0.28-0.1-0.92-0.2-1.25-0.3-0.78-1.46-1.29-2.25-1.21zm-70.28,0.5c-0.21,0.02-0.46,0.09-0.66,0.15-0.96,0.36-1.54,1.68-1.69,2.61-0.13,1-0.19,2.46,0.38,3.35,0.55,0.79,1.93,1.06,2.81,0.81,0.94-0.3,1.56-1.56,1.72-2.45,0.04-0.2,0.07-0.48,0.09-0.68,0.08-0.97,0.03-2.43-0.72-3.17-0.46-0.43-1.31-0.67-1.93-0.62zm81.53,3.54c-0.6,0-1.2,0.09-1.7,0.31-0.9,0.43-1,2.32,0,2.76,0.8,0.38,2,0.08,2.7-0.5,0.2-0.23,0.7-0.5,0.6-0.9v-1.58c-0.5-0.01-1.1-0.09-1.6-0.09z"/>
</svg>
