<svg id="svg2" xmlns:rdf="http://www.w3.org/1999/02/22-rdf-syntax-ns#" xmlns="http://www.w3.org/2000/svg" height="100%" viewBox="0 0 640 360" width="100%" version="1.1" xmlns:cc="http://creativecommons.org/ns#" xmlns:xlink="http://www.w3.org/1999/xlink" xmlns:dc="http://purl.org/dc/elements/1.1/">
<defs id="defs4">
<radialGradient id="radialGradient3045" gradientUnits="userSpaceOnUse" cy="9.196" cx="1180" gradientTransform="matrix(1.4951715,-0.00368325,0.00246343,0.99999697,-584.32495,4.3462641)" r="181">
<stop id="stop17" stop-color="#000" stop-opacity="0" offset="0"/>
<stop id="stop19" stop-color="#000" stop-opacity="0" offset="0.4337"/>
<stop id="stop21" stop-color="#000" stop-opacity="0.11764706" offset="0.7082"/>
<stop id="stop23" stop-color="#000" stop-opacity="0.27450982" offset="1"/>
</radialGradient>
<radialGradient id="radialGradient3037" gradientUnits="userSpaceOnUse" cy="9.196" cx="1180" gradientTransform="matrix(0.44361696,0,5.2895859e-4,0.1367241,251.52715,38.894115)" r="181">
<stop id="stop17-6-0-4" stop-color="#000" stop-opacity="0" offset="0"/>
<stop id="stop19-9-5-0" stop-color="#000" stop-opacity="0" offset="0.4337"/>
<stop id="stop21-07-5-9" stop-color="#000" stop-opacity="0.11764706" offset="0.7082"/>
<stop id="stop23-5-8-4" stop-color="#000" stop-opacity="0.27450982" offset="1"/>
</radialGradient>
<radialGradient id="radialGradient3601" xlink:href="#radialGradient3037" gradientUnits="userSpaceOnUse" cy="9.196" cx="1180" gradientTransform="matrix(0.44361696,0,5.2895859e-4,0.1367241,251.52715,38.894115)" r="181"/>
<radialGradient id="radialGradient4150" gradientUnits="userSpaceOnUse" cy="9.196" cx="1180" gradientTransform="matrix(0.13072879,-1.8651492e-5,1.5587868e-4,0.12843681,1766.7386,252.99233)" r="181">
<stop id="stop4154" stop-opacity="0" stop-color="#000" offset="0"/>
<stop id="stop4156" stop-opacity="0" stop-color="#000" offset="0.3476"/>
<stop id="stop4158" stop-opacity="0.11764706" stop-color="#000" offset="0.7666"/>
<stop id="stop4160" stop-opacity="0.27450982" stop-color="#000" offset="1"/>
</radialGradient>
<radialGradient id="radialGradient4534" gradientUnits="userSpaceOnUse" cy="9.196" cx="1180" gradientTransform="matrix(0.19609319,-1.8651492e-5,2.3381802e-4,0.12843681,1698.6079,514.99233)" r="181">
<stop id="stop4154-7" stop-opacity="0" stop-color="#000" offset="0"/>
<stop id="stop4156-2" stop-opacity="0" stop-color="#000" offset="0.3476"/>
<stop id="stop4158-7" stop-opacity="0.11764706" stop-color="#000" offset="0.7666"/>
<stop id="stop4160-9" stop-opacity="0.27450982" stop-color="#000" offset="1"/>
</radialGradient>
<radialGradient id="radialGradient4901" gradientUnits="userSpaceOnUse" cy="9.196" cx="1180" gradientTransform="matrix(0.24074343,0,2.786218e-4,0.12843683,1656.9202,763.97032)" r="181">
<stop id="stop4154-7-5" stop-opacity="0" stop-color="#000" offset="0"/>
<stop id="stop4156-2-3" stop-opacity="0" stop-color="#000" offset="0.3476"/>
<stop id="stop4158-7-1" stop-opacity="0.11764706" stop-color="#000" offset="0.7666"/>
<stop id="stop4160-9-3" stop-opacity="0.27450982" stop-color="#000" offset="1"/>
</radialGradient>
<radialGradient id="radialGradient5129" gradientUnits="userSpaceOnUse" cy="9.196" cx="1180" gradientTransform="matrix(0.31296645,0,3.6220833e-4,0.12843683,1583.6962,1017.9703)" r="181">
<stop id="stop4154-7-5-4" stop-opacity="0" stop-color="#000" offset="0"/>
<stop id="stop4156-2-3-4" stop-opacity="0" stop-color="#000" offset="0.3476"/>
<stop id="stop4158-7-1-2" stop-opacity="0.11764706" stop-color="#000" offset="0.7666"/>
<stop id="stop4160-9-3-3" stop-opacity="0.27450982" stop-color="#000" offset="1"/>
</radialGradient>
<radialGradient id="radialGradient5294" gradientUnits="userSpaceOnUse" cy="9.196" cx="1180" gradientTransform="matrix(0.37315231,0,4.3186379e-4,0.12843683,1522.6762,1307.9703)" r="181">
<stop id="stop4154-7-5-4-4" stop-opacity="0" stop-color="#000" offset="0"/>
<stop id="stop4156-2-3-4-1" stop-opacity="0" stop-color="#000" offset="0.3476"/>
<stop id="stop4158-7-1-2-9" stop-opacity="0.11764706" stop-color="#000" offset="0.7666"/>
<stop id="stop4160-9-3-3-8" stop-opacity="0.27450982" stop-color="#000" offset="1"/>
</radialGradient>
<radialGradient id="radialGradient5434" gradientUnits="userSpaceOnUse" cy="9.196" cx="1180" gradientTransform="matrix(0.43333816,0,5.0151922e-4,0.12843683,1461.6562,1597.9703)" r="181">
<stop id="stop4154-7-5-4-4-7" stop-opacity="0" stop-color="#000" offset="0"/>
<stop id="stop4156-2-3-4-1-7" stop-opacity="0" stop-color="#000" offset="0.3476"/>
<stop id="stop4158-7-1-2-9-5" stop-opacity="0.11764706" stop-color="#000" offset="0.7666"/>
<stop id="stop4160-9-3-3-8-0" stop-opacity="0.27450982" stop-color="#000" offset="1"/>
</radialGradient>
<radialGradient id="radialGradient5599" gradientUnits="userSpaceOnUse" cy="9.196" cx="1180" gradientTransform="matrix(0.49352401,0,5.7117466e-4,0.12843683,1400.6363,1877.9703)" r="181">
<stop id="stop4154-7-5-4-4-7-9" stop-opacity="0" stop-color="#000" offset="0"/>
<stop id="stop4156-2-3-4-1-7-8" stop-opacity="0" stop-color="#000" offset="0.3476"/>
<stop id="stop4158-7-1-2-9-5-7" stop-opacity="0.11764706" stop-color="#000" offset="0.7666"/>
<stop id="stop4160-9-3-3-8-0-5" stop-opacity="0.27450982" stop-color="#000" offset="1"/>
</radialGradient>
</defs>
<metadata id="metadata25">
<rdf:RDF>
<cc:Work rdf:about="">
<dc:format>image/svg+xml</dc:format>
<dc:type rdf:resource="http://purl.org/dc/dcmitype/StillImage"/>
<dc:title/>
</cc:Work>
</rdf:RDF>
</metadata>
<g id="portraitmutilplechoice">
<rect id="portraitmutilplechoice_rect" height="276.3" width="360" y="-130" x="1000" fill="url(#radialGradient3045)"/>
<path id="path37" fill="#000" d="m999-131,0,278,362,0,0-278zm360.6,28.03c-0.4404,10.02-1.271,16.85-1.148,69.55,0.1226,52.71,1.551,142.1-0.3827,154.6-1.934,12.52-12.11,20.13-21.02,21.78s-75.91,3.148-155.6,1.409c-77.75-1.697-151.4,0.428-159.5-1.096-8.086-1.524-20.73-6.55-21.69-24.34-0.9592-17.79,3.592-77.82,3.531-112.2-0.095-53.6-4.323-99.9-2.438-112.9s10.48-20.16,22.59-22.69c12.11-2.528,130.7,0.1568,172.2-0.7474,46.26-1.007,124.3,1.325,139.9,1.786,15.57,0.4613,24.01,14.83,23.57,24.85z"/>
</g>
<g id="answerbutton_wide_0" transform="translate(1201,-36)">
<rect id="answerbutton_wide_0_rect" height="40" width="150" y="20" x="700" fill="url(#radialGradient3601)"/>
<path id="rect3779" fill="#000" d="m699,19,0,42,152,0,0-42zm6.375,4.562c55.58-1.703,94.01-0.3258,140.7-0.25-0.3803,11.63-0.9054,24.56,0,33.62-47.47-0.01674-123.6-1.708-141.7-0.5,0.401-4.858,1.259-18.11,1-32.87z"/>
</g>
<g id="answerbutton_wide_1" transform="matrix(-1,0,0,1,2751,24)">
<rect id="answerbutton_wide_1_rect" height="40" width="150" y="20" x="700" fill="url(#radialGradient3601)"/>
<path id="rect3779-0" fill="#000" d="m699,19,0,42,152,0,0-42zm146.6,4.562c0.5246,18.1,0.3775,23.27-0.5,32.87-47.07,0.1667-126.7-0.5473-141.2,0.5-0.2676-24.88-0.4056-32.95-0.4056-32.95s43.94,0.6547,142.1-0.42z"/>
</g>
<g id="answerbutton_wide_2" transform="matrix(1,0,0,-1,1201,164)">
<rect id="answerbutton_wide_2_rect" height="40" width="150" y="20" x="700" fill="url(#radialGradient3601)"/>
<path id="rect3779-01" fill="#000" d="m699,19,0,42,152,0,0-42zm147.3,4.312c0.9572,3.307,0.2045,15.59-1.5,32.87-10.48,1.875-79.89,0.6517-141,0.75,0.3333-10.51,1.05-32.87,1.05-32.87s77.54-1.07,141.4-0.75z"/>
</g>
<g id="read_words">
<g id="layer1" transform="matrix(0.57127506,0,0,0.57127506,599.95426,465.28232)">
<g id="robot" transform="matrix(0.71921583,0,0,0.71921583,397.59041,4.8281076)">
<path id="path4536" d="m383.7,93.73-7.418-7.773,0.359-0.399,7.418,7.742c3.379-3.262,7.078-2.992,10.19-0.433l7.308-7.668,0.395,0.324-7.09,7.922c3.128,3.454,4.475,8.022,5.498,11.95,2.253,0.3857,5.727-0.7361,6.346,3.276,12.56,1.474,11.34,8.682,11.33,16.84,1.867,1.134,2.109,6.873-2.121,7.323-0.105,0-1.426-1.467-1.426-1.467s-1.881,1.422-2.096,1.277c-3.791-2.734-2.567-6.798-0.418-7.872,0-1.656,0.238-4.226,0.02-6.132-0.25-1.91-1.153-2.379-2.375-2.844-0.938-0.363-1.871-0.144-2.989-0.179-0.035,2.769,0.036,6.226-0.289,9.574-0.07,0.898-0.14,3.707-1.332,4.105l-2.16,0.036c1.227,0.933,2.199,1.367,2.199,3.636,0,1.512-1.836,2.485-1.875,3.887-0.07,1.152,2.161,2.09,1.946,4.789-0.18,2.305-1.727,2.844-1.836,4.031-0.071,1.188,1.765,0.539,1.765,3.457,0,2.375-1.765,1.762-1.765,3.672,0,1.258,2.519,1.438,3.203,3.527,0.504,1.621,0.578,1.98,0.18,3.492-5.11,0-9.684,0.2891-15.52,0.1055,0.035-2.375-0.25-1.512,0.109-3.562,0.36-2.086,2.34-2.555,2.45-3.238,0.214-1.441-1.836-1.695-1.766-3.816,0.035-2.09,2.16-2.52,2.051-3.852-0.18-1.621-2.121-1.945-2.051-4.539,0.035-2.519,1.476-2.519,1.441-3.851-0.039-1.477-2.125-1.582-1.8-4.356,0.214-2.05,1.332-2.664,2.16-3.492l-5.942-0.18c0.828,1.043,1.657,1.223,1.621,4.211-0.035,2.774-1.871,2.485-1.621,4.215,0.18,1.367,1.766,1.293,1.621,3.996-0.144,3.239-1.945,3.059-1.8,4.391,0.144,1.402,2.414,0.9375,2.125,3.672-0.289,2.664-1.871,2.375-1.981,3.852-0.109,1.082,2.34,1.082,2.449,2.738,0.106,2.051,0.286,1.836,0.071,3.633-6.371,0.2891-11.38,0.1797-16.81,0.1797-0.359-1.941-0.359-2.664,0.973-4.785,1.402-2.305,3.601-1.91,3.492-2.52-0.289-1.262-2.016-1.082-2.16-3.492-0.07-1.801,2.34-2.234,2.414-3.348,0.105-1.442-2.16-2.02-2.234-5.043-0.036-2.34,2.375-2.16,2.519-3.528,0.18-1.656-2.555-1.836-2.629-3.922-0.105-2.125,0.543-3.636,1.586-4.429l-2.629-0.035c-1.008,0.105-1.402,0.144-1.476-2.918-0.071-3.563-0.036-6.551,0-9.575-6.662-1.842-5.833,7.582-5.59,9.013,3.623,2.989,1.861,6.452-0.7416,7.935-1.163-0.8539-1.86-1.596-1.86-1.596s-0.8622,0.7825-2.066,1.567c-4.908-2.671-2.51-7.495-1.083-8.192-1.566-9.067,0.6011-15.91,11.74-15.78,0.2733-3.453,1.656-3.167,4.895-3.492,1.747-5.614,1.138-7.029,5.079-12.06z"/>
<path id="path4538" fill="#FF0" d="m382.8,98.13c0.863-2.2,1.656-3.168,2.988-4.176,1.582-1.192,3.094-1.875,5.508-0.867,2.375,1.007,3.492,2.988,4.645,5.437,1.472,3.277,2.015,5.363,2.23,6.984-7.453,0.25-10.37,0.18-17.17,0.29,0.249-2.125,0.648-4.825,1.8-7.668z"/>
<path id="path4540" fill="#a1a1a1" d="m379.6,138.4c0-0.649,6.301-0.614,6.266-0.11-0.074,0.867,1.836,1.047,1.762,3.278-0.036,1.871-1.836,2.414-1.727,3.132,0.07,0.504-6.375,0.504-6.23-0.074,0.144-0.394-1.907-1.043-1.907-3.418,0-1.98,1.836-2.269,1.836-2.808z"/>
<path id="path4542" fill="#a1a1a1" d="m379.6,146.4c-0.106-0.9726,6.191-0.7929,6.266,0.1055,0.035,0.6485,2.195,1.152,2.265,2.703,0.145,2.266-2.265,2.34-2.156,2.984,0.141,0.8672-6.59,1.117-6.52,0.2891,0.039-0.793-1.906-1.367-2.015-3.418-0.071-1.227,2.234-1.98,2.16-2.664z"/>
<path id="path4544" fill="#a1a1a1" d="m395.7,146.4c0.179-0.5039,6.625-0.4688,6.48,0.2539-0.144,0.8281,1.582,0.5742,1.547,2.879-0.07,1.941-2.016,1.871-1.945,2.52,0.109,1.188-5.903,1.043-6.012,0.2891-0.07-0.4688-1.906-1.227-1.941-3.312-0.075-1.442,1.691-1.946,1.871-2.63z"/>
<path id="path4546" fill="#404040" d="m386.5,154.6c1.727,0.9726,2.375,3.852,1.547,3.922-2.16,0.1445-9.574,0.3632-12.71,0.039-0.574-0.039,0.254-3.133,1.982-3.996,1.514-0.7579,7.202-1.047,9.182,0.0351z"/>
<path id="path4548" fill="#404040" d="m403,154.8c1.727,0.9375,2.735,4.035,1.871,4.106-2.16,0.1445-8.531,0.1796-11.66-0.1094-0.578-0.0703-0.578-2.988,1.115-3.852,1.51-0.754,6.694-1.258,8.674-0.1446z"/>
<path id="path4550" fill="#FF0" d="m363.4,126.4c0.04-1.203,2.953-1.018,2.953-0.035,1.697,0.006,3.89,4.059,0.289,5.578-0.219-0.105-0.469-0.394-0.902-1.007,3.448-4.283-5.03-3.827-1.188,0.109-0.105,0.144-0.8687,0.8929-1.303,0.9979-2.945-1.551-1.694-5.331,0.1507-5.643z"/>
<path id="path4552" fill="#FF0" d="m413,126c-0.2007-1.042,3.892-0.6178,3.037,0.1659,1.978,0.3788,2.678,3.935-0.0639,5.287-0.215-0.075-0.434-0.399-0.828-1.047,3.733-3.861-4.655-4.05-1.223,0.074-0.11,0.144-0.8488,0.8339-1.243,0.9429-2.791-2.203-1.093-4.842,0.3208-5.423z"/>
<path id="path4554" fill="#a1a1a1" d="m373.6,114.7c-0.2487,0.0344-1.48-0.1419-2.636,0.0234-1.155,0.1653-2.234,0.6723-2.657,0.8746-0.4226,0.2023-1.764-1.962-2.071-3.065-0.3071-1.103,6.889-2.99,7.294-1.836,0.4049,1.154,0.3185,3.968,0.0698,4.003z"/>
<path id="path4556" fill="#a1a1a1" d="m367.2,116.3c0.1873,0.5176-0.6266,2.68-0.9589,2.858-0.3324,0.178-2.497,0.0189-2.997-0.414-0.5003-0.4329,0.5822-4.827,1.506-4.97,0.9241-0.1423,2.263,2.008,2.45,2.526z"/>
<path id="path4558" fill="#a1a1a1" d="m366.1,120.4c0.2568,0.4381,0.3677,3.936,0.07,4.25-0.2977,0.3143-2.125,0.1308-2.519,0-0.3943-0.1308-0.9033-4.065-0.469-4.5,0.4343-0.4349,2.661-0.1881,2.918,0.25z"/>
<path id="path4560" fill="#a1a1a1" d="m406.6,114.2c0.2464,0.3233,0.8826,0.0275,2.506,0.3556,1.078,0.2179,1.715,0.6207,2.273,0.5624,0.5575-0.0583,2.415-1.844,2.376-2.884-0.0394-1.04-7.129-2.984-7.35-2.1-0.2206,0.8839-0.0506,3.742,0.1958,4.066z"/>
<path id="path4562" fill="#a1a1a1" d="m412.6,116c-0.1088,0.5092,0.7376,2.82,1.083,3.039,0.3451,0.2193,2.663,0.1306,3.048-0.5139,0.3847-0.6445-0.9603-4.388-1.576-4.655-0.6158-0.2665-2.446,1.621-2.555,2.13z"/>
<path id="path4564" fill="#a1a1a1" d="m413.8,124.4c0.3835,0.2445,2.373,0.4969,2.74,0.2397,0.3672-0.2572,0.5892-4.013,0.2882-4.48-0.301-0.4672-2.695-0.1018-2.962,0.1691-0.2668,0.2709-0.4495,3.827-0.066,4.071z"/>
<path id="path4566" fill="#a1a1a1" d="m379,129.5c0-0.648,7.414-0.543,7.379,0-0.071,0.863,1.406,1.078,1.332,3.383-0.036,1.945-1.836,2.484-1.727,3.238,0.07,0.543-6.375,0.504-6.23-0.07,0.109-0.434-1.907-1.117-1.907-3.563,0-2.015,1.153-2.484,1.153-2.988z"/>
<path id="path4568" fill="#a1a1a1" d="m395.2,130.1c0-0.613,6.086-0.613,6.051-0.07-0.074,0.828,1.762,1.043,1.727,3.273-0.036,1.871-1.801,2.414-1.692,3.133,0.07,0.504-6.156,0.469-6.047-0.07,0.106-0.434-1.875-1.082-1.875-3.422,0-1.981,1.836-2.27,1.836-2.844z"/>
<path id="path4570" fill="#a1a1a1" d="m395.5,138.1c0-0.649,6.262-0.61,6.227-0.071-0.071,0.828,1.835,1.043,1.8,3.278-0.035,1.906-1.871,2.48-1.765,3.203,0.074,0.504-6.336,0.469-6.192-0.074,0.11-0.43-1.941-1.079-1.941-3.493,0-1.976,1.871-2.265,1.871-2.843z"/>
<path id="path4572" fill-rule="evenodd" d="m386,95.75,0,0c1.43,0,2.594,1.211,2.594,2.699s-1.164,2.699-2.594,2.699c-1.429,0-2.593-1.211-2.593-2.699s1.164-2.699,2.593-2.699zm-0.109,0.574c1.129,0,2.051,0.953,2.051,2.125s-0.922,2.125-2.051,2.125-2.051-0.953-2.051-2.125,0.922-2.125,2.051-2.125zm0.18,0.539c0.754,0,1.367,0.664,1.367,1.476,0,0.813-0.613,1.477-1.367,1.477s-1.368-0.664-1.368-1.477c0-0.812,0.614-1.476,1.368-1.476"/>
<path id="path4574" fill-rule="evenodd" d="m389.9,98.59c0,1.551,1.187,2.774,2.664,2.774s2.664-1.223,2.664-2.774c0-1.546-1.187-2.769-2.664-2.769s-2.664,1.223-2.664,2.769zm0.684-0.035c0,1.227,0.937,2.196,2.125,2.196,1.152,0,1.835-1.008,1.835-2.231,0-1.187-0.683-2.125-1.835-2.125-1.188,0-2.125,0.973-2.125,2.16zm0.578-0.07c0,0.828,0.613,1.477,1.367,1.477,0.719,0,1.332-0.649,1.332-1.477s-0.613-1.477-1.332-1.477c-0.754,0-1.367,0.649-1.367,1.477"/>
<path id="path4576" fill="#e0e0e0" d="m404.6,107.3c1.262,0.359,0.614,15.77,0.11,20.09-0.145,1.113-29.3,0.933-29.48-0.074-0.753-4.102-0.793-18.43,0.612-19.69,1.041-0.934,26.1-1.118,28.76-0.325z"/>
<path id="path4578" d="m383.3,110.4c0.105,0.109,0.105,3.277-0.074,3.457-0.18,0.215-4.176,0.18-4.391,0.035-0.144-0.144-0.18-3.168-0.07-3.457,0.105-0.18,4.281-0.215,4.535-0.035z"/>
<path id="path4580" fill="#00F" d="m382.4,111.1c0.11,0.075,0.075,1.946-0.035,2.051-0.109,0.11-2.449,0.11-2.554,0-0.11-0.07-0.11-1.871-0.075-2.015,0.075-0.145,2.52-0.145,2.664-0.036z"/>
<path id="path4582" d="m390.7,115.4c0.215-0.469,9.719-0.539,10.3-0.071,0.289,0.215,0.25,7.774-0.145,8.172-0.433,0.465-9.539,0.43-9.972,0.035-0.325-0.289-0.395-7.488-0.18-8.136"/>
<path id="path4584" fill="#00F" d="m400,116.1c0.215,0.179,0.215,6.191-0.105,6.551-0.363,0.359-7.633,0.324-7.957,0.035-0.289-0.25-0.36-6.012-0.145-6.516,0.145-0.394,7.739-0.43,8.207-0.07z"/>
<path id="path4586" d="m389.1,110.3c0.105,0.109,0.105,3.312-0.074,3.492-0.215,0.18-4.211,0.18-4.391,0-0.144-0.144-0.18-3.168-0.07-3.422,0.07-0.215,4.281-0.25,4.535-0.07z"/>
<path id="path4588" fill="#00F" d="m388.2,111c0.074,0.071,0.074,1.946-0.036,2.051-0.109,0.109-2.484,0.109-2.593,0-0.071-0.07-0.106-1.871-0.036-2.016,0.075-0.109,2.52-0.144,2.665-0.035z"/>
<path id="path4590" d="m383.3,115.4c0.145,0.105,0.145,3.273-0.035,3.457-0.219,0.179-4.215,0.179-4.395,0.035-0.14-0.145-0.179-3.168-0.07-3.457,0.07-0.18,4.285-0.215,4.5-0.035z"/>
<path id="path4592" fill="#00F" d="m382.5,116c0.07,0.035,0.07,1.941-0.039,2.051-0.106,0.109-2.485,0.109-2.59,0-0.074-0.07-0.11-1.871-0.035-2.016,0.035-0.144,2.519-0.144,2.664-0.035z"/>
<path id="path4594" d="m389.2,115.3c0.145,0.106,0.145,3.309-0.035,3.454-0.219,0.218-4.215,0.179-4.395,0.039-0.14-0.145-0.179-3.168-0.07-3.457,0.07-0.18,4.246-0.215,4.5-0.036z"/>
<path id="path4596" fill="#00F" d="m388.3,116c0.07,0.07,0.07,1.941-0.039,2.051-0.106,0.105-2.485,0.105-2.59,0-0.074-0.075-0.11-1.871-0.035-2.016,0.035-0.144,2.519-0.144,2.664-0.035z"/>
<path id="path4598" d="m383.5,120.1c0.144,0.105,0.109,3.312-0.07,3.492-0.18,0.18-4.176,0.18-4.36,0-0.14-0.145-0.18-3.168-0.07-3.422,0.07-0.215,4.25-0.25,4.5-0.07z"/>
<path id="path4600" fill="#F00" d="m382.6,120.8c0.071,0.071,0.071,1.942-0.039,2.051-0.105,0.109-2.48,0.109-2.59,0-0.074-0.07-0.109-1.871-0.035-2.016,0.035-0.109,2.52-0.144,2.664-0.035z"/>
<path id="path4602" d="m389.3,120.2c0.144,0.07,0.109,3.273-0.07,3.457-0.18,0.18-4.176,0.18-4.36,0-0.14-0.11-0.215-3.168-0.07-3.422,0.07-0.215,4.25-0.254,4.5-0.035z"/>
<path id="path4604" fill="#00F" d="m388.5,120.8c0.071,0.074,0.071,1.946-0.039,2.055-0.105,0.105-2.48,0.105-2.589,0-0.075-0.074-0.11-1.836-0.036-2.016,0.036-0.109,2.52-0.144,2.664-0.039z"/>
<path id="path4606" d="m395,110.4c0.109,0.109,0.109,3.277-0.071,3.457-0.215,0.18-4.211,0.18-4.39,0-0.145-0.109-0.18-3.133-0.075-3.422,0.075-0.215,4.286-0.25,4.536-0.035z"/>
<path id="path4608" fill="#F00" d="m394.2,111c0.07,0.036,0.07,1.911-0.035,2.016-0.11,0.109-2.449,0.109-2.559,0.035-0.105-0.105-0.144-1.871-0.07-2.051,0.07-0.109,2.519-0.144,2.664,0z"/>
<path id="path4610" d="m400.9,110.4c0.145,0.109,0.145,3.277-0.035,3.457-0.215,0.18-4.211,0.18-4.39,0.035-0.145-0.144-0.18-3.168-0.075-3.457,0.075-0.18,4.25-0.215,4.5-0.035z"/>
<path id="path4612" fill="#F00" d="m400,111c0.07,0.035,0.07,1.946-0.035,2.051-0.11,0.109-2.485,0.109-2.594,0-0.07-0.07-0.109-1.871-0.035-2.016,0.035-0.144,2.519-0.144,2.664-0.035z"/>
</g>
</g>
<path id="answerlabel" stroke-linejoin="miter" d="m966.3,532.9c37.48,1.803,43.62-0.3943,43.62-0.3943-0.096,4.505-1.04,10.03-0.1768,15.77-14.73-1.467-29.67,0.1655-44.37-1.127,0.7255-4.482,0.6882-9.17,0.9281-14.25z" stroke="#000" stroke-linecap="butt" stroke-miterlimit="4" stroke-dasharray="none" stroke-width="0.5644899" fill="#fbf2d5"/>
<use id="use4820" xlink:href="#answerbutton_wide_0" transform="matrix(-0.98684211,0,0,1.3571429,2983.75,520.32143)" height="360" width="640" y="0" x="0"/>
</g>
<g id="read_initial_letters">
<use id="use4869" xlink:href="#layer1" transform="matrix(1.0141542,-0.04494482,0.04494482,1.0141542,-37.080408,111.50861)" height="360" width="640" y="0" x="0"/>
<use id="use4025" xlink:href="#answerlabel" transform="matrix(0.9998477,-0.01745241,-0.01745241,-0.9998477,9.2271996,1172.9617)" height="360" width="640" y="0" x="0"/>
<use id="use4867" xlink:href="#answerbutton_wide_2" transform="matrix(-0.98684211,0,0,1.3571429,2984.9224,432.51999)" height="360" width="640" y="0" x="0"/>
</g>
<g id="count_easy">
<g id="g4274" transform="translate(157.40474,-37.11117)">
<g id="g3476" stroke-linejoin="round" transform="translate(1108.1349,445.90297)" stroke="#232323" stroke-dasharray="none" stroke-miterlimit="4" stroke-width="0.64999998">
<path id="use3067" stroke-linejoin="round" d="m-276.6-193c0.6416-2.598,0.618-4.492,2.563-5.876l0.9108,0.7617c-1.9,1.337-2.019,3.962-2.374,5.792z" stroke-dasharray="none" stroke-miterlimit="4" stroke-width="0.57144213" fill="#a16121"/>
<path id="use3069" stroke-linejoin="round" d="m-268.4-184.2c-4.364,8.176-6.569,10.55-11.34,6.43-5.526,2.043-5.934-2.468-7.013-10.29-1.084-7.821,5.825-11.35,11.17-6.113,4.084-2.628,11.56,1.798,7.193,9.969z" stroke-dasharray="none" stroke-miterlimit="4" stroke-width="0.57144213" fill="#c60000"/>
<path id="use3071" fill="#FFF" d="m-284.7-191.3c-0.006-0.5618,0.7183-2.797,1.342-3.403,1.009-0.9794,2.424-1.083,2.379-0.1813-0.0438,0.938-1.695,2.834-2.322,3.447-0.6218,0.6007-1.386,0.6807-1.4,0.1372z"/>
<path id="use3022" stroke-linejoin="round" d="m-290-184.3c0.2832-3.03-0.0633-5.158,1.891-7.042l1.153,0.703c-1.912,1.825-1.602,4.798-1.692,6.916z" stroke-dasharray="none" stroke-miterlimit="4" stroke-width="0.64999998" fill="#a16121"/>
<path id="use3024" stroke-linejoin="round" d="m-300.1-175.3c3.205,9.807,8.023,11.14,12.51,9.405,5.062,0.244,8.622,1.345,10.22-10.37,1.598-11.71-7.111-10.95-11.91-8.897-3.944-1.813-14.02,0.0563-10.82,9.866z" stroke-dasharray="none" stroke-miterlimit="4" stroke-width="0.64999998" fill="#c60000"/>
<path id="use3026" fill="#FFF" d="m-298.1-177.3c-0.3681-0.5685-0.7957-3.213-0.3183-4.15,0.7735-1.513,2.669-2.343,3.185-1.403,0.5404,0.9764-0.5357,3.752-1.012,4.696-0.4779,0.9296-1.487,1.403-1.854,0.8562z"/>
<path id="use3031" stroke-linejoin="round" d="m-263.5-187.7c0.3169-2.838,0.028-4.838,1.892-6.573l1.069,0.679c-1.824,1.679-1.583,4.473-1.704,6.458z" stroke-dasharray="none" stroke-miterlimit="4" stroke-width="0.60972953" fill="#a16121"/>
<path id="use3033" stroke-linejoin="round" d="m-254.3-178.1c-4.566,8.532-9.235,8.974-13.1,6.638-4.715-0.6039-8.184-0.1699-7.744-11.25,0.4431-11.08,8.363-8.952,12.46-6.266,3.94-1.028,12.95,2.35,8.377,10.88z" stroke-dasharray="none" stroke-miterlimit="4" stroke-width="0.60972953" fill="#c60000"/>
<path id="use3035" fill="#FFF" d="m-272.1-184.7c-0.2495-0.5842-0.2229-3.096,0.368-3.886,0.9568-1.276,2.84-1.74,3.168-0.7884,0.3437,0.9887-1.094,3.383-1.686,4.179-0.59,0.783-1.598,1.059-1.85,0.4956z"/>
</g>
</g>
<use id="use4021" xlink:href="#answerlabel" transform="matrix(-1,0,0,1,1975.9874,-293.38127)" height="360" width="640" y="0" x="0"/>
<use id="use3487" xlink:href="#answerbutton_wide_2" transform="matrix(0.98684211,0,0,1.3571429,-914.99998,65.022544)" height="360" width="640" y="0" x="0"/>
</g>
<g id="count_and_read_easy">
<use id="use4288" xlink:href="#g4274" transform="matrix(0.99721963,-0.07451853,0.07451853,0.99721963,-14.887808,147.08852)" height="360" width="640" y="0" x="0"/>
<use id="use3996" xlink:href="#answerlabel" transform="matrix(-1.0235442,0,0,-1.0335426,1999.9136,877.52588)" height="360" width="640" y="0" x="0"/>
<use id="use4290" xlink:href="#answerbutton_wide_1" transform="matrix(0.98684211,0,0,1.3571429,-914.99998,217.7011)" height="360" width="640" y="0" x="0"/>
</g>
<g id="count_hard">
<g id="g4013">
<use id="use4402" xlink:href="#g3476" transform="matrix(0.48661374,-0.01655673,0.01655673,0.48661374,589.6682,253.37555)" height="360" width="640" y="0" x="0"/>
<use id="use4400" xlink:href="#g3476" transform="matrix(0.5021307,0.20027874,-0.20027874,0.5021307,618.12698,68.227716)" height="360" width="640" y="0" x="0"/>
<use id="use4398" xlink:href="#g3476" transform="matrix(0.61237349,-0.03715138,0.03715138,0.61237349,471.84473,240.18738)" height="360" width="640" y="0" x="0"/>
<use id="use4395" xlink:href="#g3476" transform="matrix(0.72488691,0.02225806,-0.02225806,0.72488691,388.14598,167.16076)" height="360" width="640" y="0" x="0"/>
</g>
<use id="use3993" xlink:href="#answerlabel" transform="matrix(0.99999287,-0.00377788,-0.00377788,-0.99999287,3.1559917,937.36243)" height="360" width="640" y="0" x="0"/>
<use id="use4420" xlink:href="#answerbutton_wide_0" transform="matrix(0.98684211,0,0,1.3571429,-914.99998,373.94653)" height="360" width="640" y="0" x="0"/>
</g>
<g id="count_and_read_hard">
<g id="use4432" transform="matrix(0.71687945,0.10972844,-0.10972844,0.71687945,349.13113,181.62695)">
<use id="use4001" xlink:href="#g3476" transform="matrix(0.67097983,-0.02282967,0.02282967,0.67097983,376.73835,62.74877)" height="360" width="640" y="0" x="0"/>
<use id="use4003" xlink:href="#g3476" transform="matrix(0.69237579,0.27615948,-0.27615948,0.69237579,415.97947,-192.54707)" height="360" width="640" y="0" x="0"/>
<use id="use4005" xlink:href="#g3476" transform="matrix(0.84438689,-0.05122713,0.05122713,0.84438689,214.27443,44.563927)" height="360" width="640" y="0" x="0"/>
<use id="use4007" xlink:href="#g3476" transform="matrix(0.99952891,0.0306911,-0.0306911,0.99952891,98.864266,-56.13071)" height="360" width="640" y="0" x="0"/>
</g>
<use id="use4029" xlink:href="#answerlabel" transform="matrix(-0.99978069,-0.02094241,-0.02094241,0.99978069,1987.7089,-53.640585)" height="360" width="640" y="0" x="0"/>
<use id="use4422" xlink:href="#answerbutton_wide_0" transform="matrix(0.98684211,0,0,-1.3571429,-914.99998,456.92857)" height="360" width="640" y="0" x="0"/>
</g>
<g id="mixed">
<use id="use4617" xlink:href="#g4274" transform="matrix(0.62311999,0.0986925,-0.0986925,0.62311999,400.02623,436.07568)" height="360" width="640" y="0" x="0"/>
<use id="use4611" xlink:href="#layer1" transform="matrix(0.71252115,-0.05607662,0.05607662,0.71252115,243.24569,358.747)" height="360" width="640" y="0" x="0"/>
<use id="use4614" xlink:href="#answerlabel" transform="matrix(-0.98460115,-0.01374852,-0.01374852,0.98460115,1967.5676,172.27366)" height="360" width="640" y="0" x="0"/>
<use id="use4626" xlink:href="#answerbutton_wide_1" transform="matrix(0.98684211,0,0,1.3571429,-915,589.64285)" height="360" width="640" y="0" x="0"/>
</g>
<path id="exitbutton" d="m770,251.9c1.496-7.008,12.33-8.85,15.69-2.72,3.364,6.129,0.4552,11.96-6.008,12.9-6.463,0.9361-11.18-3.171-9.683-10.18zm7.636-4.779c6.404-0.1426,8.748,4.627,7.292,9.036-1.639,4.961-8.665,5.887-11.89,2.695-3.224-3.192-1.807-11.59,4.597-11.73zm0.3653,5.039c0.8521-1.082,1.888-2.517,2.825-3.882,0.6761,0.7336,1.434,1.418,2.481,1.929-0.9561,1.179-2.147,2.336-3.462,3.958,1.173,1.09,2.283,1.87,3.478,2.469l-1.633,2.401c-1.23-0.6002-2.529-1.726-3.61-2.998l-2.345,3.286c-0.7937-0.4583-1.505-1.04-2.001-1.945,0.5443-0.8628,0.735-1.15,2.401-3.326-1.317-1.381-1.95-1.908-2.802-2.605l1.441-2.305c1.025,0.9698,1.908,1.581,3.226,3.018z" fill-opacity="0.58" fill="#EEE" fill-rule="evenodd"/>
<g id="background">
<g id="background_01">
<rect id="rect3096" height="190" width="1025" y="1320" x="-326" fill="#FFF"/>
<path id="path3146" fill="#000" d="m642.7,1332,11.94-0.094-0.0637-11.44-12,0.094z"/>
<path id="path3144" fill="#000" d="m580.4,1321,0.0937,11.06,11.78-0.4062-0.313-11.16z"/>
<path id="path3142" fill="#000" d="m612.2,1321,0.5312,10.78,10.91-0.5313,0.3719-10.59z"/>
<path id="path3140" fill="#000" d="m-8.007,1327c-4.072-4.222-11.12-3.27-13.18,2.07-2.061,5.34,1.411,13.8,9.186,11.81,7.775-1.987,8.064-9.659,3.992-13.88z"/>
<path id="path3138" fill="#000" d="m139.5,1330c-3.347-4.342-10.84-4.412-14.06,2.346-3.217,6.758,2.869,12.89,9.56,11.62,6.691-1.268,7.847-9.628,4.5-13.97z"/>
<path id="path3136" fill="#000" d="m423.9,1406s-55.26,51.58-130.8,53.5c-75.54,1.922-68.29-56.48-114-58.72-45.71-2.238-59.52,52.95-122.1,52.91s-76.38-71.76-150.9-69.69c-74.52,2.069-88.21,67.04-150.6,66.62s-81.5-55-81.5-55v114.8h1025v-114.8l-28.47,0.1562c0.018,12.54-1.061,28.34-0.5625,40.12-30.34,0.7113-65.87-0.9849-103.8,1.906-1.954-31.1-1.676-62.35-1.438-97.28-52.09,1.862-94.26-1.632-141.1,0.5938-0.068,23.37,0.179,49.64,0.2705,64.88z"/>
<path id="path3134" fill="#000" d="m21.2,1373c-7.179,25.25,8.933,63.69,43.53,55.66s48.22-57.84,23.25-78.47-59.6-2.44-66.78,22.81z"/>
<path id="path3132" fill="#000" d="m313.4,1344c-4.242-2.078-9.216,1.192-8.969,5.436,0.2469,4.244,5.189,6.579,8.688,4.904s4.523-8.262,0.2814-10.34z"/>
<path id="path3130" fill="#FFF" d="m75.8,1360c15.44,13.4,12.25,49.58-13.36,54.67-25.61,5.092-37.54-18.01-31.28-38s29.2-30.08,44.64-16.67z"/>
<path id="path3128" fill="#000" d="m599.8,1402c12.82-1.068,26.34-2.609,36.59-1.844-0.3702-9.945,0.4412-35.62,0.4412-35.62l-37.41,1.624s0.1635,24.25,0.3769,35.84z"/>
<path id="path3126" fill="#FFF" d="m456.7,1436c-1.18-25.55-1.014-48.63,1.094-68.16,22.59-1.051,68.43-0.3175,68.43-0.3175l0.5641,67.1s-46.05,0.6691-70.09,1.376z"/>
<path id="path3124" fill="#000" d="M60.96,1400c13.88-4,16.47-20,6.04-28-10.43-8.287-21.12-3.14-24.72,6.97s4.796,24.86,18.68,21.04z"/>
<path id="path3122" fill="#000" d="m323.3,1381c-15.47-12.89-39.69,1.65-39.44,22.87,0.2495,21.22,24.32,26.55,37.88,17.47,13.56-9.079,17.04-27.45,1.564-40.34z"/>
<path id="path3120" fill="#000" d="m512.3,1421c-0.2965-14.41,0.8667-41.65,0.8667-41.65-8.729-0.9549-23.89-0.7412-42.37,0.077l-1.38,41.99s23.82,1.021,42.88-0.4136z"/>
<path id="path3118" fill="#000" d="m265.2,1387c-4.867-2.906-10.96,1.428-10.9,6.002,0.0576,4.574,6.344,6.161,8.684,5.188,2.34-0.9728,7.084-8.285,2.216-11.19z"/>
<path id="path3116" fill="#FFF" d="m300,1400c0.659-7.399,7.081-12.15,14.16-8.767,7.08,3.379,6.897,13.83-0.1515,17.27-7.049,3.441-14.67-1.104-14.01-8.503z"/>
<path id="path3114" fill="#000" d="m351.8,1397c0.9046,4.816,5.896,5.575,8.524,3.527s4.084-6.648-0.2803-8.955-9.148,0.6119-8.244,5.427z"/>
<path id="path3112" fill="#000" d="m-241.9,1407c0.9376-7.526-7.092-12.78-13.22-10.76s-6.567,10.5-2.472,15.45c4.094,4.955,14.75,2.836,15.69-4.69z"/>
<path id="path3110" fill="#FFF" d="m-100.3,1401c3.495,2.095,2.914,8.529-1.719,9.5-4.633,0.9709-7.762-2.591-6.719-6.344s4.943-5.251,8.438-3.156z"/>
<path id="path3108" fill="#FFF" d="m184.1,1444c-8.613,6.601-27.71,0.057-25.81-12.34,1.896-12.4,12.27-17.89,23.53-13.53,11.26,4.358,10.89,19.27,2.28,25.87z"/>
<path id="path3106" fill="#FFF" d="m-132.5,1467c-10.53-21.85,6.4-45.69,28.91-44.94,22.51,0.7495,33.07,22.33,27.5,41.16-5.567,18.83-45.88,25.63-56.41,3.78z"/>
<path id="path3104" fill="#000" d="m176.6,1427c-3.726-1.52-7.321,1.143-7.5,4.593-0.1791,3.45,4.622,6.538,8.219,4.219,3.596-2.319,3.008-7.292-0.7189-8.812z"/>
<path id="path3102" fill="#FFF" d="m207.8,1448c3.114,2.106,3.024,7.029-0.375,8.563s-7.293-0.3881-7.094-4.375c0.1989-3.987,4.356-6.294,7.469-4.188z"/>
<path id="path3100" fill="#000" d="m-108.1,1452c-0.6339,2.894,0.578,7.146,5.75,6.406,5.172-0.7399,5.938-8.559,2.406-10.06s-7.522,0.7599-8.156,3.654z"/>
<path id="path3098" fill="#FFF" d="m-56.3,1449c3.474,2.352,2.852,8.404-1.781,9.375-4.633,0.9709-7.758-2.758-6.625-6.188s4.932-5.54,8.406-3.187z"/>
<path id="path3096" fill="#FFF" d="m146.1,1458c-3.193,2.304-8.604-0.2373-8.101-4.335s3.772-5.93,7.351-4.446,3.943,6.476,0.75,8.781z"/>
<path id="path3094" fill="#FFF" d="m-148.5,1450c3.522,2.106,1.642,8.114-1.489,9.35-3.13,1.236-7.664-1.096-6.599-5.793s4.566-5.663,8.088-3.557z"/>
<path id="path3092" fill="#FFF" d="m169.3,1466c-0.1674-4.83,4.642-5.723,7.782-3.907s2.864,6.221,0.3434,7.969-7.958,0.7681-8.125-4.062z"/>
<path id="path3090" fill="#FFF" d="m538.1,1476,0.3125-11.75,12.16-0.5306-0.161,12.03z"/>
<path id="path3088" fill="#FFF" d="m487.3,1477-0.1616-11.83,12.1-0.238,0.1817,11.79z"/>
<path id="path3086" fill="#FFF" d="m434.6,1477,0.0625-11.78,12.47,0.092-0.2822,11.69z"/>
<path id="path3084" fill="#FFF" d="m51.35,1475c0.4165-5.428,6.459-7.281,9.915-5.259,3.455,2.023,5.264,7.346,0.2053,10.79-3.194,2.174-10.54-0.1034-10.12-5.531z"/>
<path id="path114" fill="#FFF" d="m-101.9,1496c3.36,2.276,2.821,8.31-1.812,9.281-4.633,0.9709-8.352-2.83-7-6.062s5.452-5.495,8.812-3.219z"/>
</g>
<use id="use3165" xlink:href="#background_01" transform="translate(-1025,0)" height="360" width="640" y="0" x="0"/>
<use id="use3938" xlink:href="#background_01" transform="translate(1025,0)" height="360" width="640" y="0" x="0"/>
</g>
<g id="button_1">
<rect id="button_1_rect" height="40" width="40" y="234" x="1901" fill="url(#radialGradient4150)"/>
<path id="path186" d="m1900,233,0,42,42,0,0-42zm5.375,4.437c10.39,0.4845,25.38-0.2008,31.7-0.125,0.6822,12.32,0.7196,23.12,0.375,33.43-11.84-0.3292-19.29-0.333-32.08-0.3125-0.3674-9.889-1.232-19.07,0-33z" fill="#000"/>
</g>
<g id="button_2">
<use id="button_2_rect" xlink:href="#button_1_rect" transform="matrix(-1,0,0,1,3842,60)" height="360" width="640" y="0" x="0"/>
<path id="path190" d="m1942,293,0,42-42,0,0-42zm-5.625,4.812c-13.6-0.26-22.2-0.4253-31-0.25-0.5246,13.6-0.3775,23.27,0.5,32.87,10.65,0.1667,20.77,0.6901,31.2,0.5,0.8017-17.57-0.1749-24.34-0.7-33.12z" fill="#000"/>
</g>
<g id="button_3">
<use id="button_3_rect" xlink:href="#button_1_rect" transform="matrix(-1,0,0,1,3842,120)" height="360" width="640" y="0" x="0"/>
<path id="path194" d="m1900,395,0-42,42,0,0,42zm37.28-4.312c-0.3241-8.432-0.1363-23.07-0.125-33.24-11.6-0.25-21.14-0.5267-32.38-0.375,0.2083,8.26,0.7587,23.33,0.55,33.62,8.791,0.1666,20.77,0.2566,31.95,0z" fill="#000"/>
</g>
<g id="button_4">
<rect id="button_4_rect" height="40" width="60" y="496" x="1900" fill="url(#radialGradient4534)"/>
<path id="path198" d="m1899,495,0,42,62,0,0-42zm5.375,4.437c17.39-0.5155,34.38-0.7008,51.7-0.125,0.6822,12.32,0.7196,23.12,0.375,33.43-18.34-0.3292-33.04-1.583-52.08-0.3125-0.3674-9.889-1.232-19.07,0-33z" fill="#000"/>
</g>
<g id="button_5">
<use id="button_5_rect" xlink:href="#button_4_rect" transform="translate(0,60)" height="360" width="640" y="0" x="0"/>
<path id="path202" d="m1961,555,0,42-62,0,0-42zm-5.125,4.812c-20.35,0.24-39.46-0.6753-51.5-0.25-0.5246,13.6-0.3775,23.27,0.5,32.87,21.9-0.3333,36.52,0.1901,51.2,0.5-0.3233-17.7,0.3251-24.34-0.2-33.12z" fill="#000"/>
</g>
<g id="button_6">
<use id="button_6_rect" xlink:href="#button_4_rect" transform="translate(0,120)" height="360" width="640" y="0" x="0"/>
<path id="path206" d="m1899,657,0-42,62,0,0,42zm57.28-4.312c-1.074-12.31-0.1363-23.07-0.125-33.24-21.1,0-31.89-0.0267-52.38-0.375,0.2083,8.26,0.7587,23.33,0.55,33.62,18.79-0.0834,34.27,0.5066,51.95,0z" fill="#000"/>
</g>
<g id="button_7">
<rect id="button_7_rect" height="40" width="80" y="745" x="1901" fill="url(#radialGradient4901)"/>
<path id="path210" d="m1900,744,0,42,82,0,0-42zm5.375,4.437c21.14-0.2655,50.38-0.4508,71.7-0.125,0.6822,12.32,0.7196,23.12,0.375,33.43-21.6-0.3292-47.29-2.083-72.08-0.3125-0.3674-9.889-1.232-19.07,0-33z" fill="#000"/>
</g>
<g id="button_8">
<use id="button_8_rect" xlink:href="#button_7_rect" transform="translate(0,60)" height="360" width="640" y="0" x="0"/>
<path id="rect3779-0-8-8-6" fill="#000" d="m1982,804,0,42-82,0,0-42zm-5.125,4.812c-23.1-0.01-49.46-0.1753-71.5-0.25-0.5246,13.6-0.3775,23.27,0.5,32.87,25.4,0.1667,46.52-0.5599,71.2,0.5-0.3233-17.7,0.3251-24.34-0.2-33.12z"/>
</g>
<g id="button_9">
<use id="button_9_rect" xlink:href="#button_7_rect" transform="translate(0,120)" height="360" width="640" y="0" x="0"/>
<path id="path217" d="m1900,906,0-42,82,0,0,42zm77.28-4.312c-1.074-12.31-0.1363-23.07-0.125-33.24-25.1,0-47.39,0.9733-72.38-0.375,0.2083,8.26,0.7587,23.33,0.55,33.62,23.54-0.5834,49.52,0.5066,71.95,0z" fill="#000"/>
</g>
<g id="button_10">
<rect id="button_10_rect" height="40" width="104" y="999" x="1901" fill="url(#radialGradient5129)"/>
<path id="path221" d="m1900,998,0,42,106,0,0-42zm5.375,4.437c31.14,0.2345,65.38,0.049,95.7-0.125,0.6822,12.32,0.7196,23.12,0.375,33.43-30.6-0.8292-60.79,0.917-96.08-0.3125-0.3674-9.889-1.232-19.07,0-33z" fill="#000"/>
</g>
<g id="button_11">
<use id="button_11_rect" xlink:href="#button_10_rect" transform="translate(0,60)" height="360" width="640" y="0" x="0"/>
<path id="path225" d="m2006,1058,0,42-106,0,0-42zm-5.125,4.812c-29.1,0.49-66.96-0.1753-95.5-0.25-0.5246,13.6-0.3775,23.27,0.5,32.87,32.4-0.3333,63.52-0.5599,95.2,0.5-0.3233-17.7,0.3251-24.34-0.2-33.12z" fill="#000"/>
</g>
<g id="button_12">
<use id="button_12_rect" xlink:href="#button_10_rect" transform="translate(0,120)" height="360" width="640" y="0" x="0"/>
<path id="path229" d="m1900,1160,0-42,106,0,0,42zm101.3-4.312c-1.074-12.31-0.1363-23.07-0.125-33.24-35.6,1-64.39,0.9733-96.38-0.375,0.2083,8.26,0.7587,23.33,0.55,33.62,31.54-0.5834,65.02,0.01,95.95,0z" fill="#000"/>
</g>
<g id="button_13">
<rect id="button_13_rect" height="40" width="124" y="1289" x="1901" fill="url(#radialGradient5294)"/>
<path id="path233" d="m1900,1288,0,42,126,0,0-42zm5.375,4.437c44.14,0.7345,77.38-0.451,115.7-0.125,0.6822,12.32,0.7196,23.12,0.375,33.43-43.1-1.829-73.29,0.417-116.1-0.3125-0.3674-9.889-1.232-19.07,0-33z" fill="#000"/>
</g>
<g id="button_14">
<use id="button_14_rect" xlink:href="#button_13_rect" transform="translate(0,60)" height="360" width="640" y="0" x="0"/>
<path id="path237" d="m2026,1348,0,42-126,0,0-42zm-5.125,4.812c-37.6,0.49-76.46-0.6753-115.5-0.25-0.5246,13.6-0.3775,23.27,0.5,32.87,40.4,0.1667,76.52-0.06,115.2,0.5-0.3233-17.7,0.3251-24.34-0.2-33.12z" fill="#000"/>
</g>
<g id="button_15">
<use id="button_15_rect" xlink:href="#button_13_rect" transform="translate(0,120)" height="360" width="640" y="0" x="0"/>
<path id="path241" d="m1900,1450,0-42,126,0,0,42zm121.3-4.312c-1.074-12.31-0.1363-23.07-0.125-33.24-38.6,1-74.89-0.027-116.4-0.375,0.2083,8.26,0.7587,23.33,0.55,33.62,42.04-0.5834,78.52,0.01,116,0z" fill="#000"/>
</g>
<g id="button_16">
<rect id="button_16_rect" height="40" width="144" y="1579" x="1901" fill="url(#radialGradient5434)"/>
<path id="path245" d="m1900,1578,0,42,146,0,0-42zm5.375,4.437c53.33,1.442,85.36-0.451,135.7-0.125,0.6822,12.32,0.7196,23.12,0.375,33.43-48.75-1.122-83.39-0.2901-136.1-0.3125-0.3674-9.889-1.232-19.07,0-33z" fill="#000"/>
</g>
<g id="button_17">
<use id="button_17_rect" xlink:href="#button_16_rect" transform="translate(0,60)" height="360" width="640" y="0" x="0"/>
<path id="path249" d="m2046,1638,0,42-146,0,0-42zm-5.125,4.812c-45.38-0.2171-86.56-1.382-135.5-0.25-0.5246,13.6-0.3775,23.27,0.5,32.87,50.3,0.1667,87.32,0.6471,135.2,0.5-0.3233-17.7,0.3251-24.34-0.2-33.12z" fill="#000"/>
</g>
<g id="button_18">
<use id="button_18_rect" xlink:href="#button_16_rect" transform="translate(0,120)" height="360" width="640" y="0" x="0"/>
<path id="path253" d="m1900,1740,0-42,146,0,0,42zm141.3-4.312c-1.074-12.31-0.1363-23.07-0.125-33.24-47.09,1.707-86.4-2.148-136.4-0.375,0.2083,8.26,0.7587,23.33,0.55,33.62,47.7-0.5834,92.86-1.404,136,0z" fill="#000"/>
</g>
<g id="button_19">
<rect id="button_19_rect" height="40" width="164" y="1859" x="1901" fill="url(#radialGradient5599)"/>
<path id="path257" d="m1900,1858,0,42,166,0,0-42zm5.375,4.437c61.33,1.442,101.4,0.049,155.7-0.125,0.6822,12.32,0.7196,23.12,0.375,33.43-54.75-1.622-96.39,0.7099-156.1-0.3125-0.3674-9.889-1.232-19.07,0-33z" fill="#000"/>
</g>
<g id="button_20">
<use id="button_20_rect" xlink:href="#button_19_rect" transform="translate(0,60)" height="360" width="640" y="0" x="0"/>
<path id="path261" d="m2066,1918,0,42-166,0,0-42zm-5.125,4.812c-59.38,0.2829-96.56-1.382-155.5-0.25-0.5246,13.6-0.3775,23.27,0.5,32.87,62.3-1.333,101.3,0.6471,155.2,0.5-0.3233-17.7,0.3251-24.34-0.2-33.12z" fill="#000"/>
</g>
<g id="button_21">
<use id="button_21_rect" xlink:href="#button_19_rect" transform="translate(0,120)" height="360" width="640" y="0" x="0"/>
<path id="path265" d="m1900,2020,0-42,166,0,0,42zm161.3-4.312c-1.074-12.31-0.1363-23.07-0.125-33.24-54.59,1.207-94.9-2.148-156.4-0.375,0.2083,8.26,0.7587,23.33,0.55,33.62,57.7-0.5834,105.4-0.9042,156,0z" fill="#000"/>
</g>
</svg>
