<!-- Created with Inkscape (http://www.inkscape.org/) -->
<svg id="svg2" xmlns:rdf="http://www.w3.org/1999/02/22-rdf-syntax-ns#" xmlns="http://www.w3.org/2000/svg" height="1052" width="744.1" version="1.1" xmlns:cc="http://creativecommons.org/ns#" xmlns:xlink="http://www.w3.org/1999/xlink" xmlns:dc="http://purl.org/dc/elements/1.1/">
<metadata id="metadata7">
<rdf:RDF>
<cc:Work rdf:about="">
<dc:format>image/svg+xml</dc:format>
<dc:type rdf:resource="http://purl.org/dc/dcmitype/StillImage"/>
<dc:title/>
</cc:Work>
</rdf:RDF>
</metadata>
<g id="layer1">
<path id="clef" fill="#000" d="m74.59,45.34c-4.158,4.182-25.09,23.67-15.35,68.3-80.33,65.2-15.81,108.2,20.37,95.23l4.386,21.63c1.807,18.06-19.81,27.61-33.21,20.35,22.73-3.658,16.34-30.54-1.097-27.25-17.43,3.29-13.31,32.55,9.252,32.9,22.57,0.3447,29.32-16.02,27.56-26.63l-3.98-22c40.28-24.5,12.96-56.8-12.15-53l-5.17-23.7c31.14-24.7,31.97-58.18,9.39-85.86zm3.619,15.87c0.2538-0.000057,0.5074,0.008,0.7676,0.02742,0,0,7.526,5.379,5.729,18.96-1.8,13.57-23.15,31.6-23.15,31.6-2.76-12.36,0.66-50.59,16.65-50.59zm-15.47,71.81,4.811,22.29c-5.896,0.9596-15.13,5.308-19.89,17-4.757,11.69,4.27,22.87,15.04,24.04,0,0-9.998-6.225-8.8-16,0.7686-6.266,8.007-11.7,16.38-13.25l8.471,38.87c-23.23,11.11-47.66-7.624-47.7-27.8-0.02999-16.84,17-35.15,31.69-45.15zm10.36,33.58c25-0.1997,23.57,30.16,8.279,38.06z"/>
<g id="stafflines" fill="#000">
<path id="staffline_5" d="m-0.08128,98.46s63.39,0.3078,95.08,0.324c31.69,0.01623,62.39-0.9313,95.08-0.2267s63.16,0.8586,95.08,0.1864,95.08-0.089,95.08-0.089c0.1317,1.212,0.4444,2.47-0.1086,3.505,0,0-63.38,0.1882-95.06,0.1445-31.69-0.0436-63.38-0.3625-95.06-0.4061-31.69-0.0436-62.84-0.9132-95.06-0.406-32.23,0.5072-95.06,0.1445-95.06,0.1445,0.274-0.8916-0.6418-1.34,0.045-3.177z"/>
<path id="staffline_4" d="m380.5,130.2s-63.39-0.3025-95.08-0.3185-50.78,0.5017-95.08,0.2228-62.26-0.1545-95.08-0.1832-95.08,0.0875-95.08,0.0875c-0.1317-1.191-0.5707-2.428-0.01765-3.445,0,0,63.5,0.0908,95.19,0.1337s51.59,1.677,95.06,0.4805,62.84,0.2647,95.06-0.2338c32.23-0.4985,95.06-0.142,95.06-0.142-0.1927,0.86-0.0762,1.768-0.045,3.398z"/>
<path id="staffline_3" d="m380.4,154.5s-63.39,0.3025-95.08,0.3185-50.78-0.1446-95.08,0.1343-62.26-0.2027-95.08-0.174-95.08-0.0875-95.08-0.0875c-0.1317,1.191-0.4444,2.428,0.1086,3.445,0,0,63.38-0.0908,95.06-0.1337,31.69-0.0429,51.23-0.6055,95.06-0.4805s62.66,0.8068,95.06,0.2338,95.06,0.142,95.06,0.142c-0.274-0.8762,0.3892-2.217-0.045-3.398z"/>
<path id="staffline_2" d="m-0.3455,186.3s63.39-0.3078,95.08-0.324,62.39,1.11,95.08,0.4053c32.69-0.7046,63.16-1.037,95.08-0.3649,31.92,0.6722,95.08,0.089,95.08,0.089,0.1317-1.212,0.4444-2.47-0.1086-3.505,0,0-63.38-0.3668-95.06-0.3231-31.69,0.0436-56.77,1.434-95.06,0.9418-38.29-0.4921-62.84,0.5561-95.06,0.0489-32.23-0.5072-94.75-0.1445-94.75-0.1445,0.274,0.8916,0.4315,1.654-0.2707,3.176z"/>
<path id="staffline_1" d="m-0.02849,214.3s63.39,0.0546,95.08,0.0387c31.69-0.016,50.78,0.1446,95.08-0.1343s62.26-0.1545,95.08-0.1832,95.08,0.0875,95.08,0.0875c0.1317-1.191,0.4444-2.428-0.1086-3.445,0,0-63.38,0.2694-95.06,0.3123-31.69,0.0429-51.08,0.2357-95.06,0.3019-43.98,0.0663-62.84,0.2647-95.06-0.2338-32.23-0.4985-95.06-0.142-95.06-0.142,0.274,0.8762,0.7472,1.902,0.045,3.398z"/>
</g>
<g id="note_c" fill="#000">
<path id="path2997-4" d="m195.4,238.9c18.71,0.4981,34.48-0.8416,51.96,0.1947,0.018,1.212,0.0607,2.47-0.0148,3.505-18.28-0.2788-34.32-0.1456-52.04-0.2552,0.0374-0.8916,0.002-1.608,0.0953-3.444z"/>
<g id="note_up" transform="translate(-16.868635,0)">
<path id="note_head" d="m218.8,245.2c-0.1428-8.19,12.34-19.59,26.07-19.29,6.41,0.1427,13.26,2.798,13.04,10.89-0.2226,8.095-11.91,18.21-25.71,18.57-6.659,0.1721-13.25-1.988-13.39-10.18z"/>
<path id="note_stem" d="m253.9,236c0.5345-16.48-1.22-33.08,0.119-46.68,0.2144-18.1-0.5544-29.99,0.1191-46.68,1.482-0.0323,3.02-0.1091,4.286,0.0267,0.557,15.48-0.2021,32.65-0.3198,46.67,0.1218,17.2,0.092,29.99-0.3198,46.67-1.09-0.0673-1.638,0.1575-3.884-0.011z"/>
</g>
</g>
<use id="note_d" xlink:href="#note_up" transform="translate(77.145434,-14)" height="1052.3622" width="744.09448" y="0" x="0"/>
<use id="note_e" xlink:href="#note_up" transform="translate(154.77534,-28)" height="1052.3622" width="744.09448" y="0" x="0"/>
<use id="note_f" xlink:href="#note_up" transform="translate(232.40523,-41.495437)" height="1052.3622" width="744.09448" y="0" x="0"/>
<use id="note_g" xlink:href="#note_up" transform="translate(310.03514,-55.982935)" height="1052.3622" width="744.09448" y="0" x="0"/>
<use id="note_a" xlink:href="#note_up" transform="translate(387.66506,-69.798086)" height="1052.3622" width="744.09448" y="0" x="0"/>
<g id="note_b">
<use id="use3891" xlink:href="#note_head" transform="translate(449.10525,-84.040717)" height="1052.3622" width="744.09448" y="0" x="0"/>
<use id="use3895" xlink:href="#note_stem" transform="translate(413.7565,17.785705)" height="1052.3622" width="744.09448" y="0" x="0"/>
</g>
<path id="sharp" d="m180,252,0-20.17,7.666-2.228,0,20.06zm16.04-4.878-5.745,1.689,0-20.06,5.745-1.646,0-8.334-5.745,1.646,0-20.5-2.629,0.1381,0,21.12-7.666,2.327,0-19.93-2.633,0,0,20.69-5.745,1.65,0,8.351,5.745-1.646,0,20.02-5.745,1.642,0,8.316,5.745-1.646,0,20.38,2.633,0,0-21.11,7.666-2.22,0,19.83,2.629-0.1381,0-20.58,5.745-1.65z" fill="#000"/>
<path id="flat" d="m175.8,254.1v-14.47c6.851-10.55,13.36-10.11,14.51-5.445,1.152,4.665-2.274,13.17-14.51,19.92zm0-21.61,0-40.56-3.141,0,0,64.81c0,1.964,0.5355,2.945,1.607,2.945,9.745-5.2,23.94-19.3,20.41-27.51-3.527-8.211-13.74-4.714-18.88,0.322z" fill="#000"/>
</g>
</svg>
