<svg id="svg2" xmlns:rdf="http://www.w3.org/1999/02/22-rdf-syntax-ns#" xmlns="http://www.w3.org/2000/svg" height="1052" width="744.1" version="1.1" xmlns:cc="http://creativecommons.org/ns#" xmlns:xlink="http://www.w3.org/1999/xlink" xmlns:dc="http://purl.org/dc/elements/1.1/">
<g id="layer1">
<g id="stafflines">
<path id="path3027" opacity=".35" d="m-13.08 28.79c103.4-1.429 179.5 2.933 215.6 2.5 90.26-1.082 128.1-2.432 192.8-1.429 0 0 0.2452 38.5-0.7357 124.5-0.981 85.97-0.7357 130.2-0.7357 130.2s-128.4-1.785-203.6 0c-75.21 1.785-123-0.6345-203.6 0-1.533-38.75-0.4104-89.23 0.4674-131 0.9528-45.37 0.3397-86.35-0.09949-124.7z" fill="#fff"/>
<g>
<path id="staffline_5" d="m-0.1675 98.46s63.96 0.3078 95.94 0.324c31.98 0.01623 62.95-0.9313 95.94-0.2267s63.73 0.8586 95.94 0.1864 95.94-0.089 95.94-0.089c0.1329 1.212 0.4484 2.47-0.1096 3.505 0 0-63.95 0.1882-95.92 0.1445-31.97-0.0436-63.95-0.3625-95.92-0.4061s-63.41-0.9132-95.92-0.406c-32.52 0.5072-95.92 0.1445-95.92 0.1445 0.2765-0.8916-0.6476-1.34 0.0454-3.177z"/>
<path id="staffline_4" d="m383.3 130.2s-63.63-0.3025-95.44-0.3185-50.97 0.5017-95.44 0.2228-62.5-0.1545-95.44-0.1832-95.44 0.0875-95.44 0.0875c-0.1322-1.191-0.5728-2.428-0.01772-3.445 0 0 63.74 0.0908 95.55 0.1337s51.79 1.677 95.42 0.4805c43.64-1.196 63.08 0.2647 95.42-0.2338 32.35-0.4985 95.42-0.142 95.42-0.142-0.1934 0.86-0.0765 1.768-0.0451 3.398z"/>
<path id="staffline_3" d="m380.5 154.5s-63.11 0.3025-94.67 0.3185-50.56-0.1446-94.67 0.1343-62-0.2027-94.67-0.174c-32.68 0.0287-94.67-0.0875-94.67-0.0875-0.1311 1.191-0.4425 2.428 0.1082 3.445 0 0 63.1-0.0908 94.66-0.1337 31.55-0.0429 51.01-0.6055 94.66-0.4805 43.64 0.125 62.39 0.8068 94.66 0.2338 32.26-0.573 94.66 0.142 94.66 0.142-0.2728-0.8762 0.3876-2.217-0.0448-3.398z"/>
<path id="staffline_2" d="m-1.608 186.3s63.6-0.3078 95.39-0.324c31.8-0.0162 62.59 1.11 95.39 0.4053 32.8-0.7046 63.36-1.037 95.39-0.3649 32.03 0.6722 95.39 0.089 95.39 0.089 0.1322-1.212 0.4459-2.47-0.109-3.505 0 0-63.59-0.3668-95.38-0.3231-31.79 0.0436-56.96 1.434-95.38 0.9418-38.42-0.4921-63.05 0.5561-95.38 0.0489s-95.06-0.1445-95.06-0.1445c0.2749 0.8916 0.433 1.654-0.2716 3.176z"/>
<path id="staffline_1" d="m1.4 214.3s63.44 0.0546 95.17 0.0387c31.72-0.016 50.83 0.1446 95.17-0.1343s62.32-0.1545 95.17-0.1832 95.17 0.0875 95.17 0.0875c0.1318-1.191 0.4448-2.428-0.1087-3.445 0 0-63.43 0.2694-95.15 0.3123s-51.13 0.2357-95.15 0.3019c-44.02 0.0663-62.9 0.2647-95.15-0.2338-32.26-0.4985-95.15-0.142-95.15-0.142 0.2743 0.8762 0.7479 1.902 0.04504 3.398z"/>
</g>
</g>
<path id="clef" d="m74.59 45.34c-4.158 4.182-25.09 23.67-15.35 68.3-80.33 65.2-15.81 108.2 20.37 95.23l4.386 21.63c1.807 18.06-19.81 27.61-33.21 20.35 22.73-3.658 16.34-30.54-1.097-27.25-17.43 3.29-13.31 32.55 9.252 32.9 22.57 0.3447 29.32-16.02 27.56-26.63l-3.98-21.9c40.28-24.5 12.96-56.8-12.15-53l-5.17-23.7c31.14-24.7 31.97-58.18 9.39-85.86zm3.619 15.87c0.2538-0.000057 0.5074 0.008 0.7676 0.02742 0 0 7.526 5.379 5.729 18.96-1.8 13.57-23.15 31.6-23.15 31.6-2.76-12.36 0.66-50.59 16.65-50.59zm-15.47 71.81 4.811 22.29c-5.896 0.9596-15.13 5.308-19.89 17-4.757 11.69 4.27 22.87 15.04 24.04 0 0-9.998-6.225-8.8-16 0.7686-6.266 8.007-11.7 16.38-13.25l8.471 38.87c-23.23 11.11-47.66-7.624-47.7-27.8-0.02999-16.84 17-35.15 31.69-45.15zm10.36 33.58c25-0.1997 23.57 30.16 8.279 38.06z"/>
<g id="note_c">
<path id="path2997-4" d="m195.4 238.9c18.71 0.4981 34.48-0.8416 51.96 0.1947 0.018 1.212 0.0607 2.47-0.0148 3.505-18.28-0.2788-34.32-0.1456-52.04-0.2552 0.0374-0.8916 0.002-1.608 0.0953-3.444z"/>
<path id="note_c_head" d="m201.9 245.2c-0.1428-8.19 12.34-19.59 26.07-19.29 6.41 0.1427 13.26 2.798 13.04 10.89-0.2226 8.095-11.91 18.21-25.71 18.57-6.659 0.1721-13.25-1.988-13.39-10.18z"/>
<path id="note_stem" d="m237 236c0.5345-16.48-1.22-33.08 0.119-46.68 0.2144-18.1-0.5544-29.99 0.1191-46.68 1.482-0.0323 3.02-0.1091 4.286 0.0267 0.557 15.48-0.2021 32.65-0.3198 46.67 0.1218 17.2 0.092 29.99-0.3198 46.67-1.09-0.0673-1.638 0.1575-3.884-0.011z"/>
</g>
<g id="note_d">
<use id="use3074" xlink:href="#note_stem" transform="translate(74.44 -14.11)" height="1052.3622" width="744.09448" y="0" x="0"/>
<use id="note_d_head" xlink:href="#note_c_head" transform="translate(74.23 -14)" height="1052.3622" width="744.09448" y="0" x="0"/>
</g>
<g id="note_e">
<use id="use3088" xlink:href="#note_stem" transform="translate(149.1 -28.04)" height="1052.3622" width="744.09448" y="0" x="0"/>
<use id="note_e_head" xlink:href="#note_c_head" transform="translate(149.2 -28)" height="1052.3622" width="744.09448" y="0" x="0"/>
</g>
<g id="note_f">
<use id="use3098" xlink:href="#note_stem" transform="translate(224 -41.49)" height="1052.3622" width="744.09448" y="0" x="0"/>
<use id="note_f_head" xlink:href="#note_c_head" transform="translate(223.9 -41.55)" height="1052.3622" width="744.09448" y="0" x="0"/>
</g>
<g id="note_g">
<use id="use3108" xlink:href="#note_stem" transform="translate(298.9 -55.96)" height="1052.3622" width="744.09448" y="0" x="0"/>
<use id="note_g_head" xlink:href="#note_c_head" transform="translate(298.7 -56)" height="1052.3622" width="744.09448" y="0" x="0"/>
</g>
<g id="note_a">
<use id="use3118" xlink:href="#note_stem" transform="translate(373.6 -69.79)" height="1052.3622" width="744.09448" y="0" x="0"/>
<use id="note_a_head" xlink:href="#note_c_head" transform="translate(373.6 -69.82)" height="1052.3622" width="744.09448" y="0" x="0"/>
</g>
<g id="note_b">
<use id="use3895" xlink:href="#note_stem" transform="translate(413.8 17.79)" height="1052.3622" width="744.09448" y="0" x="0"/>
<use id="note_b_head" xlink:href="#note_c_head" transform="translate(449.1 -84.04)" height="1052.3622" width="744.09448" y="0" x="0"/>
</g>
<path id="sharp" d="m180 252v-20.17l7.666-2.228v20.06zm16.04-4.878-5.745 1.689v-20.06l5.745-1.646v-8.334l-5.745 1.646v-20.5l-2.629 0.1381v21.12l-7.666 2.327v-19.93h-2.633v20.69l-5.745 1.65v8.351l5.745-1.646v20.02l-5.745 1.642v8.316l5.745-1.646v20.38h2.633v-21.11l7.666-2.22v19.83l2.629-0.1381v-20.58l5.745-1.65z"/>
<path id="flat" d="m175.8 254.1v-14.47c6.851-10.55 13.36-10.11 14.51-5.445 1.152 4.665-2.274 13.17-14.51 19.92zm0-21.61v-40.56h-3.141v64.81c0 1.964 0.5355 2.945 1.607 2.945 9.745-5.2 23.94-19.3 20.41-27.51-3.527-8.211-13.74-4.714-18.88 0.322z"/>
</g>
</svg>
