<?xml version="1.0" encoding="UTF-8" standalone="no"?>
<svg
   xmlns:dc="http://purl.org/dc/elements/1.1/"
   xmlns:cc="http://creativecommons.org/ns#"
   xmlns:rdf="http://www.w3.org/1999/02/22-rdf-syntax-ns#"
   xmlns:svg="http://www.w3.org/2000/svg"
   xmlns="http://www.w3.org/2000/svg"
   xmlns:sodipodi="http://sodipodi.sourceforge.net/DTD/sodipodi-0.dtd"
   xmlns:inkscape="http://www.inkscape.org/namespaces/inkscape"
   id="svg2"
   viewBox="0 0 744.09448819 1052.3622047"
   height="100%"
   width="100%"
   version="1.1"
   inkscape:version="0.48.0 r9654"
   sodipodi:docname="objects.svg">
  <defs
     id="defs252" />
  <sodipodi:namedview
     pagecolor="#ffffff"
     bordercolor="#666666"
     borderopacity="1"
     objecttolerance="10"
     gridtolerance="10"
     guidetolerance="10"
     inkscape:pageopacity="0"
     inkscape:pageshadow="2"
     inkscape:window-width="1920"
     inkscape:window-height="1020"
     id="namedview250"
     showgrid="false"
     inkscape:zoom="3.1499769"
     inkscape:cx="361.88287"
     inkscape:cy="980.04229"
     inkscape:window-x="-4"
     inkscape:window-y="-4"
     inkscape:window-maximized="1"
     inkscape:current-layer="airplane" />
  <metadata
     id="metadata7">
    <rdf:RDF>
      <cc:Work
         rdf:about="">
        <dc:format>image/svg+xml</dc:format>
        <dc:type
           rdf:resource="http://purl.org/dc/dcmitype/StillImage" />
        <dc:title />
      </cc:Work>
    </rdf:RDF>
  </metadata>
  <g
     id="layer1">
    <g
       id="objects">
      <g
         id="rooster">
        <rect
           y="-0.18172072"
           x="402.94205"
           height="66.825012"
           width="65.095688"
           style="fill:none;stroke:none"
           id="rect3011" />
        <path
           d="m422.2,8.835c-0.539-1.188-3.024-5.148-2.41-5.582,1.113-0.7891,5.144,2.559,6.047,2.195,1.621-0.6836,0.179-2.266,0.933-3.707,2.032-3.556,6.295-0.9341,6.231,1.801-0.035,1.476-1.657,2.195-1.043,3.422,0.644,1.223,2.734,0.6446,3.562,1.473,1.403,1.332-0.504,2.09-1.043,2.988-0.398,0.6484,2.989,1.297,1.043,3.422-0.793,0.8632-2.375,0.1445-3.097,1.043-0.754,0.8633,0.543,0.6836,0.144,2.52-0.43,1.836-1.656,3.098-1.801,4.754-0.105,1.113-0.285,2.41,1.047,4.32,1.332,1.906,2.41,2.23,4.141,3.129,0.863,0.4336,8.601,1.191,7.449,0.289-2.23-1.801-4.785-4.789-4.75-7.738,0.035-2.918,1.691-5.762,1.656-4.574-0.074,1.477,0.25,3.672,2.52,3.527,2.265-0.1406,1.512-2.625,5.508-4.137,3.961-1.551,6.586-1.875,10.4-1.945,3.781-0.0704,5.363,1.547,4.644,1.726-1.007,0.2188-7.128,1.227-7.488,2.883-0.105,0.4649,3.961,1.547,6.555,3.707,1.512,1.297,2.301,1.945,3.707,5.074,1.402,3.098,2.016,6.191,1.762,7.777-0.036,0.3242-2.625-1.871-3.094-1.547-0.399,0.25,1.402,2.23,1.187,4.894-0.254,2.988-1.261,6.41-1.8,7.02-0.575,0.6485-1.258-4.176-1.907-2.41-0.433,1.152-0.722,2.445-2.379,4.605-1.691,2.199-3.058,3.781-4.32,4.176-1.258,0.4336,0.363-3.527-0.898-4.894-0.36-0.3946-1.621,1.91-2.809,1.945-0.828,0-1.258-2.016-1.941-1.945-0.688,0.0703,0.179,1.836-0.758,2.23-0.938,0.3633-1.871-1.402-2.953-0.7539-1.078,0.6836-0.071,3.094-1.332,3.418-1.293,0.3242-2.485-2.16-3.742-2.086-1.262,0.0703-0.254,1.726-1.332,2.375-1.083,0.6836-2.954-0.3242-3.133,0.2148-0.035,0.1836-0.25,1.766,0.144,2.918,0.434,1.152,1.727,0.8633,1.656,1.801-0.074,0.9336-0.863,0.4688-1.945,1.906-1.078,1.477-1.512,3.242-2.375,3.891-0.863,0.6094-0.07-1.73-1.043-1.332-0.972,0.3594-1.98,2.949-2.808,2.805-0.864-0.1406,0.359-2.879-0.614-3.418-0.972-0.5039-2.808,2.125-3.273,1.332-0.434-0.7578,2.121-3.602,1.512-4.465-0.649-0.8281-3.387,1.262-4.036,1.043-0.609-0.2148-0.285-1.113,1.477-1.906,1.801-0.8281,3.926-0.3945,5.652-1.367,1.766-0.9375,1.262-1.047,1.657-2.16,0.359-1.117,0-2.055-0.145-2.305-0.285-0.3945-1.113,2.125-2.086,1.512-0.973-0.6484-0.324-2.629-1.801-4.031-1.441-1.406-2.554-0.5039-3.996-1.621-1.476-1.117-1.117-2.23-1.801-2.844-0.648-0.5742,0.973,2.34-1.835-0.2148-2.879-2.594-7.165-5.328-10.37-9.289-1.007-1.297-1.656-3.781-1.332-5.941,0.899-5.398,3.278-6.371,3.059-7.27-0.215-0.9024-1.091-2.027-0.2738-6.07,0.8175-4.043,6.615-6.027,7.403-6.278,0.7876-0.2513-0.289-2.773-0.07-2.988,0.609-0.6132,3.238,1.871,2.734,0.6836"
           id="path7" />
        <path
           d="m 428.093,59.158 c 1.008,-0.1797 -0.0202,1.731 1.097,1.082 0.684,-0.3945 3.059,-0.6484 3.672,-1.113 0.649,-0.4336 0.613,-2.773 -0.18,-1.875 -2.352,1.573 -6.193,1.248 -7.882,2.988 0.394,0.03516 2.285,-0.8684 3.293,-1.082 z"
           id="path9"
           inkscape:connector-curvature="0"
           style="fill:#ff8000"
           sodipodi:nodetypes="cccccc" />
        <path
           d="m 430.8,65.285 c 0.215,0.07421 1.726,-2.59 2.449,-2.734 0.504,-0.07031 0.648,-2.16 -0.469,-0.8984 -0.144,0.1797 -2.051,0.5039 -1.98,1.0077 0.144,1.1877 -0.25,2.5547 0,2.6247 z"
           id="path11"
           inkscape:connector-curvature="0"
           style="fill:#ff8000"
           sodipodi:nodetypes="ccccc" />
        <path
           d="m 435.799,53.5446 c 0.36,1.476 -0.179,3.059 0.324,4.535 0.54,1.512 1.547,0.6133 1.762,1.008 0.215,0.3984 -1.941,0.8672 -2.375,1.801 -0.433,0.9375 -0.648,2.629 -1.222,2.664 -0.614,0.03516 1.511,-2.809 -0.614,-2.699 -2.16,0.1094 -5.867,2.52 -6.445,2.773 -0.828,0.3203 1.477,-2.09 3.203,-3.242 1.695,-1.152 2.738,0.2891 3.422,-1.402 0.648,-1.656 -0.254,-4.176 -0.254,-5.5823 0,-0.9338 2.09,-0.2503 2.199,0.1443 z"
           id="path13"
           inkscape:connector-curvature="0"
           style="fill:#ff8000"
           sodipodi:nodetypes="ccccccccccc" />
        <path
           d="m 427.48,1.886 c 1.472,-2.238 3.596,-1.094 4.426,0.684 0.648,1.512 -1.692,3.602 -1.008,4.644 0.902,1.402 3.387,0.9375 3.926,1.98 -0.135,2.031 -3.407,2.049 -0.504,3.562 1.836,0.9727 0.394,2.629 -1.082,1.98 -0.934,-0.3945 -1.188,1.152 -1.618,0.4687 -1.107,-6.159 -2.68,-10.02 -4.32,-9.75685 C 427.804,4.19 426.757,3.182 427.48,1.886 z"
           id="path15"
           inkscape:connector-curvature="0"
           style="fill:#ff0000"
           sodipodi:nodetypes="ccccccccc" />
        <path
           d="m 420.036,11.9316 c 0.828,0.1094 3.816,1.227 3.347,2.16 -0.0275,2.782 -0.007,6.047 -1.691,8.172 -8.281,8.298 -13.96,-6.482 -3.492,-9.6833 1.367,-0.0706 1.043,-0.7542 1.836,-0.6487 z"
           id="path17"
           inkscape:connector-curvature="0"
           style="fill:#ff0000"
           sodipodi:nodetypes="ccccc" />
        <path
           d="m 424.821,11.499 c 0.179,0.5039 -2.196,0.5039 -3.278,0 -1.078,-0.4687 -1.257,-1.91 -1.043,-1.91 0.614,-0.1054 4.141,1.441 4.321,1.91 z"
           id="path19"
           inkscape:connector-curvature="0"
           style="fill:#ffff00"
           sodipodi:nodetypes="cccc" />
        <path
           d="m 425.809,6.64 c 0.829,0.8985 -0.468,0.2852 -0.503,1.656 -0.04,1.367 1.187,3.488 0.464,3.203 -0.683,-0.2891 -2.554,-2.629 -3.562,-4.32 C 421.2,5.523 420.302,3.976 421.2,4.3 c 0.899,0.2851 3.781,1.473 4.609,2.34 z"
           id="path21"
           inkscape:connector-curvature="0"
           style="fill:#ffff00"
           sodipodi:nodetypes="cccccc" />
        <path
           d="m 426.021,8.9047 c -0.179,1.117 1.078,1.73 0.684,2.953 -0.434,1.258 -1.547,-0.3242 -2.34,0.9375 0.4169,10.56 -4.135,15.93 -11.3,11.48 -4.53,8.336 -4.604,11.05 8.93,20.77 1.801,0.5039 -0.254,-3.383 0.754,-3.562 1.008,-0.1797 2.883,3.527 3.277,2.844 0.36,-0.7226 -2.664,-4.465 -1.8,-5.652 0.863,-1.188 4.5,2.52 5.218,0.8984 0.688,-1.656 -3.453,-6.047 -2.375,-7.449 1.043,-1.406 5.223,2.949 6.336,2.34 1.117,-0.6485 -1.297,-2.629 -2.23,-4.32 -0.938,-1.73 0.539,-0.4687 -0.035,-2.27 -0.543,-1.766 -1.731,-2.664 -1.407,-4.969 0.325,-2.305 3.133,-3.492 2.196,-5.293 -1.871,-3.527 -1.981,-6.152 -3.0265,-9.1393 C 428.002,5.811 426.271,7.178 426.021,8.9047 z"
           id="path23"
           inkscape:connector-curvature="0"
           style="fill:#f9b628"
           sodipodi:nodetypes="ccccccccccccccccc" />
        <path
           d="m 437.243,31.62 c 5.186,0.4545 11.47,-0.263 13.68,3.887 1.365,4.234 -0.5535,8.626 -1.472,11.91 -0.578,1.98 0.465,2.883 -0.649,3.312 -5.356,-4.533 -2.84,2.295 -4.175,2.593 -7.193,-6.156 -3.287,-0.1542 -5.582,0.539 -7.298,-5.263 -6.346,-1.05 -8.172,-0.214 -2.284,-9.43 -6.208,0.4604 -7.739,-11.2 8.295,8.068 0.5854,-2.734 1.727,-3.312 0.719,-0.3984 5.473,2.664 5.723,1.691 4.302,3.234 12.09,4.983 11.98,2.51 -0.684,-4.894 -8.527,-7.873 -7.844,-8.776 0.903,-1.078 -3.238,-4.391 -3.0215,-5.0345 0.3955,-1.1475 2.3765,1.5515 5.5445,2.0945 z"
           id="path25"
           inkscape:connector-curvature="0"
           style="fill:#804000"
           sodipodi:nodetypes="cccccccccccccc" />
        <path
           d="m 442.112,28.918 c -3.922,-3.852 -2.879,-9.07 -2.375,-8.781 0.434,0.25 0.289,2.879 3.387,3.203 1.367,0.1445 1.148,-2.52 2.23,0.7929 0.754,2.375 4.465,8.133 4.246,8.45705 -0.574,0.72265 -5.613,-1.83595 -7.488,-3.67195 z"
           id="path27"
           inkscape:connector-curvature="0"
           style="fill:#004080"
           sodipodi:nodetypes="cccccc" />
        <path
           d="m 446.129,23.48 c -1.187,-3.566 2.34,-4.754 6.047,-6.012 3.742,-1.262 9.145,-0.793 10.01,-0.3633 0.863,0.3984 -5.113,0.9726 -7.309,2.918 -1.007,0.8632 -2.265,3.527 -2.375,6.48 -0.074,3.457 -1.152,9.035 -1.801,7.41565 C 450.305,32.842 447.063,26.361 446.129,23.48 z"
           id="path29"
           inkscape:connector-curvature="0"
           style="fill:#0d4d66"
           sodipodi:nodetypes="ccccccc" />
        <path
           d="m 453.097,26.58 c 0.359,-4.969 0.972,-5.688 4.14,-4.426 2.301,0.8632 4.321,1.871 6.84,4.75 2.485,2.918 3.707,9.398 3.239,9.289 -1.223,-0.2539 -5.579,-6.086 -9.11,-5.902 -3.527,0.2148 -5.937,8.027 -6.406,6.37 -0.359,-1.333 0.973,-5.978 1.297,-10.081 z"
           id="path31"
           inkscape:connector-curvature="0"
           style="fill:#1a5a4d"
           sodipodi:nodetypes="ccccccc" />
        <path
           d="m 458.321,30.977 c 2.809,-0.4688 5.075,3.383 6.301,6.156 1.258,2.805 0.36,9.465 -0.578,9.465 -0.394,0 -0.648,-4.68 -4.535,-6.945 -2.988,-1.73 -7.453,0.504 -7.309,-0.79295 0.18,-1.29705 3.672,-7.48805 6.121,-7.88305 z"
           id="path33"
           inkscape:connector-curvature="0"
           style="fill:#266633"
           sodipodi:nodetypes="ccsccc" />
        <path
           d="m 458.614,40.113 c 2.015,1.012 3.058,2.09 2.769,5.043 -0.25,2.914 -5.109,8.242 -5.648,7.992 -0.578,-0.2187 1.043,-5.832 0.035,-8.641 -1.008,-2.844 -4.5,-2.305 -4.07,-3.277 0.398,-0.9727 4.863,-2.125 6.914,-1.117 z"
           id="path35"
           inkscape:connector-curvature="0"
           style="fill:#33731a"
           sodipodi:nodetypes="cccccc" />
        <path
           d="m 455.327,46.526 c -0.254,0.9727 -2.953,4.106 -3.601,3.672 -0.789,-0.539 -1.942,-2.125 -1.762,-2.449 0.609,-1.223 1.043,-5.363 1.836,-5.289 0.793,0.0704 4.39,0.8633 3.527,4.066 z"
           id="path37"
           inkscape:connector-curvature="0"
           style="fill:#408000"
           sodipodi:nodetypes="ccccc" />
        <path
           d="m 439.049,39.721 c -1.114,-0.2891 -5.938,-3.277 -6.621,-3.312 -0.614,0 4.535,2.953 7.199,4.031 2.445,1.008 2.555,2.738 1.726,3.168 -6.73,-0.04535 -10.97,-1.991 -13.71,-10.98 0.753,-0.793 3.168,1.871 6.259,3.0605 2.807,1.0795 6.264,4.3215 5.147,4.0325 z"
           id="path39"
           inkscape:connector-curvature="0"
           style="fill:#0d4d66"
           sodipodi:nodetypes="ccccccc" />
        <path
           d="m426.9,8.331c0.375,0,0.683,0.3399,0.683,0.7578,0,0.418-0.308,0.7579-0.683,0.7579s-0.684-0.3399-0.684-0.7579c0-0.4179,0.309-0.7578,0.684-0.7578"
           id="path41" />
      </g>
      <g
         id="airplane">
        <rect
           y="82.84996"
           x="436.68802"
           height="74.999672"
           width="74.302101"
           style="fill:none;stroke:none"
           id="rect3138" />
        <path
           d="m455.1,98.38c0.937-1.551,1.296-1.477,1.261-2.199-0.306-3.895-0.527-7.992-0.218-11.7,0.039-0.574,5.303-1.342,7.643-1.342,5.224,7.881,8.305,17.09,12.63,23.55,8.078-0.6538,14.09,0.5711,20.59,0.325,0.863-1.008,3.273-4.102,4.176-5.399,0.539-0.793,4.461-0.648,4.605-0.07,0.434,1.797,0.074,4.75,0.793,6.226,0.395,0.899,4.32,1.078,3.961,1.946-0.254,0.574-4.68,1.148-6.301,1.472-1.332,0.289-0.324,0.145-1.332,1.766-0.433,0.684-0.254,0.289-3.347,2.375-4.86,3.277-10.3,5.617-15.41,8.101,3.149,10.88,5.774,21.51,6.196,32.79,0.035,1.008-5.977,2.121-6.625,1.113-3.785-5.832-6.618-10.02-10.33-15.8-4.726,2.163-5.945-1.803-6.231-4.97-0.179-1.98,0.723-3.492,1.192-4.43,0.359-0.753-1.192-4.14-1.836-5.507-5.971,1.308-16.04,1.653-20.63-3.563,0.5891-3.708,4.713-7.294,6.371-8.894,2.135-2.408,4.442-2.641,6.914-3.707,0.285-0.395-0.9776-3.165-1.193-4.966-2.569,1.621-5.235-2.9-2.878-7.124z"
           id="path44" />
        <path
           d="m 489.499,155.94 c -1.766,0.8984 -4.43,1.402 -4.859,0.789 -2.703,-3.996 -7.164,-11.23 -9.793,-15.37 -0.325,-0.5742 4.211,-1.297 5.148,-1.726 1.223,-0.579 0.574,-1.477 -0.469,-1.297 -1.586,0.289 -6.371,2.629 -5.722,1.297 1.111,-3.052 0.5777,-5.793 -0.758,-7.957 0.973,-0.54 3.601,-0.43 4.789,-0.395 1.258,0.035 2.305,-0.504 0.035,-0.938 -2.269,-0.429 -7.558,1.262 -7.957,0.469 -1.402,-2.773 -2.914,-6.445 -2.771,-6.984 0.103,-0.3955 10.79447,-2.72727 15.11768,-3.5604 3.87658,12.55884 6.83725,23.19622 7.23932,35.6724 z"
           id="path46"
           inkscape:connector-curvature="0"
           style="fill:#ffff00"
           sodipodi:nodetypes="ccccccccccccc" />
        <path
           d="m467.1,123.8c0.105-0.395,14.69-3.457,15.16-3.527,0.43-0.075,1.148,4.714,3.129,11.16,1.656,5.578,4.968,24.01,4.07,24.48-1.766,0.8984-4.43,1.402-4.859,0.789-2.703-3.996-7.164-11.23-9.793-15.37-0.325-0.5742,4.211-1.297,5.148-1.726,1.223-0.579,0.574-1.477-0.469-1.297-1.586,0.289-6.371,2.629-5.722,1.297,0.14-0.325,0.644-3.204,0.465-5.04-0.215-1.8-1.512-2.773-1.223-2.917,0.973-0.54,3.601-0.43,4.789-0.395,1.258,0.035,2.305-0.504,0.035-0.938-2.269-0.429-7.558,1.262-7.957,0.469-1.402-2.773-2.914-6.445-2.769-6.984z"
           fill="none"
           id="path48" />
        <path
           d="m469.9,140.6c1.586,1.258,2.883-0.828,3.168-1.871,0.359-1.187,0.18-5.293-0.828-6.011-1.836-1.332-3.598,0.683-3.922,2.484-0.398,1.976,0.285,4.355,1.582,5.398z"
           fill="#ff8000"
           id="path50" />
        <path
           d="m456.5,104.6c2.729,0.5245,3.458-3.223,3.203-5.004,0.074-1.371-1.836-2.773-2.914-1.836-2.077,1.861-2.22,5.973-0.289,6.84z"
           fill="#ff8000"
           id="path52" />
        <path
           d="m475.2,106.9c-1.512,0.07-13.32,2.41-14.65,3.203-0.289,0.18-1.442-4.32-0.938-4.934,0.364-0.468,5.188-0.828,5.473-1.078,0.937-0.902-5.652,0.18-5.613,0.035,0.324-1.082,1.007-2.375,1.148-3.925,0.184-1.512-0.719-2.016-1.148-2.989-0.469-1.078,3.671-0.754,4.39-0.933,0.828-0.18,0.793-0.684-0.394-0.793-3.242-0.324-5.149,1.332-5.727-0.145-1.008-2.629-0.863-6.84-0.754-10.08,0.035-0.683,6.406-2.055,6.766-1.117,2.305,6.695,12.49,22.72,11.45,22.75"
           fill="#FF0"
           id="path54" />
        <path
           d="m454.4,117.8c3.142,0.882,4.531-0.6332,6.741-2.675,1.261-1.523-3.29,0.2971-3.608,0.2999-1.117,0.035-3.277-0.039-3.527-0.723-0.254-0.683-0.039-1.078,2.519-2.015,8.79-3.369,17.13-4.9,25.12-5.074,4.719-0.075,11.39,0.2342,15.38,0.3082,1.721-0.8702,2.893-3.324,4.958-5.926,0.504-0.468,2.774-0.179,3.242-0.179,0.649,0,0.614,5.363,0.684,6.121,0.035,0.504-2.879,0.898-3.926,1.258-1.367,0.468-1.726,0.722-0.969,0.867,2.036-0.2486,4.321-0.9977,5.868-1.297,0.718,0.18,3.562,0.395,2.843,0.828-0.718,0.43-4.39,0.504-5.687,0.863-1.692,0.504-0.684,1.801-2.125,2.555-6.622,4.067-11.26,6.693-17.97,9.254-0.609-0.938-1.008-3.242-1.402-3.098-4.645,1.657-12.57,2.485-16.74,3.887-0.539,0.219,0.973,2.449,0.219,2.594-5.708,0.6263-11.96,1.893-17.9-1.981-2.211-0.9134,1.467-6.248,3.718-7.019,1.374-0.395,2.022,1.008,2.562,1.152z"
           fill="#FF0"
           id="path56" />
        <path
           d="m473.5,118.4c-0.035-1.043-0.18-3.168-0.434-3.492-0.215-0.215-1.761,0.074-1.871,0.324-0.215,0.504-0.07,2.629,0.145,3.562,0.074,0.364,2.16-0.035,2.16-0.394z"
           id="path58" />
        <path
           d="m477.4,117.4c-0.039-1.043-0.219-2.809-0.504-3.098-0.184-0.25-1.731,0.035-1.801,0.289-0.219,0.504,0,2.449,0.215,3.418,0.109,0.363,2.09-0.25,2.09-0.609z"
           id="path60" />
        <path
           d="m480.9,116.7c-0.035-1.043-0.109-2.664-0.359-2.984-0.219-0.254-1.477,0.035-1.586,0.285-0.18,0.504-0.11,2.16,0.109,3.133,0.07,0.359,1.836-0.071,1.836-0.434z"
           id="path62" />
        <path
           d="m484.1,115.9c0-1.047-0.11-2.699-0.289-2.844-0.215-0.254-1.262,0-1.367,0.25-0.18,0.504-0.145,2.16,0.07,3.133,0.07,0.359,1.621-0.18,1.586-0.539z"
           id="path64" />
        <path
           d="m486.9,115.2c-0.035-0.972,0.075-2.519-0.105-2.703-0.184-0.215-1.332,0.039-1.406,0.254-0.18,0.469-0.18,1.906,0.035,2.844,0.074,0.324,1.476-0.07,1.476-0.395z"
           id="path66" />
      </g>
      <g
         id="elephant">
        <rect
           style="fill:none;stroke:none"
           width="80.333893"
           height="62.459892"
           x="286.68802"
           y="1.2626431"
           id="rect3026" />
        <path
           d="m304.9,58.28c-0.61-0.7188-1.957,0.1048-3.238-0.6484-3.938-1.372-5.663-6.97-5.797-10.22-0.0553-8.451-0.7981-13.04,1.261-23.51,0.3277-3.424,3.813-5.891,4.536-8.317,0.359-1.438,0.828-2.809,1.511-4.285,0.539-1.148,0.793-1.258,1.258-1.652,1.542-0.8467,3.234-1.153,4.899-1.551,13.61-7.38,23.43-8.271,32.94-3.313,4.626,2.155,9.157,7.039,11.44,9.723,5.106,5.511,5.154,18.03,6.156,21.82,1.619,2.079,5.141,1.852,6.915,1.078-0.7835,1.598-2.506,2.315-3.997,2.27-3.628-1.015-5.734-0.01606-6.984,2.878-0.3814,2.165,2.985,10.43,3.059,16.16-1.504,3.853-21.19,3.864-21.92,2.773,0.8659-4.08,2.071-7.038,3.707-10.8-5.854,3.399-10.63,2.849-15.8,1.512-0.394,0.25-1.367,2.734-2.09,4.895-0.718,2.125-0.25,3.133-0.898,3.926-3.112,3.414-7.291,2.774-12.17,2.086-2.41-0.3945-3.961-0.1797-5.258-1.008-0.789-0.5039-0.285-1.367-0.18-1.801,0.254-0.8281,0.829-1.797,0.649-2.016zm2.16-6.763c-0.7642-0.02792-2.186-0.8825-2.445-1.117-0.254,0.3946,0.215,1.691,0,2.375-0.728,1.493-1.824-0.2891-2.055-1.007-1.991-7.882,0.1888-20.4,4.719-20.2,0.718-0.25,0.683,1.441,2.051,2.195,0.574,0.3242,0.753,0.4688,0.07,1.008-0.684,0.543-2.735-0.7539-2.77,1.188,2.452,6.065,1.941,8.289,4.71,6.976-1.495,3.025-2.911,5.7-4.28,8.579z"
           fill-rule="evenodd"
           id="path69" />
        <path
           d="m 309.756,29.732 c -0.364,0.1094 -2.496,0.561 -3.884,0.3812 -1.388,-0.1798 -3.531,-0.7379 -4.222,-2.506 2.712,1.181 4.981,1.379 7.45,0.7228 -0.5618,0.483 -0.5124,1.438 0.656,1.402 z"
           id="path71"
           inkscape:connector-curvature="0"
           style="fill:#ffffff"
           sodipodi:nodetypes="csccc" />
        <path
           d="M 320.4508,4.1714888 C 328.62963,1.6664685 338.52,1.633 347.63,9.756 c 6.879,5.474 10.37,13.86 10.3,21.38 0.215,1.551 -0.398,4.863 1.258,6.051 0.684,0.5039 2.27,1.078 3.457,1.402 1.152,0.3243 2.27,-0.289 2.41,-0.1054 -2.045,1.46 -4.663,-0.5571 -6.586,-0.1094 -2.574,0.7054 -4.073,2.671 -4.39,4.894 0.9218,4.871 2.951,10.47 3.619,15.15 -0.1554,0.9714 -7.679,2.397 -11.04,2.272 -1.547,-0.07422 -0.504,-1.586 -1.297,-2.34 -0.789,-0.7578 -3.313,-0.4336 -4.68,-0.4336 -1.187,-0.03515 -1.437,0.3242 -1.043,-1.332 0.9789,-3.978 3.665,-7.092 3.418,-10.84 -2.328,4.231 -9.079,8.552 -16.99,5.004 -1.117,-1.801 1.726,-6.586 0.898,-5.902 -2.89,4.343 -4.456,11.79 -6.149,15.66 -1.37,1.611 -4.846,2.625 -9.811,1.672 -1.059,-0.225 0.0567,-2.607 -0.9968,-3.911 -1.152,-1.477 -4.355,0.8281 -2.34,-4.211 1.297,-3.348 4.465,-8.281 5.403,-11.52 0.933,-3.242 -1.406,-1.441 -1.586,-1.367 -0.469,0.1445 -0.828,0.7187 -1.223,0 -0.578,-1.117 -1.691,-2.988 -1.621,-4.285 0.07,-1.332 1.078,-0.3945 1.906,-1.008 0.828,-0.6133 0.325,-0.8281 1.442,-1.476 1.117,-0.6485 1.621,-0.3946 2.988,-1.078 1.332,-0.7226 5.113,-3.996 5.074,-4.285 -0.035,-0.2891 -3.707,2.41 -5.254,3.098 -1.547,0.6446 -2.519,1.402 -3.886,1.078 -1.371,-0.3243 -2.235,-1.223 -2.485,-2.016 -0.219,-0.7929 1.153,-1.043 1.582,-1.188 2.485,-0.8632 -0.609,-0.2187 -0.718,-1.008 -0.11,-0.6484 3.636,-1.836 -0.145,-1.008 -2.484,0.5391 -3.527,0.2149 -5.219,-0.0742 -1.691,-0.25 -2.304,-1.188 -2.664,-0.793 -0.398,0.3985 0.36,1.586 1.332,2.344 0.973,0.789 3.313,0.9336 3.418,1.547 -5.419,0.3875 -6.706,21.3 -2.769,23.11 1.958,0.6953 2.094,-0.8373 1.976,-2.34 0.184,-0.2149 1.406,0.3633 1.153,1.551 0.3787,2.514 -1.73,4.738 -4.571,3.562 -4.567,-2.174 -4.898,-6.691 -5.078,-10.12 0.003,-7.354 -0.1267,-14.86 1.012,-20.41 1.692,-6.935 3.36,-7.058 4.68,-10.08 0.648,-1.512 0.609,-2.734 1.546,-4.281 1.149,-2.24 3.197,-2.111 6.0089,-3.0872 2.8119,-0.9762 2.30287,-2.2456908 10.4817,-4.7507112 z M 319.01,13.462 c -1.297,1.297 0.18,1.152 1.512,0.6875 3.507,-2.247 9.449,-6.937 12.82,-3.97 3.342,3.061 2.037,6.882 1.585,10.34 -0.4516,3.458 0.4629,10.02 -4.465,10.3 -4.928,0.2762 -5.615,-3.351 -8.246,-6.375 -1.222,-1.402 -0.394,0.3984 -0.07,0.8633 2.33,3.193 1.603,3.035 4.331,5.376 2.727,2.341 7.762,0.9464 8.435,-2.884 0.5858,-3.331 0.5141,-6.825 0.9138,-9.1 0.8336,-4.744 0.2075,-7.199 -2.032,-8.92 -2.1,-1.722 -3.7,-1.837 -14.7,3.68 z m 4.899,1.551 c -0.973,0.7891 -0.434,1.223 0.754,0.8281 1.152,-0.4336 2.554,-1.73 3.961,-2.52 0.753,-0.3984 1.117,-0.7226 1.726,-0.2539 0.578,0.4336 0.359,1.297 0.649,2.016 0.324,0.7188 0.324,0.793 0.539,0.8633 0.254,0.0742 0.543,-0.1055 0.433,-0.6094 -0.144,-0.7578 -0.394,-1.836 -0.828,-2.559 -0.504,-0.8281 -1.906,-0.539 -2.629,-0.25 -1.582,0.6485 -3.637,1.656 -4.605,2.484"
           id="path73"
           inkscape:connector-curvature="0"
           style="fill:#c0c0c0"
           sodipodi:nodetypes="zccccccccccccccccccccccccccccccccccccccccccccczzccccccccccccccccccccccc" />
        <path
           d="m306.6,14.22c0.754-0.8984,1.981-1.586,3.168-1.152,1.597,0.7157,1.82,2.819,0.719,3.816-1.078,0.8984-2.699,1.152-3.887,0.25-1.007-0.7539-0.683-2.051,0-2.914"
           id="path75" />
        <path
           d="m 307.342,15.2806 c -0.4857,0.6342 -0.3002,0.9885 0.2949,1.427 0.5951,0.4384 1.563,0.2847 2.141,-0.2544 0.9504,-0.7401 0.7646,-1.653 0.2792,-2.235 -0.4854,-0.5828 -1.277,-0.5344 -1.782,-0.02473 2.62289,0.770668 -0.40773,3.059468 -0.9331,1.08713 z"
           id="path77"
           inkscape:connector-curvature="0"
           style="fill:#ffffff"
           sodipodi:nodetypes="cccccc" />
        <path
           d="m 339.088,58.647 c 0.25,-0.25 1.187,-0.3594 1.473,0.2539 0.179,0.3242 -0.036,1.836 -0.325,2.41 -0.105,0.2188 -1.691,0 -1.836,-0.14075 -0.503,-0.39855 0.18,-1.98015 0.688,-2.52315 z"
           id="path79"
           inkscape:connector-curvature="0"
           style="fill:#ffffff"
           sodipodi:nodetypes="ccccc" />
        <path
           d="m 341.669,58.641 c 0.219,-0.1797 0.648,-0.2148 1.082,0.2539 0.285,0.3594 0.359,1.836 0.035,2.41 -0.109,0.1836 -1.512,0.1445 -1.586,-0.03503 -0.14,-0.39437 -0.07,-2.19487 0.469,-2.62887 z"
           id="path81"
           inkscape:connector-curvature="0"
           style="fill:#ffffff"
           sodipodi:nodetypes="ccccc" />
        <path
           d="m 343.905,58.83 c 0.145,-0.2539 0.723,-0.3984 1.082,0 0.18,0.2148 0.504,1.727 0.18,2.301 -0.11,0.1445 -1.332,0.2188 -1.367,0.03903 -0.11,-0.50393 -0.18,-1.83603 0.105,-2.34003 z"
           id="path83"
           inkscape:connector-curvature="0"
           style="fill:#ffffff"
           sodipodi:nodetypes="ccccc" />
        <path
           d="m 306.119,58.426 c 0.289,-0.25 1.222,-0.2891 1.546,0.4336 0.18,0.3945 -0.035,2.086 -0.359,2.734 -0.109,0.2148 -1.727,-0.1445 -1.906,-0.3239 -0.469,-0.5388 0.215,-2.2657 0.719,-2.8437 z"
           id="path85"
           inkscape:connector-curvature="0"
           style="fill:#ffffff"
           sodipodi:nodetypes="ccccc" />
        <path
           d="m 308.839,58.717 c 0.214,-0.2148 0.613,-0.2148 1.007,0.3594 0.25,0.3945 0.25,2.125 -0.074,2.809 -0.105,0.2148 -1.437,0.1094 -1.472,-0.14495 -0.145,-0.46925 0,-2.52045 0.539,-3.02345 z"
           id="path87"
           inkscape:connector-curvature="0"
           style="fill:#ffffff"
           sodipodi:nodetypes="ccccc" />
      </g>
      <g
         id="candle">
        <path
           d="m314,161.8c0.684-1.008-0.359-21.71-0.035-29.66,1.043,0.683,1.766,0.074,2.125-0.25,1.727-1.477-0.828-5.258-0.937-7.02-0.145-2.449,0.828-5.043,0-7.164-0.6098-1.999-3.932-4.074-7.235-3.637l0.035-2.34c2.203-1.176,3.806-3.412,4.48-6.826,0.6739-3.413-2.361-5.52-3.651-8.33s-1.836-5.867-2.235-8.531c-0.644,2.484-1.292,4.949-2.734,8.531s-2.463,3.265-3.144,6.476c-0.6804,3.211-0.4328,8.867,3.683,9.22l0.144,1.765c-4.596,0.3882-6.415,1.388-6.406,5.184-0.433,11.59-0.5576,31.81-0.074,42.12,7.164,4.108,13.81,1.307,15.98,0.462z"
           id="path90" />
        <path
           d="m301,116.4c0.289-0.863,2.301-1.093,3.418-0.9878-0.3297,2.708,3.966,1.951,3.346-0.1143,1.383-0.3491,7.298,0.7032,4.396,2.075-3.619,0.8697-10.06,0.8401-11.16-0.973"
           fill="#ff8080"
           id="path92" />
        <path
           d="m299.2,128.1c-0.035,9.789-0.788,24.05-0.174,32.37,3.999,2.416,13.15,1.354,13.73-0.0528,0.5024-7.922,0.0536-20.32,0.1626-28.46,0-0.504-1.691-1.226-1.836-3.527,0.0323-2.542-0.1624-5.143-2.918-5.512-1.043-0.18-1.761-1.078-2.195,1.262-0.469,2.34-0.539,3.383-0.254,7.054,0.289,3.711,1.297,4.106,0.902,6.157-0.433,2.09-1.91,2.449-2.593,2.16-0.934-0.43-1.981-0.684-2.34-3.274-0.504-3.492,0.578-7.019,0.324-10.73-0.25-3.742-1.367-3.313-1.332-4.141,0.035-0.863,0-2.699,1.441,0.758,1.512,3.563-0.394,11.05,0.793,14.29,0.934,2.59,3.528,3.024,2.879-0.683-0.757-4.215-1.91-9.364-0.718-13.18,1.187-3.781,1.796-1.731,4.57-0.543,1.928,0.8618,2.151,6.58,2.808,7.562,1.721,2.355,2.375,1.188,2.52-0.218,0.109-1.438-1.152-2.879-1.297-5.399-0.18-2.484,0.973-6.047-0.719-5.652-4.031,1.008-12.37-0.3832-13.44-0.7892-1.07-0.4061-0.2905,7.052-0.3157,10.55z"
           fill="#c20000"
           id="path94" />
        <path
           d="m306.4,91.66c-0.649,2.34-0.954,3.761-2.161,6.73s-2.29,2.87-2.703,5.977,0.4608,6.012,2.873,6.232c0.2243-1.452,0.0356-5.035,0.2801-6.511,0.902,0.074,1.781-0.006,2.609,0.1741,0.3644,1.422,0.1205,4.813,0.359,6.046,2.664-1.666,4.12-5.335,3.603-7.551-0.5176-2.216-1.909-2.745-2.989-4.906s-1.153-3.961-1.871-6.191"
           fill="#ffff80"
           id="path96" />
      </g>
      <g
         id="robot">
        <path
           d="m383.7,93.73-7.418-7.773,0.359-0.399,7.418,7.742c3.379-3.262,7.078-2.992,10.19-0.433l7.308-7.668,0.395,0.324-7.09,7.922c3.128,3.454,4.475,8.022,5.498,11.95,2.253,0.3857,5.727-0.7361,6.346,3.276,12.56,1.474,11.34,8.682,11.33,16.84,1.867,1.134,2.109,6.873-2.121,7.323-0.105,0-1.426-1.467-1.426-1.467s-1.881,1.422-2.096,1.277c-3.791-2.734-2.567-6.798-0.418-7.872,0-1.656,0.238-4.226,0.02-6.132-0.25-1.91-1.153-2.379-2.375-2.844-0.938-0.363-1.871-0.144-2.989-0.179-0.035,2.769,0.036,6.226-0.289,9.574-0.07,0.898-0.14,3.707-1.332,4.105l-2.16,0.036c1.227,0.933,2.199,1.367,2.199,3.636,0,1.512-1.836,2.485-1.875,3.887-0.07,1.152,2.161,2.09,1.946,4.789-0.18,2.305-1.727,2.844-1.836,4.031-0.071,1.188,1.765,0.539,1.765,3.457,0,2.375-1.765,1.762-1.765,3.672,0,1.258,2.519,1.438,3.203,3.527,0.504,1.621,0.578,1.98,0.18,3.492-5.11,0-9.684,0.2891-15.52,0.1055,0.035-2.375-0.25-1.512,0.109-3.562,0.36-2.086,2.34-2.555,2.45-3.238,0.214-1.441-1.836-1.695-1.766-3.816,0.035-2.09,2.16-2.52,2.051-3.852-0.18-1.621-2.121-1.945-2.051-4.539,0.035-2.519,1.476-2.519,1.441-3.851-0.039-1.477-2.125-1.582-1.8-4.356,0.214-2.05,1.332-2.664,2.16-3.492l-5.942-0.18c0.828,1.043,1.657,1.223,1.621,4.211-0.035,2.774-1.871,2.485-1.621,4.215,0.18,1.367,1.766,1.293,1.621,3.996-0.144,3.239-1.945,3.059-1.8,4.391,0.144,1.402,2.414,0.9375,2.125,3.672-0.289,2.664-1.871,2.375-1.981,3.852-0.109,1.082,2.34,1.082,2.449,2.738,0.106,2.051,0.286,1.836,0.071,3.633-6.371,0.2891-11.38,0.1797-16.81,0.1797-0.359-1.941-0.359-2.664,0.973-4.785,1.402-2.305,3.601-1.91,3.492-2.52-0.289-1.262-2.016-1.082-2.16-3.492-0.07-1.801,2.34-2.234,2.414-3.348,0.105-1.442-2.16-2.02-2.234-5.043-0.036-2.34,2.375-2.16,2.519-3.528,0.18-1.656-2.555-1.836-2.629-3.922-0.105-2.125,0.543-3.636,1.586-4.429l-2.629-0.035c-1.008,0.105-1.402,0.144-1.476-2.918-0.071-3.563-0.036-6.551,0-9.575-6.662-1.842-5.833,7.582-5.59,9.013,3.623,2.989,1.861,6.452-0.7416,7.935-1.163-0.8539-1.86-1.596-1.86-1.596s-0.8622,0.7825-2.066,1.567c-4.908-2.671-2.51-7.495-1.083-8.192-1.566-9.067,0.6011-15.91,11.74-15.78,0.2733-3.453,1.656-3.167,4.895-3.492,1.747-5.614,1.138-7.029,5.079-12.06z"
           id="path99" />
        <path
           d="m382.8,98.13c0.863-2.2,1.656-3.168,2.988-4.176,1.582-1.192,3.094-1.875,5.508-0.867,2.375,1.007,3.492,2.988,4.645,5.437,1.472,3.277,2.015,5.363,2.23,6.984-7.453,0.25-10.37,0.18-17.17,0.29,0.249-2.125,0.648-4.825,1.8-7.668z"
           fill="#FF0"
           id="path101" />
        <path
           d="m379.6,138.4c0-0.649,6.301-0.614,6.266-0.11-0.074,0.867,1.836,1.047,1.762,3.278-0.036,1.871-1.836,2.414-1.727,3.132,0.07,0.504-6.375,0.504-6.23-0.074,0.144-0.394-1.907-1.043-1.907-3.418,0-1.98,1.836-2.269,1.836-2.808z"
           fill="#a1a1a1"
           id="path103" />
        <path
           d="m379.6,146.4c-0.106-0.9726,6.191-0.7929,6.266,0.1055,0.035,0.6485,2.195,1.152,2.265,2.703,0.145,2.266-2.265,2.34-2.156,2.984,0.141,0.8672-6.59,1.117-6.52,0.2891,0.039-0.793-1.906-1.367-2.015-3.418-0.071-1.227,2.234-1.98,2.16-2.664z"
           fill="#a1a1a1"
           id="path105" />
        <path
           d="m395.7,146.4c0.179-0.5039,6.625-0.4688,6.48,0.2539-0.144,0.8281,1.582,0.5742,1.547,2.879-0.07,1.941-2.016,1.871-1.945,2.52,0.109,1.188-5.903,1.043-6.012,0.2891-0.07-0.4688-1.906-1.227-1.941-3.312-0.075-1.442,1.691-1.946,1.871-2.63z"
           fill="#a1a1a1"
           id="path107" />
        <path
           d="m386.5,154.6c1.727,0.9726,2.375,3.852,1.547,3.922-2.16,0.1445-9.574,0.3632-12.71,0.039-0.574-0.039,0.254-3.133,1.982-3.996,1.514-0.7579,7.202-1.047,9.182,0.0351z"
           fill="#404040"
           id="path109" />
        <path
           d="m403,154.8c1.727,0.9375,2.735,4.035,1.871,4.106-2.16,0.1445-8.531,0.1796-11.66-0.1094-0.578-0.0703-0.578-2.988,1.115-3.852,1.51-0.754,6.694-1.258,8.674-0.1446z"
           fill="#404040"
           id="path111" />
        <path
           d="m363.4,126.4c0.04-1.203,2.953-1.018,2.953-0.035,1.697,0.006,3.89,4.059,0.289,5.578-0.219-0.105-0.469-0.394-0.902-1.007,3.448-4.283-5.03-3.827-1.188,0.109-0.105,0.144-0.8687,0.8929-1.303,0.9979-2.945-1.551-1.694-5.331,0.1507-5.643z"
           fill="#FF0"
           id="path113" />
        <path
           d="m413,126c-0.2007-1.042,3.892-0.6178,3.037,0.1659,1.978,0.3788,2.678,3.935-0.0639,5.287-0.215-0.075-0.434-0.399-0.828-1.047,3.733-3.861-4.655-4.05-1.223,0.074-0.11,0.144-0.8488,0.8339-1.243,0.9429-2.791-2.203-1.093-4.842,0.3208-5.423z"
           fill="#FF0"
           id="path115" />
        <path
           fill="#a1a1a1"
           d="m373.6,114.7c-0.2487,0.0344-1.48-0.1419-2.636,0.0234-1.155,0.1653-2.234,0.6723-2.657,0.8746-0.4226,0.2023-1.764-1.962-2.071-3.065-0.3071-1.103,6.889-2.99,7.294-1.836,0.4049,1.154,0.3185,3.968,0.0698,4.003z"
           id="path117" />
        <path
           fill="#a1a1a1"
           d="m367.2,116.3c0.1873,0.5176-0.6266,2.68-0.9589,2.858-0.3324,0.178-2.497,0.0189-2.997-0.414-0.5003-0.4329,0.5822-4.827,1.506-4.97,0.9241-0.1423,2.263,2.008,2.45,2.526z"
           id="path119" />
        <path
           d="m366.1,120.4c0.2568,0.4381,0.3677,3.936,0.07,4.25-0.2977,0.3143-2.125,0.1308-2.519,0-0.3943-0.1308-0.9033-4.065-0.469-4.5,0.4343-0.4349,2.661-0.1881,2.918,0.25z"
           fill="#a1a1a1"
           id="path121" />
        <path
           d="m406.6,114.2c0.2464,0.3233,0.8826,0.0275,2.506,0.3556,1.078,0.2179,1.715,0.6207,2.273,0.5624,0.5575-0.0583,2.415-1.844,2.376-2.884-0.0394-1.04-7.129-2.984-7.35-2.1-0.2206,0.8839-0.0506,3.742,0.1958,4.066z"
           fill="#a1a1a1"
           id="path123" />
        <path
           d="m412.6,116c-0.1088,0.5092,0.7376,2.82,1.083,3.039,0.3451,0.2193,2.663,0.1306,3.048-0.5139,0.3847-0.6445-0.9603-4.388-1.576-4.655-0.6158-0.2665-2.446,1.621-2.555,2.13z"
           fill="#a1a1a1"
           id="path125" />
        <path
           d="m413.8,124.4c0.3835,0.2445,2.373,0.4969,2.74,0.2397,0.3672-0.2572,0.5892-4.013,0.2882-4.48-0.301-0.4672-2.695-0.1018-2.962,0.1691-0.2668,0.2709-0.4495,3.827-0.066,4.071z"
           fill="#a1a1a1"
           id="path127" />
        <path
           d="m379,129.5c0-0.648,7.414-0.543,7.379,0-0.071,0.863,1.406,1.078,1.332,3.383-0.036,1.945-1.836,2.484-1.727,3.238,0.07,0.543-6.375,0.504-6.23-0.07,0.109-0.434-1.907-1.117-1.907-3.563,0-2.015,1.153-2.484,1.153-2.988z"
           fill="#a1a1a1"
           id="path129" />
        <path
           d="m395.2,130.1c0-0.613,6.086-0.613,6.051-0.07-0.074,0.828,1.762,1.043,1.727,3.273-0.036,1.871-1.801,2.414-1.692,3.133,0.07,0.504-6.156,0.469-6.047-0.07,0.106-0.434-1.875-1.082-1.875-3.422,0-1.981,1.836-2.27,1.836-2.844z"
           fill="#a1a1a1"
           id="path131" />
        <path
           d="m395.5,138.1c0-0.649,6.262-0.61,6.227-0.071-0.071,0.828,1.835,1.043,1.8,3.278-0.035,1.906-1.871,2.48-1.765,3.203,0.074,0.504-6.336,0.469-6.192-0.074,0.11-0.43-1.941-1.079-1.941-3.493,0-1.976,1.871-2.265,1.871-2.843z"
           fill="#a1a1a1"
           id="path133" />
        <path
           d="m386,95.75,0,0c1.43,0,2.594,1.211,2.594,2.699s-1.164,2.699-2.594,2.699c-1.429,0-2.593-1.211-2.593-2.699s1.164-2.699,2.593-2.699zm-0.109,0.574c1.129,0,2.051,0.953,2.051,2.125s-0.922,2.125-2.051,2.125-2.051-0.953-2.051-2.125,0.922-2.125,2.051-2.125zm0.18,0.539c0.754,0,1.367,0.664,1.367,1.476,0,0.813-0.613,1.477-1.367,1.477s-1.368-0.664-1.368-1.477c0-0.812,0.614-1.476,1.368-1.476"
           fill-rule="evenodd"
           id="path135" />
        <path
           d="m389.9,98.59c0,1.551,1.187,2.774,2.664,2.774s2.664-1.223,2.664-2.774c0-1.546-1.187-2.769-2.664-2.769s-2.664,1.223-2.664,2.769zm0.684-0.035c0,1.227,0.937,2.196,2.125,2.196,1.152,0,1.835-1.008,1.835-2.231,0-1.187-0.683-2.125-1.835-2.125-1.188,0-2.125,0.973-2.125,2.16zm0.578-0.07c0,0.828,0.613,1.477,1.367,1.477,0.719,0,1.332-0.649,1.332-1.477s-0.613-1.477-1.332-1.477c-0.754,0-1.367,0.649-1.367,1.477"
           fill-rule="evenodd"
           id="path137" />
        <path
           d="m404.6,107.3c1.262,0.359,0.614,15.77,0.11,20.09-0.145,1.113-29.3,0.933-29.48-0.074-0.753-4.102-0.793-18.43,0.612-19.69,1.041-0.934,26.1-1.118,28.76-0.325z"
           fill="#e0e0e0"
           id="path139" />
        <path
           d="m383.3,110.4c0.105,0.109,0.105,3.277-0.074,3.457-0.18,0.215-4.176,0.18-4.391,0.035-0.144-0.144-0.18-3.168-0.07-3.457,0.105-0.18,4.281-0.215,4.535-0.035z"
           id="path141" />
        <path
           d="m382.4,111.1c0.11,0.075,0.075,1.946-0.035,2.051-0.109,0.11-2.449,0.11-2.554,0-0.11-0.07-0.11-1.871-0.075-2.015,0.075-0.145,2.52-0.145,2.664-0.036z"
           fill="#00F"
           id="path143" />
        <path
           d="m390.7,115.4c0.215-0.469,9.719-0.539,10.3-0.071,0.289,0.215,0.25,7.774-0.145,8.172-0.433,0.465-9.539,0.43-9.972,0.035-0.325-0.289-0.395-7.488-0.18-8.136"
           id="path145" />
        <path
           d="m400,116.1c0.215,0.179,0.215,6.191-0.105,6.551-0.363,0.359-7.633,0.324-7.957,0.035-0.289-0.25-0.36-6.012-0.145-6.516,0.145-0.394,7.739-0.43,8.207-0.07z"
           fill="#00F"
           id="path147" />
        <path
           d="m389.1,110.3c0.105,0.109,0.105,3.312-0.074,3.492-0.215,0.18-4.211,0.18-4.391,0-0.144-0.144-0.18-3.168-0.07-3.422,0.07-0.215,4.281-0.25,4.535-0.07z"
           id="path149" />
        <path
           d="m388.2,111c0.074,0.071,0.074,1.946-0.036,2.051-0.109,0.109-2.484,0.109-2.593,0-0.071-0.07-0.106-1.871-0.036-2.016,0.075-0.109,2.52-0.144,2.665-0.035z"
           fill="#00F"
           id="path151" />
        <path
           d="m383.3,115.4c0.145,0.105,0.145,3.273-0.035,3.457-0.219,0.179-4.215,0.179-4.395,0.035-0.14-0.145-0.179-3.168-0.07-3.457,0.07-0.18,4.285-0.215,4.5-0.035z"
           id="path153" />
        <path
           d="m382.5,116c0.07,0.035,0.07,1.941-0.039,2.051-0.106,0.109-2.485,0.109-2.59,0-0.074-0.07-0.11-1.871-0.035-2.016,0.035-0.144,2.519-0.144,2.664-0.035z"
           fill="#00F"
           id="path155" />
        <path
           d="m389.2,115.3c0.145,0.106,0.145,3.309-0.035,3.454-0.219,0.218-4.215,0.179-4.395,0.039-0.14-0.145-0.179-3.168-0.07-3.457,0.07-0.18,4.246-0.215,4.5-0.036z"
           id="path157" />
        <path
           d="m388.3,116c0.07,0.07,0.07,1.941-0.039,2.051-0.106,0.105-2.485,0.105-2.59,0-0.074-0.075-0.11-1.871-0.035-2.016,0.035-0.144,2.519-0.144,2.664-0.035z"
           fill="#00F"
           id="path159" />
        <path
           d="m383.5,120.1c0.144,0.105,0.109,3.312-0.07,3.492-0.18,0.18-4.176,0.18-4.36,0-0.14-0.145-0.18-3.168-0.07-3.422,0.07-0.215,4.25-0.25,4.5-0.07z"
           id="path161" />
        <path
           d="m382.6,120.8c0.071,0.071,0.071,1.942-0.039,2.051-0.105,0.109-2.48,0.109-2.59,0-0.074-0.07-0.109-1.871-0.035-2.016,0.035-0.109,2.52-0.144,2.664-0.035z"
           fill="#F00"
           id="path163" />
        <path
           d="m389.3,120.2c0.144,0.07,0.109,3.273-0.07,3.457-0.18,0.18-4.176,0.18-4.36,0-0.14-0.11-0.215-3.168-0.07-3.422,0.07-0.215,4.25-0.254,4.5-0.035z"
           id="path165" />
        <path
           d="m388.5,120.8c0.071,0.074,0.071,1.946-0.039,2.055-0.105,0.105-2.48,0.105-2.589,0-0.075-0.074-0.11-1.836-0.036-2.016,0.036-0.109,2.52-0.144,2.664-0.039z"
           fill="#00F"
           id="path167" />
        <path
           d="m395,110.4c0.109,0.109,0.109,3.277-0.071,3.457-0.215,0.18-4.211,0.18-4.39,0-0.145-0.109-0.18-3.133-0.075-3.422,0.075-0.215,4.286-0.25,4.536-0.035z"
           id="path169" />
        <path
           d="m394.2,111c0.07,0.036,0.07,1.911-0.035,2.016-0.11,0.109-2.449,0.109-2.559,0.035-0.105-0.105-0.144-1.871-0.07-2.051,0.07-0.109,2.519-0.144,2.664,0z"
           fill="#F00"
           id="path171" />
        <path
           d="m400.9,110.4c0.145,0.109,0.145,3.277-0.035,3.457-0.215,0.18-4.211,0.18-4.39,0.035-0.145-0.144-0.18-3.168-0.075-3.457,0.075-0.18,4.25-0.215,4.5-0.035z"
           id="path173" />
        <path
           d="m400,111c0.07,0.035,0.07,1.946-0.035,2.051-0.11,0.109-2.485,0.109-2.594,0-0.07-0.07-0.109-1.871-0.035-2.016,0.035-0.144,2.519-0.144,2.664-0.035z"
           fill="#F00"
           id="path175" />
      </g>
      <g
         id="banana">
        <rect
           id="rect3135"
           style="fill:none;stroke:none"
           width="88.893303"
           height="31.338314"
           x="170.79057"
           y="13.318278" />
        <path
           d="m 181.072,26.272 c 14.36,0.641 27.17,3.891 37.39,1.988 10.22,-1.903 11.11,-4.129 16.4,-5.93 4.102,-1.402 7.773,-1.951 11.59,-2.779 1.474,-0.8551 3.258,-2.562 5.504,-5.232 l 3.348,-0.6836 4.211,2.27 -1.582,1.762 c -3.199,2.29 -7.754,4.584 -8.606,6.336 -0.3512,5.206 -5.77,13.14 -12.64,15.27 -11.99,3.958 -26.36,6.744 -39.5,4.141 -8.61,-1.391 -12.51,-4.863 -16.71,-10.19 -2.16,-2.734 -1.98,-1.941 -3.672,-2.805 l 0.5865,-5.4057 c 0.8725,0.6096 2.0945,1.4373 3.6805,1.2583 z"
           id="path178"
           inkscape:connector-curvature="0"
           sodipodi:nodetypes="csccccccccccccc" />
        <path
           d="m 181.495,27.21 c 13.02,1.946 23.14312,2.565379 32.36,2.414 9.21688,-0.151379 17.37991,-5.069472 21.96,-6.515 4.58009,-1.445528 7.886,-1.541 11.2,-2.444 1.347,-1.692 3.41,-1.941 6.008,-5.443 l 1.836,1.441 -1.477,1.656 2.02,-1.512 1.402,0.0351 c -1.332,1.332 -3.636,2.234 -5.543,3.816 -1.875,1.586 -1.875,0.2149 -2.988,2.09 -1.082,1.906 -0.106,3.151 -1.254,5.921 -3.068,7.75 -10.01,9.433 -14.71,11.12 -9.163,3.264 -31.87,6.066 -42.21,0.4184 -4.394,-2.625 -7.019,-5.578 -9.219,-7.449 -0.07,-0.5039 0.13963,-0.297621 0.04,-0.793 12.11,5.764 20.84,6.341 33.43,5.067 12.59,-1.274 19.54,-3.649 30.07,-8.813 0.25,-0.5039 -15.37,6.538 -30.1,8.011 -14.74,1.473 -23.11,-0.5634 -33.55,-4.842 0.33281,-1.800124 0.0339,-2.432986 0.725,-4.1785 z"
           id="path180"
           inkscape:connector-curvature="0"
           style="fill:#ffff00"
           sodipodi:nodetypes="czzcccccccccccccscccc" />
        <path
           d="m 177.73743,30.162 c 0.64872,0.449251 1.173,0.793062 1.72957,0.2891 0.55657,-0.503962 1.1505,-2.2851 0.684,-2.988 -0.4665,-0.7029 -1.79899,-1.619244 -2.051,-0.8632 -0.25201,0.756044 -1.01129,3.112849 -0.36257,3.5621 z"
           id="path182"
           inkscape:connector-curvature="0"
           style="fill:#804000"
           sodipodi:nodetypes="zzzzz" />
        <path
           d="m 254.426,15.2236 c 0.43,0.2891 1.836,1.371 2.375,0.8672 1.367,-1.297 -1.765,-1.73 -1.801,-1.5509 -0.289,0.7931 -1.437,0.1095 -0.574,0.6837 z"
           id="path184"
           inkscape:connector-curvature="0"
           style="fill:#804000"
           sodipodi:nodetypes="cccc" />
      </g>
      <g
         id="scissors">
        <path
           d="M 73.8,42.23 C 70.65,46.18 58.438866,48.049451 55.607295,39.047761 52.775724,30.046072 64.47,28.94 79.92,26.36 87.72,22.64 108.6,10.86 126.6,13.76 L 84.41,29.14 c -2.8,2.77 -7.36,2.71 -10.92,3.99 -0.4,2.49 3.46,5.15 0.31,9.1 z m -2.126,-3.777 c -0.81315,3.067 -7.468499,4.433501 -9.923,2.343 -2.454501,-2.090501 -2.99,-5.31 0.96,-7.203 3.95,-1.893 9.77615,1.793 8.963,4.86 z"
           id="path187"
           inkscape:connector-curvature="0"
           style="fill-rule:evenodd"
           sodipodi:nodetypes="szccccszzzz" />
        <path
           d="M 59.65732,42.6606 C 53.567015,37.81536 57.637,32.661 61.379,30.827 c 3.023,-1.441 7.453,-1.367 10.15,-1.551 l 8.93,-1.941 c 11.15,-6.75 30.54,-13.72 41.24,-13.11 l -37.87,13.86 c 0,0.6484 -0.7578,0.9023 -2.773,1.801 -2.445,1.117 -7.45,2.34216 -8.782,2.70116 5.466758,10.706938 -6.526375,14.91868 -12.61668,10.07344 z M 70.46,33.56 c 4.529542,3.077422 2.131952,8.228414 -3.746,9.324 -5.877952,1.095586 -9.372366,-3.49722 -7.9685,-7.1745 1.403866,-3.67728 7.184958,-5.226922 11.7145,-2.1495 z"
           id="path189"
           inkscape:connector-curvature="0"
           style="fill:#a1a1a1;fill-rule:evenodd"
           sodipodi:nodetypes="zccccccczzzzz" />
        <path
           d="M 58.222985,8.592388 C 53.244966,11.52596 50.762836,22.88903 68.9,24.34 l 10.44,1.656 c 10.57,7.572 30.82,12.71 39.49,13.39 6.371,0.504 6.805,-0.1445 7.234,-0.7929 l -42.19,-15.37 c -2.384,-2.347 -7.816216,-3.05856 -11.359216,-4.37256 1.176499,-1.611634 4.04952,-5.515572 1.471194,-8.564266 C 71.407651,7.2375804 63.201004,5.658816 58.222985,8.592388 z M 62.57,19.266 c 4.910618,1.1503 9.769113,-3.525729 7.661463,-6.433806 C 68.123813,9.9241174 64.055348,10.008862 61.606276,10.879657 59.157205,11.750452 57.659382,18.1157 62.57,19.266 z"
           id="path191"
           inkscape:connector-curvature="0"
           style="fill-rule:evenodd"
           sodipodi:nodetypes="zcccccczzzzzz" />
        <path
           d="m 57.45684,10.8228 c -3.495831,5.289026 -1.059119,8.568611 3.35316,10.7112 4.412279,2.142589 11.59,1.98 14.76,2.629 l 4.539,1.117 c 0.1406,0.1054 1.078,-1.801 1.367,-1.371 0.2148,0.3594 -0.7227,1.586 -0.5782,1.656 11.58,7.316 32.49,13.84 41.8,12.89 l -33.91,-11.92 c -0.6132,0.9726 -0.7929,1.547 -1.082,1.586 -0.1445,0.0352 -0.0703,-1.047 0.3242,-1.945 l -4.824,-1.91 C 83.2412,23.6566 82.4521,23.3675 80.472,22.469 78.023,21.352 72.54128,19.76784 71.24428,19.40384 80.893947,7.9575444 60.952671,5.5337735 57.45684,10.8228 z M 71.679,13.038 c -3.0705,-4.8345 -10.11,-4.5955001 -12.75,-0.92 -2.64,3.6755 0.505,6.85 3.2715,7.9705 2.7665,1.1205 12.549,-2.216 9.4785,-7.0505 z"
           id="path193"
           inkscape:connector-curvature="0"
           style="fill:#a1a1a1;fill-rule:evenodd"
           sodipodi:nodetypes="zzccccccccccczzzzz" />
        <path
           d="M 85.88225,26.41454 C 85.86465,26.21729 85.9348,25.5661 85.2864,25.3864 84.6379,25.2068 84.2394,25.4958 83.8802,25.82 z"
           id="path195"
           inkscape:connector-curvature="0"
           sodipodi:nodetypes="cccc" />
        <path
           d="m 85.80063,26.81585 c -0.14455,0.2324 -0.60905,0.736 -1.25375,0.5524 -0.6485,-0.2148 -0.74377,-0.66957 -0.77897,-1.13417 z"
           id="path197"
           inkscape:connector-curvature="0"
           sodipodi:nodetypes="cccc" />
      </g>
      <g
         id="flower">
        <path
           d="m 220.4,165.3 6.59,0.5782 0,0 c -0.504,-5.723 -0.9745,-10.495 -0.543,-20.88 0.4315,-10.385 1.332,-15.98 2.27,-20.7 11.38344,-0.59366 13.70235,-5.9501 11.269,-15.875 -5.90122,1.40572 -8.98964,5.99282 -10.586,11.235 l 5.364,-26.43 c 0.039,4.934 -1.981,7.922 0.613,10.4 2.555,2.524 8.137,1.946 9.793,-1.258 1.656,-3.242 -1.586,-8.136 -2.699,-12.17 2.554,2.809 3.453,6.84 6.84,6.481 3.347,-0.359 6.8,-4.789 5.937,-7.992 -0.863,-3.242 -5.937,-3.133 -10.22,-5.078 5.293,-0.106 8.387,2.304 11.23,-0.934 2.883,-3.203 1.008,-10.69 -1.801,-12.31 -2.769,-1.657 -4.82,2.265 -9.14,5.039 2.664,-4.5 5.937,-7.778 4.64,-11.63 -1.293,-3.887 -7.09,-5.508 -10.01,-3.168 -2.949,2.379 -1.906,6.914 -1.761,12.06 -1.043,-6.086 -2.125,-10.76 -5.653,-12.39 -3.562,-1.618 -7.633,2.054 -8.531,6.445 -0.902,4.39 3.273,6.84 6.984,9.828 -4.214,-1.547 -8.211,-2.914 -10.94,-1.078 -2.734,1.836 -2.844,6.621 -0.574,8.89 2.301,2.266 6.297,-0.468 10.22,-0.324 -4.25,2.41 -8.387,2.305 -9.29,5.903 -0.898,3.636 2.485,8.211 5.149,9.039 2.629,0.863 5.184,-3.856 6.551,-7.094 l -7.344,34.67 c -1.36218,-13.11286 -5.86335,-17.90315 -16.83193,-15.53083 -0.65181,16.72749 10.26511,18.39414 15.57493,18.70183 -0.324,2.23 -1.98,5.7585 -2.484,14.72 -0.504,8.9615 -0.434,14.15 -0.614,20.84"
           id="path200"
           inkscape:connector-curvature="0"
           sodipodi:nodetypes="ccczcccccccccccccccccccccccccccczc" />
        <path
           d="m 227.616,116.16 c -1.621,6.839 -0.758,4.355 -2.918,12.45 -2.61263,-6.00905 -1.97628,-20.39814 -16.02419,-16.96973 -0.0263,11.77026 3.79712,15.42741 16.13919,17.36873 -2.76224,9.02295 -3.31183,16.70664 -2.988,35.061 l 3.852,0.1797 c -0.4943,-13.14272 -0.79281,-24.6411 2.304,-40.65 11.09803,-1.17193 12.45489,-2.94873 11.305,-14.075 -7.46303,2.02168 -7.72222,8.70976 -11.305,13.246 2.086,-11.62 3.887,-21.06 6.047,-30.31 l -0.035,-1.473 -1.19,0.90065 C 231.432,98.116 230.35,104.82 227.616,116.16 z"
           id="path202"
           inkscape:connector-curvature="0"
           style="fill:#00c200"
           sodipodi:nodetypes="ccccccccccccc" />
        <path
           d="M 243.19337,79.478933 C 245.02017,82.71902 242.56654,87.676 238,87.676 c -4.56654,0 -7.04422,-4.844444 -4.8749,-8.990724 2.16931,-4.146279 8.24146,-2.44643 10.06827,0.793657 z"
           id="path204"
           inkscape:connector-curvature="0"
           style="fill:#ffff00"
           sodipodi:nodetypes="zzzz" />
        <path
           d="m 232.615,61.9 c -2.305,-1.657 -7.383,1.98 -7.309,5.257 0.106,3.239 5.613,8.278 7.883,9.36 1.187,-1.082 2.988,-1.91 4.211,-1.9465 0,-2.1955 -2.445,-11.0205 -4.785,-12.6705 z"
           id="path206"
           inkscape:connector-curvature="0"
           style="fill:#ff0000"
           sodipodi:nodetypes="ccccc" />
        <path
           d="m 221.45,75.864 c -2.774,0.719 -4.285,6.875 -1.153,7.848 3.024,0.938 8.711,-1.078 10.98,-1.367 -0.215,-1.586 0.324,-2.918 0.721,-4.285 -1.655,-0.938 -7.811,-2.879 -10.548,-2.196 z"
           id="path208"
           inkscape:connector-curvature="0"
           style="fill:#ff0000"
           sodipodi:nodetypes="ccccc" />
        <path
           d="m 221.62,89.545 c -1.223,2.555 1.406,8.531 4.61,7.883 3.167,-0.649 5.078,-7.199 7.453,-9.539 -0.973,-1.043 -1.332,-1.547 -1.982,-3.059 -2.306,0.504 -8.856,2.121 -10.081,4.715 z"
           id="path210"
           inkscape:connector-curvature="0"
           style="fill:#ff0000"
           sodipodi:nodetypes="ccccc" />
        <path
           d="m 235.96,102.22 c 1.118,2.629 7.524,2.41 8.028,-0.793 0.469,-2.949 -1.981,-10.4 -3.781,-12.31 -1.473,0.364 -2.161,0.504 -3.707,0.2535 -0.864,2.7345 -1.657,10.2195 -0.54,12.8495 z"
           id="path212"
           inkscape:connector-curvature="0"
           style="fill:#ff0000"
           sodipodi:nodetypes="ccccc" />
        <path
           d="m 248.517,95.558 c 2.09,0.504 6.949,-3.528 5.402,-6.371 -1.476,-2.664 -6.914,-3.457 -9.398,-4.285 -0.574,1.152 -1.223,2.234 -2.121,3.058 1.008,2.16 3.777,7.059 6.117,7.598 z"
           id="path214"
           inkscape:connector-curvature="0"
           style="fill:#ff0000"
           sodipodi:nodetypes="ccccc" />
        <path
           d="m 255.05,81.95 c 2.34,-1.617 1.511,-11.05 -1.731,-10.73 -3.094,0.289 -7.269,5.039 -9.324,6.84 0.613,1.222 0.758,1.765 0.9035,3.638 2.4115,0.506 7.8145,1.873 10.1515,0.252 z"
           id="path216"
           inkscape:connector-curvature="0"
           style="fill:#ff0000"
           sodipodi:nodetypes="ccccc" />
        <path
           d="m 249.001,65.57 c 0.254,-2.808 -5.473,-5.976 -8.242,-4.285 -2.809,1.696 -1.477,10.51 -1.586,13.61 1.406,0.215 2.23,0.898 3.527,1.8355 1.332,-1.2235 6.012,-8.3175 6.301,-11.1605 z"
           id="path218"
           inkscape:connector-curvature="0"
           style="fill:#ff0000"
           sodipodi:nodetypes="ccccc" />
      </g>
      <g
         id="fish">
        <rect
           y="90.191368"
           x="41.070065"
           height="67.110153"
           width="111.60728"
           style="fill:none;stroke:none"
           id="rect3107" />
        <path
           d="m89.43,98.04c3.598-0.719,10.87-5.902,15.95-7.559,1.082,2.16,0.4996,7.821,1.797,9.332,13.47,3.777,17.62,10.79,21.93,19.4,5.475-8.648,8.929-15.28,20.77-18.22-3.528,8.922-14.01,27.79,2.594,45.25-8.559,2.8-22.67-7.382-24.19-14.55-7.417,35.59-60.58,30.81-72.7,3.484-4.08-20.9,12.5-35,33.83-37.06z"
           id="path221" />
        <path
           d="m 56.61,131.75 c 6.707,1.963 14.54,1.105 19.03,-1.142 -4.625,5.592 -11.29,5.28 -18.26,4.105 13.01,26.54 65.56,30.21 70.39,-6.952 0.464,0.109 1.592,3.178 2.998,4.694 -0.828,-4.863 -0.9835,-7.717 0.0945,-13.3 -0.468,1.007 -1.078,2.265 -1.761,3.851 C 117.9015,91.686 87.662205,98.97874 76.87243,102.01452 66.082655,105.0503 54.08,119.87 56.61,131.75 z"
           id="path223"
           inkscape:connector-curvature="0"
           style="fill:#c2ff80"
           sodipodi:nodetypes="ccccccczc" />
        <path
           d="m72.5,111.2c3.078,0,5.578,2.68,5.578,5.977s-2.5,5.977-5.578,5.977-5.578-2.68-5.578-5.977,2.5-5.977,5.578-5.977"
           id="path225" />
        <path
           d="m71.93,112.9c2.305,0,4.176,1.953,4.176,4.355,0,2.403-1.871,4.356-4.176,4.356s-4.176-1.953-4.176-4.356c0-2.402,1.871-4.355,4.176-4.355"
           fill="#FFF"
           id="path227" />
        <path
           d="m69.95,117c0.6719,0,1.223,0.629,1.223,1.403,0,0.773-0.5508,1.402-1.223,1.402-0.6719,0-1.223-0.629-1.223-1.402,0-0.774,0.5507-1.403,1.223-1.403"
           id="path229" />
        <path
           d="m84.49,108.8c3.892,11,5.223,27.86-1.297,40.07,6.936-12.61,8.578-23.44,1.297-40.07"
           id="path231" />
        <path
           d="m87.62,110.9c4.255,10.52,2.608,28.4-1.297,36.15,5.81-13.06,7.484-25.31,1.297-36.15"
           id="path233" />
        <path
           d="m 104.37,91.989 c 0.973,1.293 1.073,4.361 0.7478,7.205 -4.1,-0.5 -10.05,-0.66 -12.7289,-0.837 2.6551,-1.509 8.4521,-5.075 11.9811,-6.368 z"
           id="path235"
           inkscape:connector-curvature="0"
           style="fill:#00c200"
           sodipodi:nodetypes="cccc" />
        <path
           d="m147.4,102.8c-26.74,16.38-15.75,39.26,1.754,42.99-16.16-17.99-1.754-42.99-1.754-42.99z"
           fill="#00c200"
           id="path237" />
        <path
           d="m103.2,113.2c2.305-0.398-1.797,4.102-1.332,8.531,3.576,7.405,1.64,5.702,0,11.02-1.008,3.562,2.02,9.289-0.141,7.883-2.199-1.403-7.193-4.553-8.705-9.99-2.153-7.565,2.346-14.6,10.18-17.44z"
           id="path239" />
        <path
           d="m 101.49772,123.77612 c 3.00615,4.36555 0.61965,4.4777 -0.59072,8.22488 -1.210374,3.74718 3.38477,9.54059 -1.7536,5.8226 -5.138368,-3.71799 -8.491903,-14.48043 -0.4033,-21.228 8.0886,-6.74757 -0.258527,2.81497 2.74762,7.18052 z"
           id="path241"
           inkscape:connector-curvature="0"
           style="fill:#00c200"
           sodipodi:nodetypes="zzzzz" />
      </g>
      <g
         id="key">
        <rect
           style="fill:none;stroke:none"
           width="117.63906"
           height="44.887764"
           x="37.577976"
           y="204.8898"
           id="rect3121" />
        <path
           d="m 52.14084,227.62148 c 0.214667,-20.26845 28.705672,-32.88529 40.03376,-8.97348 1.077,-3.493 5.551,-2.266 4.985,1.142 16.83,-1.384 33.55,-0.9239 48.96,-0.9173 3.986,2.356 8.296,6.65 8.66,7.893 -1.237,0.6226 -4.645,7.526 -6.42,9.261 -4.565,-2.241 -6.777,-3.262 -9.508,-4.406 -1.802,1.857 -3.218,2.879 -5.814,6.506 -1.268,-2.227 -3.953,-4.831 -4.957,-6.176 -1.007,1.025 -3.686,3.728 -5.8,5.739 -1.115,-1.999 -1.896,-2.197 -2.662,-2.998 -0.7103,0.5665 -2.155,2.992 -3.448,4.102 -2.622,-2.848 -4.738,-4.332 -9.926,-4.741 -1.171,2.335 -2.618,3.796 -3.809,5.817 -2.153,-2.719 -4.41,-2.126 -5.705,-0.9979 -1.929,3.071 -4.311,0.9722 -5.765,0.3051 -14.86503,18.8489 -39.039427,8.71303 -38.82476,-11.55542 z M 69.33,222.799 c -3.487,-1.8075 -7.28605,2.116 -6.807,5.121 0.47905,3.005 2.561,4.046 5.555,3.28055 2.994,-0.76545 4.739,-6.59405 1.252,-8.40155 z"
           id="path244"
           inkscape:connector-curvature="0"
           sodipodi:nodetypes="zccccccccccccccczzzzz" />
        <path
           d="M 53.6788,227.58 C 52.98895,215.3215 64.445,206.82245 74.74,207.36 c 10.295,0.53755 14.29,7.866 16.97,14.17 0.8459,-1.18 1.82512,-3.40318 3.14,-3.302 1.31488,0.10118 1.114,0.6791 1.322,2.667 14.58,-0.9549 35.28,-0.798 48.86,-0.7716 3.707,2.603 4.925,2.677 7.673,6.366 -2.166,2.946 -2.694,3.919 -4.389,7.035 -3.311,-1.215 -1.93,-1.274 -9.926,-3.698 0,0 -2.287,1.993 -5.327,5.078 -2.304,-1.868 -4.986,-4.895 -4.986,-4.895 0,0 -3.939,2.861 -5.54,4.336 -2.561,-1.576 -2.5,-1.488 -3.484,-1.947 -0.7624,0.9288 -1.717,2.792 -3.012,3.594 -1.994,-2.639 -6.909,-3.749 -10.19,-3.691 -1.478,1.633 -2.615,2.858 -3.796,4.535 -2.535,-1.989 -6.056,-0.8198 -6.056,-0.8198 -0.2773,3.515 -4.276,3.482 -4.89,0.0342 -3.916,7.42 -9.219,11.25 -19.979,11.156 -10.76,-0.094 -16.76135,-7.3683 -17.4512,-19.6268 z m 7.70124,-2.08468 c -1.353717,5.68404 2.3825,7.868 6.976,6.8232 4.5935,-1.0448 5.08096,-5.52838 3.65276,-8.63852 -1.4282,-3.11014 -9.275043,-3.86872 -10.62876,1.81532 z"
           id="path246"
           inkscape:connector-curvature="0"
           style="fill:#999999"
           sodipodi:nodetypes="zzczcccccccccccccczzzzzz" />
        <path
           d="m 88.217,228.36 c -0.01857,-5.4945 -1.371,-12.74 -2.946,-12.95 -1.575,-0.2123 0.81345,3.9 0.9728,12.8 0.15935,8.9 -4.643,14.14 -2.6844,13.194 1.9586,-0.946 4.67617,-7.5495 4.6576,-13.044 z m 4.42324,5.635 c -1.451,0.1127 -1.40776,-10.88776 0.19453,-10.64776 1.602,0.2389 1.25676,10.53776 -0.19453,10.64776 z m 55.51776,-6.2388 c 0.0525,1.343 -4.5095,0.29285 -23.61,0.9082 -19.1005,0.61535 -24.86,1.581 -24.88,0.5049 -0.02328,-1.076 5.763,-0.9249 25.6315,-1.62835 19.8685,-0.70345 22.7985,-1.12795 22.8585,0.21525 z m -48.64,-2.7912 c -0.06275,-2.402 2.21,-1.29835 22.4,-1.953 20.19,-0.65465 24.54,-1.184 24.58,0.7235 0.0331,1.907 -0.748,1.51125 -21.02,1.833 -20.272,0.32175 -25.89,1.8 -25.96,-0.6024 z"
           id="path248"
           inkscape:connector-curvature="0"
           sodipodi:nodetypes="zczczcccczczcczczcc" />
      </g>
      <g
         id="horse">
        <rect
           y="186.47697"
           x="186.08618"
           height="73.459404"
           width="82.241974"
           style="fill:none;stroke:none"
           id="rect3127" />
        <path
           sodipodi:nodetypes="ccccccccssccccccccccccsccccccccccc"
           inkscape:connector-curvature="0"
           id="path3129"
           d="m 194.64708,200.95879 c 1.29347,-2.06356 1.69548,-2.77986 3.26939,-4.34982 -1.64736,-1.0929 -1.52869,-5.49541 2.78808,-4.62664 0.87558,-1.53285 1.07935,-2.46398 2.1474,-5.18096 l 1.60879,3.29803 c 1.13436,-0.69536 2.31836,-0.80458 3.07624,-0.59639 0.52757,-1.22633 1.32958,-1.9495 2.07191,-2.78207 0.18034,1.04866 0.21415,2.15593 0.56308,3.13715 3.64783,1.91377 3.96467,0.97358 6.01272,5.23974 0.80741,1.68188 4.80731,4.13373 5.97446,8.14532 1.06661,3.66598 4.32799,4.55544 4.74432,8.01194 11.33372,4.25398 23.14725,-9.68112 32.28103,3.36391 4.07743,3.11418 1.50391,14.80684 9.06477,20.08003 -2.76981,1.94197 -9.58104,-1.63257 -8.52633,-14.26371 -1.06157,8.17698 -4.65759,11.0474 -3.78067,15.43438 -1.7074,3.74046 -2.22902,12.70621 -0.72396,19.76621 -1.16402,0.72597 -1.96743,0.57977 -2.97627,0.64353 l 0.56308,2.89583 c -2.65792,0.28794 -5.11759,0.80791 -6.75696,0.0805 2.18123,-7.65726 1.33426,-15.84017 3.12921,-21.63668 -2.65306,-1.27211 -4.30217,-4.09628 -5.1402,-6.97792 -9.04767,2.96113 -13.81008,1.70602 -20.43173,0.72396 -0.45595,3.8802 0.0212,17.25671 0.0296,20.39579 0.002,0.79511 0.53648,2.10105 -0.008,3.45915 -0.8493,0.25984 -1.58058,0.17718 -2.35467,0.17461 0.48027,1.26022 0.3951,2.52045 0.24131,3.78067 -2.42086,0.0947 -4.59938,0.46629 -7.72222,-0.24131 0.26195,-1.36748 1.36005,-2.73496 2.57407,-4.10244 0.28962,-18.09517 -5.03866,-23.04576 -5.87211,-35.21068 -1.51678,-4.48571 -3.13072,-8.06238 -4.3621,-13.4043 -2.70829,1.71288 -4.08444,1.61289 -6.88767,2.5889 -4.07879,3.94644 -8.35954,-0.85395 -7.57317,-4.87037 -0.62009,-1.72811 0.11182,-2.83899 2.97628,-2.97633 z"
           style="fill:#000000;fill-opacity:1;stroke:none" />
        <path
           sodipodi:nodetypes="ccccczccccccccccccccccccscccscccs"
           inkscape:connector-curvature="0"
           id="path3899"
           d="m 209.1423,188.36571 c -0.99229,0.76211 -1.50386,2.01964 -2.12209,3.23064 -0.67664,-0.089 -1.48464,-0.12588 -2.50216,-0.0633 -0.47265,-0.74751 -1.06151,-1.52753 -1.48863,-2.59719 -0.45327,1.17829 -0.83113,2.41907 -1.4577,3.6807 3.97143,-1.01289 4.19463,2.65105 3.38029,4.19319 -0.81433,1.54215 -4.13932,2.85111 -5.27993,-0.57659 -2.84392,2.20579 -2.86379,3.62545 -4.53262,5.49605 -2.73235,-0.0492 -2.97333,1.17237 -2.59454,2.32718 -0.1537,6.73052 6.26784,7.2628 9.34427,-1.12107 0.0792,1.47849 -0.029,2.96422 -1.29859,4.59258 5.16737,-1.41389 8.16965,-3.50883 9.18516,-6.3346 -0.37665,2.53335 -1.43363,3.29531 -2.72388,4.52924 2.55996,8.08384 3.02476,6.43459 5.17963,13.84331 -0.35343,3.44202 5.56392,19.30516 5.44261,34.89631 l 2.20606,0.025 c 0.38166,-9.4161 -0.71011,-24.77243 2.8815,-30.29932 -0.37771,1.71767 -0.76933,3.10736 -0.83013,4.7458 7.25858,2.29868 15.2324,2.69698 21.96852,0.46257 -0.0225,-3.1036 0.14545,-3.34084 0.4309,-4.44822 0.37909,4.83548 1.23913,9.42034 5.95452,12.16242 -1.43644,5.44125 -1.88923,13.953 -2.13535,17.82017 1.02198,0.0444 1.84974,0.41553 3.11721,0.21436 -0.34619,-8.25972 1.59401,-18.7428 2.54571,-20.66205 1.45427,-5.76181 8.49102,-15.1753 2.24114,-21.76488 -6.7255,-7.09104 -18.04385,2.21704 -28.73331,0.18919 -8.47397,-2.58048 -12.5673,-15.5352 -17.70349,-20.45567 -0.49014,-0.95079 -0.48858,-2.63142 -0.4751,-4.08582 z m -13.27097,15.01299 c 0.46808,-0.0682 0.98721,0.17343 1.5203,0.63346 -0.0495,0.56022 -0.0936,1.14947 -1.14023,0.60179 -0.64664,0.76861 -1.2468,0.68151 -1.70387,-0.1422 0.38169,-0.77008 0.85571,-1.02481 1.3238,-1.09305 z"
           style="fill:#a05a2c;fill-opacity:1;stroke:none" />
        <path
           sodipodi:nodetypes="cccczc"
           inkscape:connector-curvature="0"
           id="path3905"
           d="m 199.26533,194.97611 -0.92971,1.11302 c -2.12745,-1.73846 0.41959,-4.9267 2.27519,-3.35589 l -0.91007,1.58551 c -0.18722,-0.87631 -1.0102,-0.73682 -1.21329,-0.33247 -0.2031,0.40436 -0.0875,1.18819 0.77788,0.98983 z"
           style="fill:#ffffff;fill-opacity:1;stroke:none" />
        <path
           sodipodi:nodetypes="zzzzzzzz"
           inkscape:connector-curvature="0"
           id="path3907"
           d="m 200.30554,194.41525 c -0.70132,1.33463 0.94156,3.89794 2.78722,3.1673 1.84567,-0.73065 1.94287,-3.36142 0.66514,-4.14916 -1.27774,-0.78774 -2.75103,-0.35277 -3.45236,0.98186 z m 3.08811,0.53844 c 0.38272,0.21624 0.34307,0.96086 -0.19004,1.1719 -0.5331,0.21104 -1.11491,-0.43494 -0.82349,-0.91852 0.29142,-0.48358 0.63082,-0.46962 1.01353,-0.25338 z"
           style="fill:#ffffff;fill-opacity:1;stroke:none" />
        <path
           sodipodi:nodetypes="ccccc"
           inkscape:connector-curvature="0"
           id="path3942"
           d="m 221.65663,231.00195 1.14429,0.17918 c -0.39474,5.57665 -0.32788,14.65813 -0.13379,20.23477 l -1.59103,-0.0887 c 0.0236,-5.93901 0.099,-15.30775 0.58053,-20.32525 z"
           style="fill:#784421;fill-opacity:1;stroke:none" />
        <path
           sodipodi:nodetypes="cccc"
           inkscape:connector-curvature="0"
           id="path3942-5"
           d="m 254.75223,235.67519 c -1.78942,7.39458 -1.16263,13.13638 -1.19882,16.66589 l -1.17238,0.11018 c 0.0263,-6.54586 1.63198,-15.22975 2.3712,-16.77607 z"
           style="fill:#784421;fill-opacity:1;stroke:none" />
      </g>
    </g>
  </g>
</svg>
